<svg xmlns="http://www.w3.org/2000/svg" width="26" height="30" viewBox="0 0 26 30">
    <g fill="none" fill-rule="nonzero">
        <path fill="#CDD6E0" d="M19.565 29.959L1.023 26.834a1.22 1.22 0 0 1-.999-1.438l4.12-24.375a1.218 1.218 0 0 1 1.437-1l18.541 3.125a1.22 1.22 0 0 1 1 1.438L21 28.959c-.125.625-.75 1.125-1.436 1z"/>
        <path fill="#F2F2F2" d="M21.937 1.334H3.208c-.687 0-1.248.562-1.248 1.25V27.27c0 .688.561 1.25 1.248 1.25h18.73c.686 0 1.248-.562 1.248-1.25V2.584c0-.688-.562-1.25-1.249-1.25z"/>
        <path fill="#84DBFF" d="M4.457 3.834h8.553v9.875H4.457z"/>
        <g fill="#ACB3BA">
            <path d="M3.021 20.21h19.104v1.25H3.021zM3.021 16.334h19.104v1.25H3.021zM3.021 24.021h8.678v1.25H3.021z"/>
        </g>
        <path fill="#F8B64C" d="M14.695 12.459h7.367v1.25h-7.367z"/>
        <path fill="#FFD15C" d="M14.695 8.584h7.367v1.25h-7.367z"/>
        <ellipse cx="18.254" cy="24.896" fill="#86B03E" rx="2.497" ry="2.5"/>
        <ellipse cx="18.254" cy="24.896" fill="#F2F2F2" rx="1.998" ry="2"/>
        <ellipse cx="18.254" cy="24.896" fill="#9AD14B" rx="1.561" ry="1.563"/>
        <g fill="#3F4B5B">
            <path d="M7.079 7.709c.5 1.812 1.685 1.937 1.685 1.937s1.187-.125 1.686-1.937c0 0 .25-.188.063-1 0 0-.125-1.563-1.686-1.563-1.56 0-1.686 1.563-1.686 1.563-.374.75-.062 1-.062 1z"/>
            <path d="M11.449 10.084L10.2 9.646l-.187-.062c-.624.562-1.186.687-1.248.687H8.64c-.063 0-.625-.062-1.249-.687l-.187.062-1.249.438c-.624.25-1.061.812-1.061 1.5v.875h7.616v-.875c0-.625-.437-1.25-1.061-1.5z"/>
        </g>
    </g>
</svg>
