<svg xmlns="http://www.w3.org/2000/svg" width="36" height="37" viewBox="0 0 36 37">
    <g fill="#4CA0E8" fill-rule="nonzero">
        <path d="M18.327 0a3.6 3.6 0 1 0 0 7.2 3.6 3.6 0 0 0 0-7.2zm0 6a2.4 2.4 0 1 1 0-4.8 2.4 2.4 0 0 1 0 4.8zM20.345 7.636h-.141l-.127.063a4.783 4.783 0 0 1-4.263 0l-.127-.063h-.142a3.004 3.004 0 0 0-3 3v3.6a1.8 1.8 0 0 0 1.8 1.8h7.2a1.8 1.8 0 0 0 1.8-1.8v-3.6a3.004 3.004 0 0 0-3-3zm1.8 6.6a.6.6 0 0 1-.6.6h-7.2a.6.6 0 0 1-.6-.6v-3.6a1.8 1.8 0 0 1 1.673-1.795 6.005 6.005 0 0 0 5.055 0 1.8 1.8 0 0 1 1.672 1.795v3.6zM30.873 19.636a3.6 3.6 0 1 0 0 7.2 3.6 3.6 0 0 0 0-7.2zm0 6a2.4 2.4 0 1 1 0-4.8 2.4 2.4 0 0 1 0 4.8zM32.89 27.818h-.14l-.127.06a4.783 4.783 0 0 1-4.264 0l-.126-.06h-.142a3.004 3.004 0 0 0-3 3v3.6a1.8 1.8 0 0 0 1.8 1.8h7.2a1.8 1.8 0 0 0 1.8-1.8v-3.6a3.004 3.004 0 0 0-3-3zm1.8 6.6a.6.6 0 0 1-.6.6h-7.2a.6.6 0 0 1-.6-.6v-3.6a1.8 1.8 0 0 1 1.673-1.795 6.005 6.005 0 0 0 5.056 0 1.8 1.8 0 0 1 1.672 1.795v3.6zM5.236 19.636a3.6 3.6 0 1 0 0 7.2 3.6 3.6 0 0 0 0-7.2zm0 6a2.4 2.4 0 1 1 0-4.8 2.4 2.4 0 0 1 0 4.8zM7.8 27.818h-.142l-.126.06a4.783 4.783 0 0 1-4.264 0l-.126-.06H3a3.004 3.004 0 0 0-3 3v3.6a1.8 1.8 0 0 0 1.8 1.8H9a1.8 1.8 0 0 0 1.8-1.8v-3.6a3.004 3.004 0 0 0-3-3zm1.8 6.6a.6.6 0 0 1-.6.6H1.8a.6.6 0 0 1-.6-.6v-3.6a1.8 1.8 0 0 1 1.672-1.795 6.005 6.005 0 0 0 5.056 0A1.8 1.8 0 0 1 9.6 30.818v3.6zM23.953 30.526v-.003a.6.6 0 0 0-.788-.316 13.31 13.31 0 0 1-8.558.589l.562-.165a.6.6 0 1 0-.337-1.152l-2.4.704c-.01 0-.016.01-.024.013a.595.595 0 0 0-.155.086.524.524 0 0 0-.06.037.581.581 0 0 0-.193.452c.015.082.035.162.06.24.004.009 0 .018.007.027l1.2 2.296a.6.6 0 1 0 1.064-.556l-.488-.933c3.226.97 6.69.781 9.791-.533a.6.6 0 0 0 .32-.786zM34.133 15.988a.6.6 0 0 0-.848 0l-.849.85a14.378 14.378 0 0 0-8.692-11.88.6.6 0 1 0-.47 1.103 13.18 13.18 0 0 1 7.936 10.604l-.677-.677a.6.6 0 0 0-.848.849l1.8 1.8a.6.6 0 0 0 .849 0l1.8-1.8a.6.6 0 0 0 0-.849zM13.4 5.403a.558.558 0 0 0-.015-.103c0-.006-.006-.01-.009-.015-.002-.006 0-.01 0-.015a.575.575 0 0 0-.056-.083.606.606 0 0 0-.069-.1.563.563 0 0 0-.117-.079.528.528 0 0 0-.067-.049l-2.4-1.096a.6.6 0 0 0-.498 1.091l1.243.568a14.378 14.378 0 0 0-7.594 12.686.6.6 0 0 0 1.2 0 13.18 13.18 0 0 1 6.494-11.366l-.434.906a.6.6 0 0 0 1.08.52l1.2-2.504c0-.006 0-.013.005-.019a.577.577 0 0 0 .032-.127.621.621 0 0 0 .023-.099.598.598 0 0 0-.017-.116z"/>
    </g>
</svg>
