<svg xmlns="http://www.w3.org/2000/svg" width="27" height="30" viewBox="0 0 27 30">
    <g fill="none" fill-rule="nonzero">
        <path fill="#FEA832" d="M21.977 11.571a.803.803 0 0 0-.705-.439H5.488a.803.803 0 0 0-.706.44L.298 20.54l.486 1.568h25.254l.424-1.568-4.485-8.969z"/>
        <path fill="#BF6015" d="M2.051 20.54l3.92-7.84h14.818l3.92 7.84z"/>
        <path fill="#DBE9FD" d="M19.317 2.927H7.495A2.219 2.219 0 0 0 5.28 5.144v15.27c0 1.222.994 2.217 2.216 2.217h11.822a2.219 2.219 0 0 0 2.216-2.217V5.144a2.219 2.219 0 0 0-2.216-2.217z"/>
        <path fill="#6BBAE2" d="M14.91 10.819h-2.956a.739.739 0 0 1-.74-.739V7.371H8.998a.739.739 0 0 1-.591-1.182L12.84.28c.279-.372.903-.372 1.183 0l4.435 5.91a.739.739 0 0 1-.592 1.182H15.65v2.71a.739.739 0 0 1-.74.738z"/>
        <path fill="#A1AAB3" d="M17.818 13.746h-1.194a.734.734 0 0 1-.735-.732c0-.404.329-.732.735-.732h1.194c.407 0 .736.328.736.732 0 .404-.33.732-.736.732z"/>
        <g fill="#A1AAB3">
            <path d="M13.71 13.762H9a.739.739 0 1 1 0-1.476h4.711a.739.739 0 1 1 0 1.476zM17.865 16.715H9a.739.739 0 1 1 0-1.476h8.866a.739.739 0 1 1 0 1.476zM17.865 19.667H9a.739.739 0 1 1 0-1.476h8.866a.739.739 0 1 1 0 1.476z"/>
        </g>
        <path fill="#FEA832" d="M26.462 20.54H.298c-.141.267-.298.517-.298.8v6.308A2.349 2.349 0 0 0 2.352 30h22.056a2.349 2.349 0 0 0 2.352-2.352V21.34c0-.283-.157-.533-.298-.8z"/>
        <path fill="#BF6015" d="M9.408 20.54v2.352a2.349 2.349 0 0 0 2.352 2.352H15a2.349 2.349 0 0 0 2.352-2.352V20.54H9.408z"/>
    </g>
</svg>
