<svg xmlns="http://www.w3.org/2000/svg" width="62" height="62" viewBox="0 0 94.37 92"><defs><style>.cls-1{fill:#f7f7f7;}.cls-2{fill:#ce7c45;}.cls-3{fill:#30a6cf;}.cls-4{fill:#e05850;}.cls-5{fill:#fff;}.cls-6{fill:#eec666;}.cls-7{fill:#e7c063;}.cls-8{fill:#d6d9db;}</style></defs><title>email_1</title><g id="Layer_2" data-name="Layer 2"><g id="Layer_3" data-name="Layer 3"><path class="cls-1" d="M83.28,0H9.54A2.61,2.61,0,0,0,7,2.69V39.06L47.39,57.21,86,39.86V2.69A2.76,2.76,0,0,0,83.28,0Z"/><polyline class="cls-2" points="93.16 36.61 85.91 32.11 85.94 39.86 93.16 36.61"/><polyline class="cls-2" points="1.42 36.61 6.9 33.04 6.92 39.06 1.42 36.61"/><path class="cls-3" d="M86,6V2.37A2.22,2.22,0,0,0,83.61,0H9.87A2.63,2.63,0,0,0,7,2.37V6Z"/><polygon class="cls-4" points="19.97 6.58 24.61 0 34.81 0 30.08 6.62 19.97 6.58"/><polygon class="cls-3" points="38.64 6.55 43.37 0 53.91 0 49.37 6.58 38.64 6.55"/><polygon class="cls-4" points="58.07 6.58 62.8 0 72.68 0 67.95 6.62 58.07 6.58"/><polygon class="cls-5" points="34.81 0 43.71 0 38.26 7 29.65 7 34.81 0"/><polygon class="cls-1" points="16.38 0 24.61 0 19.77 6.87 11.37 6.79 16.38 0"/><polygon class="cls-1" points="53.91 0 62.8 0 57.77 7 49.14 6.92 53.91 0"/><polygon class="cls-1" points="72.68 0 81.57 0 76.95 6.58 67.95 6.62 72.68 0"/><path class="cls-6" d="M47.3,57.21.12,78.93,0,36.05V87.53A4.67,4.67,0,0,0,4.81,92h85a4.47,4.47,0,0,0,4.57-4.48l0-51.47Z"/><polygon class="cls-6" points="37.08 52.59 0.21 36 0.17 36 47.3 57.17 37.08 52.59"/><polygon class="cls-6" points="47.3 57.21 0.17 36.05 0.2 78.93 47.3 57.21"/><path class="cls-7" d="M6,76.21,0,78.93v8.6A4.67,4.67,0,0,0,4.81,92h85a4.47,4.47,0,0,0,4.57-4.48V36Z"/><path class="cls-8" d="M31.57,22.72a1.47,1.47,0,1,0-1.47-1.47A1.47,1.47,0,0,0,31.57,22.72Zm-1.16,5.7L33,24.86l6.19,9.55c-11.15,4.21-19.35,0-19.35,0l6.77-11.09Zm45.66-6h0l-29.31-.3a1.32,1.32,0,1,1,0-2.63l29.31.3a1.32,1.32,0,0,1,0,2.63Zm-.48,6.36H47.29a1.32,1.32,0,1,1,0-2.63h28.3a1.32,1.32,0,0,1,0,2.63Zm-28.3,6.65a1.32,1.32,0,0,1,0-2.63l20.66-.15h0a1.32,1.32,0,0,1,0,2.63l-20.66.15Z"/><path class="cls-1" d="M31.3,29.72a.12.12,0,0,1-.1-.06l-.9-1.38a.13.13,0,0,1,.21-.14l.9,1.38a.12.12,0,0,1,0,.17Z"/></g></g></svg>