<svg xmlns="http://www.w3.org/2000/svg" width="53" height="53" viewBox="0 0 53 53">
    <g fill="none" fill-rule="nonzero">
        <g fill="#E4E7E7">
            <path d="M26.408 0C11.824 0 0 11.825 0 26.409 0 40.99 11.824 52.816 26.408 52.816c14.586 0 26.409-11.824 26.409-26.408C52.817 11.824 40.994 0 26.408 0zm0 37.961c-6.38 0-11.553-5.172-11.553-11.553 0-6.38 5.172-11.554 11.553-11.554 6.381 0 11.554 5.174 11.554 11.554S32.789 37.96 26.408 37.96z"/>
            <path d="M26.408 0C11.824 0 0 11.825 0 26.409 0 40.99 11.824 52.816 26.408 52.816c14.586 0 26.409-11.824 26.409-26.408C52.817 11.824 40.994 0 26.408 0zm0 37.961c-6.38 0-11.553-5.172-11.553-11.553 0-6.38 5.172-11.554 11.553-11.554 6.381 0 11.554 5.174 11.554 11.554S32.789 37.96 26.408 37.96z"/>
        </g>
        <path fill="#CDCFCF" d="M27.09 53C12.121 53 0 40.865 0 25.881 0 18.017 3.335 10.932 8.686 6a27.013 27.013 0 0 0-6.993 18.186c0 14.984 12.123 27.12 27.09 27.12 7.009 0 13.409-2.662 18.217-7.035A26.976 26.976 0 0 1 27.09 53z"/>
        <path fill="#CDCFCF" d="M36.39 26.882c0-6.215-5.04-11.272-11.272-11.272-2.706 0-5.186.95-7.118 2.545A11.236 11.236 0 0 1 26.728 14C32.96 14 38 19.056 38 25.272 38 28.8 36.39 31.94 33.845 34a11.14 11.14 0 0 0 2.545-7.118z"/>
        <g fill="#E2574C">
            <path d="M21.092 16.156a11.504 11.504 0 0 1 10.633 0l2.71-14.906a26.39 26.39 0 0 0-16.051.002l2.708 14.904zM16.157 31.724a11.498 11.498 0 0 1 0-10.631L1.25 18.383a26.37 26.37 0 0 0 0 16.05l14.906-2.709zM36.66 21.093a11.497 11.497 0 0 1 0 10.631l14.905 2.71a26.39 26.39 0 0 0 0-16.05l-14.905 2.71zM31.725 36.659a11.483 11.483 0 0 1-5.317 1.302c-1.918 0-3.723-.474-5.316-1.302l-2.71 14.906a26.372 26.372 0 0 0 16.05 0l-2.707-14.906z"/>
        </g>
        <path fill="#CDCFCF" d="M27.09 53C12.121 53 0 40.865 0 25.881 0 18.017 3.335 10.932 8.686 6a27.013 27.013 0 0 0-6.993 18.186c0 14.984 12.123 27.12 27.09 27.12 7.009 0 13.409-2.662 18.217-7.035A26.976 26.976 0 0 1 27.09 53z"/>
        <path fill="#CB4E44" d="M30 15.015C28.863 14.37 27.635 14 26.346 14 23.95 14 21.75 15.231 20 17.282l.087.718c.346-.27.705-.51 1.073-.723.191-.11.39-.19.587-.283a7.598 7.598 0 0 1 1.569-.558c.435-.098.875-.16 1.326-.174.073-.004.144-.031.22-.031.426 0 .843.049 1.255.125.024.002.045.011.069.015.384.074.76.181 1.13.317l.104.04a7.85 7.85 0 0 1 1.118.53 9.15 9.15 0 0 1 1.103.735L30 15.015zM37.718 21.42c.024.04.047.084.067.124.174.314.326.635.456.961.031.08.062.159.091.239.107.303.193.61.26.923.02.09.046.178.06.268.069.393.114.792.114 1.196v.004a6.85 6.85 0 0 1-.215 1.614c-.036.153-.08.3-.127.45-.13.418-.293.827-.494 1.224-.054.107-.096.22-.154.327-.226.4-.483.787-.776 1.163l.715.087C39.775 28.247 41 26.046 41 23.647c0-1.284-.369-2.51-1.012-3.647l-2.981.359c.266.342.503.697.71 1.06zM4 33.618c-1.297-2.888-2.038-6.002-2.038-9.27 0-2.12.33-4.168.89-6.14L1.487 18c-.041.114-.073.232-.116.344a23.692 23.692 0 0 0-.563 1.75c-.088.325-.157.654-.231.983a22.033 22.033 0 0 0-.296 1.565 21.92 21.92 0 0 0-.277 3.332c-.002.008-.004.014-.004.023 0 .816.059 1.62.145 2.418.032.272.075.54.116.808.075.519.169 1.034.28 1.542a22 22 0 0 0 .222.945c.126.475.277.944.434 1.41.098.29.18.585.288.872l.002.008L4 33.618zM33.791 50.143c-1.975.563-4.026.893-6.145.893-3.265 0-6.38-.742-9.264-2.036L18 51.513c.018.008.035.018.053.024.195.075.4.13.597.2a23.96 23.96 0 0 0 1.72.529c.245.064.495.12.744.174.599.134 1.206.248 1.82.332.186.028.372.057.56.079.826.092 1.66.149 2.506.149.88 0 1.748-.065 2.605-.165.195-.023.384-.053.578-.08a23.385 23.385 0 0 0 1.962-.375c.217-.052.438-.097.651-.155A23.28 23.28 0 0 0 34 51.514l-.209-1.371z"/>
    </g>
</svg>
