<svg xmlns="http://www.w3.org/2000/svg" width="158" height="158" viewBox="0 0 158 158">
    <g fill="none" fill-rule="evenodd" transform="translate(3 3)">
        <circle cx="76" cy="76" r="76" stroke="#FFF" stroke-width="5"/>
        <g fill="#FFF" fill-rule="nonzero">
            <path d="M89.06 41.026c2.664 3.278 3.986 7.143 3.986 11.594 0 3.185-.913 6.249-2.729 9.21-.996 1.676-2.309 3.297-3.948 4.842l-5.457 5.392c-5.233 5.14-8.614 9.694-10.16 13.68-.88 2.265-1.573 6.422-2.078 12.47a3 3 0 0 0 2.99 3.249h6.124a3 3 0 0 0 2.99-2.754c.425-5.151 1.006-8.563 1.745-10.237 1.294-2.933 4.125-6.509 8.493-10.746 6.006-5.82 9.992-10.234 11.966-13.233 1.974-2.999 2.97-6.91 2.97-11.734 0-7.952-2.69-14.49-8.083-19.611-5.391-5.122-12.562-7.673-21.52-7.673-9.685 0-17.302 2.989-22.853 8.967-2.074 2.235-4.229 5.788-5.8 10.123-.846 2.332-1.557 5.73-2.134 10.192a3 3 0 0 0 2.975 3.385h6.116a3 3 0 0 0 2.975-2.615c.71-5.49 1.536-9.145 2.48-10.962 2.905-5.634 8.158-8.456 15.756-8.456 6.137 0 10.542 1.64 13.196 4.917zM68.154 112.777h13.577v14.183H68.154z"/>
        </g>
    </g>
</svg>
