<svg xmlns="http://www.w3.org/2000/svg" width="58" height="58" viewBox="0 0 58 58">
    <g fill="none" fill-rule="nonzero">
        <path fill="#FDC794" d="M57.301 39.449c.815-.629.917-1.886.306-2.724-1.325-1.78-2.344-2.304-6.726.105l-8.867 5.552c-2.752 1.467-9.784 1.047-12.841 1.047 0 0 7.236.524 4.382-3.875-1.427-2.2-3.873-3.457-6.522-3.457h-3.975c-2.344 0-4.586-.733-6.42-2.095C12.254 30.545 4 37.144 4 37.144V56h14.268c2.038 0 4.076-.21 6.115-.524l13.249-2.095c.407 0 .917-.105 1.325-.105 1.12-.104 2.038-.733 2.853-1.466l15.491-12.361z"/>
        <path fill="#48A0DC" d="M0 58h4V35H0z"/>
        <path fill="#E64C3C" d="M29.261 6.244C30.694 3.024 33.845 0 37.57 0c5.061 0 8.881 4 9.358 8.976 0 0 .287 1.268-.286 3.512-.764 3.024-2.483 5.756-4.87 7.805L29.738 30.927a.286.286 0 0 1-.382 0L17.229 20.293c-2.388-2.05-4.107-4.78-4.87-7.805-.574-2.244-.287-3.512-.287-3.512C12.549 4 15.987 0 21.049 0c3.724 0 6.875 3.024 8.212 6.244"/>
        <g fill="#F9A671">
            <path d="M32.657 43.266H22.363c-.636 0-1.06-.435-1.06-1.086 0-.652.424-1.087 1.06-1.087h10.294c.637 0 1.062.435 1.062 1.087 0 .651-.425 1.086-1.062 1.086z"/>
            <path d="M18.119 46.524c-.637 0-1.062-.434-1.062-1.086 0-2.715 2.017-4.345 5.306-4.345.637 0 1.062.435 1.062 1.087 0 .651-.425 1.086-1.062 1.086-3.183 0-3.183 1.63-3.183 2.172 0 .652-.425 1.086-1.061 1.086z"/>
        </g>
    </g>
</svg>
