<svg xmlns="http://www.w3.org/2000/svg" xmlns:xlink="http://www.w3.org/1999/xlink" width="24" height="24" viewBox="0 0 24 24">
    <defs>
        <path id="a" d="M.003 0h23.951v24H.003z"/>
    </defs>
    <g fill="none" fill-rule="evenodd">
        <g>
            <mask id="b" fill="#fff">
                <use xlink:href="#a"/>
            </mask>
            <path fill="#EEA03F" d="M10.015 13.94a1.275 1.275 0 0 1-.307-1.326l.9-2.617a7.032 7.032 0 0 1-.669-2.978A6.965 6.965 0 0 1 11.951 2.1 6.96 6.96 0 0 1 16.833 0a6.953 6.953 0 0 1 5.069 2.052 6.954 6.954 0 0 1 2.051 5.069 6.96 6.96 0 0 1-2.1 4.882 6.966 6.966 0 0 1-4.906 2.012h-.012a7.032 7.032 0 0 1-2.978-.669l-2.617.9a1.275 1.275 0 0 1-1.325-.306z" mask="url(#b)"/>
            <path fill="#DC428A" d="M13.055 24c-2.827 0-6.183-1.597-8.839-4.27C1.225 16.721-.397 12.834.084 9.828.34 8.216 1.178 7.006 2.503 6.331a1.98 1.98 0 0 1 2.307.385L6.92 8.838c.422.424.632 1.007.576 1.6a1.966 1.966 0 0 1-.891 1.47l-.587.342c.21.794.77 2.44 2.011 3.688 1.25 1.257 2.887 1.823 3.678 2.036l.347-.585a1.966 1.966 0 0 1 1.475-.881 1.998 1.998 0 0 1 1.596.585l2.112 2.122a1.98 1.98 0 0 1 .37 2.31c-.682 1.32-1.897 2.15-3.511 2.398a6.864 6.864 0 0 1-1.042.077" mask="url(#b)"/>
        </g>
        <path fill="#FFF" d="M16.992 10.824c.373 0 .731-.329.714-.714-.017-.387-.314-.715-.714-.715-.374 0-.732.329-.714.715.017.387.313.714.714.714M16.992 8.767a.714.714 0 0 1-.715-.715V6.941c0-.395.32-.715.715-.715a.833.833 0 0 0 0-1.664.833.833 0 0 0-.832.832.714.714 0 0 1-1.429 0 2.263 2.263 0 0 1 2.26-2.26 2.263 2.263 0 0 1 2.261 2.26c0 .997-.649 1.846-1.546 2.145v.513c0 .395-.32.715-.714.715"/>
        <path fill="#FFF" d="M17.706 7.54a2.264 2.264 0 0 0 1.467-2.736L16.277 7.7v.352a.714.714 0 0 0 1.429 0V7.54"/>
    </g>
</svg>
