<svg xmlns="http://www.w3.org/2000/svg" width="30" height="30" viewBox="0 0 30 30">
    <g fill="none" fill-rule="nonzero">
        <path fill="#F89E62" d="M27.086 22.89l-3.124-3.123a2.447 2.447 0 0 0-3.46 0l-1.695 1.694 6.583 6.584 1.695-1.695a2.444 2.444 0 0 0 .001-3.46z"/>
        <path fill="#E95454" d="M8.539 11.192s-1.803 1.148 3.736 6.532c5.383 5.54 6.532 3.737 6.532 3.737l6.584 6.585c-2.329 2.329-6.494 4.57-17.251-6.187C-2.616 11.102-.375 6.936 1.954 4.607l6.585 6.585z"/>
        <g fill="#ED6362">
            <path d="M12.98 24.364a54.674 54.674 0 0 1-1.68-1.475 51.697 51.697 0 0 1-2.595-2.526.942.942 0 1 1 1.366-1.3 55.254 55.254 0 0 0 4.125 3.859.942.942 0 1 1-1.216 1.442zM16.227 26.834a30.127 30.127 0 0 1-1.085-.761.942.942 0 1 1 1.115-1.521c.355.26.693.497 1.018.713a.944.944 0 0 1-1.048 1.569z"/>
        </g>
        <path fill="#F89E62" d="M10.233 6.036L7.11 2.913a2.447 2.447 0 0 0-3.46 0L1.955 4.607 8.54 11.19l1.694-1.695a2.446 2.446 0 0 0 0-3.459z"/>
        <g fill="#CD494C">
            <path d="M8.538 11.19L1.955 4.608l.576-.576 6.583 6.583zM25.392 28.043l-6.584-6.583.577-.576 6.583 6.583z"/>
        </g>
        <path fill="#898989" d="M20.265 15.521a.943.943 0 0 1-.943-.943 3.95 3.95 0 0 0-3.946-3.945.943.943 0 1 1 0-1.886 5.838 5.838 0 0 1 5.832 5.831.942.942 0 0 1-.943.943z"/>
        <path fill="#898989" d="M24.639 15.521a.943.943 0 0 1-.943-.943c0-4.587-3.732-8.318-8.319-8.318a.943.943 0 1 1 0-1.886c5.627 0 10.205 4.577 10.205 10.204a.943.943 0 0 1-.943.943z"/>
        <path fill="#898989" d="M29.012 15.521a.943.943 0 0 1-.943-.943c0-6.998-5.694-12.692-12.692-12.692a.943.943 0 1 1 0-1.886c8.039 0 14.578 6.54 14.578 14.578a.942.942 0 0 1-.943.943z"/>
    </g>
</svg>
