<svg xmlns="http://www.w3.org/2000/svg" viewBox="0 0 92.92 92.92"><defs><style>.cls-1{fill:#fd7360;}.cls-2{fill:#92deac;}</style></defs><title>help</title><g id="Layer_2" data-name="Layer 2"><g id="icon"><path class="cls-1" d="M45.48,51.95c0-.42,0-.85-.06-1.27a13.68,13.68,0,0,1,.27-4.7,10.61,10.61,0,0,1,3.75-5.09,9.74,9.74,0,0,0,2-2,3.5,3.5,0,0,0-.64-3.52,4.44,4.44,0,0,0-3.32-1.2,5.06,5.06,0,0,0-4.58,2.6,4.17,4.17,0,0,0-.39,2h-5a9.15,9.15,0,0,1,.92-4.19,10,10,0,0,1,9.06-5.37,9.23,9.23,0,0,1,7.13,3c1.91,2.25,3,6.28,1.12,9.33a13.74,13.74,0,0,1-3,3.24c-1.21,1.05-2,1.75-2.22,2.67a9.63,9.63,0,0,0-.1,3c0,.5.06,1,.07,1.49Zm2.43,3.74a3.24,3.24,0,1,0,3.24,3.24A3.24,3.24,0,0,0,47.91,55.69Z"/><path class="cls-2" d="M46.46,0A46.46,46.46,0,1,0,92.92,46.46,46.46,46.46,0,0,0,46.46,0Zm2,74a28.43,28.43,0,0,1-14.05-3.69h0L19.9,74l3.43-15v0A28.56,28.56,0,1,1,48.46,74Z"/></g></g></svg>