<svg xmlns="http://www.w3.org/2000/svg" width="74" height="56" viewBox="0 0 74 56">
    <g fill="none" fill-rule="nonzero">
        <path fill="#A9A8AE" d="M45.911 56a28.101 28.101 0 0 1-23.29-12.343 3.416 3.416 0 0 1 .924-4.752 3.44 3.44 0 0 1 4.767.92 21.237 21.237 0 0 0 17.6 9.33c11.7 0 21.22-9.49 21.22-21.155 0-11.665-9.52-21.154-21.22-21.154a21.228 21.228 0 0 0-17.628 9.371 3.44 3.44 0 0 1-4.765.932 3.416 3.416 0 0 1-.935-4.75A28.09 28.09 0 0 1 45.911 0C61.4 0 74 12.56 74 28S61.4 56 45.911 56z"/>
        <path fill="#64C37D" d="M53.43 30.946c.013-.02.024-.042.036-.062.047-.076.093-.153.135-.232l.021-.047c.043-.086.084-.173.12-.263l.011-.032c.038-.094.072-.19.1-.29l.01-.035c.027-.097.052-.195.07-.296.006-.029.009-.058.014-.087.014-.084.028-.167.036-.252a3.546 3.546 0 0 0 0-.7c-.008-.083-.022-.166-.036-.248-.005-.03-.007-.06-.013-.09-.02-.1-.044-.197-.071-.293l-.01-.039a3.698 3.698 0 0 0-.098-.286l-.013-.035a3.56 3.56 0 0 0-.118-.26c-.008-.017-.015-.034-.024-.05a3.552 3.552 0 0 0-.13-.227l-.04-.068a3.567 3.567 0 0 0-.145-.203c-.018-.024-.034-.049-.052-.072a3.542 3.542 0 0 0-.222-.254l-10.124-10.5a3.29 3.29 0 0 0-4.773 0c-1.318 1.367-1.318 3.583 0 4.95l4.364 4.525H3.375C1.511 25.5 0 27.067 0 29s1.511 3.5 3.375 3.5h39.102l-4.364 4.525c-1.318 1.367-1.318 3.583 0 4.95A3.305 3.305 0 0 0 40.5 43c.864 0 1.727-.342 2.386-1.025l10.125-10.5a3.41 3.41 0 0 0 .222-.254c.017-.021.031-.044.048-.066a3.48 3.48 0 0 0 .15-.21z"/>
    </g>
</svg>
