<svg xmlns="http://www.w3.org/2000/svg" width="30" height="25" viewBox="0 0 30 25">
    <g fill="none" fill-rule="evenodd">
        <path fill="#F3D55C" fill-rule="nonzero" d="M12.016 4.16L10.687.632A.977.977 0 0 0 9.773 0H.977A.977.977 0 0 0 0 .977V23.46c0 .54.438.978.977.978H24.1c.54 0 .977-.438.977-.978V5.137a.977.977 0 0 0-.977-.978H12.016z"/>
        <path fill="#F0C41B" fill-rule="nonzero" d="M25.05 6.11h3.428a.977.977 0 0 1 .944 1.23L25.05 23.654c-.003.012-.003-5.837 0-17.545z"/>
        <g fill-rule="nonzero">
            <path fill="#5D6D7E" d="M13.44 16.726l.36.36.422.42.162.163.84-.841-.942-.944z"/>
            <path fill="#FF8E31" d="M16.06 16.8l2.9 2.9a1.203 1.203 0 1 1-1.703 1.704l-2.9-2.9L16.06 16.8z"/>
            <path fill="#FECE59" d="M15.578 17.036l.236-.236 2.9 2.901a.964.964 0 0 1 .285.687c0 .26-.101.504-.284.687a.168.168 0 0 1-.237 0 .167.167 0 0 1 0-.235.635.635 0 0 0 .001-.903l-2.9-2.9z"/>
            <path fill="#34495E" d="M14.303 18.45l1.703-1.704-.127-.127a.418.418 0 0 0-.298-.124.417.417 0 0 0-.299.123l-1.107 1.108a.418.418 0 0 0 0 .596l.128.128zM4.582 12.471a5.446 5.446 0 1 1 10.892.001 5.446 5.446 0 0 1-10.892 0z"/>
            <path fill="#5D6D7E" d="M10.05 17.35a4.857 4.857 0 1 0-.002-9.714 4.857 4.857 0 0 0 .001 9.713z"/>
            <path fill="#CEE2F2" d="M9.966 16.877a4.468 4.468 0 1 0 0-8.935 4.468 4.468 0 0 0 0 8.935z"/>
            <path fill="#FFF" d="M10.211 8.72a.396.396 0 0 0-.35-.176c-.617.037-1.2.211-1.733.52a.394.394 0 0 0 .396.681c.425-.244.89-.384 1.383-.414a.391.391 0 0 0 .37-.414.372.372 0 0 0-.066-.198zM7.605 9.94a.392.392 0 0 0-.632-.028 3.9 3.9 0 0 0-.583 3.937.394.394 0 0 0 .73-.3 3.102 3.102 0 0 1-.172-1.77c.095-.504.316-.977.637-1.371a.395.395 0 0 0 .02-.469z"/>
        </g>
    </g>
</svg>
