<svg xmlns="http://www.w3.org/2000/svg" width="51" height="48" viewBox="0 0 51 48">
    <g fill="#4CA0E8" fill-rule="nonzero">
        <path d="M49.428 45.096H45.98V.98c0-.54-.515-.98-1.15-.98H5.748c-.635 0-1.15.44-1.15.98v44.116H1.15c-.635 0-1.15.44-1.15.98 0 .541.515.98 1.15.98h48.278c.635 0 1.15-.439 1.15-.98 0-.54-.515-.98-1.15-.98zm-19.541 0h-9.196v-7.843h9.196v7.843zm13.794 0H32.186v-8.823c0-.541-.515-.98-1.15-.98H19.541c-.634 0-1.149.439-1.149.98v8.823H6.897V1.96h36.784v43.135z"/>
        <path d="M9.662 13.792h6.442c.592 0 1.073-.454 1.073-1.014V6.693c0-.56-.48-1.014-1.073-1.014H9.662c-.592 0-1.073.455-1.073 1.014v6.085c0 .56.48 1.014 1.073 1.014zm1.074-6.084h4.294v4.056h-4.294V7.708zM33.52 13.792h6.441c.593 0 1.074-.454 1.074-1.014V6.693c0-.56-.481-1.014-1.074-1.014H33.52c-.593 0-1.074.455-1.074 1.015v6.084c0 .56.481 1.014 1.074 1.014zm1.073-6.084h4.295v4.056h-4.295V7.708zM21.114 13.792h6.441c.593 0 1.074-.454 1.074-1.014V6.693c0-.56-.481-1.014-1.074-1.014h-6.441c-.593 0-1.074.455-1.074 1.014v6.085c0 .56.481 1.014 1.074 1.014zm1.074-6.084h4.294v4.056h-4.294V7.708zM9.662 23.528h6.442c.592 0 1.073-.454 1.073-1.014V16.43c0-.56-.48-1.014-1.073-1.014H9.662c-.592 0-1.073.454-1.073 1.014v6.085c0 .56.48 1.014 1.073 1.014zm1.074-6.085h4.294V21.5h-4.294v-4.057zM33.52 23.528h6.441c.593 0 1.074-.454 1.074-1.014V16.43c0-.56-.481-1.014-1.074-1.014H33.52c-.593 0-1.074.454-1.074 1.014v6.085c0 .56.481 1.014 1.074 1.014zm1.073-6.085h4.295V21.5h-4.295v-4.057zM21.114 23.528h6.441c.593 0 1.074-.454 1.074-1.014V16.43c0-.56-.481-1.014-1.074-1.014h-6.441c-.593 0-1.074.454-1.074 1.014v6.085c0 .56.481 1.014 1.074 1.014zm1.074-6.085h4.294V21.5h-4.294v-4.057zM9.662 34.075h6.442c.592 0 1.073-.454 1.073-1.014v-6.085c0-.56-.48-1.014-1.073-1.014H9.662c-.592 0-1.073.455-1.073 1.014v6.085c0 .56.48 1.014 1.073 1.014zm1.074-6.084h4.294v4.056h-4.294v-4.056zM33.52 34.075h6.441c.593 0 1.074-.454 1.074-1.014v-6.085c0-.56-.481-1.014-1.074-1.014H33.52c-.593 0-1.074.455-1.074 1.014v6.085c0 .56.481 1.014 1.074 1.014zm1.073-6.084h4.295v4.056h-4.295v-4.056zM21.114 34.075h6.441c.593 0 1.074-.454 1.074-1.014v-6.085c0-.56-.481-1.014-1.074-1.014h-6.441c-.593 0-1.074.455-1.074 1.014v6.085c0 .56.481 1.014 1.074 1.014zm1.074-6.084h4.294v4.056h-4.294v-4.056z"/>
    </g>
</svg>
