<svg xmlns="http://www.w3.org/2000/svg" width="30" height="22" viewBox="0 0 30 22">
    <g fill="none" fill-rule="evenodd">
        <g fill-rule="nonzero">
            <g fill="#FF9E24">
                <path d="M11.086 12.121L.174 21.015A.604.604 0 0 1 0 20.59V3.652c0-.165.066-.315.174-.424l10.912 8.893zM25.455 3.652V20.59a.604.604 0 0 1-.174.425L14.369 12.12 25.28 3.228c.107.109.174.26.174.424z"/>
            </g>
            <path fill="#FFE1D6" d="M24.851 3.046H.603a.6.6 0 0 0-.43.182l12.554 13.135L25.281 3.228a.6.6 0 0 0-.43-.182z"/>
            <path fill="#FFB14D" d="M16.781 12.121l8.5 8.894a.6.6 0 0 1-.43.181H.603a.6.6 0 0 1-.43-.181l8.5-8.894 4.054 4.242 4.054-4.242z"/>
        </g>
        <circle cx="25.455" cy="4.545" r="4.545" fill="#C23934" fill-rule="nonzero"/>
        <path fill="#FFF" d="M27.145 6.012v.655h-2.842v-.649h1.152V3.176l-1.085.521-.303-.564 1.466-.757h.715v3.636z"/>
    </g>
</svg>
