<svg xmlns="http://www.w3.org/2000/svg" width="35" height="37" viewBox="0 0 35 37">
    <g fill="#4CA0E8" fill-rule="nonzero">
        <path d="M27.75 23.3c-.719-.745-1.587-1.144-2.507-1.144-.912 0-1.787.392-2.537 1.137l-2.344 2.327c-.192-.104-.385-.2-.57-.296a9.44 9.44 0 0 1-.735-.391c-2.196-1.388-4.191-3.198-6.105-5.539-.927-1.166-1.55-2.149-2.003-3.146.609-.553 1.172-1.13 1.721-1.683.208-.207.416-.421.623-.628 1.558-1.55 1.558-3.56 0-5.11L11.268 6.81c-.23-.229-.467-.465-.69-.702-.445-.457-.912-.93-1.394-1.373-.72-.71-1.58-1.086-2.485-1.086-.905 0-1.78.377-2.522 1.086l-.015.015L1.64 7.284a5.393 5.393 0 0 0-1.61 3.433c-.178 2.157.46 4.165.95 5.48 1.202 3.227 2.997 6.218 5.675 9.423 3.248 3.862 7.158 6.912 11.623 9.06 1.706.806 3.983 1.758 6.528 1.92.155.008.319.015.467.015 1.713 0 3.152-.613 4.28-1.831.007-.015.022-.022.03-.037.385-.465.83-.886 1.298-1.337.319-.302.645-.62.964-.952.734-.76 1.12-1.647 1.12-2.555 0-.916-.393-1.795-1.142-2.533L27.75 23.3zm2.656 7.777c-.007 0-.007.007 0 0-.29.31-.586.59-.905.9-.482.459-.972.939-1.432 1.478-.749.797-1.631 1.174-2.789 1.174-.11 0-.23 0-.34-.007-2.204-.14-4.251-.997-5.787-1.728-4.198-2.024-7.885-4.897-10.948-8.537-2.53-3.035-4.22-5.841-5.34-8.854-.69-1.84-.943-3.272-.832-4.623a3.384 3.384 0 0 1 1.024-2.193l2.53-2.519c.363-.34.749-.524 1.127-.524.467 0 .845.28 1.083.517l.022.022c.453.421.883.857 1.335 1.322.23.236.468.473.705.716l2.025 2.016c.786.783.786 1.507 0 2.29-.215.214-.423.428-.638.635a38.638 38.638 0 0 1-1.862 1.802c-.015.014-.03.022-.037.036-.638.636-.52 1.256-.386 1.677l.023.066c.526 1.27 1.268 2.467 2.396 3.892l.007.007c2.047 2.511 4.206 4.468 6.587 5.967.304.192.616.347.912.495.267.133.52.258.735.391.03.015.059.037.089.052.252.126.49.185.734.185.616 0 1.001-.384 1.128-.51l2.536-2.525c.253-.252.653-.554 1.12-.554.46 0 .839.288 1.069.539l.014.015 4.088 4.068c.764.754.764 1.53.007 2.312zM18.762 8.573a9.758 9.758 0 0 1 5.31 2.755 9.81 9.81 0 0 1 2.755 5.31c.084.508.523.862 1.023.862.062 0 .116-.008.177-.015a1.04 1.04 0 0 0 .854-1.201 11.87 11.87 0 0 0-3.332-6.426 11.869 11.869 0 0 0-6.425-3.332c-.57-.093-1.1.284-1.2.846-.1.562.269 1.108.838 1.2zM34.985 15.527A18.853 18.853 0 0 0 29.69 5.312 18.842 18.842 0 0 0 19.478.015a.999.999 0 0 0-1.15.817c-.09.55.274 1.063.824 1.16 3.46.586 6.617 2.228 9.127 4.732a16.832 16.832 0 0 1 4.73 9.13c.082.49.505.832.988.832.06 0 .111-.007.17-.015a.984.984 0 0 0 .818-1.144z"/>
    </g>
</svg>
