<svg xmlns="http://www.w3.org/2000/svg" width="62" height="62" viewBox="0 0 62 62">
    <g fill="none" fill-rule="nonzero">
        <path fill="#C5D8DF" d="M61.032 27.12c-.499-.313-4.409-2.656-5.963-3.366l-1.926-4.65c.572-1.537 1.665-5.85 1.836-6.597a2.067 2.067 0 0 0-.553-1.922l-3.011-3.01a2.067 2.067 0 0 0-1.922-.554c-.567.13-4.992 1.238-6.598 1.836L38.246 6.93c-.68-1.487-2.953-5.305-3.366-5.963A2.066 2.066 0 0 0 33.13 0h-4.26c-.71 0-1.372.366-1.75.968-.313.499-2.655 4.41-3.366 5.963l-4.65 1.926c-1.537-.572-5.85-1.665-6.597-1.836a2.067 2.067 0 0 0-1.922.553l-3.01 3.011a2.067 2.067 0 0 0-.554 1.922c.13.567 1.238 4.992 1.836 6.598L6.93 23.754c-1.487.68-5.305 2.953-5.963 3.366A2.066 2.066 0 0 0 0 28.87v4.26c0 .71.366 1.372.968 1.75.499.313 4.409 2.655 5.963 3.366l1.926 4.65c-.572 1.537-1.665 5.85-1.836 6.597-.159.693.05 1.419.553 1.922l3.011 3.01a2.066 2.066 0 0 0 1.922.554c.567-.13 4.992-1.238 6.598-1.836l4.649 1.926c.68 1.487 2.953 5.305 3.366 5.963.378.602 1.04.968 1.75.968h4.26c.71 0 1.372-.366 1.75-.968.313-.499 2.655-4.41 3.366-5.963l4.65-1.926c1.537.572 5.85 1.665 6.597 1.836.693.159 1.419-.05 1.922-.553l3.01-3.011a2.067 2.067 0 0 0 .554-1.922c-.13-.567-1.238-4.992-1.836-6.598l1.926-4.649c1.487-.68 5.305-2.953 5.963-3.366.602-.378.968-1.04.968-1.75v-4.26c0-.71-.366-1.372-.968-1.75zM31 44.515c-7.452 0-13.515-6.063-13.515-13.515 0-7.452 6.063-13.515 13.515-13.515 7.452 0 13.515 6.063 13.515 13.515 0 7.452-6.063 13.515-13.515 13.515z"/>
        <path fill="#9CC2D0" d="M61.033 27.12c-.5-.313-4.41-2.655-5.965-3.366l-1.924-4.65c.571-1.537 1.664-5.85 1.835-6.597a2.066 2.066 0 0 0-.553-1.922l-3.012-3.011a2.066 2.066 0 0 0-1.922-.553c-.566.13-4.991 1.239-6.596 1.835l-4.65-1.924c-.68-1.488-2.953-5.305-3.366-5.965A2.065 2.065 0 0 0 33.13 0H31v17.485c7.452 0 13.515 6.063 13.515 13.515 0 7.453-6.063 13.515-13.515 13.515V62h2.13c.711 0 1.372-.365 1.75-.967.313-.5 2.655-4.41 3.366-5.965l4.65-1.924c1.537.571 5.85 1.664 6.597 1.835.693.16 1.419-.05 1.922-.553l3.011-3.012c.503-.502.711-1.229.553-1.922-.13-.566-1.239-4.991-1.835-6.596l1.924-4.65c1.488-.68 5.305-2.953 5.965-3.366A2.065 2.065 0 0 0 62 33.13v-4.26c0-.71-.365-1.372-.967-1.75z"/>
    </g>
</svg>
