<svg xmlns="http://www.w3.org/2000/svg" width="30" height="30" viewBox="0 0 30 30">
    <g fill="none" fill-rule="nonzero">
        <path fill="#FFC100" d="M0 14.975C0 6.704 6.704 0 14.974 0S29.95 6.704 29.95 14.975c0 8.27-6.704 14.974-14.975 14.974C6.704 29.949 0 23.245 0 14.975z"/>
        <g fill="#FFF">
            <path d="M25.85 10.391l-1.874.005c-1.405-3.15-4.162-5.425-7.645-5.97-3.88-.608-7.594 1.194-9.809 4.364-.984 1.408 1.328 2.727 2.303 1.33 3.038-4.348 9.523-3.955 12.188.283l-1.731.004a.407.407 0 0 0-.347.174.383.383 0 0 0-.039.494c1.1 1.705 2.198 3.41 3.297 5.116a.449.449 0 0 0 .766-.003l3.271-5.132c.18-.283-.057-.666-.38-.665zM21.148 19.752c-3.014 4.315-9.423 3.962-12.126-.184l1.66-.004c.16 0 .275-.072.346-.173a.384.384 0 0 0 .039-.495L7.77 13.781a.449.449 0 0 0-.766.003l-3.271 5.131c-.18.283.057.666.38.665l1.932-.005c1.419 3.098 4.152 5.332 7.598 5.872 3.88.608 7.594-1.194 9.808-4.365.984-1.408-1.328-2.726-2.303-1.33z"/>
        </g>
    </g>
</svg>
