<svg xmlns="http://www.w3.org/2000/svg" width="30" height="25" viewBox="0 0 30 25">
    <g fill="none" fill-rule="evenodd">
        <path fill="#37A18E" d="M29.663 18.956l-5.625-4.464a.977.977 0 0 0-.998-.123.892.892 0 0 0-.54.809v2.678h-1.57c-1.3 0-2.49-.628-3.18-1.678l-6.07-9.25C10.3 4.826 7.923 3.57 5.32 3.57H0v3.571h5.32c1.3 0 2.49.629 3.18 1.679l6.07 9.25c1.38 2.102 3.758 3.357 6.36 3.357h1.57v2.678c0 .347.21.661.54.81a.991.991 0 0 0 .398.083c.215 0 .429-.07.6-.207l5.625-4.464a.872.872 0 0 0 .337-.686.872.872 0 0 0-.337-.686z"/>
        <path fill="#43C1AA" d="M29.663 4.67L24.038.207a.977.977 0 0 0-.998-.121.886.886 0 0 0-.54.807v2.679h-1.57c-2.604 0-4.981 1.255-6.36 3.357l-6.069 9.25c-.69 1.05-1.88 1.678-3.182 1.678H0v3.572h5.32c2.602 0 4.98-1.255 6.36-3.357l6.069-9.25c.692-1.05 1.88-1.679 3.182-1.679H22.5v2.679c0 .346.21.662.54.809a.966.966 0 0 0 .998-.123l5.625-4.465A.872.872 0 0 0 30 5.356a.872.872 0 0 0-.337-.685z"/>
    </g>
</svg>
