<svg xmlns="http://www.w3.org/2000/svg" width="30" height="28" viewBox="0 0 30 28">
    <g fill="none" fill-rule="nonzero">
        <path fill="#FEDB41" d="M28.42 9.914l-8.706-1.746-4.5-7.703a.918.918 0 0 0-.716-.436.86.86 0 0 0-.802.453L9.352 8.291l-8.67 1.92c-.646.14-.908.942-.454 1.431l6.036 6.528-.855 8.85a.864.864 0 0 0 1.221.872l7.868-3.613.21-.104 8.13 3.543a.878.878 0 0 0 1.22-.908l-1.046-8.815 5.896-6.65c.436-.506.175-1.309-.488-1.431z"/>
        <path fill="#FC3" d="M28.908 11.345l-5.896 6.65 1.046 8.815a.878.878 0 0 1-1.22.908l-8.13-3.543-.21.104V.03c.262.017.541.157.715.436l4.501 7.704 8.706 1.745c.663.122.924.925.488 1.431z"/>
        <path fill="#FEA832" d="M21.773 12.148l-4.274-.855-2.216-3.753a.883.883 0 0 0-.785-.436.804.804 0 0 0-.732.436l-2.129 3.823-4.257.942a.862.862 0 0 0-.453 1.432l2.966 3.211-.437 4.346c-.052.664.628 1.17 1.24.873l3.802-1.745.157-.07 4.013 1.728a.857.857 0 0 0 1.204-.89l-.506-4.347 2.896-3.264c.436-.506.174-1.309-.489-1.43z"/>
        <path fill="#FE9923" d="M22.262 13.58l-2.896 3.264.506 4.346a.857.857 0 0 1-1.204.89l-4.013-1.728-.157.07V7.104c.314 0 .61.14.785.436l2.216 3.753 4.274.855c.663.122.925.925.489 1.431z"/>
    </g>
</svg>
