<svg xmlns="http://www.w3.org/2000/svg" xmlns:xlink="http://www.w3.org/1999/xlink" width="280" height="150" viewBox="0 0 280 150">
    <defs>
        <path id="a" d="M4 0h272a4 4 0 0 1 4 4v146H0V4a4 4 0 0 1 4-4z"/>
        <rect id="c" width="439" height="270" rx="1.406"/>
        <filter id="d" width="105.2%" height="108.5%" x="-2.6%" y="-3.5%" filterUnits="objectBoundingBox">
            <feMorphology in="SourceAlpha" operator="dilate" radius="1" result="shadowSpreadOuter1"/>
            <feOffset dy="2" in="shadowSpreadOuter1" result="shadowOffsetOuter1"/>
            <feGaussianBlur in="shadowOffsetOuter1" result="shadowBlurOuter1" stdDeviation="2.5"/>
            <feColorMatrix in="shadowBlurOuter1" values="0 0 0 0 0.031372549 0 0 0 0 0.215686275 0 0 0 0 0.42745098 0 0 0 0.1 0"/>
        </filter>
    </defs>
    <g fill="none" fill-rule="evenodd">
        <mask id="b" fill="#fff">
            <use xlink:href="#a"/>
        </mask>
        <use fill="#FFF" xlink:href="#a"/>
        <g mask="url(#b)">
            <g transform="translate(-2 -30)">
                <mask id="e" fill="#fff">
                    <use xlink:href="#c"/>
                </mask>
                <use fill="#000" filter="url(#d)" xlink:href="#c"/>
                <use fill="#66788C" xlink:href="#c"/>
                <g mask="url(#e)">
                    <g transform="translate(-80.353 -73.493)">
                        <ellipse cx="203.037" cy="203.353" fill="#A7D9FF" fill-rule="nonzero" rx="202.847" ry="203.353"/>
                        <path fill="#7DB9E6" fill-rule="nonzero" d="M30.318 228.004c-.056 1.802-.137 3.599-.137 5.415 0 95.704 77.39 173.288 172.856 173.288s172.857-77.584 172.857-173.288c0-1.816-.081-3.613-.137-5.415H30.317z"/>
                        <path fill="#FFFFF5" fill-rule="nonzero" d="M30.318 228.004c-.056 1.802-.137 3.599-.137 5.415 0 11.11 1.085 21.962 3.08 32.491h339.554c1.993-10.529 3.079-21.38 3.079-32.491 0-1.816-.081-3.613-.137-5.415H30.317z" opacity=".4"/>
                        <path fill="#7DB9E6" fill-rule="nonzero" d="M154.018 238.834H30.274c.208 5.483.725 10.902 1.549 16.246h122.195c5.546 0 10.042-3.637 10.042-8.123 0-4.486-4.496-8.123-10.042-8.123z"/>
                        <path fill="#2F3741" fill-rule="nonzero" d="M131.777 147.872h11.529v5.812h-11.53z"/>
                        <path fill="#252B33" fill-rule="nonzero" d="M144.266 147.872h-13.45a.965.965 0 0 1-.96-.969v-1.937c0-.535.43-.969.96-.969h13.45c.53 0 .961.434.961.969v1.937c0 .535-.43.969-.96.969z"/>
                        <path fill="#EDEBE1" fill-rule="nonzero" d="M147.148 165.308v-11.624h-19.214v11.624l-3.843 48.434h26.9z"/>
                        <path fill="#2F3741" d="M127.043 176.493l20.99-.078 1.52 19.167h-24.02z"/>
                        <path fill="#252B34" fill-rule="nonzero" d="M153.873 211.805h-32.664c-.53 0-.96.433-.96.968v12.593h34.585v-12.593a.965.965 0 0 0-.961-.968z"/>
                        <path fill="#2F3741" fill-rule="nonzero" d="M145.227 211.805l-6.826-3.442a1.908 1.908 0 0 0-1.719 0l-6.826 3.442v13.561h15.371v-13.561z"/>
                        <path fill="#252B34" fill-rule="nonzero" d="M141.384 225.366h-7.686V214.71c0-.535.43-.968.961-.968h5.764c.531 0 .961.433.961.968v10.656z"/>
                        <path fill="#EBDFD4" fill-rule="nonzero" d="M110.642 225.365h53.799v15.45h-53.8z"/>
                        <path fill="#E1D4C8" fill-rule="nonzero" d="M110.642 225.365h26.9v15.45h-26.9z"/>
                        <path fill="#526173" fill-rule="nonzero" d="M165.402 227.303H109.68a.965.965 0 0 1-.961-.968v-1.938c0-.535.43-.968.96-.968h55.722c.53 0 .96.433.96.968v1.938c0 .535-.43.968-.96.968z"/>
                        <path fill="#252B33" fill-rule="nonzero" d="M148.109 155.621h-21.135a.965.965 0 0 1-.961-.968v-1.938c0-.535.43-.969.96-.969h21.136c.53 0 .96.434.96.97v1.937c0 .535-.43.968-.96.968z"/>
                        <path fill="#3B4653" fill-rule="nonzero" d="M139.463 130.792v-.356a1.93 1.93 0 0 0-1.922-1.938 1.93 1.93 0 0 0-1.921 1.938v.356a5.792 5.792 0 0 0-3.843 5.456h11.528a5.792 5.792 0 0 0-3.842-5.456z"/>
                        <path stroke="#3B4653" stroke-width="1.055" d="M132.304 136.58h10.508v6.89h-10.508z"/>
                        <path fill="#252B34" fill-rule="nonzero" d="M146.991 163.37h-5.215l-11.92 3.876h17.135c.618 0 1.118-.434 1.118-.97v-1.937c0-.534-.5-.968-1.118-.968z"/>
                        <path fill="#252B34" fill-rule="nonzero" d="M127.934 163.37c-.53 0-.96.435-.96.97v1.937c0 .535.43.969.96.969h4.483l10.248-3.875h-14.73z"/>
                        <path fill="#7AA18E" fill-rule="nonzero" d="M97.822 221.987l-8.421-15.644-1.701 3.159-3.968-7.371-3.32 6.167L70.02 196.19l-8.778 9.138-8.777-11.169-7.26 9.139-6.82-10.492-5.496 10.207c-1.745 9.878-2.707 20.027-2.707 30.407 0 1.816.081 3.613.137 5.415h86.967l-13.146-28.58-6.317 11.733z"/>
                        <path fill="#DCD7C3" fill-rule="nonzero" d="M151.602 235.157c-9.662-2.589-8.021-7.51-18.448-10.149-7.047-1.783-10.695.406-22.993-.811-12.298-1.218-15.24-7.104-29.409-3.248-5.35 1.456-10.961 4.87-20.051.406-9.09-4.465-13.089-4.431-25.667-1.827-1.38.286-2.752.475-4.117.603-.44 4.39-.736 8.812-.736 13.288 0 4.276.275 8.501.676 12.7h127.43s2.405-8.526-6.685-10.962z"/>
                        <path fill="#CDC3AF" fill-rule="nonzero" d="M30.857 246.118h127.43s-3.736-9.743-16.57-7.307c-12.833 2.436-19.784-6.09-32.083-4.872-7.114.705-12.886 4.323-20.051 4.06-16.576-.609-25.342-11.164-37.698-8.931-9.481 1.714-11.622 6.393-21.685 4.898.016 4.09.274 8.134.657 12.152z"/>
                        <path fill="#7AA18E" fill-rule="nonzero" d="M375.894 233.419c0-15.919-2.185-31.318-6.193-45.96l-2.21 7.753-5.401-18.954-4.63 16.246-6.174-21.661-9.303 32.642-6.902-24.219-4.63 16.246-6.174-21.66-6.216 21.811-3.988-13.99-3 10.53-3.001-10.53-7.247 25.43-3.405-.228-10.955-38.44-6.217 21.813-3.987-13.99-5.36 18.803-6.043-21.21-6.645 23.316-3.559-12.485-2.272 7.972-3.13-10.98-7.287 25.571-9.518-33.394-9.217 32.34-6.988-24.518-10.278 27.828-9.341-34.296-8.676 29.634-3.516-12.335-4.201 14.741-1.8-6.318-8.918 31.288-6.688-23.466-16.73 57.161h226.72c1.995-10.529 3.08-21.38 3.08-32.491z"/>
                        <path fill="#8CBE69" fill-rule="nonzero" d="M297.268 179.266l-13.204 46.33h26.408z"/>
                        <path fill="#5F4648" fill-rule="nonzero" d="M295.617 225.594h3.301v13.238h-3.301z"/>
                        <path fill="#8CBE69" fill-rule="nonzero" d="M297.268 179.266l-3.3 11.583 9.902 34.748h6.602zM279.562 189.195l-9.903 29.783h19.807z"/>
                        <path fill="#5F4648" fill-rule="nonzero" d="M277.913 218.98h3.301v25.269h-3.301z"/>
                        <path fill="#8CBE69" fill-rule="nonzero" d="M279.562 189.195l-3.301 9.927 6.602 19.856h6.603zM169.727 205.44l-9.904 29.784h19.807z"/>
                        <path fill="#5F4648" fill-rule="nonzero" d="M168.075 235.226h3.301v25.269h-3.301z"/>
                        <path fill="#8CBE69" fill-rule="nonzero" d="M169.06 207.447l-2.634 7.92 6.602 19.857h6.602l-9.16-27.547-.076-.23a.703.703 0 0 0-1.334 0zM203.938 185.584l-9.903 45.127h19.806z"/>
                        <path fill="#5F4648" fill-rule="nonzero" d="M202.288 230.711h3.301v25.269h-3.301z"/>
                        <path fill="#8CBE69" fill-rule="nonzero" d="M203.938 185.584l-2.784 12.686 6.085 32.441h6.602zM238.449 179.266l-13.204 46.33h26.408z"/>
                        <path fill="#5F4648" fill-rule="nonzero" d="M236.798 225.594h3.301v13.238h-3.301z"/>
                        <path fill="#8CBE69" fill-rule="nonzero" d="M238.449 179.266l-3.3 11.583 9.902 34.748h6.602z"/>
                        <path fill="#6EAA64" fill-rule="nonzero" d="M340.483 179.266l-13.205 46.33h26.408z"/>
                        <path fill="#5F4648" fill-rule="nonzero" d="M338.831 225.594h3.301v13.238h-3.301z"/>
                        <path fill="#8CBE69" fill-rule="nonzero" d="M340.483 179.266l-3.302 11.583 9.903 34.748h6.602z"/>
                        <path fill="#DCD7C3" fill-rule="nonzero" d="M328.64 233.87c-21.177-5.79-27.908-5.866-43.214 4.062-15.305 9.928-24.752 2.335-33.76-.903-23.859-8.574-28.81 4.513-49.517 7.22-20.707 2.708-26.848-2.16-38.712 1.806-17.556 5.866-14.791 16.807-31.06 22.563-15.306 5.415-11.254 24.369-11.254 24.369H365.41c6.782-18.575 10.484-38.638 10.484-59.568 0-1.604-.078-3.19-.121-4.784-12.853 4.093-29.745 9.989-47.132 5.235z"/>
                        <g>
                            <path fill="#DCF0FF" fill-rule="nonzero" d="M204.213 126.55c0-5.622 4.546-10.18 10.154-10.18.846 0 1.655.135 2.441.33 2.65-2.867 6.407-4.691 10.613-4.691 8.01 0 14.505 6.51 14.505 14.541h-37.713z"/>
                        </g>
                        <path fill="#FFF" fill-rule="nonzero" d="M272.66 124.681c-1.249 0-2.43.247-3.561.605-3.585-5.165-9.53-8.561-16.282-8.561-6.752 0-12.697 3.396-16.282 8.56-1.131-.357-2.312-.604-3.561-.604-6.576 0-11.906 5.344-11.906 11.936h63.498c0-6.591-5.33-11.936-11.906-11.936z"/>
                    </g>
                </g>
            </g>
        </g>
    </g>
</svg>
