<svg xmlns="http://www.w3.org/2000/svg" width="63" height="60" viewBox="0 0 63 60">
    <g fill="none" fill-rule="nonzero">
        <g fill="#C4BFAD">
            <path d="M11.843 11.223l11.107-.971L4.129 8.606 0 55.784l15.865 1.388zM22.95 57.791l24.246 2.121.375-4.274z"/>
        </g>
        <path fill="#ECE8D8" d="M58.876 7.071l-8.67.761c-.826 2.095-2.85 3.58-5.23 3.58-2.028 0-3.79-1.085-4.783-2.7l-28.447 2.497L15.869 58.5 63 54.362l-4.124-47.29z"/>
        <g fill="#C9B693">
            <path d="M48.567 25.083a.955.955 0 0 0 .1-.004l3.366-.296a1.126 1.126 0 0 0 1.025-1.22 1.126 1.126 0 0 0-1.22-1.026l-3.367.295a1.127 1.127 0 0 0 .096 2.251M36.22 26.165a.955.955 0 0 0 .1-.005l7.857-.688a1.127 1.127 0 0 0-.196-2.246l-7.857.688a1.127 1.127 0 0 0 .097 2.25M21.727 27.438l10.102-.884a1.127 1.127 0 1 0-.196-2.247l-10.102.885a1.127 1.127 0 1 0 .196 2.246M44.57 29.967a1.127 1.127 0 1 0 .196 2.246l7.857-.688a1.128 1.128 0 0 0-.195-2.246l-7.858.688zM38.032 32.803a1.127 1.127 0 1 0-.196-2.246l-7.857.687a1.128 1.128 0 0 0 .195 2.246l7.858-.687zM22.317 34.18l3.367-.296a1.127 1.127 0 1 0-.196-2.247l-3.367.296a1.127 1.127 0 1 0 .196 2.246M50.77 36.215a1.127 1.127 0 1 0 .198 2.246l2.245-.197a1.125 1.125 0 0 0 1.023-1.222 1.118 1.118 0 0 0-1.221-1.024l-2.245.197zM35.056 37.591a1.127 1.127 0 1 0 .197 2.246l11.225-.982a1.127 1.127 0 1 0-.196-2.246l-11.226.982zM28.322 38.181l-5.612.492a1.128 1.128 0 0 0 .195 2.246l5.613-.491a1.127 1.127 0 0 0 1.025-1.222 1.124 1.124 0 0 0-1.22-1.025M53.606 42.76l-11.225.983a1.127 1.127 0 1 0 .196 2.246l11.225-.983a1.127 1.127 0 0 0 1.024-1.222 1.124 1.124 0 0 0-1.22-1.025M35.646 44.332l-4.489.394a1.128 1.128 0 0 0 .195 2.246l4.49-.394a1.127 1.127 0 0 0 1.024-1.221 1.123 1.123 0 0 0-1.22-1.025M26.666 45.118l-3.366.296a1.127 1.127 0 1 0 .196 2.246l3.367-.295a1.127 1.127 0 1 0-.197-2.247"/>
        </g>
        <path fill="#B8BDC1" d="M34.858 16.929a1.121 1.121 0 0 1-.789-1.911l6.098-6.12a1.114 1.114 0 0 1 1.578 0 1.123 1.123 0 0 1 0 1.584l-6.098 6.119a1.11 1.11 0 0 1-.789.328"/>
        <path fill="#E02B22" d="M50.827 5.679c0-3.136-2.534-5.679-5.66-5.679-3.124 0-5.659 2.543-5.659 5.679 0 3.135 2.535 5.678 5.66 5.678s5.66-2.543 5.66-5.678"/>
    </g>
</svg>
