<svg xmlns="http://www.w3.org/2000/svg" width="105" height="111" viewBox="0 0 105 111">
    <g fill="none" fill-rule="nonzero">
        <path fill="#0070D2" d="M13.197 79.351C8.841 72.446 6.54 64.448 6.54 56.22c0-19.211 12.548-35.795 30.185-41.247l-3.085 4.876 5.51 3.551L48.186 9.12 34.034 0l-3.52 5.562 4.647 2.993C14.637 14.73 0 33.943 0 56.22c0 9.485 2.656 18.71 7.681 26.675a49.576 49.576 0 0 0 19.948 18.014l2.877-5.925A43.019 43.019 0 0 1 13.197 79.35z"/>
        <path fill="#068BFF" d="M105 54.78c0-9.485-2.656-18.71-7.681-26.675A49.576 49.576 0 0 0 77.37 10.091l-2.877 5.925A43.022 43.022 0 0 1 91.803 31.65c4.356 6.905 6.658 14.903 6.658 23.131 0 19.211-12.548 35.795-30.185 41.247l3.086-4.876L65.85 87.6l-9.035 14.281L70.967 111l3.518-5.562-4.645-2.993C90.363 96.27 105 77.057 105 54.78z"/>
        <path fill="#E74424" d="M74.023 46.18H62.524V35.095c0-3.858-3.242-6.984-7.243-6.984h-4.844c-4 0-7.244 3.126-7.244 6.984v11.087h-11.5c-3.997 0-7.24 3.127-7.24 6.983v4.67c0 3.857 3.243 6.983 7.24 6.983h11.5v11.088c0 3.857 3.244 6.985 7.244 6.985h4.844c4.001 0 7.243-3.128 7.243-6.985V64.817h11.499c4.002 0 7.244-3.126 7.244-6.982v-4.671c0-3.856-3.243-6.983-7.244-6.983zm-11.74 8.306c-.436 2.565-3.613 5.447-6.172 7.768 0 0-1.277 1.236-1.66 1.553-.288.239-.914.719-1.59.719-.68 0-1.304-.48-1.593-.719-.383-.317-1.66-1.553-1.66-1.553-2.56-2.32-5.736-5.202-6.173-7.768-.306-1.813-.007-3.308.89-4.444.906-1.146 2.283-1.8 4.212-1.999.187-.018.355-.026.525-.026 1.362 0 2.74.49 3.797 1.317a6.27 6.27 0 0 1 3.8-1.317c.168 0 .337.008.523.026 1.929.2 3.305.853 4.212 2 .897 1.135 1.196 2.63.89 4.443z"/>
        <path fill="#F7F1E6" d="M57.31 48.095a5.35 5.35 0 0 0-.525-.026 6.3 6.3 0 0 0-3.816 1.322 6.295 6.295 0 0 0-3.813-1.322c-.17 0-.338.008-.526.026-1.937.2-3.32.856-4.23 2.006-.9 1.139-1.2 2.639-.893 4.458.439 2.574 3.628 5.464 6.198 7.792 0 0 1.282 1.24 1.667 1.558.29.24.917.72 1.598.72.68 0 1.309-.48 1.598-.72.385-.318 1.667-1.558 1.667-1.558 2.569-2.328 5.759-5.22 6.197-7.792.308-1.82.008-3.32-.893-4.458-.91-1.15-2.292-1.806-4.23-2.006z"/>
    </g>
</svg>
