<svg xmlns="http://www.w3.org/2000/svg" width="96" height="98" viewBox="0 0 96 98">
    <g fill="none" fill-rule="nonzero">
        <path fill="#9AD6D4" d="M59.413 75.4l-9.812 15.484V64.925H46.4v25.96L36.588 75.4l-2.706 1.715 12.766 20.142a1.601 1.601 0 0 0 2.705 0l12.765-20.142-2.705-1.715z"/>
        <path fill="#FFAA0E" d="M35.55 40.967C29.866 31.831 17.97 29.106 8.976 34.88c-8.994 5.773-11.678 17.86-5.995 26.997 5.5 8.839 19.946 12.617 29.95 13.076l.094 5.898 6.504-4.187-5.209-2.603c3.887-9.376 6.728-24.253 1.23-33.093z"/>
        <path fill="#57BAB7" d="M60.45 40.967c5.685-9.136 17.582-11.861 26.575-6.088 8.993 5.773 11.677 17.86 5.994 26.997-5.5 8.839-19.946 12.617-29.95 13.077l-.094 5.897-6.504-4.187 5.209-2.602c-3.887-9.377-6.728-24.254-1.23-33.094z"/>
        <path fill="#FFF" d="M8.051 58.799a1.553 1.553 0 0 1-1.313-.724c-4.226-6.702-2.24-15.61 4.432-19.858a1.547 1.547 0 0 1 2.142.482 1.565 1.565 0 0 1-.48 2.153C7.607 44.18 6.05 51.155 9.362 56.405c.302.48.32 1.087.048 1.585a1.555 1.555 0 0 1-1.359.81v-.001z"/>
        <path fill="#FF3776" d="M73.412 25.639C73.412 11.479 62.036 0 48 0 33.965 0 22.588 11.478 22.588 25.639c0 13.681 13.453 28.117 24.284 35.746l-3.63 5.99h9.517l-3.631-5.99c10.832-7.63 24.284-22.065 24.284-35.746z"/>
        <path fill="#FFF" d="M28.707 26.95c-.884 0-1.601-.7-1.601-1.564C27.108 14.091 36.523 4.9 48.093 4.9c.885 0 1.601.7 1.601 1.563s-.716 1.563-1.6 1.563c-9.806 0-17.784 7.788-17.786 17.361 0 .863-.718 1.563-1.601 1.563z"/>
    </g>
</svg>
