<svg xmlns="http://www.w3.org/2000/svg" width="178" height="157" viewBox="0 0 178 157">
    <g fill="none" fill-rule="nonzero">
        <path fill="#526173" d="M167.962 75.24c-1.894 0-3.43 1.458-3.43 3.26 0 39.542-33.841 71.71-75.438 71.71-29.53 0-55.907-16.114-68.303-41.322l17.81 7.536c1.734.742 3.755-.003 4.527-1.652.77-1.642-.008-3.568-1.738-4.3L16.329 99.866c-1.731-.745-3.757.006-4.528 1.652L.644 125.34c-.77 1.643.008 3.569 1.738 4.3.454.195.927.284 1.393.284 1.313 0 2.565-.72 3.134-1.935l7.664-16.361c13.515 27.509 42.3 45.102 74.521 45.102 45.378 0 82.297-35.095 82.297-78.23 0-1.802-1.536-3.26-3.43-3.26zM175.965 27.222c-1.731-.738-3.757.006-4.527 1.652l-7.771 16.59C150.175 17.882 121.412.27 89.094.27 43.716.27 6.797 35.365 6.797 78.5c0 1.802 1.536 3.26 3.43 3.26 1.893 0 3.429-1.458 3.429-3.26 0-39.542 33.841-71.71 75.438-71.71 29.488 0 55.754 15.99 68.194 41.071l-17.542-7.422c-1.734-.745-3.755.006-4.527 1.652-.77 1.642.008 3.568 1.738 4.3l25.062 10.607c.453.194.927.283 1.393.283 1.312 0 2.565-.72 3.134-1.936l11.158-23.822c.769-1.643-.01-3.569-1.739-4.301z"/>
        <path fill="#526173" d="M123.58 78.596C123.58 60.623 108.199 46 89.29 46 70.384 46 55 60.623 55 78.596c0 17.972 15.382 32.595 34.29 32.595s34.29-14.623 34.29-32.595z"/>
        <path fill="#E65F58" d="M62 79c0-14.336 12.235-26 27.274-26 15.039 0 27.274 11.664 27.274 26s-12.235 26-27.274 26C74.235 105 62 93.336 62 79z"/>
        <path fill="#FFF" d="M96.831 91.048a3.58 3.58 0 0 0 2.453.952 3.58 3.58 0 0 0 2.452-.952c1.355-1.27 1.355-3.326 0-4.596L93.782 79l7.954-7.452c1.355-1.27 1.355-3.326 0-4.596s-3.55-1.27-4.905 0l-7.955 7.452-7.954-7.452c-1.355-1.27-3.55-1.27-4.906 0-1.355 1.27-1.355 3.326 0 4.596L83.971 79l-7.955 7.452c-1.355 1.27-1.355 3.326 0 4.596A3.58 3.58 0 0 0 78.47 92a3.58 3.58 0 0 0 2.453-.952l7.954-7.453 7.955 7.453z"/>
    </g>
</svg>
