<svg xmlns="http://www.w3.org/2000/svg" width="64" height="71" viewBox="0 0 64 71">
    <g fill="none" fill-rule="nonzero">
        <g fill="#C4BFAD">
            <path d="M11.883 11.223l11.145-.971L4.143 8.606 0 55.784l15.918 1.388zM23.027 57.791l24.33 2.121.375-4.274z"/>
        </g>
        <path fill="#ECE8D8" d="M59.076 7.071l-8.7.761a5.643 5.643 0 0 1-5.246 3.58c-2.036 0-3.805-1.085-4.8-2.7l-28.544 2.497L15.923 58.5l47.291-4.138-4.138-47.29z"/>
        <g fill="#C9B693">
            <path d="M48.733 25.083a.962.962 0 0 0 .1-.004l3.377-.296a1.127 1.127 0 1 0-.196-2.246l-3.379.295a1.128 1.128 0 0 0 .098 2.251M36.344 26.165a.962.962 0 0 0 .1-.005l7.883-.688a1.128 1.128 0 0 0 1.028-1.22 1.131 1.131 0 0 0-1.225-1.026l-7.883.688a1.128 1.128 0 0 0 .097 2.25M21.801 27.438l10.137-.884a1.128 1.128 0 0 0 1.027-1.221 1.135 1.135 0 0 0-1.224-1.026l-10.137.885a1.128 1.128 0 1 0 .197 2.246M44.722 29.967a1.128 1.128 0 1 0 .196 2.246l7.884-.688a1.13 1.13 0 0 0 1.029-1.221 1.13 1.13 0 0 0-1.225-1.025l-7.884.688zM38.161 32.803a1.128 1.128 0 1 0-.197-2.247l-7.883.688a1.13 1.13 0 0 0-1.029 1.221 1.13 1.13 0 0 0 1.225 1.025l7.884-.687zM22.393 34.18l3.378-.296a1.128 1.128 0 1 0-.197-2.247l-3.378.296a1.128 1.128 0 1 0 .197 2.246M50.943 36.215a1.127 1.127 0 1 0 .199 2.247l2.252-.198a1.127 1.127 0 0 0 1.027-1.222 1.12 1.12 0 0 0-1.226-1.024l-2.252.197zM35.176 37.591a1.128 1.128 0 1 0 .196 2.246l11.264-.982a1.128 1.128 0 0 0 1.028-1.221 1.134 1.134 0 0 0-1.224-1.025l-11.264.982zM28.419 38.181l-5.632.492a1.129 1.129 0 1 0 .196 2.246l5.632-.491a1.128 1.128 0 1 0-.196-2.247M53.788 42.76l-11.263.983a1.128 1.128 0 1 0 .197 2.246l11.263-.983a1.128 1.128 0 1 0-.197-2.247M35.768 44.332l-4.505.394a1.129 1.129 0 0 0-1.028 1.22 1.131 1.131 0 0 0 1.224 1.026l4.505-.394a1.128 1.128 0 1 0-.196-2.246M26.757 45.118l-3.378.296a1.128 1.128 0 1 0 .197 2.246l3.378-.295a1.128 1.128 0 0 0 1.028-1.222 1.136 1.136 0 0 0-1.225-1.025"/>
        </g>
        <path fill="#B8BDC1" d="M34.977 16.929a1.118 1.118 0 0 1-.792-1.911l6.119-6.12a1.12 1.12 0 0 1 1.583 1.584l-6.119 6.119a1.117 1.117 0 0 1-.791.328"/>
        <path fill="#E02B22" d="M51 5.679a5.68 5.68 0 1 0-11.358 0A5.68 5.68 0 0 0 51 5.68"/>
        <path fill="#26B99A" d="M52.134 11C42.134 11 34 19.135 34 29.134V31h1.866C45.866 31 54 22.865 54 12.866c0-1.03-.835-1.866-1.866-1.866z"/>
        <path fill="#26B99A" d="M17.866 17c-1.03 0-1.866.835-1.866 1.866C16 28.866 24.135 37 34.134 37H36v-1.866C36 25.135 27.865 17 17.866 17z"/>
        <path fill="#B89956" d="M50.607 50.543c-3.003-3.344-8.03-8.941-14.331-9.464-9.672-.802-16.01 4.769-16.276 5.006l1.17 1.302 1.169 1.301c.01-.01.24-.211.667-.522l6.672 2.832 6.297 2.848L37.044 59l11.997-4.979c.186.198.36.377.522.534L52 52.044c-.347-.336-.831-.876-1.393-1.501z"/>
        <path fill="#F9D5A5" d="M59.544 54.126a5.907 5.907 0 0 0-3.204-3.232 5.817 5.817 0 0 0-4.527.006l-12.966 5.447a6.107 6.107 0 0 0-.436-2.356 5.975 5.975 0 0 0-3.334-3.364L23.124 45.79a10.674 10.674 0 0 0-8.191.054L9 48.337l.676 1.644.01.645-.01.006.1 9.99-.66 1.65 19.393 7.919c1.325.54 2.714.809 4.103.809 1.428 0 2.856-.285 4.212-.855l19.529-8.205a5.907 5.907 0 0 0 3.196-3.239 5.999 5.999 0 0 0-.005-4.575z"/>
        <g fill="#F9BE77">
            <path d="M10.537 55.754l.082-.133-.087-5.615-.073.02.015.667-.015.006z"/>
        </g>
        <path fill="#FF3100" d="M0 44h11v23H0z"/>
        <path fill="#DBDBDD" d="M8 41h3v27H8z"/>
        <path fill="#FCD577" d="M45.282 18.663a1.704 1.704 0 0 0-2.454.057l-8.749 9.516a3.096 3.096 0 0 0-.817 2.095.471.471 0 0 1-.818.32l-5.27-5.72a1.706 1.706 0 0 0-2.456-.054 1.835 1.835 0 0 0-.057 2.546l7.542 8.183a4 4 0 0 1 1.06 2.711v2.945a1.738 1.738 0 0 0 3.476 0l-.001-9.158a4 4 0 0 1 1.059-2.711l7.542-8.183a1.835 1.835 0 0 0-.057-2.547z"/>
    </g>
</svg>
