<svg xmlns="http://www.w3.org/2000/svg" width="87" height="90" viewBox="0 0 87 90">
    <g fill="none" fill-rule="nonzero">
        <g fill="#C4BFAD">
            <path d="M16.34 14.226l15.323-1.23-25.967-2.087L0 70.712l21.888 1.76zM31.663 73.257l33.452 2.688.517-5.418z"/>
        </g>
        <path fill="#ECE8D8" d="M81.23 8.964l-11.962.964c-1.14 2.655-3.932 4.537-7.214 4.537-2.8 0-5.232-1.375-6.6-3.422l-39.249 3.166 5.688 59.946L86.92 68.91 81.23 8.964z"/>
        <g fill="#C9B693">
            <path d="M67.007 31.796c.045 0 .092-.001.137-.006l4.645-.374c.857-.068 1.488-.762 1.413-1.549-.074-.784-.833-1.375-1.683-1.299l-4.645.374c-.857.07-1.488.762-1.413 1.549.071.743.749 1.305 1.546 1.305M49.973 33.167c.045 0 .091-.002.137-.006l10.84-.872c.854-.069 1.487-.762 1.413-1.548-.077-.786-.834-1.37-1.684-1.3l-10.84.872c-.856.069-1.488.762-1.413 1.549.071.743.75 1.305 1.547 1.305M29.976 34.78l13.938-1.12c.857-.069 1.488-.762 1.414-1.548-.075-.787-.846-1.371-1.684-1.3l-13.938 1.121c-.857.069-1.488.762-1.413 1.548.071.744.75 1.305 1.547 1.305.045 0 .091-.001.136-.005M61.492 37.986c-.856.069-1.488.762-1.413 1.548.072.745.75 1.305 1.547 1.305.045 0 .091-.001.137-.006l10.84-.872c.856-.068 1.487-.761 1.414-1.548-.076-.786-.833-1.37-1.684-1.3l-10.84.873zM52.472 41.58c.856-.068 1.487-.761 1.413-1.548-.077-.786-.838-1.376-1.684-1.299l-10.84.872c-.856.069-1.487.762-1.414 1.548.071.745.75 1.305 1.546 1.305.047 0 .092-.001.137-.006l10.842-.871zM30.79 43.326l4.645-.375c.857-.068 1.488-.762 1.413-1.548-.073-.786-.82-1.365-1.683-1.3l-4.645.375c-.857.069-1.488.762-1.413 1.548.071.744.749 1.305 1.546 1.305.045 0 .092-.001.137-.005M70.047 45.907c-.855.068-1.488.762-1.412 1.55.072.743.75 1.303 1.547 1.303.045 0 .092-.001.138-.006l3.097-.25c.855-.067 1.488-.762 1.412-1.55-.077-.783-.801-1.365-1.686-1.298l-3.096.25zM48.367 47.65c-.857.07-1.488.762-1.414 1.549.07.744.75 1.305 1.547 1.305.045 0 .092-.002.137-.006l15.488-1.245c.856-.069 1.488-.762 1.413-1.548-.075-.786-.835-1.365-1.684-1.3l-15.487 1.246zM39.076 48.399l-7.743.623c-.857.067-1.488.762-1.415 1.548.07.743.75 1.305 1.547 1.305.046 0 .091-.001.137-.006l7.744-.623c.857-.068 1.488-.762 1.413-1.548-.073-.786-.827-1.37-1.683-1.3M73.959 54.202l-15.487 1.247c-.856.068-1.487.761-1.413 1.548.072.744.75 1.305 1.547 1.305.045 0 .092-.002.137-.006l15.486-1.247c.857-.068 1.488-.762 1.413-1.548-.076-.786-.828-1.375-1.683-1.3M49.18 56.195l-6.193.5c-.857.067-1.488.761-1.415 1.548.072.743.751 1.305 1.549 1.305.045 0 .09-.002.135-.006l6.195-.5c.856-.068 1.487-.761 1.413-1.547-.075-.787-.821-1.368-1.684-1.3M36.791 57.192l-4.645.375c-.856.068-1.488.762-1.413 1.548.07.743.75 1.305 1.547 1.305.045 0 .09-.002.137-.006l4.645-.374c.856-.069 1.487-.762 1.413-1.549-.075-.786-.846-1.369-1.684-1.299"/>
        </g>
        <path fill="#B8BDC1" d="M48.093 21.459c-.394 0-.788-.14-1.088-.416a1.34 1.34 0 0 1 0-2.007l8.413-7.756a1.634 1.634 0 0 1 2.176 0c.6.555.6 1.454 0 2.007l-8.412 7.756c-.3.277-.695.416-1.089.416"/>
        <path fill="#E02B22" d="M70.125 7.198C70.125 3.223 66.629 0 62.317 0c-4.312 0-7.808 3.223-7.808 7.198 0 3.975 3.496 7.198 7.808 7.198 4.312 0 7.808-3.223 7.808-7.198"/>
        <path fill="#26B99A" d="M71.685 13.944c-13.75 0-24.935 10.312-24.935 22.987v2.365h2.565c13.75 0 24.935-10.312 24.935-22.987a2.365 2.365 0 0 0-2.365-2.365h-.2z"/>
        <path fill="#26B99A" d="M24.565 21.55h-.2A2.365 2.365 0 0 0 22 23.913c0 12.676 11.186 22.987 24.935 22.987H49.5v-2.365c0-12.675-11.186-22.987-24.935-22.987z"/>
        <path fill="#B89956" d="M69.584 64.068c-4.13-4.239-11.04-11.333-19.704-11.996-13.3-1.017-22.015 6.045-22.38 6.346l1.608 1.65 1.608 1.65c.015-.012.33-.269.918-.662l9.173 3.589 8.659 3.611 1.47 6.533 16.495-6.311c.256.25.495.477.718.676L71.5 65.97c-.476-.425-1.143-1.11-1.916-1.903z"/>
        <path fill="#F9D5A5" d="M81.873 68.61c-.834-1.87-2.398-3.324-4.406-4.096a8.624 8.624 0 0 0-6.224.007l-17.829 6.905a7.21 7.21 0 0 0-.6-2.986c-.847-1.964-2.475-3.479-4.583-4.265l-16.436-6.131a15.829 15.829 0 0 0-11.262.068l-8.158 3.16.93 2.085.013.816-.013.009.138 12.662-.907 2.093L39.2 88.974a16.03 16.03 0 0 0 11.433-.058l26.852-10.4c2.005-.777 3.566-2.235 4.395-4.106a7.057 7.057 0 0 0-.007-5.8z"/>
        <g fill="#F9BE77">
            <path d="M14.497 70.674l.12-.169-.128-7.118-.107.026.022.845-.022.009z"/>
        </g>
        <path fill="#FF3100" d="M0 55.775h15.125V84.93H0z"/>
        <path fill="#DBDBDD" d="M11 51.972h4.125v34.225H11z"/>
        <path fill="#FCD577" d="M62.262 23.658a2.444 2.444 0 0 0-3.38.078L46.817 35.835a3.7 3.7 0 0 0-1.08 2.613.634.634 0 0 1-1.082.448L37.37 31.61a2.447 2.447 0 0 0-3.382-.076 2.238 2.238 0 0 0-.073 3.234l10.65 10.651a4 4 0 0 1 1.17 2.828v3.87a2.39 2.39 0 1 0 4.78 0V40.371a4 4 0 0 1 1.17-2.828l10.65-10.651a2.238 2.238 0 0 0-.073-3.234z"/>
    </g>
</svg>
