<svg xmlns="http://www.w3.org/2000/svg" width="158" height="159" viewBox="0 0 158 159">
    <g fill="none" fill-rule="nonzero">
        <path fill="#61B4E4" d="M94.437 28.094c0 6.662 5.377 12.113 11.948 12.113h39.667c6.571 0 11.948-5.45 11.948-12.113V13.94c0-6.663-5.377-12.113-11.948-12.113h-39.667c-6.571 0-11.948 5.45-11.948 12.113v14.153z"/>
        <path fill="#005CB9" d="M94.437 66.473c0 6.663 5.377 12.113 11.948 12.113h39.667c6.571 0 11.948-5.45 11.948-12.113V52.32c0-6.662-5.377-12.113-11.948-12.113h-39.667c-6.571 0-11.948 5.451-11.948 12.113v14.153z"/>
        <path fill="#FEE050" d="M94.437 104.852c0 6.662 5.377 12.114 11.948 12.114h39.667c6.571 0 11.948-5.452 11.948-12.114V90.7c0-6.662-5.377-12.113-11.948-12.113h-39.667c-6.571 0-11.948 5.451-11.948 12.113v14.153z"/>
        <path fill="#AF8400" d="M94.437 143.231c0 6.663 5.377 12.114 11.948 12.114h39.667c6.571 0 11.948-5.45 11.948-12.114V129.08c0-6.663-5.377-12.113-11.948-12.113h-39.667c-6.571 0-11.948 5.45-11.948 12.113v14.152z"/>
        <path fill="#E8E8E8" d="M123.494 12.546c0-6.9-5.517-12.546-12.26-12.546H12.26C5.517 0 0 5.646 0 12.546v133.908C0 153.354 5.517 159 12.26 159h98.974c6.743 0 12.26-5.646 12.26-12.546V12.546z"/>
        <path fill="#7D868C" d="M16.345 109.655h92.621v7.31H16.345z"/>
        <path fill="#C3C6C8" d="M29.057 95.034h65.38c-1.911-9.292-7.433-17.204-14.976-22.09 5.29-4.98 8.612-12.157 8.612-20.137 0-15.034-11.787-27.22-26.327-27.22-14.539 0-26.326 12.186-26.326 27.22 0 7.98 3.32 15.158 8.612 20.137-7.542 4.886-13.064 12.797-14.975 22.09z"/>
        <path fill="#7D868C" d="M27.241 124.276h67.195v7.31H27.241z"/>
    </g>
</svg>
