<svg xmlns="http://www.w3.org/2000/svg" width="60" height="63" viewBox="0 0 60 63">
    <g fill="none" fill-rule="evenodd">
        <g fill="#D43D21" fill-rule="nonzero">
            <path d="M28.029 20.748c-.065.01-.129.013-.193.02v10.989c1.482.26 3.13.025 4.307-.136V20.825a2.17 2.17 0 0 1-.364-.076c-1.534-.469-1.751-.294-3.75-.001zM30.017 0c-2.687 0-4.865 2.156-4.865 4.815a4.81 4.81 0 0 0 2.684 4.304v.655l.088-.003h4.001c.07.003.143.005.218.006v-.63a4.811 4.811 0 0 0 2.739-4.332c0-2.66-2.178-4.815-4.865-4.815z"/>
        </g>
        <path d="M33.51 42.84c.974-.899 1.487-1.84 1.487-2.735 0-.852.212-2.554-2.997-4.105v8c.5-.311 1.022-.709 1.51-1.16zM24.004 39.957c0 .89.54 1.94 1.7 2.745.909.63 1.453.824 2.296 1.298v-8c-4.274 1.501-3.996 3.09-3.996 3.957z"/>
        <path fill="#D43D21" fill-rule="nonzero" d="M28 36.38v9.071c1.57 1.019 2.939.372 3.578.029.138-.074.28-.158.422-.246v-8.615a13.057 13.057 0 0 0-.532-.244v.015c-1.11-.56-1.784-.435-3.17-.135L28 36.38zM28.004 50.614v9.172c-.001.03-.004.061-.004.093C28 61.05 28.896 62 30 62c1.105 0 2-.95 2-2.121v-8.893c-.222-.183-.456-.36-.705-.532-1.094-.638-2.205-.62-3.29.16z"/>
        <path fill="#707487" fill-rule="nonzero" d="M32.322 35.955v-.015c.199.078.384.158.563.238 3.505 1.566 3.274 3.285 3.274 4.145 0 .904-.56 1.855-1.625 2.763-.533.455-1.102.857-1.65 1.171-.15.087-.3.168-.446.24-.676.335-2.124.966-3.785-.028-.803-.505-1.321-.712-2.186-1.383-1.106-.857-1.62-1.976-1.62-2.924 0-.925-.265-2.618 3.806-4.217.103-.04.207-.081.316-.122 1.466-.293 2.178-.415 3.353.132zm-3.67-4.838a5.971 5.971 0 0 1-.282-.056c-1.624-.37-3.214-.698-6.614-1.642-3.255-.864-6.838-2.262-7.371-2.975a.595.595 0 0 1 .205-.126c.286-.164.799-.305 1.372-.431 1.208-.246 2.826-.37 4.464-.452 3.256-.1 3.503.065 3.89.041.387-.023 2.366-.047 2.428-1.555.062-1.508-1.009-1.618-1.848-1.787-1.33-.182-.764-.126-2.566-.103-2.99.226-12.143-.516-13.29 4.307 0 .141-.02.226-.04.352.389 4.201 9.091 6.033 15.377 7.28-2.13 1.462-3.276 3.37-3.726 5.853-.225 2.627 1.863 5.13 6.716 7.916-3.685 2.606-6.102 5.069-5.897 8.029.298 2.203 2.12 5.085 5.584 7.114.344.202.841.18.483-.421-.868-1.458-2.374-4.206-2.504-5.939-.18-1.256.43-3.042 2.976-5.163.214-.202.428-.372.644-.519 1.15-.783 2.326-.8 3.485-.161.263.172.512.35.747.534 2.303 1.798 3.25 4.066 3.082 5.31-.13 1.722-1.598 4.46-2.489 5.911-.298.486.01.732.482.441 3.43-2.109 5.271-4.9 5.57-7.107.205-2.96-2.212-5.423-5.882-8.029 4.838-2.786 6.926-5.29 6.701-7.916-.45-2.462-1.597-4.37-3.726-5.853C42.909 32.723 51.61 30.89 52 26.69c-.02-.126-.04-.21-.04-.352-1.148-4.822-10.3-4.08-13.29-4.307-1.802-.023-1.578-.034-2.421-.03-.844.003-1.934.448-1.961 1.795-.027 1.348 1.524 1.695 2.396 1.68.51-.008.634-.14 3.89-.02 1.638.061 3.256.185 4.444.43.594.127 1.085.268 1.392.432a.907.907 0 0 1 .205.126c-.533.713-4.116 2.11-7.371 2.975-2.987.83-5.466 1.388-6.126 1.532-.075.01-.153.02-.233.032-1.156.16-2.776.394-4.232.134z"/>
        <path fill="#EBE8E1" fill-rule="nonzero" d="M57.813 15.096c-7.835-1.478-14.028-8.72-15.767-10.164-1.977-1.641-3.342-1.265-5.318 2.341-1.234 2.24-3.162 2.618-4.453 2.597a6.606 6.606 0 0 1-.213-.007h-3.911l-.086.003c-1.288.048-3.304-.278-4.58-2.593-1.976-3.606-3.361-3.982-5.317-2.341-1.767 1.466-8.136 8.837-16.14 10.221-2.223.384-2.619 1.455-1.186 2.49 1.122.812 2.757 1.417 5.02.998 0 0 2.751 2.904 7.213.871 0 0 2.322 2.134 6.03.184 0 0 2.73 2.134 5.664.293 0 0 1.433 1.127 3.296.933.063-.007.125-.01.188-.02 1.955-.295 2.167-.47 3.667.001.116.037.235.06.355.077 1.445.188 3.17-.99 3.17-.99 2.913 1.84 5.663-.294 5.663-.294 3.708 1.95 6.01-.184 6.01-.184 4.482 2.033 7.233-.87 7.233-.87 1.873.346 3.316-.01 4.394-.602 1.887-1.037 1.7-2.447-.932-2.944z"/>
    </g>
</svg>
