<svg xmlns="http://www.w3.org/2000/svg" width="44" height="73" viewBox="0 0 44 73">
    <g fill="none" fill-rule="nonzero">
        <path fill="#959CB5" d="M41.412 19H2.588A2.58 2.58 0 0 0 0 21.571V70.43A2.58 2.58 0 0 0 2.588 73h38.824A2.58 2.58 0 0 0 44 70.429V21.57A2.58 2.58 0 0 0 41.412 19z"/>
        <path fill="#00C3FF" d="M38.692 29H7.308C6.585 29 6 29.576 6 30.286v6.428C6 37.424 6.585 38 7.308 38h31.384c.723 0 1.308-.576 1.308-1.286v-6.428c0-.71-.585-1.286-1.308-1.286z"/>
        <path fill="#464655" d="M39.679 26H5.32C4.591 26 4 25.33 4 24.5S4.591 23 5.321 23H39.68c.73 0 1.321.67 1.321 1.5s-.591 1.5-1.321 1.5z"/>
        <g fill="#C7CFE2">
            <path d="M12.517 49.098H7.384a1.274 1.274 0 0 1-1.283-1.265v-2.531c0-.699.575-1.265 1.283-1.265h5.133c.709 0 1.284.566 1.284 1.265v2.531c0 .699-.575 1.265-1.284 1.265zM35.615 49.098h-5.133a1.274 1.274 0 0 1-1.283-1.265v-2.531c0-.699.575-1.265 1.283-1.265h5.133c.71 0 1.284.566 1.284 1.265v2.531c0 .699-.575 1.265-1.284 1.265zM24.066 49.098h-5.133a1.274 1.274 0 0 1-1.283-1.265v-2.531c0-.699.575-1.265 1.283-1.265h5.133c.709 0 1.284.566 1.284 1.265v2.531c0 .699-.575 1.265-1.284 1.265zM12.517 57.957H7.384a1.274 1.274 0 0 1-1.283-1.266v-2.53c0-.7.575-1.266 1.283-1.266h5.133c.709 0 1.284.567 1.284 1.265v2.531c0 .7-.575 1.266-1.284 1.266zM35.615 57.957h-5.133A1.274 1.274 0 0 1 29.2 56.69v-2.53c0-.7.575-1.266 1.283-1.266h5.133c.71 0 1.284.567 1.284 1.265v2.531c0 .7-.575 1.266-1.284 1.266zM24.066 57.957h-5.133a1.274 1.274 0 0 1-1.283-1.266v-2.53c0-.7.575-1.266 1.283-1.266h5.133c.709 0 1.284.567 1.284 1.265v2.531c0 .7-.575 1.266-1.284 1.266z"/>
        </g>
        <path fill="#707487" d="M11.833 66H7.167C6.522 66 6 65.44 6 64.75v-2.5c0-.69.522-1.25 1.167-1.25h4.666c.645 0 1.167.56 1.167 1.25v2.5c0 .69-.522 1.25-1.167 1.25z"/>
        <path fill="#9BF57D" d="M34.833 66h-4.666C29.522 66 29 65.44 29 64.75v-2.5c0-.69.522-1.25 1.167-1.25h4.666c.645 0 1.167.56 1.167 1.25v2.5c0 .69-.522 1.25-1.167 1.25z"/>
        <path fill="#FFDC64" d="M23.833 66h-4.666C18.522 66 18 65.44 18 64.75v-2.5c0-.69.522-1.25 1.167-1.25h4.666c.645 0 1.167.56 1.167 1.25v2.5c0 .69-.522 1.25-1.167 1.25z"/>
        <path fill="#E4E7ED" d="M31.749 1.786L29.342.21a1.292 1.292 0 0 0-1.412 0l-2.406 1.576c-.427.28-.984.28-1.412 0L21.706.21a1.292 1.292 0 0 0-1.412 0l-2.406 1.576c-.428.28-.985.28-1.412 0L14.07.21a1.292 1.292 0 0 0-1.412 0L10.25 1.786c-.427.28-.984.28-1.412 0l-.916-.6C7.53.926 7 1.204 7 1.67V26h28V1.67c0-.465-.528-.743-.923-.485l-.916.6c-.428.28-.985.28-1.412 0z"/>
        <g fill="#C7CFE2">
            <path d="M26.43 9.343h-7.86c-.724 0-1.31-.513-1.31-1.148 0-.634.586-1.148 1.31-1.148h7.86c.724 0 1.31.514 1.31 1.148 0 .635-.586 1.148-1.31 1.148zM31.67 13.937H13.33c-.724 0-1.31-.514-1.31-1.149 0-.634.586-1.148 1.31-1.148h18.34c.724 0 1.31.514 1.31 1.148 0 .635-.586 1.149-1.31 1.149z"/>
        </g>
        <g fill="#AFB9D2">
            <path d="M15.95 18.991h-2.62c-.725 0-1.31-.66-1.31-1.476s.585-1.477 1.31-1.477h2.62c.724 0 1.31.66 1.31 1.477 0 .816-.586 1.476-1.31 1.476zM31.67 18.991h-2.62c-.724 0-1.31-.66-1.31-1.476s.586-1.477 1.31-1.477h2.62c.724 0 1.31.66 1.31 1.477 0 .816-.586 1.476-1.31 1.476zM23.81 18.991h-2.62c-.724 0-1.31-.66-1.31-1.476s.586-1.477 1.31-1.477h2.62c.724 0 1.31.66 1.31 1.477 0 .816-.586 1.476-1.31 1.476z"/>
        </g>
    </g>
</svg>
