<svg xmlns="http://www.w3.org/2000/svg" width="52" height="52" viewBox="0 0 52 52">
    <g fill="none" fill-rule="nonzero">
        <path fill="#E9DFDA" d="M21.021 27.584h28.517v22.964H21.021z"/>
        <path fill="#DAD0CB" d="M35.28 27.584h14.258v22.964H35.28z"/>
        <path fill="#725D57" d="M29.433 36.256h11.693v14.292H29.433z"/>
        <path fill="#FF1F3E" d="M39.272 8.154l-17.94 7.935-.749.331-.376 2.203 29.709 7.32 1.385.341.676-2.133z"/>
        <path fill="#84ABC1" d="M18.135 12.486H0V9.44h18.135a3.2 3.2 0 0 0 3.196-3.196 3.2 3.2 0 0 0-3.196-3.196A3.189 3.189 0 0 0 15.18 5.02l-2.814-1.167A6.227 6.227 0 0 1 18.135 0a6.25 6.25 0 0 1 6.243 6.243 6.25 6.25 0 0 1-6.243 6.243zM12.8 33.896a5.11 5.11 0 0 1-4.268-2.291l2.539-1.685a2.07 2.07 0 0 0 1.728.93c1.143 0 2.072-.93 2.072-2.072 0-1.143-.93-2.072-2.072-2.072H0v-3.047h12.8a5.125 5.125 0 0 1 5.118 5.119 5.125 5.125 0 0 1-5.119 5.118z"/>
        <path fill="#D3DDEA" d="M0 16.55h7.871v3.046H0z"/>
        <path fill="#84ABC1" d="M10.918 16.55h3.047v3.046h-3.047z"/>
        <path fill="#70DA40" d="M0 48.943h52v3.047H0z"/>
        <path fill="#BF0000" d="M39.272 8.154L35.68 22.435l14.236 3.508 1.385.341.676-2.133z"/>
        <path fill="#53433F" d="M35.28 36.256h5.846v14.292H35.28z"/>
        <path fill="#49A520" d="M35.28 48.943H52v3.047H35.28z"/>
        <g>
            <path fill="#9AE0FC" d="M20.727 36.618c-.336-.476-.758-.738-1.187-.738-.43 0-.852.262-1.187.738l-1.099 1.558c-.15.213-.337.33-.53.33-.191 0-.38-.117-.529-.33l-1.098-1.558c-.335-.476-.757-.738-1.187-.738-.43 0-.851.262-1.187.738l-1.098 1.558c-.15.213-.338.33-.53.33s-.38-.117-.53-.33l-1.098-1.558c-.335-.476-.757-.738-1.187-.738-.43 0-.85.262-1.186.738L4.94 39.673v9.467h17.94v-9.467l-2.153-3.055z"/>
            <path fill="#00ABFE" d="M20.727 41.562c-.336-.478-.758-.742-1.187-.742-.43 0-.852.264-1.187.742l-1.099 1.567c-.15.213-.337.33-.53.33-.191 0-.38-.117-.529-.33l-1.098-1.567c-.335-.478-.757-.742-1.187-.742-.43 0-.851.264-1.187.742l-1.098 1.567c-.15.213-.338.33-.53.33s-.38-.117-.53-.33l-1.098-1.567c-.335-.478-.757-.742-1.187-.742-.43 0-.85.264-1.186.742L4.94 44.634v4.506h17.94v-4.506l-2.153-3.072z"/>
        </g>
        <g>
            <path fill="#F3705A" d="M19.141 47.615c-.758-.867-1.517-1.768-2-2.843a6.476 6.476 0 0 1-.38-3.71 8.02 8.02 0 0 1 1.587-3.431 3.317 3.317 0 0 0 .828 2.426c-.345-1.664.207-3.466 1.31-4.784 1.104-1.317 2.621-2.184 4.208-2.773-.793.832-.897 2.15-.586 3.259.31 1.109.965 2.08 1.551 3.085.587 1.005 1.139 2.045 1.173 3.19.31-.59.655-1.18.862-1.838.207-.659.31-1.352.138-2.01.62.762.966 1.525 1.138 2.495.173.971.138 1.976.035 2.947-.138 1.075-.414 2.184-1 3.085-.69 1.075-1.794 1.838-3 2.254-2.139.381-4.243.069-5.864-1.352z"/>
            <path fill="#FFD15C" d="M21.762 48.897c2.828 1.11 5.622-2.253 4.07-4.853 0-.035-.035-.035-.035-.07.138 1.422-.207 2.462-.862 3.051.345-.832.104-1.802-.31-2.634-.414-.798-1-1.526-1.449-2.288-.448-.798-.793-1.699-.586-2.6-.828.624-1.414 1.56-1.655 2.565-.242 1.005-.104 2.115.345 3.05-.518-.38-.897-1.005-.932-1.663-.551.658-.896 1.525-.862 2.392 0 1.352 1.07 2.565 2.276 3.05z"/>
        </g>
    </g>
</svg>
