<svg xmlns="http://www.w3.org/2000/svg" width="148" height="150" viewBox="0 0 148 150">
    <g fill="none" fill-rule="nonzero" transform="translate(-1)">
        <path fill="#FCD577" d="M124.007 59.353a.595.595 0 0 0-.153.398v85.3a4 4 0 0 1-4 4H29.622a4 4 0 0 1-4-4v-85.3a.596.596 0 0 0-.153-.398.254.254 0 0 1 0-.339L71.763 7.471a4 4 0 0 1 5.952 0l46.293 51.543a.254.254 0 0 1 0 .34z"/>
        <path fill="#CFDCE5" d="M119.257 52.537V15.086a4 4 0 0 0-4-4H99.193a4 4 0 0 0-4 4v13.47a4 4 0 0 0 .676 2.225"/>
        <path fill="#FF6F52" d="M141.909 85.636L77.725 13.587a4 4 0 0 0-5.973 0L7.567 85.636a3.452 3.452 0 0 1-5.154 0l-.207-.233a4 4 0 0 1 0-5.321L71.752 2.015a4 4 0 0 1 5.973 0l69.546 78.067a4 4 0 0 1 0 5.321l-.207.233a3.452 3.452 0 0 1-5.155 0z"/>
        <path fill="#CFDCE5" d="M37.439 84.126h31.283v64.925H37.439z"/>
        <path fill="#EAC36E" d="M71.129 149.05h-3.233V89.08a4 4 0 0 0-4-4H42.265a4 4 0 0 0-4 4v59.97h-3.233V85.42a4 4 0 0 1 4-4H67.13a4 4 0 0 1 4 4v63.63z"/>
        <g fill="#4EBFED">
            <path d="M80.96 82.365h33.182v36.786H80.96zM64.092 38.414h21.542v23.882H64.092z"/>
        </g>
        <g fill="#EAC36E">
            <path d="M79.201 85.7v33.352a4 4 0 0 0 4 4h29.616a4 4 0 0 0 4-4V85.7a4 4 0 0 0-4-4H83.2a4 4 0 0 0-4 4zm30.247 14.824h-5.755a4 4 0 0 1-4-4v-7.121a4 4 0 0 1 4-4h5.755a4 4 0 0 1 4 4v7.12a4 4 0 0 1-4 4zm-13.124-11.12v7.12a4 4 0 0 1-4 4H86.57a4 4 0 0 1-4-4v-7.12a4 4 0 0 1 4-4h5.754a4 4 0 0 1 4 4zm0 18.823v7.121a4 4 0 0 1-4 4H86.57a4 4 0 0 1-4-4v-7.12a4 4 0 0 1 4-4h5.754a4 4 0 0 1 4 4zm3.37 7.121v-7.12a4 4 0 0 1 4-4h5.754a4 4 0 0 1 4 4v7.12a4 4 0 0 1-4 4h-5.755a4 4 0 0 1-4-4zM83.394 38.205H65.79a4 4 0 0 0-4 4V62.35a4 4 0 0 0 4 4h17.603a4 4 0 0 0 4-4V42.205a4 4 0 0 0-4-4zm-3.369 24.443H69.16a4 4 0 0 1-4-4v-12.74a4 4 0 0 1 4-4h10.865a4 4 0 0 1 4 4v12.74a4 4 0 0 1-4 4z"/>
        </g>
        <ellipse cx="61.503" cy="119.293" fill="#FF6F52" rx="2.406" ry="2.705"/>
    </g>
</svg>
