<svg xmlns="http://www.w3.org/2000/svg" width="49" height="44" viewBox="0 0 49 44">
    <g fill="none" fill-rule="nonzero">
        <path fill="#A86A3F" d="M3.79 5.4h37.897a3.805 3.805 0 0 1 3.79 3.797v4.556a3.805 3.805 0 0 1-3.79 3.798H3.79A3.805 3.805 0 0 1 0 13.753V9.196A3.805 3.805 0 0 1 3.79 5.4z"/>
        <path fill="#3DB39E" d="M12.09 9.462L35.812 3.16c.796-.228 1.63.266 1.857 1.063l3.941 14.582c.228.797-.265 1.632-1.06 1.86l-30.887 8.24c-.796.228-1.63-.266-1.857-1.063l-2.88-10.708 7.162-7.67z"/>
        <path fill="#78CABB" d="M37.48 18.348l-5.116 1.367c-.416.114-.833-.114-.909-.532-.114-.417.114-.835.53-.911l4.397-1.177-2.35-8.81-4.396 1.177c-.417.114-.834-.114-.91-.531-.113-.418.114-.836.531-.912l5.116-1.367c.417-.114.834.114.91.532l2.728 10.253c.114.417-.114.835-.53.91zm-21.222 5.734l-5.116 1.367c-.417.114-.834-.114-.91-.532L7.504 14.665c-.114-.418.113-.836.53-.912l5.116-1.367c.417-.114.834.114.91.532.114.418-.114.835-.53.911l-4.397 1.177 2.35 8.81 4.396-1.177c.417-.114.834.114.91.531a.737.737 0 0 1-.531.912z"/>
        <path fill="#5ABEAC" d="M.303 14.778C7.05 10.905 25.24.235 25.24.235c.72-.418 1.667-.19 2.084.531l7.58 13.063c.416.722.151 1.633-.569 2.05L6.595 31.83c-.72.417-1.668.189-2.085-.532 0 0-2.122-4.33-4.245-7.975 0-8.544.038-5.734.038-8.544z"/>
        <path fill="#8CD2C5" d="M31.038 13.411l-5.306-9.189c-.227-.38-.682-.494-1.023-.266l-4.585 2.658c-.38.228-.493.684-.266 1.026.228.38.682.493 1.024.265l3.94-2.278 4.549 7.898-3.942 2.279c-.379.228-.492.683-.265 1.025.227.38.682.494 1.023.266l4.586-2.658a.737.737 0 0 0 .265-1.026zM10.952 24.158l-3.94 2.278-4.549-7.898 3.942-2.279c.379-.227.492-.683.265-1.025-.227-.38-.682-.494-1.023-.266L1.06 17.626c-.379.228-.493.684-.265 1.026L6.1 27.84c.228.38.683.494 1.024.266l4.585-2.658c.38-.228.493-.684.266-1.026a.734.734 0 0 0-1.024-.265zm1.933-13.405c-2.918 1.671-3.903 5.392-2.236 8.316 1.706 2.924 5.382 3.912 8.3 2.24 2.918-1.67 3.903-5.391 2.236-8.315-1.706-2.886-5.382-3.911-8.3-2.24zm18.153 2.658l-5.306-9.189c-.227-.38-.682-.494-1.023-.266l-4.585 2.658c-.38.228-.493.684-.266 1.026.228.38.682.493 1.024.265l3.94-2.278 4.549 7.898-3.942 2.279c-.379.228-.492.683-.265 1.025.227.38.682.494 1.023.266l4.586-2.658a.737.737 0 0 0 .265-1.026zM10.952 24.158l-3.94 2.278-4.549-7.898 3.942-2.279c.379-.227.492-.683.265-1.025-.227-.38-.682-.494-1.023-.266L1.06 17.626c-.379.228-.493.684-.265 1.026L6.1 27.84c.228.38.683.494 1.024.266l4.585-2.658c.38-.228.493-.684.266-1.026a.734.734 0 0 0-1.024-.265zm1.933-13.405c-2.918 1.671-3.903 5.392-2.236 8.316 1.706 2.924 5.382 3.912 8.3 2.24 2.918-1.67 3.903-5.391 2.236-8.315-1.706-2.886-5.382-3.911-8.3-2.24z"/>
        <path fill="#C47E4D" d="M43.203 43.372H3.79A3.805 3.805 0 0 1 0 39.575v-27.34h43.203a3.805 3.805 0 0 1 3.79 3.797v23.543c0 2.088-1.706 3.797-3.79 3.797zM3.032 12.234H0V9.196a3.044 3.044 0 0 0 3.032 3.038z"/>
        <path fill="#A86A3F" d="M46.993 33.879h-6.064c-2.918 0-5.305-2.393-5.305-5.316 0-2.924 2.387-5.317 5.305-5.317h6.064c.834 0 1.516.684 1.516 1.52v7.594c0 .835-.682 1.519-1.516 1.519z"/>
        <path fill="#EFC75E" d="M40.93 25.525a3.044 3.044 0 0 1 3.031 3.038A3.044 3.044 0 0 1 40.93 31.6a3.044 3.044 0 0 1-3.032-3.037 3.044 3.044 0 0 1 3.032-3.038z"/>
        <path fill="#D7B354" d="M41.687 30.84a3.044 3.044 0 0 1-3.032-3.037c0-.645.19-1.253.531-1.747-.796.532-1.289 1.443-1.289 2.506A3.044 3.044 0 0 0 40.93 31.6c1.024 0 1.933-.531 2.502-1.29-.493.341-1.1.53-1.744.53z"/>
        <path fill="#B27245" d="M43.203 41.853H3.79A3.805 3.805 0 0 1 0 38.056v1.519a3.805 3.805 0 0 0 3.79 3.797h39.413a3.805 3.805 0 0 0 3.79-3.797v-1.52c0 2.09-1.706 3.798-3.79 3.798z"/>
        <path fill="#CA8B5F" d="M43.203 12.234H3.032A3.044 3.044 0 0 1 0 9.196v1.52a3.044 3.044 0 0 0 3.032 3.037h40.171a3.805 3.805 0 0 1 3.79 3.798v-1.52c0-2.088-1.706-3.797-3.79-3.797z"/>
    </g>
</svg>
