<svg xmlns="http://www.w3.org/2000/svg" width="64" height="41" viewBox="0 0 64 41">
    <g fill="none" fill-rule="nonzero">
        <path fill="#FECB2D" d="M28.242 33.086a14.689 14.689 0 0 1-7.762 2.22c-8.17 0-14.791-6.629-14.791-14.806S12.311 5.694 20.48 5.694c2.851 0 5.504.822 7.762 2.22a14.857 14.857 0 0 1 4.185 3.881A14.733 14.733 0 0 1 35.27 20.5c0 3.257-1.064 6.26-2.844 8.705a14.86 14.86 0 0 0 4.184 3.88c2.715-3.477 4.349-7.84 4.349-12.585 0-4.746-1.634-9.108-4.349-12.586a20.605 20.605 0 0 0-4.184-4.03C29.06 1.45 24.94 0 20.48 0 9.188 0 0 9.195 0 20.5 0 31.804 9.188 41 20.48 41c4.46 0 8.58-1.451 11.947-3.884a20.598 20.598 0 0 1-4.185-4.03"/>
        <path fill="#D1A014" d="M43.52 0c-4.46 0-8.58 1.451-11.947 3.884a20.595 20.595 0 0 1 4.185 4.03 14.692 14.692 0 0 1 7.762-2.22c8.17 0 14.791 6.629 14.791 14.806S51.689 35.306 43.52 35.306a14.69 14.69 0 0 1-7.762-2.22 14.857 14.857 0 0 1-4.185-3.881A14.733 14.733 0 0 1 28.73 20.5c0-3.257 1.064-6.26 2.844-8.704a14.86 14.86 0 0 0-4.184-3.882c-2.715 3.478-4.349 7.84-4.349 12.586s1.634 9.108 4.349 12.586a20.602 20.602 0 0 0 4.184 4.03C34.94 39.55 39.06 41 43.52 41 54.812 41 64 31.804 64 20.5 64 9.197 54.812 0 43.52 0"/>
    </g>
</svg>
