<svg xmlns="http://www.w3.org/2000/svg" width="52" height="52" viewBox="0 0 52 52">
    <g fill="none" fill-rule="nonzero">
        <path fill="#E74424" d="M45.579 0H6.42C2.875 0 0 2.897 0 6.47v39.06C0 49.102 2.875 52 6.421 52H38.88v-6.75c0-3.574 2.875-6.471 6.422-6.471l6.698-.33V6.472C52 2.897 49.125 0 45.579 0zm-6.241 27.146c0 1.892-1.523 3.426-3.401 3.426h-5.4v5.442c0 1.893-1.521 3.427-3.4 3.427h-2.274c-1.878 0-3.402-1.534-3.402-3.427v-5.442h-5.398c-1.878 0-3.4-1.534-3.4-3.426v-2.293c0-1.892 1.522-3.426 3.4-3.426h5.398v-5.44c0-1.894 1.524-3.428 3.402-3.428h2.274c1.879 0 3.4 1.534 3.4 3.427v5.44h5.4c1.878 0 3.4 1.535 3.4 3.427v2.293z"/>
        <path fill="#D43D21" d="M38.745 45.031V52l13.15-13.65h-6.56c-3.64 0-6.59 2.991-6.59 6.681z"/>
        <path fill="#F7F1E6" d="M35.705 21.443H30.34V16.02c0-1.886-1.513-3.415-3.38-3.415H24.7c-1.867 0-3.38 1.529-3.38 3.415v5.422h-5.366c-1.866 0-3.379 1.529-3.379 3.414v2.285c0 1.886 1.513 3.414 3.38 3.414h5.365v5.422c0 1.887 1.513 3.416 3.38 3.416h2.26c1.867 0 3.38-1.53 3.38-3.416v-5.422h5.365c1.867 0 3.38-1.528 3.38-3.414v-2.285c0-1.885-1.513-3.414-3.38-3.414z"/>
    </g>
</svg>
