<svg xmlns="http://www.w3.org/2000/svg" width="108" height="108" viewBox="0 0 108 108">
    <g fill="none" fill-rule="nonzero" transform="translate(4 4)">
        <circle cx="50" cy="50" r="50" stroke="#E74424" stroke-width="6.286"/>
        <path fill="#0E9347" d="M84.544 72.636H15.23c-1.906 0-3.465-1.575-3.465-3.499v-38.48c0-1.923 1.56-3.497 3.465-3.497h69.314c1.907 0 3.466 1.574 3.466 3.498v38.48c0 1.923-1.56 3.498-3.466 3.498z"/>
        <path fill="#3BB54A" d="M77.613 69.137H22.162c0-3.848-3.12-6.996-6.932-6.996V37.654c3.813 0 6.932-3.148 6.932-6.996h55.45c0 3.848 3.12 6.996 6.932 6.996v24.487c-3.812 0-6.931 3.148-6.931 6.996z"/>
        <g fill="#0E9347" transform="translate(25.614 34.033)">
            <ellipse cx="24.273" cy="15.865" rx="13.863" ry="15.742"/>
            <ellipse cx="3.479" cy="15.865" rx="3.466" ry="3.498"/>
            <ellipse cx="45.068" cy="15.865" rx="3.466" ry="3.498"/>
        </g>
        <path fill="#89C763" d="M51.62 48.149h-3.466c-1.04 0-1.732-.7-1.732-1.75 0-1.049.693-1.749 1.732-1.749h5.199c1.04 0 1.733-.7 1.733-1.749 0-1.049-.693-1.749-1.733-1.749H51.62c0-1.049-.693-1.749-1.733-1.749s-1.732.7-1.732 1.75c-2.946 0-5.199 2.273-5.199 5.247 0 2.973 2.253 5.247 5.199 5.247h3.465c1.04 0 1.733.7 1.733 1.749 0 1.05-.693 1.749-1.733 1.749h-5.198c-1.04 0-1.733.7-1.733 1.749 0 1.05.693 1.749 1.733 1.749h1.733c0 1.05.693 1.749 1.732 1.749 1.04 0 1.733-.7 1.733-1.75 2.946 0 5.199-2.273 5.199-5.246 0-2.974-2.253-5.247-5.199-5.247z"/>
        <path fill="#B22436" stroke="#E74424" stroke-linecap="square" stroke-width="6.29" d="M11.765 81.356l76.47-62.712"/>
    </g>
</svg>
