<?xml version="1.0" encoding="UTF-8"?>
<svg width="196px" height="192px" viewBox="0 0 196 192" version="1.1" xmlns="http://www.w3.org/2000/svg" xmlns:xlink="http://www.w3.org/1999/xlink">
    <!-- Generator: Sketch 49.2 (51160) - http://www.bohemiancoding.com/sketch -->
    <title>family</title>
    <desc>Created with Sketch.</desc>
    <defs></defs>
    <g id="Household-" stroke="none" stroke-width="1" fill="none" fill-rule="evenodd">
        <g id="[VD]-Household-Members-Splash" transform="translate(-684.000000, -302.000000)" fill-rule="nonzero">
            <g id="family" transform="translate(684.000000, 302.000000)">
                <path d="M113.272688,127.71468 L117.237588,188.939303 C117.339797,190.517584 118.64973,191.74543 120.231317,191.74543 L145.277358,191.74543 C146.627388,191.74543 147.811125,190.843668 148.16964,189.542111 L165.200055,127.71468 L113.272688,127.71468 Z" id="Shape" fill="#8299B3"></path>
                <g id="Group" transform="translate(34.835938, 57.250000)">
                    <polygon id="Shape" fill="#9C5EB5" points="69.2729844 0.0478515625 47.891375 50.4814844 92.1823984 92.4955391 132.146109 92.4955391 132.146109 0.0478515625"></polygon>
                    <path d="M0.164226563,69.5386562 L13.1064558,132.10315 C13.3946398,133.49627 14.6216414,134.49543 16.0442571,134.49543 L41.311189,134.49543 C42.7295694,134.49543 43.954136,133.502077 44.2466839,132.114194 L57.4368047,69.5386562 L0.164226563,69.5386562 Z" id="Shape" fill="#8299B3"></path>
                </g>
                <g id="Group" transform="translate(23.351562, 57.250000)" fill="#00437D">
                    <polygon id="Shape" points="74.6484375 69.5386562 58.4210156 69.5386562 46.0117656 34.7930625 58.4210156 0.04746875 74.6484375 0.04746875"></polygon>
                    <path d="M0.194085937,0.0478515625 L22.1487656,0.0478515625 L34.5580156,34.7934453 L22.1487656,69.5386563 L0.194085937,69.5386563 C0.194085937,69.5386563 0.194085937,0.0478515625 0.194085937,0.0478515625 Z" id="Shape"></path>
                </g>
                <rect id="Rectangle-path" fill="#00437D" x="45.5010938" y="57.2970859" width="36.2726328" height="69.4908047"></rect>
                <path d="M63.6364531,53.7089766 C48.8985547,53.7089766 36.90925,41.7192891 36.90925,26.9817734 C36.90925,12.2442578 48.8985547,0.254570312 63.6364531,0.254570312 C78.3743516,0.254570312 90.3636563,12.2442578 90.3636563,26.9817734 C90.3636563,41.7192891 78.3743516,53.7089766 63.6364531,53.7089766 Z" id="Shape" fill="#FACB73"></path>
                <path d="M28.9023437,97.46875 C16.5535647,97.46875 6.5078125,87.4226771 6.5078125,75.0742188 C6.5078125,62.7257604 16.5535647,52.6796875 28.9023437,52.6796875 C41.2511228,52.6796875 51.296875,62.7257604 51.296875,75.0742188 C51.296875,87.4226771 41.2511228,97.46875 28.9023437,97.46875 Z" id="Shape" fill="#FACB73"></path>
                <path d="M98.1914062,97.46875 C85.8426272,97.46875 75.796875,87.4226771 75.796875,75.0742188 C75.796875,62.7257604 85.8426272,52.6796875 98.1914062,52.6796875 C110.540185,52.6796875 120.585938,62.7257604 120.585938,75.0742188 C120.585938,87.4226771 110.540185,97.46875 98.1914062,97.46875 Z" id="Shape" fill="#FACB73"></path>
                <path d="M167.097656,97.46875 C154.748877,97.46875 144.703125,87.4226771 144.703125,75.0742188 C144.703125,62.7257604 154.748877,52.6796875 167.097656,52.6796875 C179.446435,52.6796875 189.492188,62.7257604 189.492188,75.0742188 C189.492188,87.4226771 179.446435,97.46875 167.097656,97.46875 Z" id="Shape" fill="#FACB73"></path>
                <path d="M132.363547,53.7089766 C117.625648,53.7089766 105.636344,41.7192891 105.636344,26.9817734 C105.636344,12.2442578 117.625648,0.254570312 132.363547,0.254570312 C147.101445,0.254570312 159.09075,12.2442578 159.09075,26.9817734 C159.09075,41.7192891 147.101445,53.7089766 132.363547,53.7089766 Z" id="Shape" fill="#FACB73"></path>
                <path d="M121.565937,126.836508 L117.598745,188.936691 C117.497849,190.516067 116.187444,191.74543 114.604848,191.74543 L98,191.74543 L82.7273125,111.563438 L121.565937,126.836508 Z" id="Shape" fill="#01538D"></path>
                <path d="M74.4340625,126.836508 L78.4012548,188.936691 C78.5021512,190.516067 79.8125561,191.74543 81.3951517,191.74543 L98,191.74543 L98,111.563438 L74.4340625,126.836508 Z" id="Shape" fill="#0272AA"></path>
                <rect id="Rectangle-path" fill="#FF993A" x="69" y="100" width="58.0362891" height="49.6362344"></rect>
                <path d="M52.5838906,126.836508 L48.6166984,188.936691 C48.5158019,190.516067 47.205397,191.74543 45.6228014,191.74543 L29.0183359,191.74543 L13.7452656,111.563438 L52.5838906,126.836508 Z" id="Shape" fill="#04AFE3"></path>
                <path d="M5.45239844,126.836508 L9.41959069,188.936691 C9.52048715,190.516067 10.830892,191.74543 12.4134877,191.74543 L29.0183359,191.74543 L29.0183359,111.563438 L5.45239844,126.836508 Z" id="Shape" fill="#05CEFF"></path>
                <rect id="Rectangle-path" fill="#FF69B8" x="0" y="100.11007" width="58.0362891" height="49.6362344"></rect>
                <path d="M190.547602,126.836508 L186.580409,188.936691 C186.479513,190.516067 185.169108,191.74543 183.586512,191.74543 L166.982047,191.74543 L151.708977,111.563438 L190.547602,126.836508 Z" id="Shape" fill="#04AFE3"></path>
                <path d="M143.416109,126.836508 L147.383302,188.936691 C147.484198,190.516067 148.794603,191.74543 150.377199,191.74543 L166.982047,191.74543 L166.982047,111.563438 L143.416109,126.836508 Z" id="Shape" fill="#05CEFF"></path>
                <rect id="Rectangle-path" fill="#51946F" x="137.96218" y="100.11007" width="58.0362891" height="49.6362344"></rect>
            </g>
        </g>
    </g>
</svg>