<svg xmlns="http://www.w3.org/2000/svg" width="55" height="55" viewBox="0 0 55 55">
    <g fill="none" fill-rule="nonzero">
        <path fill="#A4E869" d="M27.378 27.026c3.201 1.126 19.862 7.342 25.754 16.766 5.145 8.226-1.114 14.485-9.34 9.34-9.424-5.893-15.64-22.552-16.766-25.754-.095-.27.083-.447.352-.352z"/>
        <path fill="#FFF" d="M50.3 50.3c-.472.472-1.843 1.398-4.386-.192-3.812-2.383-7.804-8.532-10.904-15.014-.032-.067.018-.116.085-.084 6.483 3.1 12.63 7.092 15.014 10.903 1.589 2.542.663 3.914.191 4.387z"/>
        <circle cx="16.5" cy="16.5" r="16.5" fill="#26B99A"/>
        <path fill="#A4E869" d="M6 29.81A16.765 16.765 0 0 0 11.353 33c4.252-1.574 9.573-4.693 13.263-8.384 3.69-3.69 6.81-9.01 8.384-13.263A16.765 16.765 0 0 0 29.81 6c-1.218 4.535-4.754 10.712-8.926 14.883C16.713 25.055 10.535 28.591 6 29.811zM15.783 6.783l2.678.909L20.727 6l-.036 2.827L23 10.46l-2.7.84-.84 2.7-1.633-2.309-2.827.036 1.692-2.266zM5.783 13.783l2.678.908L10.727 13l-.036 2.828L13 17.461l-2.7.839-.84 2.7-1.633-2.309L5 18.727l1.692-2.266z"/>
    </g>
</svg>
