<svg xmlns="http://www.w3.org/2000/svg" width="156" height="158" viewBox="0 0 156 158">
    <g fill="none" fill-rule="nonzero">
        <path fill="#EFEBDE" d="M127.375 38.03L87.875 0H.411v157.555h126.964z"/>
        <g fill="#D5D0BB">
            <path d="M28.625 62.479h70.536c1.557 0 2.821-1.215 2.821-2.717s-1.264-2.716-2.821-2.716H28.625c-1.557 0-2.821 1.214-2.821 2.716 0 1.502 1.264 2.717 2.821 2.717zM28.625 40.747h28.214c1.558 0 2.822-1.214 2.822-2.717 0-1.502-1.264-2.716-2.822-2.716H28.625c-1.557 0-2.821 1.214-2.821 2.716 0 1.503 1.264 2.717 2.821 2.717zM99.16 78.777H28.626c-1.557 0-2.821 1.215-2.821 2.717s1.264 2.716 2.821 2.716h70.536c1.557 0 2.821-1.214 2.821-2.716 0-1.502-1.264-2.717-2.821-2.717zM99.16 100.509H28.626c-1.557 0-2.821 1.214-2.821 2.716 0 1.503 1.264 2.717 2.821 2.717h70.536c1.557 0 2.821-1.214 2.821-2.717 0-1.502-1.264-2.716-2.821-2.716zM99.16 122.24H28.626c-1.557 0-2.821 1.215-2.821 2.717s1.264 2.717 2.821 2.717h70.536c1.557 0 2.821-1.215 2.821-2.717s-1.264-2.716-2.821-2.716z"/>
        </g>
        <path fill="#D5D0BB" d="M87.875 0v38.03h39.5z"/>
        <g transform="translate(86.464 92.36)">
            <ellipse cx="35.268" cy="32.597" fill="#26B999" rx="33.857" ry="32.597"/>
            <path fill="#FFF" d="M53.807 16.785c-1.283-.858-3.038-.554-3.927.68l-15.789 21.84-11.142-8.807c-1.201-.954-2.982-.783-3.97.377-.99 1.16-.815 2.872.393 3.822L32.875 45.37a2.897 2.897 0 0 0 2.176.592 2.854 2.854 0 0 0 1.93-1.138L54.512 20.57c.889-1.233.573-2.926-.706-3.784z"/>
        </g>
    </g>
</svg>
