<svg xmlns="http://www.w3.org/2000/svg" width="141" height="90" viewBox="0 0 141 90">
    <g fill="none" fill-rule="evenodd">
        <path fill="#2D5871" d="M135.05 79.961H7.522a1 1 0 0 1-.998-1V68.17H141v5.826c0 3.294-2.664 5.964-5.95 5.964z"/>
        <path fill="#FF4C4C" d="M140.996 73.21H90.005V24.353h34.89a6.13 6.13 0 0 1 5.032 2.63l9.965 14.32a6.16 6.16 0 0 1 1.104 3.52v28.385z"/>
        <path fill="#F33939" d="M139.892 41.305l-9.965-14.32a6.13 6.13 0 0 0-5.032-2.631h-12.677a6.13 6.13 0 0 1 5.031 2.63l9.966 14.32a6.16 6.16 0 0 1 1.104 3.52v20.374c0 1.22-.987 2.208-2.203 2.208H90.005v5.803h50.991V44.824a6.16 6.16 0 0 0-1.104-3.52z"/>
        <path fill="#21D8DE" d="M104.337 51.69V33.857c0-.517.419-.937.935-.937h17.878c.306 0 .592.15.767.401l8.366 12.02c.109.158.167.345.167.536v5.812a.936.936 0 0 1-.934.937h-26.244a.935.935 0 0 1-.935-.936z"/>
        <ellipse cx="119.076" cy="77.616" fill="#1D4859" rx="12.279" ry="12.31"/>
        <path fill="#E1EFFB" d="M119.077 82.188c-2.515 0-4.56-2.051-4.56-4.572 0-2.52 2.045-4.572 4.56-4.572 2.515 0 4.56 2.05 4.56 4.572 0 2.521-2.045 4.572-4.56 4.572z"/>
        <path fill="#FFB125" d="M97.183 73.21H1.86A1.863 1.863 0 0 1 0 71.343V1.94C0 .91.833.075 1.86.075h93.462c1.028 0 1.86.835 1.86 1.865v71.27z"/>
        <path fill="#FF901D" d="M95.322.075H84.506v61.958c0 2.968-2.4 5.373-5.36 5.373H0v3.938c0 1.03.833 1.865 1.86 1.865h95.323V1.94c0-1.03-.833-1.865-1.861-1.865z"/>
        <g fill="#FFF">
            <path d="M47.062 33.95a2.403 2.403 0 0 1-1.572-.584L29.77 19.853 14.05 33.366a2.412 2.412 0 0 1-3.408-.262 2.427 2.427 0 0 1 .262-3.416l17.293-14.866a2.411 2.411 0 0 1 3.146 0l17.293 14.866c1.013.87 1.13 2.4.261 3.416a2.409 2.409 0 0 1-1.835.846z"/>
            <path d="M43.31 36.02L30.763 25.232a1.523 1.523 0 0 0-1.986 0L16.229 36.02a1.53 1.53 0 0 0-.533 1.16v15.462c0 .845.683 1.53 1.526 1.53h8.321v-13.45c0-.637.515-1.153 1.15-1.153h6.153c.635 0 1.15.516 1.15 1.152v13.45h8.321c.843 0 1.526-.684 1.526-1.529V37.18c0-.446-.195-.87-.533-1.16z"/>
        </g>
        <ellipse cx="27.944" cy="77.616" fill="#1D4859" rx="12.279" ry="12.31"/>
        <path fill="#E1EFFB" d="M27.944 82.188c-2.515 0-4.561-2.051-4.561-4.572 0-2.52 2.046-4.572 4.56-4.572 2.515 0 4.561 2.05 4.561 4.572 0 2.521-2.046 4.572-4.56 4.572z"/>
        <path fill="#FFF" d="M72.01 46.117l13.994-10.418a.686.686 0 0 0 0-1.1L72.011 24.183a.683.683 0 0 0-1.09.55v5.512H59.965a.684.684 0 0 0-.683.685v8.442c0 .378.306.684.683.684H70.92v5.512c0 .563.639.885 1.09.55z"/>
    </g>
</svg>
