<svg xmlns="http://www.w3.org/2000/svg" width="136" height="136" viewBox="0 0 136 136">
    <g fill="none" fill-rule="nonzero">
        <path fill="#FF6465" d="M68 136c37.555 0 68-30.445 68-68S105.555 0 68 0 0 30.445 0 68s30.445 68 68 68z"/>
        <path fill="#FFF" d="M85.818 69l17.949-17.84a3.304 3.304 0 0 0 0-4.694l-10.56-10.494a3.355 3.355 0 0 0-4.723 0L70.535 53.81 52.584 35.972a3.355 3.355 0 0 0-4.724 0L37.301 46.466a3.305 3.305 0 0 0 0 4.695L55.25 69 37.3 86.839a3.305 3.305 0 0 0 0 4.694l10.56 10.494a3.354 3.354 0 0 0 4.723 0L70.535 84.19l17.949 17.838a3.354 3.354 0 0 0 4.724 0l10.559-10.491a3.307 3.307 0 0 0 0-4.697L85.817 69z"/>
    </g>
</svg>
