<svg xmlns="http://www.w3.org/2000/svg" width="150" height="150" viewBox="0 0 150 150">
    <g fill="none" fill-rule="nonzero">
        <path fill="#FF6465" d="M75 150c41.421 0 75-33.579 75-75S116.421 0 75 0 0 33.579 0 75s33.579 75 75 75z"/>
        <path fill="#FFF" d="M91.59 75.501l19.796-19.677a3.644 3.644 0 0 0 0-5.178L99.74 39.072a3.7 3.7 0 0 0-5.21 0L74.734 58.746l-19.8-19.674a3.7 3.7 0 0 0-5.21 0L38.08 50.646a3.646 3.646 0 0 0 0 5.178l19.796 19.677L38.08 95.175a3.646 3.646 0 0 0 0 5.178l11.646 11.574a3.7 3.7 0 0 0 5.21 0l19.799-19.674 19.796 19.674a3.7 3.7 0 0 0 5.21 0l11.646-11.571a3.647 3.647 0 0 0 0-5.18L91.59 75.5z"/>
    </g>
</svg>
