<svg xmlns="http://www.w3.org/2000/svg" width="83" height="98" viewBox="0 0 83 98">
    <g fill="none" fill-rule="nonzero">
        <path fill="#EFEBDE" d="M82.929 23.655L57.129 0H0v98h82.929z"/>
        <g fill="#D5D0BB">
            <path d="M18.429 38.862H64.5c1.017 0 1.843-.755 1.843-1.69 0-.934-.826-1.69-1.843-1.69H18.429c-1.018 0-1.843.756-1.843 1.69 0 .935.825 1.69 1.843 1.69zM18.429 25.345h18.428c1.017 0 1.843-.755 1.843-1.69 0-.934-.826-1.69-1.843-1.69H18.43c-1.018 0-1.843.756-1.843 1.69 0 .935.825 1.69 1.843 1.69zM64.5 49H18.429c-1.018 0-1.843.755-1.843 1.69 0 .934.825 1.69 1.843 1.69H64.5c1.017 0 1.843-.756 1.843-1.69 0-.935-.826-1.69-1.843-1.69zM64.5 62.517H18.429c-1.018 0-1.843.756-1.843 1.69 0 .934.825 1.69 1.843 1.69H64.5c1.017 0 1.843-.756 1.843-1.69 0-.934-.826-1.69-1.843-1.69zM64.5 76.034H18.429c-1.018 0-1.843.756-1.843 1.69 0 .935.825 1.69 1.843 1.69H64.5c1.017 0 1.843-.755 1.843-1.69 0-.934-.826-1.69-1.843-1.69z"/>
        </g>
        <path fill="#D5D0BB" d="M57.129 0v23.655h25.8z"/>
        <g>
            <path fill="#5C97BF" d="M42 60.308h40.471V98H42z"/>
            <path fill="#FFF" d="M60.396 70.588h3.679V98h-3.679z"/>
            <path fill="#FFF" d="M71.972 82.078l-9.737-9.068-9.737 9.068-2.6-2.422 12.337-11.491 12.338 11.49z"/>
        </g>
    </g>
</svg>
