<svg xmlns="http://www.w3.org/2000/svg" width="95" height="95" viewBox="0 0 95 95">
    <g fill="none" fill-rule="nonzero">
        <circle cx="47.5" cy="47.5" r="47.5" fill="#FFDC64"/>
        <path fill="#FFF" d="M43.52 51.044l-1.344-20.169c-.252-3.93-.375-6.75-.375-8.463 0-2.33.608-4.148 1.822-5.451C44.839 15.65 46.442 15 48.424 15c2.407 0 4.017.835 4.826 2.506.81 1.672 1.216 4.08 1.216 7.22 0 1.854-.1 3.738-.292 5.643L52.37 51.13c-.196 2.471-.614 4.365-1.26 5.685-.643 1.318-1.707 1.978-3.187 1.978-1.511 0-2.558-.637-3.145-1.916-.588-1.275-1.009-3.221-1.259-5.832zm4.655 27.706c-1.705 0-3.197-.552-4.467-1.662-1.272-1.106-1.908-2.657-1.908-4.651 0-1.742.61-3.223 1.823-4.444 1.216-1.222 2.706-1.831 4.468-1.831s3.263.61 4.508 1.83c1.244 1.221 1.868 2.704 1.868 4.445 0 1.963-.63 3.506-1.89 4.63-1.257 1.123-2.724 1.683-4.402 1.683z"/>
    </g>
</svg>
