<svg xmlns="http://www.w3.org/2000/svg" width="50" height="44" viewBox="0 0 50 44">
    <g fill="none" fill-rule="nonzero">
        <path fill="#575F64" d="M5.82 0h2.863v4.388H5.821z"/>
        <path fill="#32393F" d="M31.68 0h2.862v4.388h-2.863zM25.954 0h2.863v4.388h-2.863z"/>
        <path fill="#575F64" d="M11.546 0h2.862v4.388h-2.862z"/>
        <path fill="#EAECF2" d="M40.267 11.8v29.352H0V11.8l2.863-2.926h34.542z"/>
        <g fill="#DCE1EB">
            <path d="M5.82 17.748h5.726v2.926H5.82zM5.82 23.6h5.726v2.925H5.82zM5.82 29.45h5.726v2.926H5.82zM17.271 17.748h5.725v2.926h-5.725zM17.271 23.6h5.725v2.925h-5.725zM17.271 29.45h5.725v2.926h-5.725z"/>
        </g>
        <path fill="#DCE1EB" d="M28.817 17.748h5.725v2.926h-5.725zM28.817 23.6h5.725v2.925h-5.725zM28.817 29.45h5.725v2.926h-5.725z"/>
        <path fill="#526173" d="M0 2.926h40.267V11.8H0z"/>
        <g>
            <path fill="#6EB1E1" d="M50 32.298C50 38.76 44.874 44 38.55 44c-6.324 0-11.45-5.24-11.45-11.702 0-6.463 5.126-11.702 11.45-11.702 6.324 0 11.45 5.239 11.45 11.702z"/>
            <path fill="#DDF5FF" d="M47.673 32.298c0 5.15-4.085 9.324-9.123 9.324-5.039 0-9.124-4.175-9.124-9.324 0-5.15 4.085-9.324 9.124-9.324 5.038 0 9.123 4.175 9.123 9.324z"/>
            <path fill="#636363" d="M39.294 32.298h-1.489v-6.089c0-.42.333-.761.745-.761.41 0 .744.34.744.761v6.089z"/>
            <path fill="#636363" d="M38.023 32.836l1.053-1.076 3.226 3.296c.29.297.29.78 0 1.076a.733.733 0 0 1-1.053 0l-3.226-3.296z"/>
            <path fill="#FF6969" d="M33.802 37.507a.344.344 0 0 1-.247-.105.362.362 0 0 1 0-.504l3.825-3.91a.344.344 0 0 1 .493 0 .362.362 0 0 1 0 .506l-3.824 3.908a.344.344 0 0 1-.247.105z"/>
            <g fill="#636363">
                <path d="M38.899 22.981v.945a.353.353 0 0 1-.35.356.353.353 0 0 1-.348-.356v-.945a9.44 9.44 0 0 1 .698 0zM34.628 25.356a.348.348 0 0 1-.477-.13l-.463-.819c.197-.127.398-.246.605-.358l.463.82a.36.36 0 0 1-.128.487zM31.757 28.29a.346.346 0 0 1-.477.131l-.802-.473a9.21 9.21 0 0 1 .35-.618l.802.472c.167.1.224.317.127.488zM30.706 32.298a.353.353 0 0 1-.349.357h-.924a10.076 10.076 0 0 1 0-.714h.924c.193 0 .35.16.35.357zM31.63 36.793l-.801.473c-.125-.2-.241-.407-.35-.618l.801-.473a.345.345 0 0 1 .477.13.36.36 0 0 1-.127.488zM34.756 39.727l-.463.82a8.955 8.955 0 0 1-.605-.358l.463-.82a.345.345 0 0 1 .477-.13.36.36 0 0 1 .128.488zM38.899 40.67v.945a9.44 9.44 0 0 1-.698 0v-.945c0-.197.156-.357.349-.357.192 0 .349.16.349.357zM43.41 40.189a8.912 8.912 0 0 1-.604.357l-.463-.82a.36.36 0 0 1 .128-.486.345.345 0 0 1 .477.13l.463.819zM46.62 36.648c-.109.211-.225.417-.35.618l-.8-.473a.36.36 0 0 1-.128-.487c.096-.171.31-.23.477-.131l.802.473zM47.673 32.298c0 .12-.003.238-.007.357h-.924a.353.353 0 0 1-.35-.357c0-.197.157-.357.35-.357h.924c.004.118.007.237.007.357zM46.62 27.948l-.801.473a.347.347 0 0 1-.477-.13.36.36 0 0 1 .128-.488l.8-.473c.125.2.241.406.35.618zM43.41 24.407l-.462.819a.347.347 0 0 1-.477.13.36.36 0 0 1-.128-.487l.463-.82c.207.112.408.231.605.358z"/>
            </g>
            <path fill="#6EB1E1" d="M39.946 32.298c0 .788-.625 1.427-1.396 1.427-.772 0-1.397-.639-1.397-1.427s.625-1.427 1.397-1.427c.77 0 1.396.639 1.396 1.427z"/>
        </g>
    </g>
</svg>
