<?xml version="1.0" encoding="UTF-8"?>
<svg width="102px" height="140px" viewBox="0 0 102 140" version="1.1" xmlns="http://www.w3.org/2000/svg" xmlns:xlink="http://www.w3.org/1999/xlink">
    <!-- Generator: sketchtool 42 (36781) - http://www.bohemiancoding.com/sketch -->
    <title>12C7DA69-9FED-434A-A2B7-0391191F63D7</title>
    <desc>Created with sketchtool.</desc>
    <defs></defs>
    <g id="Needs-Assessment" stroke="none" stroke-width="1" fill="none" fill-rule="evenodd">
        <g id="NA---Intro" transform="translate(-1220.000000, -243.000000)" fill-rule="nonzero">
            <g id="check-mark" transform="translate(1220.000000, 243.000000)">
                <g id="Layer_1">
                    <path d="M91.8938672,140 L9.82488281,140 C4.49257812,140 0.169804687,135.677227 0.169804687,130.344922 L0.169804687,19.3104297 C0.169804687,13.978125 4.49257812,9.65535156 9.82488281,9.65535156 L91.8938672,9.65535156 C97.2261719,9.65535156 101.548945,13.978125 101.548945,19.3104297 L101.548945,130.344922 C101.548945,135.677227 97.2261719,140 91.8938672,140 Z" id="Shape" fill="#E1C3A0"></path>
                    <path d="M91.8938672,132.758555 L9.82488281,132.758555 C8.491875,132.758555 7.41097656,131.677656 7.41097656,130.344648 L7.41097656,19.3104297 C7.41097656,17.9774219 8.491875,16.8965234 9.82488281,16.8965234 L91.8938672,16.8965234 C93.226875,16.8965234 94.3077734,17.9774219 94.3077734,19.3104297 L94.3077734,130.344922 C94.3077734,131.67793 93.226875,132.758555 91.8938672,132.758555 Z" id="Shape" fill="#EFF2FA"></path>
                    <path d="M65.3422656,9.65507812 L58.1008203,9.65507812 L58.1008203,7.24117188 C58.1008203,3.24214844 54.8586719,0 50.859375,0 C46.8600781,0 43.6179297,3.24214844 43.6179297,7.24144531 L43.6179297,9.65535156 L36.3764844,9.65535156 C33.7104688,9.65535156 31.5489453,11.8166016 31.5489453,14.4828906 L31.5489453,19.3104297 L70.1695313,19.3104297 L70.1695313,14.4828906 C70.1698047,11.8163281 68.0082813,9.65507812 65.3422656,9.65507812 Z M50.859375,9.65507812 C49.5263672,9.65507812 48.4454688,8.57417969 48.4454688,7.24117187 C48.4454688,5.90816406 49.5263672,4.82726562 50.859375,4.82726562 C52.1923828,4.82726562 53.2732813,5.90816406 53.2732813,7.24117187 C53.2732813,8.57417969 52.1923828,9.65507812 50.859375,9.65507812 Z" id="Shape" fill="#C7CFE2"></path>
                    <path d="M70.1698047,21.7240625 L31.5489453,21.7240625 C30.2159375,21.7240625 29.1350391,20.6431641 29.1350391,19.3101563 L29.1350391,19.3101563 C29.1350391,17.9771484 30.2159375,16.89625 31.5489453,16.89625 L70.1695313,16.89625 C71.5025391,16.89625 72.5834375,17.9771484 72.5834375,19.3101563 L72.5834375,19.3101563 C72.5834375,20.6434375 71.5028125,21.7240625 70.1698047,21.7240625 Z" id="Shape" fill="#AFB9D2"></path>
                    <path d="M26.7214062,55.5171094 C26.1037109,55.5171094 25.4860156,55.2814062 25.0148828,54.81 L17.7734375,47.5685547 C16.830625,46.6257422 16.830625,45.0980469 17.7734375,44.1552344 C18.71625,43.2124219 20.2439453,43.2124219 21.1867578,44.1552344 L26.7214062,49.6901562 L37.0838672,39.3276953 C38.0266797,38.3848828 39.554375,38.3848828 40.4971875,39.3276953 C41.44,40.2705078 41.44,41.7982031 40.4971875,42.7410156 L28.4282031,54.81 C27.9567969,55.2816797 27.3391016,55.5171094 26.7214062,55.5171094 Z" id="Shape" fill="#82889D"></path>
                    <g id="Group" opacity="0.97" transform="translate(45.937500, 41.015625)" fill="#AFB9D2">
                        <path d="M21.8183984,4.84640625 L2.50796875,4.84640625 C1.17496094,4.84640625 0.0940625,3.76550781 0.0940625,2.4325 L0.0940625,2.4325 C0.0940625,1.09949219 1.17496094,0.01859375 2.50796875,0.01859375 L21.8183984,0.01859375 C23.1514063,0.01859375 24.2323047,1.09949219 24.2323047,2.4325 L24.2323047,2.4325 C24.2323047,3.76578125 23.1514063,4.84640625 21.8183984,4.84640625 Z" id="Shape"></path>
                    </g>
                    <g id="Group" opacity="0.97" transform="translate(45.937500, 50.585938)" fill="#C7CFE2">
                        <path d="M33.8873828,4.93117187 L2.50796875,4.93117187 C1.17496094,4.93117187 0.0940625,3.85027344 0.0940625,2.51726562 L0.0940625,2.51726562 C0.0940625,1.18425781 1.17496094,0.103359375 2.50796875,0.103359375 L33.8873828,0.103359375 C35.2203906,0.103359375 36.3012891,1.18425781 36.3012891,2.51726562 L36.3012891,2.51726562 C36.3012891,3.85054687 35.2203906,4.93117187 33.8873828,4.93117187 Z" id="Shape"></path>
                    </g>
                    <path d="M26.7214062,113.448398 C26.1037109,113.448398 25.4860156,113.212695 25.0148828,112.741289 L17.7734375,105.49957 C16.830625,104.556758 16.830625,103.029063 17.7734375,102.08625 C18.71625,101.143438 20.2439453,101.143438 21.1867578,102.08625 L26.7214062,107.621172 L37.0838672,97.2587109 C38.0266797,96.3158984 39.554375,96.3158984 40.4971875,97.2587109 C41.44,98.2015234 41.44,99.7292188 40.4971875,100.672031 L28.4282031,112.741016 C27.9567969,113.212695 27.3391016,113.448398 26.7214062,113.448398 Z" id="Shape" fill="#82889D"></path>
                    <g id="Group" opacity="0.97" transform="translate(45.937500, 98.710938)" fill="#AFB9D2">
                        <path d="M21.8183984,5.08210938 L2.50796875,5.08210938 C1.17496094,5.08210938 0.0940625,4.00121094 0.0940625,2.66820313 L0.0940625,2.66820313 C0.0940625,1.33519531 1.17496094,0.254296875 2.50796875,0.254296875 L21.8183984,0.254296875 C23.1514063,0.254296875 24.2323047,1.33519531 24.2323047,2.66820313 L24.2323047,2.66820313 C24.2323047,4.00148438 23.1514063,5.08210938 21.8183984,5.08210938 Z" id="Shape"></path>
                    </g>
                    <g id="Group" opacity="0.97" transform="translate(45.937500, 108.554688)" fill="#C7CFE2">
                        <path d="M33.8873828,4.89371094 L2.50796875,4.89371094 C1.17496094,4.89371094 0.0940625,3.8128125 0.0940625,2.47980469 L0.0940625,2.47980469 C0.0940625,1.14679687 1.17496094,0.0658984375 2.50796875,0.0658984375 L33.8873828,0.0658984375 C35.2203906,0.0658984375 36.3012891,1.14679687 36.3012891,2.47980469 L36.3012891,2.47980469 C36.3012891,3.8128125 35.2203906,4.89371094 33.8873828,4.89371094 Z" id="Shape"></path>
                    </g>
                    <path d="M26.7214062,84.4828906 C26.1037109,84.4828906 25.4860156,84.2471875 25.0148828,83.7757813 L17.7734375,76.5340625 C16.830625,75.59125 16.830625,74.0635547 17.7734375,73.1207422 C18.71625,72.1779297 20.2439453,72.1779297 21.1867578,73.1207422 L26.7214062,78.6556641 L37.0838672,68.2932031 C38.0266797,67.3503906 39.554375,67.3503906 40.4971875,68.2932031 C41.44,69.2360156 41.44,70.7637109 40.4971875,71.7065234 L28.4282031,83.7755078 C27.9567969,84.2471875 27.3391016,84.4828906 26.7214062,84.4828906 Z" id="Shape" fill="#82889D"></path>
                    <g id="Group" opacity="0.97" transform="translate(45.937500, 69.726562)" fill="#AFB9D2">
                        <path d="M21.8183984,5.10097656 L2.50796875,5.10097656 C1.17496094,5.10097656 0.0940625,4.02007812 0.0940625,2.68707031 L0.0940625,2.68707031 C0.0940625,1.3540625 1.17496094,0.273164062 2.50796875,0.273164062 L21.8183984,0.273164062 C23.1514063,0.273164062 24.2323047,1.3540625 24.2323047,2.68707031 L24.2323047,2.68707031 C24.2323047,4.02035156 23.1514063,5.10097656 21.8183984,5.10097656 Z" id="Shape"></path>
                    </g>
                    <g id="Group" opacity="0.97" transform="translate(45.937500, 79.570312)" fill="#C7CFE2">
                        <path d="M33.8873828,4.91257813 L2.50796875,4.91257813 C1.17496094,4.91257813 0.0940625,3.83167969 0.0940625,2.49867188 L0.0940625,2.49867188 C0.0940625,1.16566406 1.17496094,0.084765625 2.50796875,0.084765625 L33.8873828,0.084765625 C35.2203906,0.084765625 36.3012891,1.16566406 36.3012891,2.49867188 L36.3012891,2.49867188 C36.3012891,3.83167969 35.2203906,4.91257813 33.8873828,4.91257813 Z" id="Shape"></path>
                    </g>
                </g>
            </g>
        </g>
    </g>
</svg>