<?xml version="1.0" encoding="UTF-8"?>
<svg width="143px" height="140px" viewBox="0 0 143 140" version="1.1" xmlns="http://www.w3.org/2000/svg" xmlns:xlink="http://www.w3.org/1999/xlink">
    <!-- Generator: sketchtool 42 (36781) - http://www.bohemiancoding.com/sketch -->
    <title>FFF18B9D-B505-4A34-BECA-16E67CBED8A6</title>
    <desc>Created with sketchtool.</desc>
    <defs></defs>
    <g id="Needs-Assessment" stroke="none" stroke-width="1" fill="none" fill-rule="evenodd">
        <g id="NA---Intro" transform="translate(-361.000000, -243.000000)" fill-rule="nonzero">
            <g id="questions" transform="translate(361.000000, 243.000000)">
                <g id="Layer_1">
                    <path d="M139.29511,39.2907522 L2.78577238,39.2907522 C1.24715318,39.2907522 0,38.0406637 0,36.499115 L0,2.99761062 C0,1.45575221 1.24746226,0.205973451 2.78577238,0.205973451 L139.29511,0.205973451 C140.833729,0.205973451 142.080882,1.45606195 142.080882,2.99761062 L142.080882,36.4988053 C142.081191,38.0406637 140.833729,39.2907522 139.29511,39.2907522 Z" id="Shape" fill="#E4EAF8"></path>
                    <path d="M33.430814,39.2907522 L2.78577238,39.2907522 C1.24715318,39.2907522 0,38.0406637 0,36.499115 L0,2.99761062 C0,1.45575221 1.24746226,0.205973451 2.78577238,0.205973451 L33.430814,0.205973451 C34.9694332,0.205973451 36.2165864,1.45606195 36.2165864,2.99761062 L36.2165864,36.4988053 C36.2168955,38.0406637 34.9694332,39.2907522 33.430814,39.2907522 Z" id="Shape" fill="#FF5050"></path>
                    <path d="M94.7208973,16.9564159 L47.3602941,16.9564159 C45.8204386,16.9564159 44.5745217,15.7078761 44.5745217,14.1647788 C44.5745217,12.6216814 45.8204386,11.3731416 47.3602941,11.3731416 L94.7205882,11.3731416 C96.2604438,11.3731416 97.5063606,12.6216814 97.5063606,14.1647788 C97.5063606,15.7078761 96.2607529,16.9564159 94.7208973,16.9564159 Z" id="Shape" fill="#707487"></path>
                    <g id="Group" transform="translate(44.508069, 22.300885)" fill="#7F8499">
                        <path d="M83.6436426,5.82269912 L30.7114947,5.82269912 C29.1716391,5.82269912 27.9257223,4.57415929 27.9257223,3.03106195 C27.9257223,1.4879646 29.1716391,0.239424779 30.7114947,0.239424779 L83.6436426,0.239424779 C85.1834982,0.239424779 86.429415,1.4879646 86.429415,3.03106195 C86.429415,4.57415929 85.1834982,5.82269912 83.6436426,5.82269912 Z" id="Shape"></path>
                        <path d="M19.567787,5.82269912 L2.8522254,5.82269912 C1.31236986,5.82269912 0.0664530193,4.57415929 0.0664530193,3.03106195 C0.0664530193,1.4879646 1.31236986,0.239424779 2.8522254,0.239424779 L19.567787,0.239424779 C21.1076425,0.239424779 22.3535593,1.4879646 22.3535593,3.03106195 C22.3535593,4.57415929 21.1076425,5.82269912 19.567787,5.82269912 Z" id="Shape"></path>
                    </g>
                    <g id="Group" transform="translate(8.345263, 5.575221)" fill="#FFFFFF">
                        <path d="M9.76303032,19.7567257 C8.22317478,19.7567257 6.97725794,18.5081858 6.97725794,16.9650885 C6.97725794,15.4219912 8.22317478,14.1734513 9.76303032,14.1734513 C12.0672501,14.1734513 13.9418434,12.2949115 13.9418434,9.98584071 C13.9418434,7.67676991 12.0672501,5.79823009 9.76303032,5.79823009 C7.45881052,5.79823009 5.5842172,7.67676991 5.5842172,9.98584071 C5.5842172,11.5289381 4.33830036,12.7774779 2.79844482,12.7774779 C1.25858928,12.7774779 0.0126724362,11.5289381 0.0126724362,9.98584071 C0.0126724362,4.59831858 4.38744469,0.214646018 9.76333941,0.214646018 C15.1392341,0.214646018 19.5140064,4.59862832 19.5140064,9.98584071 C19.5140064,15.3730531 15.1392341,19.7567257 9.76303032,19.7567257 Z" id="Shape"></path>
                        <path d="M9.7902297,28.1319469 C8.25037415,28.1319469 6.99085763,26.8834071 6.99085763,25.3403097 C6.99085763,23.7972124 8.22317478,22.5486726 9.76303032,22.5486726 L9.7902297,22.5486726 C11.3300852,22.5486726 12.5760021,23.7972124 12.5760021,25.3403097 C12.5763112,26.8834071 11.3300852,28.1319469 9.7902297,28.1319469 Z" id="Shape"></path>
                    </g>
                    <path d="M139.29511,89.5423894 L2.78577238,89.5423894 C1.24715318,89.5423894 0,88.2923009 0,86.7507522 L0,53.2495575 C0,51.7076991 1.24746226,50.4579204 2.78577238,50.4579204 L139.29511,50.4579204 C140.833729,50.4579204 142.080882,51.7080088 142.080882,53.2495575 L142.080882,86.7507522 C142.081191,88.2926106 140.833729,89.5423894 139.29511,89.5423894 Z" id="Shape" fill="#E4EAF8"></path>
                    <path d="M33.430814,89.5423894 L2.78577238,89.5423894 C1.24715318,89.5423894 0,88.2923009 0,86.7507522 L0,53.2495575 C0,51.7076991 1.24746226,50.4579204 2.78577238,50.4579204 L33.430814,50.4579204 C34.9694332,50.4579204 36.2165864,51.7080088 36.2165864,53.2495575 L36.2165864,86.7507522 C36.2168955,88.2926106 34.9694332,89.5423894 33.430814,89.5423894 Z" id="Shape" fill="#FFDC64"></path>
                    <path d="M94.7208973,67.2083628 L47.3602941,67.2083628 C45.8204386,67.2083628 44.5745217,65.959823 44.5745217,64.4167257 C44.5745217,62.8736283 45.8204386,61.6250885 47.3602941,61.6250885 L94.7205882,61.6250885 C96.2604438,61.6250885 97.5063606,62.8736283 97.5063606,64.4167257 C97.5066697,65.959823 96.2607529,67.2083628 94.7208973,67.2083628 Z" id="Shape" fill="#707487"></path>
                    <path d="M64.0758557,78.375531 L47.3602941,78.375531 C45.8204386,78.375531 44.5745217,77.1269912 44.5745217,75.5838938 C44.5745217,74.0407965 45.8204386,72.7922566 47.3602941,72.7922566 L64.0758557,72.7922566 C65.6157112,72.7922566 66.8616281,74.0407965 66.8616281,75.5838938 C66.8616281,77.1266814 65.6157112,78.375531 64.0758557,78.375531 Z" id="Shape" fill="#7F8499"></path>
                    <g id="Group" transform="translate(8.345263, 55.752212)" fill="#FFFFFF">
                        <path d="M9.76303032,19.8313717 C8.22317478,19.8313717 6.97725794,18.5828319 6.97725794,17.0397345 C6.97725794,15.4966372 8.22317478,14.2480973 9.76303032,14.2480973 C12.0672501,14.2480973 13.9418434,12.3695575 13.9418434,10.0604867 C13.9418434,7.75141593 12.0672501,5.87287611 9.76303032,5.87287611 C7.45881052,5.87287611 5.5842172,7.75141593 5.5842172,10.0604867 C5.5842172,11.6035841 4.33830036,12.8521239 2.79844482,12.8521239 C1.25858928,12.8521239 0.0126724362,11.6035841 0.0126724362,10.0604867 C0.0126724362,4.67327434 4.38744469,0.289292035 9.76333941,0.289292035 C15.1392341,0.289292035 19.5140064,4.67327434 19.5140064,10.0604867 C19.5140064,15.4476991 15.1392341,19.8313717 9.76303032,19.8313717 Z" id="Shape"></path>
                        <path d="M9.7902297,28.2069027 C8.25037415,28.2069027 6.99085763,26.9583628 6.99085763,25.4152655 C6.99085763,23.8721681 8.22317478,22.6236283 9.76303032,22.6236283 L9.7902297,22.6236283 C11.3300852,22.6236283 12.5760021,23.8721681 12.5760021,25.4152655 C12.5760021,26.9583628 11.3300852,28.2069027 9.7902297,28.2069027 Z" id="Shape"></path>
                    </g>
                    <path d="M139.29511,139.794336 L2.78577238,139.794336 C1.24746226,139.794336 0,138.544248 0,137.002699 L0,103.501504 C0,101.959646 1.24746226,100.709867 2.78577238,100.709867 L139.29511,100.709867 C140.833729,100.709867 142.080882,101.959956 142.080882,103.501504 L142.080882,137.002699 C142.081191,138.544248 140.833729,139.794336 139.29511,139.794336 Z" id="Shape" fill="#E4EAF8"></path>
                    <path d="M33.430814,139.794336 L2.78577238,139.794336 C1.24746226,139.794336 0,138.544248 0,137.002699 L0,103.501504 C0,101.959646 1.24746226,100.709867 2.78577238,100.709867 L33.430814,100.709867 C34.9694332,100.709867 36.2165864,101.959956 36.2165864,103.501504 L36.2165864,137.002699 C36.2168955,138.544248 34.9694332,139.794336 33.430814,139.794336 Z" id="Shape" fill="#7DF5A5"></path>
                    <path d="M94.7208973,117.46031 L47.3602941,117.46031 C45.8204386,117.46031 44.5745217,116.21177 44.5745217,114.668673 C44.5745217,113.125575 45.8204386,111.877035 47.3602941,111.877035 L94.7205882,111.877035 C96.2604438,111.877035 97.5063606,113.125575 97.5063606,114.668673 C97.5063606,116.21177 96.2607529,117.46031 94.7208973,117.46031 Z" id="Shape" fill="#707487"></path>
                    <path d="M64.0758557,128.627168 L47.3602941,128.627168 C45.8204386,128.627168 44.5745217,127.378628 44.5745217,125.835531 C44.5745217,124.292434 45.8204386,123.043894 47.3602941,123.043894 L64.0758557,123.043894 C65.6157112,123.043894 66.8616281,124.292434 66.8616281,125.835531 C66.8616281,127.378628 65.6157112,128.627168 64.0758557,128.627168 Z" id="Shape" fill="#7F8499"></path>
                    <g id="Group" transform="translate(8.345263, 106.238938)" fill="#FFFFFF">
                        <path d="M9.76303032,19.5965929 C8.22317478,19.5965929 6.97725794,18.3480531 6.97725794,16.8049558 C6.97725794,15.2618584 8.22317478,14.0133186 9.76303032,14.0133186 C12.0672501,14.0133186 13.9418434,12.1347788 13.9418434,9.82570796 C13.9418434,7.51663717 12.0672501,5.63809735 9.76303032,5.63809735 C7.45881052,5.63809735 5.5842172,7.51663717 5.5842172,9.82570796 C5.5842172,11.3688053 4.33830036,12.6173451 2.79844482,12.6173451 C1.25858928,12.6173451 0.0126724362,11.3688053 0.0126724362,9.82570796 C0.0126724362,4.43818584 4.38744469,0.0545132743 9.76333941,0.0545132743 C15.1392341,0.0545132743 19.5140064,4.43849558 19.5140064,9.82570796 C19.5140064,15.2129204 15.1392341,19.5965929 9.76303032,19.5965929 Z" id="Shape"></path>
                        <path d="M9.7902297,27.9718142 C8.25037415,27.9718142 6.99085763,26.7232743 6.99085763,25.180177 C6.99085763,23.6370796 8.22317478,22.3885398 9.76303032,22.3885398 L9.7902297,22.3885398 C11.3300852,22.3885398 12.5760021,23.6370796 12.5760021,25.180177 C12.5763112,26.7232743 11.3300852,27.9718142 9.7902297,27.9718142 Z" id="Shape"></path>
                    </g>
                    <g id="Group" transform="translate(72.325612, 72.787611)" fill="#7F8499">
                        <path d="M50.2542458,5.58792035 L2.89395172,5.58792035 C1.35533251,5.58792035 0.108179334,4.33783186 0.108179334,2.79628319 L0.108179334,2.79628319 C0.108179334,1.25442478 1.35564159,0.0046460177 2.89395172,0.0046460177 L50.2542458,0.0046460177 C51.792865,0.0046460177 53.0400182,1.25473451 53.0400182,2.79628319 L53.0400182,2.79628319 C53.0400182,4.33783186 51.792865,5.58792035 50.2542458,5.58792035 Z" id="Shape"></path>
                        <path d="M50.2542458,55.8395575 L2.89395172,55.8395575 C1.35533251,55.8395575 0.108179334,54.589469 0.108179334,53.0479204 L0.108179334,53.0479204 C0.108179334,51.5060619 1.35564159,50.2562832 2.89395172,50.2562832 L50.2542458,50.2562832 C51.792865,50.2562832 53.0400182,51.5063717 53.0400182,53.0479204 L53.0400182,53.0479204 C53.0400182,54.5897788 51.792865,55.8395575 50.2542458,55.8395575 Z" id="Shape"></path>
                    </g>
                </g>
            </g>
        </g>
    </g>
</svg>