<?xml version="1.0" encoding="UTF-8"?>
<svg width="132px" height="139px" viewBox="0 0 132 139" version="1.1" xmlns="http://www.w3.org/2000/svg" xmlns:xlink="http://www.w3.org/1999/xlink">
    <!-- Generator: sketchtool 42 (36781) - http://www.bohemiancoding.com/sketch -->
    <title>A9B12A88-3780-47FB-9017-CD2D9D4D058D</title>
    <desc>Created with sketchtool.</desc>
    <defs></defs>
    <g id="Needs-Assessment" stroke="none" stroke-width="1" fill="none" fill-rule="evenodd">
        <g id="NA---Intro" transform="translate(-923.000000, -243.000000)" fill-rule="nonzero">
            <g id="target" transform="translate(923.000000, 243.000000)">
                <g id="Layer_1">
                    <g id="Group" transform="translate(15.122705, 1.407448)">
                        <path d="M58.2048309,132.149883 C56.4217585,132.149883 54.8637681,130.70373 54.8637681,128.91979 L54.8637681,77.5637652 C54.8637681,75.7801765 56.4217585,74.3336716 58.2048309,74.3336716 C59.9879034,74.3336716 61.5458937,75.7798246 61.5458937,77.5637652 L61.5458937,128.91979 C61.5458937,130.70373 59.9879034,132.149883 58.2048309,132.149883 Z" id="Shape" fill="#33495F"></path>
                        <path d="M31.9053913,137.502761 C31.4875826,137.502761 31.0627401,137.421129 30.6530203,137.248012 C29.0099208,136.555196 28.2393662,134.661123 28.9314937,133.017575 L50.5604792,81.6643654 C51.2529585,80.0197622 53.1457585,79.2484806 54.7892097,79.9416489 C56.4323092,80.6344652 57.2028638,82.5288905 56.5107362,84.1720862 L34.8817507,135.525648 C34.3619517,136.760684 33.1651478,137.502761 31.9053913,137.502761 Z" id="Shape" fill="#33495F"></path>
                        <path d="M84.4335807,137.502761 C83.1734725,137.502761 81.9770203,136.760684 81.4572213,135.526 L59.8275324,84.1724381 C59.1354048,82.5288905 59.9059594,80.6344652 61.5490589,79.9420007 C63.1918068,79.2491844 65.0853101,80.0201141 65.7777894,81.6647173 L87.4067749,133.017927 C88.0992541,134.661826 87.3283478,136.5559 85.6852483,137.248364 C85.2765836,137.420777 84.8513894,137.502761 84.4335807,137.502761 Z" id="Shape" fill="#33495F"></path>
                        <path d="M58.2048309,125.044381 C56.4217585,125.044381 54.8637681,123.598228 54.8637681,121.814288 L54.8637681,77.5637652 C54.8637681,75.7801765 56.4217585,74.3336716 58.2048309,74.3336716 C59.9879034,74.3336716 61.5458937,75.7798246 61.5458937,77.5637652 L61.5458937,121.814288 C61.5458937,123.598228 59.9879034,125.044381 58.2048309,125.044381 Z" id="Shape" fill="#2B3E51"></path>
                        <path d="M37.0843903,125.20659 C36.6665816,125.20659 36.2417391,125.124958 35.8320193,124.951841 C34.1889198,124.259377 33.4183652,122.364952 34.1104928,120.721756 L50.5604792,81.6643654 C51.2529585,80.0201141 53.1461101,79.2484806 54.7892097,79.9416489 C56.4323092,80.6344652 57.2028638,82.5288905 56.5107362,84.1720862 L40.0603981,123.229477 C39.5409507,124.464161 38.3437952,125.20659 37.0843903,125.20659 Z" id="Shape" fill="#2B3E51"></path>
                        <path d="M79.2545816,125.206238 C77.9948251,125.206238 76.7980213,124.464161 76.2782222,123.229477 L59.8275324,84.1724381 C59.1354048,82.5288905 59.9059594,80.6344652 61.5490589,79.9420007 C63.1921585,79.2481288 65.0853101,80.0201141 65.7777894,81.6647173 L82.2277758,120.721756 C82.9202551,122.365304 82.1493488,124.259729 80.5062493,124.951841 C80.0972329,125.124606 79.6723903,125.206238 79.2545816,125.206238 Z" id="Shape" fill="#2B3E51"></path>
                        <ellipse id="Oval" fill="#E94B35" cx="58.1693101" cy="58.1842594" rx="58.1109295" ry="58.1392211"></ellipse>
                        <ellipse id="Oval" fill="#ECF0F1" cx="58.1693101" cy="58.1842594" rx="47.9414377" ry="47.9647782"></ellipse>
                        <ellipse id="Oval" fill="#E94B35" cx="58.1693101" cy="58.1842594" rx="37.7719459" ry="37.7903354"></ellipse>
                        <ellipse id="Oval" fill="#ECF0F1" cx="58.1693101" cy="58.1842594" rx="27.6028058" ry="27.6162444"></ellipse>
                        <ellipse id="Oval" fill="#E94B35" cx="58.1693101" cy="58.1842594" rx="17.433314" ry="17.4418015"></ellipse>
                        <ellipse id="Oval" fill="#ECF0F1" cx="58.1693101" cy="58.1842594" rx="7.26382222" ry="7.26735865"></ellipse>
                    </g>
                    <polygon id="Shape" fill="#8F3FAF" points="41.0701024 36.0732486 15.6199961 16.7306883 0.0960115942 21.1571128 10.6203594 29.1556408 16.1672271 27.4899259 12.7322628 30.7608354 19.3686686 35.804426 23.61217 34.7706553 21.2361469 37.2238375 25.5464696 40.5000249"></polygon>
                    <path d="M73.0795942,60.8830413 C72.8073855,60.8830413 72.5330667,60.7975388 72.299544,60.6202003 L15.2292676,17.2454625 C14.661287,16.8133759 14.5505043,16.0033895 14.982029,15.4347804 C15.4135536,14.8668751 16.2234976,14.7563904 16.7914783,15.1874214 L73.8617546,58.5621592 C74.4297353,58.9942458 74.5405179,59.8042323 74.1089932,60.3728413 C73.8550725,60.7071103 73.4696193,60.8830413 73.0795942,60.8830413 Z" id="Shape" fill="#F2C500"></path>
                    <polygon id="Shape" fill="#9C56B8" points="41.5600077 19.4097659 36.6753739 15.6972695 34.6978164 22.3066461 34.7991034 14.2711726 26.0029643 7.58614566 22.854628 14.8770791 24.2079343 6.22197652 16.1099014 0.0668537883 16.0103729 16.216266 41.4608309 35.5591781"></polygon>
                </g>
            </g>
        </g>
    </g>
</svg>