<?xml version="1.0" encoding="UTF-8"?>
<svg width="140px" height="140px" viewBox="0 0 140 140" version="1.1" xmlns="http://www.w3.org/2000/svg" xmlns:xlink="http://www.w3.org/1999/xlink">
    <!-- Generator: sketchtool 42 (36781) - http://www.bohemiancoding.com/sketch -->
    <title>5F03EF89-9CC4-449A-8B47-644EC3F45806</title>
    <desc>Created with sketchtool.</desc>
    <defs></defs>
    <g id="Needs-Assessment" stroke="none" stroke-width="1" fill="none" fill-rule="evenodd">
        <g id="NA---Intro" transform="translate(-652.000000, -243.000000)" fill-rule="nonzero">
            <g id="tools" transform="translate(652.000000, 243.000000)">
                <g id="Layer_1">
                    <path d="M51.6785575,68.7211696 L67.8194932,50.8939571 L19.3969591,2.23017544 C16.5060819,-0.660701754 11.6879532,-0.660701754 8.79707602,2.23017544 L2.29239766,8.7348538 C-0.598479532,11.625731 -0.598479532,16.4438596 2.29239766,19.3347368 L51.6785575,68.7211696 Z" id="Shape" fill="#E15649"></path>
                    <polygon id="Shape" fill="#C3C7CB" points="128.287758 138.343743 139.851267 139.789318 138.16499 127.984834 127.565107 120.757505 120.819727 127.74386"></polygon>
                    <polygon id="Shape" fill="#E0E0E0" points="76.9740741 83.6575049 121.060429 127.74386 127.805809 120.99848 83.7194542 76.9121248"></polygon>
                    <path d="M53.1241326,55.4711111 C52.4014815,55.4711111 51.9195322,55.2301365 51.4378558,54.74846 L10.4833528,13.7939571 C9.5197271,12.8303314 9.5197271,11.3847563 10.4833528,10.4211306 C11.4469786,9.45750487 12.8925536,9.45750487 13.8561793,10.4211306 L54.8106823,51.3756335 C55.774308,52.3392593 55.774308,53.7848343 54.8106823,54.74846 C54.3287329,55.2301365 53.8467836,55.4711111 53.1241326,55.4711111" id="Shape" fill="#BC342E"></path>
                    <path d="M76.9740741,40.2938012 C82.5148538,34.7530214 83.2377778,26.080117 77.4560234,20.2983626 C66.1332164,8.97555556 59.6288109,10.1801559 46.8607018,10.1801559 C66.1332164,1.74849903 80.1059259,-0.178752437 94.0786355,6.32565302 C100.101365,8.97555556 102.510565,11.3847563 107.328694,16.202885 L116.001326,24.8755166 C118.169552,27.0437427 119.614854,29.9346199 120.096803,32.8254971 C120.819454,37.4026511 119.614854,38.3662768 122.746706,41.7391033 C123.710331,42.702729 125.155906,42.702729 126.119532,41.7391033 C127.083158,40.7754776 128.528733,40.7754776 129.492359,41.7391033 L137.924288,50.1710331 C139.85154,52.0982846 139.85154,54.9891618 137.924288,56.9164133 L120.819727,74.0209747 C118.892476,75.9482261 116.001598,75.9482261 114.074347,74.0209747 L106.124366,65.8300195 C105.160741,64.8663938 105.160741,63.4208187 106.124366,62.457193 C107.087992,61.4935673 107.087992,59.8072904 106.124366,58.8436647 C102.75154,55.4708382 101.787914,56.6754386 97.2107602,56.1937622 C94.0789084,55.7118129 91.4290058,54.2665107 89.2607797,52.0982846 L76.9740741,40.2938012" id="Shape" fill="#7F7C79"></path>
                    <path d="M76.9740741,40.2938012 L2.29239766,123.889357 C-0.598479532,126.780234 -0.839454191,131.598363 2.051423,134.248538 L5.42424951,137.621365 C8.31512671,140.512242 12.8925536,140.271267 15.7834308,137.38039 L90.7060819,53.5441326 L76.9740741,40.2938012 Z" id="Shape" fill="#565656"></path>
                    <polygon id="Shape" fill="#E15649" points="65.1695906 81.9712281 71.9149708 88.7166082 89.0195322 71.6120468 81.3105263 63.9030409"></polygon>
                </g>
            </g>
        </g>
    </g>
</svg>