<svg xmlns="http://www.w3.org/2000/svg" width="71" height="71" viewBox="0 0 71 71">
    <g fill="none" fill-rule="nonzero">
        <path fill="#E0E5EE" d="M69.532 8.437H61.54a1.11 1.11 0 0 0-1.108 1.112v3.563a2.186 2.186 0 0 1-2.18 2.187 2.186 2.186 0 0 1-2.18-2.187V9.549a1.11 1.11 0 0 0-1.109-1.112h-39.21a1.11 1.11 0 0 0-1.108 1.112v3.563a2.186 2.186 0 0 1-2.18 2.187 2.186 2.186 0 0 1-2.18-2.187V9.549a1.11 1.11 0 0 0-1.109-1.112H1.108A1.11 1.11 0 0 0 0 9.55v53.724a1.11 1.11 0 0 0 1.108 1.111h37.108c.38 0 .733-.195.936-.517.203-.322.228-.726.065-1.07a17.727 17.727 0 0 1-1.696-8.085c.117-4.619 2.002-8.962 5.31-12.231 3.306-3.269 7.664-5.096 12.269-5.146l.194-.001c5.14 0 10.016 2.221 13.403 6.113.304.35.792.473 1.224.31.432-.163.718-.577.718-1.04V9.548a1.11 1.11 0 0 0-1.107-1.112z"/>
        <path fill="#C9CED6" d="M69.532 8.437H61.54a1.11 1.11 0 0 0-1.108 1.112v3.563a2.186 2.186 0 0 1-2.18 2.187 2.186 2.186 0 0 1-2.18-2.187V9.549a1.11 1.11 0 0 0-1.109-1.112h-39.21a1.11 1.11 0 0 0-1.108 1.112v3.563a2.186 2.186 0 0 1-2.18 2.187 2.186 2.186 0 0 1-2.18-2.187V9.549a1.11 1.11 0 0 0-1.109-1.112H1.108A1.11 1.11 0 0 0 0 9.55v16.455h70.64V9.55a1.11 1.11 0 0 0-1.108-1.112z"/>
        <path fill="#16325C" d="M69.57 8.437H1.146A1.11 1.11 0 0 0 .038 9.55V21.58a1.11 1.11 0 0 0 1.108 1.112H69.57a1.11 1.11 0 0 0 1.108-1.112V9.549a1.11 1.11 0 0 0-1.108-1.112z"/>
        <g fill="#D3D8E0">
            <path d="M12.464.01c-2.424 0-4.396 1.978-4.396 4.41v8.692c0 2.432 1.972 4.41 4.396 4.41s4.396-1.978 4.396-4.41V4.42c0-2.432-1.972-4.41-4.396-4.41zM58.251.01c-2.424 0-4.396 1.978-4.396 4.41v8.692c0 2.432 1.972 4.41 4.396 4.41 2.425 0 4.397-1.978 4.397-4.41V4.42c0-2.432-1.972-4.41-4.397-4.41z"/>
        </g>
        <g>
            <path fill="#F28205" d="M55.614 41c8.071 0 14.614 6.542 14.614 14.614 0 8.071-6.542 14.614-14.614 14.614C47.543 70.228 41 63.685 41 55.614 41 47.542 47.543 41 55.614 41z"/>
            <path fill="#FFF" d="M61.585 55.837h-5.037v-6.009c0-.536-.823-.969-1.358-.969-.535 0-1.359.433-1.359.97v7.753c0 .536.435.97.97.97h6.784c.536 0 .97-.823.97-1.359 0-.533-.434-1.356-.97-1.356z"/>
            <path fill="#FBD654" d="M55.614 41C47.543 41 41 47.542 41 55.614c0 8.071 6.543 14.614 14.614 14.614 8.072 0 14.614-6.543 14.614-14.614C70.228 47.542 63.685 41 55.614 41zm.147 25.856c-6.117 0-11.094-4.977-11.094-11.095s4.977-11.095 11.094-11.095c6.118 0 11.095 4.977 11.095 11.095s-4.977 11.095-11.095 11.095z"/>
        </g>
    </g>
</svg>
