<svg xmlns="http://www.w3.org/2000/svg" width="59" height="66" viewBox="0 0 59 66">
    <g fill="none" fill-rule="evenodd">
        <path fill="#E9EDED" fill-rule="nonzero" d="M5 0h48.857C56.707 0 59 2.327 59 5.217V60H10.143V5.217C10.143 2.327 7.849 0 5 0"/>
        <path fill="#CAD1D8" d="M10 8H0V5.333C0 2.38 2.23 0 5 0s5 2.379 5 5.333V8z"/>
        <path fill="#2B4255" d="M23 6L23 8 47 8 47 6z"/>
        <path fill="#576D7E" d="M15 12v2.727h40V12H15zm0 5.455v2.727h40v-2.727H15zm0 5.454v2.727h40V22.91H15zm0 5.455v2.727h40v-2.727H15zm0 5.454v2.727h40v-2.727H15zm0 5.455V42h20v-2.727H15z"/>
        <path fill="#F17F53" fill-rule="nonzero" d="M51 53L51 66 47 63.353 43 66 43 53"/>
        <path fill="#F05542" d="M46 54L46 60 48 60 48 54z"/>
        <path fill="#FCD062" fill-rule="nonzero" d="M54 49a7 7 0 11-14 0 7 7 0 0114 0z"/>
        <path fill="#F8B84E" fill-rule="nonzero" d="M53 49a6 6 0 11-12 0 6 6 0 0112 0z"/>
        <path fill="#E9EDED" fill-rule="nonzero" d="M49.514 52.85c-.282.214-2.13-1.084-2.48-1.08-.351.002-2.184 1.33-2.469 1.12-.285-.21.348-2.42.238-2.762-.11-.342-1.902-1.722-1.795-2.066.106-.343 2.345-.412 2.628-.626.282-.214 1.008-2.395 1.358-2.397.351-.003 1.102 2.165 1.387 2.375.285.21 2.524.242 2.635.584.11.341-1.665 1.75-1.771 2.094-.107.343.552 2.544.27 2.758z"/>
    </g>
</svg>
