<svg xmlns="http://www.w3.org/2000/svg" width="99" height="60" viewBox="0 0 99 60">
    <g fill="none" fill-rule="nonzero">
        <path fill="#D3D0D4" d="M84.474.348H3.955C1.857.348.152 1.798.152 3.581v47.2c0 1.783 1.705 3.232 3.803 3.232h80.519c2.098 0 3.803-1.449 3.803-3.232v-47.2c0-1.784-1.705-3.233-3.803-3.233z"/>
        <path fill="#FCFCFD" d="M7.102 7.021h74.224V47.29H7.102z"/>
        <g fill="#0090FF" transform="translate(12.763 11.652)">
            <ellipse cx="14.666" cy="8.684" rx="8.59" ry="8.55"/>
            <path d="M29.288 30.81c-.394-7.637-6.82-13.707-14.557-13.707C6.93 17.103.57 23.173.175 30.81h29.113z"/>
        </g>
        <g fill="#E5E9EF">
            <path d="M47.69 13.091h27.867v4.764H47.69zM47.69 24.774h27.867v4.764H47.69zM47.69 36.391h27.867v4.764H47.69z"/>
        </g>
        <g>
            <path fill="#04844B" d="M84.372 31.238c-7.865 0-14.263 6.361-14.263 14.18 0 7.82 6.398 14.182 14.263 14.182s14.264-6.362 14.264-14.181c0-7.82-6.399-14.181-14.264-14.181z"/>
            <path fill="#FFF" d="M92.748 40.773l-1.596-1.583a1.09 1.09 0 0 0-.798-.326c-.313 0-.579.109-.798.326l-7.698 7.647-3.45-3.433a1.09 1.09 0 0 0-.798-.326 1.09 1.09 0 0 0-.798.326l-1.595 1.583c-.22.217-.33.48-.33.791 0 .31.11.575.33.792l4.247 4.214 1.596 1.583c.22.217.485.325.798.325.313 0 .58-.108.798-.325l1.596-1.583 8.496-8.428c.219-.217.329-.481.329-.792 0-.31-.11-.574-.329-.791z"/>
        </g>
    </g>
</svg>
