<svg xmlns="http://www.w3.org/2000/svg" width="60" height="71" viewBox="0 0 60 71">
    <g fill="none" fill-rule="nonzero">
        <path fill="#CDD6E0" d="M46.688 70.954l-44.253-7.4C.795 63.256-.247 61.776.05 60.148l9.834-57.73C10.183.79 11.673-.246 13.312.05l44.253 7.402c1.64.296 2.682 1.776 2.384 3.404l-9.834 57.73c-.298 1.48-1.788 2.664-3.427 2.368z"/>
        <path fill="#F2F2F2" d="M52 3H7C5.35 3 4 4.324 4 5.942v58.116C4 65.676 5.35 67 7 67h45c1.65 0 3-1.324 3-2.942V5.943C55 4.324 53.65 3 52 3z"/>
        <path fill="#84DBFF" d="M11 9h20v23H11z"/>
        <g fill="#ACB3BA">
            <path d="M7.086 48.262h45.528v2.954H7.086zM7.086 39.106h45.528v2.953H7.086zM7.086 57.27h20.68v2.955H7.087z"/>
        </g>
        <path fill="#F8B64C" d="M35 29h18v3H35z"/>
        <path fill="#FFD15C" d="M35 20h18v3H35z"/>
        <circle cx="44" cy="59" r="6" fill="#86B03E"/>
        <ellipse cx="44" cy="58.5" fill="#F2F2F2" rx="5" ry="4.5"/>
        <circle cx="43.5" cy="58.5" r="3.5" fill="#9AD14B"/>
        <g fill="#3F4B5B">
            <path d="M17.323 18.195c1.197 4.301 4.04 4.598 4.04 4.598s2.843-.297 4.04-4.598c0 0 .598-.444.15-2.372 0 0-.3-3.708-4.04-3.708-3.741 0-4.04 3.708-4.04 3.708-.898 1.78-.15 2.372-.15 2.372z"/>
            <path d="M27.797 23.83l-2.993-1.037-.448-.149c-1.497 1.335-2.843 1.632-2.993 1.632h-.3c-.149 0-1.496-.149-2.992-1.632l-.449.149-2.992 1.038c-1.497.593-2.544 1.928-2.544 3.559v2.076h18.255V27.39c0-1.483-1.048-2.966-2.544-3.56z"/>
        </g>
    </g>
</svg>
