<svg width="24" height="24" viewBox="0 0 24 24" xmlns="http://www.w3.org/2000/svg"><title>163F1B1A-9F12-40F9-BDCA-90B1B42783A9</title><g fill-rule="nonzero" fill="none"><ellipse fill="#324A5E" cx="11.973" cy="12.025" rx="11.942" ry="11.861"/><ellipse fill="#E6E9EE" cx="11.973" cy="12.025" rx="9.991" ry="9.923"/><path fill="#FF7058" d="M13.883 13.922l2.243-6.021-6.063 2.227z"/><path fill="#54C0EB" d="M10.063 10.128L7.82 16.15l6.063-2.228z"/><ellipse fill="#FFF" cx="11.973" cy="12.025" rx="1.237" ry="1.229"/><g transform="translate(2.723 2.838)" fill="#ACB3BA"><ellipse cx="17.732" cy="9.188" rx=".741" ry=".736"/><ellipse cx=".768" cy="9.188" rx=".741" ry=".736"/><ellipse cx="9.25" cy="17.612" rx=".741" ry=".736"/><ellipse cx="9.25" cy=".763" rx=".741" ry=".736"/><ellipse cx="15.252" cy="15.148" rx=".741" ry=".736"/><ellipse cx="3.249" cy="3.227" rx=".741" ry=".736"/><ellipse cx="3.249" cy="15.148" rx=".741" ry=".736"/><ellipse cx="15.252" cy="3.227" rx=".741" ry=".736"/></g></g></svg>