<svg width="24" height="24" viewBox="0 0 24 24" xmlns="http://www.w3.org/2000/svg"><title>965B4FD3-8CBD-4BD0-AED6-10A81CB6A2E3</title><g transform="translate(1 1)" fill="#E74C3C" fill-rule="evenodd"><circle stroke="#E74C3C" fill-opacity=".04" cx="11" cy="11" r="11"/><path d="M12.239 10.996l3.237 3.281a.93.93 0 0 1 0 1.324.972.972 0 0 1-.653.288.972.972 0 0 1-.653-.288l-3.238-3.28-3.238 3.28a.972.972 0 0 1-.653.288.972.972 0 0 1-.653-.288.93.93 0 0 1 0-1.324l3.238-3.28-3.238-3.281a.93.93 0 0 1 0-1.324.9.9 0 0 1 1.306 0l3.238 3.28 3.238-3.28a.9.9 0 0 1 1.306 0 .93.93 0 0 1 0 1.324l-3.237 3.28z" fill-rule="nonzero"/></g></svg>