<svg width="19" height="26" viewBox="0 0 19 26" xmlns="http://www.w3.org/2000/svg"><title>8C3FA6B6-FB14-4B06-AA00-7D651BCFBFB2</title><g stroke="#9DABBA" stroke-width=".5" fill="#9DABBA" fill-rule="nonzero"><path d="M9.955 6.495A3.21 3.21 0 0 0 6.75 9.7a3.21 3.21 0 0 0 3.205 3.205A3.21 3.21 0 0 0 13.16 9.7a3.21 3.21 0 0 0-3.205-3.205zm0 5.494a2.292 2.292 0 0 1-2.29-2.29 2.292 2.292 0 0 1 2.29-2.289 2.292 2.292 0 0 1 2.289 2.29 2.292 2.292 0 0 1-2.29 2.289z"/><path d="M16.082 3.572A8.723 8.723 0 0 0 9.874 1c-2.346 0-4.55.913-6.21 2.572C.597 6.64.215 12.414 2.84 15.912l6.47 9.346c.312.45.815.453 1.14-.016l6.449-9.315c2.635-3.513 2.254-9.286-.816-12.355zm.073 11.82l-6.281 9.07-6.292-9.085c-2.38-3.174-2.04-8.388.73-11.158a7.813 7.813 0 0 1 5.562-2.303c2.1 0 4.075.818 5.561 2.303 2.77 2.77 3.111 7.984.72 11.172z"/></g></svg>