<svg xmlns="http://www.w3.org/2000/svg" width="265" height="265" viewBox="0 0 265 265">
    <g fill="none" fill-rule="nonzero">
        <circle cx="132.315" cy="132.315" r="132.315" fill="#CAD3E2"/>
        <path fill="#FCFCFD" d="M202.789 28.542H61.84c-5.814 0-10.57 4.757-10.57 10.571V225.34c0 5.814 4.756 10.571 10.57 10.571h140.772c5.814 0 10.57-4.757 10.57-10.57V39.112c.177-5.814-4.58-10.57-10.394-10.57z"/>
        <path fill="#6EB1E1" d="M140.595 97.782c9.338-3.347 15.857-12.156 15.857-22.727a24.061 24.061 0 0 0-24.137-24.138 24.061 24.061 0 0 0-24.137 24.138c0 10.395 6.695 19.38 15.857 22.727-20.614 3.7-36.47 21.495-37.175 43.166h90.735c-.53-21.671-16.386-39.465-37-43.166z"/>
        <g fill="#F1F3F7">
            <path d="M86.86 158.39h90.735v8.634H86.86zM86.86 181.647h90.735v8.633H86.86zM86.86 204.903h62.37v8.633H86.86z"/>
        </g>
    </g>
</svg>
