<svg width="25" height="20" viewBox="0 0 25 20" xmlns="http://www.w3.org/2000/svg"><title>8DA521F7-681B-47D2-963B-036DBD7E10FF</title><g fill-rule="nonzero" fill="#9DABBA"><path d="M21.916.039H3.053A3.055 3.055 0 0 0 0 3.09v12.893a3.055 3.055 0 0 0 3.053 3.053H21.91a3.055 3.055 0 0 0 3.053-3.053V3.097A3.052 3.052 0 0 0 21.916.039zm1.658 15.945a1.66 1.66 0 0 1-1.658 1.658H3.053a1.66 1.66 0 0 1-1.658-1.658V3.097a1.66 1.66 0 0 1 1.658-1.658H21.91a1.66 1.66 0 0 1 1.658 1.658v12.887h.005z"/><path d="M15.744 9.378l6.105-5.476a.7.7 0 0 0 .052-.986.7.7 0 0 0-.987-.052l-8.42 7.557-1.642-1.467c-.005-.005-.01-.01-.01-.015a1.033 1.033 0 0 0-.114-.099L4.044 2.86a.696.696 0 0 0-.986.057.696.696 0 0 0 .057.986l6.177 5.522-6.152 5.76a.7.7 0 0 0 .956 1.022l6.245-5.842 1.694 1.514a.697.697 0 0 0 .93-.006l1.74-1.56 6.21 5.9a.697.697 0 0 0 .96-1.012l-6.131-5.822z"/></g></svg>