<svg xmlns="http://www.w3.org/2000/svg" width="103" height="110" viewBox="0 0 103 110">
    <g fill="none" fill-rule="nonzero">
        <path fill="#526173" d="M99.92 27.23H65.888V2.223A2.213 2.213 0 0 0 63.665 0H2.402A2.213 2.213 0 0 0 .18 2.222v105.51c0 1.235.987 2.223 2.222 2.223H99.92a2.213 2.213 0 0 0 2.223-2.222v-78.28a2.213 2.213 0 0 0-2.223-2.222zm-38.477 2.223v76.08H4.624V4.445h56.819v25.008zm36.255 76.057h-31.81V31.653h31.81v73.857z"/>
        <path fill="#0BAEBE" d="M74.553 42.945h14.48a2.213 2.213 0 0 0 2.222-2.223 2.213 2.213 0 0 0-2.222-2.222h-14.48a2.213 2.213 0 0 0-2.222 2.222c0 1.213.987 2.223 2.222 2.223zM74.553 54.102h14.48a2.213 2.213 0 0 0 2.222-2.222 2.213 2.213 0 0 0-2.222-2.223h-14.48a2.213 2.213 0 0 0-2.222 2.223c0 1.234.987 2.222 2.222 2.222zM74.553 65.237h14.48a2.213 2.213 0 0 0 2.222-2.223 2.213 2.213 0 0 0-2.222-2.222h-14.48a2.213 2.213 0 0 0-2.222 2.222c0 1.235.987 2.223 2.222 2.223zM74.553 76.394h14.48a2.213 2.213 0 0 0 2.222-2.223 2.213 2.213 0 0 0-2.222-2.222h-14.48a2.213 2.213 0 0 0-2.222 2.222c0 1.235.987 2.223 2.222 2.223zM74.553 87.529h14.48a2.213 2.213 0 0 0 2.222-2.223 2.213 2.213 0 0 0-2.222-2.222h-14.48a2.213 2.213 0 0 0-2.222 2.222c0 1.212.987 2.223 2.222 2.223zM74.553 98.686h14.48a2.213 2.213 0 0 0 2.222-2.223 2.213 2.213 0 0 0-2.222-2.222h-14.48a2.213 2.213 0 0 0-2.222 2.222c0 1.235.987 2.223 2.222 2.223z"/>
        <path fill="#526173" d="M14.929 21.776a2.213 2.213 0 0 0 2.222-2.223v-4.916a2.213 2.213 0 0 0-2.222-2.223 2.213 2.213 0 0 0-2.223 2.223v4.916c0 1.235.988 2.223 2.223 2.223zM27.006 21.776a2.213 2.213 0 0 0 2.223-2.223v-4.916a2.213 2.213 0 0 0-2.223-2.223 2.213 2.213 0 0 0-2.222 2.223v4.916c0 1.235.987 2.223 2.222 2.223zM39.061 21.776a2.213 2.213 0 0 0 2.223-2.223v-4.916a2.213 2.213 0 0 0-2.223-2.223 2.213 2.213 0 0 0-2.222 2.223v4.916a2.228 2.228 0 0 0 2.222 2.223zM51.139 21.776a2.213 2.213 0 0 0 2.222-2.223v-4.916a2.213 2.213 0 0 0-2.222-2.223 2.213 2.213 0 0 0-2.223 2.223v4.916c0 1.235.988 2.223 2.223 2.223zM14.929 36.996a2.213 2.213 0 0 0 2.222-2.223v-4.938a2.213 2.213 0 0 0-2.222-2.223 2.213 2.213 0 0 0-2.223 2.223v4.938c0 1.213.988 2.223 2.223 2.223zM27.006 36.996a2.213 2.213 0 0 0 2.223-2.223v-4.938a2.213 2.213 0 0 0-2.223-2.223 2.213 2.213 0 0 0-2.222 2.223v4.938c0 1.213.987 2.223 2.222 2.223zM39.061 36.996a2.213 2.213 0 0 0 2.223-2.223v-4.938a2.213 2.213 0 0 0-2.223-2.223 2.213 2.213 0 0 0-2.222 2.223v4.938a2.242 2.242 0 0 0 2.222 2.223zM51.139 36.996a2.213 2.213 0 0 0 2.222-2.223v-4.938a2.213 2.213 0 0 0-2.222-2.223 2.213 2.213 0 0 0-2.223 2.223v4.938c0 1.213.988 2.223 2.223 2.223zM14.929 52.194a2.213 2.213 0 0 0 2.222-2.223v-4.916a2.213 2.213 0 0 0-2.222-2.222 2.213 2.213 0 0 0-2.223 2.222v4.916c0 1.235.988 2.223 2.223 2.223zM27.006 52.194a2.213 2.213 0 0 0 2.223-2.223v-4.916a2.213 2.213 0 0 0-2.223-2.222 2.213 2.213 0 0 0-2.222 2.222v4.916c0 1.235.987 2.223 2.222 2.223zM39.061 52.194a2.213 2.213 0 0 0 2.223-2.223v-4.916a2.213 2.213 0 0 0-2.223-2.222 2.213 2.213 0 0 0-2.222 2.222v4.916a2.228 2.228 0 0 0 2.222 2.223zM51.139 52.194a2.213 2.213 0 0 0 2.222-2.223v-4.916a2.213 2.213 0 0 0-2.222-2.222 2.213 2.213 0 0 0-2.223 2.222v4.916c0 1.235.988 2.223 2.223 2.223zM14.929 67.414a2.213 2.213 0 0 0 2.222-2.222v-4.916a2.213 2.213 0 0 0-2.222-2.223 2.213 2.213 0 0 0-2.223 2.223v4.916c0 1.212.988 2.222 2.223 2.222zM27.006 67.414a2.213 2.213 0 0 0 2.223-2.222v-4.916a2.213 2.213 0 0 0-2.223-2.223 2.213 2.213 0 0 0-2.222 2.223v4.916c0 1.212.987 2.222 2.222 2.222zM39.061 67.414a2.213 2.213 0 0 0 2.223-2.222v-4.916a2.213 2.213 0 0 0-2.223-2.223 2.213 2.213 0 0 0-2.222 2.223v4.916a2.242 2.242 0 0 0 2.222 2.222zM51.139 67.414a2.213 2.213 0 0 0 2.222-2.222v-4.916a2.213 2.213 0 0 0-2.222-2.223 2.213 2.213 0 0 0-2.223 2.223v4.916c0 1.212.988 2.222 2.223 2.222zM14.929 82.612a2.213 2.213 0 0 0 2.222-2.222v-4.917a2.213 2.213 0 0 0-2.222-2.222 2.213 2.213 0 0 0-2.223 2.222v4.917c0 1.234.988 2.222 2.223 2.222zM27.006 82.612a2.213 2.213 0 0 0 2.223-2.222v-4.917a2.213 2.213 0 0 0-2.223-2.222 2.213 2.213 0 0 0-2.222 2.222v4.917c0 1.234.987 2.222 2.222 2.222zM39.061 82.612a2.213 2.213 0 0 0 2.223-2.222v-4.917a2.213 2.213 0 0 0-2.223-2.222 2.213 2.213 0 0 0-2.222 2.222v4.917a2.228 2.228 0 0 0 2.222 2.222zM51.139 82.612a2.213 2.213 0 0 0 2.222-2.222v-4.917a2.213 2.213 0 0 0-2.222-2.222 2.213 2.213 0 0 0-2.223 2.222v4.917c0 1.234.988 2.222 2.223 2.222zM14.929 97.833a2.213 2.213 0 0 0 2.222-2.223v-4.939a2.213 2.213 0 0 0-2.222-2.222 2.213 2.213 0 0 0-2.223 2.222v4.94c0 1.211.988 2.222 2.223 2.222zM27.006 97.833a2.213 2.213 0 0 0 2.223-2.223v-4.939a2.213 2.213 0 0 0-2.223-2.222 2.213 2.213 0 0 0-2.222 2.222v4.94c0 1.211.987 2.222 2.222 2.222zM39.061 97.833a2.213 2.213 0 0 0 2.223-2.223v-4.939a2.213 2.213 0 0 0-2.223-2.222 2.213 2.213 0 0 0-2.222 2.222v4.94a2.242 2.242 0 0 0 2.222 2.222zM51.139 97.833a2.213 2.213 0 0 0 2.222-2.223v-4.939a2.213 2.213 0 0 0-2.222-2.222 2.213 2.213 0 0 0-2.223 2.222v4.94c0 1.211.988 2.222 2.223 2.222z"/>
    </g>
</svg>
