<svg xmlns="http://www.w3.org/2000/svg" xmlns:xlink="http://www.w3.org/1999/xlink" width="40" height="33" viewBox="0 0 40 33">
    <defs>
        <circle id="a" cx="35.87" cy="28" r="5"/>
        <mask id="e" width="10" height="10" x="0" y="0" fill="#fff">
            <use xlink:href="#a"/>
        </mask>
        <circle id="b" cx="5.99" cy="28" r="5"/>
        <mask id="f" width="10" height="10" x="0" y="0" fill="#fff">
            <use xlink:href="#b"/>
        </mask>
        <circle id="c" cx="20.95" cy="28" r="5"/>
        <mask id="g" width="10" height="10" x="0" y="0" fill="#fff">
            <use xlink:href="#c"/>
        </mask>
        <circle id="d" cx="20.95" cy="5" r="5"/>
        <mask id="h" width="10" height="10" x="0" y="0" fill="#fff">
            <use xlink:href="#d"/>
        </mask>
    </defs>
    <g fill="none" fill-rule="evenodd" transform="translate(-1)">
        <path fill="#19BBFF" fill-rule="nonzero" d="M40.802 27.216a4.99 4.99 0 0 0-4.1-4.061v-4.464c0-2.397-2.367-4.67-4.873-4.67h-10.07V9.837c2.798-.47 4.649-3.155 4.043-5.939-.54-2.479-2.93-4.167-5.47-3.863-2.847.346-4.798 2.966-4.325 5.741a4.982 4.982 0 0 0 4.092 4.06v4.193H10.022c-2.499 0-4.864 2.265-4.864 4.67v4.464c-2.798.47-4.649 3.155-4.043 5.939.54 2.479 2.93 4.167 5.47 3.863 2.848-.346 4.798-2.966 4.325-5.741a4.982 4.982 0 0 0-4.092-4.06v-4.465c0-1.499 1.618-3.023 3.204-3.023h10.077v7.479c-2.797.47-4.648 3.154-4.042 5.938.54 2.48 2.93 4.168 5.47 3.863 2.847-.346 4.798-2.965 4.325-5.74a4.982 4.982 0 0 0-4.093-4.061v-7.479h10.077c1.586 0 3.205 1.524 3.205 3.023v4.464c-2.856.478-4.732 3.262-4.01 6.095.59 2.34 2.847 3.929 5.271 3.715 2.94-.256 4.981-2.932 4.5-5.757zm-31.486.823c0 1.903-1.618 3.426-3.56 3.295-1.644-.107-2.972-1.433-3.089-3.056-.132-1.927 1.403-3.542 3.32-3.542a3.32 3.32 0 0 1 3.33 3.303zm14.95-.008c0 1.82-1.494 3.303-3.328 3.303-1.835 0-3.329-1.483-3.329-3.303 0-1.82 1.486-3.303 3.329-3.303a3.326 3.326 0 0 1 3.328 3.303zM20.93 8.264c-1.834 0-3.328-1.475-3.328-3.303 0-1.903 1.618-3.426 3.56-3.295 1.644.107 2.973 1.433 3.089 3.056.133 1.927-1.403 3.542-3.32 3.542zm14.942 23.07c-1.834 0-3.329-1.483-3.329-3.303 0-1.82 1.495-3.303 3.329-3.303 1.835 0 3.329 1.474 3.329 3.303 0 1.828-1.494 3.303-3.329 3.303z"/>
        <use stroke="#FFF" stroke-width="3.6" mask="url(#e)" xlink:href="#a"/>
        <use stroke="#FFF" stroke-width="3.6" mask="url(#f)" xlink:href="#b"/>
        <use stroke="#FFF" stroke-width="3.6" mask="url(#g)" xlink:href="#c"/>
        <use stroke="#FFF" stroke-width="3.6" mask="url(#h)" xlink:href="#d"/>
    </g>
</svg>
