<svg xmlns="http://www.w3.org/2000/svg" width="16" height="16" viewBox="0 0 16 16">
    <path fill="#16325C" fill-rule="nonzero" d="M15.279 4.66a.332.332 0 0 1-.064.096l-9.718 9.712a.33.33 0 0 1-.165.15l-4.824 1.35c-.01.006-.022.006-.033.01l-.016.005-.009.001a.323.323 0 0 1-.198.001c-.007-.001-.013 0-.02-.003-.004 0-.005-.003-.008-.004a.327.327 0 0 1-.084-.05C.127 15.92.113 15.91.101 15.9c-.011-.012-.02-.026-.03-.04a.331.331 0 0 1-.049-.083l-.005-.007c-.002-.007 0-.014-.003-.021a.343.343 0 0 1 .002-.198l.001-.008.005-.017c.004-.01.005-.022.009-.033l1.351-4.82a.332.332 0 0 1 .151-.165l9.57-9.564c.014-.016.03-.029.044-.044l.104-.104.018-.012A2.783 2.783 0 0 1 13.198 0 2.801 2.801 0 0 1 16 2.8c0 .718-.277 1.365-.721 1.86zm-1.316.386l-1.26-1.26-8.233 8.228c.001.003.005.004.006.007l.827 1.68 8.66-8.655zM.872 15.13l.97-.27-.699-.699-.271.97zm.482-1.72l1.24 1.239 2.13-.597s-.9-1.87-.902-1.87l-1.871-.902-.597 2.13zm2.628-1.881c.003.001.004.004.007.006l8.233-8.228-1.26-1.26-8.66 8.655 1.68.827zM13.187.696c-.62 0-1.174.27-1.563.694l-.003-.002-.179.178 3.002 3 .183-.184-.002-.002c.421-.389.69-.94.69-1.558A2.127 2.127 0 0 0 13.186.696z"/>
</svg>
