<svg width="25" height="25" viewBox="0 0 25 25" xmlns="http://www.w3.org/2000/svg"><title>8AEA9874-0449-46A3-A379-ADF139DC48CC</title><g fill-rule="nonzero" fill="#9DABBA"><path d="M19.75 15.48c-.512-.532-1.129-.817-1.783-.817-.649 0-1.271.28-1.804.812l-1.666 1.661c-.138-.073-.275-.142-.406-.21-.19-.096-.37-.185-.523-.28-1.56-.992-2.98-2.284-4.34-3.956-.66-.833-1.103-1.535-1.424-2.247.432-.395.833-.807 1.223-1.202.148-.148.296-.3.443-.448 1.108-1.108 1.108-2.543 0-3.65l-1.44-1.44a21.974 21.974 0 0 1-.49-.501 24.903 24.903 0 0 0-.992-.981c-.511-.507-1.123-.776-1.767-.776-.643 0-1.265.27-1.793.776l-.01.01-1.794 1.81A3.859 3.859 0 0 0 .04 6.492c-.127 1.54.327 2.975.675 3.913.854 2.305 2.13 4.441 4.035 6.73 2.31 2.759 5.09 4.937 8.265 6.472 1.213.575 2.832 1.255 4.64 1.371.112.005.228.01.333.01 1.219 0 2.242-.437 3.043-1.307.006-.01.016-.016.022-.027.274-.332.59-.633.923-.954.226-.217.458-.443.685-.68.522-.544.797-1.177.797-1.826 0-.654-.28-1.281-.813-1.809L19.75 15.48zm1.888 5.554c-.005 0-.005.005 0 0-.206.222-.417.422-.643.644-.343.327-.691.67-1.018 1.054-.533.57-1.16.839-1.984.839-.079 0-.163 0-.242-.005-1.567-.1-3.022-.712-4.114-1.234-2.985-1.446-5.607-3.497-7.785-6.098-1.798-2.167-3-4.171-3.797-6.323-.49-1.314-.67-2.337-.591-3.302.053-.617.29-1.129.728-1.566L3.99 3.244c.259-.243.533-.374.802-.374.332 0 .601.2.77.369l.016.016c.322.3.627.611.95.944l.5.511 1.44 1.44c.56.56.56 1.076 0 1.635-.153.153-.3.306-.453.454-.443.453-.865.875-1.324 1.287-.01.01-.021.015-.027.026-.453.454-.369.897-.274 1.197l.016.048c.374.907.902 1.761 1.703 2.78l.006.005c1.455 1.793 2.99 3.19 4.683 4.261.217.137.438.248.649.354.19.094.37.184.522.28.021.01.042.025.063.036.18.09.349.132.523.132.437 0 .712-.274.801-.364l1.804-1.804c.18-.18.464-.395.797-.395.327 0 .596.205.759.385l.01.01 2.907 2.906c.543.538.543 1.092.005 1.651zM13.505 5.944a6.688 6.688 0 0 1 3.64 1.889 6.723 6.723 0 0 1 1.887 3.639c.059.348.36.59.702.59.042 0 .08-.005.121-.01a.713.713 0 0 0 .586-.823 8.135 8.135 0 0 0-2.284-4.404 8.135 8.135 0 0 0-4.404-2.284.716.716 0 0 0-.823.58.704.704 0 0 0 .575.823zM24.96 11.024A13.383 13.383 0 0 0 21.2 3.77a13.383 13.383 0 0 0-7.252-3.76.71.71 0 0 0-.817.58.715.715 0 0 0 .585.823c2.458.416 4.7 1.582 6.482 3.36a11.949 11.949 0 0 1 3.36 6.482c.058.348.358.59.701.59.042 0 .08-.005.122-.01a.699.699 0 0 0 .58-.812z"/></g></svg>