<svg xmlns="http://www.w3.org/2000/svg" width="10" height="12" viewBox="0 0 10 12">
    <path fill="#E74C3C" fill-rule="nonzero" d="M6.366 6.068l3.364 3.85c.384.44.384 1.116 0 1.555-.177.202-.443.338-.679.338-.236 0-.501-.136-.678-.338L5.009 7.622l-3.364 3.85c-.177.203-.443.339-.679.339-.236 0-.501-.136-.678-.338a1.193 1.193 0 0 1 0-1.554l3.364-3.851L.288 2.217a1.193 1.193 0 0 1 0-1.554c.383-.44.973-.44 1.357 0l3.364 3.85L8.373.664c.383-.44.973-.44 1.357 0 .384.439.384 1.114 0 1.554l-3.364 3.85z"/>
</svg>
