<svg xmlns="http://www.w3.org/2000/svg" width="13" height="15" viewBox="0 0 13 15">
    <g fill="#16325C" fill-rule="nonzero">
        <path d="M11.7 1.758H9.533v-.44A1.31 1.31 0 0 0 8.233 0H4.767c-.717 0-1.3.591-1.3 1.318v.44H1.3c-.717 0-1.3.591-1.3 1.318 0 .584.376 1.08.896 1.253l.773 9.462A1.315 1.315 0 0 0 2.964 15h7.072c.67 0 1.24-.531 1.295-1.21l.773-9.461c.52-.173.896-.669.896-1.253a1.31 1.31 0 0 0-1.3-1.318zm-7.367-.44c0-.242.195-.44.434-.44h3.466c.24 0 .434.198.434.44v.44H4.333v-.44zm6.135 12.4a.438.438 0 0 1-.432.403H2.964a.438.438 0 0 1-.432-.403l-.761-9.323h9.458l-.761 9.323zM11.7 3.516H1.3a.437.437 0 0 1-.433-.44c0-.242.194-.44.433-.44h10.4c.239 0 .433.198.433.44s-.194.44-.433.44z"/>
        <path d="M5 12.532l-.334-7.118c-.011-.243-.17-.428-.353-.413-.184.015-.324.224-.312.467l.333 7.118c.01.234.158.414.332.414.193 0 .345-.215.333-.468zM6.5 5c-.276 0-.5.198-.5.441v7.118c0 .243.224.441.5.441s.5-.198.5-.441V5.44C7 5.198 6.776 5 6.5 5zM8.687 5c-.183-.014-.342.17-.353.414l-.333 7.118c-.012.243.128.452.312.467.184.015.342-.17.353-.413l.333-7.118c.012-.243-.128-.452-.312-.467z"/>
    </g>
</svg>
