<svg width="29" height="24" viewBox="0 0 29 24" xmlns="http://www.w3.org/2000/svg"><title>6D3A8448-59C9-48BB-8592-67582B642EDB</title><g fill-rule="nonzero" fill="none"><g fill="#605353"><path d="M26.238 18.28v1.305a.49.49 0 1 0 .978 0V18.28h-.978zM24.283 19.585a.49.49 0 1 0 .978 0V18.28h-.978v1.305zM22.327 19.585a.49.49 0 1 0 .978 0V18.28h-.978v1.305zM12.712 16.976h3.259V23.5h-3.26z"/></g><path d="M28.683 18.28a.654.654 0 0 1-.652.653H.651A.654.654 0 0 1 0 18.28V.663C0 .303.293.01.652.01H28.03c.359 0 .652.294.652.653V18.28z" fill="#463836"/><path fill="#6FC5D6" d="M1.956 1.968h24.772v15.008H1.956z"/><path d="M22.164 23.99H6.52a.49.49 0 0 1 0-.979h15.645a.49.49 0 0 1 0 .979z" fill="#463836"/></g></svg>