<svg xmlns="http://www.w3.org/2000/svg" xmlns:xlink="http://www.w3.org/1999/xlink" width="177" height="177" viewBox="0 0 177 177">
    <defs>
        <circle id="a" cx="84.5" cy="84.5" r="84.5"/>
    </defs>
    <g fill="none" fill-rule="evenodd">
        <g transform="translate(4 4)">
            <use fill="#068BFF" stroke="#FFF" stroke-width="8" xlink:href="#a"/>
            <circle cx="84.5" cy="84.5" r="85.5" stroke="#068BFF" stroke-width="2"/>
        </g>
        <g fill-rule="nonzero">
            <path fill="#B4C0D6" d="M67.203 62.762v-9.228h9.239v-9.227h23.096v9.227h9.238v9.228z"/>
            <path fill="#FFF" d="M53.346 131.969v-73.82h13.857v2.306a2.311 2.311 0 0 0 2.31 2.307h36.954a2.311 2.311 0 0 0 2.31-2.307v-2.307h13.857v73.82H53.346z"/>
            <path fill="#00437D" d="M120.324 55.564h-9.238c0-2.497-2.068-4.521-4.62-4.521h-4.619v-4.522c0-2.497-2.067-4.521-4.619-4.521H78.751c-2.551 0-4.619 2.024-4.619 4.521v4.522h-4.62c-2.55 0-4.618 2.024-4.618 4.521h-9.239c-2.551 0-4.619 2.025-4.619 4.522v67.822c0 2.498 2.068 4.522 4.62 4.522h64.668c2.552 0 4.62-2.024 4.62-4.522V60.086c0-2.497-2.068-4.522-4.62-4.522zm-50.811 0h9.238v-9.043h18.477v9.043h9.239v4.522H69.513v-4.522zm50.811 72.344H55.655V60.086h9.239c0 2.497 2.068 4.521 4.619 4.521h36.954c2.551 0 4.619-2.024 4.619-4.521h9.238v67.822z"/>
            <g>
                <path fill="#00437D" d="M84.208 96.793l-6.48-6.421a2 2 0 0 0-2.891.079l-3.604 3.984a2 2 0 0 0 .075 2.762l13.636 13.512a2 2 0 0 0 2.963-.164l26.355-32.628a2 2 0 0 0-.23-2.754l-3.987-3.528a2 2 0 0 0-2.881.24L87.17 96.63a2 2 0 0 1-2.963.163z"/>
                <path fill="#B4C0D6" d="M90.732 82.451v-.172a2 2 0 0 0-2-2H64.25a2 2 0 0 0-2 2v36.486a2 2 0 0 0 2 2h31.948a2 2 0 0 0 2-2v-5.28a2 2 0 0 0-2-2h-.157a2 2 0 0 0-2 2v1.108a2 2 0 0 1-2 2H68.407a2 2 0 0 1-2-2V84.451h22.325a2 2 0 0 0 2-2z"/>
            </g>
        </g>
    </g>
</svg>
