<svg xmlns="http://www.w3.org/2000/svg" width="150" height="154" viewBox="0 0 150 154">
    <g fill="none" fill-rule="evenodd">
        <path fill="#344A5E" fill-rule="nonzero" d="M95.415 111.617l-11.164-11.165L98.57 86.133l11.164 11.165z"/>
        <ellipse cx="37.223" cy="38.169" stroke="#FFF" stroke-width="8.511" rx="36.75" ry="37.527" transform="translate(17.64 18.625)"/>
        <path fill="#415A6B" fill-rule="nonzero" d="M93.357 96.146c-21.231 21.639-56.201 21.639-77.433 0-21.232-21.638-21.232-57.279 0-78.917 21.232-21.639 56.202-21.639 77.433 0 21.232 21.638 21.544 57.279 0 78.917zM24.978 26.457c-16.548 16.865-16.548 43.914 0 60.779 16.549 16.865 43.089 16.865 59.637 0 16.548-16.865 16.548-43.914 0-60.779-16.548-16.865-43.4-16.865-59.637 0z"/>
        <path fill="#F3705A" fill-rule="nonzero" d="M111.55 95.5c16.568 11.764 29.072 20.984 32.823 25.117 7.503 7.63 7.503 20.03 0 27.66a19.017 19.017 0 0 1-27.196 0c-3.751-3.815-13.13-16.532-24.696-33.383L111.55 95.5z"/>
        <path fill="#F05540" fill-rule="nonzero" d="M98.325 123.625c-1.845-2.876-3.998-5.753-5.844-8.63L111.244 95.5c3.076 2.237 5.844 4.155 8.305 6.073l-21.224 22.052z"/>
        <path fill="#F3705A" fill-rule="nonzero" d="M96.091 117.47l18.695-19.238c1.84-1.892 1.84-5.046 0-6.938a4.714 4.714 0 0 0-6.742 0l-18.695 19.238c-1.839 1.892-1.839 5.045 0 6.938 1.839 2.207 4.904 2.207 6.742 0z"/>
        <g fill-rule="nonzero">
            <path fill="#FF6465" d="M91.292 54.352c15.072 0 27.291-12.167 27.291-27.176C118.583 12.167 106.365 0 91.292 0S64 12.167 64 27.176c0 15.009 12.219 27.176 27.292 27.176z"/>
            <path fill="#FFF" d="M97.793 27.58l7.16-7.13c.52-.518.52-1.358 0-1.876l-4.212-4.194a1.336 1.336 0 0 0-1.885 0l-7.16 7.13-7.158-7.13a1.336 1.336 0 0 0-1.885 0l-4.212 4.194a1.323 1.323 0 0 0 0 1.876l7.16 7.13-7.16 7.128a1.323 1.323 0 0 0 0 1.877l4.212 4.194c.52.518 1.364.518 1.885 0l7.159-7.13 7.16 7.13c.52.518 1.363.518 1.884 0l4.212-4.194c.52-.518.52-1.358 0-1.877l-7.16-7.129z"/>
        </g>
    </g>
</svg>
