<svg xmlns="http://www.w3.org/2000/svg" viewBox="0 0 67 78.29"><defs><style>.cls-1{fill:#f04c54;}.cls-2{fill:#be9634;}.cls-3{fill:#e2bb2d;}.cls-4{fill:#fff;}</style></defs><title>Asset 13</title><g id="Layer_2" data-name="Layer 2"><g id="Layer_1-2" data-name="Layer 1"><circle class="cls-1" cx="51.44" cy="63.89" r="9.05"/><path class="cls-2" d="M33.5,0c-2,2-15,15.29-33.5,12.59v26s0,27,33.5,39.68C67,65.6,67,38.61,67,38.61v-26C48.79,15.29,35.45,2,33.5,0Z"/><path class="cls-3" d="M33.5,70.93C7.66,60,7,39.68,7,38.57V19.74c12-.56,20.91-6.15,26.5-10.57,5.59,4.42,14.5,10,26.5,10.57V38.57C60,39.68,59.34,60,33.5,70.93Z"/><circle class="cls-1" cx="50.14" cy="63.89" r="13.93"/><polygon class="cls-4" points="56.71 59.81 54.32 57.42 50.14 61.6 45.96 57.42 43.57 59.81 47.75 63.99 43.57 68.17 45.96 70.55 50.14 66.37 54.32 70.55 56.71 68.17 52.53 63.99 56.71 59.81"/></g></g></svg>