<?xml version="1.0" encoding="UTF-8"?>
<svg width="60px" height="56px" viewBox="0 0 60 56" version="1.1" xmlns="http://www.w3.org/2000/svg" xmlns:xlink="http://www.w3.org/1999/xlink">
    <!-- Generator: sketchtool 42 (36781) - http://www.bohemiancoding.com/sketch -->
    <title>A21AF3AF-DC69-407C-98EF-E2DCE5A2598D</title>
    <desc>Created with sketchtool.</desc>
    <defs></defs>
    <g id="Needs-Assessment" stroke="none" stroke-width="1" fill="none" fill-rule="evenodd">
        <g id="NA---Domain-Selection" transform="translate(-907.000000, -533.000000)" fill-rule="nonzero">
            <g id="Group-4" transform="translate(907.000000, 533.000000)">
                <g id="building">
                    <path d="M0,44.7277739 C0,44.3383324 0.316705876,44.0226277 0.70918923,44.0226277 L20.6896551,44.0226277 L20.6896551,54.6241608 C20.6896551,55.0136021 20.3729492,55.3293067 19.980466,55.3293067 L0.70918923,55.3293067 C0.317514833,55.3293067 0,55.0151006 0,54.6241608 L0,44.7277739 Z" id="Rectangle-path" fill="#D6B772"></path>
                    <path d="M39.3103449,44.0226277 L59.2908108,44.0226277 C59.6824851,44.0226277 60,44.3368339 60,44.7277739 L60,54.6241608 C60,55.0136021 59.6832941,55.3293067 59.2908108,55.3293067 L40.019534,55.3293067 C39.6278597,55.3293067 39.3103449,55.0151006 39.3103449,54.6241608 L39.3103449,44.0226277 Z" id="Rectangle-path" fill="#D6B772"></path>
                    <path d="M51.7241379,44.0226277 L39.3103449,44.0226277 L39.3103449,43.1294002 C39.3103449,40.4764421 37.9758621,36.9456746 35.7548276,35.4747785 C32.2706897,33.1661603 27.7303449,33.1661603 24.246207,35.4747785 C22.0241379,36.9467026 20.6896551,40.4764421 20.6896551,43.1294002 L20.6896551,44.0226277 L8.27586208,44.0226277 L8.27586208,28.4578527 C8.27586208,27.9711224 8.6748452,27.5765494 9.16344627,27.5765494 L50.8365538,27.5765494 C51.3267529,27.5765494 51.7241379,27.9708893 51.7241379,28.4578527 L51.7241379,44.0226277 Z" id="Shape" fill="#F4D99D"></path>
                    <rect id="Rectangle-path" fill="#FACE64" x="20.6896551" y="15.2419905" width="18.6206897" height="12.3345588"></rect>
                    <path d="M43.9988228,14.7267973 C44.2660931,15.0113306 44.1633868,15.2419905 43.774421,15.2419905 L30,15.2419905 L16.2255789,15.2419905 C15.8343749,15.2419905 15.7332108,15.0120717 16.0011773,14.7267973 L29.5160641,0.338985304 C29.7833345,0.0544519083 30.2159695,0.053710863 30.4839359,0.338985304 L43.9988228,14.7267973 Z" id="Shape" fill="#C03A2B"></path>
                    <path d="M0,44.7277739 C0,44.3383324 0.318090396,44.0226277 0.711041895,44.0226277 L10.3448276,44.0226277 L10.3448276,55.3293067 L0.711041895,55.3293067 C0.318344299,55.3293067 0,55.0151006 0,54.6241608 L0,44.7277739 Z" id="Rectangle-path" fill="#FACE64"></path>
                    <path d="M49.6551724,44.0226277 L59.2889581,44.0226277 C59.6816556,44.0226277 60,44.3368339 60,44.7277739 L60,54.6241608 C60,55.0136021 59.6819096,55.3293067 59.2889581,55.3293067 L49.6551724,55.3293067 L49.6551724,44.0226277 Z" id="Rectangle-path" fill="#FACE64"></path>
                    <rect id="Rectangle-path" fill="#D6B772" x="28.9655173" y="27.5765494" width="2.06896551" height="6.16727941"></rect>
                    <rect id="Rectangle-path" fill="#D6B772" x="20.6896551" y="20.3813901" width="18.6206897" height="2.05575981"></rect>
                </g>
                <g id="teddy-bear" transform="translate(26.298701, 20.324087)">
                    <g id="Layer_1">
                        <path d="M20.6349696,18.0279133 C20.6243364,18.0154802 20.6119883,18.0047458 20.6012867,17.9923129 L4.91826247,17.9923129 C4.90756074,18.0047458 4.89514401,18.0154802 4.8845795,18.0279133 C4.25043412,18.3582356 -0.577549749,20.9826752 0.109281001,23.9897504 C0.440691245,25.440669 1.75988375,25.7451063 2.54337296,25.7949741 C3.14705959,30.8560679 7.4870863,34.7839288 12.7597403,34.7839288 C18.0323941,34.7839288 22.372421,30.8560679 22.9761076,25.7949741 C23.7596654,25.7451063 25.0788579,25.440669 25.4101995,23.9897504 C26.0970304,20.9826752 21.2690464,18.3582356 20.6349696,18.0279133 Z" id="Shape" fill="#A5694B"></path>
                        <g id="Group" transform="translate(0.000000, 17.936059)" fill="#925F4A">
                            <path d="M12.7598089,5.45269777 C16.5554886,5.45269777 19.9401811,3.72091693 22.1609247,1.01461024 C21.4403425,0.521980077 20.83302,0.194986701 20.6350383,0.0917864225 C20.6244051,0.0793534725 20.612057,0.0686190131 20.6013552,0.0561860632 L4.91826247,0.0561860632 C4.90756074,0.0686190131 4.89514401,0.0793534725 4.8845795,0.0917864225 C4.68646051,0.19491876 4.07920663,0.522048016 3.35869292,1.01461024 C5.57943653,3.72105283 8.96406053,5.45269777 12.7598089,5.45269777 Z" id="Shape"></path>
                            <path d="M4.88492249,0.091514664 L4.88492249,0.091514664 L4.88464809,0.0917864225 C4.25050273,0.42210884 -0.577481148,3.0465483 0.109349602,6.05362368 C0.440759846,7.50454215 1.75995235,7.80897957 2.54344156,7.85884724 C3.1471282,12.9199411 7.48715491,16.8478021 12.7598089,16.8478021 C13.371316,16.8478021 13.9684169,16.7897137 14.5504258,16.6884157 C14.558795,16.6863096 14.5683991,16.6811462 14.5765626,16.6797195 C9.75886887,15.8287078 6.09846983,11.6680857 6.09846983,6.65223964 C6.09846983,4.13426157 7.02176739,1.83260322 8.54991778,0.0562540029 L4.91833106,0.0562540029 C4.90776655,0.0685510734 4.90118088,0.091514664 4.88492249,0.091514664 Z" id="Shape"></path>
                        </g>
                        <ellipse id="Oval" fill="#A5694B" cx="4.88725493" cy="4.19819275" rx="4.2390464" ry="4.19819275"></ellipse>
                        <ellipse id="Oval" fill="#925F4A" cx="4.88725493" cy="4.19819275" rx="3.02790009" ry="2.99871881"></ellipse>
                        <ellipse id="Oval" fill="#A5694B" cx="20.6322943" cy="4.19819275" rx="4.2390464" ry="4.19819275"></ellipse>
                        <ellipse id="Oval" fill="#925F4A" cx="20.6322943" cy="4.19819275" rx="3.02790009" ry="2.99871881"></ellipse>
                        <g id="Group" transform="translate(1.852220, 0.543517)" fill="#B97850">
                            <path d="M20.5739835,28.2675005 C20.0281273,27.726905 19.2241951,27.5283854 18.3105016,27.710056 C17.4772769,27.8752852 16.6360945,28.34468 15.941992,29.031957 C15.2478896,29.7192342 14.7739956,30.5523778 14.6071586,31.3775723 C14.424269,32.2829356 14.6241716,33.0785765 15.1700964,33.619172 C15.5837589,34.028848 16.1456677,34.2416348 16.7917496,34.2416348 C16.9974832,34.2416348 17.2123408,34.2199621 17.4330294,34.176209 C18.2667344,34.0109798 19.1079854,33.541585 19.8015391,32.8543078 C20.4956414,32.1674383 20.9695354,31.3344308 21.1363725,30.5086927 C21.3191936,29.6036689 21.119291,28.8076205 20.5739835,28.2675005 Z" id="Shape"></path>
                            <ellipse id="Oval" cx="10.9075885" cy="10.8500927" rx="10.900454" ry="10.7954013"></ellipse>
                        </g>
                        <path d="M5.70662233,11.3938814 C5.70662233,6.08290566 9.58235913,1.67756502 14.6834426,0.776549821 C14.0579409,0.666080004 13.4173471,0.598480086 12.7598089,0.598480086 C6.73968108,0.598480086 1.85935484,5.43170444 1.85935484,11.3938814 C1.85935484,17.3560584 6.73961249,22.1892826 12.7598089,22.1892826 C13.4173471,22.1892826 14.0579409,22.1217507 14.6834426,22.011213 C9.58229054,21.1101978 5.70662233,16.7048571 5.70662233,11.3938814 Z" id="Shape" fill="#A5694B"></path>
                        <ellipse id="Oval" fill="#FFE678" cx="12.7598089" cy="17.3925419" rx="4.77804252" ry="4.19819275"></ellipse>
                        <path d="M9.66516025,17.3925419 C9.66516025,15.326702 11.3648125,13.6132649 13.6014029,13.2633758 C13.3276859,13.2205739 13.0474518,13.1943492 12.7597403,13.1943492 C10.1210123,13.1943492 7.98176634,15.0739666 7.98176634,17.3925419 C7.98176634,19.7111171 10.1208751,21.5907348 12.7597403,21.5907348 C13.0474518,21.5907348 13.3276859,21.5645099 13.6014029,21.5217081 C11.3648125,21.171819 9.66516025,19.4583819 9.66516025,17.3925419 Z" id="Shape" fill="#FFC855"></path>
                        <g id="Group" transform="translate(7.271680, 10.734459)" fill="#6E4141">
                            <path d="M0.946278802,2.4598897 L0.946278802,2.4598897 C0.444601488,2.4598897 0.037936217,2.05707571 0.037936217,1.56030124 L0.037936217,0.95937533 C0.037936217,0.462532911 0.444670088,0.0597868628 0.946278802,0.0597868628 L0.946278802,0.0597868628 C1.44795612,0.0597868628 1.85462139,0.462600852 1.85462139,0.95937533 L1.85462139,1.56030124 C1.85462139,2.05707571 1.44788752,2.4598897 0.946278802,2.4598897 Z" id="Shape"></path>
                            <path d="M10.0299105,2.4598897 L10.0299105,2.4598897 C9.52823313,2.4598897 9.12156786,2.05707571 9.12156786,1.56030124 L9.12156786,0.95937533 C9.12156786,0.462532911 9.52830174,0.0597868628 10.0299105,0.0597868628 L10.0299105,0.0597868628 C10.5315878,0.0597868628 10.938253,0.462600852 10.938253,0.95937533 L10.938253,1.56030124 C10.9383216,2.05707571 10.5315878,2.4598897 10.0299105,2.4598897 Z" id="Shape"></path>
                        </g>
                        <path d="M7.72547393,29.5753382 C7.03137149,28.8879251 6.19018905,28.4185982 5.35696429,28.2533692 C4.44429985,28.07231 3.63933861,28.2697426 3.0934824,28.8108815 C2.54817501,29.3509336 2.34827242,30.1471179 2.53102482,31.0520057 C2.69786185,31.8776759 3.17182447,32.7108193 3.8658583,33.397689 C4.55941191,34.0851021 5.40059437,34.5544289 6.23436793,34.719658 C6.45560537,34.763547 6.66991411,34.7850839 6.87564778,34.7850839 C7.52172967,34.7850839 8.08363846,34.572297 8.49730101,34.1626211 C9.0431572,33.6220255 9.2430598,32.8263846 9.06023879,31.9210213 C8.89347036,31.0958268 8.41950776,30.2627513 7.72547393,29.5753382 Z" id="Shape" fill="#B97850"></path>
                        <path d="M5.50253508,33.397621 C4.80843266,32.7107515 4.33453864,31.8776759 4.16770161,31.0519378 C3.98481201,30.1470501 4.18471459,29.3509336 4.7301592,28.8108137 C4.96340176,28.5796151 5.24603686,28.4152692 5.56194334,28.3122727 C5.49347979,28.2946764 5.42535923,28.2668211 5.35703288,28.2533012 C4.44436846,28.072242 3.6394072,28.2696746 3.09355101,28.8108137 C2.54824362,29.3508656 2.34834101,30.1470501 2.53109341,31.0519378 C2.69793046,31.8776079 3.17189306,32.7107515 3.86592689,33.397621 C4.55948052,34.085034 5.40066296,34.5543608 6.23443653,34.71959 C6.45567396,34.763479 6.66998272,34.7850159 6.87571638,34.7850159 C7.15595047,34.7850159 7.41629033,34.7373902 7.65954859,34.6587161 C6.89622801,34.460944 6.13729786,34.0268777 5.50253508,33.397621 Z" id="Shape" fill="#A5694B"></path>
                        <g id="Group" transform="translate(9.672706, 14.335259)" fill="#925F4A">
                            <path d="M8.98614998,19.8258673 C8.44029378,19.2852718 8.24039118,18.4896309 8.42321219,17.5842675 C8.59004922,16.7590729 9.06401183,15.9260653 9.75804566,15.2386523 C10.3952095,14.607697 11.1566092,14.1726117 11.9217135,13.9756548 C11.4983096,13.8374656 11.0131651,13.8126676 10.4898785,13.9166832 C9.65665376,14.0819123 8.8154713,14.5513071 8.12136888,15.2385843 C7.42726644,15.9258615 6.95337243,16.759005 6.7865354,17.5841996 C6.60364578,18.4895629 6.80354838,19.2852038 7.34947319,19.8257993 C7.76313573,20.2354753 8.32504452,20.4482621 8.97112642,20.4482621 C9.17686008,20.4482621 9.39171763,20.4265894 9.61240626,20.3828363 C9.68306505,20.3688406 9.7532436,20.340306 9.82390239,20.3219624 C9.5062123,20.2191697 9.22042156,20.0578131 8.98614998,19.8258673 Z" id="Shape"></path>
                            <path d="M5.93753247,2.56648697 C5.70099707,2.33223118 5.31772466,2.33223118 5.08118925,2.56648697 C4.51790846,3.12433917 3.98741883,2.94837555 3.69257279,2.76385156 L3.69257279,0.658334887 C3.69257279,0.327129256 3.42139401,0.0585639498 3.08696533,0.0585639498 C2.75253666,0.0585639498 2.48135787,0.327129256 2.48135787,0.658334887 L2.48135787,2.76330804 C2.2010552,2.93492352 1.65986385,3.12760027 1.09274141,2.56648697 C0.856206012,2.33223118 0.472933599,2.33223118 0.236398198,2.56648697 C-0.000137201508,2.80074278 -0.000137201508,3.18032141 0.236398198,3.41457721 C0.768602849,3.94165274 1.34436898,4.1370471 1.87753404,4.1370471 C2.33139662,4.1370471 2.74807761,3.99063723 3.08696533,3.79164208 C3.42578446,3.99063723 3.84253404,4.1370471 4.29639662,4.1370471 C4.82956168,4.1370471 5.40553362,3.94178864 5.93753247,3.41457721 C6.17406786,3.18032141 6.17406786,2.80074278 5.93753247,2.56648697 Z" id="Shape"></path>
                        </g>
                        <ellipse id="Oval" fill="#784B46" cx="12.7598089" cy="14.0939377" rx="2.42229263" ry="1.4993594"></ellipse>
                        <path d="M11.5485939,14.0939377 C11.5485939,13.3960619 12.3223419,12.8147705 13.3653477,12.6475711 C13.1707274,12.6163869 12.9701388,12.5945782 12.7597403,12.5945782 C11.4219569,12.5945782 10.3374476,13.2658217 10.3374476,14.0939377 C10.3374476,14.9219857 11.4219569,15.5932971 12.7597403,15.5932971 C12.9700702,15.5932971 13.1707274,15.5714884 13.3653477,15.5403041 C12.3224104,15.3731048 11.5485939,14.7917455 11.5485939,14.0939377 Z" id="Shape" fill="#6E4141"></path>
                        <ellipse id="Oval" fill="#A0786E" cx="13.9709552" cy="13.7940522" rx="0.605607456" ry="0.599770938"></ellipse>
                    </g>
                </g>
            </g>
        </g>
    </g>
</svg>