<?xml version="1.0" encoding="UTF-8"?>
<svg width="60px" height="56px" viewBox="0 0 60 56" version="1.1" xmlns="http://www.w3.org/2000/svg" xmlns:xlink="http://www.w3.org/1999/xlink">
    <!-- Generator: sketchtool 42 (36781) - http://www.bohemiancoding.com/sketch -->
    <title>2BE591A0-52B4-4637-BE9C-2A646735E8FA</title>
    <desc>Created with sketchtool.</desc>
    <defs></defs>
    <g id="Needs-Assessment" stroke="none" stroke-width="1" fill="none" fill-rule="evenodd">
        <g id="NA---Domain-Selection" transform="translate(-907.000000, -700.000000)" fill-rule="nonzero">
            <g id="Group-5" transform="translate(907.000000, 700.000000)">
                <g id="stove" transform="translate(20.823881, 0.000000)">
                    <g id="Layer_1">
                        <g id="Group">
                            <rect id="Rectangle-path" fill="#E6E6E6" x="32.6867382" y="50.7422591" width="3.30045444" height="4.55439054"></rect>
                            <rect id="Rectangle-path" fill="#E6E6E6" x="3.39520499" y="50.7422591" width="3.30045444" height="4.55439054"></rect>
                            <path d="M32.6867382,50.7422591 L32.6867382,53.0884603 L35.9871926,53.0884603 L35.9871926,50.7422591 L32.6867382,50.7422591 Z M3.39520499,53.0884603 L6.69565943,53.0884603 L6.69565943,50.7422591 L3.39520499,50.7422591 L3.39520499,53.0884603 Z" id="Shape" fill="#CCCCCC"></path>
                            <path d="M13.0898774,4.69240237 C12.6342771,4.69240237 12.2647637,4.32156457 12.2647637,3.86433136 L12.2647637,1.65614201 L8.55175249,1.65614201 L8.55175249,3.86433136 C8.55175249,4.32156457 8.18223912,4.69240237 7.72663888,4.69240237 C7.27103865,4.69240237 6.90152527,4.32156457 6.90152527,3.86433136 L6.90152527,0.828071007 C6.90152527,0.370837799 7.27103865,0 7.72663888,0 L13.0898774,0 C13.5454776,0 13.914991,0.370837799 13.914991,0.828071007 L13.914991,3.86433136 C13.914991,4.32156457 13.5456151,4.69240237 13.0898774,4.69240237 Z" id="Shape" fill="#DD3B2A"></path>
                            <g transform="translate(0.000000, 5.382462)" id="Shape" fill="#DD3B2A">
                                <path d="M19.8575967,1.74819591 L16.591522,1.74819591 C16.1359218,1.74819591 15.7664084,1.37735811 15.7664084,0.9201249 C15.7664084,0.462891693 16.1359218,0.0920538936 16.591522,0.0920538936 L19.8575967,0.0920538936 C20.3131969,0.0920538936 20.6827103,0.462891693 20.6827103,0.9201249 C20.6827103,1.37735811 20.3133345,1.74819591 19.8575967,1.74819591 Z"></path>
                                <path d="M4.22581935,1.74819591 L0.959744648,1.74819591 C0.504144416,1.74819591 0.134631037,1.37735811 0.134631037,0.9201249 C0.134631037,0.462891693 0.504144416,0.0920538936 0.959744648,0.0920538936 L4.22581935,0.0920538936 C4.68141959,0.0920538936 5.05093297,0.462891693 5.05093297,0.9201249 C5.05093297,1.37735811 4.68155711,1.74819591 4.22581935,1.74819591 Z"></path>
                            </g>
                            <rect id="Rectangle-path" fill="#B3B3B3" x="22.8537217" y="14.4915186" width="12.2391852" height="2.02380554"></rect>
                            <rect id="Rectangle-path" fill="#B3B3B3" x="4.28866551" y="14.0312492" width="12.2391852" height="2.48421302"></rect>
                            <rect id="Rectangle-path" fill="#999999" x="4.28866551" y="14.0312492" width="3.30045444" height="2.48421302"></rect>
                            <rect id="Rectangle-path" fill="#999999" x="22.8537217" y="14.4915186" width="3.30045444" height="2.02380554"></rect>
                            <path d="M38.4621209,17.1555611 L38.4621209,50.1942141 C38.4621209,50.9034569 37.889217,51.4784143 37.1825072,51.4784143 L35.98678,51.4784143 L32.6863256,51.4784143 L6.69524687,51.4784143 L3.39479243,51.4784143 L2.19906529,51.4784143 C1.49235548,51.4784143 0.9194516,50.9034569 0.9194516,50.1942141 L0.9194516,17.1555611 C0.9194516,16.4463183 1.49235548,15.871361 2.19906529,15.871361 L4.28866551,15.871361 L16.5278507,15.871361 L22.8537217,15.871361 L35.092907,15.871361 L37.1825072,15.871361 C37.889217,15.871361 38.4621209,16.4463183 38.4621209,17.1555611 Z" id="Shape" fill="#E6E6E6"></path>
                            <polygon id="Shape" fill="#B3B3B3" points="29.798428 25.6702012 32.6863256 25.6702012 32.6863256 44.991858 6.69524687 44.991858 6.69524687 25.6702012 20.8596972 25.6702012"></polygon>
                            <path d="M20.8596972,23.1556256 L6.86714554,23.1556256 C5.6917712,23.1556256 4.73560205,22.1960293 4.73560205,21.0164422 C4.73560205,20.4446591 4.95714505,19.907379 5.35938794,19.5035564 C5.76204338,19.0997338 6.29726707,18.8772587 6.86714554,18.8772587 L7.48598075,18.8772587 C7.94158098,18.8772587 8.31109436,19.2480965 8.31109436,19.7053297 C8.31109436,20.1625629 7.94158098,20.5334007 7.48598075,20.5334007 L6.86714554,20.5334007 C6.73815278,20.5334007 6.61713612,20.583499 6.5262361,20.6745868 C6.43574864,20.7655366 6.38582927,20.886987 6.38582927,21.0164422 C6.38582927,21.282805 6.601734,21.4994836 6.86714554,21.4994836 L20.8596972,21.4994836 C21.3152974,21.4994836 21.6848108,21.8703214 21.6848108,22.3275546 C21.6848108,22.7847878 21.3154349,23.1556256 20.8596972,23.1556256 Z" id="Shape" fill="#B3B3B3"></path>
                            <path d="M32.5144269,23.1556256 L29.798428,23.1556256 C29.3428277,23.1556256 28.9733143,22.7847878 28.9733143,22.3275546 C28.9733143,21.8703214 29.3428277,21.4994836 29.798428,21.4994836 L32.5144269,21.4994836 C32.6434197,21.4994836 32.7642988,21.4493853 32.8550613,21.3584355 C32.9458238,21.2673477 32.9957432,21.1458973 32.9957432,21.0164422 C32.9957432,20.7500793 32.7798385,20.5334007 32.5144269,20.5334007 L31.8955917,20.5334007 C31.4399915,20.5334007 31.0704781,20.1625629 31.0704781,19.7053297 C31.0704781,19.2480965 31.4399915,18.8772587 31.8955917,18.8772587 L32.5144269,18.8772587 C33.6898013,18.8772587 34.6459704,19.836855 34.6459704,21.0164422 C34.6459704,21.5882252 34.4244274,22.1255053 34.0219095,22.5293279 C33.6198041,22.9331505 33.0843054,23.1556256 32.5144269,23.1556256 Z" id="Shape" fill="#B3B3B3"></path>
                            <rect id="Rectangle-path" fill="#999999" x="10.5457771" y="29.5621349" width="10.3139201" height="1.65614201"></rect>
                            <rect id="Rectangle-path" fill="#999999" x="10.5457771" y="34.5029586" width="18.2900184" height="1.65614201"></rect>
                            <rect id="Rectangle-path" fill="#999999" x="10.5457771" y="39.4437823" width="18.2900184" height="1.65614201"></rect>
                            <rect id="Rectangle-path" fill="#F7B239" x="20.8601097" y="20.839649" width="8.93873078" height="11.7282457"></rect>
                            <rect id="Rectangle-path" fill="#E5A030" x="20.8601097" y="20.839649" width="8.93873078" height="1.60783787"></rect>
                            <path d="M17.731554,3.03653638 L17.731554,13.1635688 C17.731554,13.8969637 17.1391224,14.4915186 16.4083468,14.4915186 L4.40899458,14.4915186 C3.67821896,14.4915186 3.08578738,13.8969637 3.08578738,13.1635688 L3.08578738,3.03653638 L17.731554,3.03653638 Z" id="Shape" fill="#F24125"></path>
                            <path d="M6.93631756,3.03653638 L6.93631756,14.4915186 L4.40899458,14.4915186 C3.67821896,14.4915186 3.08578738,13.8969637 3.08578738,13.1635688 L3.08578738,3.03653638 L6.93631756,3.03653638 Z" id="Shape" fill="#DD3B2A"></path>
                        </g>
                    </g>
                </g>
                <g id="Group-2" transform="translate(0.000000, 8.254511)">
                    <g id="shirt">
                        <g id="Layer_1">
                            <g id="Group" transform="translate(7.502180, 4.483932)" fill="#BCDCF4">
                                <polygon id="Shape" points="26.4145091 23.1239692 29.1594735 34.4296224 35.1768887 32.6585523 27.6248609 2.91057005 23.909948 2.91057005 23.909948 23.1252147"></polygon>
                                <polygon id="Shape" points="21.6456233 0.032383953 27.6236105 2.91181559 27.2925143 8.44158314 27.0343559 12.7538801 25.7037193 34.9747522 1.96973905 34.9747522 0.639185741 12.7538801 0.380944032 8.44166618 0.0498478186 2.91181559 6.02750153 0.0326330603"></polygon>
                            </g>
                            <rect id="Rectangle-path" fill="#52A2E7" x="19.3587921" y="8.2339937" width="3.78626692" height="31.2253548"></rect>
                            <g id="Group" transform="translate(20.589316, 10.960723)" fill="#BCDCF4">
                                <ellipse id="Oval" cx="0.598007109" cy="0.559827207" rx="0.538406456" ry="0.536328083"></ellipse>
                                <ellipse id="Oval" cx="0.598007109" cy="3.24088637" rx="0.538406456" ry="0.536328083"></ellipse>
                                <ellipse id="Oval" cx="0.598007109" cy="5.92285893" rx="0.538406456" ry="0.536328083"></ellipse>
                                <ellipse id="Oval" cx="0.598007109" cy="8.60400112" rx="0.538406456" ry="0.536328083"></ellipse>
                                <ellipse id="Oval" cx="0.598007109" cy="11.2851433" rx="0.538406456" ry="0.536328083"></ellipse>
                                <ellipse id="Oval" cx="0.598007109" cy="13.9671159" rx="0.538406456" ry="0.536328083"></ellipse>
                                <ellipse id="Oval" cx="0.598007109" cy="16.648175" rx="0.538406456" ry="0.536328083"></ellipse>
                                <ellipse id="Oval" cx="0.598007109" cy="19.3301476" rx="0.538406456" ry="0.536328083"></ellipse>
                                <ellipse id="Oval" cx="0.598007109" cy="22.0112898" rx="0.538406456" ry="0.536328083"></ellipse>
                                <ellipse id="Oval" cx="0.598007109" cy="24.692349" rx="0.538406456" ry="0.536328083"></ellipse>
                            </g>
                            <path d="M29.1619742,20.7513049 C27.3346932,20.7513049 26.5223738,18.8409838 26.5223738,18.8409838 L26.5491316,15.749894 L31.8024081,15.749894 L31.8014912,18.8409838 C31.8014912,18.8409838 30.8205395,20.7513049 29.1619742,20.7513049 Z" id="Shape" fill="#8EC1ED"></path>
                            <polygon id="Shape" fill="#BCDCF4" points="8.76229624 27.6091467 6.01733191 38.9147998 0 37.1438128 7.55202788 7.39574754 11.804597 7.39574754 11.804597 27.6091467"></polygon>
                            <path d="M26.5044519,2.99045047 L17.614702,11.845967 L14.9398414,5.90151873 C14.1563637,5.90151873 13.5153441,5.26297361 13.5153441,4.48252034 L13.5153441,1.48459665 C13.5153441,0.704143388 14.1563637,0.0655982637 14.9398414,0.0655982637 L27.7378937,0.0655982637 C28.5213714,0.0655982637 29.162391,0.704143388 29.162391,1.48459665 L29.162391,4.48252034 C29.162391,5.26297361 28.5213714,5.90151873 27.7378937,5.90151873 L24.8673929,11.845967 L15.9775596,2.99045047" id="Shape" fill="#8EC1ED"></path>
                            <g id="Group" transform="translate(6.418532, 3.736610)" fill="#52A2E7">
                                <polygon id="Shape" points="19.304443 0.032383953 10.3405882 0.032383953 14.8224739 4.4970516"></polygon>
                                <polygon id="Shape" opacity="0.19" points="1.35347664 27.814162 2.26599181 24.0557137 1.05555673 3.84239754 0.000916933119 7.99684352"></polygon>
                                <polygon id="Shape" opacity="0.19" points="28.4871948 27.814162 27.574763 24.0557137 28.7851147 3.84239754 29.8397545 7.99684352"></polygon>
                            </g>
                        </g>
                    </g>
                </g>
            </g>
        </g>
    </g>
</svg>