<svg width="300" height="268" viewBox="0 0 300 268" xmlns="http://www.w3.org/2000/svg" xmlns:xlink="http://www.w3.org/1999/xlink"><title>C12D25CF-FE53-43FD-B81C-9D503986C113</title><defs><path d="M32.87 269.001c-29.283 0-41.262-20.748-26.621-46.107l117.13-202.875c14.641-25.36 38.6-25.36 53.24 0L293.75 222.894c14.641 25.36 2.662 46.107-26.62 46.107H32.87z" id="a"/><mask id="b" x="0" y="0" width="299.999" height="268.003" fill="#fff"><use xlink:href="#a"/></mask></defs><g transform="translate(0 -1)" fill-rule="nonzero" fill="none"><use stroke="#EBC93D" mask="url(#b)" stroke-width="18" fill="#FFDA44" xlink:href="#a"/><path fill="#FFDA44" d="M171.429 172.573H150V86.859h32.143z"/><path d="M150.143 231.861h-12.566a4.001 4.001 0 0 1-4.006-3.996v-24.867a3.999 3.999 0 0 1 4.006-3.997h25.132a3.999 3.999 0 0 1 4.005 3.997v24.867a4.001 4.001 0 0 1-4.005 3.996h-12.566zM150.286 177.573h-12.71c-2.211 0-4.226-1.77-4.5-3.962l-9.724-77.79c-.273-2.188 1.302-3.962 3.511-3.962h46.845c2.21 0 3.785 1.774 3.511 3.962l-9.724 77.79c-.274 2.191-2.288 3.962-4.5 3.962h-12.71z" fill="#FFF"/></g></svg>