<?xml version="1.0" encoding="UTF-8"?>
<svg width="46px" height="55px" viewBox="0 0 46 55" version="1.1" xmlns="http://www.w3.org/2000/svg" xmlns:xlink="http://www.w3.org/1999/xlink">
    <!-- Generator: sketchtool 42 (36781) - http://www.bohemiancoding.com/sketch -->
    <title>C2F1910F-4CF0-489F-80AD-024E4F745A47</title>
    <desc>Created with sketchtool.</desc>
    <defs></defs>
    <g id="Needs-Assessment" stroke="none" stroke-width="1" fill="none" fill-rule="evenodd">
        <g id="NA---Domain-Selection" transform="translate(-154.000000, -701.000000)" fill-rule="nonzero">
            <g id="library" transform="translate(154.000000, 701.000000)">
                <g id="Layer_1">
                    <path d="M30.0902448,8.99680378 C27.7340458,8.31187845 25.5989105,8.67420628 23.8777495,9.77608862 C23.8759365,9.77608862 23.872844,9.77703961 23.872844,9.77788493 C23.8328542,9.80261071 23.7901984,9.83040081 23.7503153,9.85692291 C23.542155,9.98192548 23.2958179,10.0526159 23.0343378,10.0526159 C22.7718981,10.0526159 22.5265208,9.98171415 22.317614,9.85692291 C22.2777309,9.83040081 22.2364614,9.80261071 22.1962584,9.77788493 C22.1929525,9.77693395 22.1929525,9.77608862 22.1911397,9.77608862 C20.4699787,8.67441761 18.3340967,8.31198413 15.9794973,8.99680378 C10.6655462,10.5432219 9.20223942,15.978562 11.5136499,21.1383256 C14.271453,27.2991667 19.0753477,29.5956002 21.8456278,28.7869403 C22.1204377,28.7072683 22.3903422,28.5921983 22.6602467,28.4416247 C22.6695243,28.435179 22.6821078,28.4277824 22.694478,28.4222878 C22.7965319,28.3691379 22.9108494,28.3406082 23.0342312,28.3406082 C23.1565467,28.3406082 23.2711842,28.3691379 23.3731315,28.4222878 C23.386568,28.4276768 23.3991516,28.4350733 23.4091756,28.4416247 C23.6772673,28.5921983 23.9480249,28.7072683 24.223048,28.7869403 C26.9942878,29.5956002 31.7972228,27.2991667 34.5541728,21.1383256 C36.8654766,15.9784562 35.4021699,10.5432219 30.0902448,8.99680378 Z" id="Shape" fill="#F15540"></path>
                    <g id="Group" transform="translate(16.209199, 0.000000)" fill="#39C4AD">
                        <path d="M6.08335497,8.49288386 C5.99068527,8.41511387 5.88628524,8.32603766 5.77036813,8.23104415 C5.71427577,8.18360024 5.65498424,8.13488834 5.59654582,8.08078749 C5.53810739,8.0264753 5.47700297,7.96952145 5.41525872,7.91214495 C5.35212816,7.8537118 5.28771792,7.79401067 5.2241608,7.73430952 C5.1587908,7.67228372 5.09800631,7.6057143 5.0317832,7.53956755 C4.90530878,7.40537206 4.76838372,7.27265589 4.64414874,7.12282187 C4.52098016,6.9753125 4.38405509,6.83298075 4.26867119,6.67490481 C4.15179433,6.51968183 4.02329377,6.37174979 3.91590783,6.20944721 C3.86162834,6.13040924 3.8069223,6.05179393 3.75306936,5.97370695 C3.69878988,5.89657096 3.64515022,5.82112563 3.60142804,5.74398964 C3.50459941,5.58929499 3.41363595,5.44537825 3.32640487,5.29924253 C3.2481315,5.15226149 3.17209755,5.01489603 3.10160887,4.88630082 C3.06919047,4.82247871 3.03666543,4.76098125 3.00456696,4.70402742 C2.97438798,4.64654526 2.95028746,4.58821777 2.92576039,4.5353849 C2.87649295,4.4292965 2.83255749,4.33557098 2.79725984,4.26023131 C2.7271977,4.10817831 2.68784774,4.01952476 2.68784774,4.01952476 C2.68784774,4.01952476 2.7393546,4.10215536 2.82871847,4.24364178 C2.87372033,4.31486049 2.92789318,4.40161207 2.98910423,4.50093787 C3.02109607,4.54964977 3.05084849,4.60480728 3.09030509,4.65806283 C3.1286953,4.7108957 3.1681519,4.76647588 3.20952801,4.82522602 C3.29611926,4.94008468 3.38335034,5.06635524 3.48156528,5.19928274 C3.57807401,5.32375699 3.6939911,5.46080545 3.80574926,5.6003899 C3.86141506,5.67340492 3.9231593,5.73775535 3.9839438,5.80612109 C4.04654117,5.87279618 4.10732567,5.94084492 4.16885663,6.00973898 C4.28957252,6.14932341 4.43225611,6.27791863 4.56576874,6.41295944 C4.69554896,6.54800026 4.84441766,6.66793087 4.97931657,6.79240511 C5.11602838,6.91973233 5.26127132,7.0286737 5.39702337,7.1397284 C5.46857844,7.19404059 5.53512147,7.25099442 5.60198442,7.29970633 C5.67119343,7.34841823 5.73922941,7.39713013 5.8056658,7.44541938 C5.86922292,7.49180665 5.93416635,7.53724292 5.99441766,7.5814112 C6.05701502,7.62505114 6.12195846,7.66224548 6.17954377,7.70165881 C6.29599407,7.77668149 6.4044464,7.84536422 6.50127503,7.90707301 C6.59863687,7.96318151 6.68394844,8.0100971 6.75347737,8.05130674 C6.67520401,6.44233452 6.17495826,4.83251696 5.206352,3.39504023 C4.14571588,1.8203037 2.68070289,0.673513428 1.03653561,0 C-0.2556148,1.79631758 -0.368332715,4.2685789 0.940666728,6.21219452 C2.14089392,7.99984752 4.21919047,8.857959 6.23467638,8.60615753 C6.18764837,8.57044251 6.13752782,8.53282551 6.08335497,8.49288386 Z" id="Shape"></path>
                        <path d="M10.8407548,5.20752467 C9.92909404,5.15617112 9.00420994,5.47591565 8.30966711,6.16401095 C7.61427114,6.85305724 7.29136684,7.77150386 7.3434069,8.67336094 C8.25485442,8.72534849 9.17941859,8.40613229 9.87428135,7.717403 C10.5719167,7.02877936 10.8933281,6.10980443 10.8407548,5.20752467 Z" id="Shape"></path>
                    </g>
                    <path d="M6.51695104,45.160692 C5.78444455,44.4330777 5.38145401,43.4680325 5.38145401,42.4390596 C5.38145401,41.4118828 5.78444455,40.4459923 6.51695104,39.7192234 C7.25095049,38.9924544 8.22648832,38.5937776 9.26259736,38.5937776 L41.4675033,38.5937776 C41.769165,38.5937776 42.0137102,38.3526038 42.0137102,38.0532634 L42.0137102,37.8193874 C42.0137102,37.5208697 41.7689184,37.2788731 41.4675033,37.2788731 L9.26259736,37.2788731 C7.93141691,37.2788731 6.59703727,37.7823703 5.58118973,38.7913726 C4.56395586,39.7974161 4.05443249,41.1186605 4.05443249,42.4391652 C4.05443249,43.760304 4.56406249,45.0799634 5.58118973,46.0906562 C6.59714392,47.0976507 7.93152355,47.600197 9.26259736,47.600197 L41.4675033,47.600197 C41.769165,47.600197 42.0137102,47.3591977 42.0137102,47.0581758 L42.0137102,46.8282647 C42.0137102,46.5289146 41.7689184,46.2862435 41.4675033,46.2862435 L9.26259736,46.2862435 C8.22627504,46.2861379 7.25084384,45.88651 6.51695104,45.160692 Z" id="Shape" fill="#80DCFF"></path>
                    <path d="M9.26259736,46.2861379 C8.22627503,46.2861379 7.25084384,45.88651 6.51695104,45.160692 C5.78444454,44.4330777 5.38145401,43.4680325 5.38145401,42.4390596 C5.38145401,41.4118828 5.78444454,40.4459923 6.51695104,39.7192234 C7.25095048,38.9924544 8.22648831,38.5937776 9.26259736,38.5937776 L40.6871152,38.5937776 L40.6871152,46.2862435 L9.26259736,46.2862435 L9.26259736,46.2861379 L9.26259736,46.2861379 Z" id="Shape" fill="#E6EAEE"></path>
                    <rect id="Rectangle-path" fill="#F15540" x="0.0714484421" y="47.6003026" width="45.9253524" height="6.50055633" rx="3.25027817"></rect>
                    <g id="Group" transform="translate(5.225334, 47.549583)" fill="#E6EAEE">
                        <rect id="Rectangle-path" x="2.71951966" y="0.0507195553" width="3.93734236" height="6.50055633"></rect>
                        <rect id="Rectangle-path" x="0.0961887982" y="0.0507195553" width="1.30985256" height="6.50055633"></rect>
                        <rect id="Rectangle-path" x="28.960293" y="0.0507195553" width="3.93766228" height="6.50055633"></rect>
                        <rect id="Rectangle-path" x="34.2112203" y="0.0507195553" width="1.31070568" height="6.50055633"></rect>
                    </g>
                    <path d="M43.5453727,29.4686957 C43.1864243,29.1130247 42.7152911,28.9366686 42.2457576,28.9366686 L2.52942964,28.9366686 C2.22774106,28.9366686 1.98317414,29.1801538 1.98317414,29.4766495 L1.98317414,29.4579945 C1.98317414,29.7562177 2.22727188,29.9979753 2.52943109,29.9979753 L42.2458642,29.9979753 C42.4493323,29.9979753 42.6427763,30.0770133 42.786633,30.2202961 C42.9308096,30.3636844 43.011429,30.5538828 43.011429,30.7569724 L43.011429,35.4585694 C43.011429,35.661659 42.9308096,35.8518573 42.786633,35.9959854 C42.642883,36.1384228 42.4494389,36.2167211 42.2459708,36.2167211 L2.52943253,36.2167211 C2.22774235,36.2167211 1.98317414,36.4577399 1.98317414,36.757132 L1.98317414,36.7384622 C1.98317414,37.0369229 2.22727188,37.2788731 2.52943109,37.2788731 L42.2458642,37.2788731 C42.7153978,37.2788731 43.1866375,37.1007208 43.5454794,36.7460008 C43.9034681,36.39033 44.084222,35.924344 44.084222,35.4585694 L44.084222,30.7569724 C44.0840087,30.2901411 43.9033615,29.8252118 43.5453727,29.4686957 Z" id="Shape" fill="#34495E"></path>
                    <path d="M3.05639374,36.2167211 L3.05639374,29.9979753 L42.2456509,29.9979753 C42.449119,29.9979753 42.6425631,30.0770133 42.7863131,30.2202961 C42.9304896,30.3636844 43.0111091,30.5538828 43.0111091,30.7569722 L43.0111091,35.4585694 C43.0111091,35.661659 42.9304896,35.8518573 42.7863131,35.9959854 C42.6425631,36.1384228 42.449119,36.2167211 42.2456509,36.2167211 L3.05639374,36.2167211 Z" id="Shape" fill="#E6EAEE"></path>
                    <g id="Group" transform="translate(23.034125, 29.903404)" fill="#AAB5BD">
                        <path d="M0.000213278932,0.476620948 L19.8550955,0.476620948 C19.825663,0.427143883 19.791645,0.380556833 19.7525084,0.337900205 C19.608545,0.181030165 19.4153143,0.0946765032 19.2118462,0.0946765032 L0.000213278932,0.0946765032 L0.000213278932,0.476620948 Z" id="Shape"></path>
                        <path d="M0.000213278932,5.69386686 L19.9687732,5.69386686 C19.9737852,5.6555686 19.9771976,5.61692427 19.9771976,5.57747243 L19.9771976,5.31192242 L0.000213278932,5.31192242 L0.000213278932,5.69386686 Z" id="Shape"></path>
                        <rect id="Rectangle-path" x="0.000213278932" y="2.05097202" width="19.9767711" height="0.381944444"></rect>
                        <rect id="Rectangle-path" x="0.000213278932" y="2.70292963" width="19.9767711" height="0.381944444"></rect>
                        <path d="M0.000213278932,1.12889556 L19.9771976,1.12889556 L19.9771976,0.863707742 C19.9771976,0.824172331 19.9737852,0.785330523 19.9687732,0.746951117 L0.000213278932,0.746951117 L0.000213278932,1.12889556 Z" id="Shape"></path>
                        <rect id="Rectangle-path" x="0.000213278932" y="4.65985914" width="19.9767711" height="0.381944444"></rect>
                        <rect id="Rectangle-path" x="0.000213278932" y="3.35594391" width="19.9767711" height="0.381944444"></rect>
                        <rect id="Rectangle-path" x="0.000213278932" y="4.00895818" width="19.9767711" height="0.381944444"></rect>
                        <path d="M0.000213278932,6.34698681 L19.2117396,6.34698681 C19.4152077,6.34698681 19.6086516,6.26111884 19.7525084,6.10491097 C19.7917517,6.06191905 19.8257696,6.01487128 19.8552022,5.96504236 L0.000213278932,5.96504236 L0.000213278932,6.34698681 Z" id="Shape"></path>
                        <rect id="Rectangle-path" x="0.000213278932" y="1.3990144" width="19.9767711" height="0.381944444"></rect>
                    </g>
                    <g id="Group" transform="translate(23.034125, 30.326067)" fill="#E6EAEE">
                        <path d="M0.000213278932,0.402971927 L19.9687732,0.402971927 C19.9533104,0.266116267 19.914707,0.136449522 19.8550955,0.0210274823 L0.000213278932,0.0210274823 L0.000213278932,0.402971927 Z" id="Shape"></path>
                        <rect id="Rectangle-path" x="0.000213278932" y="0.673090765" width="19.9767711" height="0.381944444"></rect>
                        <rect id="Rectangle-path" x="0.000213278932" y="1.32504838" width="19.9767711" height="0.381944444"></rect>
                        <rect id="Rectangle-path" x="0.000213278932" y="1.97806266" width="19.9767711" height="0.381944444"></rect>
                        <rect id="Rectangle-path" x="0.000213278932" y="2.63002027" width="19.9767711" height="0.381944444"></rect>
                        <rect id="Rectangle-path" x="0.000213278932" y="3.28092123" width="19.9767711" height="0.381944444"></rect>
                        <rect id="Rectangle-path" x="0.000213278932" y="3.93393551" width="19.9767711" height="0.381944444"></rect>
                        <rect id="Rectangle-path" x="0.000213278932" y="4.58694978" width="19.9767711" height="0.381944444"></rect>
                        <path d="M0.000213278932,5.62106317 L19.8552021,5.62106317 C19.9148136,5.50545547 19.9533104,5.37601208 19.9687732,5.23911873 L0.000213278932,5.23911873 L0.000213278932,5.62106317 Z" id="Shape"></path>
                    </g>
                    <path d="M38.4521652,34.5635806 L35.8654117,34.5635806 L35.8654117,39.8020466 C35.8654117,40.1009061 36.0385787,40.1715231 36.2518906,39.9600718 L37.1593751,39.0605031 L38.0660367,39.9600718 C38.2792896,40.1716563 38.4521652,40.1021957 38.4521652,39.8020466 L38.4521652,34.5635806 Z" id="Shape" fill="#F15540"></path>
                </g>
            </g>
        </g>
    </g>
</svg>