<?xml version="1.0" encoding="UTF-8"?>
<svg width="54px" height="60px" viewBox="0 0 54 60" version="1.1" xmlns="http://www.w3.org/2000/svg" xmlns:xlink="http://www.w3.org/1999/xlink">
    <!-- Generator: sketchtool 42 (36781) - http://www.bohemiancoding.com/sketch -->
    <title>54F19602-6EEB-438F-82C7-A7CA48BDEA62</title>
    <desc>Created with sketchtool.</desc>
    <defs></defs>
    <g id="Needs-Assessment" stroke="none" stroke-width="1" fill="none" fill-rule="evenodd">
        <g id="NA---Domain-Selection" transform="translate(-910.000000, -374.000000)">
            <g id="groceries" transform="translate(910.000000, 374.000000)">
                <g id="Capa_1">
                    <g id="Group">
                        <g id="salad" transform="translate(5.905421, 0.000000)" fill-rule="nonzero">
                            <g id="Capa_1" transform="translate(17.633569, 19.257115) rotate(-11.000000) translate(-17.633569, -19.257115) translate(2.966902, 2.590448)">
                                <g id="Group" transform="translate(-0.000000, -0.000000)">
                                    <path d="M22.8934464,16.2369535 C23.8045787,16.4552876 24.8003035,16.4505412 25.8624099,15.997854 C27.6881991,15.2200388 28.9864598,13.4514142 29.0269937,11.4502163 C29.0728147,9.20873232 27.6647012,7.2971226 25.6920499,6.59821626 C25.5534121,4.56320033 23.8791846,2.95535975 21.8295776,2.95535975 C21.8237031,2.95535975 21.8178286,2.95595305 21.8119541,2.95595305 C21.8483759,2.64803082 21.8278152,2.32230961 21.7291239,1.98234922 C21.4518483,1.02713767 20.6206091,0.294413271 19.6419202,0.176940048 C18.8394659,0.0808255934 18.1028058,0.370948856 17.5864388,0.886525777 C17.0965069,0.439771552 16.4526636,0.159734374 15.738914,0.159734374 C14.2097861,0.159734374 12.9702703,1.41159548 12.9702703,2.95595305 C12.9702703,2.96069945 12.9714452,2.96544584 12.9714452,2.97019223 C11.1127589,3.11258402 9.64766288,4.67770706 9.64766288,6.59109667 C9.64766288,6.88359313 9.68525957,7.1665968 9.74987888,7.43892109 C7.53754871,7.53206905 5.77109177,9.36714318 5.77109177,11.624053 C5.77109177,12.3888155 5.97669866,13.1031476 6.33092997,13.720772 C5.65125232,14.2849995 5.2177155,15.1405368 5.2177155,16.0981215 C5.2177155,17.4371976 6.06657825,18.5733654 7.24969906,18.9957943 C7.09696251,24.4642322 9.02907986,27.6905927 12.7670132,32.0365087 C12.8339823,32.1142308 12.9015388,32.1925463 12.9696828,32.2702685 C12.984369,32.2868809 12.9990552,32.3034933 13.0137414,32.3201056 C14.5681296,34.0816107 18.0740208,32.7324485 17.3197372,30.4992707 C13.2927794,18.5680257 25.7055612,20.2927462 25.7055612,20.2927462 C25.7055612,20.2927462 26.06038,16.6837077 22.8581995,16.5146175 C22.8623116,16.424436 22.8664238,16.3336613 22.8705359,16.2434798 C22.8787602,16.2416999 22.8852221,16.2387334 22.8934464,16.2369535 Z" id="Shape" fill="#88C057"></path>
                                    <path d="M13.0143289,32.3201056 C12.9996427,32.3034933 12.9849565,32.2868809 12.9702703,32.2702685 C12.9021263,32.1925463 12.8345697,32.1148241 12.7676006,32.0365087 C9.02907986,27.6905927 7.09696251,24.4642322 7.25028651,18.9957943 C6.0671657,18.5733654 5.21830295,17.4371976 5.21830295,16.0981215 C5.21830295,15.1399435 5.65183977,14.2849995 6.33151742,13.720772 C5.97787356,13.1031476 5.77167922,12.3888155 5.77167922,11.624053 C5.77167922,9.36714318 7.53813616,7.53147575 9.75046633,7.43892109 C9.68584702,7.1665968 9.64825033,6.88359313 9.64825033,6.59109667 C9.64825033,5.07106436 10.5740688,3.77411252 11.8858408,3.23183714 C11.7988984,2.94408707 11.6884582,2.65396381 11.5433584,2.36384055 C10.8196222,0.915597433 9.54603433,0.00606990622 8.38347421,0.197112218 C7.42534609,0.354336481 6.75506762,1.14401759 6.46663052,2.20602299 C5.66300129,1.65959451 4.77125482,1.44719343 3.96586325,1.7337569 C2.23935279,2.34782147 1.69478825,4.85510349 2.68346368,7.17727618 C2.68640092,7.18439577 2.69051306,7.19032876 2.6934503,7.19744835 C0.821840125,8.10044959 0.324271443,10.785128 1.51091694,13.206975 C1.68421418,13.5599879 1.88570894,13.8845226 2.10541459,14.1841386 C0.0381841373,15.0473888 -0.507555302,17.6685842 0.794230056,19.9593121 C1.21014343,20.6914432 1.76586949,21.2942351 2.38386507,21.7492955 C2.09131583,22.4559147 2.15476024,23.3250979 2.62001927,24.1272383 C3.24447678,25.2046695 4.41643607,25.8442459 5.51378943,25.836533 C7.44238209,29.6615323 9.80862371,31.1453734 13.3914707,32.6808315 C13.4290674,32.6968506 13.4666641,32.7128696 13.5042608,32.7282954 C13.3280263,32.6155686 13.1606035,32.4862294 13.0143289,32.3201056 Z" id="Shape" fill="#659C35"></path>
                                    <path d="M14.4189177,14.6475052 C14.4529897,14.5715629 14.4688508,14.4920608 14.4700257,14.4137454 C14.8912261,13.3434338 15.398194,12.4451789 15.9257225,11.6958422 C18.5598405,11.1428874 20.547178,11.9740994 20.5912366,11.993085 C20.6681924,12.0274964 20.7480853,12.0429221 20.8256285,12.0429221 C21.0517961,12.0429221 21.2673896,11.9100231 21.3643186,11.6881293 C21.4947321,11.3879199 21.3590315,11.0378735 21.0623701,10.9061611 C20.9807148,10.8705631 19.3599451,10.1716568 17.0295378,10.3431202 C18.1680125,9.14406271 19.167262,8.60000744 19.3164739,8.52406515 C20.1700362,8.11112897 21.4171889,8.64509817 21.8266403,8.8859776 C21.9200446,8.94174772 22.0222606,8.96785288 22.1238892,8.96785288 C22.3247965,8.96785288 22.5210042,8.86343224 22.6302696,8.67594972 C22.7947551,8.39353935 22.7025257,8.0304403 22.4223129,7.86372325 C22.3553438,7.82337891 21.0347601,7.05268337 19.6818667,7.20753444 C19.797594,6.72636886 20.0543089,6.28851412 20.1853099,6.11289759 C20.3821051,5.85303258 20.3327594,5.48103404 20.0748696,5.28227884 C19.8181547,5.08352364 19.4486498,5.13217417 19.2518546,5.39322578 C19.2148453,5.441283 18.4441132,6.47362344 18.4458756,7.66200155 C17.5911383,8.19063105 15.3829203,9.79313193 13.8379314,13.0135595 C13.7545137,13.1868028 13.6740333,13.3730987 13.5941403,13.5599879 C11.9915815,12.4534851 12.2553457,10.4849187 12.2700319,10.3893975 C12.319965,10.0666428 12.1020217,9.76346698 11.7818624,9.71184996 C11.4622906,9.66023294 11.1603422,9.8809402 11.1092342,10.2042882 C10.9388742,11.2811261 11.1832526,13.5000647 13.1623659,14.6920026 C12.7253043,15.9901411 12.3939835,17.5398383 12.2917675,19.3689795 C12.2800186,19.4265295 12.2776688,19.4822996 12.2823684,19.5392563 C12.2212737,20.8213757 12.2800186,22.2435136 12.4844506,23.8009238 C11.7395662,23.386801 11.3988462,22.7810426 11.3771106,22.740105 C11.2237866,22.4523549 10.8701427,22.3425946 10.5846429,22.4944792 C10.2979681,22.646957 10.1869404,23.005903 10.338502,23.2960263 C10.3696368,23.3559495 11.0728124,24.6689204 12.6982817,25.1761911 C13.1218319,27.5232824 13.876703,30.158717 15.0974204,33.116313 C15.4998225,33.0896146 15.8916505,32.9822274 16.238245,32.8077975 C16.2364826,32.8030511 16.2370701,32.7977114 16.2353077,32.7923717 C14.9540831,29.7137427 14.1810012,27.0017725 13.7697874,24.6054374 C13.7674376,24.5911982 13.7662627,24.5775523 13.7633254,24.5639064 C13.4578523,22.7662102 13.3585736,21.1506567 13.4161435,19.7036002 C14.2385711,18.2873952 16.6559207,18.2304385 16.6805935,18.2298452 C17.004865,18.2245055 17.2639297,17.955741 17.2592301,17.6282399 C17.2545305,17.303112 16.993116,17.043247 16.6723693,17.043247 L16.6653199,17.043247 C16.5695658,17.0444336 14.8947508,17.0812181 13.5659428,17.9225163 C13.7280785,16.747784 13.9977173,15.7071374 14.3319754,14.7827774 C14.3666348,14.7418398 14.3965947,14.6973423 14.4189177,14.6475052 Z" id="Shape" fill="#659C35"></path>
                                </g>
                            </g>
                        </g>
                        <g id="milk" transform="translate(36.728090, 21.826736) rotate(6.000000) translate(-36.728090, -21.826736) translate(26.728090, 4.493403)" fill-rule="nonzero">
                            <g id="Capa_1" transform="translate(-0.000000, -0.000000)">
                                <g id="Group" transform="translate(0.000000, 0.000000)">
                                    <polygon id="Shape" fill="#C6C6C6" points="8.29890602 34.0993789 -3.83693077e-13 30.5099706 -3.83693077e-13 10.7682249 8.29890602 13.7593985"></polygon>
                                    <polygon id="Shape" fill="#E6E6E6" points="19.561707 31.1082053 8.29890602 34.0993789 8.29890602 13.7593985 19.561707 10.7682249"></polygon>
                                    <polygon id="Shape" fill="#E2E2E2" points="15.412254 2.39293887 4.14945301 4.78587774 4.14945301 2.39293887 15.412254 -3.98199991e-14"></polygon>
                                    <polygon id="Shape" fill="#D1D1D1" points="8.29890602 13.7593985 6.53699317e-13 10.7682249 4.14945301 4.78587774 4.14945301 4.78587774"></polygon>
                                    <polygon id="Shape" fill="#EAEAEA" points="19.561707 10.7682249 8.29890602 13.7593985 4.14945301 4.78587774 15.412254 2.39293887"></polygon>
                                    <polygon id="Shape" fill="#3DABEF" points="19.561707 22.1346845 8.29890602 31.1082053 8.29890602 22.1346845 19.561707 12.5629291"></polygon>
                                    <polygon id="Shape" fill="#2B9DD6" points="-1.98951966e-13 27.518797 8.29890602 31.1082053 8.29890602 22.1346845 -1.98951966e-13 18.5452762"></polygon>
                                    <polygon id="Shape" fill="#EDEDED" points="13.041138 2.8966525 14.226696 2.64479568 14.226696 0.251856816 13.041138 0.503713632"></polygon>
                                    <polygon id="Shape" fill="#EDEDED" points="10.670022 3.40036613 11.85558 3.14850932 11.85558 0.755570448 10.670022 1.00742726"></polygon>
                                    <polygon id="Shape" fill="#EDEDED" points="8.29890602 3.90407976 9.48446402 3.65222295 9.48446402 1.25928408 8.29890602 1.5111409"></polygon>
                                    <polygon id="Shape" fill="#EDEDED" points="5.92779001 4.4077934 7.11334801 4.15593658 7.11334801 1.76299771 5.92779001 2.01485453"></polygon>
                                </g>
                            </g>
                        </g>
                        <g id="bread" fill-rule="nonzero">
                            <path d="M21.8261371,45.7898922 C21.7797489,46.0652337 21.7842822,46.3454444 21.852216,46.6166597 C23.1578986,51.8630166 23.086501,58.1199828 20.2177584,58.8961201 C17.2736359,59.6926514 11.9737148,56.1002968 10.5607221,50.7757584 L0.461733971,12.7200419 C-0.951258741,7.39550351 1.6901372,0.967642223 4.63386553,0.171800293 C7.56291205,-0.620652163 11.0332406,4.75618126 12.3412851,10.752981 C12.3544241,10.8111909 12.3750238,10.8627208 12.4073633,10.9128226 C12.6492025,11.2826593 13.7529683,13.004207 14.0347688,14.0682817 C14.5408723,15.9754168 14.285285,17.8806083 13.4763684,19.3860302 C14.9223869,20.2813803 16.0871717,21.8022906 16.5932753,23.7094257 C17.0993789,25.6165607 16.8437915,27.5217522 16.0348749,29.0271742 C17.4808934,29.9225243 18.6456782,31.4434346 19.1517818,33.3505696 C19.6578854,35.2577047 19.402298,37.1628962 18.5933814,38.6683181 C20.0393999,39.5636682 21.2041847,41.0845785 21.7102883,42.9917136 C21.9864235,44.0322656 21.9823504,44.8671907 21.8261371,45.7898922 Z" id="Shape" fill="#D99F4C"></path>
                            <path d="M9.88589855,10.0884638 C9.8456946,10.1322418 9.80233739,10.1664682 9.74952043,10.193531 C9.62181375,10.258004 9.33644451,10.4060532 8.99195181,10.5962884 C8.98170374,10.8279138 8.984857,11.0468037 9.00771807,11.2394268 C9.16774557,12.5798291 10.0128169,13.7514872 11.4514878,14.6310267 C11.5791945,14.7090312 11.7195142,14.7464414 11.8590455,14.7464414 C12.1254953,14.7464414 12.3864268,14.6095357 12.5338413,14.3627871 C12.7592988,13.9862964 12.6402635,13.4975749 12.2673916,13.2699294 C11.5642165,12.8401092 10.7002257,12.1062309 10.5733073,11.0491916 C10.4731916,10.2166139 10.8484285,9.28294885 11.6548725,8.32620088 C11.0447184,8.87700753 10.4495422,9.46522447 9.88589855,10.0884638 Z" id="Shape" fill="#EAC494" transform="translate(10.817147, 11.536321) scale(-1, 1) rotate(-30.000000) translate(-10.817147, -11.536321) "></path>
                            <path d="M13.2904685,22.9831315 C13.4221167,23.0667076 13.5687429,23.1073018 13.7130041,23.1073018 C13.9731474,23.1073018 14.2285607,22.9767638 14.3791285,22.7387707 C14.6132574,22.3678518 14.5044702,21.8759464 14.1371164,21.6395453 C13.1477839,21.0035706 12.52817,19.9624505 12.3917919,18.7056243 C12.2814281,17.690771 12.4856011,16.6400994 12.949129,15.6817595 C12.3507996,16.7292473 12.029168,17.8698628 11.9992121,18.9850075 C11.6216102,18.995355 11.2416435,19.0447047 10.8632533,19.1219132 C11.1060536,20.7592098 11.9566432,22.1258789 13.2904685,22.9831315 Z" id="Shape" fill="#EAC494" transform="translate(12.682929, 19.394531) scale(-1, 1) rotate(-30.000000) translate(-12.682929, -19.394531) "></path>
                            <path d="M15.883234,32.7664518 C16.0156705,32.8516198 16.163085,32.8930099 16.3097112,32.8930099 C16.5682778,32.8930099 16.8221145,32.7648598 16.9734706,32.5284587 C17.2091761,32.1583357 17.1035422,31.6664304 16.7377651,31.4276414 C15.4796178,30.610187 15.1059575,29.3955469 15.0129366,28.5215791 C14.9057261,27.5091137 15.124877,26.4313793 15.6002297,25.4451807 C15.0318561,26.4695855 14.729144,27.5807504 14.7007647,28.6656485 C14.2908421,28.676792 13.8769778,28.7293255 13.4662669,28.8200654 C13.678323,30.4860167 14.5297008,31.8853203 15.883234,32.7664518 Z" id="Shape" fill="#EAC494" transform="translate(15.282688, 29.169095) scale(-1, 1) rotate(-30.000000) translate(-15.282688, -29.169095) "></path>
                            <path d="M18.5416398,41.5758388 C18.6614633,41.6426997 18.791535,41.6737423 18.9192416,41.6737423 C19.1983044,41.6737423 19.4679074,41.5241012 19.6113803,41.2598414 C19.8210715,40.8745951 19.6807518,40.3898534 19.2992084,40.1797191 C17.9251792,39.419574 17.148691,38.4779494 16.9933934,37.3803159 C16.8846062,36.6114153 17.0919325,35.7454071 17.5601903,34.8610918 C16.972109,35.90062 16.6567838,37.0316839 16.6276163,38.1364811 C16.2807586,38.1460326 15.9323244,38.1914026 15.5838901,38.2574675 C15.893697,39.289832 16.6717618,40.5418824 18.5416398,41.5758388 Z" id="Shape" fill="#EAC494" transform="translate(17.646320, 38.267417) scale(-1, 1) rotate(-30.000000) translate(-17.646320, -38.267417) "></path>
                            <path d="M20.7738057,50.4360218 C20.9133371,50.5379051 21.0749412,50.5864588 21.2349687,50.5864588 C21.480134,50.5864588 21.7197811,50.4718401 21.8750787,50.25693 C22.1297038,49.9011344 22.0508725,49.4036573 21.6977083,49.1457651 C20.2905699,48.1181764 19.534578,47.0683007 19.4518051,46.0263847 C19.4431337,45.9181337 19.443922,45.8082907 19.4502285,45.6984478 C19.3966232,45.7748603 19.3445946,45.8520687 19.2799529,45.9205215 C18.8802783,46.3368104 18.4908518,46.7737943 18.1124616,47.2203297 C18.5105596,48.3545775 19.3989881,49.4323119 20.7738057,50.4360218 Z" id="Shape" fill="#EAC494" transform="translate(20.068416, 48.142453) scale(-1, 1) rotate(-30.000000) translate(-20.068416, -48.142453) "></path>
                        </g>
                        <g id="orange" transform="translate(40.582394, 27.617771) scale(-1, 1) rotate(-3.000000) translate(-40.582394, -27.617771) translate(28.582394, 15.617771)" fill-rule="nonzero">
                            <g id="Capa_1" transform="translate(11.365629, 12.000000) scale(-1, 1) translate(-11.365629, -12.000000) translate(0.032295, 0.000000)">
                                <g id="Group" transform="translate(0.000000, -0.000000)">
                                    <path d="M16.1829317,5.91566205 L13.8982357,5.72533196 L14.7440536,3.569469 C14.8823296,3.21742648 15.0565214,2.88855063 15.2554053,2.58057021 C13.9287642,1.99004727 12.4633982,1.65980868 10.9208131,1.65980868 C4.97000835,1.65980868 0.146062886,6.54070786 0.146062886,12.5617706 C0.146062886,18.5828332 4.97000835,23.4637324 10.9208131,23.4637324 C16.8716179,23.4637324 21.6955633,18.5828332 21.6955633,12.5617706 C21.6955633,9.80947943 20.6854305,7.29703147 19.0225274,5.37874042 C18.1596495,5.79937445 17.1854325,5.99924375 16.1829317,5.91566205 Z" id="Shape" fill="#ED8F20"></path>
                                    <ellipse id="Oval" fill="#EF771D" cx="17.1037239" cy="8.4580904" rx="0.897895852" ry="0.908496823"></ellipse>
                                    <ellipse id="Oval" fill="#EF771D" cx="19.4921269" cy="13.5252314" rx="0.897895852" ry="0.908496823"></ellipse>
                                    <ellipse id="Oval" fill="#EF771D" cx="19.3484636" cy="10.7293325" rx="0.897895852" ry="0.908496823"></ellipse>
                                    <ellipse id="Oval" fill="#EF771D" cx="16.6350223" cy="12.5613163" rx="0.897895852" ry="0.908496823"></ellipse>
                                    <ellipse id="Oval" fill="#EF771D" cx="17.1037239" cy="15.726065" rx="0.897895852" ry="0.908496823"></ellipse>
                                    <ellipse id="Oval" fill="#EF771D" cx="9.02266127" cy="4.82410311" rx="0.897895852" ry="0.908496823"></ellipse>
                                    <ellipse id="Oval" fill="#EF771D" cx="5.88002579" cy="6.18684835" rx="0.897895852" ry="0.908496823"></ellipse>
                                    <g transform="translate(11.672646, 4.797764)" id="Shape">
                                        <path d="M0.595010811,0.495577509 C0.595010811,0.495577509 2.5030395,0.813551397 3.01932961,2.13087179" fill="#ED8F20"></path>
                                        <path d="M3.01932961,2.58557445 C2.84109728,2.58557445 2.67229286,2.47700908 2.60180804,2.29848945 C2.18653121,1.23963641 0.537096529,0.946646181 0.520934404,0.943920691 C0.276706732,0.902129837 0.111493895,0.668646153 0.152348156,0.421080769 C0.19275347,0.174423882 0.423063756,0.00680621793 0.667291427,0.047688575 C0.755734169,0.0622245241 2.83301622,0.425169005 3.43640223,1.96370837 C3.52753866,2.19673781 3.41485273,2.46111039 3.18454245,2.55332281 C3.1306687,2.57512674 3.07455021,2.58557445 3.01932961,2.58557445 Z" fill="#9B6026"></path>
                                    </g>
                                    <g transform="translate(11.924212, 4.996733)" id="Shape">
                                        <path d="M0.612813919,1.65935443 C1.07837292,1.14151124 1.6655968,0.739501397 2.31297971,0.493298758" fill="#ED8F20"></path>
                                        <path d="M0.612364971,2.11360284 C0.504617469,2.11360284 0.396421018,2.07453748 0.310223017,1.99549826 C0.127052263,1.82651785 0.113583825,1.53943285 0.280592454,1.35364525 C0.793290985,0.783563493 1.44112284,0.339308547 2.15539899,0.0676679968 C2.38750507,-0.0195476982 2.64609907,0.0981026404 2.73364392,0.332949069 C2.82029087,0.567795498 2.70311546,0.829896831 2.47100938,0.918021023 C1.88962182,1.13878575 1.36165906,1.50082173 0.944586436,1.96460936 C0.855694747,2.06363552 0.734478807,2.11360284 0.612364971,2.11360284 Z" fill="#9B6026"></path>
                                    </g>
                                    <path d="M22.5934592,0.265266056 L20.3087632,0.0749359714 C17.8956681,-0.125841826 15.6370111,1.29277596 14.7440536,3.569469 L13.8982357,5.72533196 L16.1829317,5.91566205 C18.5955779,6.11643984 20.8546839,4.69782205 21.7476413,2.42112902 L22.5934592,0.265266056 Z" id="Shape" fill="#659C35"></path>
                                    <path d="M14.1500955,5.0839332 L13.8982357,5.72578621 L14.2205804,5.75258687 C17.0300965,2.97667482 20.0833913,2.06545251 20.4174086,2.04410284 L20.4331218,1.79017797 L20.6185372,1.97778257 L20.689471,1.70841326 L20.4901381,1.51535768 C20.2216673,1.45539689 17.085766,2.33164208 14.1500955,5.0839332 Z" id="Shape" fill="#88C057"></path>
                                </g>
                            </g>
                        </g>
                        <path d="M51.0131653,30.1596498 C49.0412241,31.1577 45.8500681,31.1607329 43.8721346,30.1596498 L47.1524704,31.8199122 C45.1805292,30.821862 41.9898614,30.8188291 40.0125343,31.8199122 L43.2918644,30.1596498 C41.3205278,31.1577 38.130228,31.1607329 36.1527493,30.1596498 L39.4323308,31.8199122 C37.460843,30.821862 34.2700546,30.8188291 32.2921211,31.8199122 L35.5724568,30.1596498 C33.6005157,31.1577 30.4094817,31.1607329 28.4316999,30.1596498 L31.7117842,31.8199122 C29.7399941,30.821862 26.5493268,30.8188291 24.5718481,31.8199122 L27.8514296,30.1596498 C25.8799419,31.1577 22.6896416,31.1607329 20.7123145,30.1596498 L23.9916446,31.8199122 C22.020308,30.821862 18.8300082,30.8188291 16.8525295,31.8199122 L20.132111,30.1596498 C18.1606232,31.1577 14.970323,31.1607329 12.9929959,30.1596498 L16.272326,31.8199122 C14.3009893,30.821862 11.1103234,30.8188291 9.13238993,31.8199122 L12.4127256,30.1596498 C10.4407845,31.1577 7.25011671,31.1607329 5.2727896,30.1596498 L8.55211969,31.8199122 C6.58078306,30.821862 5.14757044,31.7939874 5.35172086,33.9995462 L7.01268369,51.9439187 C7.42037,56.3483972 11.3344561,59.9189324 15.759871,59.9189324 L40.5261729,59.9189324 C44.9494247,59.9189324 48.8649633,56.3560731 49.2733601,51.9439187 L51.119574,31.998169 C51.2210678,30.9016703 50.5034064,30.4176519 49.5199092,30.9154252 L51.0131653,30.1596498 Z" id="Shape" fill="#B06F35" fill-rule="nonzero"></path>
                        <polygon id="Rectangle-5" fill="#8B572A" points="38.5697809 31.4481911 39.6770473 31.9000692 40.7843137 31.4869481 40.7843137 59.8136646 38.5697809 59.8136646"></polygon>
                    </g>
                </g>
            </g>
        </g>
    </g>
</svg>