<?xml version="1.0" encoding="UTF-8"?>
<svg width="50px" height="46px" viewBox="0 0 50 46" version="1.1" xmlns="http://www.w3.org/2000/svg" xmlns:xlink="http://www.w3.org/1999/xlink">
    <!-- Generator: sketchtool 42 (36781) - http://www.bohemiancoding.com/sketch -->
    <title>CC9CF638-B657-422A-885A-5EA7ED2135FE</title>
    <desc>Created with sketchtool.</desc>
    <defs></defs>
    <g id="Needs-Assessment" stroke="none" stroke-width="1" fill="none" fill-rule="evenodd">
        <g id="NA---Domain-Selection" transform="translate(-152.000000, -538.000000)" fill-rule="nonzero">
            <g id="first-aid-kit" transform="translate(152.000000, 538.000000)">
                <g id="Layer_1">
                    <g id="Group">
                        <path d="M31.2255275,0.0213700788 L18.7352808,0.0213700788 C17.0116207,0.0213700788 15.6126746,1.4413937 15.6126746,3.19102362 L15.6126746,7.94550393 L18.7352808,7.94550393 L18.7352808,4.77566929 C18.7352808,3.90094488 19.4332373,3.19084252 20.296584,3.19084252 L29.6642243,3.19084252 C30.527571,3.19084252 31.2255275,3.90076378 31.2255275,4.77566929 L31.2255275,7.94532283 L34.3481338,7.94532283 L34.3481338,3.19084252 C34.3481338,1.44284252 32.9491876,0.0213700788 31.2255275,0.0213700788 Z" id="Shape" fill="#324D5B"></path>
                        <path d="M3.12260627,7.94695276 L46.8383805,7.94695276 C48.5620406,7.94695276 49.9609867,9.36697638 49.9609867,11.1180551 L49.9609867,42.8140472 C49.9609867,44.5636771 48.5620406,45.9837008 46.8383805,45.9837008 L3.12260627,45.9837008 C1.39894617,45.9837008 0,44.5636771 0,42.8140472 L0,11.1180551 C0,9.36679528 1.39894617,7.94695276 3.12260627,7.94695276 Z" id="Shape" fill="#E2574C"></path>
                        <path d="M32.7868307,23.7932283 L28.1029213,23.7932283 L28.1029213,19.0420079 C28.1029213,18.1656536 27.4049647,17.4541023 26.5416181,17.4541023 L23.4190118,17.4541023 C22.5556653,17.4541023 21.8577086,18.1656536 21.8577086,19.0420079 L21.8577086,23.7932283 L17.1739776,23.7932283 C16.3106311,23.7932283 15.6126746,24.5047796 15.6126746,25.3780551 L15.6126746,28.5477087 C15.6126746,29.4256929 16.3106311,30.1356141 17.1739776,30.1356141 L21.8578872,30.1356141 L21.8578872,34.8868347 C21.8578872,35.7648189 22.5558437,36.4716614 23.4191902,36.4716614 L26.5417965,36.4716614 C27.4051431,36.4716614 28.1030997,35.7648189 28.1030997,34.8868347 L28.1030997,30.1356141 L32.7870091,30.1356141 C33.6503556,30.1356141 34.3483122,29.4256929 34.3483122,28.5477087 L34.3483122,25.3780551 C34.3481338,24.5064094 33.6501772,23.7932283 32.7868307,23.7932283 Z" id="Shape" fill="#FFFFFF"></path>
                        <path d="M3.12260627,7.94695276 C1.39894617,7.94695276 0,9.36679528 0,11.1180551 L0,19.040559 L10.9289435,7.94695276 L3.12260627,7.94695276 Z M3.10690582,45.9820709 L10.9289435,45.9820709 L0,34.8868347 L0,42.8140472 C0,44.5589686 1.38949021,45.9741023 3.10690582,45.9820709 Z M46.8383805,7.94695276 L39.0320432,7.94695276 L49.9609867,19.040559 L49.9609867,11.1180551 C49.9608083,9.36679528 48.5620406,7.94695276 46.8383805,7.94695276 Z M46.8539026,45.9820709 C48.5713181,45.9724724 49.9608083,44.5589686 49.9608083,42.8140472 L49.9608083,34.8868347 L39.0318648,45.9820709 L46.8539026,45.9820709 Z" id="Shape" fill="#BF392C"></path>
                    </g>
                </g>
            </g>
        </g>
    </g>
</svg>