<?xml version="1.0" encoding="UTF-8"?>
<svg width="59px" height="58px" viewBox="0 0 59 58" version="1.1" xmlns="http://www.w3.org/2000/svg" xmlns:xlink="http://www.w3.org/1999/xlink">
    <!-- Generator: sketchtool 42 (36781) - http://www.bohemiancoding.com/sketch -->
    <title>A5D3FC83-B796-455C-A5C7-E6E1551BB8F8</title>
    <desc>Created with sketchtool.</desc>
    <defs></defs>
    <g id="Needs-Assessment" stroke="none" stroke-width="1" fill="none" fill-rule="evenodd">
        <g id="NA---Domain-Selection" transform="translate(-147.000000, -375.000000)" fill-rule="nonzero">
            <g id="house" transform="translate(147.000000, 375.000000)">
                <g id="Layer_1">
                    <path d="M50.1056368,19.3507028 L29.7476219,3.05580709 C29.4142651,2.78896768 28.9374223,2.78896768 28.6039516,3.05580709 L8.24605078,19.3507028 C8.03293036,19.5213088 7.90904699,19.7780064 7.90904699,20.0492407 L7.90904699,56.4729332 L50.4427545,56.4729332 L50.4427545,20.0491279 C50.4427545,19.7780064 50.3188711,19.5214214 50.1056368,19.3507028 Z" id="Shape" fill="#34495E"></path>
                    <path d="M58.3453054,22.3629007 C58.3166993,22.126261 58.1939555,21.9105808 58.0044266,21.7633007 L30.8604068,0.676000689 C29.8684281,-0.0944305013 28.4833733,-0.0944305013 27.4912806,0.676000689 L0.34737489,21.7633007 C0.157845873,21.9105808 0.0352161552,22.126261 0.00649618396,22.3629007 C-0.0222237873,22.5995402 0.0452453514,22.8377575 0.19420171,23.0251537 L2.44028582,25.8515329 C2.75039311,26.241763 3.3217154,26.3094872 3.71638706,26.0029823 L29.1759577,6.22418705 L54.6354145,26.0029823 C54.8019219,26.1323453 54.9997707,26.1949985 55.1963657,26.1949985 C55.4656722,26.1949985 55.7323577,26.0771294 55.9115158,25.8515329 L58.1575997,23.0251537 C58.3064423,22.8378703 58.3740252,22.599653 58.3453054,22.3629007 Z" id="Shape" fill="#D3D2D2"></path>
                    <rect id="Rectangle-path" fill="#BDBCBC" x="24.3290068" y="39.2189704" width="9.69424393" height="17.2532865"></rect>
                    <path d="M34.9319186,39.219534 C34.9319186,38.7232667 34.5251663,38.3208665 34.0231367,38.3208665 L24.3287788,38.3208665 C23.8268632,38.3208665 23.4199968,38.7231539 23.4199968,39.219534 L23.4199968,56.2332509 L34.9319186,56.2332509 L34.9319186,39.219534 L34.9319186,39.219534 Z M33.1142409,55.5742656 L25.2376747,55.5742656 L25.2376747,40.1180885 L33.1142409,40.1180885 L33.1142409,55.5742656 Z" id="Shape" fill="#E9E9E9"></path>
                    <path d="M5.90970391,47.0074586 C3.27042974,47.0074586 1.12315602,49.1305672 1.12315602,51.7401395 C1.12315602,54.3497118 3.27042974,56.4728204 5.90970391,56.4728204 C8.54897809,56.4728204 10.6962518,54.3497118 10.6962518,51.7401395 C10.6962518,49.1305672 8.54897809,47.0074586 5.90970391,47.0074586 Z" id="Shape" fill="#C4DF64"></path>
                    <path d="M16.5733609,47.0074586 C13.9340867,47.0074586 11.7868129,49.1305672 11.7868129,51.7401395 C11.7868129,54.3497118 13.9340867,56.4728204 16.5733609,56.4728204 C19.212635,56.4728204 21.3599088,54.3497118 21.3599088,51.7401395 C21.3599088,49.1305672 19.212635,47.0074586 16.5733609,47.0074586 Z" id="Shape" fill="#C4DF64"></path>
                    <path d="M41.7785546,47.0074586 C39.1392804,47.0074586 36.9920068,49.1305672 36.9920068,51.7401395 C36.9920068,54.3497118 39.1392804,56.4728204 41.7785546,56.4728204 C44.4178287,56.4728204 46.5651026,54.3497118 46.5651026,51.7401395 C46.5651026,49.1305672 44.4178287,47.0074586 41.7785546,47.0074586 Z" id="Shape" fill="#C4DF64"></path>
                    <path d="M52.4422116,47.0074586 C49.8029375,47.0074586 47.6556636,49.1305672 47.6556636,51.7401395 C47.6556636,54.3497118 49.8029375,56.4728204 52.4422116,56.4728204 C55.0814858,56.4728204 57.2287594,54.3497118 57.2287594,51.7401395 C57.2287594,49.1305672 55.0814858,47.0074586 52.4422116,47.0074586 Z" id="Shape" fill="#C4DF64"></path>
                    <rect id="Rectangle-path" fill="#6DDAE1" x="34.0233647" y="24.842321" width="11.6331839" height="9.58514663"></rect>
                    <rect id="Rectangle-path" fill="#6DDAE1" x="24.6353802" y="12.4658972" width="9.20434361" height="7.58390685"></rect>
                    <path d="M45.6562067,23.9430903 L34.0231367,23.9430903 C33.5211071,23.9430903 33.1142409,24.3453778 33.1142409,24.8417576 L33.1142409,34.4269043 C33.1142409,34.9231715 33.5209931,35.325459 34.0231367,35.325459 L45.6563205,35.325459 C46.1583503,35.325459 46.5651026,34.9231715 46.5651026,34.4269043 L46.5651026,24.8417576 C46.5651026,24.3454904 46.1581223,23.9430903 45.6562067,23.9430903 Z M34.9319186,25.7403124 L38.9308326,25.7403124 L38.9308326,33.5282369 L34.9319186,33.5282369 L34.9319186,25.7403124 Z M44.7474246,33.5283495 L40.7485106,33.5283495 L40.7485106,25.740425 L44.7474246,25.740425 L44.7474246,33.5283495 Z" id="Shape" fill="#E9E9E9"></path>
                    <rect id="Rectangle-path" fill="#6DDAE1" x="12.6353057" y="24.842321" width="11.6331839" height="9.58514663"></rect>
                    <path d="M24.2682618,23.9430903 L12.6350778,23.9430903 C12.1330481,23.9430903 11.7262959,24.3453778 11.7262959,24.8417576 L11.7262959,34.4269043 C11.7262959,34.9231715 12.1330481,35.325459 12.6350778,35.325459 L24.2682618,35.325459 C24.7702914,35.325459 25.1771576,34.9231715 25.1771576,34.4269043 L25.1771576,24.8417576 C25.1770436,24.3454904 24.7701774,23.9430903 24.2682618,23.9430903 Z M13.5439737,25.7403124 L17.5428878,25.7403124 L17.5428878,33.5282369 L13.5439737,33.5282369 C13.5439737,33.5283495 13.5439737,25.7403124 13.5439737,25.7403124 Z M23.3593657,33.5283495 L19.3604517,33.5283495 L19.3604517,25.740425 L23.3593657,25.740425 L23.3593657,33.5283495 Z" id="Shape" fill="#E9E9E9"></path>
                    <path d="M33.0537236,11.4824334 L25.2983057,11.4824334 C24.7963901,11.4824334 24.3895239,11.8847209 24.3895239,12.3811008 L24.3895239,20.0492407 C24.3895239,20.5455078 24.7963901,20.947908 25.2983057,20.947908 L33.0537236,20.947908 C33.5557534,20.947908 33.9625057,20.5456206 33.9625057,20.0492407 L33.9625057,12.3811008 C33.9625057,11.8847209 33.5556394,11.4824334 33.0537236,11.4824334 Z M32.1448277,15.316447 L30.0847398,15.316447 L30.0847398,13.2795428 L32.1448277,13.2795428 L32.1448277,15.316447 Z M28.2671758,13.2796555 L28.2671758,15.3165597 L26.2070876,15.3165597 L26.2070876,13.2796555 L28.2671758,13.2796555 Z M26.2070876,17.1136691 L28.2671758,17.1136691 L28.2671758,19.1505733 L26.2070876,19.1505733 L26.2070876,17.1136691 Z M30.0848537,19.1505733 L30.0848537,17.1136691 L32.1449417,17.1136691 L32.1449417,19.1505733 L30.0848537,19.1505733 Z" id="Shape" fill="#E9E9E9"></path>
                    <g id="Group" transform="translate(0.113968, 45.975709)" fill="#7B7979">
                        <path d="M27.1231635,2.769135 C26.6212479,2.769135 26.2142677,2.36684754 26.2142677,1.87058034 L26.2142677,0.912076943 C26.2142677,0.415809725 26.6211339,0.0134095819 27.1231635,0.0134095819 C27.6251932,0.0134095819 28.0320596,0.415697039 28.0320596,0.912076943 L28.0320596,1.87058034 C28.0319456,2.36673487 27.6250792,2.769135 27.1231635,2.769135 Z" id="Shape"></path>
                        <path d="M57.1754224,11.3957783 L0.948556827,11.3957783 C0.44664114,11.3957783 0.0397748808,10.9934908 0.0397748808,10.4972236 C0.0397748808,10.0009563 0.44664114,9.59866889 0.948556827,9.59866889 L57.1754224,9.59866889 C57.677452,9.59866889 58.0842043,10.0009563 58.0842043,10.4972236 C58.0842043,10.9934908 57.677338,11.3957783 57.1754224,11.3957783 Z" id="Shape"></path>
                    </g>
                </g>
            </g>
        </g>
    </g>
</svg>