<?xml version="1.0" encoding="UTF-8"?>
<svg width="56px" height="50px" viewBox="0 0 56 50" version="1.1" xmlns="http://www.w3.org/2000/svg" xmlns:xlink="http://www.w3.org/1999/xlink">
    <!-- Generator: sketchtool 42 (36781) - http://www.bohemiancoding.com/sketch -->
    <title>5184F5A7-EC5C-4CF2-915E-86FA256B0A5A</title>
    <desc>Created with sketchtool.</desc>
    <defs></defs>
    <g id="Needs-Assessment" stroke="none" stroke-width="1" fill="none" fill-rule="evenodd">
        <g id="NA---Domain-Selection" transform="translate(-529.000000, -379.000000)" fill-rule="nonzero">
            <g id="wallet-(1)" transform="translate(529.000000, 379.000000)">
                <g id="Layer_1">
                    <path d="M4.36744554,6.22222222 L48.0414574,6.22222222 C50.4435801,6.22222222 52.408903,8.19144444 52.408903,10.5983333 L52.408903,15.8496667 C52.408903,18.2565556 50.4435801,20.2257778 48.0414574,20.2257778 L4.36744554,20.2257778 C1.96532278,20.2255556 0,18.2563333 0,15.8495556 L0,10.5982222 C0,8.19144444 1.96532278,6.22222222 4.36744554,6.22222222 Z" id="Shape" fill="#A86A3F"></path>
                    <path d="M13.9320238,10.9045556 L41.272,3.64033333 C42.1891801,3.37777778 43.1499406,3.94666667 43.4119763,4.86566667 L47.9540753,21.6697778 C48.2161109,22.5887778 47.6483485,23.5514444 46.7311683,23.814 L11.136903,33.31 C10.2197228,33.5725556 9.25896237,33.0036667 8.99692673,32.0846667 L5.67762376,19.7442222 L13.9320238,10.9045556 Z" id="Shape" fill="#3DB39E"></path>
                    <path d="M43.1936317,21.1445556 L37.2976633,22.7198889 C36.8172832,22.8512222 36.3367921,22.5885556 36.2495209,22.1072222 C36.1184475,21.6258889 36.3805941,21.1444444 36.8609742,21.057 L41.9271446,19.7004444 L39.2194059,9.548 L34.1532357,10.9045556 C33.6728554,11.0358889 33.1923643,10.7732222 33.1050931,10.2918889 C32.9740199,9.81055556 33.2361663,9.32911111 33.7165465,9.24166667 L39.6125148,7.66633333 C40.0928951,7.535 40.5733862,7.79766667 40.6606574,8.279 L43.805196,20.0943333 C43.9360475,20.5756667 43.6740119,21.057 43.1936317,21.1445556 Z M18.7361584,27.7524444 L12.8401901,29.3277778 C12.3598099,29.4591111 11.8793188,29.1964444 11.7920475,28.7151111 L8.64750891,16.8997778 C8.51643564,16.4184444 8.77858217,15.937 9.25896237,15.8495556 L15.1549307,14.2742222 C15.6353109,14.1428889 16.115802,14.4055556 16.2030732,14.8868889 C16.3341465,15.3682222 16.072,15.8496667 15.5916199,15.9371111 L10.5254495,17.2936667 L13.2331881,27.4461111 L18.2993584,26.0895556 C18.7797386,25.9582222 19.2602296,26.2208889 19.347501,26.7022222 C19.4785742,27.1397778 19.2165386,27.6211111 18.7361584,27.7524444 Z" id="Shape" fill="#78CABB"></path>
                    <path d="M0.349417822,17.0311111 C8.12332673,12.5674444 29.0869544,0.270666667 29.0869544,0.270666667 C29.9167525,-0.210666667 31.0085862,0.0518888889 31.4890773,0.883333333 L40.2238574,15.937 C40.7042376,16.7684444 40.3985109,17.8186667 39.5687128,18.3001111 L7.59925544,36.6795556 C6.76945742,37.1608889 5.67762376,36.8983333 5.19713268,36.0668889 C5.19713268,36.0668889 2.7514297,31.0782222 0.305615842,26.8771111 C0.305726732,17.0311111 0.349417822,20.2693333 0.349417822,17.0311111 Z" id="Shape" fill="#5ABEAC"></path>
                    <path d="M35.7690296,15.4556667 L29.6547168,4.86555556 C29.3926811,4.428 28.8686099,4.29666667 28.475501,4.55922222 L23.1909862,7.62244444 C22.754297,7.885 22.6232237,8.41011111 22.8852594,8.804 C23.1472951,9.24155556 23.6713663,9.37288889 24.0644753,9.11033333 L28.6065742,6.48466667 L33.8475089,15.5868889 L29.3054099,18.2125556 C28.8687209,18.4751111 28.7376475,19.0002222 28.9996832,19.3941111 C29.2617189,19.8316667 29.7857901,19.963 30.178899,19.7004444 L35.4634138,16.6372222 C35.8564119,16.4184444 36.0310653,15.8933333 35.7690296,15.4556667 Z M12.6218455,27.84 L8.07974653,30.4656667 L2.83881189,21.3633333 L7.38091089,18.7376667 C7.8176,18.4751111 7.94867327,17.95 7.68663763,17.5561111 C7.42460199,17.1185556 6.90053069,16.9872222 6.50742178,17.2497778 L1.22290693,20.313 C0.786217822,20.5755556 0.655144554,21.1006667 0.917180199,21.4945556 L7.03149306,32.0846667 C7.29352872,32.5222222 7.8176,32.6535556 8.21070891,32.391 L13.4952238,29.3277778 C13.9319129,29.0652222 14.0629861,28.5401111 13.8009505,28.1462222 C13.5826059,27.7524444 13.0585346,27.5773333 12.6218455,27.84 Z M14.849204,12.3924444 C11.4863208,14.3178889 10.350796,18.6064444 12.2724277,21.976 C14.2377505,25.3455556 18.4741227,26.4833333 21.8370059,24.5578889 C25.1998891,22.6324444 26.3354138,18.3438889 24.4137822,14.9743333 C22.4484594,11.6484444 18.2120872,10.467 14.849204,12.3924444 Z M35.7690296,15.4556667 L29.6547168,4.86555556 C29.3926811,4.428 28.8686099,4.29666667 28.475501,4.55922222 L23.1909862,7.62244444 C22.754297,7.885 22.6232237,8.41011111 22.8852594,8.804 C23.1472951,9.24155556 23.6713663,9.37288889 24.0644753,9.11033333 L28.6065742,6.48466667 L33.8475089,15.5868889 L29.3054099,18.2125556 C28.8687209,18.4751111 28.7376475,19.0002222 28.9996832,19.3941111 C29.2617189,19.8316667 29.7857901,19.963 30.178899,19.7004444 L35.4634138,16.6372222 C35.8564119,16.4184444 36.0310653,15.8933333 35.7690296,15.4556667 Z M12.6218455,27.84 L8.07974653,30.4656667 L2.83881189,21.3633333 L7.38091089,18.7376667 C7.8176,18.4751111 7.94867327,17.95 7.68663763,17.5561111 C7.42460199,17.1185556 6.90053069,16.9872222 6.50742178,17.2497778 L1.22290693,20.313 C0.786217822,20.5755556 0.655144554,21.1006667 0.917180199,21.4945556 L7.03149306,32.0846667 C7.29352872,32.5222222 7.8176,32.6535556 8.21070891,32.391 L13.4952238,29.3277778 C13.9319129,29.0652222 14.0629861,28.5401111 13.8009505,28.1462222 C13.5826059,27.7524444 13.0585346,27.5773333 12.6218455,27.84 Z M14.849204,12.3924444 C11.4863208,14.3178889 10.350796,18.6064444 12.2724277,21.976 C14.2377505,25.3455556 18.4741227,26.4833333 21.8370059,24.5578889 C25.1998891,22.6324444 26.3354138,18.3438889 24.4137822,14.9743333 C22.4484594,11.6484444 18.2120872,10.467 14.849204,12.3924444 Z" id="Shape" fill="#8CD2C5"></path>
                    <path d="M49.7884357,49.9828889 L4.36744554,49.9828889 C1.96532278,49.9828889 0,48.0136667 0,45.6067778 L0,14.0991111 L49.7884357,14.0991111 C52.1905584,14.0991111 54.1558811,16.0683333 54.1558811,18.4752222 L54.1558811,45.6068889 C54.1557704,48.0136667 52.1904475,49.9828889 49.7884357,49.9828889 Z M3.49395643,14.0991111 L0,14.0991111 L0,10.5982222 C0,12.5236667 1.57221386,14.0991111 3.49395643,14.0991111 Z" id="Shape" fill="#C47E4D"></path>
                    <path d="M54.1557704,39.0426667 L47.1679683,39.0426667 C43.8050852,39.0426667 41.0536554,36.2857778 41.0536554,32.9162222 C41.0536554,29.5466667 43.8050852,26.7897778 47.1679683,26.7897778 L54.1557704,26.7897778 C55.1166416,26.7897778 55.9027485,27.5774444 55.9027485,28.5402222 L55.9027485,37.2923333 C55.9027485,38.255 55.1166416,39.0426667 54.1557704,39.0426667 Z" id="Shape" fill="#A86A3F"></path>
                    <path d="M47.1679683,29.4153333 C49.0896,29.4153333 50.6619247,30.9906667 50.6619247,32.9162222 C50.6619247,34.8417778 49.0897109,36.4171111 47.1679683,36.4171111 C45.2463367,36.4171111 43.6740119,34.8417778 43.6740119,32.9162222 C43.6740119,30.9906667 45.2463367,29.4153333 47.1679683,29.4153333 Z" id="Shape" fill="#EFC75E"></path>
                    <path d="M48.0414574,35.5417778 C46.1198258,35.5417778 44.547501,33.9664444 44.547501,32.0408889 C44.547501,31.297 44.7658456,30.5967778 45.1589544,30.0278889 C44.2417742,30.6405556 43.6740119,31.6907778 43.6740119,32.9161111 C43.6740119,34.8415556 45.2462258,36.417 47.1679683,36.417 C48.3471842,36.417 49.3953268,35.8043333 50.0504712,34.9291111 C49.4827089,35.323 48.7838732,35.5417778 48.0414574,35.5417778 Z" id="Shape" fill="#D7B354"></path>
                    <path d="M49.7884357,48.2324444 L4.36744554,48.2324444 C1.96532278,48.2324444 0,46.2632222 0,43.8563333 L0,45.6067778 C0,48.0136667 1.96532278,49.9828889 4.36744554,49.9828889 L49.7884357,49.9828889 C52.1905584,49.9828889 54.1558811,48.0136667 54.1558811,45.6067778 L54.1558811,43.8563333 C54.1557704,46.2632222 52.1904475,48.2324444 49.7884357,48.2324444 Z" id="Shape" fill="#B27245"></path>
                    <path d="M49.7884357,14.0991111 L3.49395643,14.0991111 C1.57221386,14.0991111 0,12.5236667 0,10.5982222 L0,12.3486667 C0,14.2741111 1.57221386,15.8495556 3.49395643,15.8495556 L49.7884357,15.8495556 C52.1905584,15.8495556 54.1558811,17.8187778 54.1558811,20.2256667 L54.1558811,18.4752222 C54.1557704,16.0683333 52.1904475,14.0991111 49.7884357,14.0991111 Z" id="Shape" fill="#CA8B5F"></path>
                </g>
            </g>
        </g>
    </g>
</svg>