<svg width="300" height="300" viewBox="0 0 300 300" xmlns="http://www.w3.org/2000/svg" xmlns:xlink="http://www.w3.org/1999/xlink"><title>245AE405-F511-4202-BDA5-05993B0C5671</title><defs><path d="M299.492 149.75C299.492 67.04 232.448.001 149.748.001 67.044.002 0 67.04 0 149.749c0 82.697 67.044 149.74 149.748 149.74 82.7 0 149.744-67.043 149.744-149.74z" id="a"/><mask id="b" x="0" y="0" width="299.492" height="299.488" fill="#fff"><use xlink:href="#a"/></mask></defs><g fill-rule="nonzero" fill="none"><use stroke="#1E9BB4" mask="url(#b)" stroke-width="20" fill="#25B7D3" xlink:href="#a"/><path d="M83.43 104.784c0-8.4 2.697-16.91 8.09-25.531 5.393-8.621 13.264-15.761 23.609-21.42 10.345-5.658 22.415-8.489 36.208-8.489 12.82 0 24.139 2.367 33.954 7.096 9.815 4.731 17.395 11.164 22.746 19.298 5.349 8.136 8.024 16.976 8.024 26.526 0 7.516-1.525 14.105-4.576 19.762-3.05 5.66-6.677 10.544-10.876 14.655-4.2 4.112-11.738 11.031-22.614 20.757-3.006 2.742-5.417 5.152-7.228 7.23-1.813 2.078-3.162 3.978-4.045 5.702a27.832 27.832 0 0 0-2.056 5.173c-.488 1.723-1.217 4.753-2.189 9.085-1.68 9.197-6.942 13.794-15.782 13.794-4.599 0-8.468-1.502-11.606-4.51-3.14-3.005-4.708-7.47-4.708-13.395 0-7.428 1.148-13.86 3.449-19.298 2.298-5.439 5.348-10.213 9.151-14.324 3.8-4.112 8.93-8.996 15.385-14.656 5.658-4.95 9.749-8.687 12.269-11.207a38.01 38.01 0 0 0 6.366-8.423c1.724-3.094 2.587-6.453 2.587-10.08 0-7.073-2.632-13.04-7.892-17.905-5.262-4.861-12.049-7.295-20.359-7.295-9.728 0-16.89 2.454-21.486 7.362-4.599 4.907-8.489 12.135-11.672 21.685-3.007 9.993-8.71 14.987-17.11 14.987-4.953 0-9.13-1.745-12.533-5.239-3.404-3.492-5.106-7.272-5.106-11.34zm64.724 145.364c-5.394 0-10.103-1.747-14.125-5.24-4.025-3.49-6.035-8.376-6.035-14.655 0-5.57 1.943-10.256 5.836-14.059 3.89-3.8 8.664-5.703 14.324-5.703 5.57 0 10.256 1.902 14.058 5.703 3.8 3.803 5.703 8.488 5.703 14.06 0 6.19-1.989 11.053-5.968 14.589-3.98 3.536-8.576 5.305-13.793 5.305z" fill="#FFF"/></g></svg>