<svg width="299" height="258" viewBox="0 0 299 258" xmlns="http://www.w3.org/2000/svg" xmlns:xlink="http://www.w3.org/1999/xlink"><title>E3C792A0-BBEE-4005-99E2-0F0833758DF4</title><defs><ellipse id="a" cx="149.491" cy="142.112" rx="31.203" ry="31.203"/><mask id="g" x="0" y="0" width="62.406" height="62.406" fill="#fff"><use xlink:href="#a"/></mask><path d="M162.727 175.442h-26.475c-22.028 0-39.949 17.928-39.949 39.952v32.388l.082.503 2.227.694c21.021 6.57 39.288 8.763 54.324 8.763 29.358 0 46.373-8.375 47.425-8.903l2.084-1.063.216.006V215.39c.015-22.021-17.9-39.949-39.934-39.949z" id="b"/><mask id="h" x="0" y="0" width="106.358" height="82.3" fill="#fff"><use xlink:href="#b"/></mask><ellipse id="c" cx="85.794" cy="51.221" rx="50.336" ry="50.336"/><mask id="i" x="0" y="0" width="100.673" height="100.673" fill="#fff"><use xlink:href="#c"/></mask><path d="M213.182 101.558c27.8 0 50.33-22.546 50.33-50.343 0-27.788-22.54-50.33-50.33-50.33-27.806 0-50.334 22.536-50.334 50.33 0 27.794 22.528 50.343 50.334 50.343z" id="d"/><mask id="j" x="0" y="0" width="100.664" height="100.673" fill="#fff"><use xlink:href="#d"/></mask><path d="M125.024 170.533c-7.99-6.89-13.072-17.066-13.072-28.418 0-13.921 7.633-26.073 18.918-32.554-7.349-2.925-15.337-4.58-23.715-4.58H64.442C28.91 104.98 0 133.9 0 169.428v52.246l.13.815 3.597 1.118c33.28 10.4 62.249 13.979 86.237 14.11V215.39c0-21.649 14.954-39.818 35.06-44.858z" id="e"/><mask id="k" x="0" y="0" width="130.87" height="132.733" fill="#fff"><use xlink:href="#e"/></mask><path d="M234.54 104.979h-42.707c-8.378 0-16.357 1.654-23.709 4.579 11.294 6.481 18.928 18.627 18.928 32.554 0 11.346-5.085 21.521-13.07 28.412a45.96 45.96 0 0 1 21.479 12.146c8.751 8.757 13.572 20.382 13.57 32.727v22.318c23.987-.13 52.96-3.712 86.233-14.109l3.597-1.118.133-.815v-52.246c-.012-35.527-28.921-64.448-64.455-64.448z" id="f"/><mask id="l" x="0" y="0" width="130.87" height="132.736" fill="#fff"><use xlink:href="#f"/></mask></defs><g fill-rule="nonzero" fill="none"><use stroke="#14A6E3" mask="url(#g)" stroke-width="14" fill="#19BBFF" xlink:href="#a"/><use stroke="#14A6E3" mask="url(#h)" stroke-width="14" fill="#19BBFF" xlink:href="#b"/><ellipse fill="#E99ADD" cx="85.794" cy="51.221" rx="50.336" ry="50.336"/><use stroke="#E796DB" mask="url(#i)" stroke-width="14" fill="#FFABF3" xlink:href="#c"/><use stroke="#417DC4" mask="url(#j)" stroke-width="14" fill="#4A90E2" xlink:href="#d"/><use stroke="#E796DB" mask="url(#k)" stroke-width="14" fill="#FFABF3" xlink:href="#e"/><use stroke="#417DC4" mask="url(#l)" stroke-width="14" fill="#4A90E2" xlink:href="#f"/></g></svg>