<svg xmlns="http://www.w3.org/2000/svg" width="163" height="150" viewBox="0 0 163 150">
    <g fill="none" fill-rule="nonzero">
        <path fill="#526173" d="M153.549 72.093c-1.735 0-3.142 1.394-3.142 3.116 0 37.804-31.001 68.558-69.108 68.558-27.05 0-51.215-15.406-62.57-39.505l16.315 7.205a3.14 3.14 0 0 0 4.147-1.58 3.104 3.104 0 0 0-1.592-4.111l-22.958-10.14a3.14 3.14 0 0 0-4.148 1.58L.273 119.99a3.104 3.104 0 0 0 1.591 4.11c.416.187.85.272 1.277.272 1.202 0 2.35-.688 2.87-1.85l7.021-15.642C25.412 133.18 51.782 150 81.3 150c41.57 0 75.39-33.552 75.39-74.79 0-1.723-1.406-3.117-3.141-3.117zM161.137 25.767a3.14 3.14 0 0 0-4.143 1.58l-7.112 15.86C137.533 16.837 111.209 0 81.63 0 40.1 0 6.31 33.552 6.31 74.79c0 1.723 1.405 3.117 3.138 3.117 1.733 0 3.139-1.394 3.139-3.116 0-37.804 30.972-68.558 69.044-68.558 26.988 0 51.027 15.288 62.412 39.266l-16.054-7.096a3.135 3.135 0 0 0-4.144 1.58 3.105 3.105 0 0 0 1.59 4.11l22.938 10.14c.415.186.849.271 1.275.271a3.138 3.138 0 0 0 2.869-1.85l10.212-22.775a3.107 3.107 0 0 0-1.592-4.112z"/>
        <path fill="#526173" d="M113.574 75.581c0-17.31-14.152-31.395-31.548-31.395S50.477 58.271 50.477 75.581s14.153 31.396 31.549 31.396 31.548-14.085 31.548-31.396z"/>
        <path fill="#E65F58" d="M56.787 76.163c0-13.785 11.322-25 25.239-25 13.916 0 25.239 11.215 25.239 25s-11.323 25-25.24 25c-13.916 0-25.238-11.215-25.238-25z"/>
        <path fill="#FFF" d="M88.208 88.598a3.124 3.124 0 0 0 4.461 0 3.227 3.227 0 0 0 0-4.521l-7.234-7.333 7.234-7.332a3.227 3.227 0 0 0 0-4.522 3.124 3.124 0 0 0-4.46 0l-7.235 7.332-7.234-7.332a3.124 3.124 0 0 0-4.461 0 3.227 3.227 0 0 0 0 4.522l7.234 7.332-7.234 7.332a3.227 3.227 0 0 0 0 4.522 3.124 3.124 0 0 0 4.461 0l7.234-7.332 7.234 7.332z"/>
    </g>
</svg>
