<?xml version="1.0" encoding="UTF-8"?>
<svg width="60px" height="28px" viewBox="0 0 60 28" version="1.1" xmlns="http://www.w3.org/2000/svg" xmlns:xlink="http://www.w3.org/1999/xlink">
    <!-- Generator: sketchtool 42 (36781) - http://www.bohemiancoding.com/sketch -->
    <title>245021A7-7F27-4945-817D-84F2BE9D85C8</title>
    <desc>Created with sketchtool.</desc>
    <defs></defs>
    <g id="Needs-Assessment" stroke="none" stroke-width="1" fill="none" fill-rule="evenodd">
        <g id="NA---Domain-Selection" transform="translate(-527.000000, -714.000000)" fill-rule="nonzero">
            <g id="electric-car" transform="translate(557.000000, 727.928571) scale(-1, 1) translate(-557.000000, -727.928571) translate(527.000000, 714.000000)">
                <path d="M59.7933544,8.25440684 L59.7933544,20.6268957 C59.7933544,21.1120914 59.3021579,21.5972869 58.8109613,21.5972869 L1.09536623,21.4759881 C0.604169672,21.4759881 0.112973117,20.9907924 0.112973117,20.5055968 L0.481370532,15.4110426 C0.72696881,12.2572709 3.18295158,9.83129267 6.25293005,9.34609703 L14.4804723,8.61830357 L21.7256215,4.00894499 C25.4095957,1.70426569 29.5847663,0.369977679 33.8827362,0.127379858 C38.4263044,-0.115217963 42.8470734,0.733874409 46.7766457,2.79595588 C50.46062,4.61543954 54.5129915,6.67752101 55.0041881,6.92011883 C56.3549785,7.89051012 58.0741665,8.25440684 59.7933544,8.25440684 Z" id="Shape" fill="#5C87AE"></path>
                <path d="M38.7947018,8.01180902 L51.5658122,7.52661338 C51.1974147,7.28401556 47.8818381,5.58583082 44.9346587,4.13024389 C42.9698725,3.15985261 40.8822872,2.43205916 38.7947018,2.18946133 L38.7947018,8.01180902 Z" id="Shape" fill="#7BE3FF"></path>
                <path d="M37.0755138,1.8255646 C35.9703216,1.70426569 35.3563259,1.70426569 34.2511337,1.8255646 L33.1459414,1.94686351 C29.7075656,2.31076024 26.3919888,3.40245044 23.4448094,5.34323299 L18.0416473,8.86090139 L37.0755138,8.01180902 L37.0755138,1.8255646 L37.0755138,1.8255646 Z" id="Shape" fill="#7BE3FF"></path>
                <path d="M36.2159198,11.5294774 L34.0055354,11.5294774 C33.6371379,11.5294774 33.3915397,11.2868796 33.3915397,10.9229829 L33.3915397,10.9229829 C33.3915397,10.5590861 33.6371379,10.3164883 34.0055354,10.3164883 L36.2159198,10.3164883 C36.5843173,10.3164883 36.8299156,10.5590861 36.8299156,10.9229829 L36.8299156,10.9229829 C36.8299156,11.2868796 36.4615181,11.5294774 36.2159198,11.5294774 Z" id="Shape" fill="#363D44"></path>
                <path d="M59.7933544,8.25440684 C58.5653631,8.25440684 57.4601709,8.01180902 56.3549785,7.64791229 L56.3549785,7.7692112 L57.2145725,13.5915589 L59.7933544,15.4110426 L59.7933544,8.25440684 L59.7933544,8.25440684 Z" id="Shape" fill="#F1455B"></path>
                <path d="M58.442564,8.13875494 L58.442564,8.25440684 L58.8109613,12.3785697 L59.9161537,12.3785697 L59.8864922,8.23269829 L59.6789455,8.13875494 L58.442564,8.13875494 Z" id="Shape" fill="#FFC843"></path>
                <path d="M54.5129915,18.4435153 C53.2850001,16.8666294 51.3202138,15.7749393 49.1098294,15.7749393 C46.899445,15.7749393 44.9346587,16.8666294 43.7066673,18.4435153 L15.8312629,18.4435153 C14.6032714,16.7453306 12.6384853,15.6536404 10.4281008,15.6536404 C8.21771626,15.6536404 6.25293005,16.7453306 5.02493867,18.4435153 L0.235772255,18.4435153 L0.112973117,20.5055968 C0.112973117,20.9907924 0.604169672,21.4759881 1.09536623,21.4759881 L9.20010938,21.4759881 L17.1820534,21.4759881 L58.9337605,21.5972869 C59.4249571,21.5972869 59.765324,21.1225471 59.765324,20.6373514 L59.765324,18.3222164 L54.5129915,18.3222164 L54.5129915,18.4435153 Z" id="Shape" fill="#526173"></path>
                <path d="M15.954062,22.3250804 C15.954062,25.3575532 13.4980792,27.7835313 10.4281008,27.7835313 C7.35812229,27.7835313 4.90213952,25.3575532 4.90213952,22.3250804 C4.90213952,19.2926077 7.35812229,16.8666294 10.4281008,16.8666294 C13.4980792,16.8666294 15.954062,19.2926077 15.954062,22.3250804 Z" id="Shape" fill="#363D44"></path>
                <path d="M14.112075,22.3250804 C14.112075,24.3871619 12.5156861,25.9640478 10.4281008,25.9640478 C8.3405154,25.9640478 6.7441266,24.3871619 6.7441266,22.3250804 C6.7441266,20.262999 8.3405154,18.6861131 10.4281008,18.6861131 C12.392887,18.6861131 14.112075,20.3842978 14.112075,22.3250804 Z" id="Shape" fill="#A9B8C9"></path>
                <path d="M10.4281008,26.3279445 C8.21771626,26.3279445 6.49852832,24.5084608 6.49852832,22.4463794 C6.49852832,20.3842978 8.3405154,18.5648142 10.4281008,18.5648142 C12.5156861,18.5648142 14.3576732,20.3842978 14.3576732,22.4463794 C14.3576732,24.5084608 12.6384853,26.3279445 10.4281008,26.3279445 Z M10.4281008,19.0500098 C8.58611368,19.0500098 6.98972488,20.5055968 6.98972488,22.4463794 C6.98972488,24.3871619 8.46331454,25.8427488 10.4281008,25.8427488 C12.392887,25.8427488 13.8664766,24.3871619 13.8664766,22.4463794 C13.8664766,20.5055968 12.2700879,19.0500098 10.4281008,19.0500098 Z" id="Shape" fill="#BFCFE0"></path>
                <ellipse id="Oval" fill="#FFFFFF" cx="10.4281008" cy="22.3250804" rx="1.96478622" ry="1.94078256"></ellipse>
                <path d="M54.6357906,22.3250804 C54.6357906,25.3575532 52.1798079,27.7835313 49.1098294,27.7835313 C46.0398509,27.7835313 43.5838682,25.3575532 43.5838682,22.3250804 C43.5838682,19.2926077 46.0398509,16.8666294 49.1098294,16.8666294 C52.1798079,16.8666294 54.6357906,19.2926077 54.6357906,22.3250804 Z" id="Shape" fill="#363D44"></path>
                <path d="M52.7938035,22.3250804 C52.7938035,24.3871619 51.1974147,25.9640478 49.1098294,25.9640478 C47.0222441,25.9640478 45.4258553,24.3871619 45.4258553,22.3250804 C45.4258553,20.262999 47.0222441,18.6861131 49.1098294,18.6861131 C51.1974147,18.6861131 52.7938035,20.3842978 52.7938035,22.3250804 Z" id="Shape" fill="#A9B8C9"></path>
                <path d="M49.1098294,26.3279445 C46.899445,26.3279445 45.1802569,24.5084608 45.1802569,22.4463794 C45.1802569,20.3842978 47.0222441,18.5648142 49.1098294,18.5648142 C51.1974147,18.5648142 53.0394019,20.3842978 53.0394019,22.4463794 C53.0394019,24.5084608 51.3202138,26.3279445 49.1098294,26.3279445 Z M49.1098294,19.0500098 C47.2678423,19.0500098 45.6714535,20.5055968 45.6714535,22.4463794 C45.6714535,24.3871619 47.1450432,25.8427488 49.1098294,25.8427488 C51.0746156,25.8427488 52.5482053,24.3871619 52.5482053,22.4463794 C52.5482053,20.5055968 50.9518165,19.0500098 49.1098294,19.0500098 Z" id="Shape" fill="#BFCFE0"></path>
                <ellipse id="Oval" fill="#FFFFFF" cx="49.1098294" cy="22.3250804" rx="1.96478622" ry="1.94078256"></ellipse>
                <path d="M2.32335761,11.2868796 C1.3409645,12.2572709 0.72696881,13.47026 0.481370532,14.9258469 C0.481370532,14.9258469 4.16534468,14.4406513 4.77934039,12.014673 C4.90213952,11.7720753 5.02493867,11.5294774 5.1477378,11.2868796 L2.32335761,11.2868796 Z" id="Shape" fill="#FFFCEE"></path>
                <path d="M2.32335761,11.2868796 C1.21816537,12.2572709 0.604169672,13.5915589 0.481370532,14.9258469 C0.481370532,14.9258469 4.25222432,14.5767003 4.86622002,12.1507222 C4.98901916,11.9081243 5.19245286,11.3990308 5.315252,11.1564329 L2.32335761,11.2868796 Z" id="Shape" fill="#FFC843"></path>
                <path d="M5.27053693,11.2868796 C5.1477378,11.5294774 5.02493867,11.7720753 4.90213952,12.014673 C4.65654124,12.9850643 3.79694727,13.7128578 2.9373533,14.0767546 L2.9373533,14.0767546 C4.90213952,13.9554556 5.63893436,12.8637654 5.76173349,12.2572709 C5.88453263,11.6507763 6.25293005,11.1655807 6.25293005,11.1655807 L5.27053693,11.1655807 L5.27053693,11.2868796 Z" id="Shape" fill="#FF974A"></path>
            </g>
        </g>
    </g>
</svg>