<?xml version="1.0" encoding="UTF-8"?>
<svg width="47px" height="46px" viewBox="0 0 47 46" version="1.1" xmlns="http://www.w3.org/2000/svg" xmlns:xlink="http://www.w3.org/1999/xlink">
    <!-- Generator: sketchtool 42 (36781) - http://www.bohemiancoding.com/sketch -->
    <title>19C35012-5D7B-4F54-BC0F-13E43971FA63</title>
    <desc>Created with sketchtool.</desc>
    <defs></defs>
    <g id="Needs-Assessment" stroke="none" stroke-width="1" fill="none" fill-rule="evenodd">
        <g id="NA---Domain-Selection" transform="translate(-534.000000, -538.000000)" fill-rule="nonzero">
            <g id="Group-3" transform="translate(534.000000, 538.000000)">
                <g id="pipe">
                    <g id="Layer_1">
                        <g id="Group" fill="#C7CBC7">
                            <path d="M4.04383236,45.2698479 L0.808803119,45.2698479 C0.323502923,45.2698479 0,44.9407797 0,44.4471308 L0,29.6388761 C0,29.1452272 0.323502923,28.8161591 0.808803119,28.8161591 L4.04383236,28.8161591 C4.52913255,28.8161591 4.85263547,29.1452272 4.85263547,29.6388761 L4.85263547,44.4471308 C4.85263547,44.9407797 4.52904093,45.2698479 4.04383236,45.2698479" id="Shape"></path>
                            <path d="M30.7330526,4.13585869 L30.7330526,0.845176828 C30.7330526,0.351527952 31.0565556,0.0224597658 31.5418558,0.0224597658 L46.0996705,0.0224597658 C46.5849708,0.0224597658 46.9084737,0.351527952 46.9084737,0.845176828 L46.9084737,4.13585869 C46.9084737,4.62950757 46.5849708,4.95857575 46.0996705,4.95857575 L31.5418558,4.95857575 C31.0565556,4.95857575 30.7330526,4.62950757 30.7330526,4.13585869" id="Shape"></path>
                        </g>
                        <path d="M33.1593704,4.95857575 L33.1593704,18.9441134 C33.1593704,25.7723482 27.7406277,31.2843102 21.0278733,31.2843102 L4.85263547,31.2843102 L4.85263547,42.80179 L21.0279649,42.80179 C33.9681735,42.80179 44.4821559,32.1069341 44.4821559,18.9441134 L44.4821559,4.95857575 L33.1593704,4.95857575 Z" id="Shape" fill="#E8EDEE"></path>
                        <g id="Group" transform="translate(4.031189, 7.362330)" fill="#C7CBC7">
                            <path d="M10.5266257,32.9714021 L0.821446394,32.9714021 C0.336146199,32.9714021 0.0126432749,32.6423339 0.0126432749,32.148685 C0.0126432749,31.6550361 0.336146199,31.325968 0.821446394,31.325968 L10.5266257,31.325968 C11.0119259,31.325968 11.3354288,31.6550361 11.3354288,32.148685 C11.3354288,32.6423339 11.0118343,32.9714021 10.5266257,32.9714021" id="Shape"></path>
                            <path d="M16.9966842,32.9714021 L14.5703665,32.9714021 C14.0850662,32.9714021 13.7615634,32.6423339 13.7615634,32.148685 C13.7615634,31.6550361 14.0850662,31.325968 14.5703665,31.325968 L16.9966842,31.325968 C18.0480916,31.325968 19.099499,31.2436777 20.0700078,31.0791902 C20.4744093,30.9968997 20.959618,31.325968 20.959618,31.7373265 C21.0405165,32.148685 20.7170137,32.6422407 20.3126121,32.6422407 C19.2612047,32.8891118 18.1289903,32.9714021 16.9966842,32.9714021" id="Shape"></path>
                            <path d="M25.8931521,30.8324122 C25.5696491,30.8324122 25.3270448,30.6678316 25.1652475,30.3387634 C25.0034503,29.9274049 25.1652475,29.4338492 25.5696491,29.2692686 C27.2680624,28.4465514 28.8046783,27.2948593 30.2604873,25.9785866 C30.5839903,25.6495185 31.0692904,25.6495185 31.3927934,26.060877 C31.7162963,26.3899452 31.7162963,26.883594 31.3118947,27.2126623 C29.7752788,28.6112253 28.0768655,29.8452077 26.2975536,30.7502152 C26.1357563,30.8324122 25.973959,30.8324122 25.8931521,30.8324122" id="Shape"></path>
                            <path d="M32.5250078,25.5673213 C32.3632105,25.5673213 32.1206062,25.485031 32.0397077,25.4027407 C31.7162047,25.0736724 31.635306,24.5800235 31.958809,24.2509554 C33.3337193,22.6056144 34.3851267,20.7134025 35.1938382,18.7389933 C35.3556355,18.3276349 35.8408441,18.0808569 36.2452456,18.2453444 C36.6496472,18.4099252 36.8922515,18.9034809 36.7305459,19.3148393 C35.9217426,21.4538292 34.7086296,23.5105286 33.2528207,25.3203571 C33.0102164,25.485031 32.7676121,25.5673213 32.5250078,25.5673213" id="Shape"></path>
                            <path d="M37.0540487,14.8724655 L36.9731501,14.8724655 C36.5687485,14.7901751 36.2452456,14.3788165 36.2452456,13.9675512 C36.3261442,13.1448342 36.4070429,12.4045007 36.4070429,11.5817836 L36.4070429,9.93644267 C36.4070429,9.44279379 36.7305459,9.11372561 37.215846,9.11372561 C37.7011462,9.11372561 38.0246491,9.44279379 38.0246491,9.93644267 L38.0246491,11.5817836 C38.0246491,12.4045007 37.9437505,13.3094149 37.8628519,14.132132 C37.8628519,14.5433973 37.4584503,14.8724655 37.0540487,14.8724655" id="Shape"></path>
                            <path d="M37.215846,4.17770282 C36.7305459,4.17770282 36.4070429,3.84863463 36.4070429,3.35498576 L36.4070429,0.886927762 C36.4070429,0.393278885 36.7305459,0.0642106996 37.215846,0.0642106996 C37.7011462,0.0642106996 38.0246491,0.393278885 38.0246491,0.886927762 L38.0246491,3.35498576 C38.0245575,3.84863463 37.7010546,4.17770282 37.215846,4.17770282" id="Shape"></path>
                            <path d="M38.0245575,6.64566762 C38.0245575,6.15201874 37.7010546,5.82295055 37.2157544,5.82295055 C36.7304541,5.82295055 36.4069513,6.15201874 36.4069513,6.64566762 C36.4069513,7.13931649 36.7304541,7.46838468 37.2157544,7.46838468 C37.7010546,7.46838468 38.0245575,7.13931649 38.0245575,6.64566762" id="Shape"></path>
                        </g>
                    </g>
                </g>
                <g id="light-bulb" transform="translate(3.773723, 0.000000)">
                    <g id="Layer_1" transform="translate(0.000000, 0.113222)">
                        <path d="M18.1180219,29.1961903 C18.1180219,24.9174558 25.8298368,22.4844032 25.8298368,13.0880597 C25.8298368,5.85979164 20.05511,0 12.9313646,0 C5.80761908,0 0.0328055234,5.85979164 0.0328055234,13.0880597 C0.0328055234,22.4844032 7.74479392,24.9174558 7.74479392,29.1961903 L18.1180219,29.1961903 Z" id="SVGCleanerId_0" fill="#FFC843"></path>
                        <path d="M18.1180219,29.1961903 C18.1180219,24.9174558 25.8298368,22.4844032 25.8298368,13.0880597 C25.8298368,5.85979164 20.05511,0 12.9313646,0 C5.80761908,0 0.0328055234,5.85979164 0.0328055234,13.0880597 C0.0328055234,22.4844032 7.74479392,24.9174558 7.74479392,29.1961903 L18.1180219,29.1961903 Z" id="SVGCleanerId_0_1_" fill="#FFC843"></path>
                        <g id="Group" transform="translate(5.380800, 14.794340)" fill="#D49000">
                            <path d="M5.05231097,15.1278295 C4.65708252,15.1278295 4.33683812,14.8027942 4.33683812,14.40185 C4.33683812,10.6398606 3.26961716,9.0073756 2.13973593,7.27907962 C1.09030632,5.67398177 0.00520722594,4.01428574 0.00520722594,0.782162683 C0.00520722594,0.381218449 0.325451621,0.0561832686 0.72068007,0.0561832686 C1.11590852,0.0561832686 1.43615292,0.381218449 1.43615292,0.782162683 C1.43615292,3.57644371 2.31478551,4.92026296 3.3320171,6.47639861 C4.47378817,8.22265914 5.76769702,10.2020186 5.76769702,14.40185 C5.76778381,14.8027942 5.44753941,15.1278295 5.05231097,15.1278295 Z" id="Shape"></path>
                            <path d="M10.0486443,15.1278295 C9.65341581,15.1278295 9.33317141,14.8027942 9.33317141,14.40185 C9.33317141,10.2020186 10.6270803,8.22274719 11.7688513,6.47639861 C12.786083,4.92035102 13.6647155,3.57644371 13.6647155,0.782162683 C13.6647155,0.381218449 13.9849599,0.0561832686 14.3801884,0.0561832686 C14.7754168,0.0561832686 15.0956613,0.381218449 15.0956613,0.782162683 C15.0956613,4.01428574 14.0105621,5.67398177 12.9611325,7.27907962 C11.8311644,9.0073756 10.7640303,10.6398606 10.7640303,14.40185 C10.7642039,14.8027942 10.4439595,15.1278295 10.0486443,15.1278295 Z" id="Shape"></path>
                        </g>
                        <path d="M15.2642886,18.9250434 C15.047668,18.9250434 14.8425033,18.8253577 14.7066815,18.65399 L12.9313646,16.4138803 L11.1560476,18.65399 C11.0202258,18.8253577 10.8151479,18.9250434 10.5984405,18.9250434 L10.5984405,18.9250434 C10.3818199,18.9250434 10.1766552,18.8253577 10.0408334,18.65399 L7.70799619,15.7104446 C7.46030581,15.3980023 7.50925374,14.9409628 7.81726115,14.6896351 C8.12526857,14.4383955 8.57560683,14.4879742 8.8232972,14.8005046 L10.5985273,17.0406143 L12.3738443,14.8005046 C12.509666,14.6291369 12.714744,14.5294512 12.9314514,14.5294512 C13.1481587,14.5294512 13.3532367,14.6291369 13.4890584,14.8005046 L15.2643754,17.0406143 L17.0396054,14.8005046 C17.2872959,14.4881503 17.7375473,14.4383955 18.0456415,14.6896351 C18.3535621,14.9409628 18.4024232,15.3979142 18.1549065,15.7104446 L15.8220693,18.65399 C15.6859871,18.8253577 15.4809092,18.9250434 15.2642886,18.9250434 Z" id="Shape" fill="#FFFFFF"></path>
                        <path d="M7.2794415,27.3740208 C7.57191403,27.9598942 7.74479392,28.55748 7.74479392,29.1961903 L18.1181087,29.1961903 C18.1181087,28.5573918 18.2909886,27.9597181 18.5834612,27.3740208 L7.2794415,27.3740208 Z" id="Shape" fill="#000000" opacity="0.1"></path>
                        <ellipse id="Oval" fill="#5C6670" cx="12.9316249" cy="43.3032103" rx="1.75865378" ry="1.78447924"></ellipse>
                        <path d="M12.9313646,41.518643 C11.9598698,41.518643 11.1727108,42.3175374 11.1727108,43.3031223 C11.1727108,43.3821134 11.1794802,43.4593434 11.1892871,43.5356047 C11.7385626,43.7141055 12.3236813,43.8113254 12.9312778,43.8113254 C13.5388742,43.8113254 14.1239929,43.7140174 14.6732684,43.5356047 C14.6829886,43.4593434 14.6898447,43.3821134 14.6898447,43.3031223 C14.6898447,42.3175374 13.9026858,41.518643 12.9313646,41.518643 Z" id="Shape" fill="#000000" opacity="0.1"></path>
                        <ellipse id="Oval" fill="#333E48" cx="12.9316249" cy="38.0197815" rx="5.20696558" ry="5.28342879"></ellipse>
                        <path d="M12.9313646,32.7364407 C10.0555872,32.7364407 7.72448575,35.10195 7.72448575,38.0197815 C7.72448575,38.4034657 7.7657964,38.7771989 7.84242941,39.1376348 L18.0202996,39.1376348 C18.0970194,38.7771108 18.1382433,38.4034657 18.1382433,38.0197815 C18.1381565,35.101862 15.8068815,32.7364407 12.9313646,32.7364407 Z" id="Shape" fill="#000000" opacity="0.1"></path>
                        <path d="M20.3153845,36.23222 C20.3153845,37.2153392 19.5225843,38.0197815 18.5537799,38.0197815 L7.30886232,38.0197815 C6.33997116,38.0197815 5.54717101,37.2154273 5.54717101,36.23222 L5.54717101,30.6795872 C5.54717101,29.696468 6.33997116,28.8920258 7.30886232,28.8920258 L18.5537799,28.8920258 C19.5225843,28.8920258 20.3153845,29.696468 20.3153845,30.6795872 L20.3153845,36.23222 L20.3153845,36.23222 Z" id="Shape" fill="#5C6670"></path>
                        <g id="Group" transform="translate(5.467587, 30.997665)" fill="#333E48">
                            <rect id="Rectangle-path" x="0.0800177053" y="0.0204302795" width="14.7680399" height="1.45204689"></rect>
                            <rect id="Rectangle-path" x="0.0800177053" y="3.44426333" width="14.7680399" height="1.45204689"></rect>
                        </g>
                    </g>
                </g>
            </g>
        </g>
    </g>
</svg>