<svg xmlns="http://www.w3.org/2000/svg" width="30" height="30" viewBox="0 0 30 30">
    <g fill="none" fill-rule="nonzero">
        <circle cx="14.998" cy="14.998" r="14.998" fill="#E2574C"/>
        <path fill="#FFF" d="M13.57 16.774l-.424-6.34c-.08-1.234-.119-2.121-.119-2.66 0-.731.192-1.303.575-1.713.384-.41.89-.616 1.515-.616.76 0 1.268.263 1.523.788.255.525.384 1.282.384 2.27 0 .582-.031 1.174-.093 1.773l-.569 6.524c-.061.777-.194 1.372-.397 1.788-.203.414-.539.62-1.006.62-.477 0-.807-.2-.992-.601-.186-.4-.319-1.013-.397-1.833zm1.469 8.708a2.079 2.079 0 0 1-1.41-.522c-.401-.348-.602-.836-.602-1.462 0-.548.192-1.013.575-1.397a1.917 1.917 0 0 1 1.41-.576c.556 0 1.03.192 1.423.576.392.384.589.85.589 1.397 0 .617-.199 1.102-.596 1.455-.397.353-.86.529-1.39.529z"/>
    </g>
</svg>
