<svg xmlns="http://www.w3.org/2000/svg" width="97" height="98" viewBox="0 0 97 98">
    <g fill="none" fill-rule="nonzero">
        <path fill="#9AD6D4" d="M59.37 75.415l-9.71 15.342V65.036h-3.168v25.722l-9.71-15.343-2.677 1.699 12.633 19.958a1.584 1.584 0 0 0 2.676 0l12.632-19.958-2.676-1.699z"/>
        <path fill="#FFAA0E" d="M35.804 40.537c-5.715-9.055-17.678-11.756-26.72-6.034C.04 40.225-2.658 52.205 3.056 61.26c5.53 8.76 20.055 12.505 30.115 12.959l.094 5.846 6.54-4.15-5.238-2.58c3.908-9.292 6.765-24.037 1.236-32.798z"/>
        <path fill="#57BAB7" d="M60.347 40.537c5.715-9.055 17.678-11.756 26.72-6.034 9.043 5.722 11.741 17.702 6.027 26.757-5.53 8.76-20.055 12.505-30.115 12.96l-.094 5.845-6.54-4.15 5.238-2.579c-3.908-9.293-6.765-24.038-1.236-32.799z"/>
        <path fill="#FFF" d="M8.393 59.49c-.524 0-1.037-.26-1.34-.736-4.313-6.817-2.286-15.878 4.522-20.199a1.583 1.583 0 0 1 2.186.49c.468.74.249 1.72-.49 2.19-5.332 3.384-6.92 10.48-3.541 15.82a1.588 1.588 0 0 1-1.337 2.436z"/>
        <path fill="#FF3776" d="M73.594 25.553C73.594 11.441 62.17 0 48.075 0 33.982 0 22.557 11.44 22.557 25.553c0 13.636 13.509 28.023 24.386 35.627l-3.646 5.97h9.557l-3.646-5.97c10.878-7.604 24.386-21.991 24.386-35.627z"/>
        <path fill="#FFF" d="M28.892 27.137c-.874 0-1.584-.71-1.584-1.587.002-11.464 9.318-20.792 20.767-20.792.875 0 1.584.71 1.584 1.586 0 .876-.709 1.587-1.584 1.587-9.702 0-17.597 7.904-17.599 17.62 0 .876-.71 1.586-1.584 1.586z"/>
    </g>
</svg>
