<svg xmlns="http://www.w3.org/2000/svg" width="94" height="98" viewBox="0 0 94 98">
    <g fill="none" fill-rule="nonzero">
        <path fill="#349886" d="M18.501 3.057h64.201c5.885 0 10.7 4.815 10.7 10.7v70.315c0 5.885-4.815 10.7-10.7 10.7h-64.2c-5.886 0-10.7-4.815-10.7-10.7V13.757c0-5.885 4.814-10.7 10.7-10.7z"/>
        <path fill="#EBEDEE" d="M15.444 3.057h64.201c5.885 0 10.7 4.815 10.7 10.7v70.315c0 5.885-4.815 10.7-10.7 10.7h-64.2c-5.886 0-10.7-4.815-10.7-10.7V13.757c-.001-5.885 4.814-10.7 10.7-10.7z"/>
        <path fill="#3DB39E" d="M10.858 1.529H75.06c5.885 0 10.7 4.815 10.7 10.7V85.6c0 5.885-4.815 10.7-10.7 10.7h-64.2c-5.886 0-10.7-4.815-10.7-10.7V12.229c0-5.885 4.814-10.7 10.7-10.7z"/>
        <path fill="#EFC75E" d="M30.73 29.043h39.743v22.93H30.73z"/>
        <path fill="#324D5B" d="M10.858 96.301h4.586V1.53h-4.586c-5.885 0-10.7 4.815-10.7 10.7V85.6c0 5.885 4.815 10.7 10.7 10.7z"/>
        <path fill="#D7B354" d="M36.845 35.158v3.057h24.457v-3.057H36.845zm0 10.7h24.457V42.8H36.845v3.057z"/>
        <path fill="#2B424D" d="M12.387 1.529h3.057V96.3h-3.057z"/>
        <path fill="#E4E7E7" d="M59.773 0h9.172c.84 0 1.528.688 1.528 1.529V96.3c0 .84-.687 1.529-1.528 1.529h-9.172c-.84 0-1.528-.688-1.528-1.529V1.53c0-.841.688-1.529 1.528-1.529z"/>
        <path fill="#CCD0D2" d="M61.302 97.83h1.528V0h-1.528v97.83zM65.888 0v97.83h1.528V0h-1.528z"/>
    </g>
</svg>
