<svg xmlns="http://www.w3.org/2000/svg" width="21" height="17" viewBox="0 0 21 17">
    <g fill="#0070D2" fill-rule="nonzero">
        <path d="M15.346 9.565h-.714a.346.346 0 0 0-.357.357v3.569c0 .49-.174.91-.524 1.26-.35.35-.77.524-1.26.524H3.21c-.49 0-.91-.175-1.26-.524-.349-.35-.524-.77-.524-1.26V4.21c0-.49.175-.91.525-1.26.35-.349.77-.524 1.26-.524h7.851c.104 0 .19-.033.257-.1a.347.347 0 0 0 .1-.256v-.714a.347.347 0 0 0-.1-.257.347.347 0 0 0-.257-.1H3.212c-.885 0-1.641.314-2.27.942A3.094 3.094 0 0 0 0 4.212v9.279c0 .884.314 1.641.942 2.27a3.094 3.094 0 0 0 2.27.942h9.279c.885 0 1.641-.315 2.27-.943a3.093 3.093 0 0 0 .942-2.27V9.923a.347.347 0 0 0-.1-.256.347.347 0 0 0-.257-.101z"/>
        <path d="M20.134.212A.686.686 0 0 0 19.632 0h-5.71c-.193 0-.36.07-.502.212a.686.686 0 0 0-.212.502c0 .193.07.36.212.502l1.963 1.962-7.271 7.272a.352.352 0 0 0 0 .513l1.271 1.271a.353.353 0 0 0 .513 0l7.271-7.271 1.963 1.963a.686.686 0 0 0 .502.212c.194 0 .36-.071.502-.212a.686.686 0 0 0 .212-.502V.714c0-.194-.07-.36-.212-.502z"/>
    </g>
</svg>
