<svg xmlns="http://www.w3.org/2000/svg" width="94" height="110" viewBox="0 0 94 110">
    <g fill="none" fill-rule="nonzero">
        <path fill="#4ACFD9" d="M91.34 7.459H17.639c-.966 0-1.75.783-1.75 1.748v89.507c0 .966.784 1.748 1.75 1.748h73.703c.966 0 1.75-.782 1.75-1.748V9.207c0-.965-.784-1.748-1.75-1.748z"/>
        <path fill="#0295AA" d="M17.638 7.459c-.966 0-1.75.783-1.75 1.748v89.507c0 .966.784 1.748 1.75 1.748h37.318V7.46H17.638z"/>
        <path fill="#E6EAEA" d="M70.816 23.31H1.778c-.966 0-1.75.782-1.75 1.747v65.266c0 .463.185.908.513 1.236l17.726 17.715c.328.328.773.512 1.237.512h51.312c.967 0 1.75-.783 1.75-1.748v-82.98c0-.966-.784-1.749-1.75-1.749z"/>
        <path fill="#E6EAEA" d="M1.778 23.31c-.966 0-1.75.782-1.75 1.747v65.266c0 .463.185.908.513 1.236l17.726 17.715c.328.328.773.512 1.237.512h16.793V23.309H1.778z"/>
        <g fill="#365558">
            <path d="M59.62 38.926H13.907a1.749 1.749 0 1 1 0-3.496h45.715a1.749 1.749 0 1 1 0 3.496zM59.62 53.844H13.907a1.749 1.749 0 1 1 0-3.497h45.715a1.749 1.749 0 1 1 0 3.497zM59.62 68.762H13.907a1.749 1.749 0 1 1 0-3.497h45.715a1.749 1.749 0 1 1 0 3.497zM59.62 83.68H13.907a1.749 1.749 0 1 1 0-3.497h45.715a1.749 1.749 0 1 1 0 3.497z"/>
        </g>
        <path fill="#9BAAAB" d="M.032 90.322c0 .455.174.902.509 1.237l17.726 17.715a1.75 1.75 0 0 0 1.237.512V92.07c0-.966-.783-1.749-1.75-1.749H.033z"/>
        <path fill="#F0353D" d="M48.309 6.41c0-3.535-2.878-6.41-6.414-6.41H34.43c-3.537 0-6.414 2.875-6.414 6.41v30.768c0 3.534 2.877 6.41 6.414 6.41h2.799c3.537 0 6.414-2.876 6.414-6.41V14.8a1.749 1.749 0 0 0-3.499 0v22.377a2.918 2.918 0 0 1-2.915 2.914H34.43a2.918 2.918 0 0 1-2.915-2.914V6.41a2.918 2.918 0 0 1 2.915-2.914h7.464A2.918 2.918 0 0 1 44.81 6.41v.932h3.499V6.41z"/>
    </g>
</svg>
