<svg xmlns="http://www.w3.org/2000/svg" width="109" height="109" viewBox="0 0 109 109">
    <g fill="none" fill-rule="nonzero">
        <g fill="#A5EB78">
            <path d="M80.65 9.36H41.338a3.744 3.744 0 1 1 0-7.488H80.65a3.744 3.744 0 1 1 0 7.488zM15.13 0C6.86 0 .156 6.705.156 14.976c0 8.27 6.705 14.976 14.976 14.976 8.27 0 14.975-6.705 14.975-14.976S23.401 0 15.131 0zm8.812 11.308l-9.984 9.983a1.865 1.865 0 0 1-1.324.548c-.479 0-.958-.182-1.323-.548l-4.992-4.992a1.871 1.871 0 1 1 2.647-2.647l3.668 3.669 8.661-8.66a1.871 1.871 0 1 1 2.647 2.647z"/>
        </g>
        <g fill="#AFB9D2">
            <path d="M99.37 18.72H61.93a1.872 1.872 0 0 1 0-3.744h37.44a1.872 1.872 0 0 1 0 3.744zM54.443 18.72H39.466a1.872 1.872 0 0 1 0-3.744h14.977a1.872 1.872 0 0 1 0 3.744z"/>
        </g>
        <g fill="#C7CFE2">
            <path d="M106.857 26.208H95.625a1.872 1.872 0 0 1 0-3.745h11.232a1.872 1.872 0 0 1 0 3.745zM88.137 26.208h-48.67a1.872 1.872 0 0 1 0-3.745h48.67a1.872 1.872 0 0 1 0 3.745z"/>
        </g>
        <g fill="#A5EB78">
            <path d="M80.65 48.671H41.338a3.744 3.744 0 1 1 0-7.488H80.65a3.744 3.744 0 1 1 0 7.488zM15.13 39.311C6.86 39.311.156 46.016.156 54.287c0 8.27 6.705 14.976 14.976 14.976 8.27 0 14.975-6.705 14.975-14.976 0-8.27-6.705-14.976-14.975-14.976zm8.812 11.308l-9.984 9.983a1.865 1.865 0 0 1-1.324.549c-.479 0-.958-.183-1.323-.549l-4.992-4.991a1.871 1.871 0 1 1 2.647-2.647l3.668 3.668 8.661-8.66a1.871 1.871 0 1 1 2.647 2.647z"/>
        </g>
        <g fill="#AFB9D2">
            <path d="M99.37 58.031H61.93a1.872 1.872 0 0 1 0-3.744h37.44a1.872 1.872 0 0 1 0 3.744zM54.443 58.031H39.466a1.872 1.872 0 0 1 0-3.744h14.977a1.872 1.872 0 0 1 0 3.744z"/>
        </g>
        <g fill="#C7CFE2">
            <path d="M106.857 65.52H95.625a1.872 1.872 0 0 1 0-3.745h11.232a1.872 1.872 0 0 1 0 3.744zM88.137 65.52h-48.67a1.872 1.872 0 0 1 0-3.745h48.67a1.872 1.872 0 0 1 0 3.744z"/>
        </g>
        <g fill="#EFF2FA">
            <path d="M75.034 87.983H41.338a3.744 3.744 0 1 1 0-7.488h33.696a3.744 3.744 0 1 1 0 7.488zM15.13 78.623C6.86 78.623.156 85.328.156 93.599c0 8.27 6.705 14.975 14.976 14.975 8.27 0 14.975-6.704 14.975-14.975s-6.705-14.976-14.975-14.976z"/>
        </g>
        <g fill="#AFB9D2">
            <path d="M99.37 97.342H61.93a1.872 1.872 0 0 1 0-3.744h37.44a1.872 1.872 0 0 1 0 3.744zM54.443 97.342H39.466a1.872 1.872 0 0 1 0-3.744h14.977a1.872 1.872 0 0 1 0 3.744z"/>
        </g>
        <g fill="#C7CFE2">
            <path d="M106.857 104.83H95.625a1.872 1.872 0 0 1 0-3.744h11.232a1.872 1.872 0 0 1 0 3.744zM88.137 104.83h-48.67a1.872 1.872 0 0 1 0-3.744h48.67a1.872 1.872 0 0 1 0 3.744z"/>
        </g>
    </g>
</svg>
