<svg xmlns="http://www.w3.org/2000/svg" width="76" height="110" viewBox="0 0 76 110">
    <g fill="none" fill-rule="evenodd">
        <path fill="#875F38" fill-rule="nonzero" d="M56.775 13.258v9.47c0 1.137-.946 1.894-1.892 1.894H20.83c-1.135 0-1.891-.947-1.891-1.894v-9.47H4.022a4 4 0 0 0-4 3.997v88.6a4.002 4.002 0 0 0 4.002 3.997H71.69a4 4 0 0 0 4.002-3.997v-88.6a4.002 4.002 0 0 0-4-3.997H56.775z"/>
        <path fill="#9BAAAB" fill-rule="nonzero" d="M52.683 106.126V88.98h18.035z"/>
        <path fill="#E6EAEA" d="M12.463 18.424h51.478v8.128H12.463z"/>
        <path fill="#FFF" fill-rule="nonzero" d="M59.672 18.424v2.075c0 1.245-1.105 2.075-2.21 2.075H17.699c-1.326 0-2.21-1.037-2.21-2.075v-2.075H7.448a2.996 2.996 0 0 0-3.004 3v81.16c0 1.657 1.35 3 3.003 3h45.598V88.982h17.673v-67.55a3.006 3.006 0 0 0-3.003-3.008h-8.042z"/>
        <path fill="#546080" fill-rule="nonzero" d="M47.316 7.576V3.788A3.797 3.797 0 0 0 43.532 0h-11.35a3.797 3.797 0 0 0-3.784 3.788v3.788h-7.567c-1.135 0-1.891.758-1.891 1.894v13.258c0 1.137.945 1.894 1.891 1.894h34.052c1.135 0 1.891-.947 1.891-1.894V9.47c0-1.136-.756-1.894-1.891-1.894h-7.567z"/>
        <g fill-rule="nonzero">
            <g transform="translate(10.68 28.72)">
                <ellipse cx="20.349" cy="20.242" fill="#FFF" rx="18.429" ry="18.402"/>
                <path fill="#556080" d="M20.35 40.484C9.171 40.484.076 31.403.076 20.242.077 9.082 9.172 0 20.349 0c11.178 0 20.273 9.081 20.273 20.242 0 11.161-9.095 20.242-20.273 20.242zm0-36.804c-9.147 0-16.587 7.43-16.587 16.562 0 9.133 7.44 16.562 16.586 16.562 9.147 0 16.587-7.429 16.587-16.562 0-9.133-7.44-16.562-16.587-16.562z"/>
            </g>
            <path fill="#556080" d="M62.359 85.765a1.84 1.84 0 0 1-1.303-.539L40.783 64.984a1.836 1.836 0 0 1 0-2.602c.721-.72 1.886-.72 2.606 0l20.273 20.242a1.84 1.84 0 1 1-1.303 3.141z"/>
            <path fill="#D1D4D1" d="M31.029 43.44H19.97a1.84 1.84 0 1 1 0-3.68h11.058a1.84 1.84 0 1 1 0 3.68zM40.243 43.44h-3.685a1.84 1.84 0 1 1 0-3.68h3.685a1.84 1.84 0 1 1 0 3.68zM29.186 58.162H25.5a1.84 1.84 0 1 1 0-3.68h3.686a1.84 1.84 0 1 1 0 3.68zM40.243 58.162h-3.685a1.84 1.84 0 1 1 0-3.68h3.685a1.84 1.84 0 1 1 0 3.68zM27.343 50.802H19.97a1.84 1.84 0 1 1 0-3.68h7.372a1.84 1.84 0 1 1 0 3.68zM43.93 50.802h-9.215a1.84 1.84 0 1 1 0-3.68h9.214a1.84 1.84 0 1 1 0 3.68z"/>
        </g>
    </g>
</svg>
