<svg xmlns="http://www.w3.org/2000/svg" width="83" height="83" viewBox="0 0 83 83">
    <path fill="#16325C" fill-rule="nonzero" d="M41.197 0C18.48 0 0 18.48 0 41.197c0 22.717 18.48 41.197 41.197 41.197 22.717 0 41.197-18.48 41.197-41.197C82.394 18.48 63.913 0 41.197 0zM7.545 41.197c0-18.556 15.096-33.652 33.652-33.652 8.36 0 16.014 3.073 21.906 8.14L15.684 63.102c-5.066-5.892-8.139-13.546-8.139-21.906zm33.652 33.651a33.473 33.473 0 0 1-19.99-6.6l47.04-47.039a33.473 33.473 0 0 1 6.6 19.99c.001 18.553-15.095 33.65-33.65 33.65z"/>
</svg>
