<svg xmlns="http://www.w3.org/2000/svg" width="76" height="110" viewBox="0 0 76 110">
    <g fill="none" fill-rule="evenodd">
        <path fill="#875F38" fill-rule="nonzero" d="M56.775 13.258v9.47c0 1.137-.946 1.894-1.892 1.894H20.83c-1.135 0-1.891-.947-1.891-1.894v-9.47H4.022a4 4 0 0 0-4 3.997v88.6a4.002 4.002 0 0 0 4.002 3.997H71.69a4 4 0 0 0 4.002-3.997v-88.6a4.002 4.002 0 0 0-4-3.997H56.775z"/>
        <path fill="#9BAAAB" fill-rule="nonzero" d="M52.683 106.126V88.98h18.035z"/>
        <path fill="#E6EAEA" d="M12.463 18.424h51.478v8.128H12.463z"/>
        <path fill="#FFF" fill-rule="nonzero" d="M59.672 18.424v2.075c0 1.245-1.105 2.075-2.21 2.075H17.699c-1.326 0-2.21-1.037-2.21-2.075v-2.075H7.448a2.996 2.996 0 0 0-3.004 3v81.16c0 1.657 1.35 3 3.003 3h45.598V88.982h17.673v-67.55a3.006 3.006 0 0 0-3.003-3.008h-8.042z"/>
        <path fill="#546080" fill-rule="nonzero" d="M47.316 7.576V3.788A3.797 3.797 0 0 0 43.532 0h-11.35a3.797 3.797 0 0 0-3.784 3.788v3.788h-7.567c-1.135 0-1.891.758-1.891 1.894v13.258c0 1.137.945 1.894 1.891 1.894h34.052c1.135 0 1.891-.947 1.891-1.894V9.47c0-1.136-.756-1.894-1.891-1.894h-7.567z"/>
        <g fill="#9BAAAB" fill-rule="nonzero">
            <path d="M17.038 43.562h7.567v-7.576h-7.567v7.576zm9.459 3.788h-11.35c-1.136 0-1.892-.758-1.892-1.894V34.092c0-1.137.756-1.894 1.891-1.894h11.351c1.135 0 1.892.757 1.892 1.894v11.364c0 1.136-.757 1.894-1.892 1.894zM17.038 64.396h7.567V56.82h-7.567v7.576zm9.459 3.788h-11.35c-1.136 0-1.892-.757-1.892-1.894V54.926c0-1.136.756-1.894 1.891-1.894h11.351c1.135 0 1.892.758 1.892 1.894V66.29c0 1.137-.757 1.894-1.892 1.894zM17.038 85.23h7.567v-7.576h-7.567v7.576zm9.459 3.788h-11.35c-1.136 0-1.892-.758-1.892-1.894V75.76c0-1.137.756-1.894 1.891-1.894h11.351c1.135 0 1.892.757 1.892 1.894v11.364c0 1.136-.757 1.894-1.892 1.894zM57.661 35.986H38.862c-1.253 0-2.089-.758-2.089-1.894 0-1.137.836-1.894 2.09-1.894H57.66c1.254 0 2.09.757 2.09 1.894 0 1.136-.837 1.894-2.09 1.894M51.912 45.456H38.936c-1.298 0-2.163-.758-2.163-1.894s.865-1.894 2.163-1.894h12.976c1.298 0 2.163.758 2.163 1.894s-.865 1.894-2.163 1.894M57.661 56.82H38.862c-1.253 0-2.089-.758-2.089-1.894s.836-1.894 2.09-1.894H57.66c1.254 0 2.09.758 2.09 1.894s-.837 1.894-2.09 1.894M51.912 66.29H38.936c-1.298 0-2.163-.758-2.163-1.894s.865-1.894 2.163-1.894h12.976c1.298 0 2.163.758 2.163 1.894s-.865 1.894-2.163 1.894M57.661 79.548H38.862c-1.253 0-2.089-.757-2.089-1.894 0-1.136.836-1.894 2.09-1.894H57.66c1.254 0 2.09.758 2.09 1.894s-.837 1.894-2.09 1.894M44.074 89.018h-4.867c-1.46 0-2.434-.758-2.434-1.894 0-1.137.974-1.894 2.434-1.894h4.867c1.46 0 2.434.757 2.434 1.894 0 1.136-.973 1.894-2.434 1.894"/>
        </g>
        <g fill="#26B999" fill-rule="nonzero">
            <path d="M21.256 42.71l-3.337-3.338c-.668-.667-.668-1.669 0-2.336.667-.667 1.668-.667 2.336 0l3.337 3.337c.667.668.667 1.669 0 2.336-.334.334-.668.5-1.168.5-.5 0-.834-.166-1.168-.5z"/>
            <path d="M22.424 43.21c-.334 0-.667-.167-1.001-.334-.668-.5-.835-1.669-.334-2.336l6.674-8.343c.5-.667 1.669-.834 2.336-.334.668.5.835 1.669.334 2.336l-6.674 8.343c-.334.5-.835.668-1.335.668"/>
        </g>
        <g fill="#26B999" fill-rule="nonzero">
            <path d="M21.256 63.842l-3.337-3.337c-.668-.667-.668-1.669 0-2.336.667-.667 1.668-.667 2.336 0l3.337 3.337c.667.668.667 1.669 0 2.336-.334.334-.668.5-1.168.5-.5 0-.834-.166-1.168-.5z"/>
            <path d="M22.424 64.343c-.334 0-.667-.167-1.001-.334-.668-.5-.835-1.669-.334-2.336l6.674-8.343c.5-.667 1.669-.834 2.336-.334.668.5.835 1.669.334 2.336l-6.674 8.343c-.334.5-.835.668-1.335.668"/>
        </g>
        <g fill="#26B999" fill-rule="nonzero">
            <path d="M21.256 84.433l-3.337-3.337c-.668-.667-.668-1.669 0-2.336.667-.667 1.668-.667 2.336 0l3.337 3.337c.667.668.667 1.669 0 2.336-.334.334-.668.5-1.168.5-.5 0-.834-.166-1.168-.5z"/>
            <path d="M22.424 84.934c-.334 0-.667-.167-1.001-.334-.668-.5-.835-1.669-.334-2.336l6.674-8.343c.5-.667 1.669-.834 2.336-.334.668.5.835 1.669.334 2.336l-6.674 8.343c-.334.5-.835.668-1.335.668"/>
        </g>
    </g>
</svg>
