<?xml version="1.0" encoding="utf-8"?>
<!-- Generator: Adobe Illustrator 20.0.0, SVG Export Plug-In . SVG Version: 6.00 Build 0)  -->
<svg version="1.1" id="Layer_1" xmlns="http://www.w3.org/2000/svg" xmlns:xlink="http://www.w3.org/1999/xlink" x="0px" y="0px"
	 viewBox="0 0 40 40" style="enable-background:new 0 0 40 40;" xml:space="preserve">
<style type="text/css">
	.st0{fill:#FFFFFF;}
</style>
<path class="st0" d="M19.5,0C8.7,0,0,8.7,0,19.5v1C0,31.3,8.7,40,19.5,40C30.3,40,39,31.3,39,20.5v-1C39,8.7,30.3,0,19.5,0z
	 M22.1,28.9c-0.5,0.4-1.2,0.6-2.1,0.6c-0.9,0-1.6-0.2-2.1-0.6c-0.5-0.4-0.8-1-0.8-1.7c0-0.8,0.2-1.3,0.7-1.7
	c0.5-0.4,1.2-0.6,2.1-0.6c0.9,0,1.6,0.2,2.1,0.6c0.5,0.4,0.7,1,0.7,1.7C22.9,27.9,22.6,28.5,22.1,28.9z M22,22.6h-4L17.2,9.5h5.6
	L22,22.6z"/>
</svg>
