<svg xmlns="http://www.w3.org/2000/svg" xmlns:xlink="http://www.w3.org/1999/xlink" width="184" height="36" viewBox="0 0 184 36">
    <defs>
        <filter id="a" width="107.3%" height="113.9%" x="-1.8%" y="-2.8%" filterUnits="objectBoundingBox">
            <feOffset dx="2" dy="2" in="SourceAlpha" result="shadowOffsetOuter1"/>
            <feColorMatrix in="shadowOffsetOuter1" result="shadowMatrixOuter1" values="0 0 0 0 0.0470588235 0 0 0 0 0.109803922 0 0 0 0 0.2 0 0 0 0.12 0"/>
            <feMerge>
                <feMergeNode in="shadowMatrixOuter1"/>
                <feMergeNode in="SourceGraphic"/>
            </feMerge>
        </filter>
        <path id="c" d="M63.48 27.077a1.665 1.665 0 0 1-.48-1.21V3.701c0-.502.16-.91.48-1.227.32-.317.715-.475 1.185-.475h7.65c1.43 0 2.7.29 3.81.868a6.5 6.5 0 0 1 2.608 2.422c.63 1.037.945 2.21.945 3.52 0 1.069-.283 2.03-.849 2.88-.565.852-1.339 1.54-2.32 2.063 1.45.35 2.592 1.048 3.425 2.095.832 1.048 1.248 2.38 1.248 3.994 0 1.484-.347 2.816-1.04 3.994-.694 1.179-1.665 2.096-2.913 2.75-1.249.655-2.662.982-4.242.982h-8.322c-.47 0-.865-.163-1.185-.49zm8.835-14.568c1.26 0 2.268-.317 3.025-.95.758-.632 1.137-1.55 1.137-2.75s-.38-2.111-1.137-2.733c-.757-.622-1.766-.933-3.025-.933H66.33v7.366h5.986zm.672 11.917c1.494 0 2.7-.399 3.618-1.195.917-.797 1.376-1.926 1.376-3.389 0-1.353-.453-2.39-1.36-3.11-.907-.72-2.118-1.08-3.634-1.08H66.33v8.774h6.658zM96.011 9.988c.64.35.96.786.96 1.31 0 .152-.01.262-.032.327-.192.698-.618 1.048-1.28 1.048a2.64 2.64 0 0 1-.48-.066c-.854-.153-1.547-.229-2.08-.229-1.537 0-2.775.36-3.714 1.08-.94.72-1.409 1.692-1.409 2.914v9.56c0 .523-.133.927-.4 1.21-.266.285-.667.426-1.2.426-.512 0-.907-.136-1.185-.409-.277-.273-.416-.682-.416-1.227V11.298c0-.524.139-.928.416-1.212.278-.283.673-.425 1.185-.425 1.067 0 1.6.545 1.6 1.637v.622a6.767 6.767 0 0 1 2.37-1.801 7.05 7.05 0 0 1 3.008-.655c1.131 0 2.017.175 2.657.524zm4.057 17.106c-.309-.317-.464-.715-.464-1.195V11.33c0-.502.155-.905.464-1.211.31-.306.7-.458 1.169-.458.49 0 .885.152 1.184.458.299.306.448.71.448 1.211V25.9c0 .48-.149.878-.448 1.195-.299.316-.693.474-1.184.474-.47 0-.86-.158-1.169-.474zm-.32-20.985a2.102 2.102 0 0 1-.624-1.523c0-.589.208-1.096.624-1.522.416-.426.913-.638 1.489-.638.576 0 1.072.212 1.488.638.416.426.625.933.625 1.522 0 .59-.209 1.097-.625 1.523-.416.425-.912.638-1.488.638s-1.073-.213-1.489-.638zm24.449-3.65c.298.305.448.709.448 1.21V18.6c0 1.702-.39 3.246-1.169 4.632a8.71 8.71 0 0 1-3.169 3.273c-1.334.797-2.822 1.195-4.465 1.195-1.643 0-3.143-.398-4.498-1.195a8.519 8.519 0 0 1-3.185-3.273c-.768-1.386-1.152-2.93-1.152-4.633 0-1.702.357-3.246 1.072-4.632.715-1.386 1.697-2.472 2.945-3.258 1.249-.785 2.641-1.178 4.178-1.178 1.237 0 2.39.262 3.457.785a7.872 7.872 0 0 1 2.72 2.194v-8.84c0-.501.155-.905.465-1.21.31-.306.699-.459 1.168-.459.491 0 .886.153 1.185.458zm-5.458 21.492a5.584 5.584 0 0 0 2.032-2.21c.491-.938.737-1.986.737-3.143 0-1.157-.246-2.199-.737-3.126a5.612 5.612 0 0 0-2.032-2.194c-.865-.534-1.83-.802-2.897-.802-1.067 0-2.033.268-2.897.802a5.73 5.73 0 0 0-2.049 2.194c-.501.927-.752 1.97-.752 3.126 0 1.157.25 2.205.752 3.143.502.939 1.184 1.675 2.049 2.21.864.535 1.83.802 2.897.802 1.067 0 2.032-.267 2.897-.802zm23.087-13.259a8.27 8.27 0 0 1 3.138 3.225c.757 1.375 1.136 2.946 1.136 4.714v7.071c0 1.725-.374 3.296-1.12 4.715a8.433 8.433 0 0 1-3.154 3.355c-1.355.819-2.886 1.228-4.593 1.228-1.537 0-2.966-.311-4.29-.933a8.996 8.996 0 0 1-3.329-2.668c-.234-.306-.352-.611-.352-.917 0-.458.224-.851.672-1.178.3-.197.598-.295.897-.295.533 0 .97.23 1.312.687a5.649 5.649 0 0 0 2.177 1.752c.875.404 1.867.606 2.977.606 1.046 0 1.995-.257 2.849-.77.854-.513 1.536-1.266 2.049-2.259.512-.993.768-2.177.768-3.552V23.87c-.662 1.2-1.537 2.139-2.625 2.816-1.088.676-2.315 1.014-3.681 1.014-1.58 0-2.993-.387-4.242-1.162-1.248-.775-2.22-1.85-2.913-3.224-.693-1.376-1.04-2.936-1.04-4.682 0-1.768.373-3.34 1.12-4.714a8.126 8.126 0 0 1 3.137-3.225c1.345-.775 2.87-1.162 4.578-1.162 1.686 0 3.196.387 4.53 1.162zm-1.6 13.275a5.382 5.382 0 0 0 2.017-2.177c.48-.927.72-1.98.72-3.159 0-1.179-.24-2.237-.72-3.176-.48-.938-1.153-1.67-2.017-2.193-.864-.524-1.84-.786-2.929-.786-1.088 0-2.065.262-2.929.786-.864.524-1.542 1.255-2.033 2.193-.49.939-.736 1.997-.736 3.176s.245 2.232.736 3.16a5.493 5.493 0 0 0 2.033 2.176c.864.524 1.84.786 2.929.786 1.088 0 2.065-.262 2.929-.786zm24.992-4.6c-.277.273-.63.41-1.056.41h-12.164c.235 1.528.912 2.76 2.033 3.7 1.12.938 2.491 1.407 4.113 1.407.64 0 1.307-.12 2-.36.694-.24 1.265-.535 1.713-.884.299-.24.651-.36 1.057-.36.405 0 .725.109.96.327.384.328.576.699.576 1.113 0 .393-.17.72-.512.982-.726.59-1.627 1.07-2.705 1.44-1.078.372-2.107.557-3.089.557-1.75 0-3.318-.387-4.706-1.162a8.335 8.335 0 0 1-3.249-3.224c-.779-1.376-1.168-2.936-1.168-4.682 0-1.746.368-3.312 1.104-4.698.737-1.386 1.76-2.466 3.073-3.241 1.313-.775 2.801-1.162 4.466-1.162 1.643 0 3.062.37 4.257 1.113 1.195.742 2.113 1.779 2.753 3.11.64 1.331.96 2.86.96 4.583 0 .415-.138.759-.416 1.032zm-11.347-5.712c-.971.873-1.585 2.04-1.841 3.503h10.66c-.193-1.463-.726-2.63-1.601-3.503-.875-.873-2.017-1.31-3.425-1.31-1.558 0-2.822.437-3.793 1.31zm17.15 13.357c-1.281-.458-2.284-1.059-3.01-1.8a1.401 1.401 0 0 1-.416-1.016c0-.523.214-.949.64-1.276.406-.306.78-.459 1.12-.459.428 0 .833.197 1.217.59.406.458 1.014.856 1.825 1.195.81.338 1.675.507 2.593.507 1.216 0 2.16-.207 2.833-.622.672-.415 1.008-.971 1.008-1.67 0-.676-.33-1.238-.992-1.686-.662-.447-1.782-.824-3.362-1.13-4.097-.807-6.146-2.53-6.146-5.172 0-1.07.31-1.975.929-2.717s1.43-1.299 2.433-1.67a9.152 9.152 0 0 1 3.2-.556c1.388 0 2.63.229 3.73.687 1.099.459 1.969 1.092 2.609 1.9.277.348.416.697.416 1.047 0 .37-.182.709-.544 1.015-.235.174-.534.261-.897.261-.554 0-1.056-.207-1.504-.622-.534-.502-1.1-.856-1.697-1.064-.597-.207-1.323-.31-2.176-.31-.982 0-1.788.169-2.417.507-.63.338-.945.813-.945 1.424 0 .437.107.802.32 1.097.214.294.62.567 1.217.818.598.251 1.462.497 2.593.737 2.326.48 3.975 1.146 4.946 1.997.97.851 1.456 1.953 1.456 3.306a4.9 4.9 0 0 1-.8 2.734c-.534.818-1.318 1.462-2.353 1.932-1.035.469-2.278.703-3.73.703-1.45 0-2.816-.229-4.097-.687z"/>
        <filter id="b" width="103.4%" height="112.1%" x="-.8%" y="-3%" filterUnits="objectBoundingBox">
            <feOffset dx="2" dy="2" in="SourceAlpha" result="shadowOffsetOuter1"/>
            <feColorMatrix in="shadowOffsetOuter1" values="0 0 0 0 0.0470588235 0 0 0 0 0.109803922 0 0 0 0 0.2 0 0 0 0.12 0"/>
        </filter>
    </defs>
    <g fill="none" fill-rule="evenodd">
        <g fill="#068BFF" filter="url(#a)" transform="translate(0 -2)">
            <path d="M32.294 2.208l-2.878.025a2 2 0 0 0-1.848 2.723l8.046 20.767A2 2 0 0 0 37.439 27l2.598.052a2 2 0 0 0 1.914-2.698L34.185 3.51a2 2 0 0 0-1.891-1.302zM15.454 2.222h-5.435c-.472 0-.855.31-.855.692 0 .086.02.172.058.252L18.18 21.78c.128.266.444.441.797.441h5.094c.473 0 .856-.31.856-.692 0-.055-2.89-6.341-8.672-18.858-.125-.27-.444-.45-.801-.45z"/>
            <path d="M53.79 31.797l.53 1.558A2 2 0 0 1 52.429 36H8.098a8 8 0 0 1-7.48-10.836l8.2-21.625a2 2 0 0 1 1.861-1.291l3.1-.013a2 2 0 0 1 1.868 2.733L7.255 26.275a3 3 0 0 0 2.787 4.1l41.858.067a2 2 0 0 1 1.89 1.355z"/>
            <path d="M27.653 2.222l5.47.091c.476.008.854.323.845.703-.002.053-2.952 6.307-8.851 18.762-.13.272-.459.45-.823.444l-5.386-.09c-.476-.007-.854-.322-.844-.702a.57.57 0 0 1 .055-.229l8.71-18.532c.129-.274.459-.453.824-.447z"/>
            <rect width="5.563" height="24.889" x="46.545" y="2.222" rx="2"/>
        </g>
        <g transform="translate(0 -2)">
            <use fill="#000" filter="url(#b)" xlink:href="#c"/>
            <use fill="#068BFF" xlink:href="#c"/>
        </g>
    </g>
</svg>
