<svg xmlns="http://www.w3.org/2000/svg" width="9" height="11" viewBox="0 0 9 11">
    <g fill="none" fill-rule="nonzero" transform="translate(0 .625)">
        <path fill="#9D9396" d="M8.371 3.325h-.427a.332.332 0 0 0-.323.252l-.207.829h.343l.187-.748h.427v-.333z"/>
        <path fill="#ABA2A5" d="M1.663 9.144a.166.166 0 0 1-.083-.31l4.655-2.66a.166.166 0 1 1 .165.288l-4.655 2.66a.166.166 0 0 1-.082.022z"/>
        <path fill="#9D9396" d="M6.318 9.144a.166.166 0 0 1-.083-.022L1.58 6.462a.166.166 0 1 1 .165-.289L6.4 8.833a.166.166 0 0 1-.082.311z"/>
        <path fill="#FF6472" d="M2.245.662v.001C1.88 1.753.671 2.241.662 2.244v.001c.178 1.268-.58 2.16-.58 2.16h4.323V.084c-.343.312-1.257.654-2.16.58z"/>
        <path fill="#DC5869" d="M4.406 4.406V.083c-.2.183-.598.375-1.074.489l1.074 3.834zM1.614 1.614l2.792 2.792L2.246.662c-.133.396-.376.71-.632.952zM.588 3.378l3.818 1.028-3.744-2.16c.06.427.013.81-.074 1.132z"/>
        <circle cx="1.663" cy="8.978" r="1" fill="#5F505A"/>
        <circle cx="6.318" cy="8.978" r="1" fill="#5F505A"/>
        <path fill="#FF6472" d="M7.814 4.489H.166l.405 1.617a.499.499 0 0 0 .483.378h5.872a.499.499 0 0 0 .484-.378l.404-1.617z"/>
        <path fill="#DC5869" d="M7.606 5.32l.208-.831H.166l.208.831z"/>
        <path fill="#C95264" d="M7.897 4.323H4.49V.083a.083.083 0 1 0-.166 0v4.013L2.316.62a.083.083 0 1 0-.143.083l2.006 3.475L.704 2.172a.083.083 0 0 0-.083.144l3.475 2.007H.083a.083.083 0 0 0 0 .166h7.814a.083.083 0 0 0 0-.166z"/>
    </g>
</svg>
