<svg xmlns="http://www.w3.org/2000/svg" width="85" height="96" viewBox="0 0 85 96">
    <g fill="none" fill-rule="nonzero">
        <path fill="#52D6C6" d="M69.134 96H2.645A2.66 2.66 0 0 1 0 93.342V2.658A2.66 2.66 0 0 1 2.645 0h79.71A2.66 2.66 0 0 1 85 2.658v90.684A2.66 2.66 0 0 1 82.355 96H69.134z"/>
        <path fill="#000" d="M82.354 0h-8.132v82.513a2.66 2.66 0 0 1-2.645 2.658H0v8.17A2.66 2.66 0 0 0 2.646 96h79.709A2.66 2.66 0 0 0 85 93.342V2.658A2.66 2.66 0 0 0 82.354 0z" opacity=".1"/>
        <path fill="#FFF" d="M13 16h12v12H13z"/>
        <path fill="#F597C6" d="M13 40h12v12H13z"/>
        <g fill="#FFF">
            <path d="M13.036 63.073h11.871v11.878H13.036zM33.754 16.177h40.149v11.878H33.754zM33.754 39.625h40.149v11.878H33.754zM33.754 63.073h40.149v11.878H33.754z"/>
        </g>
    </g>
</svg>
