<svg xmlns="http://www.w3.org/2000/svg" width="70" height="85" viewBox="0 0 70 85">
    <path fill="#66788C" fill-rule="nonzero" d="M.492 2.008c-.721 1.263-.618 2.736.103 3.998l.103.105L25.641 41.78v40.298c0 1.052.619 2 1.443 2.42.31.21.722.21 1.134.21.619 0 1.134-.21 1.65-.63l12.677-10.838a2.613 2.613 0 0 0 .928-2V41.78L68.416 6.111l.103-.105c.721-1.262.824-2.735.103-3.998-.722-1.263-1.959-2-3.402-2H3.79c-1.34-.104-2.68.737-3.298 2zm62.152 3.156l-23.913 34.3a2.62 2.62 0 0 0-.515 1.579v29.04L30.692 76.5V40.938c0-.526-.206-1.052-.515-1.579L6.367 5.164h56.277z"/>
</svg>
