<svg xmlns="http://www.w3.org/2000/svg" viewBox="0 0 23 23"><defs><style>.cls-1{fill:#00844e;}</style></defs><title>green-action-indicator</title><g id="Layer_2" data-name="Layer 2"><g id="Layer_1-2" data-name="Layer 1"><path class="cls-1" d="M11.5,23A11.5,11.5,0,1,1,23,11.5,11.51,11.51,0,0,1,11.5,23Zm0-21A9.5,9.5,0,1,0,21,11.5,9.51,9.51,0,0,0,11.5,2Z"/><path class="cls-1" d="M11.5,17.29a1,1,0,0,1-1-1v-6a1,1,0,1,1,2,0v6A1,1,0,0,1,11.5,17.29ZM11.5,8a1.12,1.12,0,1,0-1.12-1.12A1.12,1.12,0,0,0,11.5,8Z"/></g></g></svg>