<svg xmlns="http://www.w3.org/2000/svg" width="15" height="14" viewBox="0 0 15 14">
    <g fill="none" fill-rule="nonzero">
        <path fill="#324D5B" d="M9.368.006H5.62a.931.931 0 0 0-.937.925v1.387h.937v-.925c0-.255.209-.462.468-.462h2.81c.26 0 .469.207.469.462v.925h.936V.931c0-.51-.42-.925-.936-.925z"/>
        <path fill="#E2574C" d="M.937 2.319h13.115c.517 0 .936.414.936.925v9.248c0 .51-.42.924-.936.924H.937A.931.931 0 0 1 0 12.492V3.244c0-.511.42-.925.937-.925z"/>
        <path fill="#FFF" d="M9.836 6.942H8.431V5.556a.466.466 0 0 0-.469-.464h-.936a.466.466 0 0 0-.469.464v1.386H5.152a.466.466 0 0 0-.468.462v.925c0 .256.21.463.468.463h1.405v1.387c0 .256.21.462.469.462h.937a.465.465 0 0 0 .468-.462V8.792h1.405a.465.465 0 0 0 .468-.463v-.925a.466.466 0 0 0-.468-.462z"/>
        <path fill="#BF392C" d="M.937 2.319A.931.931 0 0 0 0 3.244v2.311L3.279 2.32H.937zM.932 13.416H3.28L0 10.179v2.313c0 .509.417.921.932.924zm13.12-11.097H11.71l3.278 3.236V3.244a.931.931 0 0 0-.936-.925zm.004 11.097a.93.93 0 0 0 .932-.924v-2.313l-3.278 3.237h2.346z"/>
    </g>
</svg>
