<svg xmlns="http://www.w3.org/2000/svg" width="15" height="15" viewBox="0 0 15 15">
    <g fill="none" fill-rule="evenodd">
        <rect width="15" height="15" fill="#BB80EF" rx="7.5"/>
        <g fill-rule="nonzero">
            <path fill="#F7F1E6" d="M11.08 6.413h-.988l.698-.698a.901.901 0 0 0 0-1.275l-.249-.25a.901.901 0 0 0-1.275 0l-.698.699V3.9A.901.901 0 0 0 7.667 3h-.353a.901.901 0 0 0-.901.901v.988l-.698-.698a.901.901 0 0 0-1.275 0l-.25.249a.901.901 0 0 0 0 1.275l.699.698h-.987A.901.901 0 0 0 3 7.314v.353c0 .497.404.901.902.901h.987l-.698.698a.901.901 0 0 0 0 1.275l.249.25a.901.901 0 0 0 1.275 0l.698-.699v.987c0 .498.403.902.901.902h.353a.901.901 0 0 0 .901-.902v-.987l.698.698a.901.901 0 0 0 1.275 0l.25-.249a.901.901 0 0 0 0-1.275l-.699-.698h.987a.901.901 0 0 0 .902-.901v-.353a.901.901 0 0 0-.901-.901zm-1.897.382s-.192.199-.505.06c0 0-.16.146-.42.012 0 0-.192.147-.395.02 0 0-.12.081-.221.068v.733l.016-.002c.046-.01.218-.049.425-.106.227-.06.475-.157.512-.206a.4.4 0 0 0-.11-.039 2.022 2.022 0 0 0-.31-.03c-.225-.008-.234.001-.27.002-.06 0-.168-.023-.166-.117.002-.093.078-.124.137-.124l.168.002c.207.016.843-.036.922.298 0 .01.002.016.003.025-.027.29-.631.418-1.067.504a.597.597 0 0 1 .258.406c.016.182-.13.355-.465.548.255.18.423.351.408.557-.022.167-.17.39-.46.531H7.64s.203-.31.216-.48c.012-.085-.054-.242-.214-.367v.606a.147.147 0 1 1-.294 0v-.632a.358.358 0 0 0-.045.036c-.176.147-.219.27-.206.358.013.17.216.48.216.48H7.31 7.31c-.29-.141-.438-.365-.46-.532-.015-.206.153-.376.409-.557-.337-.193-.482-.366-.467-.548a.591.591 0 0 1 .26-.406c-.437-.086-1.042-.213-1.069-.504.002-.009.003-.015.003-.025.08-.334.715-.282.923-.298.125-.002.086-.006.178.007.059.012.133.02.129.124-.005.104-.142.106-.169.108-.027.001-.044-.01-.27-.003a2.245 2.245 0 0 0-.31.031.385.385 0 0 0-.11.039c.037.05.286.146.512.206.236.065.347.088.46.114l.02.003v-.746c-.13.014-.23-.064-.23-.064-.206.127-.396-.02-.396-.02-.259.134-.421-.012-.421-.012-.311.14-.503-.06-.503-.06-.36.065-.492-.233-.492-.233.665.06 1.211-.593 1.35-.707.137-.112.234-.087.372.16.089.16.23.182.32.178v-.01a.332.332 0 1 1 .293 0v.01a.332.332 0 0 0 .31-.177c.139-.248.234-.273.372-.16.14.113.685.765 1.35.706 0 0-.132.298-.491.233z"/>
            <path fill="#E74424" d="M8.324 5.855c-.138-.112-.233-.087-.371.16a.333.333 0 0 1-.311.179v-.01a.332.332 0 1 0-.294-.002v.011a.334.334 0 0 1-.32-.177c-.137-.248-.234-.273-.37-.16-.14.113-.686.765-1.351.706 0 0 .132.298.492.233 0 0 .191.2.503.06 0 0 .162.146.42.012 0 0 .191.147.396.02 0 0 .1.078.23.064v.746l-.02-.003c-.112-.026-.223-.049-.459-.114-.226-.06-.475-.157-.512-.206a.386.386 0 0 1 .11-.039c.084-.017.196-.025.31-.031.226-.007.243.004.27.003.027-.002.164-.004.168-.108.005-.105-.07-.112-.128-.124-.092-.013-.053-.009-.178-.007-.208.016-.843-.036-.923.298 0 .01-.001.016-.003.025.027.29.632.418 1.068.504a.591.591 0 0 0-.259.406c-.015.182.13.355.467.548-.256.18-.424.351-.41.557.023.167.17.39.46.531h.004s-.204-.31-.216-.48c-.013-.086.03-.21.206-.357a.358.358 0 0 1 .045-.036v.632a.147.147 0 1 0 .294 0V9.09c.16.125.225.282.214.368-.013.17-.216.48-.216.48h.003c.29-.141.438-.365.46-.532.015-.206-.153-.376-.408-.557.336-.193.48-.366.465-.548a.597.597 0 0 0-.259-.406c.437-.086 1.041-.213 1.068-.504-.001-.009-.003-.015-.003-.025-.08-.334-.715-.282-.922-.298l-.169-.002c-.058 0-.134.03-.136.124-.002.094.106.118.167.117.035 0 .044-.01.27-.002.114.004.226.013.308.03a.4.4 0 0 1 .111.039c-.037.049-.286.146-.512.206a8.394 8.394 0 0 1-.441.108v-.733c.1.013.221-.068.221-.068.203.127.395-.02.395-.02.259.134.42-.012.42-.012.313.14.504-.06.504-.06a.44.44 0 0 0 .492-.233c-.665.06-1.21-.593-1.35-.707zm-.976 2.768c-.056-.035-.092-.05-.152-.096a.266.266 0 0 1-.112-.203c0-.064-.019-.181.264-.292v.59zm.521-.288c0 .063-.039.129-.113.192a.768.768 0 0 1-.114.08v-.559c.243.109.227.228.227.287z"/>
        </g>
    </g>
</svg>
