<svg xmlns="http://www.w3.org/2000/svg" width="113" height="86" viewBox="0 0 113 86">
    <g fill="#0070D2" fill-rule="nonzero">
        <path d="M98.623.174H13.737C6.16.174 0 6.334 0 13.911v58.017c0 7.577 6.16 13.737 13.737 13.737H98.6c7.578 0 13.737-6.16 13.737-13.737V13.935c.024-7.578-6.136-13.76-13.714-13.76zm7.462 71.754c0 4.114-3.347 7.461-7.462 7.461H13.737c-4.114 0-7.461-3.347-7.461-7.461V13.935c0-4.114 3.347-7.462 7.461-7.462H98.6c4.114 0 7.461 3.348 7.461 7.462v57.993h.024z"/>
        <path d="M70.847 42.2l27.474-24.64a3.153 3.153 0 0 0 .233-4.439 3.153 3.153 0 0 0-4.44-.232L56.227 46.894l-7.392-6.6c-.023-.024-.046-.047-.046-.07a4.648 4.648 0 0 0-.512-.442L18.2 12.865a3.134 3.134 0 0 0-4.44.256 3.134 3.134 0 0 0 .256 4.44l27.8 24.847-27.684 25.917a3.15 3.15 0 0 0-.14 4.44c.628.65 1.465 1 2.302 1 .767 0 1.534-.28 2.138-.838L46.534 46.64l7.624 6.81c.604.535 1.348.79 2.092.79s1.51-.279 2.092-.813l7.833-7.02 27.94 26.545c.603.58 1.394.86 2.16.86.838 0 1.651-.326 2.279-.977 1.185-1.255 1.139-3.254-.117-4.44L70.847 42.2z"/>
    </g>
</svg>
