<svg xmlns="http://www.w3.org/2000/svg" width="185" height="185" viewBox="0 0 185 185">
    <g fill="none" fill-rule="nonzero">
        <path fill="#E6AF78" d="M47 83.8V74h25v9.8L59.5 95z"/>
        <path fill="#B4E1FA" d="M26.389 87.612l17.61-3.945c.265-.06.51-.161.739-.283L59 91.304 72.706 83a2.88 2.88 0 0 0 1.296.667l17.61 3.944c2.57.576 4.388 2.76 4.388 5.275v13.32L59 113l-37-6.793v-13.32c0-2.515 1.818-4.7 4.389-5.275z"/>
        <path fill="#D29B6E" d="M72 74v10.615c-15.747 5.87-25-8.822-25-8.822V74h25z"/>
        <path fill="#F0C087" d="M79 41l-1.24 27.388a8.582 8.582 0 0 1-3.407 6.468l-5.884 4.43A8.518 8.518 0 0 1 63.346 81h-5.692a8.517 8.517 0 0 1-5.123-1.714l-5.884-4.43a8.582 8.582 0 0 1-3.407-6.468L42 41h37z"/>
        <path fill="#E6AF78" d="M64.996 46.714C59.395 46.714 50.993 45.285 49 41h30l-1.22 27.388a8.623 8.623 0 0 1-3.352 6.468l-5.79 4.43A8.294 8.294 0 0 1 63.597 81h-2.802c2.8 0 8.402-5.714 8.402-12.857V51c0-1.429-1.4-4.286-4.2-4.286z"/>
        <g fill="#A0D2F0">
            <path d="M31.807 99.521l-9.299-8.219a5.581 5.581 0 0 0-1.236 3.5v11.06c0 1.559 1.285 2.823 2.87 2.823h10.045v-3.912a7.009 7.009 0 0 0-2.38-5.252zM85.357 99.521l9.298-8.219a5.581 5.581 0 0 1 1.237 3.5v11.06c0 1.559-1.285 2.823-2.87 2.823H82.977v-3.912c0-2.003.865-3.913 2.38-5.252z"/>
        </g>
        <path fill="#5B5D6E" d="M58 113h6l-.75-19h-4.5z"/>
        <path fill="#515262" d="M58 92h6v1.179C64 94.185 63.022 95 61.815 95h-1.63C58.978 95 58 94.185 58 93.179V92z"/>
        <g fill="#A0D2F0">
            <path d="M73.911 80.605l-12.83 11.388s3.592 1.789 8.027 5.395c.915.744 2.299.443 2.79-.622l6.028-13.078-1.908-2.822a1.416 1.416 0 0 0-2.107-.26zM48.25 80.605l12.83 11.388s-3.593 1.789-8.028 5.395c-.915.744-2.298.443-2.789-.622l-6.028-13.078 1.907-2.822a1.416 1.416 0 0 1 2.107-.26z"/>
        </g>
        <path fill="#785550" d="M52 30.89l-1.327 9.49c-6.059 1.225-6.932 10.845-7.058 13.593-.023.498-.18.98-.448 1.4L40.856 59s.791-5.998-2.831-10.027c0 0-1.244-23.813 13.975-18.083z"/>
        <path fill="#F0C087" d="M39.09 58.537l1.635 6.21c.194.737.89 1.253 1.689 1.253.877 0 1.618-.62 1.727-1.448l.835-6.353C45.2 56.501 43.806 55 42.003 55h-.005c-1.95 0-3.38 1.74-2.907 3.537z"/>
        <path fill="#694B4B" d="M77.178 28.663l-2.126 1.432c9.612 6.994 7.815 18.99 7.815 18.99C79.993 51.917 79.993 59 79.993 59l-2.874-2.833s1.11-8.183-4.312-11.332c-5.03-2.921-9.432-1.417-13.923-1.417-12.037 0-15.405-4.47-14.821-9.915.302-2.817 4.672-8.686 15.809-8.499 4.495.075 12.935 1.416 17.306 3.659z"/>
        <path fill="#5A4146" d="M78.067 42.124S79.58 36.173 75.133 30c9.514 7.017 7.735 19.052 7.735 19.052C80.023 51.894 80.023 59 80.023 59l-2.844-2.842s1.098-8.21-4.268-11.37c-4.98-2.93-9.336-1.42-13.781-1.42-1.938 0-3.626-.13-5.13-.352 9.175.307 14.583-6.636 24.067-.892z"/>
        <path fill="#E6AF78" d="M80.909 58.537l-1.634 6.21c-.194.737-.89 1.253-1.689 1.253-.877 0-1.618-.62-1.727-1.448l-.835-6.353C74.8 56.501 76.194 55 77.997 55h.005c1.95 0 3.38 1.74 2.907 3.537z"/>
        <path fill="#A0D2F0" d="M42.942 105h8.116c1.072 0 1.942.821 1.942 1.835V111H41v-4.165c0-1.013.87-1.835 1.942-1.835z"/>
        <path fill="#D7DEED" d="M104.782 96.504l-7.778 7.778 21.214 21.214 7.778-7.778z"/>
        <path fill="#C7CFE2" d="M113 102.61a61.009 61.009 0 0 1-7.39 7.39L99 103.39l7.39-7.39 6.61 6.61z"/>
        <path fill="#D7DEED" d="M60.5 0C93.913 0 121 27.087 121 60.5S93.913 121 60.5 121 0 93.913 0 60.5 27.087 0 60.5 0zm0 111.448c28.137 0 50.947-22.81 50.947-50.948 0-28.137-22.81-50.947-50.947-50.947-28.138 0-50.947 22.81-50.947 50.947 0 28.137 22.81 50.948 50.947 50.948z"/>
        <path fill="#707487" d="M176.525 183.166l6.64-6.64a6.261 6.261 0 0 0 .001-8.854l-52.837-52.838a6.261 6.261 0 0 0-8.854 0l-6.64 6.64a6.261 6.261 0 0 0-.001 8.854l52.837 52.838a6.26 6.26 0 0 0 8.854 0z"/>
        <path fill="#5B5D6E" d="M176.81 174.997l-53.46-53.761a6.31 6.31 0 0 0-8.958 0l-.392.393.007-.008 6.72-6.756a6.31 6.31 0 0 1 8.957 0l53.46 53.762a6.395 6.395 0 0 1 0 9.009l-6.33 6.364a6.395 6.395 0 0 0-.004-9.003z"/>
        <path fill="#C7CFE2" d="M117.91 135l-4.006-4.006a6.502 6.502 0 0 1 0-9.195l6.897-6.895a6.502 6.502 0 0 1 9.194 0L134 118.91 117.91 135z"/>
        <path fill="#AFB9D2" d="M127.8 122.887l-3.757-3.73a6.132 6.132 0 0 0-8.625 0l-.377.374.006-.008 6.47-6.42a6.132 6.132 0 0 1 8.625.001l3.757 3.73-6.099 6.053z" opacity=".97"/>
    </g>
</svg>
