<svg xmlns="http://www.w3.org/2000/svg" width="9" height="8" viewBox="0 0 9 8">
    <g fill="none" fill-rule="nonzero" transform="translate(0 .75)">
        <circle cx="4.43" cy="4.31" r="2.768" fill="#FFF"/>
        <g transform="translate(2.2)">
            <circle cx="2.23" cy="4.31" r="2.214" fill="#F0F1F1"/>
            <path fill="#E2E4E5" d="M5.274 2.259c0-.948.536-1.815 1.384-2.239v4.29H5.274V2.259z"/>
        </g>
        <path fill="#FFF" d="M7.75 2.397c0-.84.422-1.615 1.108-2.076V.02a2.503 2.503 0 0 0-1.384 2.239v2.05h.277V2.398z"/>
        <path fill="#F0F1F1" d="M1.524.574a.138.138 0 0 0-.139.138v.623a.208.208 0 0 1-.415 0V.712a.138.138 0 0 0-.277 0v.623a.208.208 0 0 1-.415 0V.712a.138.138 0 0 0-.276 0v1.384a.83.83 0 0 0 .54.776l-.23 3.653a.52.52 0 1 0 1.039 0l-.229-3.653a.83.83 0 0 0 .54-.776V.712a.138.138 0 0 0-.138-.138z"/>
        <path fill="#84462D" d="M7.889 4.31v2.283a.484.484 0 0 0 .969 0V4.31h-.969zm.484 2.49a.138.138 0 1 1 0-.276.138.138 0 0 1 0 .276z"/>
        <path fill="#FFF" d="M4.43 1.542a2.767 2.767 0 0 0-1.97 4.71l3.912-3.913a2.758 2.758 0 0 0-1.942-.797z"/>
        <path fill="#F0F1F1" d="M4.43 2.096A2.214 2.214 0 0 0 2.85 5.86l3.13-3.13a2.207 2.207 0 0 0-1.55-.635z"/>
        <path fill="#FFF" d="M.83.574a.138.138 0 0 0-.136.138v.623a.207.207 0 1 1-.416 0V.712a.138.138 0 1 0-.276 0v1.384a.83.83 0 0 0 .54.776L.312 6.525a.52.52 0 0 0 .517.552V.574z"/>
    </g>
</svg>
