<svg xmlns="http://www.w3.org/2000/svg" width="15" height="15" viewBox="0 0 15 15">
    <g fill="none" fill-rule="evenodd">
        <g fill-rule="nonzero">
            <g fill="#C7CBC7">
                <path d="M1.29 14.227H.259c-.155 0-.258-.104-.258-.259V9.314c0-.155.103-.258.258-.258h1.033c.154 0 .258.103.258.258v4.654c0 .155-.104.259-.258.259M9.808 1.3V.266c0-.156.104-.259.259-.259h4.646c.155 0 .258.103.258.259V1.3c0 .155-.103.258-.258.258h-4.646c-.155 0-.259-.103-.259-.258"/>
            </g>
            <path fill="#E8EDEE" d="M10.583 1.558v4.395A3.87 3.87 0 0 1 6.71 9.831H1.549v3.62H6.71c4.13 0 7.485-3.361 7.485-7.498V1.558h-3.613z"/>
            <g fill="#C7CBC7">
                <path d="M4.646 12.675H1.55c-.155 0-.258-.103-.258-.258 0-.155.103-.259.258-.259h3.097c.155 0 .258.104.258.259 0 .155-.103.258-.258.258M6.711 12.675h-.774c-.155 0-.258-.103-.258-.258 0-.155.103-.259.258-.259h.774c.336 0 .671-.026.98-.077.13-.026.285.077.285.206.026.13-.078.285-.207.285a4.741 4.741 0 0 1-1.058.103M9.55 12.003c-.103 0-.18-.052-.232-.155-.052-.13 0-.284.13-.336.541-.259 1.032-.62 1.496-1.034.103-.104.258-.104.362.026.103.103.103.258-.026.362-.49.44-1.033.827-1.6 1.111-.052.026-.104.026-.13.026M11.667 10.348a.276.276 0 0 1-.155-.051c-.103-.104-.13-.259-.026-.362a6.55 6.55 0 0 0 1.033-1.732c.051-.13.206-.207.335-.156.13.052.207.207.155.337a6.978 6.978 0 0 1-1.11 1.887.416.416 0 0 1-.232.077M13.112 6.988h-.026a.303.303 0 0 1-.232-.285c.026-.258.052-.491.052-.75v-.517c0-.155.103-.258.258-.258.155 0 .258.103.258.258v.517c0 .259-.026.543-.052.802 0 .13-.129.233-.258.233M13.164 3.627c-.155 0-.258-.104-.258-.259v-.776c0-.155.103-.258.258-.258.155 0 .258.103.258.258v.776c0 .155-.103.259-.258.259M13.422 4.402c0-.155-.103-.258-.258-.258-.155 0-.258.103-.258.258 0 .155.103.259.258.259.155 0 .258-.104.258-.259"/>
            </g>
        </g>
        <g transform="translate(1.204 .036)">
            <path fill="#FFC843" fill-rule="nonzero" d="M5.782 9.175c0-1.344 2.462-2.109 2.462-5.062A4.115 4.115 0 0 0 4.127 0 4.115 4.115 0 0 0 .01 4.113c0 2.953 2.462 3.718 2.462 5.062h3.31z"/>
            <path fill="#FFC843" fill-rule="nonzero" d="M5.782 9.175c0-1.344 2.462-2.109 2.462-5.062A4.115 4.115 0 0 0 4.127 0 4.115 4.115 0 0 0 .01 4.113c0 2.953 2.462 3.718 2.462 5.062h3.31z"/>
            <g fill="#D49000" fill-rule="nonzero">
                <path d="M3.33 9.403a.228.228 0 0 1-.229-.228c0-1.182-.34-1.695-.7-2.238-.336-.505-.682-1.026-.682-2.042a.228.228 0 0 1 .457 0c0 .878.28 1.3.605 1.79.364.548.777 1.17.777 2.49a.228.228 0 0 1-.228.228zM4.924 9.403a.228.228 0 0 1-.228-.228c0-1.32.413-1.942.777-2.49.325-.49.605-.912.605-1.79a.228.228 0 0 1 .457 0c0 1.016-.346 1.537-.681 2.042-.36.543-.701 1.056-.701 2.238a.228.228 0 0 1-.229.228z"/>
            </g>
            <path fill="#FFF" fill-rule="nonzero" d="M4.872 5.947a.229.229 0 0 1-.178-.085l-.567-.704-.567.704a.229.229 0 0 1-.356 0l-.744-.925a.228.228 0 1 1 .356-.286l.567.704.566-.704a.228.228 0 0 1 .356 0l.567.704.566-.704a.229.229 0 0 1 .356.286l-.744.925a.229.229 0 0 1-.178.085z"/>
            <path fill="#000" fill-rule="nonzero" d="M2.323 8.603c.094.184.149.371.149.572h3.31c0-.2.056-.388.149-.572H2.323z" opacity=".1"/>
            <ellipse cx="4.127" cy="13.608" fill="#5C6670" fill-rule="nonzero" rx="1" ry="1"/>
            <path fill="#000" fill-rule="nonzero" d="M4.127 13.048a.561.561 0 0 0-.556.634 1.821 1.821 0 0 0 1.112 0 .561.561 0 0 0-.556-.634z" opacity=".1"/>
            <ellipse cx="4.127" cy="11.948" fill="#333E48" fill-rule="nonzero" rx="1.662" ry="1.66"/>
            <path fill="#000" fill-rule="nonzero" d="M4.127 10.288a1.661 1.661 0 0 0-1.624 2.011H5.75a1.66 1.66 0 0 0-1.624-2.011z" opacity=".1"/>
            <path fill="#5C6670" fill-rule="nonzero" d="M6.484 11.386a.564.564 0 0 1-.563.562H2.333a.564.564 0 0 1-.563-.562V9.641c0-.309.253-.561.563-.561H5.92c.31 0 .563.252.563.561v1.745z"/>
        </g>
    </g>
</svg>
