<?xml version="1.0" encoding="utf-8"?>
<!-- Generator: Adobe Illustrator 20.0.0, SVG Export Plug-In . SVG Version: 6.00 Build 0)  -->
<svg version="1.1" id="Layer_1" xmlns="http://www.w3.org/2000/svg" xmlns:xlink="http://www.w3.org/1999/xlink" x="0px" y="0px"
	 viewBox="0 0 22 19" style="enable-background:new 0 0 22 19;" xml:space="preserve">
<style type="text/css">
	.st0{fill:#08376D;stroke:#08376D;stroke-width:0.2;}
	.st1{fill:#08376D;stroke:#08376D;stroke-width:0.4;}
</style>
<g>
	<path class="st0" d="M9,12.7H1.9c-0.3,0-0.6-0.3-0.6-0.6V2.9c0-0.3,0.3-0.6,0.6-0.6h16.8c0.3,0,0.6,0.3,0.6,0.6V8h1.2V2.9
		c0-1-0.8-1.8-1.8-1.8H1.9c-1,0-1.8,0.8-1.8,1.8v9.3c0,1,0.8,1.8,1.8,1.8H9V12.7z"/>
	<g>
		<path class="st1" d="M17.8,18c-0.2,0-0.4-0.1-0.4-0.3l-1.2-2.3l-1.9,1c-0.2,0.1-0.5,0-0.7-0.2c0-0.1-0.1-0.1-0.1-0.2L13,7.5
			C13,7.3,13.2,7,13.5,7c0.1,0,0.2,0,0.3,0.1l7,4.9c0.2,0.2,0.3,0.5,0.1,0.7c0,0.1-0.1,0.1-0.2,0.2l-1.9,1l1.2,2.3
			c0.1,0.2,0,0.5-0.2,0.7l-1.9,1C17.9,18,17.8,18,17.8,18z M16.3,14.3c0.2,0,0.3,0.1,0.4,0.3l1.2,2.3l1-0.6L17.7,14
			c-0.1-0.2,0-0.5,0.2-0.7l1.6-0.9l-5.5-3.9l0.3,6.7l1.6-0.9C16.1,14.3,16.2,14.3,16.3,14.3z"/>
	</g>
</g>
</svg>
