<svg xmlns="http://www.w3.org/2000/svg" width="22" height="19" viewBox="0 0 22 19">
    <g fill="none" fill-rule="evenodd">
        <path fill="#B4C0D6" fill-rule="nonzero" stroke="#B4C0D6" stroke-width=".2" d="M20.535 2.858c0-.982-.796-1.778-1.778-1.778H1.947c-.982 0-1.778.796-1.778 1.778v9.284c0 .982.796 1.778 1.778 1.778h16.81c.982 0 1.778-.796 1.778-1.778V2.858zm-1.185 9.284a.593.593 0 0 1-.593.593H1.947a.593.593 0 0 1-.593-.593V2.858c0-.328.265-.593.593-.593h16.81c.327 0 .593.265.593.593v9.284z"/>
        <path fill="#FFF" d="M9 8h13v11H9z"/>
        <g fill="#B4C0D6" fill-rule="nonzero" stroke="#B4C0D6" stroke-width=".4">
            <path d="M17.763 18a.501.501 0 0 1-.44-.26l-1.25-2.274-1.895 1.048a.5.5 0 0 1-.743-.415l-.434-8.57a.503.503 0 0 1 .789-.437l6.997 4.94a.503.503 0 0 1-.046.852l-1.895 1.049 1.25 2.273a.505.505 0 0 1-.197.683l-1.894 1.048a.497.497 0 0 1-.242.063zm-1.493-3.72c.177 0 .348.094.44.26l1.25 2.274 1.016-.562-1.25-2.274a.504.504 0 0 1 .196-.683l1.633-.903-5.5-3.884.341 6.737 1.632-.902a.5.5 0 0 1 .242-.063z"/>
        </g>
    </g>
</svg>
