<?xml version="1.0" encoding="utf-8"?>
<!-- Generator: Adobe Illustrator 20.0.0, SVG Export Plug-In . SVG Version: 6.00 Build 0)  -->
<svg version="1.1" id="Layer_1" xmlns="http://www.w3.org/2000/svg" xmlns:xlink="http://www.w3.org/1999/xlink" x="0px" y="0px"
	 viewBox="0 0 22 19" style="enable-background:new 0 0 22 19;" xml:space="preserve">
<style type="text/css">
	.st0{fill:#FFFFFF;stroke:#FFFFFF;stroke-width:0.6;}
	.st1{fill:#FFFFFF;}
	.st2{fill:none;}
</style>
<g>
	<g>
		<path class="st0" d="M20.5,6.4C20.5,5.6,19.8,5,19,5H2.5C1.7,5,1,5.6,1,6.4v10c0,0.8,0.7,1.4,1.5,1.4H19c0.8,0,1.5-0.6,1.5-1.4
			L20.5,6.4L20.5,6.4z M19.5,16.4c0,0.3-0.2,0.5-0.5,0.5H2.5c-0.3,0-0.5-0.2-0.5-0.5v-10C2,6.2,2.2,6,2.5,6H19
			c0.3,0,0.5,0.2,0.5,0.5C19.5,6.4,19.5,16.4,19.5,16.4z"/>
		<path class="st1" d="M15,14h3v1h-3V14z M4,8h3v1H4V8z"/>
	</g>
	<path class="st1" d="M20.6,3.9l-1,1l-2.5-2.5l1-1c0.2-0.2,0.5-0.2,0.8,0l1.7,1.7C20.8,3.3,20.8,3.7,20.6,3.9z M9.3,10.9l1.9,1.9
		l-2.6,0.7L9.3,10.9L9.3,10.9z M21.5,2.2l-1.7-1.7c-0.3-0.3-1.6-1-2.5,0L8.5,9.3C8.4,9.3,8.4,9.4,8.3,9.5L7,14.2
		c-0.1,0.2,0,0.5,0.2,0.6C7.3,15,7.7,15,7.8,15l4.7-1.3c0.1,0,0.2-0.1,0.3-0.2l8.7-8.7C22.2,4.1,22.2,2.9,21.5,2.2L21.5,2.2z"/>
	<path class="st2" d="M12.3,12.2L9.8,9.7l6.4-6.4l2.5,2.5L12.3,12.2z"/>
</g>
</svg>
