<svg xmlns="http://www.w3.org/2000/svg" width="22" height="19" viewBox="0 0 22 19">
    <g fill="none" fill-rule="evenodd">
        <g fill="#08376D" fill-rule="nonzero">
            <path stroke="#08376D" stroke-width=".6" d="M20.472 6.444c0-.797-.664-1.444-1.482-1.444H2.481C1.663 5 1 5.647 1 6.444v9.982c0 .797.663 1.444 1.481 1.444h16.51c.817 0 1.48-.647 1.48-1.444V6.444zm-.988 9.982a.488.488 0 0 1-.494.481H2.481a.488.488 0 0 1-.493-.481V6.444c0-.265.22-.481.493-.481h16.51c.272 0 .493.216.493.481v9.982z"/>
            <path d="M15 14h3v1h-3zM4 8h3v1H4z"/>
        </g>
        <path fill="#08376D" fill-rule="nonzero" d="M20.594 3.885l-.992.992-2.48-2.483.992-.992a.547.547 0 0 1 .756 0l1.724 1.727a.536.536 0 0 1 0 .756zm-11.34 7.01l1.856 1.86-2.584.728.729-2.587zm12.225-8.65L19.755.517c-.337-.337-1.552-.974-2.522 0l-8.734 8.74a.601.601 0 0 0-.16.272l-1.316 4.688a.637.637 0 0 0 .16.612c.158.162.477.19.611.159l4.684-1.32a.601.601 0 0 0 .273-.159l8.728-8.74a1.79 1.79 0 0 0 0-2.526z"/>
        <path fill="#FFF" d="M12.307 12.182l-2.48-2.483 6.41-6.42 2.48 2.483z"/>
    </g>
</svg>
