<svg xmlns="http://www.w3.org/2000/svg" width="20" height="20" viewBox="0 0 20 20">
    <g fill="none" fill-rule="nonzero">
        <path fill="#08376D" d="M7.617 10.547a.587.587 0 0 1-.586-.586c0-.48.594-.886 1.22-.28a.586.586 0 0 0 .815-.842 2.301 2.301 0 0 0-.863-.54v-.682a.586.586 0 0 0-1.172 0v.687A1.755 1.755 0 0 0 5.86 9.96c0 .97.789 1.758 1.758 1.758.323 0 .586.263.586.586 0 .505-.67.947-1.346.143a.586.586 0 0 0-.898.753c.317.377.686.636 1.072.766v.681a.586.586 0 0 0 1.172 0v-.686l.016-.005a1.763 1.763 0 0 0 1.156-1.652 1.76 1.76 0 0 0-1.758-1.758z"/>
        <path fill="#003771" d="M18.242 0H1.758A1.76 1.76 0 0 0 0 1.758v2.344c0 .969.789 1.757 1.758 1.757h1.758v12.383c0 .156.061.305.171.415l1.172 1.171c.229.23.6.23.829 0l.757-.757.758.757c.229.23.6.23.829 0l.757-.757.758.757c.223.224.584.23.815.013l.836-.783.77.77c.23.23.6.23.83 0l.757-.757.757.757c.23.23.6.23.829 0l1.172-1.172a.586.586 0 0 0 .171-.414V5.86h1.758A1.76 1.76 0 0 0 20 4.102V1.758A1.76 1.76 0 0 0 18.242 0zm-2.93 4.688h-.585a.586.586 0 0 0 0 1.171h.585V18l-.585.586-.758-.757a.586.586 0 0 0-.829 0l-.757.757-.758-.757a.586.586 0 0 0-.815-.013l-.836.784-.77-.771a.586.586 0 0 0-.83 0l-.757.757-.757-.757a.586.586 0 0 0-.829 0l-.758.757L4.688 18V5.86H15.7a.586.586 0 0 0 0-1.171H4.688V3.516h10.625v1.171zm3.516-.586a.587.587 0 0 1-.586.585h-1.758V3.516h.586a.586.586 0 0 0 0-1.172H2.93a.586.586 0 0 0 0 1.172h.586v1.171H1.758a.587.587 0 0 1-.586-.585V1.758c0-.323.263-.586.586-.586h16.484c.323 0 .586.263.586.586v2.344z"/>
        <path fill="#08376D" d="M13.555 8.203H11.21a.586.586 0 0 0 0 1.172h2.344a.586.586 0 0 0 0-1.172zM13.555 10.547H11.21a.586.586 0 0 0 0 1.172h2.344a.586.586 0 0 0 0-1.172zM13.555 12.89H11.21a.586.586 0 0 0 0 1.172h2.344a.586.586 0 0 0 0-1.171z"/>
    </g>
</svg>
