<svg xmlns="http://www.w3.org/2000/svg" width="19" height="22" viewBox="0 0 19 22">
    <path fill="#FFF" fill-rule="nonzero" stroke="#FFF" stroke-width=".3" d="M18.224 2.356a.63.63 0 0 0-.583-.061c-.042.018-4.161 1.647-7.623.015C7.045.906 3.77 1.562 2.25 2.006v-.381a.625.625 0 0 0-1.25 0v18.75a.625.625 0 0 0 1.25 0v-7.059c1.107-.361 4.39-1.22 7.234.124 1.351.639 2.765.851 4.049.851 2.468 0 4.453-.786 4.577-.836a.627.627 0 0 0 .39-.58v-10a.628.628 0 0 0-.276-.519zm-.974 10.076c-1.114.362-4.395 1.217-7.234-.123-2.971-1.403-6.245-.746-7.766-.303V3.318c1.107-.362 4.39-1.22 7.234.123 2.969 1.402 6.245.747 7.766.302v8.69z"/>
</svg>
