<svg xmlns="http://www.w3.org/2000/svg" width="18" height="20" viewBox="0 0 18 20">
    <g fill="none" fill-rule="evenodd">
        <path d="M7.372 12.033a.715.715 0 0 1-.598-.664.708.708 0 0 1 .546-.703c1.22-.311 2.07-1.365 2.07-2.563 0-1.465-1.254-2.657-2.796-2.657-1.542 0-2.797 1.192-2.797 2.657 0 1.198.851 2.252 2.07 2.563.332.085.559.377.546.703a.714.714 0 0 1-.598.664c-1.91.351-3.295 1.948-3.295 3.798v1.765h8.147V15.83c0-1.85-1.386-3.447-3.295-3.798z"/>
        <path d="M12.185 8.991a.715.715 0 0 1-.598-.664.707.707 0 0 1 .546-.703c1.22-.311 2.07-1.365 2.07-2.563 0-1.465-1.254-2.657-2.797-2.657-1.37 0-2.495.914-2.743 2.148 1.196.632 2.042 1.791 2.184 3.145a.69.69 0 0 1 .38.63.697.697 0 0 1-.454.612 4.041 4.041 0 0 1-1.46 2.295c1.322.707 2.287 1.911 2.659 3.32h3.508v-1.766c0-1.849-1.386-3.446-3.295-3.797z"/>
        <path fill="#B4C0D6" fill-rule="nonzero" stroke="#B4C0D6" stroke-width=".3" d="M14.125 8.191c.962-.754 1.556-1.892 1.556-3.13C15.681 2.822 13.764 1 11.406 1c-2.023 0-3.7 1.305-4.153 3.096a4.477 4.477 0 0 0-.66-.054c-2.356 0-4.274 1.822-4.274 4.062 0 1.238.594 2.375 1.555 3.13-1.708.913-2.832 2.652-2.832 4.597v2.467c0 .388.331.702.74.702h9.624c.408 0 .74-.314.74-.702v-2.34h4.073c.408 0 .739-.315.739-.702v-2.468c0-1.944-1.124-3.683-2.833-4.597zm-3.458 9.405H2.52V15.83c0-1.85 1.386-3.447 3.295-3.798a.714.714 0 0 0 .598-.664.707.707 0 0 0-.546-.703c-1.219-.311-2.07-1.365-2.07-2.563 0-1.465 1.255-2.657 2.797-2.657 1.542 0 2.797 1.192 2.797 2.657 0 1.198-.851 2.252-2.07 2.563a.707.707 0 0 0-.547.703c.012.327.26.602.598.664 1.91.351 3.295 1.948 3.295 3.798v1.765zm4.813-3.042h-3.508c-.372-1.409-1.337-2.613-2.66-3.32a4.04 4.04 0 0 0 1.461-2.295.697.697 0 0 0 .453-.612.69.69 0 0 0-.38-.63c-.141-1.354-.987-2.513-2.183-3.145.248-1.234 1.373-2.148 2.743-2.148 1.543 0 2.797 1.192 2.797 2.657 0 1.198-.85 2.252-2.07 2.563a.707.707 0 0 0-.546.703c.012.327.26.602.598.664 1.91.351 3.295 1.948 3.295 3.797v1.766z"/>
    </g>
</svg>
