<svg xmlns="http://www.w3.org/2000/svg" width="23" height="18" viewBox="0 0 23 18">
    <g fill="#B4C0D6" fill-rule="nonzero">
        <path d="M1.664 18h17.19c1.221 0 2.22-.888 2.22-1.972v-2.244c.942-.123 1.663-.839 1.663-1.701v-2.96c0-.862-.721-1.577-1.664-1.7V5.179c0-1.085-.998-1.973-2.218-1.973h-2.301L16.082.42a.479.479 0 0 0-.25-.345.565.565 0 0 0-.443-.05L2.773 3.207h-1.11C.75 3.206 0 3.872 0 4.686V16.52C0 17.334.749 18 1.664 18zm19.964-8.876v2.959c0 .419-.36.74-.832.74h-4.16c-.914 0-1.663-.667-1.663-1.48v-1.48c0-.813.749-1.479 1.664-1.479h4.159c.471 0 .832.32.832.74zM15.084 1.11l.36 2.095H6.821l8.263-2.095zM1.109 4.686c0-.272.25-.493.555-.493H18.855c.61 0 1.11.443 1.11.986v2.219h-3.328c-1.525 0-2.773 1.11-2.773 2.465v1.48c0 1.356 1.248 2.465 2.773 2.465h3.327v2.22c0 .542-.499.986-1.11.986H1.665c-.305 0-.555-.222-.555-.493V4.686z"/>
        <path d="M17.865 9.474c-.894 0-1.624.64-1.624 1.42 0 .782.73 1.422 1.624 1.422.893 0 1.624-.64 1.624-1.421 0-.782-.731-1.421-1.624-1.421zm0 1.894c-.298 0-.542-.213-.542-.473s.244-.474.542-.474c.297 0 .541.213.541.474 0 .26-.244.473-.541.473z"/>
    </g>
</svg>
