<svg xmlns="http://www.w3.org/2000/svg" width="25" height="18" viewBox="0 0 25 18">
    <g fill="#B4C0D6" fill-rule="nonzero" stroke="#B4C0D6" stroke-width=".4">
        <path d="M24.535 2.858c0-.982-.796-1.778-1.778-1.778H2.947c-.982 0-1.778.796-1.778 1.778v12.284c0 .982.796 1.778 1.778 1.778h19.81c.982 0 1.778-.796 1.778-1.778V2.858zM23.35 15.142a.593.593 0 0 1-.593.593H2.947a.593.593 0 0 1-.593-.593V2.858c0-.328.265-.593.593-.593h19.81c.327 0 .593.265.593.593v12.284z"/>
        <path d="M14.594 6.467h5.221v1.185h-5.221zM14.594 10.348h5.517v1.185h-5.517zM8.25 5.296A3.704 3.704 0 1 0 11.924 9 3.692 3.692 0 0 0 8.25 5.296zm0 6.223A2.519 2.519 0 1 1 10.74 9a2.507 2.507 0 0 1-2.49 2.519z"/>
    </g>
</svg>
