<svg xmlns="http://www.w3.org/2000/svg" width="16" height="20" viewBox="0 0 16 20">
    <path fill="#003771" fill-rule="nonzero" d="M14.853 0H.792A.788.788 0 0 0 0 .784v18.433c0 .433.355.783.792.783h14.06c.438 0 .793-.35.793-.783V.784A.789.789 0 0 0 14.853 0zM1.183 18.72V1.28h12.992v17.44H1.183zM4.456 5.665h6.733a.394.394 0 0 0 .396-.392.394.394 0 0 0-.396-.392H4.456a.395.395 0 0 0-.397.392c0 .216.178.392.397.392zm0 3.076h6.733a.393.393 0 0 0 .396-.39.393.393 0 0 0-.396-.392H4.456a.394.394 0 0 0-.397.392c0 .216.178.39.397.39zm0 3.078h6.733a.394.394 0 0 0 .396-.392.394.394 0 0 0-.396-.392H4.456a.395.395 0 0 0-.397.392c0 .217.178.392.397.392zm0 3.077h6.733a.394.394 0 0 0 .396-.392.394.394 0 0 0-.396-.392H4.456a.395.395 0 0 0-.397.392c0 .216.178.392.397.392z"/>
</svg>
