<svg xmlns="http://www.w3.org/2000/svg" width="52" height="56" viewBox="0 0 52 56">
    <g fill="none" fill-rule="nonzero">
        <path fill="#6E8C61" d="M19 51V35c0-3.314 4.253-6 9.5-6 1.237 0 2.416.154 3.5.426V0H0v56h23.253C20.691 54.925 19 53.088 19 51"/>
        <path fill="#E9E8D3" d="M5 22c2.406-3.862 6.65-6.437 11.5-6.437S25.594 18.137 28 22V11.311a5.697 5.697 0 0 1-.523.027c-3.176 0-5.75-2.602-5.75-5.81 0-.178.01-.354.026-.528H11.247c.015.174.026.35.026.528 0 3.208-2.574 5.81-5.75 5.81-.177 0-.35-.01-.523-.027V22zM20 43.55V41.06a14.06 14.06 0 0 1-3.214.376A13.95 13.95 0 0 1 5 35v10.689c.177-.016.355-.027.536-.027 3.255 0 5.893 2.6 5.893 5.81 0 .178-.011.354-.027.528H20v-8.45zM25 5.5C25 4.121 26.121 3 27.5 3S30 4.121 30 5.5 28.879 8 27.5 8A2.502 2.502 0 0 1 25 5.5M3 5.5C3 4.121 4.121 3 5.5 3S8 4.121 8 5.5 6.879 8 5.5 8A2.502 2.502 0 0 1 3 5.5M3 51.5C3 50.121 4.121 49 5.5 49S8 50.121 8 51.5 6.879 54 5.5 54A2.502 2.502 0 0 1 3 51.5"/>
        <path fill="#FCC62D" d="M40 35c0 3.314-4.477 6-10 6s-10-2.686-10-6 4.477-6 10-6 10 2.686 10 6"/>
        <path fill="#D19D18" d="M30 52c-5.523 0-10-2.686-10-6v4c0 3.314 4.477 6 10 6s10-2.686 10-6v-4c0 3.314-4.477 6-10 6"/>
        <path fill="#E4AF18" d="M30 49c-5.523 0-10-2.686-10-6v4c0 3.314 4.477 6 10 6s10-2.686 10-6v-4c0 3.314-4.477 6-10 6"/>
        <path fill="#D19D18" d="M30 45c-5.523 0-10-2.686-10-6v4c0 3.314 4.477 6 10 6s10-2.686 10-6v-4c0 3.314-4.477 6-10 6"/>
        <path fill="#E4AF18" d="M30 41c-5.523 0-10-2.686-10-6v4c0 3.314 4.477 6 10 6s10-2.686 10-6v-4c0 3.314-4.477 6-10 6"/>
        <path fill="#FCC62D" d="M52 24c0 3.314-4.477 6-10 6s-10-2.686-10-6 4.477-6 10-6 10 2.686 10 6"/>
        <path fill="#E9E8D3" d="M22.04 31.342c2.112-3.978.081-8.146.081-8.146-.858-.264-3.373.526-3.662 1.385-.893-.858-2.078-1.385-3.383-1.385-1.635 0-2.327 1.803-2.824 1.985a2.313 2.313 0 0 1-.75.137c-.75.012-1.452-.396-1.958-.98L5.794 20A14.193 14.193 0 0 0 3 28.5c0 3.21 1.05 6.157 2.794 8.5l3.716-4.306c.611-.706 1.51-1.135 2.403-.97.127.024.253.057.378.102.323.114 1.905 1.89 2.252 1.932 1.055 2.621 3.355 1.572 4.934.415.471-1.094 1.364-2.064 2.563-2.831"/>
        <path fill="#E4AF18" d="M41.906 52c-1.44 0-2.807-.182-4.047-.505-.483 1.117-1.488 2.106-2.859 2.872C36.806 55.377 39.23 56 41.906 56 47.481 56 52 53.314 52 50v-4c0 3.314-4.519 6-10.094 6"/>
        <path fill="#D19D18" d="M42.007 49c-1.301 0-2.542-.154-3.682-.426V51A3.8 3.8 0 0 1 38 52.495c1.228.323 2.58.505 4.007.505C47.527 53 52 50.314 52 47v-4c0 3.314-4.474 6-9.993 6"/>
        <path fill="#E4AF18" d="M41.77 45c-1.333 0-2.603-.154-3.77-.426v4c1.167.272 2.437.426 3.77.426C47.42 49 52 46.314 52 43v-4c0 3.314-4.58 6-10.23 6"/>
        <path fill="#D19D18" d="M41.77 41c-1.333 0-2.603-.154-3.77-.426v4c1.167.272 2.437.426 3.77.426C47.42 45 52 42.314 52 39v-4c0 3.314-4.58 6-10.23 6"/>
        <path fill="#E4AF18" d="M41.77 37c-1.333 0-2.603-.154-3.77-.426v4c1.167.272 2.437.426 3.77.426C47.42 41 52 38.314 52 35v-4c0 3.314-4.58 6-10.23 6"/>
        <path fill="#D19D18" d="M41.857 33c-1.76 0-3.415-.266-4.857-.732.711.82 1.12 1.747 1.12 2.732v1.574c1.157.272 2.416.426 3.737.426C47.459 37 52 34.314 52 31v-4c0 3.314-4.54 6-10.143 6"/>
        <path fill="#E4AF18" d="M42 29c-5.523 0-10-2.686-10-6v4c0 .985.403 1.912 1.104 2.732 1.76.577 3.19 1.464 4.108 2.536 1.422.466 3.053.732 4.788.732 5.523 0 10-2.686 10-6v-4c0 3.314-4.477 6-10 6"/>
        <path fill="#607B53" d="M41 17.576V0h-3v18a13.868 13.868 0 0 1 3-.424"/>
        <path fill="#546949" d="M38 17.77V0h-3v19c.864-.524 1.878-.944 3-1.23"/>
        <path fill="#607B53" d="M35 18.631V0h-3v23c0-1.725 1.157-3.274 3-4.369"/>
    </g>
</svg>
