<svg xmlns="http://www.w3.org/2000/svg" width="159" height="150" viewBox="0 0 159 150">
    <g fill="none" fill-rule="nonzero">
        <g fill="#C4BFAD">
            <path d="M37.792 26.947l19.981-1.738-43.395-3.776v.003a4 4 0 0 0-4.331 3.635L.35 135.255H.347a4 4 0 0 0 3.638 4.335l35.952 3.125-9.421-107.097a8 8 0 0 1 7.276-8.671zM57.773 144.266l57.058 4.965a4 4 0 0 0 4.332-3.634l.592-6.725-61.982 5.394z"/>
        </g>
        <path fill="#ECE8D8" d="M144.636 18.348l-17.837 1.56c-2.078 5.254-7.173 8.979-13.16 8.979-5.107 0-9.544-2.722-12.042-6.773L33.985 28.03a4 4 0 0 0-3.636 4.333l9.679 110.651a4 4 0 0 0 4.333 3.636l110.654-9.682a4 4 0 0 0 3.636-4.333L148.97 21.985a4 4 0 0 0-4.333-3.636z"/>
        <g fill="#C9B693">
            <path d="M123.015 62.437c.083 0 .168-.003.251-.012l8.519-.736c1.57-.132 2.728-1.497 2.592-3.043-.137-1.542-1.529-2.703-3.088-2.554l-8.519.736c-1.571.135-2.729 1.498-2.592 3.043.132 1.462 1.375 2.566 2.837 2.566M91.774 65.131c.083 0 .168-.002.251-.011l19.88-1.714c1.568-.135 2.728-1.498 2.592-3.043-.14-1.546-1.529-2.692-3.088-2.554l-19.88 1.714c-1.571.135-2.729 1.497-2.592 3.043.131 1.461 1.374 2.565 2.837 2.565M55.1 68.303l25.563-2.202c1.57-.135 2.728-1.498 2.592-3.043-.137-1.546-1.552-2.695-3.088-2.555l-25.562 2.203c-1.571.135-2.729 1.498-2.592 3.043.131 1.461 1.374 2.566 2.837 2.566.082 0 .168-.003.25-.012M112.9 74.603c-1.57.135-2.728 1.498-2.591 3.043.131 1.464 1.374 2.566 2.836 2.566.083 0 .168-.003.251-.012l19.88-1.714c1.571-.135 2.729-1.497 2.595-3.043-.14-1.545-1.528-2.694-3.088-2.554L112.9 74.603zM96.357 81.669c1.57-.135 2.728-1.498 2.591-3.043a2.839 2.839 0 0 0-3.088-2.554l-19.88 1.714c-1.57.135-2.728 1.497-2.594 3.043.131 1.464 1.377 2.565 2.837 2.565.085 0 .168-.003.25-.011l19.884-1.714zM56.593 85.099l8.52-.736c1.57-.135 2.728-1.498 2.59-3.043-.133-1.546-1.505-2.683-3.087-2.554l-8.519.736c-1.57.135-2.728 1.497-2.591 3.043.13 1.46 1.374 2.565 2.836 2.565.083 0 .169-.003.251-.011M128.59 90.172c-1.569.135-2.73 1.498-2.59 3.046.132 1.46 1.375 2.562 2.837 2.562.083 0 .168-.002.254-.011l5.68-.492c1.568-.132 2.728-1.497 2.588-3.046-.14-1.54-1.468-2.683-3.09-2.55l-5.68.491zM88.828 93.6c-1.57.135-2.728 1.497-2.591 3.043.128 1.463 1.374 2.565 2.836 2.565.083 0 .168-.003.251-.012l28.405-2.447c1.57-.135 2.728-1.497 2.591-3.043-.137-1.545-1.53-2.683-3.087-2.554L88.828 93.6zM71.789 95.07l-14.201 1.225c-1.571.132-2.729 1.498-2.594 3.043.128 1.461 1.377 2.565 2.836 2.565.086 0 .168-.002.251-.011l14.204-1.225c1.571-.135 2.729-1.498 2.592-3.043-.134-1.545-1.517-2.694-3.088-2.554M135.764 106.477l-28.402 2.45c-1.57.135-2.728 1.497-2.591 3.043.13 1.464 1.374 2.565 2.836 2.565.083 0 .168-.003.251-.011l28.402-2.45c1.571-.136 2.728-1.498 2.592-3.044a2.831 2.831 0 0 0-3.088-2.553M90.32 110.395l-11.358.98c-1.57.133-2.728 1.498-2.594 3.044.131 1.46 1.377 2.565 2.84 2.565.082 0 .165-.003.247-.012l11.361-.98c1.571-.135 2.729-1.498 2.592-3.043-.137-1.546-1.505-2.69-3.087-2.554M67.599 112.354l-8.519.736c-1.57.135-2.728 1.498-2.592 3.043.129 1.461 1.375 2.565 2.837 2.565.083 0 .165-.003.251-.011l8.519-.736c1.571-.135 2.728-1.498 2.592-3.043-.137-1.545-1.551-2.692-3.088-2.554"/>
        </g>
        <path fill="#B8BDC1" d="M87.814 42c-.72 0-1.44-.276-1.989-.824a2.81 2.81 0 0 1 0-3.978l15.374-15.375a2.815 2.815 0 0 1 3.978 0 2.815 2.815 0 0 1 0 3.978L89.803 41.176a2.806 2.806 0 0 1-1.99.824"/>
        <path fill="#E02B22" d="M127 14c0-7.73-6.27-14-14-14S99 6.27 99 14s6.27 14 14 14 14-6.27 14-14"/>
    </g>
</svg>
