<svg xmlns="http://www.w3.org/2000/svg" width="136" height="118" viewBox="0 0 136 118">
    <g fill="none" fill-rule="nonzero">
        <path fill="#F0EDE0" d="M.067 59.233h106.194v50.966H.067z"/>
        <path fill="#D6D0BB" d="M62.622 79.795h-4.94a1.645 1.645 0 1 1 0-3.288h4.94a1.645 1.645 0 1 1 0 3.288M37.925 73.219h-4.94a1.645 1.645 0 1 1 0-3.288h4.94a1.645 1.645 0 1 1 0 3.288M62.622 73.219H51.097a1.645 1.645 0 1 1 0-3.288h11.525a1.645 1.645 0 1 1 0 3.288M44.51 73.219c-.444 0-.855-.181-1.168-.477a1.728 1.728 0 0 1-.478-1.167c0-.428.182-.857.478-1.168.61-.608 1.712-.608 2.338 0 .296.311.477.74.477 1.168 0 .427-.18.855-.477 1.167a1.736 1.736 0 0 1-1.17.477M51.097 79.795H39.572a1.645 1.645 0 1 1 0-3.288h11.525a1.645 1.645 0 1 1 0 3.288M32.986 79.795c-.445 0-.856-.18-1.17-.477a1.728 1.728 0 0 1-.477-1.167c0-.445.182-.857.478-1.167.61-.609 1.712-.609 2.338 0 .296.31.477.722.477 1.167 0 .428-.18.855-.477 1.167a1.736 1.736 0 0 1-1.17.477"/>
        <path fill="#56B46F" d="M14.875 98.247c-4.539 0-8.232-3.688-8.232-8.22 0-.91.738-1.645 1.647-1.645.908 0 1.646.735 1.646 1.644a4.942 4.942 0 0 0 8.713 3.183 2.398 2.398 0 0 0 .545-1.818 2.692 2.692 0 0 0-1.024-1.838l-8.611-6.688a5.998 5.998 0 0 1-2.277-4.097 5.642 5.642 0 0 1 1.307-4.28 8.222 8.222 0 0 1 6.286-2.913c4.54 0 8.232 3.69 8.232 8.22 0 .91-.737 1.644-1.646 1.644a1.645 1.645 0 0 1-1.646-1.644 4.942 4.942 0 0 0-8.713-3.181 2.389 2.389 0 0 0-.545 1.813 2.7 2.7 0 0 0 1.024 1.842l8.61 6.69a5.994 5.994 0 0 1 2.278 4.09 5.661 5.661 0 0 1-1.306 4.284 8.228 8.228 0 0 1-6.288 2.914"/>
        <path fill="#56B46F" d="M14.875 101.168a1.645 1.645 0 0 1-1.646-1.644V69.931c0-.91.737-1.644 1.646-1.644.91 0 1.647.734 1.647 1.644v29.593c0 .91-.738 1.644-1.647 1.644"/>
        <path fill="#D6D0BB" d="M38.162 88.673c-3.607 1.876-4.82 5.458-5.262 9.177l-2.045-1.71c-1.615-1.35-3.958.962-2.328 2.325 1.54 1.29 3.08 2.577 4.62 3.865 1.09.911 2.76.347 2.81-1.162.12-3.564.294-7.798 3.866-9.656 1.887-.98.22-3.817-1.66-2.839M53.538 97.03c-.856-1.529-2.703-2.287-4.425-1.8-2.248.634-4.91 3.357-6.48.174-.94-1.902-3.78-.235-2.844 1.66.845 1.71 2.47 2.955 4.394 3.175 1 .114 1.84-.02 2.78-.371.67-.25 3.165-2.189 3.732-1.18 1.035 1.854 3.88.195 2.843-1.658"/>
        <path fill="#D85B4B" d="M88.964 38.669"/>
        <path fill="#E6E7E9" d="M81.242 9.668l6.062 2.573-2.57 6.053-6.062-2.573z"/>
        <path fill="#D85B4B" d="M91.801 1.647L88.747.351a3.282 3.282 0 0 0-1.9-.201 3.26 3.26 0 0 0-2.383 1.928l-3.222 7.59 6.062 2.573 4.497-10.594z"/>
        <path fill="#E38E23" d="M84.735 18.294l6.062 2.574-24.41 57.508-6.063-2.573z"/>
        <path fill="#CFCECE" d="M87.304 12.241l6.063 2.574-2.57 6.053-6.062-2.574z"/>
        <path fill="#C56256" d="M93.367 14.814l3.221-7.59a3.258 3.258 0 0 0-.662-3.547 3.288 3.288 0 0 0-1.071-.734l-3.054-1.296-4.497 10.594 6.063 2.573z"/>
        <path fill="#EDDDC8" d="M66.386 78.376L54.262 73.23l1.565 13.167z"/>
        <path fill="#5F5F5F" d="M53.027 88.78c-.355.837.035 1.8.873 2.157a1.644 1.644 0 0 0 2.158-.87l2.57-6.054-3.032-1.287-2.57 6.054z"/>
        <path fill="#F39D20" d="M78.672 15.721l6.063 2.573-24.411 57.509-6.063-2.573z"/>
        <g>
            <path fill="#8798CC" d="M132.414 117.998H75.479a3.553 3.553 0 0 1-3.552-3.555V75.137a3.553 3.553 0 0 1 3.552-3.555h56.935a3.553 3.553 0 0 1 3.552 3.555v39.306a3.553 3.553 0 0 1-3.552 3.555"/>
            <path fill="#556180" d="M71.927 76.555h64.039v8.289h-64.04z"/>
            <path fill="#B0D3F0" d="M87.302 91.474h-9.404c-.578 0-1.045.372-1.045.83 0 .457.467.828 1.045.828h9.404c.578 0 1.045-.371 1.045-.829 0-.457-.467-.829-1.045-.829M103.125 92.303c0-.457-.467-.829-1.045-.829h-9.404c-.578 0-1.045.372-1.045.83 0 .457.467.828 1.045.828h9.404c.578 0 1.045-.371 1.045-.829M79.042 96.448h-1.094c-.606 0-1.095.37-1.095.828 0 .458.49.83 1.095.83h1.094c.606 0 1.095-.372 1.095-.83 0-.457-.49-.828-1.095-.828M87.116 96.448h-2.463c-.681 0-1.232.37-1.232.828 0 .458.55.83 1.232.83h2.463c.68 0 1.231-.372 1.231-.83 0-.457-.55-.828-1.231-.828M92.179 96.448h-1.095c-.605 0-1.095.37-1.095.828 0 .458.49.83 1.095.83h1.095c.605 0 1.094-.372 1.094-.83 0-.457-.49-.828-1.094-.828M98.61 96.448h-2.463c-.681 0-1.232.37-1.232.828 0 .458.55.83 1.232.83h2.463c.68 0 1.231-.372 1.231-.83 0-.457-.55-.828-1.231-.828M101.721 96.68a.88.88 0 0 0-.238.591c0 .217.09.434.238.592.155.15.36.242.583.242a.858.858 0 0 0 .583-.242.884.884 0 0 0 .238-.592.884.884 0 0 0-.238-.592c-.303-.309-.862-.309-1.166 0"/>
            <path fill="#91BAE1" d="M111.336 99.763h18.062v11.604h-18.062z"/>
        </g>
    </g>
</svg>
