<svg xmlns="http://www.w3.org/2000/svg" width="62" height="59" viewBox="0 0 62 59">
    <g fill="none" fill-rule="nonzero">
        <path fill="#E56353" d="M58.633 6.231H2.378C1.065 6.231 0 7.284 0 8.583v8.055h61.01V8.583c0-1.299-1.064-2.352-2.377-2.352z"/>
        <g fill="#D15241" transform="translate(6.852 9.086)">
            <ellipse cx="8.207" cy="2.152" rx="2.09" ry="2.067"/>
            <ellipse cx="2.175" cy="2.152" rx="2.09" ry="2.067"/>
        </g>
        <g fill="#64798A">
            <path d="M9.027 0C8.084 0 7.32.756 7.32 1.688v9.086c0 .933.764 1.688 1.707 1.688.942 0 1.707-.755 1.707-1.688V1.688C10.734.756 9.969 0 9.027 0zM15.059 0c-.943 0-1.707.756-1.707 1.688v9.086c0 .933.764 1.688 1.707 1.688.942 0 1.707-.755 1.707-1.688V1.688C16.766.756 16 0 15.059 0z"/>
        </g>
        <g fill="#D15241" transform="translate(43.792 9.086)">
            <ellipse cx="8.189" cy="2.152" rx="2.09" ry="2.067"/>
            <ellipse cx="2.157" cy="2.152" rx="2.09" ry="2.067"/>
        </g>
        <g fill="#64798A">
            <path d="M45.952 0c-.943 0-1.707.756-1.707 1.688v9.086c0 .933.764 1.688 1.707 1.688.943 0 1.707-.755 1.707-1.688V1.688C47.659.756 46.895 0 45.952 0zM51.984 0c-.942 0-1.707.756-1.707 1.688v9.086c0 .933.765 1.688 1.707 1.688.943 0 1.707-.755 1.707-1.688V1.688C53.691.756 52.927 0 51.984 0z"/>
        </g>
        <path fill="#E1E4EB" d="M0 16.657v39.931c0 1.3 1.065 2.353 2.378 2.353h56.254c1.314 0 2.379-1.054 2.379-2.353V16.657H0z"/>
        <path fill="#B4C0D6" d="M32.585 20.414h-4.16c-.587 0-1.063.476-1.063 1.063v4.16c0 .587.476 1.063 1.064 1.063h4.16c.586 0 1.062-.476 1.062-1.063v-4.16c0-.587-.476-1.063-1.063-1.063z"/>
        <path fill="#E56353" d="M43.587 20.414h-4.16c-.587 0-1.063.476-1.063 1.063v4.16c0 .587.476 1.063 1.064 1.063h4.16c.586 0 1.062-.476 1.062-1.063v-4.16c0-.587-.476-1.063-1.063-1.063z"/>
        <path fill="#44C4A1" d="M54.59 20.414h-4.16c-.587 0-1.063.476-1.063 1.063v4.16c0 .587.476 1.063 1.063 1.063h4.16c.586 0 1.063-.476 1.063-1.063v-4.16c0-.587-.477-1.063-1.063-1.063z"/>
        <g fill="#B4C0D6">
            <path d="M10.581 29.909h-4.16c-.587 0-1.063.475-1.063 1.062v4.16c0 .587.476 1.063 1.063 1.063h4.16c.587 0 1.063-.476 1.063-1.063v-4.16c0-.587-.476-1.062-1.063-1.062zM21.583 29.909h-4.16c-.587 0-1.063.475-1.063 1.062v4.16c0 .587.476 1.063 1.063 1.063h4.16c.587 0 1.063-.476 1.063-1.063v-4.16c0-.587-.476-1.062-1.063-1.062zM32.585 29.909h-4.16c-.587 0-1.063.475-1.063 1.062v4.16c0 .587.476 1.063 1.064 1.063h4.16c.586 0 1.062-.476 1.062-1.063v-4.16c0-.587-.476-1.062-1.063-1.062z"/>
        </g>
        <path fill="#E56353" d="M43.587 29.909h-4.16c-.587 0-1.063.475-1.063 1.062v4.16c0 .587.476 1.063 1.064 1.063h4.16c.586 0 1.062-.476 1.062-1.063v-4.16c0-.587-.476-1.062-1.063-1.062z"/>
        <path fill="#44C4A1" d="M54.59 29.909h-4.16c-.587 0-1.063.475-1.063 1.062v4.16c0 .587.476 1.063 1.063 1.063h4.16c.586 0 1.063-.476 1.063-1.063v-4.16c0-.587-.477-1.062-1.063-1.062z"/>
        <g fill="#B4C0D6">
            <path d="M10.581 39.403h-4.16c-.587 0-1.063.476-1.063 1.063v4.16c0 .587.476 1.063 1.063 1.063h4.16c.587 0 1.063-.476 1.063-1.063v-4.16c0-.587-.476-1.063-1.063-1.063zM21.583 39.403h-4.16c-.587 0-1.063.476-1.063 1.063v4.16c0 .587.476 1.063 1.063 1.063h4.16c.587 0 1.063-.476 1.063-1.063v-4.16c0-.587-.476-1.063-1.063-1.063zM32.585 39.403h-4.16c-.587 0-1.063.476-1.063 1.063v4.16c0 .587.476 1.063 1.064 1.063h4.16c.586 0 1.062-.476 1.062-1.063v-4.16c0-.587-.476-1.063-1.063-1.063z"/>
        </g>
        <path fill="#E56353" d="M43.587 39.403h-4.16c-.587 0-1.063.476-1.063 1.063v4.16c0 .587.476 1.063 1.064 1.063h4.16c.586 0 1.062-.476 1.062-1.063v-4.16c0-.587-.476-1.063-1.063-1.063z"/>
        <path fill="#44C4A1" d="M54.59 39.403h-4.16c-.587 0-1.063.476-1.063 1.063v4.16c0 .587.476 1.063 1.063 1.063h4.16c.586 0 1.063-.476 1.063-1.063v-4.16c0-.587-.477-1.063-1.063-1.063z"/>
        <g fill="#B4C0D6">
            <path d="M10.581 48.897h-4.16c-.587 0-1.063.476-1.063 1.063v4.16c0 .587.476 1.063 1.063 1.063h4.16c.587 0 1.063-.476 1.063-1.063v-4.16c0-.587-.476-1.063-1.063-1.063zM21.583 48.897h-4.16c-.587 0-1.063.476-1.063 1.063v4.16c0 .587.476 1.063 1.063 1.063h4.16c.587 0 1.063-.476 1.063-1.063v-4.16c0-.587-.476-1.063-1.063-1.063z"/>
        </g>
    </g>
</svg>
