<svg xmlns="http://www.w3.org/2000/svg" width="50" height="63" viewBox="0 0 50 63">
    <g fill="none" fill-rule="nonzero">
        <path fill="#FFD155" d="M25.197 47.952c-9.118 0-16.536-7.406-16.536-16.508 0-9.103 7.418-16.508 16.536-16.508 9.117 0 16.535 7.405 16.535 16.508 0 9.102-7.417 16.508-16.535 16.508z"/>
        <path fill="#EBB72A" d="M24.38 38.044c-2.116-.071-3.845-1.18-3.845-2.325 0-.608.529-1.503 1.2-1.503.74 0 1.34 1.056 2.645 1.288v-2.898c-1.622-.626-3.528-1.395-3.528-3.685 0-2.271 1.658-3.363 3.528-3.63v-.502c0-.25.283-.483.67-.483.336 0 .671.233.671.483v.447c1.094.036 3.158.322 3.158 1.557 0 .483-.318 1.466-1.094 1.466-.582 0-.917-.572-2.064-.661v2.611c1.605.608 3.475 1.45 3.475 3.864 0 2.218-1.411 3.56-3.475 3.9v.519c0 .25-.335.483-.67.483-.388 0-.67-.233-.67-.483v-.448zm.177-8.264v-2.129c-.794.162-1.13.573-1.13 1.002 0 .519.46.84 1.13 1.127zm.988 3.31v2.396c.6-.143 1.076-.483 1.076-1.127 0-.59-.441-.966-1.076-1.27z"/>
        <path fill="#80D0E1" d="M48.954 4.53L41.619.281a2.093 2.093 0 0 0-2.864.77 2.106 2.106 0 0 0 .767 2.873l.558.322H24.93a2.1 2.1 0 0 0-2.096 2.103v4.518a2.1 2.1 0 0 0 2.096 2.103 2.1 2.1 0 0 0 2.097-2.103V8.454H40.08l-.558.322a2.106 2.106 0 0 0-.767 2.873 2.093 2.093 0 0 0 2.864.77l7.335-4.247c1.395-.808 1.395-2.835 0-3.643z"/>
        <path fill="#20B8AE" d="M25.068 49.917a2.1 2.1 0 0 0-2.096 2.103v2.414H9.92l.557-.323a2.106 2.106 0 0 0 .767-2.872 2.093 2.093 0 0 0-2.864-.77l-7.334 4.247c-1.38.799-1.412 2.826 0 3.643l7.334 4.247a2.094 2.094 0 0 0 2.864-.77 2.106 2.106 0 0 0-.767-2.873l-.557-.323h15.148a2.1 2.1 0 0 0 2.096-2.103V52.02a2.1 2.1 0 0 0-2.097-2.103z"/>
    </g>
</svg>
