<svg xmlns="http://www.w3.org/2000/svg" width="58" height="50" viewBox="0 0 58 50">
    <g fill="none" fill-rule="nonzero">
        <path fill="#B9785F" d="M1.04 41.833c-.555.557-.905 1.299-.926 2.085a2.992 2.992 0 0 0 1.309 2.561c.34.236.73.396 1.137.468a2.99 2.99 0 0 0 2.663-.829l24.313-24.312-4.234-4.234L1.041 41.833z"/>
        <path fill="#AA6955" d="M28.83 22.511l-4.233-4.233a.998.998 0 0 1 0-1.411l2.822-2.823 5.645 5.645-2.822 2.822a.998.998 0 0 1-1.412 0z"/>
        <g fill="#B9785F">
            <path d="M25.302 14.75a.998.998 0 0 1 0-1.412l5.645-5.644a.998.998 0 1 1 1.411 1.411l-5.645 5.645a.998.998 0 0 1-1.41 0zM32.358 21.806a.998.998 0 0 1 0-1.412l5.645-5.644a.998.998 0 1 1 1.411 1.411l-5.644 5.645a.998.998 0 0 1-1.412 0z"/>
        </g>
        <path fill="#FFD782" d="M32.358 20.395l-5.645-5.645 5.645-5.645 5.645 5.645z"/>
        <g fill="#B9785F">
            <path d="M18.246 10.516a1.996 1.996 0 0 1 0-2.822L25.302.638a1.996 1.996 0 1 1 2.822 2.822l-7.055 7.056c-.78.78-2.043.78-2.823 0zM36.592 28.862a1.996 1.996 0 0 1 0-2.823l7.056-7.056a1.996 1.996 0 0 1 2.822 2.822l-7.056 7.057c-.779.78-2.043.78-2.822 0z"/>
        </g>
        <g fill="#AA6955">
            <path d="M27.418 4.165l3.528 3.528-5.645 5.645-3.527-3.528zM39.414 16.162l3.528 3.528-5.645 5.645-3.528-3.528z"/>
        </g>
        <g fill="#FFC36E">
            <path d="M21.774 11.222a.998.998 0 0 1 0-1.412l5.645-5.645a.998.998 0 1 1 1.411 1.411l-5.645 5.646a.998.998 0 0 1-1.41 0zM35.886 25.334a.998.998 0 0 1 0-1.411l5.645-5.645a.998.998 0 1 1 1.411 1.411l-5.644 5.645a.998.998 0 0 1-1.412 0z"/>
        </g>
        <path fill="#B9785F" d="M55.038 45.955H33.085v-2.993c0-.551.447-.998.998-.998H54.04c.551 0 .998.447.998.998v2.993z"/>
        <path fill="#AA6955" d="M57.034 48.95H31.089v-1.997c0-1.102.893-1.996 1.996-1.996h21.953c1.102 0 1.996.894 1.996 1.996v1.996z"/>
        <path fill="#FFC36E" d="M57.034 49.947H31.089a.998.998 0 0 1 0-1.996h25.945a.998.998 0 1 1 0 1.996z"/>
    </g>
</svg>
