<svg xmlns="http://www.w3.org/2000/svg" width="58" height="50" viewBox="0 0 58 50">
    <g fill="none" fill-rule="nonzero">
        <path fill="#EB5031" d="M22.445 15.84a.75.75 0 0 1 1.453.189L25.097 30l2.245-8.072a.75.75 0 1 1 1.454.032l1.25 5.41 2.135-8.945a.752.752 0 0 1 1.473.069l1.593 11.328.714-2.302a.75.75 0 0 1 .716-.527h16.894v-3.858c0-3.56-2.894-6.448-6.466-6.448H36.841V6.449C36.841 2.887 33.947 0 30.376 0h-4.324c-3.57 0-6.466 2.887-6.466 6.449v10.238H9.321c-3.568 0-6.464 2.887-6.464 6.448v3.94h15.546l4.042-11.235z"/>
        <path fill="#EB5031" d="M35.706 33.045a.753.753 0 0 1-.78.52.748.748 0 0 1-.684-.636l-1.513-10.615-1.963 8.116a.75.75 0 0 1-.732.57h-.003a.75.75 0 0 1-.731-.575l-1.31-5.595-2.58 9.15a.752.752 0 0 1-.795.539.747.747 0 0 1-.68-.675l-1.266-14.558-3.07 8.422a.752.752 0 0 1-.71.491H2.857c.535 2.996 3.192 5.274 6.388 5.274h10.302v10.14c0 3.527 2.907 6.387 6.49 6.387h4.339c3.585 0 6.49-2.86 6.49-6.388v-10.14h10.3c3.23 0 5.905-2.318 6.405-5.354H37.256l-1.55 4.927z"/>
        <path fill="#F7F1E6" d="M56.393 27.169H36.888c-.328 0-.619.21-.716.518l-.714 2.264-1.592-11.14a.745.745 0 0 0-.708-.632.75.75 0 0 0-.764.565L30.26 27.54l-1.25-5.32a.747.747 0 0 0-.714-.57.746.746 0 0 0-.74.54l-2.243 7.936-1.199-13.739a.742.742 0 0 0-.65-.666.75.75 0 0 0-.802.48l-4.04 11.049H.75c-.414 0-.75.33-.75.736 0 .406.336.736.75.736h18.399a.749.749 0 0 0 .706-.488l3.058-8.363 1.26 14.456a.743.743 0 0 0 .748.673.748.748 0 0 0 .723-.539l2.568-9.085 1.305 5.556c.078.333.38.57.728.57h.003a.747.747 0 0 0 .73-.565l1.954-8.059 1.507 10.54a.744.744 0 0 0 .682.632.75.75 0 0 0 .777-.516l1.543-4.893H56.393c.414 0 .75-.33.75-.736a.743.743 0 0 0-.75-.736z"/>
    </g>
</svg>
