<svg xmlns="http://www.w3.org/2000/svg" width="122" height="207" viewBox="0 0 122 207">
    <g fill="none" fill-rule="nonzero">
        <path fill="#959CB5" d="M114.823 57H7.177C3.213 57 0 60.198 0 64.143v135.714C0 203.802 3.213 207 7.177 207h107.646c3.964 0 7.177-3.198 7.177-7.143V64.143c0-3.945-3.213-7.143-7.177-7.143z"/>
        <path fill="#00C3FF" d="M103.423 85H17.577A3.574 3.574 0 0 0 14 88.571v17.858A3.574 3.574 0 0 0 17.577 110h85.846a3.574 3.574 0 0 0 3.577-3.571V88.57A3.574 3.574 0 0 0 103.423 85z"/>
        <path fill="#464655" d="M107.429 74H14.57C12.597 74 11 72.435 11 70.5s1.597-3.5 3.571-3.5h92.858c1.974 0 3.571 1.565 3.571 3.5s-1.598 3.5-3.571 3.5z"/>
        <g fill="#C7CFE2">
            <path d="M36.08 139.567H21.84c-1.965 0-3.56-1.619-3.56-3.616v-7.231c0-1.997 1.595-3.616 3.56-3.616h14.24c1.966 0 3.56 1.62 3.56 3.616v7.231c0 1.997-1.594 3.616-3.56 3.616zM100.159 139.567h-14.24c-1.966 0-3.56-1.619-3.56-3.616v-7.231c0-1.997 1.594-3.616 3.56-3.616h14.24c1.966 0 3.56 1.62 3.56 3.616v7.231c0 1.997-1.594 3.616-3.56 3.616zM68.12 139.567H53.88c-1.966 0-3.56-1.619-3.56-3.616v-7.231c0-1.997 1.594-3.616 3.56-3.616h14.24c1.965 0 3.56 1.62 3.56 3.616v7.231c0 1.997-1.595 3.616-3.56 3.616zM36.08 164.877H21.84c-1.965 0-3.56-1.619-3.56-3.616v-7.231c0-1.997 1.595-3.616 3.56-3.616h14.24c1.966 0 3.56 1.62 3.56 3.616v7.231c0 1.997-1.594 3.616-3.56 3.616zM100.159 164.877h-14.24c-1.966 0-3.56-1.619-3.56-3.616v-7.231c0-1.997 1.594-3.616 3.56-3.616h14.24c1.966 0 3.56 1.62 3.56 3.616v7.231c0 1.997-1.594 3.616-3.56 3.616zM68.12 164.877H53.88c-1.966 0-3.56-1.619-3.56-3.616v-7.231c0-1.997 1.594-3.616 3.56-3.616h14.24c1.965 0 3.56 1.62 3.56 3.616v7.231c0 1.997-1.595 3.616-3.56 3.616z"/>
        </g>
        <path fill="#707487" d="M35.5 189h-14a3.5 3.5 0 0 1-3.5-3.5v-7a3.5 3.5 0 0 1 3.5-3.5h14a3.5 3.5 0 0 1 3.5 3.5v7a3.5 3.5 0 0 1-3.5 3.5z"/>
        <path fill="#9BF57D" d="M99.5 189h-14a3.5 3.5 0 0 1-3.5-3.5v-7a3.5 3.5 0 0 1 3.5-3.5h14a3.5 3.5 0 0 1 3.5 3.5v7a3.5 3.5 0 0 1-3.5 3.5z"/>
        <path fill="#FFDC64" d="M67.5 189h-14a3.5 3.5 0 0 1-3.5-3.5v-7a3.5 3.5 0 0 1 3.5-3.5h14a3.5 3.5 0 0 1 3.5 3.5v7a3.5 3.5 0 0 1-3.5 3.5z"/>
        <path fill="#E4E7ED" d="M91.826 5.082L85.037.597a3.62 3.62 0 0 0-3.984 0l-6.789 4.485a3.62 3.62 0 0 1-3.983 0L63.49.597a3.62 3.62 0 0 0-3.983 0L52.72 5.082a3.62 3.62 0 0 1-3.983 0L41.946.597a3.62 3.62 0 0 0-3.983 0l-6.79 4.485a3.62 3.62 0 0 1-3.983 0l-2.586-1.708C23.491 2.639 22 3.429 22 4.754V74h79V4.755c0-1.326-1.49-2.117-2.604-1.381L95.81 5.082a3.62 3.62 0 0 1-3.984 0z"/>
        <g fill="#C7CFE2">
            <path d="M71.167 28.365H49.832c-1.965 0-3.556-1.614-3.556-3.609 0-1.994 1.59-3.609 3.556-3.609h21.335c1.966 0 3.556 1.615 3.556 3.61 0 1.994-1.59 3.608-3.556 3.608zM85.39 42.801H35.61c-1.966 0-3.557-1.614-3.557-3.609 0-1.994 1.59-3.608 3.556-3.608h49.782c1.965 0 3.556 1.614 3.556 3.608 0 1.995-1.591 3.61-3.556 3.61z"/>
        </g>
        <g fill="#AFB9D2">
            <path d="M42.72 55.979H35.61c-1.966 0-3.556-1.54-3.556-3.445 0-1.904 1.59-3.445 3.556-3.445h7.111c1.966 0 3.556 1.541 3.556 3.445s-1.59 3.445-3.556 3.445zM85.39 55.979h-7.11c-1.966 0-3.556-1.54-3.556-3.445 0-1.904 1.59-3.445 3.555-3.445h7.112c1.965 0 3.556 1.541 3.556 3.445s-1.591 3.445-3.556 3.445zM64.056 55.979h-7.112c-1.965 0-3.556-1.54-3.556-3.445 0-1.904 1.59-3.445 3.556-3.445h7.112c1.965 0 3.555 1.541 3.555 3.445s-1.59 3.445-3.555 3.445z"/>
        </g>
    </g>
</svg>
