<svg xmlns="http://www.w3.org/2000/svg" width="266" height="190" viewBox="0 0 266 190">
    <g fill="none">
        <path fill="#FACB73" d="M39.225 61.708c-16.76 0-30.393-13.634-30.393-30.393S22.466.922 39.225.922s30.392 13.634 30.392 30.393-13.633 30.393-30.392 30.393zM133.26 61.708c-16.76 0-30.393-13.634-30.393-30.393S116.501.922 133.26.922s30.392 13.634 30.392 30.393-13.633 30.393-30.392 30.393zM226.775 61.708c-16.759 0-30.392-13.634-30.392-30.393S210.016.922 226.775.922c16.76 0 30.393 13.634 30.393 30.393s-13.634 30.393-30.393 30.393z"/>
        <path fill="#01538D" d="M164.982 101.564l-5.384 84.279a4.071 4.071 0 01-4.063 3.812H133L112.273 80.836l52.71 20.728z"/>
        <path fill="#0272AA" d="M101.018 101.564l5.384 84.279a4.071 4.071 0 004.063 3.812H133V80.836l-31.982 20.728z"/>
        <path fill="#FF993A" d="M97.714 65.143h70.621a4.071 4.071 0 014.071 4.071v59.22a4.071 4.071 0 01-4.071 4.072h-70.62a4.071 4.071 0 01-4.072-4.071v-59.22a4.071 4.071 0 014.071-4.072z"/>
        <path fill="#04AFE3" d="M71.364 101.564l-5.384 84.279a4.071 4.071 0 01-4.063 3.812H39.382L18.654 80.836l52.71 20.728z"/>
        <path fill="#05CEFF" d="M7.4 101.564l5.384 84.279a4.071 4.071 0 004.063 3.812h22.535V80.836L7.4 101.564z"/>
        <path fill="#FF69B8" d="M4.071 65.292h70.621a4.071 4.071 0 014.072 4.072v59.22a4.071 4.071 0 01-4.072 4.072H4.072A4.071 4.071 0 010 128.584v-59.22a4.071 4.071 0 014.071-4.072z"/>
        <path fill="#04AFE3" d="M258.6 101.564l-5.384 84.279a4.071 4.071 0 01-4.063 3.812h-22.535L205.891 80.836l52.71 20.728z"/>
        <path fill="#05CEFF" d="M194.636 101.564l5.384 84.279a4.071 4.071 0 004.063 3.812h22.535V80.836l-31.982 20.728z"/>
        <path fill="#51946F" d="M191.306 65.292h70.62a4.071 4.071 0 014.072 4.072v59.22a4.071 4.071 0 01-4.072 4.072h-70.62a4.071 4.071 0 01-4.072-4.072v-59.22a4.071 4.071 0 014.072-4.072z"/>
    </g>
</svg>
