<svg xmlns="http://www.w3.org/2000/svg" width="204" height="171" viewBox="0 0 204 171">
    <g fill="none" fill-rule="evenodd">
        <g transform="translate(0 119.295)">
            <rect width="150.179" height="13.343" x="26.818" fill="#CAD3E2" rx="1"/>
            <rect width="176.997" height="24.018" x="13.409" y="13.343" fill="#DFE9F0" rx="1"/>
            <rect width="203.815" height="13.343" y="37.362" fill="#CAD3E2" rx="1"/>
        </g>
        <g fill-rule="nonzero">
            <path fill="#49618C" d="M87.799 0h15.273v170.029H87.799z"/>
            <path fill="#0BAEBE" d="M174.956 43.558L157.87 70.145a1 1 0 0 1-.841.46H28.172a1 1 0 0 1-1-1V16.43a1 1 0 0 1 1-1h128.857a1 1 0 0 1 .841.46l17.086 26.586a1 1 0 0 1 0 1.081z"/>
            <g fill="#F5FAFF">
                <path d="M42.678 55.57a2.633 2.633 0 0 1-2.627-2.64V33.105a2.633 2.633 0 0 1 2.627-2.64h7.783a2.633 2.633 0 0 1 2.626 2.64 2.633 2.633 0 0 1-2.626 2.64h-5.157V52.93a2.633 2.633 0 0 1-2.626 2.639zM63.516 55.57a2.633 2.633 0 0 1-2.627-2.64V33.105a2.633 2.633 0 0 1 2.627-2.64 2.633 2.633 0 0 1 2.626 2.64V52.93a2.632 2.632 0 0 1-2.626 2.639zM103.308 55.57a2.633 2.633 0 0 1-2.626-2.64V33.105a2.633 2.633 0 0 1 2.626-2.64 2.633 2.633 0 0 1 2.626 2.64V52.93a2.633 2.633 0 0 1-2.626 2.639zM90.836 55.57a2.623 2.623 0 0 1-2.215-1.222l-7.718-12.184v10.767a2.633 2.633 0 0 1-2.626 2.639 2.633 2.633 0 0 1-2.626-2.64V33.105c0-1.173.77-2.205 1.892-2.534a2.62 2.62 0 0 1 2.95 1.117L88.21 43.87V33.104a2.633 2.633 0 0 1 2.626-2.64 2.633 2.633 0 0 1 2.627 2.64V52.93a2.637 2.637 0 0 1-2.627 2.64zM150.165 55.57a2.633 2.633 0 0 1-2.627-2.64V33.105a2.633 2.633 0 0 1 2.627-2.64 2.633 2.633 0 0 1 2.626 2.64V52.93a2.633 2.633 0 0 1-2.626 2.639zM137.605 55.57a2.633 2.633 0 0 1-2.626-2.64V33.105a2.633 2.633 0 0 1 2.626-2.64 2.633 2.633 0 0 1 2.626 2.64V52.93a2.632 2.632 0 0 1-2.626 2.639zM120.62 55.57h-5.545a2.633 2.633 0 0 1-2.626-2.64 2.633 2.633 0 0 1 2.626-2.639h5.544a2.315 2.315 0 0 0 2.307-2.317 2.315 2.315 0 0 0-2.307-2.318h-.612c-4.167 0-7.558-3.407-7.558-7.595s3.39-7.596 7.558-7.596h5.545a2.633 2.633 0 0 1 2.626 2.64 2.633 2.633 0 0 1-2.626 2.639h-5.545a2.315 2.315 0 0 0-2.306 2.317 2.315 2.315 0 0 0 2.306 2.318h.612c4.168 0 7.559 3.407 7.559 7.595s-3.39 7.596-7.559 7.596z"/>
                <path d="M49.396 45.25h-6.718a2.633 2.633 0 0 1-2.627-2.639 2.633 2.633 0 0 1 2.627-2.639h6.718a2.633 2.633 0 0 1 2.626 2.64 2.633 2.633 0 0 1-2.626 2.638zM150.165 45.895h-12.56a2.633 2.633 0 0 1-2.626-2.639 2.633 2.633 0 0 1 2.627-2.64h12.559a2.633 2.633 0 0 1 2.626 2.64 2.633 2.633 0 0 1-2.626 2.64z"/>
            </g>
        </g>
    </g>
</svg>
