<svg xmlns="http://www.w3.org/2000/svg" width="200" height="183" viewBox="0 0 200 183">
    <g fill="none" fill-rule="nonzero">
        <path fill="#FCD577" d="M166.916 72.797a.707.707 0 0 0-.207.5v104.895a4 4 0 0 1-4 4H37.29a4 4 0 0 1-4-4V73.296a.707.707 0 0 0-.206-.5.293.293 0 0 1 0-.413L97.172 8.308a4 4 0 0 1 5.657 0l64.088 64.075a.293.293 0 0 1 0 .414z"/>
        <path fill="#CFDCE5" d="M158.904 64.663V14.959a4 4 0 0 0-4-4h-22.137a4 4 0 0 0-4 4v17.535a4 4 0 0 0 .705 2.267"/>
        <path fill="#FF6F52" d="M191.567 104.026l-88.74-88.637a4 4 0 0 0-5.653 0l-88.74 88.637a4 4 0 0 1-5.654 0l-1.316-1.315a4 4 0 0 1 0-5.66l95.71-95.597a4 4 0 0 1 5.653 0l95.71 95.597a4 4 0 0 1 0 5.66l-1.317 1.315a4 4 0 0 1-5.653 0z"/>
        <path fill="#CFDCE5" d="M49.315 101.37H94.52v80.822H49.315z"/>
        <path fill="#EAC36E" d="M97.26 182.192h-4.54v-73.745a4 4 0 0 0-4-4H55.116a4 4 0 0 0-4 4v73.745h-4.54V104a4 4 0 0 1 4-4H93.26a4 4 0 0 1 4 4v78.192z"/>
        <g fill="#4EBFED">
            <path d="M108.55 101.072h45.964V146.4H108.55zM85.185 46.916h29.84v29.428h-29.84z"/>
        </g>
        <g fill="#EAC36E">
            <path d="M105.855 103.325v41.68a4 4 0 0 0 4 4h42.291a4 4 0 0 0 4-4v-41.68a4 4 0 0 0-4-4h-42.291a4 4 0 0 0-4 4zm41.787 18.615h-10.39a4 4 0 0 1-4-4v-10.166a4 4 0 0 1 4-4h10.39a4 4 0 0 1 4 4v10.166a4 4 0 0 1-4 4zm-18.894-14.166v10.167a4 4 0 0 1-4 4h-10.39a4 4 0 0 1-4-4v-10.167a4 4 0 0 1 4-4h10.39a4 4 0 0 1 4 4zm0 22.615v10.166a4 4 0 0 1-4 4h-10.39a4 4 0 0 1-4-4V130.39a4 4 0 0 1 4-4h10.39a4 4 0 0 1 4 4zm4.505 10.166V130.39a4 4 0 0 1 4-4h10.39a4 4 0 0 1 4 4v10.166a4 4 0 0 1-4 4h-10.39a4 4 0 0 1-4-4zM112.808 45.286h-26.23a4 4 0 0 0-4 4v25.815a4 4 0 0 0 4 4h26.23a4 4 0 0 0 4-4V49.286a4 4 0 0 0-4-4zm-4.504 29.366H91.082a4 4 0 0 1-4-4V53.735a4 4 0 0 1 4-4h17.222a4 4 0 0 1 4 4v16.917a4 4 0 0 1-4 4z"/>
        </g>
        <circle cx="81.507" cy="144.521" r="3.425" fill="#FF6F52"/>
    </g>
</svg>
