<svg xmlns="http://www.w3.org/2000/svg" width="81" height="64" viewBox="0 0 81 64">
    <g fill="none" fill-rule="nonzero">
        <g fill="#49618C">
            <path d="M8.708 26.966v34.42a2.466 2.466 0 1 1-4.933 0V26.374l4.933.592zM76.734 26.376v35.01a2.466 2.466 0 1 1-4.933 0v-34.42l4.933-.59z"/>
        </g>
        <path fill="#0BAEBE" d="M80.511 2.156v22.232a2 2 0 0 1-1.78 1.988c-14.093 1.554-24.748 2.413-31.967 2.578-15.28.347-29.591-.35-44.764-2.454a2.318 2.318 0 0 1-2-2.296V24 2.269A2 2 0 0 1 2.257.285c3.975.515 7.042.881 9.2 1.1C26.414 2.901 48.713 2.493 78.354.162a2 2 0 0 1 2.157 1.994z"/>
        <g fill="#3B4773">
            <path d="M3.776 26.688l4.932.592v5.669c-1.644-.183-3.29-.38-4.932-.592v-5.669zM76.734 26.69v5.667c-1.643.212-3.288.41-4.933.592V27.28l4.933-.59z"/>
        </g>
        <g fill="#F5FAFF">
            <path d="M32.175 11.756h-.051c-2.63-.11-5.294-.274-7.915-.489a1.232 1.232 0 0 1 .201-2.456c2.589.212 5.218.374 7.815.482a1.233 1.233 0 0 1-.05 2.463z"/>
            <path d="M28.24 22.208c-.68 0-1.232-.552-1.232-1.232V10.32a1.232 1.232 0 0 1 2.465 0v10.655c0 .68-.552 1.232-1.233 1.232zM58.636 11.057a1.233 1.233 0 0 1-.114-2.46c2.59-.244 5.21-.546 7.788-.895a1.232 1.232 0 1 1 .33 2.443c-2.61.353-5.263.658-7.886.906a1.41 1.41 0 0 1-.118.006z"/>
            <path d="M62.56 21.3c-.681 0-1.233-.551-1.233-1.232V9.414a1.232 1.232 0 1 1 2.465 0v10.654c0 .68-.552 1.232-1.232 1.232zM47.51 17.608a1.233 1.233 0 0 1-1.232-1.232v-5.82c0-.662.524-1.206 1.186-1.231a194.76 194.76 0 0 0 3.078-.139 3.802 3.802 0 0 1 2.857 1.035 3.762 3.762 0 0 1 1.171 2.759v.365c0 2.159-1.748 4.008-3.897 4.122a194.98 194.98 0 0 1-3.163.141zm1.232-5.868v3.353c.603-.027 1.204-.056 1.8-.088.848-.044 1.564-.805 1.564-1.66v-.365c0-.38-.143-.725-.403-.971a1.372 1.372 0 0 0-1.03-.362c-.642.034-1.287.065-1.93.093z"/>
            <path d="M47.51 22.443c-.68 0-1.232-.552-1.232-1.232v-4.835c0-.663.524-1.207 1.186-1.232.327-.012.654-.025.98-.039 1.655-.07 3.205.505 4.364 1.616 1.136 1.09 1.762 2.577 1.762 4.186a1.232 1.232 0 1 1-2.464 0c0-.931-.357-1.786-1.004-2.407-.625-.6-1.457-.928-2.36-.936v3.646c0 .681-.551 1.233-1.232 1.233zM42.015 22.57c-.681 0-1.233-.552-1.233-1.232v-7.826c0-.872-.722-1.587-1.61-1.592-.438.004-.841.162-1.143.462a1.538 1.538 0 0 0-.454 1.099v7.825a1.232 1.232 0 0 1-2.465 0v-7.825c0-1.078.42-2.09 1.181-2.847a4.054 4.054 0 0 1 2.894-1.178c2.24.013 4.062 1.832 4.062 4.056v7.825c0 .681-.552 1.233-1.232 1.233z"/>
            <path d="M40.261 17.647c-1.315 0-2.635-.013-3.943-.039a1.232 1.232 0 1 1 .05-2.464c1.87.038 3.766.048 5.635.03h.011a1.232 1.232 0 0 1 .011 2.465c-.585.006-1.174.008-1.764.008zM17.34 21.21c-.155 0-.31-.009-.468-.028-.997-.12-2.007-.248-3.002-.383a1.233 1.233 0 0 1 .33-2.442c.983.133 1.981.26 2.965.378.352.042.674-.05.91-.259.238-.21.369-.524.369-.881 0-.841-.72-1.638-1.572-1.74l-.331-.04c-2.096-.254-3.738-2.112-3.738-4.228 0-1.062.418-2.017 1.179-2.691.769-.682 1.783-.985 2.855-.855.983.12 1.982.233 2.969.337a1.232 1.232 0 0 1-.26 2.451c-1-.106-2.01-.22-3.006-.342-.362-.044-.69.046-.923.253-.229.203-.35.495-.35.847 0 .847.734 1.68 1.57 1.781l.329.04c2.099.252 3.743 2.09 3.743 4.186 0 1.057-.437 2.05-1.198 2.726a3.533 3.533 0 0 1-2.371.89z"/>
        </g>
    </g>
</svg>
