<svg xmlns="http://www.w3.org/2000/svg" width="45" height="64" viewBox="0 0 45 64">
    <g fill="none" fill-rule="nonzero">
        <path fill="#F7F1E6" d="M38.626 11.004c-2.569 0-4.65-2.117-4.65-4.728v-6.1l5.496 5.412L33.976 0H4.65C2.082 0 0 2.116 0 4.727v54.546C0 61.883 2.082 64 4.65 64h35.5c2.568 0 4.65-2.116 4.65-4.727v-48.27h-6.174zm-24.472.434c0-.925.738-1.675 1.647-1.675h2.617v-2.66c0-.924.738-1.675 1.648-1.675H21.168c.91 0 1.648.75 1.648 1.676v2.66h2.617c.91 0 1.648.75 1.648 1.674v1.121c0 .925-.738 1.675-1.648 1.675h-2.617v2.66c0 .925-.737 1.675-1.648 1.675H20.066c-.91 0-1.648-.75-1.648-1.675v-2.66H15.8c-.91 0-1.647-.75-1.647-1.675v-1.12zM6.183 23.261c0-.844.673-1.529 1.503-1.529h4.964c.83 0 1.504.685 1.504 1.529v5.045c0 .844-.673 1.529-1.504 1.529H7.686c-.83 0-1.503-.685-1.503-1.53v-5.044zm33.14 27.962H7.28a.765.765 0 0 1-.759-.771c0-.426.34-.771.76-.771h32.042c.419 0 .758.345.758.77 0 .427-.34.772-.758.772zm0-7.007H7.28a.765.765 0 0 1-.759-.77c0-.427.34-.772.76-.772h32.042c.419 0 .758.345.758.771 0 .426-.34.771-.758.771zm0-7.345H7.28a.765.765 0 0 1-.759-.77c0-.427.34-.772.76-.772h32.042c.419 0 .758.345.758.771 0 .426-.34.771-.758.771zm0-7.345h-22.68a.765.765 0 0 1-.759-.77c0-.427.34-.772.759-.772h22.68c.419 0 .758.345.758.771 0 .426-.34.771-.758.771z"/>
        <path fill="#E0DCD3" d="M34.133 6.187c0 2.574 2.052 4.66 4.583 4.66H44.8l-5.25-5.339L34.133 0v6.187z"/>
        <path fill="#DEC8AE" d="M8.01 30.373h5.313c.89 0 1.61-.733 1.61-1.638v-5.403c0-.904-.72-1.637-1.61-1.637H8.01c-.89 0-1.61.733-1.61 1.637v5.403c0 .905.72 1.638 1.61 1.638zM38.731 28.203H16.736c-.406 0-.736.486-.736 1.085 0 .6.33 1.085.736 1.085H38.73c.406 0 .736-.486.736-1.085s-.33-1.085-.736-1.085zM38.72 35.797H7.146c-.412 0-.747.485-.747 1.084 0 .6.335 1.085.747 1.085H38.72c.413 0 .748-.485.748-1.085 0-.599-.335-1.084-.748-1.084zM38.72 42.305H7.146c-.412 0-.747.486-.747 1.085s.335 1.085.747 1.085H38.72c.413 0 .748-.486.748-1.085s-.335-1.085-.748-1.085zM38.72 49.898H7.146c-.412 0-.747.486-.747 1.085 0 .6.335 1.085.747 1.085H38.72c.413 0 .748-.486.748-1.085 0-.6-.335-1.085-.748-1.085z"/>
        <path fill="#D43D21" d="M14.694 14.191h2.9v2.95c0 1.027.819 1.859 1.828 1.859h1.222c1.01 0 1.828-.832 1.828-1.859v-2.95h2.9c1.01 0 1.828-.832 1.828-1.858V11.09c0-1.026-.818-1.858-1.827-1.858h-2.901v-2.95c0-1.026-.818-1.858-1.828-1.858h-1.222c-1.009 0-1.827.832-1.827 1.858v2.95h-2.901c-1.01 0-1.827.832-1.827 1.858v1.243c0 1.026.818 1.858 1.827 1.858z"/>
    </g>
</svg>
