<svg xmlns="http://www.w3.org/2000/svg" width="58" height="50" viewBox="0 0 58 50">
    <g fill="none" fill-rule="nonzero">
        <path fill="#E9E8D3" d="M21.847 28.646a13.538 13.538 0 0 1-6.311-11.459c0-4.832 2.525-9.061 6.311-11.458h-10.48c.015.172.026.345.026.521 0 3.165-2.551 5.73-5.697 5.73a5.67 5.67 0 0 1-.517-.027v10.469a5.67 5.67 0 0 1 .517-.026c3.146 0 5.697 2.564 5.697 5.729 0 .176-.01.349-.026.52h10.48zM52.304 11.98c-3.147 0-5.697-2.565-5.697-5.73 0-.176.01-.349.026-.52h-10.48a13.54 13.54 0 0 1 6.311 11.457 13.54 13.54 0 0 1-6.311 11.459h10.48a5.768 5.768 0 0 1-.026-.521c0-3.165 2.55-5.73 5.697-5.73.175 0 .347.011.517.027V11.953a5.67 5.67 0 0 1-.517.026M5.696 8.854A2.599 2.599 0 0 1 3.107 6.25a2.599 2.599 0 0 1 2.59-2.604A2.599 2.599 0 0 1 8.285 6.25a2.599 2.599 0 0 1-2.59 2.604M52.304 8.854a2.599 2.599 0 0 1-2.59-2.604 2.599 2.599 0 0 1 2.59-2.604 2.599 2.599 0 0 1 2.589 2.604 2.599 2.599 0 0 1-2.59 2.604M5.696 30.73a2.599 2.599 0 0 1-2.589-2.605 2.599 2.599 0 0 1 2.59-2.604 2.599 2.599 0 0 1 2.589 2.604 2.599 2.599 0 0 1-2.59 2.604M52.304 30.73a2.599 2.599 0 0 1-2.59-2.605 2.599 2.599 0 0 1 2.59-2.604 2.599 2.599 0 0 1 2.589 2.604 2.599 2.599 0 0 1-2.59 2.604"/>
        <path fill="#6E8C61" d="M22.786 5.182a13.543 13.543 0 0 0-7.25 12.007c0 5.221 2.944 9.746 7.25 12.005V5.182zM35.214 5.182v24.012a13.541 13.541 0 0 0 7.25-12.005c0-5.224-2.944-9.747-7.25-12.007"/>
        <path fill="#607B53" d="M0 46.354h22.786v3.125H0zM35.214 46.354H58v3.125H35.214z"/>
        <path fill="#546949" d="M0 43.229h22.786v3.125H0zM35.214 43.229H58v3.125H35.214z"/>
        <path fill="#607B53" d="M0 40.104h22.786v3.125H0zM35.214 40.104H58v3.125H35.214z"/>
        <path fill="#546949" d="M0 36.979h22.786v3.125H0zM35.214 36.979H58v3.125H35.214z"/>
        <path fill="#607B53" d="M0 33.854h22.786v3.125H0zM35.214 33.854H58v3.125H35.214z"/>
        <path fill="#D1D4D2" d="M22.786.521h12.429v33.333H22.786z"/>
        <path fill="#A5A5A4" d="M22.786 33.854h12.429v15.625H22.786z"/>
        <path fill="#6E8C61" d="M0 .521h58v33.333H0z"/>
        <g>
            <path fill="#E9E8D3" d="M21.847 28.646a13.538 13.538 0 0 1-6.311-11.459c0-4.832 2.525-9.061 6.311-11.458h-10.48c.015.172.026.345.026.521 0 3.165-2.551 5.73-5.697 5.73a5.67 5.67 0 0 1-.517-.027v10.469a5.67 5.67 0 0 1 .517-.026c3.146 0 5.697 2.564 5.697 5.729 0 .176-.01.349-.026.52h10.48zM52.304 11.98c-3.147 0-5.697-2.565-5.697-5.73 0-.176.01-.349.026-.52h-10.48a13.54 13.54 0 0 1 6.311 11.457 13.54 13.54 0 0 1-6.311 11.459h10.48a5.768 5.768 0 0 1-.026-.521c0-3.165 2.55-5.73 5.697-5.73.175 0 .347.011.517.027V11.953a5.67 5.67 0 0 1-.517.026M5.696 8.854A2.599 2.599 0 0 1 3.107 6.25a2.599 2.599 0 0 1 2.59-2.604A2.599 2.599 0 0 1 8.285 6.25a2.599 2.599 0 0 1-2.59 2.604M52.304 8.854a2.599 2.599 0 0 1-2.59-2.604 2.599 2.599 0 0 1 2.59-2.604 2.599 2.599 0 0 1 2.589 2.604 2.599 2.599 0 0 1-2.59 2.604M5.696 30.73a2.599 2.599 0 0 1-2.589-2.605 2.599 2.599 0 0 1 2.59-2.604 2.599 2.599 0 0 1 2.589 2.604 2.599 2.599 0 0 1-2.59 2.604M52.304 30.73a2.599 2.599 0 0 1-2.59-2.605 2.599 2.599 0 0 1 2.59-2.604 2.599 2.599 0 0 1 2.589 2.604 2.599 2.599 0 0 1-2.59 2.604"/>
            <path fill="#6E8C61" d="M22.786 5.182a13.543 13.543 0 0 0-7.25 12.007c0 5.221 2.944 9.746 7.25 12.005V5.182zM35.214 5.182v24.012a13.541 13.541 0 0 0 7.25-12.005c0-5.224-2.944-9.747-7.25-12.007"/>
            <path fill="#607B53" d="M0 46.354h22.786v3.125H0zM35.214 46.354H58v3.125H35.214z"/>
            <path fill="#546949" d="M0 43.229h22.786v3.125H0zM35.214 43.229H58v3.125H35.214z"/>
            <path fill="#607B53" d="M0 40.104h22.786v3.125H0zM35.214 40.104H58v3.125H35.214z"/>
            <path fill="#546949" d="M0 36.979h22.786v3.125H0zM35.214 36.979H58v3.125H35.214z"/>
            <path fill="#607B53" d="M0 33.854h22.786v3.125H0zM35.214 33.854H58v3.125H35.214z"/>
            <path fill="#D1D4D2" d="M22.786.521h12.429v33.333H22.786z"/>
            <path fill="#A5A5A4" d="M22.786 33.854h12.429v15.625H22.786z"/>
        </g>
    </g>
</svg>
