<svg xmlns="http://www.w3.org/2000/svg" width="139" height="151" viewBox="0 0 139 151">
    <g fill="none" fill-rule="nonzero">
        <path fill="#D6D0BB" d="M25.516 134.65l-9.295-3.201a3.273 3.273 0 0 1-2.033-4.16 3.273 3.273 0 0 1 4.163-2.028l9.295 3.2a3.273 3.273 0 0 1 2.033 4.161 3.273 3.273 0 0 1-4.163 2.027"/>
        <path fill="#D85B4B" d="M101.735 74.328"/>
        <path fill="#E6E7E9" d="M105.994 14.751l9.74 8.77-8.757 9.727-9.74-8.77z"/>
        <path fill="#D85B4B" d="M131.06 6.5l-4.906-4.418A6.531 6.531 0 0 0 123.93.767a6.488 6.488 0 0 0-6.956 1.79l-10.98 12.194 9.74 8.77 15.326-17.02z"/>
        <path fill="#E38E23" d="M106.977 33.248l9.74 8.77-83.197 92.4-9.74-8.77z"/>
        <path fill="#CFCECE" d="M115.735 23.521l9.74 8.77-8.758 9.727-9.74-8.77z"/>
        <path fill="#C56256" d="M125.475 32.292l10.98-12.195a6.483 6.483 0 0 0 1.473-5.92 6.66 6.66 0 0 0-.42-1.185 6.544 6.544 0 0 0-1.54-2.074L131.06 6.5l-15.325 17.021 9.74 8.77z"/>
        <path fill="#EDDDC8" d="M33.52 134.418l-19.481-17.54-5.586 25.791z"/>
        <path fill="#5F5F5F" d="M1.64 145.34a3.271 3.271 0 0 0 .245 4.624 3.271 3.271 0 0 0 4.625-.239L15.267 140l-4.87-4.385-8.758 9.726z"/>
        <path fill="#F39D20" d="M97.237 24.477l9.74 8.77-83.198 92.401-9.74-8.77z"/>
    </g>
</svg>
