<svg xmlns="http://www.w3.org/2000/svg" width="59" height="58" viewBox="0 0 59 58">
    <g fill="none" fill-rule="nonzero">
        <path fill="#FD5D65" d="M49.999 19.53L29.684 3.083a.907.907 0 0 0-1.14 0L8.227 19.529a.907.907 0 0 0-.336.705v36.76h42.443v-36.76A.907.907 0 0 0 50 19.53z"/>
        <path fill="#D3D2D2" d="M58.221 22.57a.907.907 0 0 0-.34-.606L30.795.682a2.714 2.714 0 0 0-3.362 0L.347 21.964a.907.907 0 0 0-.153 1.274l2.241 2.852c.31.394.88.462 1.273.153L29.114 6.282l25.405 19.961a.905.905 0 0 0 1.273-.153l2.242-2.852a.907.907 0 0 0 .187-.669z"/>
        <path fill="#BDBCBC" d="M24.277 39.581h9.674v17.413h-9.674z"/>
        <path fill="#E9E9E9" d="M34.858 39.581c0-.5-.406-.906-.907-.906h-9.674c-.5 0-.907.406-.907.906v17.171h11.488v-17.17zm-1.814 16.506h-7.86V40.488h7.86v15.6z"/>
        <path fill="#C4DF64" d="M5.897 47.441a4.782 4.782 0 0 0-4.776 4.777 4.782 4.782 0 0 0 4.776 4.776 4.782 4.782 0 0 0 4.776-4.776 4.782 4.782 0 0 0-4.776-4.777zM16.538 47.441a4.782 4.782 0 0 0-4.776 4.777 4.782 4.782 0 0 0 4.776 4.776 4.782 4.782 0 0 0 4.776-4.776 4.782 4.782 0 0 0-4.776-4.777zM41.69 47.441a4.782 4.782 0 0 0-4.777 4.777 4.782 4.782 0 0 0 4.777 4.776 4.782 4.782 0 0 0 4.776-4.776 4.782 4.782 0 0 0-4.776-4.777zM52.33 47.441a4.782 4.782 0 0 0-4.776 4.777 4.782 4.782 0 0 0 4.777 4.776 4.782 4.782 0 0 0 4.776-4.776 4.782 4.782 0 0 0-4.776-4.777z"/>
        <path fill="#6DDAE1" d="M33.951 25.072h11.608v9.674H33.951z"/>
        <path fill="#E9E9E9" d="M45.559 24.164H33.951a.907.907 0 0 0-.907.907v9.674c0 .5.406.906.907.906h11.608a.907.907 0 0 0 .907-.906V25.07c0-.5-.406-.907-.907-.907zm-10.701 1.814h3.99v7.86h-3.99v-7.86zm9.794 7.86h-3.99v-7.86h3.99v7.86z"/>
        <path fill="#6DDAE1" d="M12.608 25.072h11.608v9.674H12.608z"/>
        <path fill="#E9E9E9" d="M24.217 24.164H12.608a.907.907 0 0 0-.907.907v9.674c0 .5.406.906.907.906h11.609a.907.907 0 0 0 .907-.906V25.07c0-.5-.407-.907-.907-.907zm-10.702 1.814h3.99v7.86h-3.99v-7.86zm9.795 7.86h-3.99v-7.86h3.99v7.86z"/>
        <path fill="#6DDAE1" d="M25.245 12.496h7.739v7.739h-7.739z"/>
        <path fill="#E9E9E9" d="M32.983 11.588h-7.739c-.5 0-.906.406-.906.907v7.74c0 .5.406.906.906.906h7.74a.907.907 0 0 0 .906-.907v-7.739a.907.907 0 0 0-.907-.907zm-.907 3.87h-2.055v-2.056h2.055v2.056zm-3.869-2.056v2.056h-2.056v-2.056h2.056zm-2.056 3.87h2.056v2.055h-2.056v-2.055zm3.87 2.055v-2.055h2.056v2.055H30.02z"/>
        <g fill="#7B7979">
            <path d="M27.18 49.195a.907.907 0 0 1-.908-.907v-.968a.907.907 0 1 1 1.814 0v.968c0 .5-.406.907-.907.907zM57.167 57.9H1.06a.907.907 0 1 1 0-1.813h56.107a.907.907 0 1 1 0 1.814z"/>
        </g>
    </g>
</svg>
