<svg xmlns="http://www.w3.org/2000/svg" width="50" height="58" viewBox="0 0 50 58">
    <g fill="none" fill-rule="nonzero">
        <path fill="#E5EFF6" d="M45.08 18.831H.2L4.645 2.12A2 2 0 0 1 6.578.634h40.74a2 2 0 0 1 1.933 2.514L45.08 18.831z"/>
        <path fill="#E5EFF6" d="M48.71 36.927H3.78L.2 18.679h44.88z"/>
        <g fill="#DEDEDF">
            <path d="M40.339 24.22H7.109l-.354-1.881h33.18zM41.196 28.692H8.016l-.353-1.88h33.18zM42.104 33.115H8.924l-.404-1.881H41.7z"/>
        </g>
        <path fill="#E5EFF6" d="M2.57 57.26l2.975-2.491 2.017 2.49 2.975-2.49 2.068 2.49 2.975-2.49 2.017 2.49 2.975-2.49 2.067 2.49 2.925-2.49 2.068 2.49 2.975-2.49 2.067 2.49 2.925-2.49 2.067 2.49 2.976-2.49 2.067 2.49 2.773-2.389 3.228-17.943H3.78L.603 54.87z"/>
        <g fill="#DEDEDF">
            <path d="M41.953 41.858H8.773l.352-1.881h33.18zM41.196 46.33H7.966l.352-1.88h33.18zM23.345 50.804H7.21l.302-1.881h16.187z"/>
        </g>
        <g fill="#DEDEDF">
            <path d="M42.608 6.225H19.11l.504-1.88h23.498zM41.398 10.698H17.95l.504-1.88h23.448zM40.238 15.12H16.74l.504-1.88h23.498z"/>
        </g>
        <path fill="#5DD647" d="M12.763 13.205c.542-2.046-.676-3.682-2.638-3.682-.879 0-1.352-.682-1.15-1.568.204-.887 1.083-1.569 1.962-1.569.406 0 .812.205 1.015.478.27.409.947.409 1.42.068.541-.41.744-1.023.406-1.5a2.883 2.883 0 0 0-1.353-1.023l.203-.75c.135-.545-.203-1.023-.744-1.023-.541 0-1.15.478-1.285 1.023l-.203.75C8.773 4.886 7.352 6.25 6.88 7.886c-.541 2.046.676 3.682 2.638 3.682.88 0 1.353.682 1.15 1.568-.203.887-1.083 1.569-1.962 1.569-.406 0-.812-.205-1.014-.478-.27-.409-.947-.409-1.42-.068-.542.41-.745 1.023-.407 1.5.338.477.812.818 1.353 1.023l-.203.75c-.135.545.203 1.023.744 1.023.541 0 1.15-.478 1.285-1.023l.203-.75c1.624-.41 3.112-1.841 3.517-3.477z"/>
        <path fill="#239AF5" d="M7.846 26.355l9.177 7.918v-4.754H28.77v-6.31H17.023v-4.754z"/>
        <path fill="#F0582F" d="M40.538 34.281l-9.177-7.917v4.754H19.615v6.31h11.746v4.754z"/>
    </g>
</svg>
