<svg xmlns="http://www.w3.org/2000/svg" width="60" height="60" viewBox="0 0 60 60">
    <g fill="none" fill-rule="nonzero">
        <path fill="#A25425" d="M6.767 36l-.222 3.273h32.728V36z"/>
        <path fill="#CB202C" d="M39.273 43.636h16.364v2.182H39.273zM39.273 30.545h16.364v2.182H39.273z"/>
        <path fill="#A25425" d="M3.273 32.727h3.173l.1-2.182H3.272z"/>
        <path fill="#AF6328" d="M60 28.636c0 .45-.422.819-.938.819H.938c-.516 0-.938-.369-.938-.819V27c0-.45.422-.818.938-.818h58.124c.516 0 .938.368.938.818v1.636z"/>
        <path fill="#E2E4E6" d="M16.364 16.364v2.618c0 .96.828 1.745 1.84 1.745h25.773c1.013 0 1.841-.785 1.841-1.745v-2.618H16.364z"/>
        <circle cx="31.636" cy="19.636" r="1.091" fill="#35495C"/>
        <path fill="#113247" d="M43.977.91c.508 0 .92.407.92.908v13.637H17.285V1.818c0-.501.413-.909.92-.909h25.773zm0-.91H18.205c-1.013 0-1.841.818-1.841 1.818v14.546h29.454V1.818c0-1-.828-1.818-1.84-1.818z"/>
        <path fill="#35495C" d="M44.727 2.045a.951.951 0 0 0-.945-.954H17.309a.951.951 0 0 0-.945.954v14.319h28.363V2.045z"/>
        <path fill="#3B5366" d="M44.853 1.09H31.636l4.718 15.274h9.464V2.045a.961.961 0 0 0-.965-.954z"/>
        <path fill="#35495C" d="M43.91 0H30.544l.292.91H43.91c.526 0 .955.407.955.908v13.637h-9.36l.291.909h10.023V1.818c0-1-.859-1.818-1.909-1.818z"/>
        <path fill="#C9D1D7" d="M34.91 25.09h-7.637l.954-3.272h5.728z"/>
        <path fill="#F6B74E" d="M43.636 32.727h7.636v2.182h-7.636z"/>
        <path fill="#CB202C" d="M43.636 34.909h7.636V36h-7.636z"/>
        <path fill="#F6B74E" d="M43.636 48h7.636v2.182h-7.636z"/>
        <path fill="#CB202C" d="M43.636 50.182h7.636v1.091h-7.636z"/>
        <path fill="#AF6328" d="M3.273 31.636v27.419c0 .52.39.945.869.945.478 0 .892-.425.92-.944l1.483-27.42H3.273z"/>
        <path fill="#ED2C39" d="M39.273 44.727v14.318c0 .525.409.955.909.955h14.545c.5 0 .91-.43.91-.955V44.727H39.272zm11.818 5.728h-7.273V47.59h7.273v2.864zM39.273 31.636v10.91h16.363v-10.91H39.273zm11.818 3.637h-7.273v-2.728h7.273v2.728z"/>
        <path fill="#E2E4E6" d="M25.091 25.091H36v1.091H25.091z"/>
    </g>
</svg>
