<svg xmlns="http://www.w3.org/2000/svg" width="52" height="59" viewBox="0 0 52 59">
    <g fill="#78CEE8" fill-rule="nonzero">
        <path d="M31.276 28.974l-1.88-.978v-1.961a.597.597 0 0 0-.325-.52.73.73 0 0 0-.66-.015l-1.9.921-1.902-.92a.731.731 0 0 0-.66.014.597.597 0 0 0-.325.52v1.961l-1.88.978.001.003a.637.637 0 0 0-.248.221c-.184.29-.073.661.247.828l1.88.978v1.961c0 .213.124.41.326.52a.722.722 0 0 0 .66.015l1.9-.921 1.901.92a.725.725 0 0 0 .66-.014.597.597 0 0 0 .325-.52v-1.961l1.877-.976.003-.002a.638.638 0 0 0 .247-.224c.184-.29.074-.661-.247-.828zm-2.882 1.153a.599.599 0 0 0-.337.526v1.3l-1.231-.597a.73.73 0 0 0-.631 0l-1.232.597v-1.3a.599.599 0 0 0-.336-.526l-1.205-.627 1.205-.627a.599.599 0 0 0 .336-.526v-1.3l1.232.597c.19.092.426.099.63 0l1.232-.597v1.3c0 .217.129.418.337.526l1.205.627-1.205.627z"/>
        <path stroke="#78CEE8" d="M50.68 42.715l-3.27-1.846 2.536-1.522a.624.624 0 0 0 .213-.86.631.631 0 0 0-.864-.212l-3.14 1.885-3.444-1.943 6.511-3.943a.625.625 0 0 0 .21-.86.631.631 0 0 0-.865-.21l-7.11 4.305L38 35.558l2.526-1.53a.625.625 0 0 0 .21-.86.631.631 0 0 0-.865-.21l-3.124 1.893-4.151-2.343 4.316-2.465a.625.625 0 0 0 0-1.084v-.003l-4.305-2.458 4.163-2.35 3.124 1.893a.63.63 0 0 0 .865-.21.625.625 0 0 0-.21-.86l-2.526-1.53 3.458-1.952 7.11 4.306a.63.63 0 0 0 .865-.21.625.625 0 0 0-.21-.86l-6.512-3.943 3.458-1.952 3.125 1.892a.63.63 0 0 0 .865-.209.625.625 0 0 0-.21-.86l-2.527-1.53 3.237-1.827a.625.625 0 0 0 .237-.854.632.632 0 0 0-.859-.236l-3.227 1.822v-2.931a.628.628 0 0 0-.63-.627c-.348 0-.63.28-.63.627v3.642l-3.451 1.948v-7.572a.628.628 0 0 0-.63-.627c-.348 0-.63.28-.63.627v8.284l-3.451 1.948v-2.932a.628.628 0 0 0-.63-.626c-.348 0-.63.28-.63.626v3.642L31.93 25.44v-5.035a.626.626 0 0 0-.306-.537.633.633 0 0 0-.62-.015l-4.373 2.325v-4.613l3.196-1.77a.624.624 0 0 0 .244-.852.631.631 0 0 0-.856-.243l-2.584 1.431v-3.955l7.273-4.027a.624.624 0 0 0 .244-.852.631.631 0 0 0-.856-.243l-6.661 3.688V6.788l3.196-1.77a.624.624 0 0 0 .244-.852.631.631 0 0 0-.856-.243L26.63 5.354V1.626A.628.628 0 0 0 26 1c-.348 0-.63.28-.63.626v3.728l-2.583-1.43a.632.632 0 0 0-.857.242.625.625 0 0 0 .244.852l3.196 1.77v3.954l-6.66-3.688a.631.631 0 0 0-.857.243.625.625 0 0 0 .244.851l7.273 4.028v3.955L22.786 14.7a.632.632 0 0 0-.856.242.625.625 0 0 0 .244.852l3.196 1.77v4.614l-4.373-2.326a.633.633 0 0 0-.62.015.626.626 0 0 0-.306.538v5.034l-4.221-2.382v-3.642a.628.628 0 0 0-.63-.627c-.348 0-.63.28-.63.627v2.931l-3.452-1.948v-8.283a.628.628 0 0 0-.63-.627c-.347 0-.629.28-.629.627v7.572L6.427 17.74v-3.642a.628.628 0 0 0-.63-.626c-.347 0-.629.28-.629.626v2.932l-3.227-1.822a.632.632 0 0 0-.859.236.625.625 0 0 0 .237.854l3.237 1.826-2.527 1.53a.625.625 0 0 0 .328 1.162.63.63 0 0 0 .327-.092l3.125-1.892 3.458 1.951-6.512 3.943a.625.625 0 0 0 .328 1.162.63.63 0 0 0 .327-.092l7.11-4.305 3.458 1.951-2.526 1.53a.625.625 0 0 0 .328 1.162.63.63 0 0 0 .327-.092l3.125-1.892 4.163 2.35-4.306 2.458.001.002a.622.622 0 0 0-.001 1.085l4.317 2.464-4.152 2.343-3.125-1.892a.632.632 0 0 0-.865.21.625.625 0 0 0 .21.86l2.527 1.53-3.458 1.95-7.11-4.305a.632.632 0 0 0-.866.21.625.625 0 0 0 .21.86l6.512 3.943-3.457 1.952-3.125-1.893a.632.632 0 0 0-.865.21.625.625 0 0 0 .21.86l2.526 1.53-3.259 1.84a.625.625 0 0 0 .311 1.17.629.629 0 0 0 .31-.081l3.25-1.835v2.932c0 .346.283.627.63.627.348 0 .63-.28.63-.627V41.26l3.452-1.948v7.573c0 .346.282.626.63.626.347 0 .63-.28.63-.626V38.6l3.45-1.948v2.932c0 .345.283.626.63.626.348 0 .63-.28.63-.626v-3.643l4.199-2.37v5.022a.626.626 0 0 0 .63.627.632.632 0 0 0 .296-.074l4.373-2.325v4.64l-3.196 1.769a.624.624 0 0 0 .307 1.174.632.632 0 0 0 .305-.08l2.584-1.43v3.954l-7.273 4.028a.624.624 0 0 0 .307 1.174.631.631 0 0 0 .306-.08l6.66-3.688v3.955l-3.196 1.77a.624.624 0 0 0 .307 1.174.631.631 0 0 0 .306-.08l2.584-1.43v3.702c0 .346.282.626.63.626.347 0 .629-.28.629-.626v-3.702l2.584 1.43a.63.63 0 0 0 .856-.243.625.625 0 0 0-.244-.851l-3.196-1.77v-3.955l6.66 3.689a.63.63 0 0 0 .856-.243.625.625 0 0 0-.243-.852L26.63 46.85v-3.954l2.584 1.43a.63.63 0 0 0 .856-.243.624.624 0 0 0-.244-.851l-3.196-1.77v-4.64l4.373 2.326a.632.632 0 0 0 .62-.015.626.626 0 0 0 .306-.538v-5.022l4.199 2.37v3.642c0 .346.282.627.63.627.347 0 .63-.28.63-.627v-2.932l3.451 1.949v8.284c0 .346.282.626.63.626.347 0 .63-.28.63-.626V39.31l3.436 1.94v3.651c0 .346.282.627.63.627.347 0 .629-.28.629-.627v-2.94l3.266 1.843a.628.628 0 0 0 .858-.236.626.626 0 0 0-.237-.854zM30.987 31.982a.626.626 0 0 0-.317.543v5.024l-4.372-2.325a.63.63 0 0 0-.594 0l-4.372 2.325v-5.024a.626.626 0 0 0-.317-.543L16.667 29.5l4.347-2.482a.626.626 0 0 0 .317-.544V21.45l4.372 2.326c.18.094.401.102.594 0l4.372-2.326v5.024c0 .225.121.432.317.544l4.347 2.482-4.347 2.482z"/>
    </g>
</svg>
