<svg xmlns="http://www.w3.org/2000/svg" width="73" height="60" viewBox="0 0 73 60">
    <g fill="none" fill-rule="nonzero">
        <path fill="#8AA8A7" d="M71.513 13.697c-5.455-1.461-16.452 1.5-27.235 7.626-10.756 6.03-18.996 13.772-20.42 19.09-.104.386.016.73.387.933.272.176.668.282 1.044.072l46.43-26.11c.376-.211.453-.501.458-.915-.022-.316-.267-.59-.664-.696z"/>
        <path fill="#99B5B5" d="M44.443 20.591c-10.807 6.289-19.11 14.316-20.579 19.796-.107.399.011.75.38.957.27.179.666.285 1.043.066l.503-.293L59.5 14.5c-3.88 1.417-10.91 3.678-15.057 6.091z"/>
        <path fill="#144D6D" d="M21.158 51.42c-.876.492-1.851.958-2.9 1.3-7.665 2.827-15.3.781-17.524-4.8-1.837-4.646.936-10.237 6.817-13.543.876-.492 1.851-.958 2.9-1.3 7.665-2.827 15.3-.781 17.524 4.8 1.962 4.576-.811 10.167-6.817 13.543zM10.944 39.96c-3.253 1.828-4.674 4.355-4.093 5.757.675 1.843 4.818 2.641 9.063 1.078.699-.228 1.324-.58 1.95-.93 3.253-1.83 4.674-4.356 4.093-5.758-.675-1.843-4.818-2.642-9.063-1.079-.699.228-1.324.58-1.95.932z"/>
        <path fill="#283944" d="M19.527 31.925s-.098-.026 0 0c-.39-.104-.708-.084-1-.163l-.098-.026c-.708-.084-1.442-.07-2.176-.057-.097-.026-.097-.026-.221.046-.319.02-.54.065-.858.085-.097-.026-.221.046-.318.02-.221.046-.54.066-.76.112-.125.072-.222.045-.346.117-.22.046-.54.066-.76.112-.124.072-.221.046-.442.092s-.566.164-.787.21c-.15.17-.247.144-.371.216-.345.118-.787.21-1.158.425-.937.38-1.9.858-2.863 1.336l-.989.576-.247.144c-.15.17-.397.314-.645.458-.026.098-.123.072-.15.17-.15.17-.397.314-.67.556l-.124.072c-.274.242-.424.412-.697.655l-.027.098c-.247.144-.423.412-.573.582l.195.052c-.274.242-.353.536-.432.83-1.052.034-.776.95-.873.923l-.098-.026c-.097-.026-.45.51-.528.805l-.027.098c-1.11 1.805-1.59 3.989-1.408 6.035 3.35 2.686 8.943 3.238 14.537 1.057.937-.38 1.9-.858 2.89-1.434 5.07-2.951 7.897-7.66 7.364-11.904-1.471-1.13-3.34-1.946-5.34-2.272zm1.879 8.178c.56 1.412-.857 3.976-4.072 5.848-.618.36-1.237.72-1.926.956-4.313 1.683-8.26.835-8.911-1.021-.187-.47-.153-.987.005-1.576.052-.196.079-.294.228-.464l.053-.196c.15-.17.176-.268.203-.367.026-.098.026-.098.15-.17.026-.098.15-.17.202-.366.026-.098.15-.17.15-.17.652-.877 1.72-1.747 2.983-2.565.619-.36 1.237-.72 1.926-.956 1.627-.615 3.271-.91 4.713-.84.098.027.319-.02.416.007.195.052.513.032.708.084 1.708.248 2.895.881 3.172 1.796z"/>
        <path fill="#FFB000" d="M53.463 25.242c-5.966-2.504-7.657-4.007-7.657-6.51 0-2.204 1.492-4.508 5.867-4.508 4.276 0 6.861 1.502 8.055 2.203.397.2.895.3 1.292.1.398-.2.796-.5.995-.901l1.79-4.608c.298-.7.1-1.602-.597-1.903a20.532 20.532 0 0 0-8.353-2.704V1.1c0-.9-.895-1.101-1.79-1.101H48.69c-.795 0-1.79.2-1.79 1.102v5.81c-5.966 1.602-10.44 6.41-10.44 12.62 0 7.713 6.065 11.12 12.628 13.723 4.872 2.004 6.96 4.007 6.96 6.912 0 3.205-2.684 5.309-6.761 5.309-3.182 0-6.563-1.002-9.149-2.805-.397-.3-.895-.3-1.392-.2-.497.2-.795.5-.994 1.001l-1.69 4.708c-.2.701.099 1.403.695 1.803 2.387 1.703 6.166 3.005 10.143 3.306v5.61c0 .9.497 1.101 1.293 1.101h4.375c.895 0 1.193-.2 1.193-1.102v-6.01c6.961-1.603 11.237-6.811 11.237-13.322.1-6.611-3.282-10.918-11.535-14.324z"/>
        <g>
            <path fill="#8AA8A7" d="M71.416 47.26c-5.44 1.457-16.413-1.51-27.174-7.643-10.735-6.036-18.96-13.781-20.385-19.1-.103-.386.017-.729.387-.932.27-.176.666-.282 1.04-.071l46.436 26.11c.374.21.452.5.457.913-.12.343-.365.616-.76.722z"/>
            <path fill="#144D6D" d="M28.05 23.061c-2.25 5.5-9.867 7.644-17.542 4.805-.95-.37-1.927-.838-2.903-1.306-5.89-3.318-8.768-8.902-6.832-13.587 2.25-5.5 9.866-7.644 17.541-4.805.95.37 1.927.838 2.903 1.306 5.89 3.318 8.669 8.928 6.832 13.587zm-15.224-1.234c4.375 1.64 8.397.771 9.072-1.076.581-1.406-.843-3.941-4.1-5.777-.627-.353-1.253-.706-1.953-.935-4.376-1.64-8.398-.771-9.073 1.076-.58 1.406.843 3.941 4.101 5.777.626.353 1.253.706 1.953.935z"/>
            <path fill="#283944" d="M24.613 25.85c.58-4.08-2.094-8.595-7.225-11.345a15.951 15.951 0 0 0-2.846-1.25C9.075 11.198 3.48 11.792.101 14.408c-.303 1.993.225 3.964 1.364 5.873l-.025-.094c.1.375.324.818.422.792l.195-.052c.097-.026-.19.856.862.876.076.281.151.563.422.792l-.098.026c.173.256.321.418.592.647l.025.094c.27.23.419.39.69.62 0 0 .024.094.122.068.245.135.419.39.664.526.025.094.123.068.148.162a2777016.917 2777016.917 0 0 1 .86.474c.27.23.613.338.981.542.86.474 1.817.922 2.846 1.25.343.109.81.286 1.152.395.025.094.123.068.246.136.22.041.563.15.784.192.122.068.22.042.44.083.22.042.539.057.759.099.123.067.22.041.343.109.22.042.538.057.759.099.097-.027.22.041.318.015.318.015.538.057.856.072.098-.026.098-.026.22.042.734.005 1.468.01 2.176-.08l.098-.026c.292-.079.61-.063.903-.142l.098-.026c2.027-.241 3.904-1.046 5.29-2.121zm-6.362-3.829c-.195.052-.513.037-.708.09-.098.025-.318-.016-.416.01-1.442.085-2.984-.206-4.7-.753-.686-.219-1.3-.557-1.914-.896-1.35-.745-2.31-1.594-2.952-2.428-.025-.094-.148-.162-.148-.162-.123-.068-.173-.256-.198-.35-.025-.093-.025-.093-.148-.161-.025-.094-.173-.256-.198-.35l-.05-.187c-.05-.188-.199-.35-.224-.443-.15-.564-.204-1.153.013-1.513.671-1.79 4.749-2.58 8.917-1.081.686.218 1.3.557 1.913.896 3.192 1.76 4.58 4.206 4.003 5.568-.41.814-1.603 1.435-3.19 1.76z"/>
        </g>
        <g transform="translate(34 28)">
            <path fill="#638280" d="M4 2.182C4 3.364 3.083 5 2 5S0 3.364 0 2.182C0 1 .917 0 2 0s2 1 2 2.182z"/>
            <circle cx="2" cy="2" r="2" fill="#FFC200"/>
        </g>
    </g>
</svg>
