<svg xmlns="http://www.w3.org/2000/svg" width="40" height="60" viewBox="0 0 40 60">
    <g fill="#6AC259" fill-rule="nonzero">
        <path d="M20.305 34.839H15.04c-4.017 0-7.794-1.56-10.635-4.394A14.884 14.884 0 0 1 0 19.84c0-4.007 1.565-7.773 4.404-10.607a14.967 14.967 0 0 1 10.637-4.393h21.057v9H15.04a5.984 5.984 0 0 0-4.254 1.757 5.954 5.954 0 0 0-1.763 4.243c0 1.602.626 3.11 1.763 4.242a5.987 5.987 0 0 0 4.254 1.758h5.264v9z"/>
        <path d="M24.96 56.129H3.901v-9H24.96a5.984 5.984 0 0 0 4.254-1.757 5.955 5.955 0 0 0 1.763-4.243c0-1.603-.626-3.11-1.763-4.243a5.984 5.984 0 0 0-4.254-1.757h-5.264v-9h5.264c4.019 0 7.795 1.56 10.637 4.393A14.886 14.886 0 0 1 40 41.13c0 4.006-1.564 7.772-4.404 10.606A14.967 14.967 0 0 1 24.96 56.13zM15.61 0h8.78v8.71h-8.78z"/>
        <path d="M15.61 51.29h8.78V60h-8.78z"/>
    </g>
</svg>
