<svg xmlns="http://www.w3.org/2000/svg" width="54" height="56" viewBox="0 0 54 56">
    <g fill="none" fill-rule="nonzero">
        <path fill="#EFCE4A" d="M27.75 9C18.223 9 10.5 16.571 10.5 25.91c0 7.49 4.976 13.834 11.86 16.054V52.33h2.156v3.17h6.468v-3.17h2.157V41.964C40.024 39.744 45 33.401 45 25.91 45 16.571 37.277 9 27.75 9z"/>
        <g fill="#EFCE4A">
            <path d="M27 0c-.586 0-1.059.468-1.059 1.047v4.186c0 .578.473 1.046 1.059 1.046s1.059-.468 1.059-1.046V1.047C28.059.467 27.586 0 27 0zM52.412 25.116h-4.236c-.585 0-1.058.468-1.058 1.047s.473 1.046 1.058 1.046h4.236c.585 0 1.059-.467 1.059-1.046s-.474-1.047-1.06-1.047zM5.824 25.116H1.588c-.585 0-1.059.468-1.059 1.047s.474 1.046 1.06 1.046h4.235c.585 0 1.058-.467 1.058-1.046s-.473-1.047-1.058-1.047zM44.22 7.663l-2.994 2.96a1.037 1.037 0 0 0 0 1.479c.207.204.478.306.749.306s.542-.102.749-.306l2.994-2.96c.414-.409.414-1.07 0-1.48a1.067 1.067 0 0 0-1.497 0zM11.276 40.224l-2.994 2.96a1.037 1.037 0 0 0 0 1.479c.207.204.478.307.749.307.27 0 .542-.103.748-.307l2.995-2.96c.414-.409.414-1.07 0-1.48a1.066 1.066 0 0 0-1.498 0zM42.724 40.224a1.066 1.066 0 0 0-1.498 0 1.037 1.037 0 0 0 0 1.48l2.995 2.959a1.062 1.062 0 0 0 1.497 0c.414-.41.414-1.07 0-1.48l-2.994-2.96zM9.78 7.663a1.066 1.066 0 0 0-1.498 0 1.037 1.037 0 0 0 0 1.48l2.994 2.959c.207.204.478.306.75.306.27 0 .541-.102.748-.306.414-.41.414-1.07 0-1.48l-2.995-2.96z"/>
        </g>
        <path fill="#F7E6A1" d="M16.038 27A1.038 1.038 0 0 1 15 25.962C15 19.09 20.59 13.5 27.462 13.5a1.038 1.038 0 1 1 0 2.077c-5.727 0-10.385 4.658-10.385 10.385 0 .574-.464 1.038-1.039 1.038z"/>
        <path fill="#556080" d="M21 45v7.35h2.1v3.15h6.3v-3.15h2.1V45z"/>
    </g>
</svg>
