<svg xmlns="http://www.w3.org/2000/svg" width="66" height="49" viewBox="0 0 66 49">
    <g fill="none" fill-rule="nonzero">
        <path fill="#008DB3" d="M61.863 19.513l-3.116-2.134L55.89 5.054C55.205 2.096 52.546 0 49.48 0H17.366c-3.066 0-5.725 2.096-6.41 5.054L8.099 17.379l-3.116 2.134a7.537 7.537 0 0 0-3.29 6.216V36.82c0 2.06 1.687 3.73 3.769 3.73h55.923c2.081 0 3.769-1.67 3.769-3.73V25.73c0-2.481-1.23-4.804-3.291-6.216z"/>
        <path fill="#76CDCE" d="M55 16.897H11.846l2.662-11.249c.316-1.335 1.523-2.269 2.937-2.269h31.956c1.414 0 2.621.934 2.938 2.27L55 16.896z"/>
        <g fill="#FFF">
            <path d="M6.88 26.276c0 2.696 2.216 4.881 4.948 4.881 2.733 0 4.948-2.185 4.948-4.88H6.88zM50.071 26.276c0 2.696 2.216 4.881 4.948 4.881 2.733 0 4.948-2.185 4.948-4.88H50.07z"/>
        </g>
        <path fill="#CCC" d="M63.315 35.483H2.685C1.202 35.483 0 36.807 0 38.44c0 1.633 1.202 2.957 2.685 2.957h60.63c1.483 0 2.685-1.324 2.685-2.957 0-1.633-1.202-2.957-2.685-2.957z"/>
        <path fill="#666" d="M5.077 40.552v6.823c0 .898.714 1.625 1.596 1.625h6.116c.881 0 1.596-.727 1.596-1.625v-6.823M51.615 40.552v6.823c0 .898.715 1.625 1.596 1.625h6.116c.882 0 1.596-.727 1.596-1.625v-6.823"/>
        <path fill="#4D4D4D" d="M43.154 40.552v.782c0 1.901-1.587 3.442-3.544 3.442H28.082c-1.957 0-3.544-1.54-3.544-3.442v-.782"/>
        <path fill="#96E0DE" d="M54.154 16.897H39.312L25.385 3.379H48.56c1.413 0 2.618.934 2.934 2.27l2.659 11.248z"/>
        <path fill="#037893" d="M21.154 27.034h24.538v1.69H21.154zM21.154 30.414h24.538v1.69H21.154z"/>
    </g>
</svg>
