<svg xmlns="http://www.w3.org/2000/svg" width="138" height="138" viewBox="0 0 138 138">
    <g fill="none" fill-rule="nonzero">
        <path fill="#0070D2" d="M105.655 9.175v9.174H89.599V9.175H34.552v9.174H18.496V9.175H1.146a1 1 0 0 0-1 1v24.23h123.858v-24.23a1 1 0 0 0-1-1h-17.35z"/>
        <path fill="#FFF" d="M18.496 34.405H.146v97.627a1 1 0 0 0 1 1h122.858V34.405H18.496z"/>
        <path fill="#A6A6A6" d="M85.012 50.46H19.496a1 1 0 0 0-1 1v64.516a1 1 0 0 0 1 1h86.159V51.46a1 1 0 0 0-1-1H85.012zm-20.643 4.588h16.056v16.055H64.369V55.048zm16.056 36.698H64.369V75.69h16.056v16.056zM43.726 75.69h16.056v16.056H43.726V75.69zm0-20.642h16.056v16.055H43.726V55.048zm-20.643 0H39.14v16.055H23.083V55.048zm0 20.642H39.14v16.056H23.083V75.69zM39.14 112.39H23.083V96.333H39.14v16.056zm20.643 0H43.726V96.333h16.056v16.056zm20.643 0H64.369V96.333h16.056v16.056zm20.642 0H85.012V96.333h16.055v16.056zm0-20.643H85.012V75.69h16.055v16.056zM85.012 71.103V55.048h16.055v16.055H85.012z"/>
        <path fill="#36495E" d="M18.496 0h16.056v18.349H18.496zM89.599 0h16.056v18.349H89.599z"/>
        <path fill="#0070D2" d="M43.726 75.69h16.056v16.056H43.726z"/>
        <g>
            <path fill="#FFC100" d="M134.695 137.39h-54.34c-2.19 0-3.554-2.377-2.451-4.269l27.168-46.575c1.097-1.878 3.808-1.878 4.904 0l27.17 46.575c1.104 1.892-.26 4.269-2.451 4.269z"/>
            <path fill="#FFF" d="M107.719 121.334a2.294 2.294 0 0 1-2.294-2.294v-18.349a2.294 2.294 0 0 1 4.588 0v18.35a2.294 2.294 0 0 1-2.294 2.293zM107.719 130.509a2.412 2.412 0 0 1-1.628-.665 2.412 2.412 0 0 1-.666-1.629c0-.596.253-1.193.666-1.628.871-.85 2.385-.85 3.257 0 .412.435.665 1.032.665 1.628 0 .596-.253 1.193-.665 1.629a2.369 2.369 0 0 1-1.629.665z"/>
        </g>
    </g>
</svg>
