<svg xmlns="http://www.w3.org/2000/svg" width="115" height="89" viewBox="0 0 115 89">
    <g fill="none" fill-rule="evenodd">
        <g fill="#FFF" fill-rule="nonzero" stroke-width=".835">
            <path stroke="#04844B" d="M16.616 36.307H2.3c-.718 0-1.301-.602-1.301-1.345V18.825c0-.742.583-1.344 1.301-1.344h14.315c.718 0 1.3.602 1.3 1.344v16.137c0 .743-.582 1.345-1.3 1.345z"/>
            <path stroke="#516174" d="M16.616 60.78H2.3C1.583 60.78 1 60.178 1 59.436V43.299c0-.743.583-1.345 1.301-1.345h14.315c.718 0 1.3.603 1.3 1.345v16.137c0 .742-.582 1.344-1.3 1.344zM16.616 85.25H2.3C1.583 85.25 1 84.648 1 83.905V67.77c0-.743.583-1.345 1.301-1.345h14.315c.718 0 1.3.602 1.3 1.345v16.136c0 .743-.582 1.345-1.3 1.345z"/>
        </g>
        <path fill="#04844B" fill-rule="nonzero" d="M7.61 28.927L4.634 25.92 2.67 28.132l5.169 5.221 9.033-11.4-2.18-1.966z"/>
        <text fill="#16325C" font-family="ChalkboardSE-Bold, Chalkboard SE" font-size="13.366" font-weight="bold" transform="translate(1 -1)">
            <tspan x="23.391" y="31.81">appointments</tspan>
        </text>
        <text fill="#16325C" font-family="ChalkboardSE-Bold, Chalkboard SE" font-size="13.366" font-weight="bold" transform="translate(1 -1)">
            <tspan x="23.391" y="58.06">documents</tspan>
        </text>
        <text fill="#16325C" font-family="ChalkboardSE-Bold, Chalkboard SE" font-size="13.366" font-weight="bold" transform="translate(1 -1)">
            <tspan x="23.391" y="82.435">changes</tspan>
        </text>
        <g fill-rule="nonzero">
            <path fill="#D75A4A" d="M30.254 1.141A3.713 3.713 0 0 1 35.596 6.3L30.254 1.14z"/>
            <path fill="#7ED321" d="M31.692 8.337L19.877 20.573l-.207 2.219L32.694 9.304zM17 20.212l2.21-.284L31.025 7.692l-2.003-1.934-11.816 12.235zM28.354 5.114l-1.001-.968-13.025 13.487 2.21-.284z"/>
            <path fill="#C7CAC7" d="M34.628 7.301l.968-1.001-5.342-5.159-.967 1.002zM28.642 2.81l-.645.668 5.342 5.159.645-.668z"/>
            <path fill="#FBCE9D" d="M18.914 20.902l-2.372.306a.462.462 0 0 1-.05.003h-.001c-.018 0-.035 0-.052-.002-.018-.001-.033-.011-.05-.015a.456.456 0 0 1-.097-.03.471.471 0 0 1-.138-.098.44.44 0 0 1-.093-.141.43.43 0 0 1-.025-.077c-.003-.014-.011-.027-.013-.042-.003-.018.004-.034.003-.051 0-.018-.007-.033-.005-.051l.222-2.382-2.372.306a.485.485 0 0 1-.051.004c-.037 0-.071-.01-.106-.018l-1.232 5.608.96-.994a.464.464 0 1 1 .667.645l-.96.994 5.56-1.426a.456.456 0 0 1-.017-.157l.222-2.382z"/>
            <path fill="#417505" d="M14.098 23.217a.464.464 0 0 0-.656.011l-.96.994-.19.865.857-.22.96-.994a.464.464 0 0 0-.011-.656z"/>
            <path fill="#F2ECBF" d="M34.628 7.301l-5.34-5.158h-.001l-.645.668 5.342 5.158z"/>
            <path fill="#417505" d="M31.025 7.692L19.21 19.928l-2.21.284.206-2.219L29.022 5.758l-.668-.644L16.54 17.349l-2.21.284-.517.535-.098.446c.035.008.068.018.105.018a.485.485 0 0 0 .052-.004l2.372-.306-.223 2.382c-.001.018.006.034.006.05 0 .018-.006.034-.004.052.002.015.01.028.014.042a.471.471 0 0 0 .117.218.469.469 0 0 0 .236.128c.017.004.032.014.05.016a.456.456 0 0 0 .05.001h.002a.475.475 0 0 0 .051-.003l2.372-.306-.222 2.382a.455.455 0 0 0 .016.157l.445-.114.517-.535.207-2.219L31.692 8.338l-.667-.646z"/>
            <path fill="#F2ECBF" d="M33.339 8.637l-5.342-5.159-.644.668 1.001.968.668.644 2.003 1.934.667.645 1.002.967z"/>
        </g>
        <path stroke="#4A90E2" stroke-linecap="square" stroke-width=".938" d="M1.469 37.906h112.5M1.469 63.219h112.5M1.469 87.594h112.5"/>
    </g>
</svg>
