<svg xmlns="http://www.w3.org/2000/svg" width="130" height="130" viewBox="0 0 130 130">
    <g fill="none" fill-rule="nonzero">
        <circle cx="65" cy="65" r="65" fill="#FD8469"/>
        <g fill="#324A5E">
            <path d="M112.803 33.677V95.71C97.142 92.535 80.354 94.685 65 101.953c12.386-9.008 26.102-13.103 38.795-11.67V32.45c3.071.205 6.04.614 9.008 1.228zM65 101.953c-15.252-7.268-32.04-9.418-47.803-6.244V33.677a65.748 65.748 0 0 1 9.008-1.228v57.834c12.693-1.33 26.41 2.662 38.795 11.67z"/>
        </g>
        <path fill="#FFF" d="M103.795 28.252C91.102 26.819 77.385 30.913 65 39.922v62.03c12.386-9.007 26.102-13.102 38.795-11.669V28.252z"/>
        <g fill="#E6E9EE">
            <path d="M68.07 44.63v1.535c10.34-7.267 21.906-10.748 32.552-9.826v-1.331c-10.646-.819-22.11 2.559-32.551 9.622zM68.07 52.102v1.638c10.34-7.268 21.906-10.748 32.552-9.827v-1.33c-10.646-.922-22.11 2.456-32.551 9.52zM68.07 59.575v1.535c10.34-7.267 21.906-10.748 32.552-9.827v-1.33c-10.646-.82-22.11 2.559-32.551 9.622zM68.07 67.15v1.535c10.34-7.268 21.906-10.748 32.552-9.827v-1.33c-10.646-.922-22.11 2.456-32.551 9.622zM68.07 74.622v1.535c10.34-7.267 21.906-10.748 32.552-9.826V65c-10.646-.921-22.11 2.457-32.551 9.622zM68.07 82.094v1.536c10.34-7.268 21.906-10.748 32.552-9.827v-1.33c-10.646-.82-22.11 2.558-32.551 9.621zM68.07 89.567v1.535c10.34-7.267 21.906-10.748 32.552-9.826v-1.331c-10.646-.819-22.11 2.559-32.551 9.622zM26.205 28.252C39 26.819 52.615 30.913 65 39.922v62.03C52.614 92.946 38.898 88.85 26.205 90.284V28.252z"/>
        </g>
    </g>
</svg>
