<svg xmlns="http://www.w3.org/2000/svg" width="56" height="63" viewBox="0 0 56 63">
    <g fill="none" fill-rule="nonzero">
        <path fill="#FEA832" d="M45.582 24.262a1.664 1.664 0 0 0-1.462-.92H11.383a1.664 1.664 0 0 0-1.465.922l-9.3 18.804 1.008 3.287h52.379l.88-3.287-9.303-18.806z"/>
        <path fill="#BF6015" d="M4.254 43.068l8.13-16.439h30.734l8.13 16.439z"/>
        <path fill="#DBE9FD" d="M40.065 6.137h-24.52c-2.537.005-4.592 2.084-4.594 4.649v32.018c0 2.562 2.062 4.648 4.596 4.648h24.52c2.538-.003 4.594-2.083 4.596-4.648V10.786c-.002-2.566-2.058-4.645-4.596-4.649h-.002z"/>
        <path fill="#6BBAE2" d="M30.924 22.685h-6.13c-.407 0-.798-.162-1.086-.453a1.558 1.558 0 0 1-.45-1.097v-5.68h-4.595c-.58 0-1.11-.332-1.37-.856a1.564 1.564 0 0 1 .144-1.622L26.63.587c.579-.78 1.873-.78 2.454 0l9.198 12.392c.348.47.404 1.098.144 1.623-.26.525-.791.856-1.372.855H32.46v5.683c0 .41-.162.805-.45 1.095-.288.29-.678.453-1.085.452v-.002z"/>
        <path fill="#A1AAB3" d="M36.956 28.822h-2.477a1.53 1.53 0 0 1-1.524-1.535 1.53 1.53 0 0 1 1.524-1.534h2.477a1.53 1.53 0 0 1 1.526 1.534c0 .848-.684 1.535-1.526 1.535zM28.436 28.856h-9.77a1.529 1.529 0 0 1-1.393-.75 1.564 1.564 0 0 1 0-1.596c.292-.49.828-.779 1.394-.749h9.77a1.529 1.529 0 0 1 1.394.75 1.564 1.564 0 0 1 0 1.595c-.292.491-.828.78-1.393.75h-.002zm8.617 6.192H18.667a1.529 1.529 0 0 1-1.394-.75 1.564 1.564 0 0 1 0-1.596c.292-.49.828-.779 1.394-.75h18.388a1.529 1.529 0 0 1 1.394.75 1.564 1.564 0 0 1 0 1.596c-.292.491-.828.78-1.394.75h-.002zm0 6.19H18.667a1.529 1.529 0 0 1-1.394-.75 1.564 1.564 0 0 1 0-1.596c.292-.491.828-.78 1.394-.75h18.388a1.529 1.529 0 0 1 1.394.75 1.564 1.564 0 0 1 0 1.596c-.292.49-.828.779-1.394.75h-.002z"/>
        <path fill="#FEA832" d="M54.884 43.068H.618C.326 43.628 0 44.152 0 44.745v13.227a4.953 4.953 0 0 0 1.427 3.489 4.845 4.845 0 0 0 3.451 1.442h45.746a4.845 4.845 0 0 0 3.451-1.442 4.953 4.953 0 0 0 1.427-3.49V44.746c0-.593-.325-1.117-.618-1.677z"/>
        <path fill="#BF6015" d="M19.513 43.068v4.931a4.953 4.953 0 0 0 1.427 3.49 4.845 4.845 0 0 0 3.451 1.442h6.72a4.845 4.845 0 0 0 3.451-1.443A4.953 4.953 0 0 0 35.99 48v-4.931H19.513z"/>
    </g>
</svg>
