<svg xmlns="http://www.w3.org/2000/svg" width="123" height="123" viewBox="0 0 123 123">
    <path fill="#FFF" fill-rule="nonzero" d="M61.25 0C27.425 0 0 27.425 0 61.25c0 33.83 27.425 61.25 61.25 61.25 33.83 0 61.25-27.417 61.25-61.25C122.5 27.425 95.079 0 61.25 0zm0 111.015c-27.486 0-49.765-22.28-49.765-49.765 0-27.486 22.28-49.765 49.765-49.765 27.486 0 49.765 22.28 49.765 49.765 0 27.486-22.28 49.765-49.765 49.765zm.004-84.153c-4.387 0-7.706 2.29-7.706 5.987v33.917c0 3.702 3.319 5.984 7.706 5.984 4.28 0 7.706-2.378 7.706-5.984V32.85c0-3.61-3.426-5.987-7.706-5.987zm0 53.529c-4.215 0-7.645 3.43-7.645 7.648 0 4.21 3.43 7.641 7.645 7.641s7.641-3.43 7.641-7.641c0-4.219-3.426-7.648-7.641-7.648z"/>
</svg>
