<svg xmlns="http://www.w3.org/2000/svg" width="41" height="40" viewBox="0 0 41 40">
    <g fill="none" fill-rule="nonzero">
        <path fill="#FEDB41" d="M39.932 14.163L27.7 11.669 21.376.664a1.286 1.286 0 0 0-1.005-.623c-.441-.025-.882.2-1.128.648L13.14 11.844.957 14.587c-.907.2-1.275 1.346-.637 2.044L8.8 25.957 7.601 38.6c-.099.947.857 1.645 1.715 1.246l11.055-5.161.294-.15 11.423 5.062c.883.374 1.814-.324 1.716-1.297l-1.47-12.592 8.285-9.5c.613-.724.245-1.87-.687-2.045z"/>
        <path fill="#FC3" d="M40.619 16.208l-8.286 9.5L33.804 38.3c.098.973-.833 1.671-1.716 1.297l-11.423-5.062-.294.15V.04c.368.025.76.224 1.005.623L27.7 11.67l12.232 2.494c.932.174 1.3 1.321.687 2.045z"/>
        <path fill="#FEA832" d="M30.593 17.355l-6.006-1.222-3.113-5.362a1.237 1.237 0 0 0-1.103-.623c-.416 0-.809.2-1.03.623l-2.99 5.461-5.98 1.347c-.932.2-1.275 1.346-.638 2.045l4.167 4.588-.613 6.209c-.073.947.883 1.67 1.74 1.246l5.344-2.493.221-.1 5.638 2.469c.858.399 1.814-.324 1.691-1.272l-.71-6.209 4.068-4.663c.613-.723.245-1.87-.686-2.044z"/>
        <path fill="#FE9923" d="M31.28 19.4l-4.07 4.662.711 6.21c.123.947-.833 1.67-1.691 1.27l-5.638-2.468-.22.1V10.148c.44 0 .857.2 1.102.623l3.113 5.362 6.006 1.222c.931.174 1.3 1.321.686 2.044z"/>
    </g>
</svg>
