<svg xmlns="http://www.w3.org/2000/svg" width="40" height="40" viewBox="0 0 40 40">
    <g fill="none" fill-rule="nonzero">
        <path fill="#FFC100" d="M0 19.966C0 8.938 8.94 0 19.966 0 30.993 0 39.932 8.94 39.932 19.966c0 11.027-8.94 19.966-19.966 19.966C8.939 39.932 0 30.992 0 19.966z"/>
        <g fill="#FFF">
            <path d="M34.466 13.855l-2.498.006c-1.873-4.2-5.55-7.233-10.193-7.96-5.174-.81-10.126 1.592-13.079 5.82-1.312 1.877 1.77 3.635 3.071 1.773 4.05-5.798 12.697-5.274 16.25.377l-2.308.006a.542.542 0 0 0-.462.231.51.51 0 0 0-.052.659l4.396 6.82a.599.599 0 0 0 1.022-.003l4.36-6.842c.241-.377-.075-.888-.507-.887zM28.197 26.336c-4.018 5.754-12.564 5.282-16.167-.245l2.212-.006a.543.543 0 0 0 .462-.23.511.511 0 0 0 .052-.66l-4.396-6.82a.598.598 0 0 0-1.021.003L4.977 25.22c-.24.377.076.888.508.887L8.06 26.1c1.89 4.13 5.535 7.11 10.13 7.83 5.174.81 10.126-1.593 13.078-5.82 1.311-1.878-1.771-3.636-3.072-1.774z"/>
        </g>
    </g>
</svg>
