<svg xmlns="http://www.w3.org/2000/svg" width="120" height="120" viewBox="0 0 120 120">
    <g fill="none" fill-rule="evenodd">
        <path fill="#AFB0B4" d="M81.868 78.072H69.94a1.992 1.992 0 0 0-1.988 1.997v37.935c0 1.102.89 1.996 1.988 1.996h11.928a1.992 1.992 0 0 0 1.987-1.996V80.069c0-1.103-.89-1.997-1.987-1.997z"/>
        <path fill="#88898E" d="M70.281 78.072h-20.08c-1.11 0-2.008.894-2.008 1.997v37.935c0 1.102.899 1.996 2.008 1.996h20.08c1.11 0 2.008-.894 2.008-1.996V80.069c0-1.103-.899-1.997-2.008-1.997z"/>
        <path fill="#CF442B" d="M101.983 19.759H33.92c-9.934 0-18.016 8.097-18.016 18.049v42.114c0 1.108.896 2.006 2.001 2.006h100.093A2.004 2.004 0 0 0 120 79.922V37.808c0-9.952-8.082-18.049-18.017-18.049z"/>
        <path fill="#B83C26" d="M23.911 79.922V37.808c0-9.952 8.082-18.049 18.017-18.049H33.92c-9.934 0-18.016 8.097-18.016 18.049v42.114c0 1.108.896 2.006 2.001 2.006h8.008a2.003 2.003 0 0 1-2.002-2.006z"/>
        <path fill="#EBEBEC" d="M62.093 38.072H2.003A1.998 1.998 0 0 0 0 40.066v39.868c0 1.101.897 1.994 2.003 1.994h60.09a1.998 1.998 0 0 0 2.003-1.994V40.066a1.998 1.998 0 0 0-2.003-1.994z"/>
        <path fill="#D7D8D9" d="M33.3 71.376l30.796-24.218v-5.23H0v5.23l30.797 24.218a2.03 2.03 0 0 0 2.503 0z"/>
        <path fill="#EBEBEC" d="M63.983 39.408a2.003 2.003 0 0 0-1.89-1.336H2c-.815 0-1.568.513-1.865 1.27a2.012 2.012 0 0 0 .614 2.287l30.046 23.963c.723.576 1.78.576 2.503 0l30.046-23.963c.664-.53.921-1.42.64-2.22z"/>
        <circle cx="31.75" cy="65.695" r="6.661" fill="#E1A527"/>
        <g fill="#FDD042">
            <path fill-rule="nonzero" d="M31.75 73.335c-4.213 0-7.64-3.428-7.64-7.64 0-4.214 3.426-7.641 7.64-7.641 4.212 0 7.64 3.427 7.64 7.64 0 4.213-3.428 7.64-7.64 7.64zm0-13.322a5.688 5.688 0 0 0-5.682 5.681 5.688 5.688 0 0 0 5.681 5.682 5.688 5.688 0 0 0 5.682-5.682 5.688 5.688 0 0 0-5.681-5.68z"/>
            <path d="M31.75 69.836a4.146 4.146 0 0 1-4.142-4.142 4.146 4.146 0 0 1 4.142-4.141.98.98 0 1 1 0 1.959c-1.204 0-2.183.979-2.183 2.182 0 1.204.98 2.183 2.183 2.183 1.203 0 2.182-.98 2.182-2.183a.98.98 0 1 1 1.96 0 4.146 4.146 0 0 1-4.143 4.142z"/>
        </g>
        <path fill="#F58F6C" d="M10.682 111.807h39.991c.91 0 1.705-.606 1.939-1.479l7.629-28.4H16.097l-7.354 27.374c-.34 1.264.621 2.505 1.94 2.505z"/>
        <path fill="#F07B52" d="M101.983 19.759H41.928c9.934 0 18.016 8.097 18.016 18.049v44.12h58.054A2.004 2.004 0 0 0 120 79.922V37.808c0-9.952-8.082-18.049-18.017-18.049z"/>
        <circle cx="90.12" cy="41.928" r="10.12" fill="#FDD042"/>
        <circle cx="89.88" cy="42.169" r="6.024" fill="#E1A527"/>
        <path fill="#606268" d="M90.12 43.855c-1.064 0-1.927-.892-1.927-1.993V1.993c0-1.1.863-1.993 1.927-1.993 1.065 0 1.928.893 1.928 1.993v39.87c0 1.1-.863 1.992-1.928 1.992z"/>
        <path fill="#FDD042" d="M105.976 0H90.169c-1.092 0-1.976.9-1.976 2.008v8.032c0 1.11.885 2.008 1.976 2.008h15.807c1.091 0 1.976-.899 1.976-2.008V2.008c0-1.109-.885-2.008-1.976-2.008z"/>
        <g fill="#B83C26">
            <path d="M99.8 74.153H73.85c-1.102 0-1.996-.921-1.996-2.057 0-1.135.894-2.056 1.996-2.056H99.8c1.102 0 1.995.921 1.995 2.056 0 1.136-.893 2.057-1.995 2.057zM109.78 74.153h-3.992c-1.103 0-1.996-.921-1.996-2.057 0-1.135.893-2.056 1.996-2.056h3.992c1.102 0 1.996.921 1.996 2.056 0 1.136-.894 2.057-1.996 2.057z"/>
        </g>
    </g>
</svg>
