<svg xmlns="http://www.w3.org/2000/svg" width="68" height="57" viewBox="0 0 68 57">
    <g fill="#FFC100" fill-rule="nonzero">
        <path d="M33.612.052c-14.851 0-26.89 11.945-26.89 26.68 0 .348.03.687.053 1.03l-3.906-3.876a1.689 1.689 0 0 0-2.376 0 1.658 1.658 0 0 0 0 2.358l6.722 6.67c.327.325.757.488 1.188.488.43 0 .86-.163 1.188-.488l6.723-6.67a1.657 1.657 0 0 0 0-2.358 1.689 1.689 0 0 0-2.377 0l-3.79 3.76c-.015-.306-.064-.604-.064-.914 0-12.872 10.556-23.345 23.529-23.345 10.884 0 20.037 7.38 22.714 17.353a5.02 5.02 0 0 1 2.495-.678c.278 0 .55.035.82.08C56.681 8.6 46.166.052 33.611.052zM66.732 30.555l-6.722-6.67a1.682 1.682 0 0 0-1.189-.488c-.43 0-.86.162-1.189.488l-6.722 6.67a1.657 1.657 0 0 0 0 2.358c.656.651 1.72.651 2.376 0l3.79-3.761c.016.307.064.605.064.915 0 12.872-10.555 23.345-23.528 23.345-10.884 0-20.038-7.38-22.714-17.353a5.03 5.03 0 0 1-2.496.678 5.04 5.04 0 0 1-.82-.08c2.962 11.541 13.476 20.09 26.03 20.09 14.85 0 26.89-11.945 26.89-26.68 0-.348-.03-.687-.053-1.03l3.906 3.876c.656.651 1.72.651 2.376 0a1.658 1.658 0 0 0 .001-2.358z"/>
    </g>
</svg>
