<svg xmlns="http://www.w3.org/2000/svg" width="65" height="57" viewBox="0 0 65 57">
    <g fill="none" fill-rule="evenodd">
        <path fill="#37A18E" d="M64.269 43.22L52.08 33.043a2.031 2.031 0 0 0-3.331 1.564v6.107h-3.4a8.081 8.081 0 0 1-6.89-3.827l-13.155-21.09c-2.986-4.792-8.137-7.655-13.78-7.655H0v8.143h11.525a8.081 8.081 0 0 1 6.89 3.827l13.155 21.09c2.99 4.792 8.14 7.655 13.78 7.655h3.4v6.107c0 .79.455 1.506 1.17 1.844.272.126.569.191.861.191.467 0 .93-.158 1.3-.472L64.27 46.348c.467-.387.731-.961.731-1.564 0-.602-.264-1.176-.731-1.563z"/>
        <path fill="#43C1AA" d="M64.269 10.65L52.08.47A2.03 2.03 0 0 0 49.92.195a2.024 2.024 0 0 0-1.17 1.84v6.107h-3.4c-5.643 0-10.794 2.863-13.78 7.655l-13.15 21.09a8.088 8.088 0 0 1-6.895 3.827H0v8.143h11.525c5.64 0 10.79-2.863 13.78-7.655l13.15-21.09a8.093 8.093 0 0 1 6.895-3.827h3.4v6.107a2.034 2.034 0 0 0 2.031 2.036c.467 0 .93-.163 1.3-.472L64.27 13.776c.467-.387.731-.96.731-1.563s-.264-1.177-.731-1.564z"/>
    </g>
</svg>
