<svg xmlns="http://www.w3.org/2000/svg" width="41" height="40" viewBox="0 0 41 40">
    <g fill="none" fill-rule="nonzero">
        <path fill="#E7ECED" d="M29.106 40H11.893a2.318 2.318 0 0 1-2.327-2.31V2.987A2.318 2.318 0 0 1 11.893.677h17.212a2.318 2.318 0 0 1 2.327 2.309V37.69A2.317 2.317 0 0 1 29.106 40z"/>
        <ellipse cx="20.499" cy="36.609" fill="#FFF" rx="2.05" ry="2.034"/>
        <path fill="#424A60" d="M20.5 3.39h-2.734a.68.68 0 0 1-.683-.679.68.68 0 0 1 .683-.678h2.733a.68.68 0 0 1 .684.678.68.68 0 0 1-.684.678zM23.233 3.39h-.684a.68.68 0 0 1-.683-.679.68.68 0 0 1 .683-.678h.684a.68.68 0 0 1 .683.678.68.68 0 0 1-.683.678z"/>
        <path fill="#7383BF" d="M38.201 14.4a.684.684 0 0 1-.483-.198.673.673 0 0 1 0-.959 6.468 6.468 0 0 0 0-9.187.673.673 0 0 1 0-.96.686.686 0 0 1 .966 0 7.818 7.818 0 0 1 0 11.106.681.681 0 0 1-.483.199z"/>
        <path fill="#7383BF" d="M35.324 13.045a.684.684 0 0 1-.484-.199.673.673 0 0 1 0-.959 4.398 4.398 0 0 0 1.311-3.144c0-1.19-.465-2.306-1.31-3.145a.673.673 0 0 1 0-.959.686.686 0 0 1 .966 0 5.74 5.74 0 0 1 1.71 4.104 5.74 5.74 0 0 1-1.71 4.103.681.681 0 0 1-.483.199zM2.798 14.4a.684.684 0 0 1-.484-.198 7.818 7.818 0 0 1 0-11.105.686.686 0 0 1 .967 0 .673.673 0 0 1 0 .959 6.468 6.468 0 0 0 0 9.187.673.673 0 0 1 0 .959.683.683 0 0 1-.483.199z"/>
        <path fill="#7383BF" d="M5.675 12.858a.684.684 0 0 1-.483-.198 5.74 5.74 0 0 1-1.711-4.104 5.74 5.74 0 0 1 1.711-4.103.686.686 0 0 1 .966 0 .673.673 0 0 1 0 .959 4.398 4.398 0 0 0-1.31 3.144c0 1.19.465 2.306 1.31 3.145a.673.673 0 0 1 0 .959.685.685 0 0 1-.483.198z"/>
        <path fill="#424A60" d="M9.566 4.745h21.867V33.22H9.566z"/>
    </g>
</svg>
