<svg xmlns="http://www.w3.org/2000/svg" width="56" height="40" viewBox="0 0 56 40">
    <g fill="none" fill-rule="evenodd">
        <g fill="#FF9E24">
            <path d="M24.39 20L.381 39.566A1.328 1.328 0 0 1 0 38.632V1.368C0 1.005.146.674.382.434L24.39 20zM56 1.368v37.264c0 .363-.146.694-.382.934L31.61 20 55.618.434c.236.24.382.57.382.934z"/>
        </g>
        <path fill="#FFE1D6" d="M54.673.034H1.327c-.369 0-.703.154-.945.4L28 29.333 55.618.434a1.32 1.32 0 0 0-.945-.4z"/>
        <path fill="#FFB14D" d="M36.919 20l18.699 19.566a1.32 1.32 0 0 1-.945.4H1.327c-.369 0-.703-.154-.945-.4L19.082 20 28 29.333 36.919 20z"/>
    </g>
</svg>
