<?xml version="1.0" standalone="no"?>
<!DOCTYPE svg PUBLIC "-//W3C//DTD SVG 20010904//EN"
 "http://www.w3.org/TR/2001/REC-SVG-20010904/DTD/svg10.dtd">
<svg version="1.0" xmlns="http://www.w3.org/2000/svg"
 width="225.000000pt" height="225.000000pt" viewBox="0 0 225.000000 225.000000"
 preserveAspectRatio="xMidYMid meet">
<metadata>
Created by potrace 1.16, written by Peter Selinger 2001-2019
</metadata>
<g transform="translate(0.000000,225.000000) scale(0.100000,-0.100000)"
fill="#000000" stroke="none">
<path d="M1060 2244 c-305 -32 -531 -135 -725 -329 -438 -437 -438 -1143 0
-1580 437 -438 1143 -438 1580 0 380 379 437 965 138 1414 -167 251 -457 437
-748 480 -88 13 -199 20 -245 15z m-113 -509 c34 -38 38 -69 16 -107 -38 -66
-110 -73 -158 -16 -31 36 -32 76 -4 112 41 52 106 57 146 11z m65 -215 c65
-44 82 -84 118 -272 17 -95 34 -183 37 -194 3 -15 27 -32 81 -57 162 -74 278
-56 342 53 28 48 59 62 87 39 37 -31 -13 -131 -92 -184 l-45 -30 0 -177 c0
-165 -2 -180 -20 -198 -24 -24 -38 -25 -62 -3 -15 13 -18 32 -18 110 0 51 -3
93 -7 93 -5 0 -7 -34 -5 -76 4 -95 -2 -122 -33 -136 -21 -9 -28 -8 -45 7 -19
17 -20 31 -20 197 l0 178 -24 0 c-41 0 -166 70 -172 97 -4 12 -12 23 -19 23
-21 0 -43 33 -50 75 -4 22 -13 74 -21 115 -8 41 -19 100 -25 130 -13 71 -20
93 -25 87 -3 -2 2 -38 10 -78 8 -41 24 -126 36 -189 11 -63 27 -146 35 -184 8
-38 15 -72 15 -77 0 -5 -18 -9 -40 -9 l-40 0 0 -170 c0 -157 -2 -172 -20 -190
-11 -11 -29 -20 -40 -20 -11 0 -29 9 -40 20 -18 18 -20 33 -20 190 0 107 -4
170 -10 170 -6 0 -10 -63 -10 -170 0 -157 -2 -172 -20 -190 -24 -24 -48 -25
-78 -4 -21 15 -22 21 -22 190 l0 174 -40 0 c-22 0 -40 2 -40 5 0 7 89 479 97
515 4 17 2 22 -5 15 -6 -5 -18 -50 -27 -100 -9 -49 -23 -128 -31 -175 -22
-124 -54 -159 -99 -110 -16 17 -17 26 -6 77 6 32 22 118 36 191 27 141 37 170
79 215 42 46 81 57 177 55 72 -3 91 -7 121 -28z m479 -399 c60 -60 24 -151
-59 -151 -90 0 -122 122 -43 165 40 22 70 18 102 -14z"/>
</g>
</svg>
