<svg xmlns="http://www.w3.org/2000/svg" width="98" height="98" viewBox="0 0 98 98">
    <g fill="none" fill-rule="evenodd">
        <circle cx="45" cy="45" r="45" fill="#DAE0EB" stroke="#FFF" stroke-width="8" transform="translate(4 4)"/>
        <g fill-rule="nonzero" opacity=".7">
            <path fill="#FFF" d="M65.05 24.503l-32.845.055v46.9l32.846.04a2 2 0 0 0 2.003-2V26.503a2 2 0 0 0-2.004-2z"/>
            <path fill="#B4C0D6" d="M34.57 24.558H30.08a2.462 2.462 0 0 0-2.462 2.462v41.976a2.462 2.462 0 0 0 2.462 2.462h4.489v-46.9z"/>
            <path fill="#00437D" d="M69.145 29.481h-2.091v7.868h2.091c.918 0 1.658-.74 1.658-1.657v-4.537c0-.933-.74-1.674-1.658-1.674z"/>
            <path fill="#0070D2" d="M69.145 40.132h-2.091V48h2.091c.918 0 1.658-.74 1.658-1.657v-4.537c0-.933-.74-1.674-1.658-1.674z"/>
            <path fill="#B4C0D6" d="M69.145 50.783h-2.091v7.868h2.091c.918 0 1.658-.74 1.658-1.657v-4.537c0-.917-.74-1.674-1.658-1.674z"/>
            <path fill="#00437D" d="M56.145 50.3c.467 0 .87-.37 1.223-1.11.354-.74.531-1.673.531-2.799 0-2.43-.692-4.457-2.091-6.05-1.4-1.592-3.267-2.397-5.616-2.397-2.349 0-4.328.837-5.936 2.51-1.61 1.673-2.414 3.685-2.414 6.018 0 2.332.756 4.28 2.269 5.84 1.512 1.56 3.378 2.333 5.599 2.333 1.737 0 3.282-.644 4.601-1.915l1.062 1.834c-.692.612-1.577 1.094-2.638 1.464-1.078.37-2.076.564-3.025.564-2.88 0-5.294-.966-7.24-2.88-1.947-1.931-2.912-4.328-2.912-7.224s1.03-5.358 3.073-7.401c2.043-2.044 4.505-3.073 7.384-3.073 2.88 0 5.294.981 7.224 2.944 1.931 1.963 2.897 4.424 2.897 7.353 0 1.898-.387 3.427-1.175 4.569s-1.818 1.721-3.09 1.721c-.659 0-1.254-.193-1.801-.595a3.1 3.1 0 0 1-1.126-1.496c-.95 1.223-2.156 1.834-3.604 1.834-1.464 0-2.735-.547-3.813-1.657-1.078-1.11-1.625-2.51-1.625-4.2 0-1.705.482-3.137 1.464-4.295.981-1.159 2.252-1.754 3.845-1.754.531 0 1.046.113 1.528.354.483.225.821.467 1.03.692l.338.338V40.76h3.234v8.254c.032.852.29 1.287.804 1.287zm-3.99-3.909c0-.869-.225-1.577-.692-2.156-.45-.563-1.061-.853-1.801-.853s-1.336.29-1.77.853c-.435.563-.66 1.271-.66 2.108 0 .836.225 1.56.66 2.188.434.627 1.045.933 1.802.933.756 0 1.367-.29 1.802-.9.434-.58.66-1.304.66-2.173z"/>
        </g>
    </g>
</svg>
