<svg xmlns="http://www.w3.org/2000/svg" xmlns:xlink="http://www.w3.org/1999/xlink" width="98" height="98" viewBox="0 0 98 98">
    <defs>
        <circle id="a" cx="45" cy="45" r="45"/>
    </defs>
    <g fill="none" fill-rule="evenodd">
        <g transform="translate(4 4)">
            <use fill="#068BFF" stroke="#FFF" stroke-width="8" xlink:href="#a"/>
            <circle cx="45" cy="45" r="46" stroke="#068BFF" stroke-width="2"/>
        </g>
        <path fill="#FFF" fill-rule="nonzero" d="M53.173 35.209c2.312 1.447 3.933 3.895 4.228 6.737.943.44 1.99.693 3.099.693 4.05 0 7.333-3.277 7.333-7.32C67.833 31.278 64.55 28 60.5 28a7.326 7.326 0 0 0-7.327 7.209zm-4.804 14.987c4.05 0 7.333-3.278 7.333-7.32s-3.284-7.32-7.333-7.32c-4.05 0-7.335 3.278-7.335 7.32 0 4.043 3.285 7.32 7.335 7.32zm3.11.498h-6.222c-5.177 0-9.39 4.205-9.39 9.373v7.595l.02.12.524.163C41.352 69.486 45.644 70 49.177 70c6.901 0 10.9-1.964 11.147-2.089l.49-.247h.053v-7.597c.001-5.168-4.21-9.373-9.388-9.373zm12.133-7.556h-6.175a9.013 9.013 0 0 1-2.79 6.283c4.603 1.366 7.97 5.626 7.97 10.657v2.34c6.096-.222 9.61-1.947 9.84-2.063l.49-.248H73V52.51c0-5.167-4.212-9.37-9.388-9.37zm-28.11-.498c1.434 0 2.769-.418 3.9-1.13a9.056 9.056 0 0 1 3.41-5.777c.008-.137.021-.273.021-.412 0-4.042-3.283-7.32-7.331-7.32-4.051 0-7.334 3.278-7.334 7.32 0 4.041 3.283 7.319 7.334 7.319zm6.585 6.781a9.019 9.019 0 0 1-2.787-6.248c-.23-.017-.456-.035-.69-.035h-6.22c-5.178 0-9.39 4.204-9.39 9.371v7.597l.02.117.523.165c3.964 1.235 7.501 1.805 10.574 1.984v-2.294c.001-5.031 3.367-9.29 7.97-10.657z"/>
    </g>
</svg>
