<svg xmlns="http://www.w3.org/2000/svg" width="98" height="98" viewBox="0 0 98 98">
    <g fill="none" fill-rule="evenodd">
        <circle cx="45" cy="45" r="45" fill="#DAE0EB" stroke="#FFF" stroke-width="8" transform="translate(4 4)"/>
        <g fill="#B4C0D6">
            <path d="M54.173 35.209c2.312 1.447 3.933 3.895 4.228 6.737.943.44 1.99.693 3.099.693 4.05 0 7.333-3.277 7.333-7.32C68.833 31.278 65.55 28 61.5 28a7.326 7.326 0 0 0-7.327 7.209zM49.369 50.196c4.05 0 7.333-3.278 7.333-7.32s-3.284-7.32-7.333-7.32c-4.05 0-7.335 3.278-7.335 7.32 0 4.043 3.285 7.32 7.335 7.32zM52.48 50.694h-6.223c-5.177 0-9.39 4.205-9.39 9.373v7.595l.02.12.524.163C42.352 69.486 46.644 70 50.177 70c6.901 0 10.9-1.964 11.147-2.089l.49-.247h.053v-7.597c.001-5.168-4.21-9.373-9.388-9.373z"/>
            <path d="M64.612 43.138h-6.175a9.013 9.013 0 0 1-2.79 6.283c4.603 1.366 7.97 5.626 7.97 10.657v2.34c6.096-.222 9.61-1.947 9.84-2.063l.49-.248H74V52.51c0-5.167-4.212-9.37-9.388-9.37zM36.502 42.64c1.434 0 2.769-.418 3.9-1.13a9.056 9.056 0 0 1 3.41-5.777c.008-.137.021-.273.021-.412 0-4.042-3.283-7.32-7.331-7.32-4.051 0-7.334 3.278-7.334 7.32 0 4.041 3.283 7.319 7.334 7.319zM43.087 49.421a9.019 9.019 0 0 1-2.787-6.248c-.23-.017-.456-.035-.69-.035h-6.22c-5.178 0-9.39 4.204-9.39 9.371v7.597l.02.117.523.165c3.964 1.235 7.501 1.805 10.574 1.984v-2.294c.001-5.031 3.367-9.29 7.97-10.657z"/>
        </g>
    </g>
</svg>
