<svg xmlns="http://www.w3.org/2000/svg" xmlns:xlink="http://www.w3.org/1999/xlink" width="176" height="177" viewBox="0 0 176 177">
    <defs>
        <ellipse id="a" cx="84" cy="83.95" rx="84" ry="83.95"/>
    </defs>
    <g fill="none" fill-rule="evenodd">
        <g transform="translate(4 4.333)">
            <use fill="#068BFF" xlink:href="#a"/>
            <ellipse cx="84" cy="83.95" stroke="#FFF" stroke-width="8" rx="80" ry="79.95"/>
            <ellipse cx="84" cy="83.95" stroke="#068BFF" stroke-width="4" rx="86" ry="85.95"/>
        </g>
        <path fill="#526173" d="M117.58 67.95l-7.205-7.183H88.22v-1.578c3.276-.667 5.75-3.56 5.75-7.022 0-3.952-3.225-7.167-7.188-7.167-3.963 0-7.187 3.215-7.187 7.167 0 3.46 2.474 6.355 5.75 7.022v1.578H74.047a4.514 4.514 0 0 0-4.515 4.503v4.097h-4.907L57.42 76.55a2 2 0 0 0 0 2.833l7.205 7.184h20.719v30.1h-5.187a2 2 0 0 0-2 2v3.733h-2.313a2 2 0 0 0-2 2v4.6a2 2 0 0 0 2 2h21.874a2 2 0 0 0 2-2v-4.6a2 2 0 0 0-2-2h-2.312v-3.733a2 2 0 0 0-2-2h-5.187v-30.1h12.734c2.49 0 4.515-2.02 4.515-4.504v-4.096h4.907l7.205-7.184a2 2 0 0 0 0-2.833z"/>
        <path fill="#0070D2" d="M82.469 52.167c0-2.371 1.935-4.3 4.312-4.3 2.378 0 4.313 1.929 4.313 4.3 0 2.37-1.935 4.3-4.313 4.3-2.377 0-4.312-1.93-4.312-4.3z"/>
        <path fill="#FFF" d="M96.843 125.267v2.866H76.72v-2.866H95.406zM92.531 122.4h-11.5v-2.867h11.5zM102.593 82.063a1.64 1.64 0 0 1-1.64 1.637H65.815l-5.75-5.733 5.75-5.734h35.138c.904 0 1.64.734 1.64 1.637V82.063z"/>
        <path fill="#FFF" d="M105.468 75.1v-1.23c0-2.482-2.025-4.503-4.515-4.503H72.407V65.27a1.64 1.64 0 0 1 1.64-1.637h35.138l5.75 5.734-5.75 5.733h-3.717z"/>
    </g>
</svg>
