<svg xmlns="http://www.w3.org/2000/svg" xmlns:xlink="http://www.w3.org/1999/xlink" width="320" height="551" viewBox="0 0 320 551">
    <defs>
        <path id="a" d="M0 0h321v551.042H0z"/>
        <path id="c" d="M0 0h321v1038.489H0z"/>
    </defs>
    <g fill="none" fill-rule="evenodd" transform="translate(-1 -1)">
        <mask id="b" fill="#fff">
            <use xlink:href="#a"/>
        </mask>
        <g mask="url(#b)">
            <g transform="translate(1.003 -7.48)">
                <mask id="d" fill="#fff">
                    <use xlink:href="#c"/>
                </mask>
                <g mask="url(#d)">
                    <path fill="#2F90E5" d="M-41.88-114.962h404.76v399.493c-51.905 19.602-87.23 26.285-105.975 20.047-28.118-9.357-54.513-18.131-93.875-18.131-35.543 0-61.055 3.272-96.598 13.648-23.695 6.918-59.8 1.73-108.312-15.564v-399.493z"/>
                    <path fill="#F9FBFD" fill-opacity=".25" d="M-42.131 333.987c27.205-34.887 57.693-52.33 91.465-52.33 50.658 0 60.508 10.18 111.166 10.18 50.658 0 66.98-10.18 117.639-10.18 33.772 0 62.102 17.443 84.992 52.33v619.238H-42.13V333.987z"/>
                    <path fill="#F9FBFD" fill-opacity=".25" d="M-131.344 299.349c37.228-27.123 78.95-40.685 125.163-40.685 69.321 0 85.317 9.58 106.365 18.952 21.048 9.372 68.906 36.613 89.954 8.83 21.048-27.782 89.034-28.74 115.572-23.95 26.54 4.79 79.512 20.056 96.467 36.853 11.304 11.197 11.304 171.675 0 481.433h-533.52V299.35z"/>
                </g>
            </g>
        </g>
    </g>
</svg>
