<?xml version="1.0" encoding="UTF-8"?>
<svg width="106px" height="106px" viewBox="0 0 106 106" version="1.1" xmlns="http://www.w3.org/2000/svg" xmlns:xlink="http://www.w3.org/1999/xlink">
    <!-- Generator: sketchtool 42 (36781) - http://www.bohemiancoding.com/sketch -->
    <title>D93895DF-651C-446B-B907-2A624262C5FA</title>
    <desc>Created with sketchtool.</desc>
    <defs></defs>
    <g id="User-Registration" stroke="none" stroke-width="1" fill="none" fill-rule="evenodd">
        <g id="User-Reg---User-Splash-Copy" transform="translate(-668.000000, -375.000000)" fill-rule="nonzero">
            <g id="Group" transform="translate(382.000000, 185.000000)">
                <g id="checked" transform="translate(286.000000, 190.000000)">
                    <g id="Layer_1">
                        <circle id="Oval" fill="#31D576" cx="52.9076436" cy="52.9076436" r="52.9076436"></circle>
                        <path d="M97.2183723,24.0565426 L50.4278733,72.5004317 L50.5105743,77.708495 L52.6599604,77.708495 L103.335937,36.8701584 C101.847739,32.3234931 99.7810535,27.9420198 97.2183723,24.0565426 Z" id="Shape" fill="#37A18E"></path>
                        <path d="M104.823925,21.7419644 L95.4822812,12.4830218 C94.2421861,11.2429267 92.175501,11.2429267 90.8529149,12.4830218 L50.9238693,53.7346535 L33.6460792,36.7049663 C32.4059842,35.4648713 30.339299,35.4648713 29.0167129,36.7049663 L20.7497624,44.8892158 C19.5096673,46.1293109 19.5096673,48.195996 20.7497624,49.4360911 L48.3611881,76.799204 C49.1052871,77.543303 50.0972792,77.791196 51.0892713,77.708495 C52.0812634,77.791196 53.0732554,77.5430931 53.8173545,76.799204 L104.823925,26.3713307 C106.06402,25.0485347 106.06402,22.9818495 104.823925,21.7419644 Z" id="Shape" fill="#F2F1EF"></path>
                        <path d="M53.8173545,76.799204 L104.823925,26.3713307 C106.06402,25.1312356 106.06402,23.0645505 104.823925,21.8244554 L103.335937,20.4191683 L51.0065703,71.8390337 L22.0725584,43.6491208 L20.8324634,44.8892158 C19.5923683,46.1293109 19.5923683,48.195996 20.8324634,49.4360911 L48.4438891,76.7994139 C49.1879881,77.5435129 50.1799802,77.7914059 51.1719723,77.708705 C52.0812634,77.791196 53.0732554,77.543303 53.8173545,76.799204 Z" id="Shape" fill="#E6E5E3"></path>
                    </g>
                </g>
            </g>
        </g>
    </g>
</svg>