<?xml version="1.0" encoding="UTF-8"?>
<svg width="84px" height="106px" viewBox="0 0 84 106" version="1.1" xmlns="http://www.w3.org/2000/svg" xmlns:xlink="http://www.w3.org/1999/xlink">
    <!-- Generator: sketchtool 42 (36781) - http://www.bohemiancoding.com/sketch -->
    <title>5AA3D6A8-5146-41D0-9567-E44D9398AE94</title>
    <desc>Created with sketchtool.</desc>
    <defs></defs>
    <g id="User-Registration" stroke="none" stroke-width="1" fill="none" fill-rule="evenodd">
        <g id="User-Reg---Pending-Registration" transform="translate(-678.000000, -375.000000)" fill-rule="nonzero">
            <g id="hourglass" transform="translate(678.000000, 375.000000)">
                <g id="Group" transform="translate(16.148438, 9.523438)" fill="#DADDE5">
                    <path d="M0.0267070313,17.8313945 C0.0267070313,31.9925391 11.5055547,43.4765625 25.671875,43.4765625 C39.8330195,43.4765625 51.317043,31.9925391 51.317043,17.8313945 L0.0267070313,17.8313945 L0.0267070313,17.8313945 Z" id="Shape"></path>
                    <rect id="Rectangle-path" x="0.0267070313" y="0.0536210937" width="51.2880586" height="17.7804648"></rect>
                    <rect id="Rectangle-path" x="0.0267070313" y="69.1231797" width="51.2880586" height="17.7808789"></rect>
                    <path d="M25.671875,43.4765625 C11.5107305,43.4765625 0.0267070313,54.9605859 0.0267070313,69.1217305 L51.3180781,69.1217305 C51.3180781,54.9605859 39.8381953,43.4765625 25.671875,43.4765625 Z" id="Shape"></path>
                    <path d="M30.9580039,44.0214688 C29.256207,43.6599922 27.4833984,43.4755273 25.671875,43.4755273 C27.4833984,43.4755273 29.256207,43.2906484 30.9580039,42.9285508 C30.7052188,42.983207 30.5201328,43.2078359 30.5201328,43.4755273 C30.5197187,43.7421836 30.7052188,43.9684688 30.9580039,44.0214688 Z" id="Shape"></path>
                    <path d="M20.3857461,44.0214688 C22.087543,43.6599922 23.8589023,43.4755273 25.671875,43.4755273 C23.8586953,43.4755273 22.087543,43.2906484 20.3857461,42.9285508 C20.6385312,42.983207 20.822375,43.2078359 20.822375,43.4755273 C20.822375,43.7421836 20.6385312,43.9684688 20.3857461,44.0214688 Z" id="Shape"></path>
                </g>
                <path d="M63.2726836,27.57325 C63.2573633,29.2257734 63.056957,30.8418594 62.6700156,32.3850703 L36.4546836,32.3850703 L36.4546836,27.57325 C37.1681133,26.8751406 38.1972656,26.1548789 39.5816836,25.5089414 C42.373293,24.1785586 46.600043,23.128082 52.5513633,23.128082 C58.4708008,23.128082 63.2726836,25.1188945 63.2726836,27.57325 Z" id="Shape" fill="#D65A38"></path>
                <g id="Group" transform="translate(20.289062, 22.773438)" fill="#F67656">
                    <path d="M32.2620937,9.02117969 C28.7334531,8.76301172 24.5002852,7.54939453 21.53125,4.58035938 C15.6126406,-1.34508203 6.00639062,-1.34508203 0.0774296875,4.58035938 C0.0774296875,16.4115742 9.70376172,26.0321094 21.53125,26.0321094 C33.2918672,26.0321094 42.8759648,16.5260625 42.9836211,4.79919141 C42.7482266,7.27280078 38.5748906,9.49134766 32.2620937,9.02117969 Z" id="Shape"></path>
                    <path d="M21.53125,57.0540859 C12.3659766,57.0540859 4.93314063,64.4863008 4.93314063,73.6521953 L38.1297734,73.6521953 C38.1297734,64.4869219 30.6992148,57.0540859 21.53125,57.0540859 Z" id="Shape"></path>
                    <path d="M22.4397031,29.2502031 C22.4397031,29.7686094 22.0198437,30.1861914 21.5006094,30.1861914 C20.9848945,30.1861914 20.5635859,29.7686094 20.5635859,29.2502031 C20.5635859,28.7303477 20.9844805,28.3111094 21.5006094,28.3111094 C22.0194297,28.3106953 22.4397031,28.7299336 22.4397031,29.2502031 Z" id="Shape"></path>
                    <ellipse id="Oval" cx="17.98025" cy="41.7859453" rx="1.25129687" ry="1.25129688"></ellipse>
                    <path d="M25.8031328,38.3423945 C25.8031328,39.5522852 24.8247031,40.5344414 23.6137773,40.5344414 C22.4026445,40.5344414 21.4248359,39.5522852 21.4248359,38.3423945 C21.4248359,37.1349883 22.4026445,36.1530391 23.6137773,36.1530391 C24.8247031,36.1530391 25.8031328,37.1345742 25.8031328,38.3423945 Z" id="Shape"></path>
                    <path d="M18.6067266,50.5717305 C18.6067266,50.9178867 18.3274414,51.1992422 17.9823203,51.1992422 C17.6361641,51.1992422 17.3558437,50.9183008 17.3558437,50.5717305 C17.3558437,50.2261953 17.6361641,49.9500156 17.9823203,49.9500156 C18.3274414,49.9500156 18.6067266,50.2255742 18.6067266,50.5717305 Z" id="Shape"></path>
                    <path d="M27.699332,45.8510039 C27.699332,46.5431094 27.1380703,47.1002305 26.4484492,47.1002305 C25.7573789,47.1002305 25.1975664,46.5426953 25.1975664,45.8510039 C25.1975664,45.1593125 25.757793,44.5980508 26.4484492,44.5980508 C27.1380703,44.5980508 27.699332,45.1599336 27.699332,45.8510039 Z" id="Shape"></path>
                </g>
                <g id="Group" fill="#3F4A5A">
                    <path d="M83.5371094,4.78739062 C83.5371094,3.56155859 83.0696328,2.33676172 82.1346797,1.40222266 C81.2003477,0.467476562 79.9745156,0 78.7497187,0 L4.89090625,0 C3.66610938,0 2.44027734,0.467476562 1.50532422,1.40242969 C0.570992188,2.33676172 0.103515625,3.56155859 0.103515625,4.78739062 L0.103515625,4.78739062 C0.103515625,6.0121875 0.570992188,7.23657031 1.50532422,8.17152344 C2.44027734,9.10647656 3.66610938,9.57395312 4.89090625,9.57395312 L78.7490977,9.57395312 C79.9745156,9.57395312 81.1997266,9.10647656 82.1342656,8.17152344 C83.0696328,7.23657031 83.5371094,6.01239453 83.5371094,4.78739062 L83.5371094,4.78739062 Z" id="Shape"></path>
                    <path d="M83.5371094,101.212402 C83.5371094,99.9869844 83.0696328,98.7632227 82.1346797,97.8282695 C81.2003477,96.8929023 79.9749297,96.4258398 78.7495117,96.4258398 L4.89090625,96.4258398 C3.66610938,96.4258398 2.44027734,96.8933164 1.50532422,97.8282695 C0.570992188,98.7632227 0.103515625,99.9869844 0.103515625,101.212402 L0.103515625,101.212402 C0.103515625,102.438234 0.570992188,103.663031 1.50532422,104.59757 C2.44027734,105.533145 3.66610938,106 4.89090625,106 L78.7490977,106 C79.9745156,106 81.1997266,105.532523 82.1342656,104.59757 C83.0696328,103.663238 83.5371094,102.43782 83.5371094,101.212402 L83.5371094,101.212402 Z" id="Shape"></path>
                    <rect id="Rectangle-path" x="8.66239453" y="9.57705859" width="3.74188281" height="86.8510586"></rect>
                    <rect id="Rectangle-path" x="71.2353125" y="9.57705859" width="3.74188281" height="86.8510586"></rect>
                </g>
            </g>
        </g>
    </g>
</svg>