<?xml version="1.0" encoding="UTF-8"?>
<svg width="50px" height="47px" viewBox="0 0 50 47" version="1.1" xmlns="http://www.w3.org/2000/svg" xmlns:xlink="http://www.w3.org/1999/xlink">
    <!-- Generator: sketchtool 42 (36781) - http://www.bohemiancoding.com/sketch -->
    <title>9F2B0362-A9A5-4DDE-8A54-6A88DFA09518</title>
    <desc>Created with sketchtool.</desc>
    <defs></defs>
    <g id="User-Registration" stroke="none" stroke-width="1" fill="none" fill-rule="evenodd">
        <g id="User-Reg---Org-Level-of-Engagement" transform="translate(-974.000000, -692.000000)" fill-rule="nonzero">
            <g id="inbox" transform="translate(974.000000, 692.000000)">
                <g id="Layer_1">
                    <g id="Group">
                        <polygon id="Shape" fill="#F4B459" points="9.35290323 15.6954839 40.5290323 15.6954839 49.8819355 25.0483871 0 25.0483871"></polygon>
                        <path d="M10.9116129,18.8130645 L38.9701613,18.8130645 L46.7641935,26.6070968 C46.7641935,26.6070968 46.1406452,34.401129 45.0495161,34.401129 L4.52048387,34.401129 C3.58516129,34.401129 3.11758065,26.6070968 3.11758065,26.6070968 L10.9116129,18.8130645 Z" id="Shape" fill="#D07C40"></path>
                        <path d="M34.2937097,25.0482258 L34.2937097,28.1658065 C34.2937097,29.8804839 32.8908065,31.2833871 31.176129,31.2833871 L18.7056452,31.2833871 C16.9909677,31.2833871 15.5880645,29.8804839 15.5880645,28.1658065 L15.5880645,25.0482258 L0,25.0482258 L0,43.753871 C0,45.4685484 1.40290323,46.8714516 3.11758065,46.8714516 L46.7641935,46.8714516 C48.478871,46.8714516 49.8817742,45.4685484 49.8817742,43.753871 L49.8817742,25.0482258 L34.2937097,25.0482258 Z" id="Shape" fill="#F4B459"></path>
                        <path d="M33.9819355,11.0190323 L29.6172581,11.0190323 L29.6172581,1.66612903 C29.6172581,0.730806452 28.9937097,0.107258065 28.0583871,0.107258065 L21.8232258,0.107258065 C20.8879032,0.107258065 20.2643548,0.730806452 20.2643548,1.66612903 L20.2643548,11.0190323 L15.8998387,11.0190323 C14.1851613,11.0190323 13.5616129,12.1101613 14.3409677,13.5130645 L23.3820968,22.3982258 C24.1614516,23.801129 25.5643548,23.801129 26.4996774,22.3982258 L35.5408065,13.5130645 C36.3201613,12.1101613 35.6966129,11.0190323 33.9819355,11.0190323 Z" id="Shape" fill="#475F6C"></path>
                    </g>
                </g>
            </g>
        </g>
    </g>
</svg>