<svg xmlns="http://www.w3.org/2000/svg" width="224" height="49" viewBox="0 0 224 49">
    <g fill="#FFF" fill-rule="evenodd">
        <path d="M21.471 14.016a8.305 8.305 0 0 0-6.572 3.227 8.305 8.305 0 0 0-11.393-1.682v-1.545H0v21.025h3.506V22.339a4.82 4.82 0 0 1 4.82-4.819 4.82 4.82 0 0 1 4.82 4.819V35.04h3.505V22.339a4.82 4.82 0 0 1 4.82-4.819 4.82 4.82 0 0 1 4.82 4.819V35.04h3.506V22.339a8.324 8.324 0 0 0-8.326-8.323M39.437 35.04h3.506V14.017h-3.506zM41.19 12.264a1.752 1.752 0 1 0 0-3.505 1.752 1.752 0 0 0 0 3.505M104.728 35.04h3.505V14.017h-3.505zM106.48 12.264a1.752 1.752 0 1 0 .001-3.505 1.752 1.752 0 0 0 0 3.505M61.785 31.537a7.01 7.01 0 1 1 0-14.017 7.01 7.01 0 1 1 0 14.017zm0-17.52c-2.694 0-5.15 1.013-7.011 2.678V0h-3.506v35.04h3.506v-2.678a10.477 10.477 0 0 0 7.011 2.679c5.808 0 10.517-4.707 10.517-10.512 0-5.806-4.709-10.513-10.517-10.513zM89.83 14.016c-2.154 0-4.13.745-5.697 1.984v-1.984h-3.506v21.025h3.506V23.215a5.695 5.695 0 0 1 9.724-4.027l2.479-2.477a9.175 9.175 0 0 0-6.507-2.695M127.514 31.537a7.01 7.01 0 1 1 0-14.017 7.01 7.01 0 1 1 0 14.017zM134.524 0v16.695a10.477 10.477 0 0 0-7.01-2.679c-5.809 0-10.517 4.707-10.517 10.513 0 5.805 4.708 10.512 10.517 10.512 2.694 0 5.15-1.014 7.01-2.68v2.68h3.506V0h-3.505zM156.746 31.099a7.01 7.01 0 1 1 0-14.017 7.01 7.01 0 1 1 0 14.017zm7.011-17.52v2.678a10.477 10.477 0 0 0-7.01-2.679c-5.809 0-10.517 4.707-10.517 10.513 0 5.805 4.708 10.512 10.516 10.512 2.694 0 5.15-1.014 7.011-2.68v7.498c0 3.145-2.587 5.694-5.733 5.694a5.723 5.723 0 0 1-4.047-1.668l-2.488 2.478a9.166 9.166 0 0 0 6.502 2.694c5.082 0 9.237-4.118 9.237-9.198h.035V13.578h-3.506zM179.45 22.777c.78-3.021 3.515-5.257 6.781-5.257 3.266 0 6.002 2.236 6.782 5.257H179.45zm17.298 1.752c0-.598-.053-1.183-.148-1.752-.835-4.972-5.158-8.76-10.369-8.76-5.21 0-9.533 3.788-10.368 8.76-.096.57-.148 1.154-.148 1.752 0 .597.052 1.182.148 1.752.835 4.971 5.158 8.76 10.368 8.76 2.904 0 5.533-1.177 7.437-3.079l-2.479-2.478a6.992 6.992 0 0 1-4.958 2.053c-3.266 0-6.002-2.235-6.781-5.256h17.15c.095-.57.148-1.155.148-1.752zM220.71 24.529c-1.66-1.083-3.929-1.752-6.434-1.752-3.147 0-5.697-1.177-5.697-2.629 0-1.451 2.55-2.628 5.697-2.628 2.821 0 5.158.948 5.61 2.19h3.558c-.338-3.18-4.308-5.694-9.168-5.694-5.083 0-9.203 2.746-9.203 6.132 0 1.717 1.062 3.268 2.769 4.38 1.659 1.083 3.928 1.753 6.434 1.753 3.146 0 5.696 1.176 5.696 2.628 0 1.451-2.55 2.628-5.696 2.628-2.822 0-5.159-.948-5.612-2.19h-3.557c.338 3.18 4.308 5.694 9.169 5.694 5.082 0 9.202-2.746 9.202-6.132 0-1.717-1.062-3.267-2.769-4.38"/>
    </g>
</svg>
