<?xml version="1.0" encoding="UTF-8"?>
<svg width="50px" height="50px" viewBox="0 0 50 50" version="1.1" xmlns="http://www.w3.org/2000/svg" xmlns:xlink="http://www.w3.org/1999/xlink">
    <!-- Generator: sketchtool 42 (36781) - http://www.bohemiancoding.com/sketch -->
    <title>435BAFA7-6122-4F64-ADFD-FF35C9B688F0</title>
    <desc>Created with sketchtool.</desc>
    <defs></defs>
    <g id="User-Registration" stroke="none" stroke-width="1" fill="none" fill-rule="evenodd">
        <g id="User-Reg---Org-Level-of-Engagement" transform="translate(-974.000000, -428.000000)" fill-rule="nonzero">
            <g id="compass" transform="translate(974.000000, 428.000000)">
                <g id="Layer_1">
                    <ellipse id="Oval" fill="#324A5E" cx="24.9433617" cy="25.0527625" rx="24.8783941" ry="24.7100995"></ellipse>
                    <ellipse id="Oval" fill="#E6E9EE" cx="24.9433617" cy="25.0527625" rx="20.8145927" ry="20.6737884"></ellipse>
                    <polygon id="Shape" fill="#FF7058" points="28.9222056 29.0046908 33.5948692 16.4597797 20.9645177 21.1008342"></polygon>
                    <polygon id="Shape" fill="#54C0EB" points="20.9645177 21.1008342 16.2918541 33.6457453 28.9222056 29.0046908"></polygon>
                    <ellipse id="Oval" fill="#FFFFFF" cx="24.9433617" cy="25.0527625" rx="2.57704481" ry="2.5596119"></ellipse>
                    <g id="Group" transform="translate(5.672164, 5.911928)" fill="#ACB3BA">
                        <ellipse id="Oval" cx="36.9423622" cy="19.1408341" rx="1.54339497" ry="1.53295438"></ellipse>
                        <ellipse id="Oval" cx="1.60003332" cy="19.1408341" rx="1.54339497" ry="1.53295438"></ellipse>
                        <ellipse id="Oval" cx="19.2711977" cy="36.6924585" rx="1.54339497" ry="1.53295438"></ellipse>
                        <ellipse id="Oval" cx="19.2711977" cy="1.58920959" rx="1.54339497" ry="1.53295438"></ellipse>
                        <ellipse id="Oval" cx="31.7741129" cy="31.5591709" rx="1.54339497" ry="1.53295438"></ellipse>
                        <ellipse id="Oval" cx="6.76828253" cy="6.7224972" rx="1.54339497" ry="1.53295438"></ellipse>
                        <ellipse id="Oval" cx="6.76828253" cy="31.5591709" rx="1.54339497" ry="1.53295438"></ellipse>
                        <ellipse id="Oval" cx="31.7741129" cy="6.7224972" rx="1.54339497" ry="1.53295438"></ellipse>
                    </g>
                </g>
            </g>
        </g>
    </g>
</svg>