<svg xmlns="http://www.w3.org/2000/svg" width="108" height="108" viewBox="0 0 108 108">
    <g fill="none" fill-rule="evenodd" transform="translate(1)">
        <circle cx="53" cy="54" r="53" fill="#ECF3FA" stroke="#068BFF"/>
        <circle cx="53.431" cy="54.431" r="47.931" stroke="#0070D2"/>
        <g transform="translate(75)">
            <circle cx="15" cy="15" r="15" fill="#0070D2"/>
            <path fill="#FFF" stroke="#FFF" d="M12.674 19.938a.946.946 0 0 1-1.352 0l-3.07-3.132a.995.995 0 0 1 .028-1.353.946.946 0 0 1 1.352 0l2.365 2.416 7.436-7.585a.946.946 0 0 1 1.352 0 .992.992 0 0 1 0 1.381s-7.986 8.142-8.111 8.273z"/>
        </g>
        <g fill="#0070D2" fill-rule="nonzero">
            <path d="M69.25 28.091c0-.606-.48-1.091-1.085-1.091h-29.99c-.604 0-1.087.485-1.087 1.091v51.796c0 .606.483 1.091 1.088 1.091h29.989c.717-.569 1.08-.995 1.085-1.28.236-11.468.236-28.67 0-51.607zm-2.173 13.368v37.348H39.264V29.182h27.813v12.277z"/>
            <path d="M44.308 37.69c.604 0 1.088-.485 1.088-1.091v-2.414c0-.606-.484-1.09-1.088-1.09-.605 0-1.088.484-1.088 1.09V36.6c0 .606.483 1.09 1.088 1.09zM50.22 37.69c.604 0 1.088-.485 1.088-1.091v-2.414c0-.606-.484-1.09-1.088-1.09-.605 0-1.088.484-1.088 1.09V36.6c0 .606.483 1.09 1.088 1.09zM56.12 37.69c.605 0 1.089-.485 1.089-1.091v-2.414c0-.606-.484-1.09-1.088-1.09-.605 0-1.088.484-1.088 1.09V36.6c0 .606.494 1.09 1.088 1.09zM62.033 37.69c.604 0 1.088-.485 1.088-1.091v-2.414c0-.606-.484-1.09-1.088-1.09-.604 0-1.088.484-1.088 1.09V36.6c0 .606.484 1.09 1.088 1.09zM44.308 45.162c.604 0 1.088-.485 1.088-1.091v-2.425c0-.606-.484-1.09-1.088-1.09-.605 0-1.088.484-1.088 1.09v2.425c0 .595.483 1.09 1.088 1.09zM50.22 45.162c.604 0 1.088-.485 1.088-1.091v-2.425c0-.606-.484-1.09-1.088-1.09-.605 0-1.088.484-1.088 1.09v2.425c0 .595.483 1.09 1.088 1.09zM56.12 45.162c.605 0 1.089-.485 1.089-1.091v-2.425c0-.606-.484-1.09-1.088-1.09-.605 0-1.088.484-1.088 1.09v2.425a1.1 1.1 0 0 0 1.088 1.09zM62.033 45.162c.604 0 1.088-.485 1.088-1.091v-2.425c0-.606-.484-1.09-1.088-1.09-.604 0-1.088.484-1.088 1.09v2.425c0 .595.484 1.09 1.088 1.09zM44.308 52.622c.604 0 1.088-.484 1.088-1.09v-2.414c0-.606-.484-1.091-1.088-1.091-.605 0-1.088.485-1.088 1.091v2.413c0 .607.483 1.091 1.088 1.091zM50.22 52.622c.604 0 1.088-.484 1.088-1.09v-2.414c0-.606-.484-1.091-1.088-1.091-.605 0-1.088.485-1.088 1.091v2.413c0 .607.483 1.091 1.088 1.091zM56.12 52.622c.605 0 1.089-.484 1.089-1.09v-2.414c0-.606-.484-1.091-1.088-1.091-.605 0-1.088.485-1.088 1.091v2.413c0 .607.494 1.091 1.088 1.091zM62.033 52.622c.604 0 1.088-.484 1.088-1.09v-2.414c0-.606-.484-1.091-1.088-1.091-.604 0-1.088.485-1.088 1.091v2.413c0 .607.484 1.091 1.088 1.091zM44.308 60.094c.604 0 1.088-.485 1.088-1.09V56.59c0-.606-.484-1.091-1.088-1.091-.605 0-1.088.485-1.088 1.09v2.414c0 .595.483 1.091 1.088 1.091zM50.22 60.094c.604 0 1.088-.485 1.088-1.09V56.59c0-.606-.484-1.091-1.088-1.091-.605 0-1.088.485-1.088 1.09v2.414c0 .595.483 1.091 1.088 1.091zM56.12 60.094c.605 0 1.089-.485 1.089-1.09V56.59c0-.606-.484-1.091-1.088-1.091-.605 0-1.088.485-1.088 1.09v2.414a1.1 1.1 0 0 0 1.088 1.091zM62.033 60.094c.604 0 1.088-.485 1.088-1.09V56.59c0-.606-.484-1.091-1.088-1.091-.604 0-1.088.485-1.088 1.09v2.414c0 .595.484 1.091 1.088 1.091zM44.308 67.555c.604 0 1.088-.485 1.088-1.09V64.05c0-.607-.484-1.091-1.088-1.091-.605 0-1.088.484-1.088 1.09v2.414c0 .606.483 1.091 1.088 1.091zM50.22 67.555c.604 0 1.088-.485 1.088-1.09V64.05c0-.607-.484-1.091-1.088-1.091-.605 0-1.088.484-1.088 1.09v2.414c0 .606.483 1.091 1.088 1.091zM56.12 67.555c.605 0 1.089-.485 1.089-1.09V64.05c0-.607-.484-1.091-1.088-1.091-.605 0-1.088.484-1.088 1.09v2.414c0 .606.494 1.091 1.088 1.091zM62.033 67.555c.604 0 1.088-.485 1.088-1.09V64.05c0-.607-.484-1.091-1.088-1.091-.604 0-1.088.484-1.088 1.09v2.414c0 .606.484 1.091 1.088 1.091zM44.308 75.027c.604 0 1.088-.485 1.088-1.091V71.51c0-.606-.484-1.09-1.088-1.09-.605 0-1.088.484-1.088 1.09v2.425c0 .595.483 1.09 1.088 1.09zM50.22 75.027c.604 0 1.088-.485 1.088-1.091V71.51c0-.606-.484-1.09-1.088-1.09-.605 0-1.088.484-1.088 1.09v2.425c0 .595.483 1.09 1.088 1.09zM56.12 75.027c.605 0 1.089-.485 1.089-1.091V71.51c0-.606-.484-1.09-1.088-1.09-.605 0-1.088.484-1.088 1.09v2.425a1.1 1.1 0 0 0 1.088 1.09zM62.033 75.027c.604 0 1.088-.485 1.088-1.091V71.51c0-.606-.484-1.09-1.088-1.09-.604 0-1.088.484-1.088 1.09v2.425c0 .595.484 1.09 1.088 1.09z"/>
        </g>
    </g>
</svg>
