<svg xmlns="http://www.w3.org/2000/svg" width="97" height="97" viewBox="0 0 97 97">
    <g fill="none" fill-rule="evenodd">
        <circle cx="48.431" cy="48.431" r="47.931" stroke="#0070D2"/>
        <g fill="#0070D2" fill-rule="nonzero">
            <path d="M64.25 22.091c0-.606-.48-1.091-1.085-1.091h-29.99c-.604 0-1.087.485-1.087 1.091v51.796c0 .606.483 1.091 1.088 1.091h29.989c.717-.569 1.08-.995 1.085-1.28.236-11.468.236-28.67 0-51.607zm-2.173 13.368v37.348H34.264V23.182h27.813v12.277z"/>
            <path d="M39.308 31.69c.604 0 1.088-.485 1.088-1.091v-2.414c0-.606-.484-1.09-1.088-1.09-.605 0-1.088.484-1.088 1.09V30.6c0 .606.483 1.09 1.088 1.09zM45.22 31.69c.604 0 1.088-.485 1.088-1.091v-2.414c0-.606-.484-1.09-1.088-1.09-.605 0-1.088.484-1.088 1.09V30.6c0 .606.483 1.09 1.088 1.09zM51.12 31.69c.605 0 1.089-.485 1.089-1.091v-2.414c0-.606-.484-1.09-1.088-1.09-.605 0-1.088.484-1.088 1.09V30.6c0 .606.494 1.09 1.088 1.09zM57.033 31.69c.604 0 1.088-.485 1.088-1.091v-2.414c0-.606-.484-1.09-1.088-1.09-.604 0-1.088.484-1.088 1.09V30.6c0 .606.484 1.09 1.088 1.09zM39.308 39.162c.604 0 1.088-.485 1.088-1.091v-2.425c0-.606-.484-1.09-1.088-1.09-.605 0-1.088.484-1.088 1.09v2.425c0 .595.483 1.09 1.088 1.09zM45.22 39.162c.604 0 1.088-.485 1.088-1.091v-2.425c0-.606-.484-1.09-1.088-1.09-.605 0-1.088.484-1.088 1.09v2.425c0 .595.483 1.09 1.088 1.09zM51.12 39.162c.605 0 1.089-.485 1.089-1.091v-2.425c0-.606-.484-1.09-1.088-1.09-.605 0-1.088.484-1.088 1.09v2.425a1.1 1.1 0 0 0 1.088 1.09zM57.033 39.162c.604 0 1.088-.485 1.088-1.091v-2.425c0-.606-.484-1.09-1.088-1.09-.604 0-1.088.484-1.088 1.09v2.425c0 .595.484 1.09 1.088 1.09zM39.308 46.622c.604 0 1.088-.484 1.088-1.09v-2.414c0-.606-.484-1.091-1.088-1.091-.605 0-1.088.485-1.088 1.091v2.413c0 .607.483 1.091 1.088 1.091zM45.22 46.622c.604 0 1.088-.484 1.088-1.09v-2.414c0-.606-.484-1.091-1.088-1.091-.605 0-1.088.485-1.088 1.091v2.413c0 .607.483 1.091 1.088 1.091zM51.12 46.622c.605 0 1.089-.484 1.089-1.09v-2.414c0-.606-.484-1.091-1.088-1.091-.605 0-1.088.485-1.088 1.091v2.413c0 .607.494 1.091 1.088 1.091zM57.033 46.622c.604 0 1.088-.484 1.088-1.09v-2.414c0-.606-.484-1.091-1.088-1.091-.604 0-1.088.485-1.088 1.091v2.413c0 .607.484 1.091 1.088 1.091zM39.308 54.094c.604 0 1.088-.485 1.088-1.09V50.59c0-.606-.484-1.091-1.088-1.091-.605 0-1.088.485-1.088 1.09v2.414c0 .595.483 1.091 1.088 1.091zM45.22 54.094c.604 0 1.088-.485 1.088-1.09V50.59c0-.606-.484-1.091-1.088-1.091-.605 0-1.088.485-1.088 1.09v2.414c0 .595.483 1.091 1.088 1.091zM51.12 54.094c.605 0 1.089-.485 1.089-1.09V50.59c0-.606-.484-1.091-1.088-1.091-.605 0-1.088.485-1.088 1.09v2.414a1.1 1.1 0 0 0 1.088 1.091zM57.033 54.094c.604 0 1.088-.485 1.088-1.09V50.59c0-.606-.484-1.091-1.088-1.091-.604 0-1.088.485-1.088 1.09v2.414c0 .595.484 1.091 1.088 1.091zM39.308 61.555c.604 0 1.088-.485 1.088-1.09V58.05c0-.607-.484-1.091-1.088-1.091-.605 0-1.088.484-1.088 1.09v2.414c0 .606.483 1.091 1.088 1.091zM45.22 61.555c.604 0 1.088-.485 1.088-1.09V58.05c0-.607-.484-1.091-1.088-1.091-.605 0-1.088.484-1.088 1.09v2.414c0 .606.483 1.091 1.088 1.091zM51.12 61.555c.605 0 1.089-.485 1.089-1.09V58.05c0-.607-.484-1.091-1.088-1.091-.605 0-1.088.484-1.088 1.09v2.414c0 .606.494 1.091 1.088 1.091zM57.033 61.555c.604 0 1.088-.485 1.088-1.09V58.05c0-.607-.484-1.091-1.088-1.091-.604 0-1.088.484-1.088 1.09v2.414c0 .606.484 1.091 1.088 1.091zM39.308 69.027c.604 0 1.088-.485 1.088-1.091V65.51c0-.606-.484-1.09-1.088-1.09-.605 0-1.088.484-1.088 1.09v2.425c0 .595.483 1.09 1.088 1.09zM45.22 69.027c.604 0 1.088-.485 1.088-1.091V65.51c0-.606-.484-1.09-1.088-1.09-.605 0-1.088.484-1.088 1.09v2.425c0 .595.483 1.09 1.088 1.09zM51.12 69.027c.605 0 1.089-.485 1.089-1.091V65.51c0-.606-.484-1.09-1.088-1.09-.605 0-1.088.484-1.088 1.09v2.425a1.1 1.1 0 0 0 1.088 1.09zM57.033 69.027c.604 0 1.088-.485 1.088-1.091V65.51c0-.606-.484-1.09-1.088-1.09-.604 0-1.088.484-1.088 1.09v2.425c0 .595.484 1.09 1.088 1.09z"/>
        </g>
    </g>
</svg>
