<svg xmlns="http://www.w3.org/2000/svg" xmlns:xlink="http://www.w3.org/1999/xlink" width="99" height="98" viewBox="0 0 99 98">
    <defs>
        <circle id="a" cx="45" cy="45" r="45"/>
    </defs>
    <g fill="none" fill-rule="evenodd">
        <g transform="translate(4.75 4)">
            <use fill="#068BFF" stroke="#FFF" stroke-width="8" xlink:href="#a"/>
            <circle cx="45" cy="45" r="46" stroke="#068BFF" stroke-width="2"/>
        </g>
        <path fill="#00437D" d="M52.173 35.209c2.312 1.447 3.933 3.895 4.228 6.737.943.44 1.99.693 3.099.693 4.05 0 7.333-3.277 7.333-7.32C66.833 31.278 63.55 28 59.5 28a7.326 7.326 0 0 0-7.327 7.209z"/>
        <path fill="#FFF" d="M47.369 50.196c4.05 0 7.333-3.278 7.333-7.32s-3.284-7.32-7.333-7.32c-4.05 0-7.335 3.278-7.335 7.32 0 4.043 3.285 7.32 7.335 7.32zM50.48 50.694h-6.223c-5.177 0-9.39 4.205-9.39 9.373v7.595l.02.12.524.163C40.352 69.486 44.644 70 48.177 70c6.901 0 10.9-1.964 11.147-2.089l.49-.247h.053v-7.597c.001-5.168-4.21-9.373-9.388-9.373zM61.39 35.52a4.47 4.47 0 0 0-.63.56.771.771 0 0 0-.2.52v.22h-.81v-.34c0-.2.043-.38.13-.54.087-.16.192-.298.315-.415.123-.117.295-.258.515-.425a4.52 4.52 0 0 0 .73-.675c.167-.203.25-.455.25-.755 0-.36-.115-.647-.345-.86-.23-.213-.545-.32-.945-.32-.38 0-.702.072-.965.215a2.938 2.938 0 0 0-.765.625l-.54-.46c.307-.36.645-.635 1.015-.825.37-.19.808-.285 1.315-.285.427 0 .802.082 1.125.245.323.163.573.388.75.675.177.287.265.603.265.95 0 .293-.057.553-.17.78-.113.227-.25.417-.41.57-.16.153-.37.333-.63.54zM59.6 38.53c0-.373.187-.56.56-.56.367 0 .55.187.55.56a.59.59 0 0 1-.13.4c-.087.1-.227.15-.42.15-.2 0-.343-.05-.43-.15a.59.59 0 0 1-.13-.4z"/>
    </g>
</svg>
