<svg xmlns="http://www.w3.org/2000/svg" width="47" height="49" viewBox="0 0 47 49">
    <g fill="none" fill-rule="evenodd">
        <path fill="#FFF" fill-rule="nonzero" d="M.275 38.967l.849.759c.056.048.118.087.175.134.464.385.945.75 1.435 1.104a27.435 27.435 0 0 0 4.29 2.535 27.082 27.082 0 0 0 8.987 2.444c.088.007.176.012.265.02a27.22 27.22 0 0 0 2.144.096l2.482-9.102 4.334-4.335a2.158 2.158 0 0 1-.575-1.451v-2.897c.192-.237.395-.505.604-.8a19.963 19.963 0 0 0 2.563-5.019 3.555 3.555 0 0 0 2.043-3.222V15.76c0-.849-.312-1.673-.87-2.32V8.868c.052-.51.232-3.378-1.844-5.745C25.353 1.063 22.43.02 18.471.02c-3.96 0-6.881 1.043-8.687 3.103C7.71 5.49 7.89 8.36 7.94 8.867v4.572a3.57 3.57 0 0 0-.87 2.32v3.473c0 1.079.485 2.085 1.314 2.764.793 3.108 2.426 5.461 3.03 6.259v2.835c0 .799-.436 1.534-1.139 1.918L2.53 37.233a7.08 7.08 0 0 0-.736.466"/>
        <path fill="#00437D" fill-rule="nonzero" d="M45.534 26.198l-2.792-2.792c-1.105-1.104-3.029-1.104-4.135 0L23.53 38.484l-2.078 7.62-.509.509a.978.978 0 0 0-.006 1.376l-.004.02.018-.005a.974.974 0 0 0 1.378-.005l.509-.51 7.62-2.077 15.076-15.078a2.928 2.928 0 0 0 0-4.136z"/>
        <path fill="#B4C0D6" d="M25.792 38.992l10.034-10.034 4.156 4.155L29.948 43.15zM24.908 40.879l3.154 3.154-4.337 1.184zM44.149 28.948l-2.781 2.781-4.157-4.155 2.781-2.781a.99.99 0 0 1 1.366-.001l2.792 2.791a.967.967 0 0 1-.001 1.365z"/>
    </g>
</svg>
