<svg xmlns="http://www.w3.org/2000/svg" xmlns:xlink="http://www.w3.org/1999/xlink" width="176" height="177" viewBox="0 0 176 177">
    <defs>
        <ellipse id="a" cx="84" cy="84.616" rx="84" ry="83.95"/>
    </defs>
    <g fill="none" fill-rule="evenodd">
        <g transform="translate(4 4)">
            <use fill="#068BFF" xlink:href="#a"/>
            <ellipse cx="84" cy="84.616" stroke="#FFF" stroke-width="8" rx="80" ry="79.95"/>
            <ellipse cx="84" cy="84.616" stroke="#068BFF" stroke-width="4" rx="86" ry="85.95"/>
        </g>
        <g fill-rule="nonzero">
            <g fill="#D9DCE5">
                <path d="M62.175 63.355C62.175 77.516 73.654 89 87.82 89c14.161 0 25.645-11.484 25.645-25.645h-51.29z"/>
                <path d="M62.175 45.577h51.288v17.78H62.175zM62.175 114.646h51.288v17.781H62.175zM87.82 89c-14.16 0-25.645 11.484-25.645 25.645h51.292c0-14.161-11.48-25.645-25.647-25.645z"/>
                <path d="M93.106 89.545a25.452 25.452 0 0 0-5.286-.546 25.41 25.41 0 0 0 5.286-.547.557.557 0 0 0-.437.547c0 .267.185.493.437.546z"/>
                <path d="M82.534 89.545a25.442 25.442 0 0 1 5.286-.546c-1.813 0-3.584-.185-5.286-.547.253.055.437.28.437.547a.554.554 0 0 1-.437.546z"/>
            </g>
            <path fill="#D65A38" d="M109.273 63.573a20.573 20.573 0 0 1-.603 4.812H82.455v-4.812c.713-.698 1.742-1.418 3.127-2.064 2.791-1.33 7.018-2.38 12.97-2.38 5.919 0 10.72 1.99 10.72 4.444z"/>
            <g fill="#F67656" transform="translate(66.29 58.773)">
                <path d="M32.262 9.021c-3.529-.258-7.762-1.472-10.73-4.44-5.92-5.926-15.526-5.926-21.455 0 0 11.83 9.627 21.451 21.454 21.451 11.76 0 21.345-9.506 21.453-21.233-.236 2.474-4.41 4.692-10.722 4.222zM21.531 57.054c-9.165 0-16.598 7.432-16.598 16.598H38.13c0-9.165-7.43-16.598-16.599-16.598zM22.44 29.25c0 .519-.42.936-.94.936a.937.937 0 1 1 0-1.875c.52 0 .94.419.94.94z"/>
                <circle cx="17.98" cy="41.786" r="1.251"/>
                <path d="M25.803 38.342a2.19 2.19 0 1 1-4.38.004 2.19 2.19 0 0 1 4.38-.004zM18.607 50.572a.626.626 0 1 1-1.251 0c0-.346.28-.622.626-.622.345 0 .625.276.625.622zM27.7 45.851a1.25 1.25 0 0 1-1.252 1.25 1.252 1.252 0 0 1 0-2.502c.69 0 1.251.56 1.251 1.252z"/>
            </g>
            <g fill="#3F4A5A">
                <path d="M129.537 40.787a4.77 4.77 0 0 0-1.402-3.385A4.772 4.772 0 0 0 124.75 36H50.89c-1.224 0-2.45.467-3.385 1.402a4.772 4.772 0 0 0-1.401 3.385c0 1.225.467 2.45 1.401 3.385a4.774 4.774 0 0 0 3.386 1.402h73.858c1.226 0 2.45-.468 3.385-1.402a4.769 4.769 0 0 0 1.403-3.385zM129.537 137.212a4.77 4.77 0 0 0-1.402-3.384 4.769 4.769 0 0 0-3.385-1.402H50.89c-1.224 0-2.45.467-3.385 1.402a4.771 4.771 0 0 0-1.401 3.384c0 1.226.467 2.451 1.401 3.386A4.771 4.771 0 0 0 50.891 142h73.858c1.226 0 2.45-.467 3.385-1.402a4.77 4.77 0 0 0 1.403-3.386z"/>
                <path d="M54.662 45.577h3.742v86.851h-3.742zM117.235 45.577h3.742v86.851h-3.742z"/>
            </g>
        </g>
    </g>
</svg>
