<svg xmlns="http://www.w3.org/2000/svg" xmlns:xlink="http://www.w3.org/1999/xlink" width="176" height="176" viewBox="0 0 176 176">
    <defs>
        <ellipse id="a" cx="84" cy="84.95" rx="84" ry="83.95"/>
    </defs>
    <g fill="none" fill-rule="evenodd">
        <g transform="translate(4 3)">
            <use fill="#068BFF" xlink:href="#a"/>
            <ellipse cx="84" cy="84.95" stroke="#FFF" stroke-width="8" rx="80" ry="79.95"/>
            <ellipse cx="84" cy="84.95" stroke="#068BFF" stroke-width="4" rx="86" ry="85.95"/>
        </g>
        <g fill-rule="nonzero">
            <path fill="#694B4B" d="M53.057 67.983c-16.813 0-14.948 20.422-14.872 35.22a1.58 1.58 0 0 0 .776 1.352c1.863 1.122 6.98 3.745 14.096 3.745 7.117 0 12.234-2.623 14.097-3.745a1.58 1.58 0 0 0 .775-1.351c.077-14.8 1.94-35.221-14.872-35.221z"/>
            <path fill="#5A4146" d="M51.974 68.025c-15.636.875-13.864 20.709-13.789 35.179a1.58 1.58 0 0 0 .776 1.351c1.863 1.122 6.98 3.745 14.096 3.745l4.25-29.708"/>
            <path fill="#694B4B" d="M53.057 67.983c-9.56 0-10.223 11.538-10.223 11.538 5.51-.929 8.896 1.392 14.472-.929L53.057 108.3c7.117 0 12.234-2.623 14.097-3.745a1.58 1.58 0 0 0 .775-1.351c.077-14.8 1.94-35.221-14.872-35.221z"/>
            <path fill="#785550" d="M67.929 103.204c.066-12.717 1.44-29.573-8.839-34.069-.18.93-.504 3.528.34 5.213 2.125 4.244 4.25 4.244 6.373 7.427 2.125 11.67-4.059 24.058-6.112 25.744 3.638-.864 6.247-2.232 7.463-2.964a1.58 1.58 0 0 0 .775-1.351z"/>
            <path fill="#E6AF78" d="M69.153 106.423l-9.478-3.945a2.122 2.122 0 0 1-1.307-1.959v-2.564H47.746v2.564c0 .857-.515 1.63-1.307 1.96l-9.478 3.944A3.183 3.183 0 0 0 35 109.36v4.244c0 1.172.951 2.122 2.124 2.122H68.99c1.173 0 2.124-.95 2.124-2.122v-4.244a3.183 3.183 0 0 0-1.96-2.938z"/>
            <path fill="#EFF2FA" d="M69.153 106.423l-9.164-3.814-6.932 2.988-6.932-2.988-9.164 3.814A3.183 3.183 0 0 0 35 109.36v4.244c0 1.172.951 2.122 2.124 2.122H68.99c1.173 0 2.124-.95 2.124-2.122v-4.244a3.183 3.183 0 0 0-1.96-2.938z"/>
            <path fill="#D29B6E" d="M58.368 97.955H47.746v2.564c0 .857-.515 1.63-1.307 1.96l-1.48.615c11.328 2.885 13.41-5.139 13.41-5.139z"/>
            <g fill="#E4EAF6">
                <path d="M40.177 110.527l-4.263-3.387a3.174 3.174 0 0 0-.914 2.22v4.245c0 1.172.951 2.122 2.124 2.122h4.25v-2.714c0-.967-.44-1.882-1.197-2.486zM71.114 113.605v-4.244c0-.842-.336-1.626-.9-2.208l-4.277 3.374a3.181 3.181 0 0 0-1.196 2.485v2.714h4.25c1.172 0 2.123-.95 2.123-2.121zM53.217 113.605h-.32a.902.902 0 0 1-.902-.902V105.6h2.124v7.103a.902.902 0 0 1-.902.902z"/>
                <path d="M53.057 105.597l-6.08-4.554a.85.85 0 0 0-1.216.208l-1.201 1.8 3.727 5.212a.85.85 0 0 0 1.222.17l3.548-2.836z"/>
                <path d="M53.057 105.597l6.08-4.554a.85.85 0 0 1 1.216.208l1.202 1.8-3.728 5.212a.85.85 0 0 1-1.222.17l-3.548-2.836z"/>
            </g>
            <path fill="#F0C087" d="M58.368 77.532c-5.31 5.304-15.733 1.06-15.733 9.548l.659 6.252a4.244 4.244 0 0 0 2.168 3.326l6.048 3.356a3.19 3.19 0 0 0 3.095 0l6.047-3.356a4.243 4.243 0 0 0 2.168-3.326l.761-7.425c.055-.528.066-1.06.048-1.589-.397-2.7-4.199-4.665-5.26-6.786z"/>
            <path fill="#E6AF78" d="M42.635 87.08l.659 6.252a4.244 4.244 0 0 0 2.168 3.326l6.048 3.356c.667.37 1.433.466 2.162.323 0 0-3.049-.923-4.864-5.83-.555-1.503-1.327-9.46-.663-10.433 1.312-1.922 8.63-2.122 10.792-5.688a5.968 5.968 0 0 1-.295-.398l-.024-.032a4.034 4.034 0 0 1-.25-.425c-5.31 5.305-15.733 1.061-15.733 9.55z"/>
            <path fill="#E4EAF6" d="M60.811 113.605H58.05c-.997 0-1.805.807-1.805 1.803v.319h6.373v-.319c0-.996-.809-1.803-1.806-1.803z"/>
            <path fill="#E6AF78" d="M125.627 101.49v-5.828h-15.001v5.828l7.5 6.66z"/>
            <path fill="#EFF2FA" d="M137.225 104.215l-10.313-2.423a1.656 1.656 0 0 1-.432-.174l-8.353 4.867-8.027-5.103a1.66 1.66 0 0 1-.759.41l-10.313 2.424a3.33 3.33 0 0 0-2.57 3.241v6.52c0 .92.746 1.665 1.667 1.665h40.004c.92 0 1.667-.746 1.667-1.665v-6.52a3.332 3.332 0 0 0-2.57-3.242z"/>
            <path fill="#D29B6E" d="M110.626 95.662v6.149c9.449 3.4 15.001-5.11 15.001-5.11v-1.039h-15.001z"/>
            <path fill="#F0C087" d="M107.292 76.516l.727 15.96a4.993 4.993 0 0 0 1.995 3.768l3.446 2.582a5.004 5.004 0 0 0 3 .999h3.334c1.081 0 2.134-.35 3-1l3.446-2.58a4.993 4.993 0 0 0 1.995-3.77l.726-15.96h-21.669z"/>
            <path fill="#E6AF78" d="M115.626 79.846c3.334 0 8.335-.833 9.52-3.33h-17.854l.727 15.96a4.993 4.993 0 0 0 1.995 3.768l3.446 2.582a5.004 5.004 0 0 0 3 .999h1.667c-1.667 0-5-3.33-5-7.493v-9.99c0-.831.833-2.496 2.5-2.496z"/>
            <path fill="#E4EAF6" d="M133.677 110.239l5.4-4.846c.453.573.718 1.293.718 2.064v6.52c0 .919-.746 1.664-1.667 1.664h-5.833v-2.306a4.16 4.16 0 0 1 1.382-3.096z"/>
            <path fill="#5B5D6E" d="M120.21 115.641h-4.167l.521-7.492h3.125z"/>
            <path fill="#515262" d="M120.21 106.484h-4.167v.481c0 1.114.904 2.017 2.019 2.017h.13a2.018 2.018 0 0 0 2.018-2.017v-.48z"/>
            <g fill="#E4EAF6">
                <path d="M110.509 99.636l7.617 6.849s-2.133 1.075-4.766 3.244a1.07 1.07 0 0 1-1.656-.374l-3.579-7.865 1.133-1.696a.834.834 0 0 1 1.25-.158zM125.744 99.636l-7.617 6.849s2.133 1.075 4.766 3.244a1.07 1.07 0 0 0 1.656-.374l3.579-7.865-1.133-1.696a.834.834 0 0 0-1.25-.158z"/>
            </g>
            <path fill="#785550" d="M123.18 71l.78 5.516c3.567.712 4.081 6.303 4.155 7.9.014.29.106.57.264.813l1.36 2.109s-.465-3.486 1.667-5.827c0 0 .732-13.84-8.227-10.51z"/>
            <path fill="#F0C087" d="M130.575 86.982l-.94 3.76a1.002 1.002 0 0 1-1.966-.119l-.482-3.846a1.724 1.724 0 0 1 1.711-1.936h.004a1.724 1.724 0 0 1 1.673 2.14z"/>
            <path fill="#694B4B" d="M108.09 69.51l1.234.84c-5.574 4.11-4.532 11.16-4.532 11.16 1.667 1.666 1.667 5.828 1.667 5.828l1.667-1.665s-.644-4.81 2.5-6.66c2.917-1.717 5.47-.832 8.074-.832 6.98 0 8.933-2.628 8.594-5.827-.175-1.656-2.71-5.105-9.167-4.995-2.607.044-7.501.832-10.036 2.15z"/>
            <path fill="#5A4146" d="M107.605 77.452s-.886-3.486 1.719-7.102c-5.574 4.11-4.532 11.16-4.532 11.16 1.667 1.666 1.667 5.828 1.667 5.828l1.667-1.665s-.644-4.81 2.5-6.66c2.917-1.717 5.469-.832 8.073-.832 1.135 0 2.125-.076 3.006-.206-5.375.18-8.544-3.887-14.1-.523z"/>
            <path fill="#E6AF78" d="M105.678 86.982l.941 3.76a1.002 1.002 0 0 0 1.967-.119l.48-3.846a1.724 1.724 0 0 0-1.711-1.936h-.004a1.724 1.724 0 0 0-1.673 2.14z"/>
            <path fill="#E4EAF6" d="M128.128 113.977h-4.168c-.92 0-1.667.745-1.667 1.665h7.501c0-.92-.746-1.665-1.666-1.665z"/>
            <path fill="#694B4B" d="M87.43 47.102c-28.582 0-25.413 34.718-25.282 59.876.004.95.503 1.807 1.317 2.298 3.168 1.907 11.866 6.365 23.964 6.365 12.1 0 20.797-4.458 23.964-6.365a2.686 2.686 0 0 0 1.318-2.298c.13-25.158 3.3-59.876-25.282-59.876z"/>
            <path fill="#5A4146" d="M85.588 47.174c-26.582 1.488-23.568 35.205-23.44 59.804.004.95.503 1.807 1.317 2.297 3.168 1.908 11.866 6.366 23.964 6.366l7.223-50.502"/>
            <path fill="#694B4B" d="M87.43 47.102c-16.252 0-17.38 19.615-17.38 19.615 9.366-1.578 15.122 2.367 24.602-1.578l-7.223 50.503c12.1 0 20.797-4.46 23.964-6.366a2.686 2.686 0 0 0 1.318-2.297c.13-25.16 3.3-59.877-25.282-59.877z"/>
            <path fill="#785550" d="M112.711 106.979c.112-21.619 2.449-50.275-15.025-57.917-.305 1.582-.857 5.997.578 8.862 3.611 7.215 7.223 7.215 10.834 12.626 3.611 19.84-6.9 40.899-10.392 43.765 6.186-1.47 10.62-3.795 12.687-5.04a2.686 2.686 0 0 0 1.318-2.296z"/>
            <path fill="#E6AF78" d="M114.793 112.45l-16.113-6.706a3.607 3.607 0 0 1-2.222-3.33v-4.358H78.401v4.358c0 1.457-.877 2.77-2.223 3.33l-16.112 6.707a5.411 5.411 0 0 0-3.334 4.994v7.215a3.61 3.61 0 0 0 3.611 3.607h54.172a3.61 3.61 0 0 0 3.611-3.607v-7.215a5.41 5.41 0 0 0-3.333-4.994z"/>
            <path fill="#B4E1FA" d="M114.793 112.45l-15.579-6.483-11.785 5.08-11.784-5.08-15.58 6.484a5.411 5.411 0 0 0-3.333 4.994v7.215a3.61 3.61 0 0 0 3.611 3.607h54.172a3.61 3.61 0 0 0 3.611-3.607v-7.215a5.41 5.41 0 0 0-3.333-4.994z"/>
            <path fill="#D29B6E" d="M96.458 98.056H78.401v4.358c0 1.457-.877 2.77-2.223 3.33l-2.516 1.048c19.257 4.905 22.796-8.736 22.796-8.736z"/>
            <g fill="#A0D2F0">
                <path d="M65.534 119.428l-7.248-5.759a5.396 5.396 0 0 0-1.553 3.776v7.215a3.61 3.61 0 0 0 3.61 3.607h7.224v-4.614a5.41 5.41 0 0 0-2.033-4.225zM118.127 124.66v-7.215a5.396 5.396 0 0 0-1.53-3.753l-7.272 5.736a5.409 5.409 0 0 0-2.033 4.225v4.614h7.223a3.61 3.61 0 0 0 3.612-3.607zM87.43 124.66a1.805 1.805 0 0 1-1.806-1.804v-11.805h3.611v11.805c0 .996-.808 1.804-1.806 1.804z"/>
                <path d="M87.43 111.047l-10.336-7.743a1.446 1.446 0 0 0-2.068.354l-2.042 3.06 6.336 8.86c.481.674 1.43.806 2.078.289l6.031-4.82z"/>
                <path d="M87.43 111.047l10.334-7.743a1.446 1.446 0 0 1 2.07.354l2.041 3.06-6.336 8.86a1.446 1.446 0 0 1-2.078.289l-6.032-4.82z"/>
            </g>
            <path fill="#F0C087" d="M96.458 63.335c-9.029 9.018-26.747 1.804-26.747 16.233l1.121 10.629a7.214 7.214 0 0 0 3.686 5.654l10.28 5.705a5.423 5.423 0 0 0 5.263 0l10.28-5.705a7.215 7.215 0 0 0 3.686-5.654l1.295-12.623c.092-.898.111-1.8.08-2.7-.675-4.592-7.138-7.932-8.944-11.539z"/>
            <path fill="#E6AF78" d="M69.71 79.568l1.122 10.629a7.214 7.214 0 0 0 3.686 5.654l10.28 5.705c1.136.63 2.438.793 3.677.549 0 0-5.183-1.57-8.268-9.911-.945-2.556-2.257-16.083-1.129-17.736 2.231-3.268 14.672-3.608 18.348-9.67-.182-.225-.35-.45-.503-.676-.012-.019-.027-.037-.04-.055-.159-.24-.304-.48-.425-.722-9.029 9.018-26.747 1.804-26.747 16.233z"/>
            <path fill="#A0D2F0" d="M101.875 124.66h-7.223c-.997 0-1.805.807-1.805 1.803v1.804h10.834v-1.804c0-.996-.809-1.803-1.806-1.803z"/>
        </g>
    </g>
</svg>
