<?xml version="1.0" encoding="UTF-8"?>
<svg width="135px" height="106px" viewBox="0 0 135 106" version="1.1" xmlns="http://www.w3.org/2000/svg" xmlns:xlink="http://www.w3.org/1999/xlink">
    <!-- Generator: sketchtool 42 (36781) - http://www.bohemiancoding.com/sketch -->
    <title>A7390322-F9E8-4C13-9D64-4BB298B2E2BB</title>
    <desc>Created with sketchtool.</desc>
    <defs></defs>
    <g id="User-Registration" stroke="none" stroke-width="1" fill="none" fill-rule="evenodd">
        <g id="User-Reg---Org-Splash" transform="translate(-646.000000, -375.000000)" fill-rule="nonzero">
            <g id="network" transform="translate(646.000000, 375.000000)">
                <g id="Layer_1">
                    <path d="M23.2148459,27.1238881 C1.5998987,27.1238881 3.99658906,53.5231123 4.09526702,72.6537624 C4.098951,73.376312 4.47576925,74.0275052 5.09204602,74.4006727 C7.48715753,75.8507933 14.0651621,79.2412793 23.2148459,79.2412793 C32.3645298,79.2412793 38.9425343,75.8507933 41.3376459,74.4006727 C41.9536595,74.0275052 42.3307409,73.376312 42.3344249,72.6537624 C42.4331028,53.5231123 44.8297932,27.1238881 23.2148459,27.1238881 Z" id="Shape" fill="#694B4B"></path>
                    <path d="M21.8223025,27.1783303 C1.71962796,28.3102542 3.99895733,53.9488721 4.09526702,72.6537624 C4.098951,73.376312 4.47576925,74.0277695 5.09204602,74.4006727 C7.48715753,75.8507933 14.0651621,79.2412793 23.2148459,79.2412793 L28.6773948,40.8388519" id="Shape" fill="#5A4146"></path>
                    <path d="M23.2148459,27.1238881 C10.9245715,27.1238881 10.0712044,42.0389608 10.0712044,42.0389608 C17.1552296,40.8388519 21.5081119,43.838992 28.6773948,40.8388519 L23.2148459,79.2412793 C32.3647929,79.2412793 38.9425343,75.8507933 41.3376459,74.4006727 C41.9536595,74.0275052 42.3307409,73.376312 42.3344249,72.6537624 C42.4331028,53.5231123 44.8297932,27.1238881 23.2148459,27.1238881 Z" id="Shape" fill="#694B4B"></path>
                    <path d="M42.3344249,72.6537624 C42.4191563,56.2150984 44.1861497,34.4249689 30.9711969,28.6139153 C30.7406852,29.8164028 30.3230801,33.1735891 31.4082745,35.3526021 C34.1394174,40.8388519 36.8708234,40.8388519 39.6017031,44.9532089 C42.332846,60.0398013 34.3833493,76.0524412 31.7429902,78.2325112 L31.7429902,78.2325112 C36.421115,77.1151229 39.7745869,75.3468057 41.3376459,74.4006727 C41.9536595,74.0277695 42.3307409,73.376312 42.3344249,72.6537624 Z" id="Shape" fill="#785550"></path>
                    <path d="M43.9087989,76.8146332 L31.7235177,71.7155579 C30.7059506,71.2897981 30.0428347,70.2910728 30.0428347,69.1834629 L30.0428347,65.8690904 L16.3871203,65.8690904 L16.3871203,69.1834629 C16.3871203,70.2910728 15.7240044,71.2897981 14.7064373,71.7155579 L2.52115616,76.8146332 C0.994410723,77.4536694 0,78.9518894 0,80.6129078 L0,86.0991576 C0,87.6140275 1.22281731,88.8421504 2.73114287,88.8421504 L43.698549,88.8421504 C45.2068746,88.8421504 46.4296919,87.6140275 46.4296919,86.0991576 L46.4296919,80.6129078 C46.429955,78.9518894 45.4355443,77.4536694 43.9087989,76.8146332 Z" id="Shape" fill="#E6AF78"></path>
                    <path d="M43.9087989,76.8146332 L32.1271764,71.8841704 L23.2148459,75.7474586 L14.3025155,71.8844347 L2.52115616,76.8148975 C0.994410723,77.4536694 0,78.9518894 0,80.6129078 L0,86.0991576 C0,87.6140275 1.22281731,88.8421504 2.73114287,88.8421504 L43.698549,88.8421504 C45.2068746,88.8421504 46.4296919,87.6140275 46.4296919,86.0991576 L46.4296919,80.6129078 C46.429955,78.9518894 45.4355443,77.4536694 43.9087989,76.8146332 Z" id="Shape" fill="#EFF2FA"></path>
                    <path d="M30.0428347,65.8690904 L16.3871203,65.8690904 L16.3871203,69.1834629 C16.3871203,70.2910728 15.7240044,71.2897981 14.7064373,71.7155579 L12.8033999,72.5121067 C27.3669515,76.2416678 30.0428347,65.8690904 30.0428347,65.8690904 Z" id="Shape" fill="#D29B6E"></path>
                    <g id="Group" transform="translate(0.000000, 69.506417)" fill="#E4EAF6">
                        <path d="M6.65589437,12.6139611 L1.17466247,8.23505682 C0.440235284,8.98932037 0,10.0094526 0,11.1064911 L0,16.5927409 C0,18.1076108 1.22281731,19.3357337 2.73114287,19.3357337 L8.19369174,19.3357337 L8.19369174,15.8271132 C8.1934286,14.5770549 7.62793809,13.3949172 6.65589437,12.6139611 Z" id="Shape"></path>
                        <path d="M46.429955,16.5924767 L46.429955,11.1062268 C46.429955,10.0176453 45.9970877,9.00464878 45.272923,8.25197093 L39.7737975,12.6136968 C38.8020169,13.3943886 38.2362633,14.5765263 38.2362633,15.8265847 L38.2362633,19.3349409 L43.6988121,19.3349409 C45.2071377,19.3354694 46.429955,18.1073465 46.429955,16.5924767 Z" id="Shape"></path>
                        <path d="M23.419833,16.5924767 L23.0101221,16.5924767 C22.36911,16.5924767 21.8494061,16.0705178 21.8494061,15.4267245 L21.8494061,6.24421334 L24.5805489,6.24421334 L24.5805489,15.4264603 C24.5805489,16.0705178 24.060845,16.5924767 23.419833,16.5924767 Z" id="Shape"></path>
                        <path d="M23.2148459,6.24130622 L15.399025,0.354139157 C14.8972147,-0.0237854658 14.1825231,0.0991061075 13.8346504,0.623179204 L12.2902745,2.94966204 L17.0820763,9.68729165 C17.4462638,10.199472 18.1641131,10.2996353 18.6535558,9.90638222 L23.2148459,6.24130622 Z" id="Shape"></path>
                        <path d="M23.2148459,6.24130622 L31.0306669,0.354139157 C31.5324772,-0.0237854658 32.2471688,0.0991061075 32.5950415,0.623179204 L34.1394174,2.94966204 L29.3476155,9.68729165 C28.9834281,10.199472 28.2655788,10.2996353 27.7761361,9.90638222 L23.2148459,6.24130622 Z" id="Shape"></path>
                    </g>
                    <path d="M30.0428347,39.467752 C23.2148459,46.3251017 9.81516802,40.8388519 9.81516802,51.810823 L10.6630091,59.89286 C10.8266829,61.7008197 11.8703011,63.3103029 13.4499379,64.1919508 L21.2252351,68.5301555 C22.4625251,69.2204625 23.9669036,69.2204625 25.2041937,68.5301555 L32.9794908,64.1919508 C34.559654,63.3103029 35.6030089,61.7005554 35.7664197,59.89286 L36.745305,50.2941031 C36.8150375,49.6117245 36.8297734,48.9253817 36.8068801,48.2408889 C36.2963861,44.7497111 31.4082745,42.2104804 30.0428347,39.467752 Z" id="Shape" fill="#F0C087"></path>
                    <path d="M9.81516802,51.810823 L10.6630091,59.89286 C10.8266829,61.7008197 11.8703011,63.3103029 13.4499379,64.1919508 L21.2252351,68.5301555 C22.0838649,69.0093005 23.0685394,69.1332492 24.0058485,68.9474583 L24.0058485,68.9474583 C24.0058485,68.9474583 20.0858335,67.7542207 17.7525602,61.4111656 C17.0378686,59.4681573 16.045563,49.1817362 16.8991932,47.9245422 C18.5864548,45.4397538 27.9945433,45.1815494 30.7743673,40.5716618 C30.6370076,40.4006708 30.5101735,40.2291511 30.3943914,40.0576315 C30.3851814,40.0438888 30.3738663,40.0298818 30.3643933,40.0158748 C30.2436114,39.8335196 30.1341447,39.6506358 30.0425715,39.4669591 C23.2148459,46.3251017 9.81516802,40.8388519 9.81516802,51.810823 Z" id="Shape" fill="#E6AF78"></path>
                    <path d="M33.1836884,86.0988934 L29.6331238,86.0988934 C28.3510997,86.0988934 27.3116918,87.142811 27.3116918,88.4303976 L27.3116918,88.8418861 L35.5051204,88.8418861 L35.5051204,88.4303976 C35.5051204,87.1425467 34.4657125,86.0988934 33.1836884,86.0988934 Z" id="Shape" fill="#E4EAF6"></path>
                    <polygon id="Shape" fill="#E6AF78" points="116.513676 70.4377498 116.513676 62.9051571 97.2272651 62.9051571 97.2272651 70.4377498 106.870339 79.046767"></polygon>
                    <path d="M131.424047,73.9614344 L118.165676,70.82836 C117.965426,70.7810534 117.781227,70.7007114 117.609133,70.6034552 L106.870339,76.8949752 L96.5504658,70.2992656 C96.2831143,70.5519201 95.9518195,70.739561 95.5752644,70.8286243 L82.3168934,73.9616987 C80.3807002,74.4191725 79.0126289,76.1541901 79.0126289,78.1519049 L79.0126289,86.5798883 C79.0126289,87.7683688 79.9720418,88.7322087 81.1556511,88.7322087 L132.585816,88.7322087 C133.769162,88.7322087 134.728838,87.768633 134.728838,86.5798883 L134.728838,78.1519049 C134.728312,76.1539258 133.359977,74.4189082 131.424047,73.9614344 Z" id="Shape" fill="#EFF2FA"></path>
                    <path d="M97.2272651,62.9051571 L97.2272651,70.8529383 C109.37518,75.2484924 116.513676,64.2471859 116.513676,64.2471859 L116.513676,62.9051571 L97.2272651,62.9051571 L97.2272651,62.9051571 Z" id="Shape" fill="#D29B6E"></path>
                    <path d="M92.9414838,38.15453 L93.8753721,58.7852501 C93.9627349,60.7126657 94.9034649,62.499747 96.4402097,63.6573064 L100.870455,66.9944072 C101.98328,67.8327128 103.336878,68.2856937 104.72758,68.2856937 L109.013361,68.2856937 C110.404326,68.2856937 111.757924,67.8324485 112.870485,66.9944072 L117.300731,63.6573064 C118.837476,62.499747 119.778469,60.7124014 119.865569,58.7852501 L120.799457,38.15453 L92.9414838,38.15453 L92.9414838,38.15453 Z" id="Shape" fill="#F0C087"></path>
                    <path d="M103.656069,42.4589064 C107.94185,42.4589064 114.370653,41.3830105 115.895557,38.15453 L92.9414838,38.15453 L93.8751089,58.7852501 C93.9624718,60.7126657 94.9032017,62.499747 96.4399465,63.6573064 L100.870192,66.9944072 C101.983017,67.8327128 103.336615,68.2856937 104.727317,68.2856937 L106.870339,68.2856937 C104.727317,68.2856937 100.441535,63.9813173 100.441535,58.6005164 L100.441535,45.6871227 C100.441535,44.6112268 101.513046,42.4589064 103.656069,42.4589064 Z" id="Shape" fill="#E6AF78"></path>
                    <path d="M126.862231,81.7477388 L133.805212,75.4837043 C134.387018,76.2236965 134.728312,77.1545011 134.728312,78.1513764 L134.728312,86.5793598 C134.728312,87.7678402 133.768899,88.7316801 132.58529,88.7316801 L125.085238,88.7316801 L125.085238,85.7505684 C125.085238,84.2235415 125.730987,82.7683996 126.862231,81.7477388 Z" id="Shape" fill="#E4EAF6"></path>
                    <polygon id="Shape" fill="#5B5D6E" points="109.549117 88.7316801 104.191561 88.7316801 104.861519 79.046767 108.879422 79.046767"></polygon>
                    <path d="M109.549117,76.8944467 L104.191561,76.8944467 L104.191561,77.5160402 C104.191561,78.9558537 105.353593,80.1226629 106.786923,80.1226629 L106.953228,80.1226629 C108.386822,80.1226629 109.54859,78.9555894 109.54859,77.5160402 L109.54859,76.8944467 L109.549117,76.8944467 Z" id="Shape" fill="#515262"></path>
                    <g id="Group" transform="translate(93.941421, 67.656436)" fill="#E4EAF6">
                        <path d="M3.13506466,0.385853112 L12.9286551,9.23827491 C12.9286551,9.23827491 10.185934,10.6286675 6.80114833,13.4316525 C6.10303464,14.0099036 5.04678572,13.7754847 4.67233575,12.948279 L0.0710481332,2.78184237 L1.52674544,0.589086703 C1.88935406,0.0428138384 2.64956908,-0.0531208736 3.13506466,0.385853112 Z" id="Shape"></path>
                        <path d="M22.7225087,0.385853112 L12.9289182,9.23827491 C12.9289182,9.23827491 15.6716393,10.6286675 19.056425,13.4316525 C19.7545387,14.0099036 20.8107876,13.7754847 21.1852376,12.948279 L25.7865252,2.78184237 L24.3308279,0.589086703 C23.9684824,0.0428138384 23.2082674,-0.0531208736 22.7225087,0.385853112 Z" id="Shape"></path>
                    </g>
                    <path d="M113.36598,31.025233 L114.370653,38.15453 C118.955889,39.075556 119.616637,46.3023734 119.711894,48.3666876 C119.729261,48.7411765 119.848201,49.1032441 120.050557,49.4182694 L121.800183,52.1438195 C121.800183,52.1438195 121.201273,47.6375309 123.943205,44.6112268 C123.942942,44.6112268 124.884198,26.7208566 113.36598,31.025233 Z" id="Shape" fill="#785550"></path>
                    <path d="M122.874852,51.6837029 L121.664665,56.5446593 C121.521253,57.1205318 121.006023,57.5246204 120.415007,57.5246204 L120.415007,57.5246204 C119.765312,57.5246204 119.217452,57.0388684 119.136667,56.3913751 L118.518022,51.4196842 C118.352506,50.0900767 119.38481,48.9158675 120.718672,48.9158675 L120.723146,48.9158675 C122.166212,48.9156032 123.22483,50.2777176 122.874852,51.6837029 Z" id="Shape" fill="#F0C087"></path>
                    <path d="M93.9679978,29.0972889 L95.5528974,30.1845489 C88.3875616,35.4979577 89.7266874,44.6112268 89.7266874,44.6112268 C91.8697096,46.7635472 91.8697096,52.1438195 91.8697096,52.1438195 L94.0127318,49.9914991 C94.0127318,49.9914991 93.1856789,43.7742427 97.2272651,41.3827462 C100.977291,39.163298 104.258662,40.3068503 107.606871,40.3068503 C116.58025,40.3068503 119.09167,36.9102858 118.656435,32.7742576 C118.431186,30.63383 115.172971,26.1759051 106.870602,26.3175608 C103.519498,26.3746459 97.2272651,27.393721 93.9679978,29.0972889 Z" id="Shape" fill="#694B4B"></path>
                    <path d="M93.3430373,39.3652102 C93.3430373,39.3652102 92.2046884,34.8589215 95.5528974,30.1845489 C88.3875616,35.4979577 89.7266874,44.6112268 89.7266874,44.6112268 C91.8697096,46.7635472 91.8697096,52.1438195 91.8697096,52.1438195 L94.0127318,49.9914991 C94.0127318,49.9914991 93.1856789,43.7742427 97.2270019,41.3827462 C100.977028,39.163298 104.258399,40.3068503 107.606608,40.3068503 C109.065989,40.3068503 110.337751,40.2085371 111.470574,40.0404531 C104.559959,40.2732864 100.486269,35.0161699 93.3430373,39.3652102 Z" id="Shape" fill="#5A4146"></path>
                    <path d="M90.8655626,51.6837029 L92.0757492,56.5446593 C92.2191611,57.1205318 92.7343917,57.5246204 93.32567,57.5246204 L93.32567,57.5246204 C93.9753657,57.5246204 94.5232258,57.0388684 94.6040101,56.3913751 L95.2226552,51.4196842 C95.388171,50.0900767 94.3558679,48.9158675 93.0217419,48.9158675 L93.0172685,48.9158675 C91.5747282,48.9156032 90.5155848,50.2777176 90.8655626,51.6837029 Z" id="Shape" fill="#E6AF78"></path>
                    <path d="M119.727946,86.579624 L114.37039,86.579624 C113.187044,86.579624 112.227368,87.5431997 112.227368,88.7319444 L112.227368,88.7319444 L121.870442,88.7319444 L121.870442,88.7319444 C121.870705,87.5431997 120.911292,86.579624 119.727946,86.579624 Z" id="Shape" fill="#E4EAF6"></path>
                    <path d="M67.4049428,0.132141477 C30.6593746,0.132141477 34.7338535,45.0110869 34.9017376,77.5329543 C34.9080529,78.7610772 35.5485387,79.868687 36.596104,80.5027018 C40.6679514,82.9679332 51.8504013,88.7316801 67.4049428,88.7316801 C82.9594842,88.7316801 94.1419341,82.9679332 98.2137816,80.5027018 C99.2610837,79.8684227 99.9018326,78.7610772 99.908148,77.5329543 C100.076032,45.0108226 104.150511,0.132141477 67.4049428,0.132141477 Z" id="Shape" fill="#694B4B"></path>
                    <path d="M65.0371979,0.224376227 C30.8627828,2.14862041 34.7375374,45.7344293 34.9017376,77.53269 C34.9080529,78.7608129 35.5485387,79.8684227 36.596104,80.5024375 C40.6679514,82.9676689 51.8504013,88.7314158 67.4049428,88.7314158 L76.6909338,23.4474479" id="Shape" fill="#5A4146"></path>
                    <path d="M67.4049428,0.132141477 C46.5115288,0.132141477 45.060568,25.4879766 45.060568,25.4879766 C57.1032266,23.4479765 64.5030212,28.5481089 76.6909338,23.4479765 L67.4049428,88.7319444 C82.9594842,88.7319444 94.1419341,82.9681975 98.2137816,80.5029661 C99.2610837,79.868687 99.9018326,78.7613414 99.908148,77.5332186 C100.076032,45.0108226 104.150511,0.132141477 67.4049428,0.132141477 Z" id="Shape" fill="#694B4B"></path>
                    <path d="M99.908148,77.5332186 C100.052349,49.5874105 103.055843,12.5444547 80.59095,2.66555787 C80.1991327,4.71005079 79.4897039,10.4172412 81.3337977,14.1216953 C85.9769248,23.4479765 90.6197887,23.4479765 95.2626526,30.4427534 C99.9055166,56.0900926 86.3911091,83.3117653 81.9027091,87.0172766 L81.9027091,87.0172766 C89.8553634,85.1176107 95.5563183,82.1116564 98.2135184,80.5029661 C99.2610837,79.868687 99.9018326,78.7613414 99.908148,77.5332186 Z" id="Shape" fill="#785550"></path>
                    <path d="M102.584557,84.6067518 L81.8695533,75.9380066 C80.1393996,75.2141356 79.0123657,73.5161177 79.0123657,71.6333659 L79.0123657,65.9988533 L55.7975198,65.9988533 L55.7975198,71.6333659 C55.7975198,73.5158534 54.6704859,75.2138714 52.9403323,75.9380066 L32.2253281,84.6067518 C29.6302292,85.6926905 27.9395468,88.2395853 27.9395468,91.0634486 L27.9395468,100.38973 C27.9395468,102.964903 30.0183625,105.053002 32.5824107,105.053002 L102.227212,105.053002 C104.79126,105.053002 106.870076,102.965167 106.870076,100.38973 L106.870076,91.0634486 C106.870339,88.239321 105.179656,85.6926905 102.584557,84.6067518 Z" id="Shape" fill="#E6AF78"></path>
                    <path d="M102.584557,84.6067518 L82.5558256,76.2252822 L67.4049428,82.7924493 L52.2540599,76.2252822 L32.2253281,84.6067518 C29.6302292,85.6926905 27.9395468,88.2395853 27.9395468,91.0634486 L27.9395468,100.38973 C27.9395468,102.964903 30.0183625,105.053002 32.5824107,105.053002 L102.227212,105.053002 C104.79126,105.053002 106.870076,102.965167 106.870076,100.38973 L106.870076,91.0634486 C106.870339,88.239321 105.179656,85.6926905 102.584557,84.6067518 Z" id="Shape" fill="#B4E1FA"></path>
                    <path d="M79.0123657,65.9988533 L55.7975198,65.9988533 L55.7975198,71.6333659 C55.7975198,73.5158534 54.6704859,75.2138714 52.9403323,75.9380066 L49.7050108,77.2921925 C74.4631801,83.6320763 79.0123657,65.9988533 79.0123657,65.9988533 Z" id="Shape" fill="#D29B6E"></path>
                    <g id="Group" transform="translate(27.892971, 72.149246)" fill="#A0D2F0">
                        <path d="M11.3619122,21.4769542 L2.04381796,14.0328963 C0.79547595,15.3151971 0.0471022809,17.0491576 0.0471022809,18.9139381 L0.0471022809,28.2402193 C0.0471022809,30.8153923 2.12591803,32.9032277 4.68996621,32.9032277 L13.9759572,32.9032277 L13.9759572,26.93889 C13.9754309,24.814055 13.0139129,22.8044475 11.3619122,21.4769542 Z" id="Shape"></path>
                        <path d="M78.977368,28.2402193 L78.977368,18.9139381 C78.977368,17.0634289 78.2413619,15.3413612 77.0103872,14.0619674 L67.6620318,21.4769542 C66.0100311,22.8044475 65.0482499,24.814055 65.0482499,26.93889 L65.0482499,32.9032277 L74.3342409,32.9032277 C76.8985522,32.903492 78.977368,30.8156566 78.977368,28.2402193 Z" id="Shape"></path>
                        <path d="M39.511972,28.2402193 L39.511972,28.2402193 C38.2299479,28.2402193 37.19054,27.1963016 37.19054,25.908715 L37.19054,10.6484888 L41.8334039,10.6484888 L41.8334039,25.9089793 C41.8334039,27.1965659 40.7939961,28.2402193 39.511972,28.2402193 Z" id="Shape"></path>
                        <path d="M39.511972,10.6432031 L26.2249185,0.634543371 C25.3720778,-0.0079284886 24.1566284,0.201119327 23.5653501,1.09201716 L20.93999,5.04727584 L29.0860531,16.5010348 C29.7052245,17.3718471 30.9256735,17.541781 31.757463,16.8734094 L39.511972,10.6432031 Z" id="Shape"></path>
                        <path d="M39.511972,10.6432031 L52.7990254,0.634543371 C53.6518662,-0.0079284886 54.8673155,0.201119327 55.4585939,1.09201716 L58.083954,5.04727584 L49.9378908,16.5010348 C49.3187195,17.3718471 48.0982704,17.541781 47.266481,16.8734094 L39.511972,10.6432031 Z" id="Shape"></path>
                    </g>
                    <path d="M79.0123657,21.116208 C67.4049428,32.7739933 44.6253324,23.4477122 44.6253324,42.1002744 L46.0670833,55.8400809 C46.3449604,58.9134274 48.1193217,61.6498131 50.8052043,63.1482974 L64.0230516,70.5233775 C66.1266027,71.6970581 68.6840723,71.6970581 70.7876233,70.5233775 L84.0054707,63.1482974 C86.6913532,61.6492845 88.4654514,58.9131631 88.7435917,55.8400809 L90.4076969,39.52193 C90.5261104,38.3622564 90.551372,37.1954471 90.5121639,36.0312807 C89.6430084,30.0962784 81.3337977,25.7792164 79.0123657,21.116208 Z" id="Shape" fill="#F0C087"></path>
                    <path d="M44.6253324,42.1002744 L46.0670833,55.8400809 C46.3449604,58.9134274 48.1193217,61.6498131 50.8052043,63.1482974 L64.0230516,70.5233775 C65.4826961,71.3376333 67.1565374,71.5487954 68.7498576,71.2329772 L68.7498576,71.2329772 C68.7498576,71.2329772 62.0855427,69.2048698 58.119478,58.4213325 C56.904555,55.1177956 55.2175565,37.631514 56.6685173,35.4942578 C59.5364936,31.2696947 75.5307441,30.830985 80.2567606,22.9942026 C80.0230912,22.7032271 79.8075785,22.4119873 79.6107489,22.1199546 C79.5946973,22.0964334 79.5757511,22.072648 79.5599626,22.0491268 C79.3547125,21.7393872 79.1684085,21.4285904 79.012892,21.116208 C67.4049428,32.7739933 44.6253324,23.4477122 44.6253324,42.1002744 Z" id="Shape" fill="#E6AF78"></path>
                    <path d="M85.9769248,100.389465 L76.6909338,100.389465 C75.4089097,100.389465 74.3695018,101.433383 74.3695018,102.72097 L74.3695018,105.052474 L88.2983567,105.052474 L88.2983567,102.72097 C88.2983567,101.433383 87.2589489,100.389465 85.9769248,100.389465 Z" id="Shape" fill="#A0D2F0"></path>
                </g>
            </g>
        </g>
    </g>
</svg>