<svg xmlns="http://www.w3.org/2000/svg" xmlns:xlink="http://www.w3.org/1999/xlink" width="98" height="98" viewBox="0 0 98 98">
    <defs>
        <circle id="a" cx="45" cy="45" r="45"/>
    </defs>
    <g fill="none" fill-rule="evenodd">
        <g transform="translate(4 4)">
            <use fill="#068BFF" stroke="#FFF" stroke-width="8" xlink:href="#a"/>
            <circle cx="45" cy="45" r="46" stroke="#068BFF" stroke-width="2"/>
        </g>
        <g fill-rule="nonzero">
            <g fill="#FFF">
                <path d="M31.03 29.886v9.033h-6.203v-9.033c0-.883.371-1.613.889-2.204.587-.591 1.328-.952 2.217-.952h.37a3.181 3.181 0 0 1 2.728 3.156z"/>
                <path d="M57.258 26.73H28.373a3.11 3.11 0 0 1 2.658 3.087V72.27h29.843V30.4c0-1.982-1.623-3.671-3.616-3.671z"/>
            </g>
            <path fill="#193651" d="M57.258 26H27.856c-2.07 0-3.77 1.69-3.77 3.74v8.84a1 1 0 0 0 1 1h5.203v32.419a1 1 0 0 0 1 1h29.326a1 1 0 0 0 1-1V30.4c0-2.42-1.923-4.401-4.357-4.401zM25.561 38.113v-8.227c.077-1.912 1.7-2.35 2.364-2.35.077 0 2.217 0 2.364 2.35v8.227h-4.728zm6.204 33.419V29.886c.224-.368-.595-2.496-.811-2.35H57.25c1.622 0 2.958 1.321 2.958 2.942v41.054H31.765z"/>
            <path fill="#2856A9" d="M70.623 34.15v-5.953c0-.807-.665-1.467-1.476-1.467H65.68c-.811 0-1.476.66-1.476 1.467v5.952h6.42z"/>
            <path fill="#FFF" d="M70.623 66.316V34.15h-6.427v32.167l3.182 5.953z"/>
            <path fill="#193651" d="M69.147 26H65.68c-1.182 0-2.217.952-2.217 2.204V66.47l3.097 5.766a1 1 0 0 0 1.765-.007l3.04-5.759V28.204A2.216 2.216 0 0 0 69.148 26zm.742 40.101l-1.62 2.983a1 1 0 0 1-1.763-.01L64.937 66.1V34.887h4.952V66.1zm-4.952-37.897c0-.437.294-.737.742-.737h3.468a.74.74 0 0 1 .742.737v5.216h-4.952v-5.216z"/>
            <path fill="#0070D2" d="M49.278 65.441h1.475v1.467h-1.475zM45.214 65.441h1.475v1.467h-1.475zM41.228 65.441h1.475v1.467h-1.475z"/>
            <path fill="#193651" d="M35.241 31.43h21.5v1.467h-21.5zM35.241 37.091h21.5v1.467h-21.5zM35.241 42.744h21.5v1.467h-21.5zM35.241 48.474h21.5v1.467h-21.5z"/>
            <path fill="#16325C" d="M35.241 54.127h21.5v7.128h-21.5z"/>
        </g>
    </g>
</svg>
