<svg xmlns="http://www.w3.org/2000/svg" width="98" height="98" viewBox="0 0 98 98">
    <g fill="none" fill-rule="evenodd">
        <circle cx="45" cy="45" r="45" fill="#DAE0EB" stroke="#FFF" stroke-width="8" transform="translate(4 4)"/>
        <g fill-rule="nonzero" opacity=".7">
            <g fill="#FFF">
                <path d="M32.03 29.886v9.033h-6.203v-9.033c0-.883.371-1.613.889-2.204.587-.591 1.328-.952 2.217-.952h.37a3.181 3.181 0 0 1 2.728 3.156z"/>
                <path d="M58.258 26.73H29.373a3.11 3.11 0 0 1 2.658 3.087V72.27h29.843V30.4c0-1.982-1.623-3.671-3.616-3.671z"/>
            </g>
            <path fill="#193651" d="M58.258 26H28.856c-2.07 0-3.77 1.69-3.77 3.74v9.84h6.203v33.419h31.326V30.4c0-2.42-1.923-4.401-4.357-4.401zM31.29 38.113h-4.728v-8.227c.077-1.912 1.7-2.35 2.364-2.35.077 0 2.217 0 2.364 2.35v8.227zm29.843 33.419H32.765V29.886c.224-.368-.595-2.496-.811-2.35H58.25c1.622 0 2.958 1.321 2.958 2.942v41.054h-.077z"/>
            <path fill="#2856A9" d="M71.623 34.15v-5.953c0-.807-.665-1.467-1.476-1.467H66.68c-.811 0-1.476.66-1.476 1.467v5.952h6.42z"/>
            <path fill="#FFF" d="M71.623 66.316V34.15h-6.427v32.167l3.182 5.953z"/>
            <path fill="#193651" d="M70.147 26H66.68c-1.182 0-2.217.952-2.217 2.204V66.47l3.986 7.42 3.917-7.42V28.204A2.216 2.216 0 0 0 70.147 26zm.742 40.101l-2.51 4.624-2.442-4.624V34.887h4.952V66.1zm-4.952-32.689v-5.208c0-.437.294-.737.742-.737h3.468a.74.74 0 0 1 .742.737v5.216h-4.952v-.008z"/>
            <path fill="#0070D2" d="M50.278 65.441h1.475v1.467h-1.475zM46.214 65.441h1.475v1.467h-1.475zM42.228 65.441h1.475v1.467h-1.475z"/>
            <path fill="#193651" d="M36.241 31.43h21.5v1.467h-21.5zM36.241 37.091h21.5v1.467h-21.5zM36.241 42.744h21.5v1.467h-21.5zM36.241 48.474h21.5v1.467h-21.5z"/>
            <path fill="#16325C" d="M36.241 54.127h21.5v7.128h-21.5z"/>
        </g>
    </g>
</svg>
