<?xml version="1.0" encoding="UTF-8"?>
<svg width="49px" height="41px" viewBox="0 0 49 41" version="1.1" xmlns="http://www.w3.org/2000/svg" xmlns:xlink="http://www.w3.org/1999/xlink">
    <!-- Generator: sketchtool 42 (36781) - http://www.bohemiancoding.com/sketch -->
    <title>49614B33-BFB0-4388-A2C3-CEFB92D0EF80</title>
    <desc>Created with sketchtool.</desc>
    <defs></defs>
    <g id="User-Registration" stroke="none" stroke-width="1" fill="none" fill-rule="evenodd">
        <g id="User-Reg---Org-Level-of-Engagement" transform="translate(-975.000000, -589.000000)" fill-rule="nonzero">
            <g id="tv-screen" transform="translate(975.000000, 589.000000)">
                <g id="Layer_1">
                    <g id="Group" transform="translate(21.628906, 28.929907)" fill="#605353">
                        <path d="M23.1949922,2.29906542 L23.1949922,4.52848832 C23.1949922,4.99021729 23.569,5.36448598 24.0301934,5.36448598 C24.4914824,5.36448598 24.8653945,4.9901215 24.8653945,4.52848832 L24.8653945,2.29906542 L23.1949922,2.29906542 Z" id="Shape"></path>
                        <path d="M19.8540918,4.52848832 C19.8540918,4.99021729 20.2280996,5.36448598 20.689293,5.36448598 C21.150582,5.36448598 21.5244941,4.9901215 21.5244941,4.52848832 L21.5244941,2.29906542 L19.8539961,2.29906542 L19.8539961,4.52848832 L19.8540918,4.52848832 Z" id="Shape"></path>
                        <path d="M16.5130957,4.52848832 C16.5130957,4.99021729 16.8871035,5.36448598 17.3482969,5.36448598 C17.8095859,5.36448598 18.183498,4.9901215 18.183498,4.52848832 L18.183498,2.29906542 L16.513,2.29906542 L16.513,4.52848832 L16.5130957,4.52848832 Z" id="Shape"></path>
                        <rect id="Rectangle-path" x="0.0869941406" y="0.0696425234" width="5.56819922" height="11.1470187"></rect>
                    </g>
                    <path d="M49,31.228972 C49,31.8420561 48.4988984,32.3436355 47.8863984,32.3436355 L1.11360156,32.3436355 C0.501101562,32.3436355 0,31.8420561 0,31.228972 L0,1.13209813 C0,0.519014019 0.501101562,0.0174345794 1.11360156,0.0174345794 L47.8863027,0.0174345794 C48.4988027,0.0174345794 48.9999043,0.519014019 48.9999043,1.13209813 L48.9999043,31.228972 L49,31.228972 Z" id="Shape" fill="#463836"></path>
                    <rect id="Rectangle-path" fill="#6FC5D6" x="3.34090039" y="3.36152103" width="42.3181992" height="25.638028"></rect>
                    <path d="M37.8636016,40.9825654 L11.1363984,40.9825654 C10.6751094,40.9825654 10.3011973,40.6082009 10.3011973,40.1465678 C10.3011973,39.6848388 10.6751094,39.3105701 11.1363984,39.3105701 L37.8636973,39.3105701 C38.3249863,39.3105701 38.6988984,39.6849346 38.6988984,40.1465678 C38.6988984,40.6082967 38.3248906,40.9825654 37.8636016,40.9825654 Z" id="Shape" fill="#463836"></path>
                </g>
            </g>
        </g>
    </g>
</svg>