<svg xmlns="http://www.w3.org/2000/svg" width="97" height="97" viewBox="0 0 97 97">
    <g fill="none" fill-rule="evenodd">
        <circle cx="48.431" cy="48.431" r="47.931" stroke="#0070D2"/>
        <g fill="#0070D2" fill-rule="nonzero">
            <path d="M72.073 74.146H70.53V25.635a.926.926 0 0 0-.926-.927H52.321a.926.926 0 0 0-.926.927v4.017h-1.852v-4.017a.926.926 0 0 0-.926-.927h-4.012v-2.781a.926.926 0 1 0-1.852 0v2.78h-4.012a.926.926 0 0 0-.926.928v4.017h-2.777a.926.926 0 0 0-.926.927v7.724h-7.716a.926.926 0 0 0-.926.927v34.916h-1.543a.926.926 0 0 0 0 1.854h48.146a.926.926 0 0 0 0-1.854zM39.667 26.562h8.024v3.09h-8.024v-3.09zm-3.086 47.584h-.617v-1.545a.926.926 0 1 0-1.852 0v1.545h-.617v-3.09h3.086v3.09zm6.172-23.792V74.146h-4.32V70.13a.926.926 0 0 0-.926-.927h-4.938a.926.926 0 0 0-.926.927v4.017h-4.321V40.157h15.431v10.197zm.926-12.05h-7.715v-6.798h15.43v17.92h-6.789v-3.089h2.778a.926.926 0 0 0 0-1.854h-2.778v-3.09h2.778a.926.926 0 0 0 0-1.854h-2.778v-.309a.926.926 0 0 0-.926-.927zm16.357 35.842h-15.43V51.281h15.43v22.865zm8.642 0h-6.79V49.118a.926.926 0 1 0-1.852 0v.309h-1.851v-.31a.926.926 0 1 0-1.852 0v.31h-3.086V26.562h15.431v47.584z"/>
            <path d="M48.617 72.292a.926.926 0 0 0 .926-.927V54.062a.926.926 0 1 0-1.852 0v17.303c0 .512.415.927.926.927zM52.32 72.292a.926.926 0 0 0 .927-.927V54.062a.926.926 0 1 0-1.852 0v17.303c0 .512.414.927.926.927zM56.024 72.292a.926.926 0 0 0 .926-.927V54.062a.926.926 0 1 0-1.852 0v17.303c0 .512.415.927.926.927zM57.259 32.742a.926.926 0 0 0 .926-.927v-1.236a.926.926 0 1 0-1.852 0v1.236c0 .512.414.927.926.927zM60.962 32.742a.926.926 0 0 0 .926-.927v-1.236a.926.926 0 1 0-1.852 0v1.236c0 .512.415.927.926.927zM64.666 32.742a.926.926 0 0 0 .926-.927v-1.236a.926.926 0 1 0-1.852 0v1.236c0 .512.415.927.926.927zM57.259 38.921a.926.926 0 0 0 .926-.927v-1.236a.926.926 0 1 0-1.852 0v1.236c0 .512.414.927.926.927zM60.962 38.921a.926.926 0 0 0 .926-.927v-1.236a.926.926 0 1 0-1.852 0v1.236c0 .512.415.927.926.927zM64.666 38.921a.926.926 0 0 0 .926-.927v-1.236a.926.926 0 1 0-1.852 0v1.236c0 .512.415.927.926.927zM57.259 45.101a.926.926 0 0 0 .926-.927v-1.236a.926.926 0 1 0-1.852 0v1.236c0 .512.414.927.926.927zM60.962 45.101a.926.926 0 0 0 .926-.927v-1.236a.926.926 0 1 0-1.852 0v1.236c0 .512.415.927.926.927zM64.666 45.101a.926.926 0 0 0 .926-.927v-1.236a.926.926 0 1 0-1.852 0v1.236c0 .512.415.927.926.927zM31.334 47.573a.926.926 0 0 0 .926-.927V45.41a.926.926 0 1 0-1.852 0v1.236c0 .512.415.927.926.927zM35.038 47.573a.926.926 0 0 0 .926-.927V45.41a.926.926 0 1 0-1.852 0v1.236c0 .512.414.927.926.927zM38.741 47.573a.926.926 0 0 0 .926-.927V45.41a.926.926 0 1 0-1.852 0v1.236c0 .512.415.927.926.927zM31.334 53.753a.926.926 0 0 0 .926-.927V51.59a.926.926 0 1 0-1.852 0v1.236c0 .512.415.927.926.927zM35.038 53.753a.926.926 0 0 0 .926-.927V51.59a.926.926 0 1 0-1.852 0v1.236c0 .512.414.927.926.927zM38.741 53.753a.926.926 0 0 0 .926-.927V51.59a.926.926 0 1 0-1.852 0v1.236c0 .512.415.927.926.927zM31.334 59.933a.926.926 0 0 0 .926-.927V57.77a.926.926 0 1 0-1.852 0v1.236c0 .512.415.927.926.927zM35.038 59.933a.926.926 0 0 0 .926-.927V57.77a.926.926 0 1 0-1.852 0v1.236c0 .512.414.927.926.927zM38.741 59.933a.926.926 0 0 0 .926-.927V57.77a.926.926 0 1 0-1.852 0v1.236c0 .512.415.927.926.927zM31.334 66.112a.926.926 0 0 0 .926-.927V63.95a.926.926 0 1 0-1.852 0v1.236c0 .512.415.927.926.927zM35.038 66.112a.926.926 0 0 0 .926-.927V63.95a.926.926 0 1 0-1.852 0v1.236c0 .512.414.927.926.927zM38.741 66.112a.926.926 0 0 0 .926-.927V63.95a.926.926 0 1 0-1.852 0v1.236c0 .512.415.927.926.927zM64.666 51.28a.926.926 0 0 0 .926-.926v-1.236a.926.926 0 1 0-1.852 0v1.236c0 .512.415.927.926.927zM64.666 57.46a.926.926 0 0 0 .926-.926v-1.236a.926.926 0 1 0-1.852 0v1.236c0 .512.415.927.926.927zM64.666 63.64a.926.926 0 0 0 .926-.926v-1.236a.926.926 0 1 0-1.852 0v1.236c0 .511.415.926.926.926zM64.666 69.82a.926.926 0 0 0 .926-.927v-1.236a.926.926 0 1 0-1.852 0v1.236c0 .512.415.927.926.927zM48.309 35.522a.926.926 0 0 0-.926-.926h-7.407a.926.926 0 0 0 0 1.853h7.407a.926.926 0 0 0 .926-.927z"/>
        </g>
    </g>
</svg>
