<svg xmlns="http://www.w3.org/2000/svg" width="16" height="15" viewBox="0 0 16 15">
    <g fill="none" fill-rule="nonzero">
        <path fill="#FEDB41" d="M15.583 5.311l-4.773-.935L8.342.249A.505.505 0 0 0 7.95.015a.473.473 0 0 0-.44.243L5.128 4.441.374 5.47a.462.462 0 0 0-.25.767l3.31 3.497-.468 4.74c-.038.356.335.618.67.468l4.314-1.935.114-.056 4.458 1.898a.479.479 0 0 0 .67-.486l-.574-4.723 3.233-3.562a.465.465 0 0 0-.268-.767z"/>
        <path fill="#FC3" d="M15.851 6.078L12.618 9.64l.574 4.723a.48.48 0 0 1-.67.486L8.065 12.95l-.115.056V.015c.143.01.296.085.392.234l2.468 4.127 4.773.935a.465.465 0 0 1 .268.767z"/>
        <path fill="#FEA832" d="M11.939 6.508L9.595 6.05 8.38 4.04a.487.487 0 0 0-.43-.234.442.442 0 0 0-.402.233L6.381 6.087l-2.334.505a.458.458 0 0 0-.249.767l1.626 1.72-.239 2.329a.478.478 0 0 0 .68.467l2.085-.935.086-.037 2.2.926c.335.15.708-.122.66-.477l-.277-2.329 1.588-1.748a.465.465 0 0 0-.268-.767z"/>
        <path fill="#FE9923" d="M12.207 7.275l-1.588 1.748.277 2.329c.048.355-.325.626-.66.477l-2.2-.926-.086.037V3.806c.172 0 .335.074.43.233l1.215 2.01 2.344.459a.465.465 0 0 1 .268.767z"/>
    </g>
</svg>
