<svg xmlns="http://www.w3.org/2000/svg" width="32" height="30" viewBox="0 0 32 30">
    <g fill="none" fill-rule="nonzero" opacity=".3">
        <path fill="#FEDB41" d="M31.167 10.622l-9.547-1.87L16.684.498a1.01 1.01 0 0 0-.785-.467.947.947 0 0 0-.88.486l-4.764 8.366L.747 10.94c-.708.15-.995 1.01-.497 1.534l6.62 6.994-.938 9.482c-.077.71.67 1.234 1.339.935l8.628-3.872.23-.112 8.915 3.797c.69.28 1.416-.243 1.34-.973l-1.148-9.444 6.466-7.125a.93.93 0 0 0-.535-1.534z"/>
        <path fill="#FC3" d="M31.702 12.156l-6.466 7.125 1.148 9.444c.076.73-.65 1.253-1.34.973L16.13 25.9l-.23.113V.03c.288.019.594.168.785.467l4.936 8.254 9.547 1.87a.93.93 0 0 1 .535 1.534z"/>
        <path fill="#FEA832" d="M23.877 13.016L19.19 12.1l-2.43-4.021c-.19-.318-.516-.468-.86-.468a.885.885 0 0 0-.804.468l-2.334 4.095-4.668 1.01a.917.917 0 0 0-.498 1.534l3.253 3.44-.479 4.657c-.057.711.69 1.254 1.359.936l4.17-1.87.173-.075 4.4 1.851c.67.3 1.416-.243 1.32-.954l-.555-4.656 3.176-3.498a.93.93 0 0 0-.536-1.533z"/>
        <path fill="#FE9923" d="M24.413 14.55l-3.176 3.497.555 4.656c.096.711-.65 1.253-1.32.954l-4.4-1.851-.172.074V7.611c.344 0 .67.15.86.468l2.43 4.02 4.687.917a.93.93 0 0 1 .536 1.533z"/>
    </g>
</svg>
