<svg xmlns="http://www.w3.org/2000/svg" width="41" height="40" viewBox="0 0 41 40">
    <g fill="none" fill-rule="nonzero">
        <g fill="#C7CBC7">
            <path d="M3.512 39.314H.702c-.421 0-.702-.286-.702-.715V25.74c0-.428.28-.714.702-.714h2.81c.421 0 .702.286.702.714V38.6c0 .429-.28.715-.702.715M26.69 3.592V.734c0-.429.28-.714.702-.714h12.642c.422 0 .703.285.703.714v2.858c0 .428-.281.714-.703.714H27.392c-.421 0-.702-.286-.702-.714"/>
        </g>
        <path fill="#E8EDEE" d="M28.797 4.306v12.146c0 5.93-4.706 10.716-10.536 10.716H4.214V37.17h14.047c11.238 0 20.369-9.287 20.369-20.718V4.306h-9.833z"/>
        <g fill="#C7CBC7">
            <path d="M12.642 35.027H4.214c-.421 0-.702-.286-.702-.714 0-.43.28-.715.702-.715h8.428c.422 0 .703.286.703.715 0 .428-.281.714-.703.714M18.261 35.027h-2.107c-.421 0-.702-.286-.702-.714 0-.43.28-.715.702-.715h2.107c.913 0 1.826-.071 2.67-.214.35-.072.772.214.772.571.07.358-.21.786-.562.786-.913.215-1.896.286-2.88.286M25.987 33.17c-.28 0-.491-.143-.632-.43-.14-.356 0-.785.351-.928 1.475-.714 2.81-1.715 4.074-2.858.28-.285.702-.285.983.072.281.286.281.714-.07 1-1.334 1.215-2.81 2.286-4.355 3.072-.14.072-.28.072-.35.072M31.747 28.597c-.14 0-.352-.071-.422-.143-.28-.286-.351-.714-.07-1 1.194-1.429 2.107-3.072 2.81-4.787.14-.357.561-.571.912-.428.352.142.562.571.422.928-.703 1.858-1.756 3.644-3.02 5.216a1.12 1.12 0 0 1-.632.214M35.68 19.31h-.07c-.352-.072-.633-.43-.633-.786.07-.715.14-1.358.14-2.072v-1.43c0-.428.282-.714.703-.714.422 0 .703.286.703.715v1.429c0 .714-.07 1.5-.14 2.214 0 .358-.352.643-.703.643M35.82 10.022c-.421 0-.702-.286-.702-.715V7.164c0-.429.28-.715.702-.715.422 0 .703.286.703.715v2.143c0 .429-.281.715-.703.715M36.523 12.165c0-.429-.281-.714-.703-.714-.421 0-.702.285-.702.714s.28.714.702.714c.422 0 .703-.285.703-.714"/>
        </g>
        <g>
            <g transform="translate(3.277 .098)">
                <path fill="#FFC843" d="M15.734 25.355c0-3.716 6.697-5.829 6.697-13.989C22.431 5.09 17.417 0 11.23 0 5.044 0 .028 5.089.028 11.366c0 8.16 6.698 10.273 6.698 13.989h9.008z"/>
                <path fill="#FFC843" d="M15.734 25.355c0-3.716 6.697-5.829 6.697-13.989C22.431 5.09 17.417 0 11.23 0 5.044 0 .028 5.089.028 11.366c0 8.16 6.698 10.273 6.698 13.989h9.008z"/>
                <g fill="#D49000">
                    <path d="M9.06 25.985a.626.626 0 0 1-.62-.63c0-3.267-.928-4.685-1.909-6.186-.911-1.394-1.854-2.835-1.854-5.642 0-.348.278-.63.622-.63.343 0 .621.282.621.63 0 2.427.763 3.594 1.646 4.945.992 1.517 2.116 3.236 2.116 6.883 0 .348-.278.63-.622.63zM13.4 25.985a.626.626 0 0 1-.622-.63c0-3.647 1.124-5.366 2.115-6.883.884-1.351 1.647-2.518 1.647-4.945 0-.348.278-.63.621-.63.343 0 .621.282.621.63 0 2.807-.942 4.248-1.853 5.642-.982 1.501-1.908 2.919-1.908 6.186 0 .348-.278.63-.622.63z"/>
                </g>
                <path fill="#FFF" d="M13.256 16.435a.618.618 0 0 1-.484-.235l-1.542-1.946L9.688 16.2a.618.618 0 0 1-.968 0l-2.026-2.557a.637.637 0 0 1 .095-.886.615.615 0 0 1 .873.096L9.204 14.8l1.542-1.946a.618.618 0 0 1 .968 0l1.542 1.946 1.542-1.946a.615.615 0 0 1 .873-.096c.268.218.31.615.095.886L13.74 16.2a.619.619 0 0 1-.484.235z"/>
                <path fill="#000" d="M6.322 23.772c.254.51.404 1.028.404 1.583h9.008c0-.555.15-1.074.404-1.583H6.322z" opacity=".1"/>
                <ellipse cx="11.23" cy="37.606" fill="#5C6670" rx="1.527" ry="1.55"/>
                <path fill="#000" d="M11.23 36.056a1.538 1.538 0 0 0-1.513 1.752 4.886 4.886 0 0 0 3.026 0 1.538 1.538 0 0 0-1.513-1.752z" opacity=".1"/>
                <ellipse cx="11.23" cy="33.018" fill="#333E48" rx="4.522" ry="4.588"/>
                <path fill="#000" d="M11.23 28.43c-2.497 0-4.522 2.054-4.522 4.588 0 .333.036.657.103.97h8.838c.067-.313.103-.637.103-.97 0-2.534-2.025-4.589-4.522-4.589z" opacity=".1"/>
                <path fill="#5C6670" d="M17.643 31.465c0 .854-.689 1.553-1.53 1.553H6.347c-.841 0-1.53-.699-1.53-1.553v-4.822c0-.854.689-1.552 1.53-1.552h9.766c.841 0 1.53.698 1.53 1.552v4.822z"/>
                <g fill="#333E48">
                    <path d="M4.817 26.937h12.825v1.261H4.817zM4.817 29.91h12.825v1.261H4.817z"/>
                </g>
            </g>
        </g>
    </g>
</svg>
