<svg xmlns="http://www.w3.org/2000/svg" width="16" height="16" viewBox="0 0 16 16">
    <g fill="#B4C0D6" fill-rule="nonzero">
        <path d="M8 15.904c4.376 0 7.918-3.555 7.918-7.918C15.918 3.61 12.362.068 8 .068S.082 3.61.082 7.986c0 4.363 3.542 7.918 7.918 7.918zM8 1.176a6.81 6.81 0 0 1 0 13.62c-3.76 0-6.81-3.063-6.81-6.81A6.81 6.81 0 0 1 8 1.176z"/>
        <path d="M7.63 8.916h2.64c.315 0 .56-.246.56-.56a.555.555 0 0 0-.56-.561H8.191V4.54a.555.555 0 0 0-.56-.56.555.555 0 0 0-.56.56v3.816c0 .314.245.56.56.56z"/>
    </g>
</svg>
