<svg xmlns="http://www.w3.org/2000/svg" width="18" height="18" viewBox="0 0 18 18">
    <g fill="#0070D2" fill-rule="nonzero" transform="translate(.034)">
        <path d="M8.957 0C4.018 0 0 4.018 0 8.958c0 4.939 4.018 8.957 8.957 8.957 4.94 0 8.958-4.018 8.958-8.957C17.915 4.018 13.897 0 8.957 0zm0 16.487c-4.151 0-7.528-3.378-7.528-7.53 0-4.15 3.377-7.528 7.528-7.528 4.152 0 7.53 3.377 7.53 7.529 0 4.151-3.378 7.529-7.53 7.529z"/>
        <path d="M8.957 2.843a6.122 6.122 0 0 0-6.114 6.115 6.122 6.122 0 0 0 6.114 6.114 6.122 6.122 0 0 0 6.115-6.114 6.122 6.122 0 0 0-6.115-6.115zm0 10.107c-2.2 0-3.991-1.791-3.991-3.992s1.79-3.992 3.991-3.992a3.996 3.996 0 0 1 3.992 3.992 3.996 3.996 0 0 1-3.992 3.992z"/>
        <circle cx="8.958" cy="8.958" r="2.546"/>
    </g>
</svg>
