<svg xmlns="http://www.w3.org/2000/svg" width="40" height="39" viewBox="0 0 40 39">
    <g fill="none" fill-rule="nonzero">
        <path fill="#34495E" d="M33.85 13.073L20.097 2.064a.62.62 0 0 0-.773 0L5.571 13.073a.605.605 0 0 0-.228.472v24.607h28.735V13.545a.605.605 0 0 0-.228-.472z"/>
        <path fill="#D3D2D2" d="M39.417 15.108a.605.605 0 0 0-.23-.405L20.849.457a1.854 1.854 0 0 0-2.276 0L.235 14.703a.606.606 0 0 0-.104.852l1.518 1.91c.21.263.595.31.862.102l17.2-13.362 17.2 13.362a.616.616 0 0 0 .862-.102l1.517-1.91a.602.602 0 0 0 .127-.447z"/>
        <path fill="#BDBCBC" d="M16.436 26.496h6.549v11.656h-6.549z"/>
        <path fill="#E9E9E9" d="M23.6 26.496a.61.61 0 0 0-.615-.607h-6.549a.61.61 0 0 0-.614.607V37.99H23.6V26.496zM22.37 37.545h-5.32V27.103h5.32v10.442z"/>
        <path fill="#C4DF64" d="M3.992 31.757C2.21 31.757.76 33.192.76 34.955s1.45 3.197 3.233 3.197c1.784 0 3.234-1.434 3.234-3.197 0-1.763-1.45-3.198-3.234-3.198zM11.197 31.757c-1.783 0-3.234 1.435-3.234 3.198s1.45 3.197 3.234 3.197c1.783 0 3.233-1.434 3.233-3.197 0-1.763-1.45-3.198-3.233-3.198zM28.225 31.757c-1.783 0-3.234 1.435-3.234 3.198s1.45 3.197 3.234 3.197c1.783 0 3.233-1.434 3.233-3.197 0-1.763-1.45-3.198-3.233-3.198zM35.429 31.757c-1.783 0-3.234 1.435-3.234 3.198s1.45 3.197 3.234 3.197c1.783 0 3.234-1.434 3.234-3.197 0-1.763-1.451-3.198-3.234-3.198z"/>
        <path fill="#6DDAE1" d="M22.986 16.783h7.859v6.476h-7.859zM16.643 8.422h6.218v5.124h-6.218z"/>
        <path fill="#E9E9E9" d="M30.844 16.175h-7.859a.61.61 0 0 0-.614.608v6.475a.61.61 0 0 0 .614.607h7.86a.61.61 0 0 0 .613-.607v-6.475a.61.61 0 0 0-.614-.608zM23.6 17.39h2.702v5.261h-2.702V17.39zm6.631 5.261H27.53V17.39h2.701v5.261z"/>
        <path fill="#6DDAE1" d="M8.536 16.783h7.859v6.476H8.536z"/>
        <path fill="#E9E9E9" d="M16.395 16.175H8.536a.61.61 0 0 0-.614.608v6.475a.61.61 0 0 0 .614.607h7.86a.61.61 0 0 0 .613-.607v-6.475a.61.61 0 0 0-.614-.608zM9.15 17.39h2.702v5.261H9.15V17.39zm6.631 5.261H13.08V17.39h2.701v5.261zM22.33 7.757h-5.239a.61.61 0 0 0-.614.607v5.18a.61.61 0 0 0 .614.608h5.24a.61.61 0 0 0 .613-.607v-5.18a.61.61 0 0 0-.614-.608zm-.614 2.59h-1.391V8.971h1.391v1.376zm-2.62-1.376v1.377h-1.391V8.97h1.392zm-1.391 2.59h1.392v1.377h-1.392v-1.376zm2.62 1.377v-1.376h1.391v1.376h-1.391z"/>
        <g fill="#7B7979">
            <path d="M18.4 32.931a.61.61 0 0 1-.613-.607v-.648a.61.61 0 0 1 .614-.607.61.61 0 0 1 .614.607v.648a.61.61 0 0 1-.614.607zM38.704 38.76H.718a.61.61 0 0 1-.614-.608.61.61 0 0 1 .614-.607h37.986a.61.61 0 0 1 .614.607.61.61 0 0 1-.614.607z"/>
        </g>
    </g>
</svg>
