<svg xmlns="http://www.w3.org/2000/svg" width="34" height="40" viewBox="0 0 34 40">
    <g fill="none" fill-rule="nonzero">
        <path fill="#F15540" d="M21.884 6.543c-1.714-.498-3.267-.234-4.518.567l-.004.001-.089.058a1.01 1.01 0 0 1-.52.142c-.192 0-.37-.052-.522-.142l-.088-.058-.004-.001c-1.252-.801-2.805-1.065-4.518-.567-3.864 1.125-4.928 5.078-3.247 8.83 2.005 4.48 5.499 6.151 7.514 5.563a2.832 2.832 0 0 0 .617-.265.53.53 0 0 1 .247-.06.53.53 0 0 1 .273.074c.195.11.392.193.592.251 2.015.588 5.508-1.082 7.513-5.563 1.681-3.752.617-7.705-3.246-8.83z"/>
        <g fill="#39C4AD">
            <path d="M16.213 6.177c-.068-.057-.144-.122-.228-.19-.04-.035-.084-.07-.126-.11l-.132-.123a25.907 25.907 0 0 1-.14-.129c-.047-.045-.09-.094-.139-.142-.092-.097-.192-.194-.282-.303-.09-.107-.19-.21-.273-.326-.085-.112-.178-.22-.257-.338l-.118-.171c-.04-.057-.078-.111-.11-.168-.07-.112-.137-.217-.2-.323-.057-.107-.113-.207-.164-.3a3.508 3.508 0 0 0-.07-.133c-.022-.042-.04-.084-.058-.123l-.093-.2-.08-.175a36.06 36.06 0 0 0 .22.35c.023.036.044.076.073.115l.087.121c.063.084.126.176.198.272.07.09.154.19.235.292.04.053.086.1.13.15.045.048.09.098.134.148.088.101.192.195.29.293.093.098.202.185.3.276.1.093.205.172.304.253.052.039.1.08.149.116.05.035.1.07.148.106l.137.099c.046.031.093.059.135.087l.234.15.183.104a6.613 6.613 0 0 0-1.125-3.386A6.711 6.711 0 0 0 12.542 0a3.95 3.95 0 0 0-.07 4.518 4.028 4.028 0 0 0 3.85 1.741 9.635 9.635 0 0 0-.11-.082zM19.673 3.787a2.414 2.414 0 0 0-1.841.696 2.37 2.37 0 0 0-.703 1.825 2.41 2.41 0 0 0 1.84-.695c.508-.501.742-1.17.704-1.826z"/>
        </g>
        <path fill="#80DCFF" d="M4.74 32.844a2.77 2.77 0 0 1-.826-1.98c0-.746.293-1.449.826-1.977a2.82 2.82 0 0 1 1.996-.819h23.422c.22 0 .397-.175.397-.393v-.17a.395.395 0 0 0-.397-.393H6.736c-.968 0-1.938.366-2.677 1.1a3.732 3.732 0 0 0 0 5.309 3.793 3.793 0 0 0 2.677 1.097h23.422c.22 0 .397-.175.397-.394v-.167a.396.396 0 0 0-.397-.394H6.736c-.753 0-1.463-.291-1.996-.819z"/>
        <path fill="#E6EAEE" d="M6.736 33.663c-.753 0-1.463-.291-1.996-.819a2.77 2.77 0 0 1-.826-1.98c0-.746.293-1.449.826-1.977a2.82 2.82 0 0 1 1.996-.819h22.855v5.595H6.736z"/>
        <rect width="33.4" height="4.728" x=".052" y="34.618" fill="#F15540" rx="2.364"/>
        <g fill="#E6EAEE">
            <path d="M5.778 34.619h2.864v4.728H5.778zM3.87 34.619h1v4.728h-1zM24.862 34.619h2.864v4.728h-2.864zM28.681 34.619h1v4.728h-1z"/>
        </g>
        <path fill="#34495E" d="M31.67 21.432a1.339 1.339 0 0 0-.946-.387H1.84a.396.396 0 0 0-.398.393v-.014c0 .217.178.393.398.393h28.884a.555.555 0 0 1 .557.552v3.42a.55.55 0 0 1-.557.55H1.84a.395.395 0 0 0-.398.393v-.013c0 .217.178.393.398.393h28.884c.342 0 .684-.13.945-.388.26-.258.392-.597.392-.936v-3.42c0-.339-.131-.677-.392-.936z"/>
        <path fill="#E6EAEE" d="M2.223 26.34v-4.523h28.501a.555.555 0 0 1 .557.552v3.42a.55.55 0 0 1-.557.55H2.223z"/>
        <g fill="#AAB5BD">
            <path d="M16.752 22.095h14.44a.61.61 0 0 0-.074-.101.532.532 0 0 0-.394-.177H16.752v.278zM16.752 25.889h14.523a.65.65 0 0 0 .006-.085v-.193H16.752v.278zM16.752 23.24h14.53v1h-14.53z"/>
            <path d="M16.752 23.714h14.53v1h-14.53zM16.752 22.569h14.529v-.193a.654.654 0 0 0-.006-.085H16.752v.278zM16.752 25.137h14.53v1h-14.53z"/>
            <path d="M16.752 24.189h14.53v1h-14.53z"/>
            <path d="M16.752 24.664h14.53v1h-14.53zM16.752 26.364h13.972a.532.532 0 0 0 .468-.278h-14.44v.278zM16.752 22.765h14.53v1h-14.53z"/>
        </g>
        <g fill="#E6EAEE">
            <path d="M16.752 22.348h14.523a.801.801 0 0 0-.083-.277h-14.44v.277zM16.752 22.545h14.53v1h-14.53z"/>
            <path d="M16.752 23.02h14.53v1h-14.53z"/>
            <path d="M16.752 23.494h14.53v1h-14.53z"/>
            <path d="M16.752 23.968h14.53v1h-14.53z"/>
            <path d="M16.752 24.441h14.53v1h-14.53z"/>
            <path d="M16.752 24.916h14.53v1h-14.53z"/>
            <path d="M16.752 25.391h14.53v1h-14.53z"/>
            <path d="M16.752 26.143h14.44a.802.802 0 0 0 .083-.277H16.752v.277z"/>
        </g>
        <path fill="#F15540" d="M27.965 25.137h-1.881v3.81c0 .217.126.269.281.115l.66-.654.66.654c.154.154.28.103.28-.115v-3.81z"/>
    </g>
</svg>
