<svg xmlns="http://www.w3.org/2000/svg" width="13" height="17" viewBox="0 0 13 17">
    <g fill="#B4C0D6" fill-rule="nonzero" stroke="#B4C0D6" stroke-width=".5">
        <path d="M6.731 4.516c-1.13 0-2.051.92-2.051 2.052 0 1.13.92 2.051 2.051 2.051 1.13 0 2.051-.92 2.051-2.051 0-1.131-.92-2.052-2.051-2.052zm0 3.517a1.467 1.467 0 0 1-1.465-1.465c0-.808.657-1.465 1.465-1.465s1.465.657 1.465 1.465-.657 1.465-1.465 1.465z"/>
        <path d="M10.653 2.646A5.583 5.583 0 0 0 6.679 1a5.582 5.582 0 0 0-3.974 1.646C.741 4.61.497 8.306 2.177 10.544l3.932 5.679c.315.454.825.455 1.14 0l3.926-5.67c1.686-2.248 1.442-5.943-.522-7.907zm.046 7.565l-4.02 5.805-4.027-5.815c-1.523-2.03-1.305-5.368.468-7.14a5 5 0 0 1 3.56-1.475c1.344 0 2.607.524 3.558 1.474 1.773 1.773 1.992 5.11.461 7.15z"/>
    </g>
</svg>
