<svg xmlns="http://www.w3.org/2000/svg" xmlns:xlink="http://www.w3.org/1999/xlink" width="107" height="104" viewBox="0 0 107 104">
    <defs>
        <circle id="a" cx="26.05" cy="26.05" r="23.073"/>
    </defs>
    <g fill="none" fill-rule="nonzero">
        <g fill="#FF6469">
            <path d="M36.465 0C25.838 0 13.688 16.506 13.688 36.794c0 26.214 21.335 64.387 22.095 66 .173.37.422.58.682.58.497 0 .971-.21 1.303-.58 1.45-1.613 35.491-39.786 35.491-66C73.26 16.506 56.754 0 36.465 0zm0 56.068c-10.644 0-19.273-8.63-19.273-19.274s8.629-19.273 19.273-19.273c10.645 0 19.273 8.629 19.273 19.273 0 10.645-8.628 19.274-19.273 19.274z"/>
            <path d="M36.266 102.795c-.76-1.614-22.095-39.787-22.095-66C14.171 16.505 26.321 0 36.948 0 16.66 0 .154 16.506.154 36.794c0 26.214 34.042 64.387 35.491 66 .332.37.806.58 1.303.58-.26 0-.508-.21-.682-.58z"/>
        </g>
        <path fill="#344A5E" d="M80.668 84.04l-5.263-5.262 6.84-6.841L87.51 77.2z"/>
        <g transform="translate(35.273 31.89)">
            <use fill="#8AD7F8" fill-rule="evenodd" xlink:href="#a"/>
            <circle cx="26.05" cy="26.05" r="18.073" stroke="#FFF" stroke-width="10"/>
        </g>
        <path fill="#415A6B" d="M79.78 76.398c-10.122 10.122-26.793 10.122-36.916 0-10.122-10.122-10.122-26.794 0-36.916 10.123-10.122 26.794-10.122 36.916 0 10.123 10.122 10.272 26.794 0 36.916zm-32.599-32.6a20.035 20.035 0 0 0 0 28.432 20.035 20.035 0 0 0 28.431 0 20.035 20.035 0 0 0 0-28.431c-7.889-7.89-20.69-7.89-28.43 0z"/>
        <path fill="#F3705A" d="M88.414 75.952c7.89 5.507 13.844 9.824 15.63 11.76 3.573 3.572 3.573 9.377 0 12.95-3.573 3.572-9.378 3.572-12.95 0-1.787-1.787-6.252-7.74-11.76-15.63l9.08-9.08z"/>
        <path fill="#F05540" d="M82.311 89.2c-.893-1.34-1.935-2.68-2.828-4.02l9.08-9.08c1.489 1.043 2.828 1.936 4.02 2.829L82.31 89.199z"/>
        <path fill="#F3705A" d="M80.971 86.67l9.08-9.081a2.336 2.336 0 0 0 0-3.275 2.336 2.336 0 0 0-3.274 0l-9.08 9.08a2.336 2.336 0 0 0 0 3.275c.893 1.042 2.381 1.042 3.274 0z"/>
    </g>
</svg>
