<svg xmlns="http://www.w3.org/2000/svg" width="140" height="120" viewBox="0 0 140 120">
    <g fill="none" fill-rule="nonzero">
        <path fill="#FFF" d="M125.164 49.5H17.047L8.457 114h124.026z"/>
        <path fill="#556080" d="M124.4 48.686l7.301 64.628H7.977l8.57-64.628H124.4zM130.72 42H10.342l-.776 5.85-8.57 64.629L0 120h139.531l-.838-7.399-7.301-64.628-.673-5.973z"/>
        <path fill="#EBBA16" d="M32.36 103.5c-.611 0-1.22-.035-1.829-.103a12.18 12.18 0 0 1-1.552-.271c-1.272-.302-2.035-1.497-1.707-2.665.328-1.17 1.624-1.882 2.896-1.571.314.072.627.129.941.164.958.11 1.928.081 2.889-.033 1.312-.142 2.493.698 2.655 1.897.164 1.2-.758 2.293-2.061 2.444a18.7 18.7 0 0 1-2.232.138zm11.054-2.534c-.953 0-1.852-.531-2.218-1.4-.473-1.129.138-2.396 1.36-2.829a67.881 67.881 0 0 0 4.217-1.66c1.196-.515 2.606-.042 3.162 1.05.557 1.094.048 2.398-1.14 2.91a73.616 73.616 0 0 1-4.525 1.778c-.28.105-.57.151-.856.151zm-19.843-3.79c-1.206 0-2.237-.84-2.363-1.964a11.818 11.818 0 0 1-.067-1.295 13.431 13.431 0 0 1 .556-3.836c.343-1.17 1.657-1.866 2.915-1.54 1.267.315 2.018 1.514 1.674 2.682a9.315 9.315 0 0 0-.371 2.151c-.01.18-.017.361-.017.543 0 .282.012.569.045.85.133 1.204-.82 2.276-2.125 2.401-.086.004-.167.009-.247.009zm32.52-2.185c-.778 0-1.541-.35-1.998-.996-.715-1.015-.401-2.37.7-3.028a66.201 66.201 0 0 0 3.755-2.422c1.056-.726 2.54-.527 3.331.429.79.965.58 2.337-.466 3.065a73.517 73.517 0 0 1-4.03 2.6 2.526 2.526 0 0 1-1.293.352zm11.313-7.986c-.735 0-1.457-.313-1.926-.9-.772-.975-.54-2.345.523-3.056.497-.33 1.004-.656 1.524-.965a30.875 30.875 0 0 1 2.853-1.505c1.18-.54 2.603-.105 3.193.971.59 1.079.116 2.396-1.056 2.939-.841.39-1.647.814-2.4 1.262-.448.27-.885.547-1.313.836a2.516 2.516 0 0 1-1.398.418zM29.471 85.97c-.844 0-1.662-.414-2.092-1.144-.628-1.062-.197-2.39.956-2.965a11.309 11.309 0 0 1 3.908-1.138c.69-.072 1.41-.07 2.118.018 1.3.157 2.218 1.256 2.045 2.455-.171 1.194-1.334 2.037-2.668 1.881a4.187 4.187 0 0 0-.965-.004 6.232 6.232 0 0 0-2.17.632 2.54 2.54 0 0 1-1.132.265zm50.956-4.052c-1.098 0-2.085-.703-2.323-1.73-.273-1.185.545-2.346 1.829-2.598a61.579 61.579 0 0 1 4.892-.748c1.315-.178 2.49.7 2.65 1.901.163 1.2-.762 2.293-2.065 2.44-1.58.181-3.09.411-4.484.684-.168.036-.335.05-.499.05zm14.17-1.35c-1.268 0-2.324-.921-2.374-2.098-.052-1.208.966-2.228 2.278-2.276l4.738-.18c1.308-.109 2.425.878 2.484 2.088.06 1.206-.955 2.23-2.268 2.284l-4.76.18c-.03.002-.066.002-.099.002zm14.213-.97c-1.105 0-2.094-.71-2.327-1.745-.264-1.184.56-2.342 1.847-2.587 1.374-.26 2.392-.625 3.202-1.148 1.04-.746 2.62-.624 3.419.326.806.956.704 2.273-.333 3.015a7.23 7.23 0 0 1-.402.267c-1.293.84-2.921 1.446-4.926 1.827-.159.03-.323.046-.48.046zm9.674-8.817c-.233 0-.469-.033-.704-.098-1.253-.357-1.957-1.585-1.567-2.738a4.5 4.5 0 0 0 .23-1.107l.01-.254c0-.5-.104-1.01-.309-1.518-.456-1.133.17-2.391 1.403-2.812 1.222-.417 2.6.156 3.055 1.291.402.996.606 2.02.606 3.042 0 .183-.007.365-.019.547a8.531 8.531 0 0 1-.435 2.109c-.314.936-1.255 1.538-2.27 1.538zm-12.03-8.986c-1.036 0-1.99-.628-2.284-1.595-.357-1.162.375-2.372 1.64-2.698a15.244 15.244 0 0 1 5.672-.394c1.3.162 2.214 1.263 2.038 2.462-.174 1.197-1.346 2.037-2.675 1.875a10.176 10.176 0 0 0-3.744.265c-.216.059-.43.085-.647.085z"/>
        <path fill="#DD352E" d="M95.496 20.387C94.25 11.507 89.281 0 69.764 0 50.25 0 45.278 11.507 44.032 20.387c-.682 4.868-.3 9.813.785 14.616 5.966 26.41 20.71 42.24 24.198 45.694a1.077 1.077 0 0 0 1.498 0c3.488-3.453 18.233-19.284 24.199-45.694 1.086-4.803 1.47-9.748.784-14.616zm-25.732 17.19c-8.334 0-15.089-6.309-15.089-14.092s6.755-14.09 15.09-14.09c8.333 0 15.089 6.31 15.089 14.09 0 7.783-6.756 14.092-15.09 14.092z"/>
        <path fill="#B02721" d="M70.47 7.5c-9.327 0-16.913 7.401-16.913 16.499 0 9.1 7.586 16.501 16.913 16.501 9.326 0 16.913-7.401 16.913-16.501C87.38 14.9 79.794 7.5 70.47 7.5zm0 28.507c-6.785 0-12.308-5.386-12.308-12.008 0-6.622 5.52-12.006 12.308-12.006 6.787 0 12.308 5.384 12.308 12.006S77.255 36.007 70.47 36.007z"/>
    </g>
</svg>
