<svg xmlns="http://www.w3.org/2000/svg" width="160" height="160" viewBox="0 0 160 160">
    <g fill="#B4C0D6" fill-rule="evenodd">
        <path d="M47.015 97.5a4.774 4.774 0 0 1 6.383 2.005l8.825 16.34a3.126 3.126 0 0 0 5.874-1.484V90.5a3.125 3.125 0 0 0-6.25 0v11.497l-2.95-5.462A10.992 10.992 0 0 0 44.2 91.92a11.005 11.005 0 0 0-5.764 12.456l5.721 23.713a42.8 42.8 0 0 0 7.086 15.292l11.207 15.336a3.12 3.12 0 0 0 4.367.68 3.125 3.125 0 0 0 .68-4.367l-11.208-15.337a36.576 36.576 0 0 1-6.056-13.07l-5.72-23.713a4.78 4.78 0 0 1 2.503-5.41zM117.57 84.181c-1.844 0-3.58.472-5.093 1.302-1.534-3.995-5.407-6.839-9.935-6.839-1.953 0-3.783.531-5.358 1.453-1.683-3.662-5.383-6.212-9.67-6.212-1.565 0-3.05.342-4.39.95v-14.94c0-5.866-4.772-10.64-10.638-10.64-5.867 0-10.64 4.773-10.64 10.64v5.417a3.125 3.125 0 0 0 6.25 0v-5.417c0-2.42 1.97-4.389 4.39-4.389s4.389 1.97 4.389 4.39v44.095a3.125 3.125 0 0 0 6.25 0V84.523c0-2.42 1.968-4.389 4.389-4.389 2.42 0 4.389 1.97 4.389 4.39v19.467a3.125 3.125 0 0 0 6.25 0V89.283c0-2.42 1.969-4.39 4.389-4.39s4.389 1.97 4.389 4.39v14.708a3.125 3.125 0 0 0 6.25 0V94.82c0-2.42 1.969-4.39 4.389-4.39s4.39 1.97 4.39 4.39v26.368a69.079 69.079 0 0 1-3.17 20.693l-4.408 14.057a3.125 3.125 0 0 0 5.964 1.87l4.408-14.057a75.324 75.324 0 0 0 3.455-22.563V94.82c0-5.866-4.772-10.639-10.639-10.639z"/>
        <path fill-rule="nonzero" d="M159.738 16.572a5.229 5.229 0 0 0-4.248-3.58l-9.572-1.388-4.283-8.672A5.228 5.228 0 0 0 136.918 0a5.228 5.228 0 0 0-4.718 2.934l-4.278 8.674-9.571 1.394a5.228 5.228 0 0 0-4.246 3.582 5.229 5.229 0 0 0 1.333 5.393l6.928 6.749-1.633 9.533a5.229 5.229 0 0 0 2.094 5.145c.922.67 2 1.01 3.086 1.01.837 0 1.678-.202 2.455-.61l8.56-4.504 8.562 4.499a5.226 5.226 0 0 0 5.54-.402 5.228 5.228 0 0 0 2.091-5.147l-1.637-9.532 6.924-6.753a5.23 5.23 0 0 0 1.33-5.393zm-12.99 8.035a5.258 5.258 0 0 0-1.512 4.657l1.387 8.07-7.249-3.809a5.26 5.26 0 0 0-4.897.001l-7.246 3.812 1.382-8.07a5.26 5.26 0 0 0-1.514-4.656l-5.865-5.714 8.103-1.18a5.26 5.26 0 0 0 3.96-2.879l3.622-7.343 3.625 7.34a5.26 5.26 0 0 0 3.963 2.878l8.103 1.176-5.862 5.717zM102.816 16.572a5.228 5.228 0 0 0-4.248-3.58l-9.572-1.388-4.283-8.672A5.228 5.228 0 0 0 79.996 0h-.001a5.228 5.228 0 0 0-4.717 2.934L71 11.608l-9.571 1.394a5.228 5.228 0 0 0-4.246 3.582 5.229 5.229 0 0 0 1.333 5.393l6.927 6.749-1.632 9.533a5.229 5.229 0 0 0 2.094 5.145c.922.67 2 1.01 3.086 1.01.837 0 1.677-.203 2.454-.611l8.56-4.503 8.563 4.498a5.226 5.226 0 0 0 5.54-.402 5.228 5.228 0 0 0 2.091-5.146l-1.637-9.532 6.924-6.753a5.229 5.229 0 0 0 1.33-5.393zm-12.99 8.035a5.26 5.26 0 0 0-1.512 4.657l1.387 8.07-7.248-3.809a5.26 5.26 0 0 0-4.897.001l-7.247 3.812 1.382-8.07a5.26 5.26 0 0 0-1.514-4.656l-5.865-5.714 8.103-1.18a5.261 5.261 0 0 0 3.96-2.879l3.622-7.343 3.626 7.34a5.26 5.26 0 0 0 3.962 2.878l8.103 1.176-5.862 5.717zM45.894 16.572a5.229 5.229 0 0 0-4.248-3.58l-9.572-1.388-4.282-8.672A5.228 5.228 0 0 0 23.074 0h-.001a5.228 5.228 0 0 0-4.717 2.934l-4.278 8.674-9.571 1.394A5.228 5.228 0 0 0 .26 16.584a5.228 5.228 0 0 0 1.332 5.393l6.928 6.749-1.632 9.533a5.23 5.23 0 0 0 2.094 5.145c.922.67 2 1.01 3.086 1.01.837 0 1.678-.202 2.455-.61l8.56-4.504 8.562 4.499a5.229 5.229 0 0 0 5.54-.402 5.23 5.23 0 0 0 2.092-5.147l-1.638-9.532 6.924-6.753a5.23 5.23 0 0 0 1.33-5.393zm-12.99 8.034a5.258 5.258 0 0 0-1.512 4.658l1.386 8.07-7.247-3.809a5.26 5.26 0 0 0-4.897.001l-7.247 3.813 1.382-8.07a5.26 5.26 0 0 0-1.515-4.657L7.39 18.898l8.103-1.18a5.26 5.26 0 0 0 3.96-2.879l3.622-7.343 3.625 7.34a5.26 5.26 0 0 0 3.963 2.878l8.103 1.176-5.862 5.716z"/>
        <path d="M67.182 75.978a3.147 3.147 0 0 0-2.21-.915c-.822 0-1.628.334-2.21.915a3.149 3.149 0 0 0-.915 2.21c0 .821.335 1.628.916 2.209a3.149 3.149 0 0 0 2.21.915c.821 0 1.627-.334 2.209-.915.58-.581.915-1.388.915-2.21 0-.822-.334-1.628-.915-2.209z"/>
    </g>
</svg>
