<svg xmlns="http://www.w3.org/2000/svg" width="24" height="23" viewBox="0 0 24 23">
    <g fill="none" fill-rule="nonzero">
        <path fill="#B4C0D6" d="M23.375 8.144l-7.16-1.434L12.513.382a.755.755 0 0 0-.588-.358.707.707 0 0 0-.66.372L7.691 6.81.56 8.387a.713.713 0 0 0-.373 1.176l4.965 5.362-.703 7.27a.71.71 0 0 0 1.004.717l6.472-2.968.172-.086 6.686 2.91a.722.722 0 0 0 1.005-.745l-.861-7.241 4.85-5.463c.359-.415.143-1.075-.402-1.175z"/>
        <path fill="#EAECF2" d="M17.908 9.979l-3.515-.703-1.823-3.082a.727.727 0 0 0-.645-.359.661.661 0 0 0-.603.359l-1.75 3.14-3.502.774a.708.708 0 0 0-.373 1.176l2.44 2.638-.36 3.57c-.042.545.517.96 1.02.717l3.128-1.434.129-.057 3.3 1.42a.705.705 0 0 0 .99-.732l-.416-3.57 2.382-2.681c.359-.416.143-1.076-.402-1.176z"/>
        <path fill="#EAECF2" d="M18.31 11.155l-2.382 2.68.416 3.57a.705.705 0 0 1-.99.732l-3.3-1.42-.13.058V5.835c.259 0 .503.115.646.359l1.823 3.082 3.515.703c.545.1.76.76.402 1.176z"/>
    </g>
</svg>
