<?xml version="1.0" encoding="UTF-8"?>
<svg width="100px" height="100px" viewBox="0 0 100 100" version="1.1" xmlns="http://www.w3.org/2000/svg" xmlns:xlink="http://www.w3.org/1999/xlink">
    <!-- Generator: Sketch 48.2 (47327) - http://www.bohemiancoding.com/sketch -->
    <title>Group 14</title>
    <desc>Created with Sketch.</desc>
    <defs></defs>
    <g id="Apply-Through-MI-Bridges" stroke="none" stroke-width="1" fill="none" fill-rule="evenodd" transform="translate(-603.000000, -297.000000)">
        <g id="Group-14" transform="translate(603.000000, 297.000000)" fill-rule="nonzero">
            <circle id="Oval" fill="#3DB39E" cx="50" cy="50" r="50"></circle>
            <path d="M91.646309,22.5108225 L47.6190476,68.2435762 L47.6968647,73.1601732 L49.7193177,73.1601732 L97.4025974,34.6073314 C96.0022857,30.3151177 94.0576497,26.1788512 91.646309,22.5108225 Z" id="Shape" fill="#37A18E"></path>
            <path d="M98.6909479,20.4213033 L89.8908734,11.6987057 C88.7226711,10.5304459 86.7757992,10.5304459 85.5298882,11.6987057 L47.9156746,50.5607443 L31.6395408,34.5175399 C30.4713385,33.3492801 28.5244666,33.3492801 27.2785556,34.5175399 L19.4908703,42.2276984 C18.3226681,43.3959582 18.3226681,45.342926 19.4908703,46.5111858 L45.5015613,72.2892291 C46.2025222,72.9902245 47.1370049,73.2237578 48.0714876,73.1458475 C49.0059703,73.2237578 49.940453,72.9900268 50.6414139,72.2892291 L98.6909479,24.7825032 C99.8591501,23.5363331 99.8591501,21.5893653 98.6909479,20.4213033 Z" id="Shape" fill="#F2F1EF"></path>
            <path d="M50.5942837,72.2869769 L98.6901039,24.6682133 C99.8594315,23.4971983 99.8594315,21.5456389 98.6901039,20.374624 L97.2870296,19.047619 L47.9439002,67.6031154 L20.6610419,40.9835355 L19.4917143,42.1545505 C18.3223867,43.3255654 18.3223867,45.2771248 19.4917143,46.4481398 L45.5274615,72.2871751 C46.2290976,72.9898237 47.1644805,73.2239078 48.0998633,73.1458137 C48.9572647,73.2237096 49.8926476,72.9896255 50.5942837,72.2869769 Z" id="Shape" fill="#E6E5E3"></path>
        </g>
    </g>
</svg>