<svg xmlns="http://www.w3.org/2000/svg" width="45" height="40" viewBox="0 0 45 40">
    <g fill="none" fill-rule="nonzero">
        <path fill="#A86A3F" d="M3.445 4.908h34.453a3.459 3.459 0 0 1 3.445 3.452v4.143a3.459 3.459 0 0 1-3.445 3.452H3.445A3.459 3.459 0 0 1 0 12.503V8.36a3.459 3.459 0 0 1 3.445-3.452z"/>
        <path fill="#3DB39E" d="M10.99 8.602l21.567-5.73c.724-.207 1.482.241 1.689.966l3.583 13.256c.206.725-.242 1.485-.965 1.692l-28.079 7.49c-.723.208-1.481-.241-1.688-.966L4.48 15.575l6.511-6.973z"/>
        <path fill="#78CABB" d="M34.073 16.68l-4.65 1.243c-.38.103-.759-.104-.828-.484-.103-.38.104-.76.483-.828l3.996-1.07-2.136-8.01-3.996 1.071c-.38.104-.758-.104-.827-.483-.103-.38.103-.76.482-.829l4.651-1.242c.38-.104.758.103.827.483l2.48 9.32c.104.38-.103.76-.482.829zM14.78 21.893l-4.651 1.242c-.379.104-.758-.103-.827-.483l-2.48-9.32c-.104-.38.103-.76.482-.83l4.651-1.242c.379-.103.758.104.827.484.103.38-.104.759-.483.828l-3.996 1.07 2.136 8.009 3.996-1.07c.38-.104.758.103.827.483a.67.67 0 0 1-.482.829z"/>
        <path fill="#5ABEAC" d="M.276 13.435C6.408 9.914 22.946.214 22.946.214 23.6-.166 24.46.04 24.84.697l6.89 11.875c.38.656.138 1.484-.516 1.864L5.994 28.935c-.654.38-1.515.172-1.894-.484 0 0-1.93-3.935-3.859-7.249 0-7.767.035-5.213.035-7.767z"/>
        <path fill="#8CD2C5" d="M28.216 12.192l-4.823-8.354c-.207-.345-.62-.449-.93-.241l-4.169 2.416c-.344.207-.448.621-.241.932.207.345.62.449.93.242l3.583-2.072 4.135 7.18-3.583 2.072c-.345.207-.448.621-.242.932.207.345.62.449.93.242l4.17-2.417a.67.67 0 0 0 .24-.932zm-18.26 9.77l-3.582 2.07-4.135-7.18 3.583-2.07c.345-.208.448-.622.242-.933-.207-.345-.62-.449-.93-.242l-4.17 2.417c-.344.207-.447.621-.24.932l4.823 8.354c.207.345.62.449.93.242l4.169-2.417c.344-.207.448-.621.24-.932a.667.667 0 0 0-.93-.241zm1.758-12.186c-2.653 1.519-3.549 4.902-2.033 7.56 1.55 2.658 4.892 3.555 7.545 2.036 2.653-1.518 3.549-4.901 2.033-7.56-1.55-2.623-4.892-3.555-7.545-2.036zm16.502 2.416l-4.823-8.354c-.207-.345-.62-.449-.93-.241l-4.169 2.416c-.344.207-.448.621-.241.932.207.345.62.449.93.242l3.583-2.072 4.135 7.18-3.583 2.072c-.345.207-.448.621-.242.932.207.345.62.449.93.242l4.17-2.417a.67.67 0 0 0 .24-.932zm-18.26 9.77l-3.582 2.07-4.135-7.18 3.583-2.07c.345-.208.448-.622.242-.933-.207-.345-.62-.449-.93-.242l-4.17 2.417c-.344.207-.447.621-.24.932l4.823 8.354c.207.345.62.449.93.242l4.169-2.417c.344-.207.448-.621.24-.932a.667.667 0 0 0-.93-.241zm1.758-12.186c-2.653 1.519-3.549 4.902-2.033 7.56 1.55 2.658 4.892 3.555 7.545 2.036 2.653-1.518 3.549-4.901 2.033-7.56-1.55-2.623-4.892-3.555-7.545-2.036z"/>
        <path fill="#C47E4D" d="M39.276 39.429H3.446A3.459 3.459 0 0 1 0 35.977V11.122h39.276a3.459 3.459 0 0 1 3.445 3.452v21.403a3.459 3.459 0 0 1-3.445 3.452zM2.756 11.122H0V8.36a2.767 2.767 0 0 0 2.756 2.762z"/>
        <path fill="#A86A3F" d="M42.72 30.799h-5.512c-2.652 0-4.823-2.175-4.823-4.833 0-2.658 2.17-4.833 4.823-4.833h5.513c.758 0 1.378.621 1.378 1.381v6.904c0 .76-.62 1.38-1.378 1.38z"/>
        <path fill="#EFC75E" d="M37.208 23.204a2.767 2.767 0 0 1 2.757 2.762 2.767 2.767 0 0 1-2.757 2.762 2.767 2.767 0 0 1-2.756-2.762 2.767 2.767 0 0 1 2.756-2.762z"/>
        <path fill="#D7B354" d="M37.898 28.037a2.767 2.767 0 0 1-2.757-2.762c0-.586.173-1.139.483-1.587-.724.483-1.172 1.311-1.172 2.278a2.767 2.767 0 0 0 2.756 2.762c.93 0 1.758-.484 2.274-1.174-.448.31-.999.483-1.584.483z"/>
        <path fill="#B27245" d="M39.276 38.048H3.446A3.459 3.459 0 0 1 0 34.596v1.38a3.459 3.459 0 0 0 3.445 3.453h35.83a3.459 3.459 0 0 0 3.446-3.452v-1.38a3.459 3.459 0 0 1-3.445 3.451z"/>
        <path fill="#CA8B5F" d="M39.276 11.122H2.756A2.767 2.767 0 0 1 0 8.36v1.381a2.767 2.767 0 0 0 2.756 2.762h36.52a3.459 3.459 0 0 1 3.445 3.452v-1.38a3.459 3.459 0 0 0-3.445-3.453z"/>
    </g>
</svg>
