<svg xmlns="http://www.w3.org/2000/svg" width="46" height="46" viewBox="0 0 46 46">
    <g fill="none" fill-rule="nonzero">
        <path fill="#FDC794" d="M45.45 31.09c.635-.476.714-1.428.238-2.062-1.03-1.349-1.824-1.745-5.234.079l-6.9 4.203c-2.141 1.11-7.614.793-9.993.793 0 0 5.63.397 3.41-2.934-1.11-1.666-3.014-2.617-5.076-2.617h-3.093c-1.824 0-3.569-.555-4.996-1.586-3.41-2.618-9.835 2.379-9.835 2.379V43.62h11.104c1.586 0 3.172-.159 4.758-.397l10.31-1.586c.318 0 .714-.08 1.032-.08.872-.079 1.586-.554 2.22-1.11l12.056-9.358z"/>
        <path fill="#48A0DC" d="M.006 46H3.97V26.966H.006z"/>
        <path fill="#E64C3C" d="M24.513 5.076C25.703 2.459 28.319 0 31.413 0c4.203 0 7.375 3.252 7.772 7.297 0 0 .238 1.03-.238 2.855-.634 2.458-2.062 4.679-4.045 6.345L24.91 25.14a.241.241 0 0 1-.317 0l-10.073-8.644c-1.982-1.666-3.41-3.887-4.044-6.345-.476-1.824-.238-2.855-.238-2.855C10.633 3.252 13.488 0 17.692 0c3.093 0 5.71 2.459 6.82 5.076"/>
        <g fill="#F9A671">
            <path d="M23.56 34.897h-7.692c-.476 0-.793-.318-.793-.794 0-.475.317-.793.793-.793h7.693c.476 0 .793.318.793.793 0 .476-.317.794-.793.794z"/>
            <path d="M12.695 37.276c-.476 0-.793-.317-.793-.793 0-1.983 1.507-3.173 3.966-3.173.476 0 .793.318.793.794 0 .475-.317.793-.793.793-2.38 0-2.38 1.19-2.38 1.586 0 .476-.317.793-.793.793z"/>
        </g>
    </g>
</svg>
