<svg xmlns="http://www.w3.org/2000/svg" width="83" height="80" viewBox="0 0 83 80">
    <g fill="none" fill-rule="nonzero">
        <g fill="#F3705A">
            <path d="M13.142 0l3.977 8.086 8.991 1.376-6.57 6.366 1.556 8.946-7.954-4.3-8.127 4.3 1.556-8.946L0 9.462l8.992-1.376zM41.5 0l3.977 8.086 9.165 1.376-6.571 6.366 1.556 8.946-8.127-4.3-8.127 4.3 1.556-8.946-6.57-6.366 9.164-1.376zM69.858 0l4.15 8.086L83 9.462l-6.57 6.366 1.555 8.946-8.127-4.3-7.954 4.3 1.556-8.946-6.57-6.366 8.991-1.376z"/>
        </g>
        <path fill="#ECAF13" d="M44.612 80c-.518-7.742-3.112-14.452-7.608-22.021-.691-1.033-.864-2.237-.864-3.613v-10.15c0-1.205.518-2.41 1.556-3.442l.346-.344s.346-18.236.691-20.129c0 0-.691-8.774 3.113-9.118 1.383 0 3.285-.344 3.112 8.43l.692 11.355s1.556-1.549 3.631-1.205c2.075.344 2.94 3.097 2.94 3.613 0 0 1.556-1.892 4.15-.86 2.594 1.032 3.458 6.538 3.458 6.538s1.73-5.162 5.533-2.237c0 0 1.902 1.548 1.557 4.817l.691 5.85v6.537c0 3.097-.518 6.022-1.556 8.947L66.227 80H44.612z"/>
        <g fill="#F7B64C">
            <path d="M39.425 29.591s.173 0 .346.173c.173 0 .519.172.864.172H41.5h-.865c-.345 0-.691-.172-.864-.172-.173-.173-.346-.173-.346-.173zM45.65 34.237l.174 1.548v.86c0 .344 0 .516.174.86v-.86-2.408c0-1.033-.174-2.065-.174-3.097 0-.172 0-.172.174-.344-.347.172-.52.172-.52.172-.001 1.204.173 2.236.173 3.269zM52.221 35.957l.174 1.204c0 .344.174.86.174 1.205v-2.409c0-.86-.174-1.72-.174-2.409v-.344l-.347.344c0 .689.173 1.549.173 2.409zM59.827 39.398V39.398v-.516-.344c-.172.344-.172.688-.344.688.344 0 .344 0 .344.172z"/>
        </g>
    </g>
</svg>
