<svg xmlns="http://www.w3.org/2000/svg" width="40" height="40" viewBox="0 0 40 40">
    <g fill="none" fill-rule="nonzero">
        <path fill="#D07C40" d="M0 15.756l19.965-12.42 19.966 12.42V34.06H0z"/>
        <path fill="#EFEFEF" d="M4.367.068h31.196c.686 0 1.248.588 1.248 1.307v22.879c0 .72-.562 1.307-1.248 1.307H4.367c-.686 0-1.247-.588-1.247-1.307V1.375C3.12.656 3.68.068 4.367.068z"/>
        <path fill="#26A6D1" d="M32.943 2.682L34.939.068h.624c.687 0 1.248.588 1.248 1.307v1.307h-3.868zm-16.222 0L18.717.068h4.368l-1.997 2.614h-4.367zm-13.601 0V1.375c0-.72.561-1.307 1.247-1.307h3.12L5.49 2.682H3.12z"/>
        <path fill="#EFC75E" d="M39.93 37.981c0 1.08-.842 1.962-1.871 1.962H1.872C.842 39.943 0 39.06 0 37.98V15.756l19.965 9.152 19.966-9.152v22.225z"/>
        <path fill="#E8C15B" d="M39.93 37.981c0 1.08-.842 1.962-1.871 1.962H1.872C.842 39.943 0 39.06 0 37.98V34.06l39.93-18.303v22.225z"/>
        <path fill="#D6D9DB" d="M12.697 11.67l.25 1.373-1.997-3.268-2.808 4.576c-.031.425 1.778.751 4.024.751s4.056-.326 4.056-.751l-2.465-3.824-1.06 1.144zm.25-1.797c.436 0 .78-.36.78-.817 0-.458-.344-.817-.78-.817-.438 0-.78.36-.78.817 0 .457.342.817.78.817zm6.394-.327H31.82c.343 0 .624-.294.624-.654 0-.36-.281-.653-.624-.653H19.34c-.343 0-.624.294-.624.653 0 .36.281.654.624.654zm12.479 1.308H19.34c-.343 0-.624.294-.624.653 0 .36.281.654.624.654H31.82c.343 0 .624-.294.624-.654 0-.36-.281-.653-.624-.653zm-3.12 2.614h-9.359c-.343 0-.624.294-.624.654 0 .36.281.654.624.654h9.36c.342 0 .623-.295.623-.654 0-.36-.28-.654-.624-.654z"/>
        <path fill="#E2574C" d="M24.832 2.682L26.828.068h4.368l-1.997 2.614h-4.367zm-16.222 0L10.607.068h4.367l-1.997 2.614H8.61z"/>
    </g>
</svg>
