<svg xmlns="http://www.w3.org/2000/svg" width="24" height="20" viewBox="0 0 24 20">
    <path fill="#FFF" fill-rule="nonzero" d="M23.675.223a.951.951 0 0 0-.749-.213L2.404 2.96a2.831 2.831 0 0 0-1.72.925A2.72 2.72 0 0 0 0 5.685v5.147c0 .66.243 1.3.684 1.8.441.5 1.052.827 1.72.923l3.174.457v4.266c0 .455.342.842.802.908l5.625.804c.27.039.543-.039.749-.213a.91.91 0 0 0 .324-.695V15.09l9.848 1.416c.27.04.544-.04.75-.213a.91.91 0 0 0 .324-.695V.918a.91.91 0 0 0-.325-.695zM11.25 17.778l-3.75-.532v-3.172l3.75.534v3.17zM18 13.333l-15.707-2.2c-.452-.064-.793-.44-.793-.875v-4.96c0-.435.34-.812.792-.875L18 2.223v11.11zm4.5.741l-1.5-.243V1.725l1.5-.244v12.593z"/>
</svg>
