<svg xmlns="http://www.w3.org/2000/svg" width="24" height="30" viewBox="0 0 24 30">
    <path fill="#FFF" fill-rule="nonzero" d="M21.857 0H1.5C.6 0 0 .6 0 1.5v27c0 .9.6 1.5 1.5 1.5h21c.9 0 1.5-.6 1.5-1.5V2.143C24 .959 23.04 0 21.857 0zM7.5 3c1.65 0 3 1.35 3 3s-1.35 3-3 3-3-1.35-3-3 1.35-3 3-3zM3 12.9c0-3.15 9-3.15 9 0V15H3v-2.1zM16.5 27h-12c-.9 0-1.5-.6-1.5-1.5S3.6 24 4.5 24h12c.9 0 1.5.6 1.5 1.5s-.75 1.5-1.5 1.5zm2.667-20h-4a1.5 1.5 0 0 1 0-3h4a1.5 1.5 0 0 1 0 3zm1.666 6.667h-5.666a1.5 1.5 0 0 1 0-3h5.666a1.5 1.5 0 0 1 0 3zM19.5 21h-15c-.9 0-1.5-.6-1.5-1.5S3.6 18 4.5 18h15c.9 0 1.5.6 1.5 1.5s-.75 1.5-1.5 1.5z"/>
</svg>
