<svg xmlns="http://www.w3.org/2000/svg" width="24" height="21" viewBox="0 0 24 21">
    <path fill="#FFF" fill-rule="nonzero" d="M22.3 1.695C21.164.565 19.597 0 17.597 0c-.553 0-1.118.098-1.694.294a6.788 6.788 0 0 0-1.607.793 17.16 17.16 0 0 0-1.28.936c-.356.292-.696.602-1.017.93-.321-.328-.66-.638-1.018-.93a17.204 17.204 0 0 0-1.279-.936A6.798 6.798 0 0 0 8.096.294 5.244 5.244 0 0 0 6.402 0c-2 0-3.567.565-4.701 1.695C.567 2.825 0 4.393 0 6.398c0 .611.105 1.24.315 1.887.21.647.449 1.199.716 1.654.268.456.572.9.911 1.333.34.433.587.732.743.896.157.164.28.282.369.355l8.357 8.23c.16.165.357.247.589.247a.794.794 0 0 0 .59-.246l8.343-8.203C22.978 10.464 24 8.413 24 6.398c0-2.005-.567-3.572-1.7-4.703z"/>
</svg>
