<svg xmlns="http://www.w3.org/2000/svg" width="25" height="26" viewBox="0 0 25 26">
    <g fill="#FFF" fill-rule="nonzero">
        <path stroke="#FFF" stroke-width=".857" d="M17.42 23.372H2.602V2.58h14.816v5.154L19 6.154V1.79a.79.79 0 0 0-.79-.79H1.813a.79.79 0 0 0-.79.79v22.372c0 .436.354.79.79.79h16.396a.79.79 0 0 0 .79-.79v-8.69l-1.58 1.579v6.321z"/>
        <path stroke="#FFF" stroke-width=".857" d="M15.09 4.474H4.932a.604.604 0 0 0 0 1.207h10.16a.604.604 0 0 0 0-1.207zM15.694 8.296a.604.604 0 0 0-.603-.603H4.93a.604.604 0 0 0 0 1.207h10.16c.333 0 .603-.27.603-.604zM14.242 10.912h-9.31a.604.604 0 0 0 0 1.207h8.102l1.208-1.207zM10.866 14.913c.081-.274.198-.536.34-.783H4.931a.604.604 0 0 0 0 1.207h5.808l.127-.424zM4.931 17.35a.604.604 0 0 0 0 1.206h5.302a1.87 1.87 0 0 1-.087-1.207H4.931z"/>
        <path d="M24.24 5.571a1.685 1.685 0 0 0-2.382 0l-8.93 8.93a2.074 2.074 0 0 0-.52.873l-.712 2.385a.286.286 0 0 0 .357.357l2.385-.712c.33-.099.63-.278.873-.521l8.93-8.929a1.685 1.685 0 0 0 0-2.383z"/>
    </g>
</svg>
