<svg xmlns="http://www.w3.org/2000/svg" width="24" height="23" viewBox="0 0 24 23">
    <g fill="#FFF" fill-rule="nonzero">
        <path d="M23.551 10.222L12.804.357a1.216 1.216 0 0 0-1.655 0L.402 10.222a1.236 1.236 0 0 0-.318 1.362c.185.48.634.79 1.146.79h1.716v9.885c0 .391.316.71.705.71h5.89a.707.707 0 0 0 .705-.71v-6.002h3.462v6.002c0 .391.315.71.704.71h5.89a.707.707 0 0 0 .705-.71v-9.885h1.717c.511 0 .96-.31 1.145-.79.185-.48.06-1.015-.318-1.362zM20.823 1.448h-4.73l5.434 4.98v-4.27a.707.707 0 0 0-.704-.71z"/>
    </g>
</svg>
