<svg xmlns="http://www.w3.org/2000/svg" width="26" height="26" viewBox="0 0 26 26">
    <g fill="#FFF" fill-rule="nonzero" stroke="#FFF" stroke-width="1.2">
        <path d="M12.96 22.967H3.99a.997.997 0 0 1-.997-.997V4.03c0-.55.447-.997.997-.997h8.97a.996.996 0 1 0 0-1.993H3.99A2.994 2.994 0 0 0 1 4.03v17.94a2.994 2.994 0 0 0 2.99 2.99h8.97a.996.996 0 1 0 0-1.993z"/>
        <path d="M24.703 12.29l-6.06-5.98a.996.996 0 1 0-1.4 1.42l4.331 4.273H9.97a.996.996 0 1 0 0 1.994h11.604l-4.33 4.273a.997.997 0 1 0 1.4 1.42l6.059-5.98a.999.999 0 0 0 0-1.42z"/>
    </g>
</svg>
