<svg xmlns="http://www.w3.org/2000/svg" width="26" height="23" viewBox="0 0 26 23">
    <g fill="#FFF" fill-rule="nonzero">
        <path stroke="#FFF" stroke-width="1.2" d="M23.68 3.082h-9.03a.747.747 0 0 1-.494-.187L12.5 1.436A1.742 1.742 0 0 0 11.35 1H5.415c-.694 0-1.258.576-1.258 1.284V4h-1.9C1.565 4 1 4.576 1 5.284v15.387c0 .708.564 1.284 1.258 1.284h18.265c.694 0 1.258-.576 1.258-1.284v-1.716h1.899c.693 0 1.258-.576 1.258-1.284V4.366c0-.708-.565-1.284-1.258-1.284zm-2.905 17.589a.255.255 0 0 1-.252.257H2.258a.255.255 0 0 1-.252-.257V10.114h18.769V20.67zm0-11.584H2.006V5.284c0-.141.113-.257.252-.257h5.935c.18 0 .356.067.493.187l1.656 1.459c.32.281.728.436 1.15.436h9.031c.139 0 .252.115.252.257v1.72zm3.156 8.584a.255.255 0 0 1-.251.257h-1.9V7.366c0-.708-.563-1.284-1.257-1.284h-9.03a.746.746 0 0 1-.494-.187L9.343 4.437A1.74 1.74 0 0 0 8.193 4h-3.03V2.284c0-.142.113-.257.252-.257h5.935c.18 0 .356.067.493.187l1.656 1.46c.32.28.729.435 1.15.435h9.03c.14 0 .252.116.252.257v13.305z"/>
        <path d="M18.23 12.2h-3.013a.508.508 0 0 0-.503.514c0 .283.226.513.503.513h3.013c.278 0 .504-.23.504-.513a.508.508 0 0 0-.504-.514zM18.23 15.7h-3.013a.508.508 0 0 0-.503.514c0 .283.226.513.503.513h3.013c.278 0 .504-.23.504-.513a.508.508 0 0 0-.504-.514z"/>
    </g>
</svg>
