<svg xmlns="http://www.w3.org/2000/svg" width="26" height="23" viewBox="0 0 26 23">
    <g fill="#FFF" fill-rule="evenodd" stroke="#FFF" transform="translate(1 1)">
        <path fill-rule="nonzero" stroke-width="1.5" d="M23.734 17.319c-.212-1.32-1.188-2.359-2.435-2.584v-2.84c0-1.526-1.404-2.973-2.892-2.973h-5.978V6.26c1.66-.299 2.76-2.008 2.4-3.78C14.509.904 13.089-.17 11.58.024c-1.69.22-2.848 1.886-2.568 3.653.212 1.32 1.183 2.358 2.43 2.584v2.668H5.46c-1.483 0-2.888 1.441-2.888 2.971v2.841c-1.66.299-2.76 2.008-2.4 3.78.32 1.577 1.74 2.651 3.248 2.457 1.69-.22 2.848-1.886 2.567-3.653-.211-1.32-1.182-2.358-2.43-2.584V11.9c0-.954.962-1.924 1.903-1.924h5.983v4.759c-1.66.299-2.76 2.007-2.4 3.779.32 1.578 1.74 2.652 3.248 2.458 1.69-.22 2.848-1.887 2.567-3.653-.212-1.32-1.183-2.359-2.43-2.584v-4.76h5.983c.942 0 1.903.97 1.903 1.924v2.841c-1.696.304-2.81 2.076-2.38 3.879.35 1.488 1.69 2.5 3.129 2.364 1.744-.163 2.957-1.866 2.67-3.664zm-18.693.524c0 1.21-.96 2.18-2.114 2.097-.976-.069-1.764-.912-1.833-1.945-.079-1.226.833-2.254 1.971-2.254 1.09 0 1.971.939 1.976 2.102zm8.876-.005c0 1.158-.887 2.102-1.976 2.102-1.09 0-1.976-.944-1.976-2.102s.882-2.102 1.976-2.102c1.089 0 1.971.944 1.976 2.102zm-1.981-12.58c-1.09 0-1.976-.937-1.976-2.101 0-1.21.96-2.18 2.114-2.097.976.069 1.764.912 1.833 1.945.079 1.226-.833 2.254-1.971 2.254zm8.87 14.682c-1.089 0-1.976-.944-1.976-2.102s.887-2.102 1.977-2.102c1.089 0 1.976.938 1.976 2.102 0 1.163-.887 2.102-1.976 2.102z"/>
        <ellipse cx="20.806" cy="17.818" stroke-width="1.112" rx="2.413" ry="2.626"/>
        <ellipse cx="3.066" cy="17.818" stroke-width="1.112" rx="2.413" ry="2.626"/>
        <ellipse cx="11.948" cy="17.818" stroke-width="1.112" rx="2.413" ry="2.626"/>
        <ellipse cx="11.948" cy="3.182" stroke-width="1.112" rx="2.413" ry="2.626"/>
    </g>
</svg>
