<svg xmlns="http://www.w3.org/2000/svg" width="24" height="24" viewBox="0 0 24 24">
    <path fill="#FFF" fill-rule="nonzero" d="M23.467 9.912l-2.753-.677a9.087 9.087 0 0 0-.635-1.512l1.282-2.136a.703.703 0 0 0-.106-.86L19.267 2.74a.701.701 0 0 0-.86-.106l-2.139 1.282a9.058 9.058 0 0 0-1.503-.63L14.088.534A.703.703 0 0 0 13.406 0h-2.812a.702.702 0 0 0-.682.533s-.47 1.921-.676 2.752a9.027 9.027 0 0 0-1.596.68L5.42 2.633a.705.705 0 0 0-.859.106L2.574 4.728a.703.703 0 0 0-.106.859L3.84 7.878a9.06 9.06 0 0 0-.554 1.355l-2.753.679a.703.703 0 0 0-.533.682v2.812c0 .323.22.605.533.682l2.753.677a9.07 9.07 0 0 0 .647 1.538l-1.227 2.046a.703.703 0 0 0 .105.859L4.8 21.196c.227.228.581.27.859.106 0 0 1.377-.825 2.05-1.23.49.261 1 .476 1.527.643l.676 2.752c.077.313.359.533.682.533h2.812c.323 0 .604-.22.682-.533l.676-2.752a8.931 8.931 0 0 0 1.56-.663l2.084 1.25a.703.703 0 0 0 .859-.106l1.988-1.988a.703.703 0 0 0 .106-.86l-1.264-2.105c.25-.473.456-.968.617-1.478l2.753-.677a.703.703 0 0 0 .533-.682v-2.812a.703.703 0 0 0-.533-.682zM12 16.922A4.928 4.928 0 0 1 7.078 12 4.928 4.928 0 0 1 12 7.078 4.928 4.928 0 0 1 16.922 12 4.928 4.928 0 0 1 12 16.922z"/>
</svg>
