<svg xmlns="http://www.w3.org/2000/svg" width="26" height="26" viewBox="0 0 26 26">
    <g fill="#FFF" fill-rule="nonzero" stroke="#FFF" stroke-width="1.714">
        <path d="M21.267 23.11H2.842V4.686h13.59l1.15-1.843H2.842A1.843 1.843 0 0 0 1 4.686V23.11c0 1.017.825 1.843 1.842 1.843h18.425a1.843 1.843 0 0 0 1.843-1.843V10.944l-1.843 2.954v9.212z"/>
        <path d="M24.37 1.21a1.291 1.291 0 0 0-1.785.374l-10.016 14.45-3.875-4.423a1.29 1.29 0 1 0-1.752 1.893l4.658 5.315.112.13.118.134.048.03.097.097.253.116.057.027.396.069.017-.004c.35.002.698-.127.954-.405l.105-.17.006-.007 10.98-15.842a1.29 1.29 0 0 0-.373-1.783z"/>
    </g>
</svg>
