<svg xmlns="http://www.w3.org/2000/svg" width="26" height="22" viewBox="0 0 26 22">
    <path fill="#0070D2" fill-rule="nonzero" d="M25.648.246a1.02 1.02 0 0 0-.811-.235L2.604 3.257A3.054 3.054 0 0 0 .741 4.273 3.018 3.018 0 0 0 0 6.253v5.662c0 .727.263 1.43.741 1.98s1.14.91 1.863 1.016l3.439.502v4.693c0 .5.37.926.869.998l6.093.885a1.02 1.02 0 0 0 .812-.235c.223-.191.351-.47.351-.763v-4.392l10.669 1.558a1.02 1.02 0 0 0 .811-.235c.224-.192.352-.47.352-.764V1.01c0-.293-.128-.572-.352-.763zM12.133 20.24L7.8 19.609V15.84l4.333.634v3.766zm7.8-5.28L2.608 12.52c-.499-.07-.875-.488-.875-.97v-5.5c0-.482.376-.9.874-.97l17.326-2.44v12.32zm4.334.88l-1.734-.272V2.032l1.734-.272v14.08z"/>
</svg>
