<?xml version="1.0" encoding="UTF-8"?>
<svg width="43px" height="36px" viewBox="0 0 43 36" version="1.1" xmlns="http://www.w3.org/2000/svg" xmlns:xlink="http://www.w3.org/1999/xlink">
    <!-- Generator: Sketch 50.2 (55047) - http://www.bohemiancoding.com/sketch -->
    <title>Group 4</title>
    <desc>Created with Sketch.</desc>
    <defs></defs>
    <g id="Page-1" stroke="none" stroke-width="1" fill="none" fill-rule="evenodd">
        <g id="[VD]-PTF---Left-Nav-(Desktop)" transform="translate(-1223.000000, -208.000000)" fill="#FFFFFF" fill-rule="nonzero">
            <g id="Group-4" transform="translate(1223.000000, 208.000000)">
                <path d="M41.7751515,0.402545455 C41.4107945,0.0886902924 40.9291381,-0.0515263554 40.4542045,0.018 L4.24136364,5.32963636 C3.06459915,5.50161396 1.98809172,6.09142538 1.20693182,6.99218182 C0.428945012,7.89066183 0.000316872151,9.04131106 0,10.2321818 L0,19.4972727 C0,20.6869091 0.428371212,21.8372727 1.20693182,22.7372727 C1.98549242,23.6372727 3.06375,24.2263636 4.24136364,24.3998182 L9.84276515,25.2212727 L9.84276515,32.9007273 C9.84276515,33.7189091 10.4454167,34.416 11.2581818,34.5338182 L21.1823864,35.982 C21.6578547,36.0520177 22.1402085,35.9117709 22.5049621,35.5974545 C22.8681818,35.2849091 23.0766667,34.8283636 23.0766667,34.3489091 L23.0766667,27.162 L40.4542045,29.7114545 C40.9291381,29.7809809 41.4107945,29.6407643 41.7751515,29.3269091 C42.14,29.0127273 42.3484848,28.5578182 42.3484848,28.0767273 L42.3484848,1.65272727 C42.3484848,1.17327273 42.14,0.716727273 41.7751515,0.404181818 L41.7751515,0.402545455 Z M19.7620833,33.12 L12.7045455,32.0874545 L12.7045455,25.92 L19.7620833,26.9574545 L19.7620833,33.12 Z M32.4666288,24.48 L4.24787879,20.4872727 C3.43511364,20.3727273 2.82268939,19.6887273 2.82268939,18.9 L2.82268939,9.9 C2.82268939,9.11127273 3.43511364,8.42727273 4.24625,8.31272727 L32.4666288,4.32 L32.4666288,24.48 Z M39.5257955,25.92 L36.7014773,25.4749091 L36.7014773,3.32509091 L39.5257955,2.88 L39.5257955,25.92 Z" id="Shape"></path>
            </g>
        </g>
    </g>
</svg>