<svg xmlns="http://www.w3.org/2000/svg" width="20" height="25" viewBox="0 0 20 25">
    <g fill="#0070D2" fill-rule="nonzero">
        <path d="M19.678 6.599c-.004-.044-.034-.172-.034-.172s.005.012 0 0c-.026-.056-.033-.065-.039-.075a.645.645 0 0 0-.058-.073L13.404.135a.811.811 0 0 0-.07-.057.703.703 0 0 0-.08-.043.649.649 0 0 0-.085-.026c-.053-.008-.062-.008-.07-.008H2.074A1.997 1.997 0 0 0 .069 2v20.948a2 2 0 0 0 2.007 2H17.67a2.01 2.01 0 0 0 2.007-2.001V6.599c-.004-.057 0 0 0 0zm-1.572-.46H14.53a.998.998 0 0 1-.99-.99l-.001-3.577 4.567 4.567zM2.994 24.028a1.997 1.997 0 0 1-2.004-1.99V2.91c0-1.1.893-1.99 1.999-1.99h9.629v4.145c0 1.101.893 1.993 1.993 1.993h4.146v16.969H2.994z"/>
        <path d="M6.798 6.444A1.917 1.917 0 0 0 8.713 4.53a1.917 1.917 0 0 0-1.915-1.915A1.917 1.917 0 0 0 4.884 4.53c0 1.055.859 1.914 1.914 1.914zm0-2.908a.995.995 0 0 1 0 1.988.995.995 0 0 1 0-1.988zM4.66 9.939a.46.46 0 0 0 .46-.46V8.67c0-.522.425-.947.947-.947h1.475c.522 0 .947.425.947.947v.807a.46.46 0 1 0 .92 0v-.807a1.87 1.87 0 0 0-1.867-1.867H6.067A1.87 1.87 0 0 0 4.199 8.67v.807c0 .255.206.46.46.46zM4.2 13.188c0 .254.205.46.46.46h10.428a.46.46 0 1 0 0-.92H4.659a.46.46 0 0 0-.46.46zM15.088 19.54H4.659a.46.46 0 0 0 0 .92h10.429a.46.46 0 1 0 0-.92zM15.088 16.134H4.659a.46.46 0 0 0 0 .92h10.429a.46.46 0 1 0 0-.92z"/>
    </g>
</svg>
