<?xml version="1.0" encoding="UTF-8"?>
<svg width="29px" height="36px" viewBox="0 0 29 36" version="1.1" xmlns="http://www.w3.org/2000/svg" xmlns:xlink="http://www.w3.org/1999/xlink">
    <!-- Generator: Sketch 50.2 (55047) - http://www.bohemiancoding.com/sketch -->
    <title>Group 5</title>
    <desc>Created with Sketch.</desc>
    <defs></defs>
    <g id="Page-1" stroke="none" stroke-width="1" fill="none" fill-rule="evenodd">
        <g id="[VD]-PTF---Left-Nav-(Desktop)" transform="translate(-1230.000000, -260.000000)" fill="#FFFFFF" fill-rule="nonzero">
            <g id="Group-5" transform="translate(1230.000000, 260.000000)">
                <path d="M28.5331,9.50256 C28.5273,9.4392 28.4838,9.25488 28.4838,9.25488 C28.4838,9.25488 28.49105,9.27216 28.4838,9.25488 C28.4461,9.17424 28.43595,9.16128 28.42725,9.14688 C28.4018069,9.10987108 28.3737001,9.07473932 28.34315,9.04176 L19.4358,0.1944 C19.4035274,0.165189773 19.3696416,0.137787335 19.3343,0.11232 C19.2970177,0.0892184419 19.2582702,0.0685352882 19.2183,0.0504 C19.1781265,0.0351373818 19.1369466,0.0226280501 19.09505,0.01296 C19.0182,0.00144 19.00515,0.00144 18.99355,0.00144 L3.0073,0.00144 C2.23681517,-0.00162569701 1.49687052,0.300388647 0.951235301,0.840639305 C0.405600079,1.38088996 0.0992721675,2.11482311 0.10005,2.88 L0.10005,33.04512 C0.100045278,33.8106932 0.406973026,34.5447642 0.953025756,35.0851596 C1.49907849,35.6255551 2.23931507,35.9277995 3.0102,35.92512 L25.6215,35.92512 C27.2243538,35.9227601 28.5244748,34.6354655 28.53165,33.04368 L28.53165,9.50256 C28.52585,9.42048 28.53165,9.50256 28.53165,9.50256 L28.5331,9.50256 Z M26.2537,8.84016 L21.0685,8.84016 C20.2783233,8.83389441 19.6393091,8.1992872 19.633,7.41456 L19.63155,2.26368 L26.2537,8.84016 Z M4.3413,34.60032 C3.57332444,34.6029981 2.83573243,34.3025909 2.29078819,33.7651857 C1.74584396,33.2277804 1.43818723,32.4973992 1.4355,31.73472 L1.4355,4.1904 C1.4355,2.6064 2.73035,1.3248 4.33405,1.3248 L18.2961,1.3248 L18.2961,7.2936 C18.2961,8.87904 19.59095,10.16352 21.18595,10.16352 L27.19765,10.16352 L27.19765,34.59888 L4.3413,34.59888 L4.3413,34.60032 Z" id="Shape"></path>
                <path d="M9.8571,9.27936 C11.3894289,9.27777421 12.6314528,8.04496003 12.63385,6.5232 C12.6322516,5.00087758 11.3899941,3.76718741 9.8571,3.7656 C8.32477219,3.76798065 7.0833968,5.00143893 7.0818,6.5232 C7.0818,8.0424 8.32735,9.27936 9.8571,9.27936 Z M9.8571,5.09184 C10.6279863,5.12618914 11.2351826,5.75685993 11.2351826,6.5232 C11.2351826,7.28954007 10.6279863,7.92021086 9.8571,7.95456 C9.08621367,7.92021086 8.4790174,7.28954007 8.4790174,6.5232 C8.4790174,5.75685993 9.08621367,5.12618914 9.8571,5.09184 Z M6.757,14.31216 C7.12537393,14.31216 7.424,14.0155934 7.424,13.64976 L7.424,12.4848 C7.424,11.73312 8.04025,11.12112 8.79715,11.12112 L10.9359,11.12112 C11.6928,11.12112 12.30905,11.73312 12.30905,12.4848 L12.30905,13.64688 C12.30905,14.0127134 12.6076761,14.30928 12.97605,14.30928 C13.3444239,14.30928 13.64305,14.0127134 13.64305,13.64688 L13.64305,12.4848 C13.6406549,11.0009798 12.4300245,9.79869856 10.9359,9.79632 L8.79715,9.79632 C7.30245931,9.79790567 6.09094705,11.0004186 6.08855,12.4848 L6.08855,13.64688 C6.08855,14.01408 6.38725,14.30928 6.75555,14.30928 L6.757,14.31216 Z M6.09,18.99072 C6.09,19.35648 6.38725,19.65312 6.757,19.65312 L21.8776,19.65312 C22.2459739,19.65312 22.5446,19.3565534 22.5446,18.99072 C22.5446,18.6248866 22.2459739,18.32832 21.8776,18.32832 L6.75555,18.32832 C6.38717607,18.32832 6.08855,18.6248866 6.08855,18.99072 L6.09,18.99072 Z M21.8776,28.1376 L6.75555,28.1376 C6.38717607,28.1376 6.08855,28.4341666 6.08855,28.8 C6.08855,29.1658334 6.38717607,29.4624 6.75555,29.4624 L21.8776,29.4624 C22.2459739,29.4624 22.5446,29.1658334 22.5446,28.8 C22.5446,28.4341666 22.2459739,28.1376 21.8776,28.1376 Z M21.8776,23.23296 L6.75555,23.23296 C6.38717607,23.23296 6.08855,23.5295266 6.08855,23.89536 C6.08855,24.2611934 6.38717607,24.55776 6.75555,24.55776 L21.8776,24.55776 C22.2459739,24.55776 22.5446,24.2611934 22.5446,23.89536 C22.5446,23.5295266 22.2459739,23.23296 21.8776,23.23296 Z" id="Shape"></path>
            </g>
        </g>
    </g>
</svg>