<svg xmlns="http://www.w3.org/2000/svg" width="28" height="25" viewBox="0 0 28 25">
    <g fill="#0070D2" fill-rule="nonzero">
        <path d="M14.016 7.825v5.826l5.013 2.975a.964.964 0 0 0 .983-1.658l-3.948-2.341V7.825a1 1 0 0 0-1-1h-.048a1 1 0 0 0-1 1z"/>
        <path d="M15.374 0C8.583 0 3.095 5.501 3.095 12.286H1.383a1 1 0 0 0-.714 1.7l3.036 3.094a1 1 0 0 0 1.421.006l3.09-3.094a1 1 0 0 0-.707-1.706H5.825c0-5.276 4.28-9.556 9.556-9.556 5.276 0 9.555 4.28 9.555 9.556 0 5.276-4.279 9.555-9.555 9.555-1.615 0-3.642-.786-6.08-2.36a1 1 0 0 0-1.249.134l-.486.486a1 1 0 0 0 .17 1.55c3.056 1.947 5.603 2.92 7.638 2.92 6.791 0 12.293-5.5 12.293-12.285S22.165 0 15.374 0z"/>
    </g>
</svg>
