<?xml version="1.0" encoding="UTF-8"?>
<svg width="41px" height="36px" viewBox="0 0 41 36" version="1.1" xmlns="http://www.w3.org/2000/svg" xmlns:xlink="http://www.w3.org/1999/xlink">
    <!-- Generator: Sketch 50.2 (55047) - http://www.bohemiancoding.com/sketch -->
    <title>Group 8</title>
    <desc>Created with Sketch.</desc>
    <defs></defs>
    <g id="Page-1" stroke="none" stroke-width="1" fill="none" fill-rule="evenodd">
        <g id="[VD]-PTF---Left-Nav-(Desktop)" transform="translate(-1224.000000, -312.000000)" fill="#FFFFFF" fill-rule="nonzero">
            <g id="Group-8" transform="translate(1224.000000, 312.000000)">
                <path d="M20.4322133,11.268 L20.4322133,19.65744 L27.7400533,23.94144 C28.4056322,24.3112507 29.2483626,24.0883509 29.6378116,23.4394884 C30.0272605,22.7906259 29.820875,21.9533085 29.1730489,21.55392 L23.4177422,18.18288 L23.4177422,11.268 C23.4177422,10.47271 22.7650729,9.828 21.9599644,9.828 L21.8899911,9.828 C21.0848827,9.828 20.4322133,10.47271 20.4322133,11.268 Z" id="Shape"></path>
                <path d="M22.4118756,0 C12.5121067,0 4.51182222,7.92144 4.51182222,17.69184 L2.01610667,17.69184 C1.42918084,17.6919228 0.899546609,18.0396893 0.67226986,18.5742252 C0.444993111,19.1087611 0.564405244,19.7258027 0.975253333,20.13984 L5.40106667,24.5952 C5.67367624,24.8693992 6.04593561,25.0245787 6.43499393,25.0262014 C6.82405224,25.0278242 7.19762495,24.8757554 7.47256889,24.60384 L11.9771022,20.14848 C12.392852,19.7365145 12.5168511,19.1179211 12.2914007,18.5805408 C12.0659503,18.0431604 11.535333,17.6925445 10.9464533,17.69184 L8.49155556,17.69184 C8.49155556,10.0944 14.7308444,3.9312 22.42208,3.9312 C30.1133156,3.9312 36.3511467,10.0944 36.3511467,17.69184 C36.3511467,25.28928 30.1133156,31.45104 22.42208,31.45104 C20.0677689,31.45104 17.1128533,30.3192 13.5587911,28.05264 C12.9815938,27.6854052 12.2232245,27.7657753 11.7380267,28.2456 L11.0295467,28.94544 C10.7172785,29.2542312 10.5636437,29.6862605 10.6118159,30.1201214 C10.6599881,30.5539824 10.904768,30.9428474 11.2773689,31.17744 C15.7323378,33.98112 19.4452978,35.38224 22.4118756,35.38224 C32.3116444,35.38224 40.3323378,27.46224 40.3323378,17.69184 C40.3323378,7.92144 32.3116444,0 22.4118756,0 Z" id="Shape"></path>
            </g>
        </g>
    </g>
</svg>