<svg xmlns="http://www.w3.org/2000/svg" xmlns:xlink="http://www.w3.org/1999/xlink" width="25" height="20" viewBox="0 0 25 20">
    <defs>
        <circle id="a" cx="21.739" cy="16.97" r="3.03"/>
        <circle id="b" cx="3.63" cy="16.97" r="3.03"/>
        <circle id="c" cx="12.697" cy="16.97" r="3.03"/>
        <circle id="d" cx="12.697" cy="3.03" r="3.03"/>
    </defs>
    <g fill="none" fill-rule="evenodd">
        <path fill="#00437D" fill-rule="nonzero" d="M24.728 16.494a3.025 3.025 0 0 0-2.485-2.46v-2.706c0-1.453-1.434-2.83-2.953-2.83h-6.102V5.962a3 3 0 0 0 2.45-3.6C15.31.86 13.862-.162 12.322.023c-1.725.21-2.908 1.797-2.62 3.479a3.02 3.02 0 0 0 2.48 2.46v2.541H6.073c-1.514 0-2.948 1.373-2.948 2.83v2.706a3 3 0 0 0-2.45 3.6c.327 1.502 1.776 2.525 3.315 2.34 1.726-.21 2.908-1.797 2.621-3.479a3.02 3.02 0 0 0-2.48-2.46v-2.706c0-.909.981-1.832 1.942-1.832h6.107v4.532a3 3 0 0 0-2.45 3.6c.327 1.502 1.776 2.525 3.316 2.34 1.725-.21 2.907-1.797 2.62-3.479a3.02 3.02 0 0 0-2.48-2.46V9.5h6.108c.96 0 1.942.923 1.942 1.832v2.705c-1.73.29-2.868 1.977-2.43 3.694.357 1.418 1.725 2.381 3.194 2.251 1.782-.154 3.02-1.777 2.727-3.489zm-19.082.5a2.01 2.01 0 0 1-2.158 1.996 2.017 2.017 0 0 1-1.871-1.852 2.012 2.012 0 0 1 2.012-2.146c1.112 0 2.012.893 2.017 2.001zm9.06-.006a2.013 2.013 0 0 1-2.016 2.002 2.013 2.013 0 0 1-2.018-2.002c0-1.103.9-2.001 2.018-2.001 1.111 0 2.012.898 2.017 2.001zm-2.022-11.98a2.01 2.01 0 0 1-2.017-2.001 2.01 2.01 0 0 1 2.158-1.997 2.017 2.017 0 0 1 1.872 1.852 2.012 2.012 0 0 1-2.013 2.146zM21.74 18.99a2.013 2.013 0 0 1-2.017-2.002c0-1.103.905-2.001 2.017-2.001a2.01 2.01 0 0 1 2.017 2.001 2.01 2.01 0 0 1-2.017 2.002z"/>
        <g>
            <use fill="#00437D" xlink:href="#a"/>
            <circle cx="21.739" cy="16.97" r="2.13" stroke="#00437D" stroke-width="1.8"/>
        </g>
        <g>
            <use fill="#00437D" xlink:href="#b"/>
            <circle cx="3.63" cy="16.97" r="2.13" stroke="#00437D" stroke-width="1.8"/>
        </g>
        <g>
            <use fill="#00437D" xlink:href="#c"/>
            <circle cx="12.697" cy="16.97" r="2.13" stroke="#00437D" stroke-width="1.8"/>
        </g>
        <g>
            <use fill="#00437D" xlink:href="#d"/>
            <circle cx="12.697" cy="3.03" r="2.13" stroke="#00437D" stroke-width="1.8"/>
        </g>
    </g>
</svg>
