<svg xmlns="http://www.w3.org/2000/svg" width="26" height="26" viewBox="0 0 26 26">
    <g fill="#0070D2" fill-rule="nonzero" stroke="#0070D2">
        <path d="M18.4 11.888l-6.795-4.563a.958.958 0 0 0-.531-.171c-.48 0-.843.401-.843.933v9.21c0 .533.362.934.843.934.18 0 .364-.06.531-.172l6.796-4.563a.964.964 0 0 0 .445-.804.963.963 0 0 0-.445-.804zm-6.864 4.617V8.88l5.68 3.813-5.68 3.813z"/>
        <path d="M13 1C6.383 1 1 6.383 1 13s5.383 12 12 12 12-5.383 12-12S19.617 1 13 1zm0 22.644C7.131 23.644 2.356 18.869 2.356 13S7.131 2.356 13 2.356 23.644 7.131 23.644 13 18.869 23.644 13 23.644z"/>
    </g>
</svg>
