<?xml version="1.0" encoding="UTF-8"?>
<svg width="38px" height="38px" viewBox="0 0 38 38" version="1.1" xmlns="http://www.w3.org/2000/svg" xmlns:xlink="http://www.w3.org/1999/xlink">
    <!-- Generator: Sketch 50.2 (55047) - http://www.bohemiancoding.com/sketch -->
    <title>Group 15</title>
    <desc>Created with Sketch.</desc>
    <defs></defs>
    <g id="Page-1" stroke="none" stroke-width="1" fill="none" fill-rule="evenodd">
        <g id="[VD]-PTF---Left-Nav-(Desktop)" transform="translate(-1225.000000, -623.000000)" fill="#FFFFFF" fill-rule="nonzero" stroke="#FFFFFF">
            <g id="Group-15" transform="translate(1226.000000, 624.000000)">
                <path d="M26.1,16.332 L15.9075,9.4875 C15.6733237,9.32487961 15.3960664,9.23559336 15.111,9.231 C14.391,9.231 13.8465,9.8325 13.8465,10.6305 L13.8465,24.4455 C13.8465,25.245 14.3895,25.8465 15.111,25.8465 C15.381,25.8465 15.657,25.7565 15.9075,25.5885 L26.1015,18.744 C26.5136159,18.480735 26.7647453,18.027009 26.769,17.538 C26.7650201,17.0489188 26.513823,16.5950705 26.1015,16.332 L26.1,16.332 Z M15.804,23.2575 L15.804,11.82 L24.324,17.5395 L15.804,23.259 L15.804,23.2575 Z" id="Shape"></path>
                <path d="M18,0 C8.0745,0 0,8.0745 0,18 C0,27.9255 8.0745,36 18,36 C27.9255,36 36,27.9255 36,18 C36,8.0745 27.9255,0 18,0 Z M18,33.966 C9.1965,33.966 2.034,26.8035 2.034,18 C2.034,9.1965 9.1965,2.034 18,2.034 C26.8035,2.034 33.966,9.1965 33.966,18 C33.966,26.8035 26.8035,33.966 18,33.966 Z" id="Shape"></path>
            </g>
        </g>
    </g>
</svg>