<svg xmlns="http://www.w3.org/2000/svg" width="36" height="27" viewBox="0 0 36 27">
    <g fill="#00437D" fill-rule="nonzero">
        <path d="M4.5 18A4.505 4.505 0 0 0 0 22.5C0 24.981 2.019 27 4.5 27S9 24.981 9 22.5 6.981 18 4.5 18zm0 6.75c-1.24 0-2.25-1.01-2.25-2.25s1.01-2.25 2.25-2.25 2.25 1.01 2.25 2.25-1.01 2.25-2.25 2.25zM12.5 4A4.505 4.505 0 0 0 8 8.5c0 2.481 2.019 4.5 4.5 4.5S17 10.981 17 8.5 14.981 4 12.5 4zm0 6.75c-1.24 0-2.25-1.01-2.25-2.25s1.01-2.25 2.25-2.25 2.25 1.01 2.25 2.25-1.01 2.25-2.25 2.25zM23.5 16a4.505 4.505 0 0 0-4.5 4.5c0 2.481 2.019 4.5 4.5 4.5s4.5-2.019 4.5-4.5-2.019-4.5-4.5-4.5zm0 6.75c-1.24 0-2.25-1.01-2.25-2.25s1.01-2.25 2.25-2.25 2.25 1.01 2.25 2.25-1.01 2.25-2.25 2.25zM31.5 0A4.505 4.505 0 0 0 27 4.5C27 6.981 29.019 9 31.5 9S36 6.981 36 4.5 33.981 0 31.5 0zm0 6.75c-1.24 0-2.25-1.01-2.25-2.25s1.01-2.25 2.25-2.25 2.25 1.01 2.25 2.25-1.01 2.25-2.25 2.25z"/>
        <path d="M4.95 17.774l4.437-6.657 1.664 1.11-4.438 6.656zM13.903 12.387l1.28-1.536 6.914 5.762-1.28 1.536zM23.78 15.954l4.672-8.842 1.768.934-4.672 8.842z"/>
    </g>
</svg>
