<?xml version="1.0" encoding="UTF-8"?>
<svg width="49px" height="36px" viewBox="0 0 49 36" version="1.1" xmlns="http://www.w3.org/2000/svg" xmlns:xlink="http://www.w3.org/1999/xlink">
    <!-- Generator: Sketch 50.2 (55047) - http://www.bohemiancoding.com/sketch -->
    <title>Group 10</title>
    <desc>Created with Sketch.</desc>
    <defs></defs>
    <g id="Page-1" stroke="none" stroke-width="1" fill="none" fill-rule="evenodd">
        <g id="[VD]-PTF---Left-Nav-(Desktop)" transform="translate(-1220.000000, -364.000000)" fill="#FFFFFF" fill-rule="nonzero">
            <g id="Group-10" transform="translate(1220.000000, 364.000000)">
                <path d="M6.04938272,24 C2.70993648,24.0036741 0.00370432536,26.6878146 0,30 C0,33.308 2.71415638,36 6.04938272,36 C9.38460905,36 12.0987654,33.308 12.0987654,30 C12.0987654,26.692 9.38460905,24 6.04938272,24 Z M6.04938272,33 C4.3824417,33 3.02469136,31.6533333 3.02469136,30 C3.02469136,28.3466667 4.3824417,27 6.04938272,27 C7.71632373,27 9.07407407,28.3466667 9.07407407,30 C9.07407407,31.6533333 7.71632373,33 6.04938272,33 Z M16.8038409,5.33333333 C13.4643946,5.33700742 10.7581625,8.02114788 10.7544582,11.3333333 C10.7544582,14.6413333 13.4686145,17.3333333 16.8038409,17.3333333 C20.1390672,17.3333333 22.8532236,14.6413333 22.8532236,11.3333333 C22.8532236,8.02533333 20.1390672,5.33333333 16.8038409,5.33333333 Z M16.8038409,14.3333333 C15.1368999,14.3333333 13.7791495,12.9866667 13.7791495,11.3333333 C13.7791495,9.68 15.1368999,8.33333333 16.8038409,8.33333333 C18.4707819,8.33333333 19.8285322,9.68 19.8285322,11.3333333 C19.8285322,12.9866667 18.4707819,14.3333333 16.8038409,14.3333333 Z M31.5912209,21.3333333 C28.2517746,21.3370074 25.5455425,24.0211479 25.5418381,27.3333333 C25.5418381,30.6413333 28.2559945,33.3333333 31.5912209,33.3333333 C34.9264472,33.3333333 37.6406036,30.6413333 37.6406036,27.3333333 C37.6406036,24.0253333 34.9264472,21.3333333 31.5912209,21.3333333 Z M31.5912209,30.3333333 C29.9242798,30.3333333 28.5665295,28.9866667 28.5665295,27.3333333 C28.5665295,25.68 29.9242798,24.3333333 31.5912209,24.3333333 C33.2581619,24.3333333 34.6159122,25.68 34.6159122,27.3333333 C34.6159122,28.9866667 33.2581619,30.3333333 31.5912209,30.3333333 Z M42.345679,0 C39.0062328,0.00367408597 36.3000006,2.68781455 36.2962963,6 C36.2962963,9.308 39.0104527,12 42.345679,12 C45.6809053,12 48.3950617,9.308 48.3950617,6 C48.3950617,2.692 45.6809053,0 42.345679,0 Z M42.345679,9 C40.678738,9 39.3209877,7.65333333 39.3209877,6 C39.3209877,4.34666667 40.678738,3 42.345679,3 C44.01262,3 45.3703704,4.34666667 45.3703704,6 C45.3703704,7.65333333 44.01262,9 42.345679,9 Z" id="Shape"></path>
                <path d="M6.65432099,23.6986667 L12.6190123,14.8226667 L14.8559396,16.3026667 L8.88990398,25.1773333 L6.65432099,23.6986667 Z M18.689904,16.516 L20.4106173,14.468 L29.7051578,22.1506667 L27.9844444,24.1986667 L18.689904,16.516 Z M31.9676269,21.272 L38.2482305,9.48266667 L40.6249657,10.728 L34.3443621,22.5173333 L31.9676269,21.272 Z" id="Shape"></path>
            </g>
        </g>
    </g>
</svg>