<svg xmlns="http://www.w3.org/2000/svg" width="30" height="27" viewBox="0 0 30 27">
    <g fill="#16325C" fill-rule="nonzero" stroke="#16325C">
        <path d="M29.063 11.011L15.644 1.186a.735.735 0 0 0-.869 0L1.356 11.011a.736.736 0 1 0 .87 1.187L15.208 2.69l12.985 9.507a.732.732 0 0 0 1.027-.16.735.735 0 0 0-.158-1.027z"/>
        <path d="M25.507 12.364a.736.736 0 0 0-.736.736v11.707h-5.884v-6.39a3.682 3.682 0 0 0-3.677-3.678 3.682 3.682 0 0 0-3.678 3.678v6.39H5.648V13.1a.736.736 0 0 0-1.471 0v12.443c0 .406.329.736.735.736h7.355a.735.735 0 0 0 .736-.736v-7.126a2.21 2.21 0 0 1 2.207-2.207 2.21 2.21 0 0 1 2.206 2.207v7.126a.735.735 0 0 0 .736.736h7.355c.406 0 .736-.33.736-.736V13.1a.736.736 0 0 0-.736-.736z"/>
    </g>
</svg>
