<svg xmlns="http://www.w3.org/2000/svg" width="26" height="23" viewBox="0 0 26 23">
    <g fill="#0070D2" fill-rule="nonzero" stroke="#0070D2">
        <path d="M24.745 9.47L13.391 1.159a.622.622 0 0 0-.735 0L1.302 9.47a.622.622 0 1 0 .735 1.004l10.986-8.044 10.987 8.044a.62.62 0 0 0 .87-.134.622.622 0 0 0-.135-.87z"/>
        <path d="M21.737 10.616a.622.622 0 0 0-.623.622v9.907h-4.979v-5.408a3.116 3.116 0 0 0-3.112-3.112 3.116 3.116 0 0 0-3.112 3.112v5.408H4.933v-9.907a.622.622 0 0 0-1.245 0v10.53c0 .343.279.622.622.622h6.224a.622.622 0 0 0 .622-.623v-6.03a1.87 1.87 0 0 1 1.867-1.867 1.87 1.87 0 0 1 1.868 1.867v6.03a.622.622 0 0 0 .622.622h6.224a.622.622 0 0 0 .622-.622V11.238a.622.622 0 0 0-.622-.622z"/>
    </g>
</svg>
