<?xml version="1.0" encoding="UTF-8"?>
<svg width="43px" height="38px" viewBox="0 0 43 38" version="1.1" xmlns="http://www.w3.org/2000/svg" xmlns:xlink="http://www.w3.org/1999/xlink">
    <!-- Generator: Sketch 50.2 (55047) - http://www.bohemiancoding.com/sketch -->
    <title>Group 16</title>
    <desc>Created with Sketch.</desc>
    <defs></defs>
    <g id="Page-1" stroke="none" stroke-width="1" fill="none" fill-rule="evenodd">
        <g id="[VD]-PTF---Left-Nav-(Desktop)" transform="translate(-1223.000000, -675.000000)" fill="#FFFFFF" fill-rule="nonzero" stroke="#FFFFFF">
            <g id="Group-16" transform="translate(1224.000000, 676.000000)">
                <path d="M40.2301748,14.2168047 L20.9931469,0.264142012 C20.6223554,-0.00507583766 20.1181691,-0.00507583766 19.7473776,0.264142012 L0.51034965,14.2168047 C0.197569885,14.4342586 0.0279214505,14.8022461 0.0668470696,15.1788143 C0.105772689,15.5553825 0.347188118,15.881672 0.697966163,16.0318152 C1.04874421,16.1819584 1.45405674,16.1324871 1.75755245,15.9024852 L20.3681119,2.4 L38.982972,15.9010651 C39.2082349,16.0654466 39.4904362,16.1339095 39.7668849,16.0912446 C40.0433336,16.0485796 40.2911368,15.8983201 40.4552448,15.6738462 C40.7990402,15.2090907 40.6976568,14.5562805 40.2287413,14.2153846 L40.2301748,14.2168047 Z" id="Shape"></path>
                <path d="M35.1324126,16.1382249 C34.5496942,16.1382249 34.0773077,16.60618 34.0773077,17.183432 L34.0773077,33.8087574 L25.6422028,33.8087574 L25.6422028,24.7342012 C25.639044,21.8513615 23.2811173,19.514919 20.370979,19.5110059 C17.4602809,19.5141366 15.101482,21.8508079 15.0983217,24.7342012 L15.0983217,33.8087574 L6.66321678,33.8087574 L6.66321678,17.183432 C6.64229881,16.6215517 6.17641534,16.1767452 5.60882867,16.1767452 C5.041242,16.1767452 4.57535853,16.6215517 4.55444056,17.183432 L4.55444056,34.8539645 C4.55444056,35.4305325 5.02608392,35.8991716 5.60811189,35.8991716 L16.151993,35.8991716 C16.4319409,35.8995492 16.7005325,35.7895507 16.8984857,35.5934544 C17.0964389,35.3973582 17.207479,35.1312862 17.2070979,34.8539645 L17.2070979,24.7342012 C17.209467,23.0042027 18.624598,21.6023468 20.370979,21.6 C22.1168002,21.6031286 23.5310595,23.0047561 23.5334266,24.7342012 L23.5334266,34.8539645 C23.5330454,35.1312862 23.6440856,35.3973582 23.8420388,35.5934544 C24.039992,35.7895507 24.3085836,35.8995492 24.5885315,35.8991716 L35.1324126,35.8991716 C35.7144406,35.8991716 36.1875175,35.4305325 36.1875175,34.8539645 L36.1875175,17.183432 C36.1875175,16.60618 35.7151309,16.1382249 35.1324126,16.1382249 Z" id="Shape"></path>
            </g>
        </g>
    </g>
</svg>