<svg xmlns="http://www.w3.org/2000/svg" width="29" height="30" viewBox="0 0 29 30">
  <g fill="#0070D2" transform="translate(1 1)">
    <path stroke="#0070D2" stroke-width=".3" d="M19.1556917,26.1011116 L1.86980933,26.1011116 L1.86980933,1.84277485 L19.1556349,1.84277485 L19.1556349,7.85584584 L20.9984097,6.0130142 L20.9984097,0.921387424 C20.9984665,0.412559838 20.5858499,0 20.0770791,0 L0.948421907,0 C0.439537525,0 0.0268640974,0.412559838 0.0268640974,0.921387424 L0.0268640974,27.0226126 C0.0268640974,27.5314402 0.43948073,27.944 0.948421907,27.944 L20.0770791,27.944 C20.5858499,27.944 20.9984665,27.5314402 20.9984665,27.0226126 L20.9984665,16.8833753 L19.1556917,18.7262069 L19.1556917,26.1011116 Z"/>
    <path stroke="#0070D2" stroke-width=".3" d="M16.4391237 4.05284381L4.58626369 4.05284381C4.1976146 4.05284381 3.88223124 4.36822718 3.88223124 4.75698986 3.88223124 5.14569574 4.1976146 5.46107911 4.58626369 5.46107911L16.4390669 5.46107911C16.8278296 5.46107911 17.1431562 5.14569574 17.1431562 4.75698986 17.143213 4.36822718 16.8278296 4.05284381 16.4391237 4.05284381zM17.143213 8.51222718C17.143213 8.1235213 16.8278296 7.80808114 16.4391237 7.80808114L4.58626369 7.80808114C4.1976146 7.80808114 3.88223124 8.1235213 3.88223124 8.51222718 3.88223124 8.90098986 4.1976146 9.21637323 4.58626369 9.21637323L16.4390669 9.21637323C16.8278296 9.21637323 17.143213 8.90104665 17.143213 8.51222718zM15.448503 11.5634888L4.58626369 11.5634888C4.1976146 11.5634888 3.88223124 11.878929 3.88223124 12.2676349 3.88223124 12.6563976 4.1976146 12.9717241 4.58626369 12.9717241L14.040211 12.9717241 15.448503 11.5634888zM11.5098174 16.2314807C11.6051197 15.9124057 11.7413144 15.6066775 11.907213 15.318783L4.58632049 15.318783C4.1976714 15.318783 3.88228803 15.6341663 3.88228803 16.022929 3.88228803 16.4116349 4.1976714 16.7270751 4.58632049 16.7270751L11.3622069 16.7270751 11.5098174 16.2314807zM4.58626369 19.0741907C4.1976146 19.0741907 3.88223124 19.389574 3.88223124 19.7783367 3.88223124 20.1669858 4.1976146 20.482426 4.58626369 20.482426L10.7712535 20.482426C10.5887708 20.0396511 10.541574 19.5504746 10.6704422 19.0741907L4.58626369 19.0741907z"/>
    <path d="M27.1141663,5.33323327 C26.7452252,4.9641217 26.2449736,4.75698986 25.7238215,4.75698986 C25.2026694,4.75698986 24.7025314,4.9641217 24.3339878,5.3327789 L13.9168519,15.7501988 C13.6325923,16.0343448 13.4240974,16.384146 13.3089736,16.769217 L12.478856,19.5518377 C12.4435294,19.6696308 12.4756187,19.7970791 12.5627424,19.8842028 C12.6264665,19.9479838 12.7117728,19.982288 12.7992373,19.982288 C12.830929,19.982288 12.8634158,19.9777444 12.8951075,19.968146 L15.6775578,19.1379148 C16.0627424,19.0228479 16.4125436,18.8142394 16.6966329,18.5300933 L27.1141095,8.11307099 C27.4826531,7.74447059 27.6898986,7.24438945 27.6898986,6.72318053 C27.6898986,6.20185801 27.4827099,5.70177688 27.1141663,5.33323327 Z"/>
  </g>
</svg>
