<?xml version="1.0" encoding="UTF-8"?>
<svg width="37px" height="38px" viewBox="0 0 37 38" version="1.1" xmlns="http://www.w3.org/2000/svg" xmlns:xlink="http://www.w3.org/1999/xlink">
    <!-- Generator: Sketch 50.2 (55047) - http://www.bohemiancoding.com/sketch -->
    <title>Group 17</title>
    <desc>Created with Sketch.</desc>
    <defs></defs>
    <g id="Page-1" stroke="none" stroke-width="1" fill="none" fill-rule="evenodd">
        <g id="[VD]-PTF---Left-Nav-(Desktop)" transform="translate(-1225.000000, -727.000000)" fill="#FFFFFF" fill-rule="nonzero">
            <g id="Group-17" transform="translate(1226.000000, 728.000000)">
                <path d="M24.6291429,33.5584286 L2.40428571,33.5584286 L2.40428571,2.36957143 L24.6291429,2.36957143 L24.6291429,10.1005714 L26.9974286,7.731 L26.9974286,1.18414286 C26.997429,0.530660589 26.4680533,0.000709535578 25.8145714,0 L1.21757143,0 C0.563881127,0.000708607997 0.0341371794,0.530452556 0.0334285714,1.18414286 L0.0334285714,34.7438571 C0.0334285714,35.397 0.563142857,35.928 1.21757143,35.928 L25.8132857,35.928 C26.4667676,35.9272905 26.9961432,35.3973394 26.9961429,34.7438571 L26.9961429,21.7067143 L24.6278571,24.0762857 L24.6278571,33.5584286 L24.6291429,33.5584286 Z" id="Shape" stroke="#FFFFFF" stroke-width="0.3"></path>
                <path d="M21.1371429,5.211 L5.895,5.211 C5.3951034,5.211 4.98985714,5.61624626 4.98985714,6.11614286 C4.98985714,6.61603945 5.3951034,7.02128571 5.895,7.02128571 L21.1371429,7.02128571 C21.6370395,7.02128571 22.0422857,6.61603945 22.0422857,6.11614286 C22.0422857,5.61624626 21.6370395,5.211 21.1371429,5.211 Z M22.041,10.944 C22.041,10.4441034 21.6357537,10.0388571 21.1358571,10.0388571 L5.89628571,10.0388571 C5.39638912,10.0388571 4.99114286,10.4441034 4.99114286,10.944 C4.99114286,11.4438966 5.39638912,11.8491429 5.89628571,11.8491429 L21.1371429,11.8491429 C21.3772017,11.8491429 21.6074283,11.7537799 21.7771755,11.5840327 C21.9469227,11.4142854 22.0422857,11.1840588 22.0422857,10.944 L22.041,10.944 Z M19.863,14.8667143 L5.89628571,14.8667143 C5.39603408,14.8667143 4.9905,15.2722484 4.9905,15.7725 C4.9905,16.2727516 5.39603408,16.6782857 5.89628571,16.6782857 L18.0514286,16.6782857 L19.863,14.8667143 Z M14.7985714,20.8684286 C14.9207143,20.4582857 15.0955714,20.0661429 15.309,19.6958571 L5.89757143,19.6958571 C5.39767483,19.6958571 4.99242857,20.1011034 4.99242857,20.601 C4.99242857,21.1008966 5.39767483,21.5061429 5.89757143,21.5061429 L14.6082857,21.5061429 L14.7985714,20.8684286 Z M5.89628571,24.5237143 C5.39638912,24.5237143 4.99114286,24.9289605 4.99114286,25.4288571 C4.99114286,25.9287537 5.39638912,26.334 5.89628571,26.334 L13.8484286,26.334 C13.6061838,25.7614834 13.5609592,25.1247212 13.7198571,24.5237143 L5.895,24.5237143 L5.89628571,24.5237143 Z" id="Shape" stroke="#FFFFFF" stroke-width="0.3"></path>
                <path d="M34.8608571,6.85671429 C33.8737739,5.86987516 32.2736547,5.86987516 31.2865714,6.85671429 L17.8932857,20.25 C17.5278436,20.6154373 17.2591846,21.0661482 17.1115714,21.5614286 L16.0444286,25.1382857 C15.9989358,25.2896534 16.0402704,25.4537758 16.152033,25.5655384 C16.2637956,25.677301 16.427918,25.7186356 16.5792857,25.6731429 L20.1574286,24.606 C20.6522487,24.4581928 21.1024975,24.1895459 21.4675714,23.8242857 L34.8608571,10.431 C35.8476963,9.44391676 35.8476963,7.84379753 34.8608571,6.85671429 Z" id="Shape"></path>
            </g>
        </g>
    </g>
</svg>