<svg xmlns="http://www.w3.org/2000/svg" width="29" height="30" viewBox="0 0 29 30">
    <g fill="#16325C" fill-rule="nonzero">
        <path stroke="#16325C" stroke-width=".3" d="M20.156 27.101H2.87V2.843h17.286v6.013l1.842-1.843V1.921a.921.921 0 0 0-.92-.921H1.947a.922.922 0 0 0-.921.921v26.102c0 .508.412.921.921.921h19.13a.921.921 0 0 0 .92-.921v-10.14l-1.842 1.843v7.375z"/>
        <path stroke="#16325C" stroke-width=".3" d="M17.44 5.053H5.585a.704.704 0 0 0 0 1.408H17.44a.704.704 0 0 0 0-1.408zM18.143 9.512a.704.704 0 0 0-.704-.704H5.586a.704.704 0 0 0 0 1.408H17.44a.704.704 0 0 0 .704-.704zM16.449 12.563H5.586a.704.704 0 0 0 0 1.409h9.454l1.409-1.409zM12.51 17.231c.095-.319.231-.624.397-.912h-7.32a.704.704 0 0 0 0 1.408h6.775l.148-.496zM5.586 20.074a.704.704 0 0 0 0 1.408h6.185a2.182 2.182 0 0 1-.1-1.408H5.585z"/>
        <path d="M28.114 6.333a1.966 1.966 0 0 0-2.78 0L14.917 16.75a2.42 2.42 0 0 0-.608 1.02l-.83 2.782a.334.334 0 0 0 .416.416l2.783-.83a2.42 2.42 0 0 0 1.019-.608L28.114 9.113a1.966 1.966 0 0 0 0-2.78z"/>
    </g>
</svg>
