<svg xmlns="http://www.w3.org/2000/svg" width="26" height="31" viewBox="0 0 26 31">
    <g fill="none" fill-rule="nonzero">
        <path fill="#16325C" stroke="#16325C" d="M24.853 26.08l-3.282-3.275V6.867a2.423 2.423 0 0 0-2.449-2.445h-2.448v-.489a.982.982 0 0 0-.98-.977h-1.47v-.49c0-.83-.636-1.466-1.469-1.466H9.816c-.832 0-1.469.684-1.469 1.467v.489h-1.47c-.538 0-.979.44-.979.977v.49H3.45A2.423 2.423 0 0 0 1 6.866v21.022a2.423 2.423 0 0 0 2.449 2.444h15.673a2.423 2.423 0 0 0 2.45-2.444v-3.716l2.595 2.591a.445.445 0 0 0 .343.147.445.445 0 0 0 .343-.147.472.472 0 0 0 0-.684zM6.878 3.933h1.959c.294 0 .49-.195.49-.489v-.977c0-.294.195-.49.49-.49h2.938a.49.49 0 0 1 .49.49v.977c0 .294.196.49.49.49h1.959V7.355H6.878V3.933zm12.244 25.423H3.45c-.833 0-1.47-.636-1.47-1.467V6.867c0-.831.637-1.467 1.47-1.467h2.449v1.956c0 .537.44.977.98.977h8.816c.539 0 .98-.44.98-.977V5.4h2.448c.833 0 1.47.636 1.47 1.467v14.96l-2.226-2.222a5.356 5.356 0 0 0 1.246-3.45c0-2.982-2.4-5.377-5.388-5.377-1.16 0-2.231.361-3.108.978h-1.79c-.293 0-.49.195-.49.488 0 .294.197.49.49.49h.734a5.347 5.347 0 0 0-1.201 2.933H7.857c-.294 0-.49.195-.49.489 0 .293.196.488.49.488H8.86a5.367 5.367 0 0 0 5.365 4.89 5.378 5.378 0 0 0 3.456-1.245l2.912 2.906v4.694c0 .831-.637 1.467-1.47 1.467zm-7.632-16.66a.434.434 0 0 0 .187-.138 4.417 4.417 0 0 1 6.956 3.598c0 2.444-1.96 4.4-4.409 4.4a4.386 4.386 0 0 1-4.408-4.4 4.38 4.38 0 0 1 1.674-3.46z"/>
        <path fill="#16325C" stroke="#16325C" d="M4.138 21h6.39c.283 0 .472-.267.472-.667s-.189-.666-.471-.666h-6.39c-.284 0-.472.266-.472.666s.188.667.471.667z"/>
        <path fill="#000" d="M14.524 23.667H8.81c-.286 0-.477.266-.477.666s.19.667.477.667h5.714c.286 0 .476-.267.476-.667s-.19-.666-.476-.666zM16.867 23.667c-.32 0-.534.266-.534.666s.214.667.534.667h1.6c.32 0 .533-.267.533-.667s-.213-.666-.533-.666h-1.6z"/>
        <path fill="#16325C" stroke="#16325C" d="M4.17 13l6.326-.022c.302 0 .504-.262.504-.656 0-.393-.202-.655-.504-.655l-6.325.022c-.303 0-.504.262-.504.655 0 .394.201.656.504.656zM4.121 17h4.424c.273 0 .455-.267.455-.667s-.182-.666-.455-.666H4.121c-.272 0-.454.266-.454.666s.182.667.454.667zM17.845 23.667H4.155c-.293 0-.488.266-.488.666s.195.667.488.667h13.69c.293 0 .488-.267.488-.667s-.195-.666-.488-.666z"/>
    </g>
</svg>
