<?xml version="1.0" encoding="UTF-8"?>
<svg width="31px" height="37px" viewBox="0 0 31 37" version="1.1" xmlns="http://www.w3.org/2000/svg" xmlns:xlink="http://www.w3.org/1999/xlink">
    <!-- Generator: Sketch 50.2 (55047) - http://www.bohemiancoding.com/sketch -->
    <title>Group 18</title>
    <desc>Created with Sketch.</desc>
    <defs></defs>
    <g id="Page-1" stroke="none" stroke-width="1" fill="none" fill-rule="evenodd">
        <g id="[VD]-PTF---Left-Nav-(Desktop)" transform="translate(-1229.000000, -779.000000)" fill="#FFFFFF" fill-rule="nonzero">
            <g id="Group-18" transform="translate(1230.000000, 780.000000)">
                <path d="M28.822375,30.096 L24.856625,26.166 L24.856625,7.0404 C24.8638127,6.25925389 24.5541913,5.50809301 23.9975241,4.95616789 C23.440857,4.40424278 22.6839746,4.09798495 21.8974167,4.1064 L18.9394167,4.1064 L18.9394167,3.5196 C18.9360981,2.87206714 18.4072867,2.34851043 17.75525,2.3472 L15.979,2.3472 L15.979,1.7592 C15.979,0.7632 15.2105,0 14.2039583,0 L10.6526667,0 C9.64733333,0 8.877625,0.8208 8.877625,1.7604 L8.877625,2.3472 L7.101375,2.3472 C6.45129167,2.3472 5.91841667,2.8752 5.91841667,3.5196 L5.91841667,4.1076 L2.96041667,4.1076 C2.17407317,4.09887049 1.41725144,4.40465741 0.860392932,4.95609546 C0.303534429,5.50753351 -0.00654019456,6.25825778 5.06240286e-14,7.0392 L5.06240286e-14,32.2656 C-0.00686121174,33.046539 0.302904373,33.7973885 0.859535499,34.3490521 C1.41616662,34.9007158 2.17286182,35.2068099 2.95920833,35.1984 L21.8974167,35.1984 C22.6839715,35.2071346 23.4409804,34.901184 23.9978749,34.3494845 C24.5547694,33.7977851 24.8647,33.0467494 24.8578333,32.2656 L24.8578333,27.8064 L27.9934583,30.9156 C28.0989134,31.0318659 28.2504119,31.096346 28.4079167,31.092 C28.5654215,31.096346 28.71692,31.0318659 28.822375,30.9156 C28.9355633,30.8086813 28.9996377,30.6603357 28.9996377,30.5052 C28.9996377,30.3500643 28.9355633,30.2017187 28.822375,30.0948 L28.822375,30.096 Z M7.10258333,3.5196 L9.46970833,3.5196 C9.82495833,3.5196 10.0617917,3.2856 10.0617917,2.9328 L10.0617917,1.7604 C10.0617917,1.4076 10.2974167,1.1724 10.653875,1.1724 L14.2039583,1.1724 C14.5309569,1.1724 14.7960417,1.43565657 14.7960417,1.7604 L14.7960417,2.9328 C14.7960417,3.2856 15.032875,3.5208 15.388125,3.5208 L17.75525,3.5208 L17.75525,7.626 L7.10258333,7.626 L7.10258333,3.5196 Z M21.8974167,34.0272 L2.96041667,34.0272 C1.953875,34.0272 1.18416667,33.264 1.18416667,32.2668 L1.18416667,7.0404 C1.18416667,6.0432 1.953875,5.28 2.96041667,5.28 L5.919625,5.28 L5.919625,7.6272 C5.919625,8.2716 6.45129167,8.7996 7.10379167,8.7996 L17.7564583,8.7996 C18.40775,8.7996 18.940625,8.2716 18.940625,7.6272 L18.940625,5.28 L21.898625,5.28 C22.9051667,5.28 23.674875,6.0432 23.674875,7.0404 L23.674875,24.9924 L20.985125,22.326 C21.9620096,21.1650021 22.4951572,19.6989715 22.4907083,18.186 C22.4907083,14.6076 19.5907083,11.7336 15.9802083,11.7336 C14.5785417,11.7336 13.2844167,12.1668 12.2247083,12.9072 L10.0617917,12.9072 C9.70775,12.9072 9.46970833,13.1412 9.46970833,13.4928 C9.46970833,13.8456 9.70775,14.0808 10.0617917,14.0808 L10.9487083,14.0808 C10.1179284,15.0813933 9.61196033,16.3085122 9.4975,17.6004 L8.28554167,17.6004 C7.93029167,17.6004 7.69345833,17.8344 7.69345833,18.1872 C7.69345833,18.5388 7.93029167,18.7728 8.28554167,18.7728 L9.4975,18.7728 C9.79674384,22.1035536 12.6130229,24.6527853 15.9802083,24.6408 C17.5056307,24.6449891 18.9839206,24.1161181 20.1562083,23.1468 L23.674875,26.634 L23.674875,32.2668 C23.674875,33.264 22.9051667,34.0272 21.898625,34.0272 L21.8974167,34.0272 Z M12.6754167,14.0352 C12.7644947,14.0014266 12.8426153,13.9441737 12.901375,13.8696 C14.5282447,12.7346152 16.6555156,12.5917501 18.4214426,13.4988787 C20.1873697,14.4060072 21.2992016,16.2127477 21.3065417,18.1872 C21.3065417,21.12 18.9382083,23.4672 15.979,23.4672 C14.565882,23.4742466 13.2084506,22.9205344 12.2083055,21.9290895 C11.2081605,20.9376446 10.6481382,19.5905828 10.6526667,18.1872 C10.6467624,16.5676225 11.3930355,15.0357842 12.6754167,14.0352 Z" id="Shape" stroke="#FFFFFF"></path>
                <path d="M3.79175,24 L11.513,24 C11.8549583,24 12.0833333,23.6796 12.0833333,23.1996 C12.0833333,22.7196 11.8549583,22.4004 11.5142083,22.4004 L3.79295833,22.4004 C3.44979167,22.4004 3.222625,22.7196 3.222625,23.1996 C3.222625,23.6796 3.44979167,24 3.79175,24 Z" id="Shape" stroke="#FFFFFF"></path>
                <path d="M16.3415,27.2004 L9.43708333,27.2004 C9.0915,27.2004 8.86070833,27.5196 8.86070833,27.9996 C8.86070833,28.4796 9.09029167,28.8 9.43708333,28.8 L16.3415,28.8 C16.6870833,28.8 16.9166667,28.4796 16.9166667,27.9996 C16.9166667,27.5196 16.6870833,27.2004 16.3415,27.2004 Z M19.172625,27.2004 C18.7859583,27.2004 18.527375,27.5196 18.527375,27.9996 C18.527375,28.4796 18.7859583,28.8 19.172625,28.8 L21.1059583,28.8 C21.492625,28.8 21.75,28.4796 21.75,27.9996 C21.75,27.5196 21.492625,27.2004 21.1059583,27.2004 L19.172625,27.2004 Z" id="Shape"></path>
                <path d="M3.83041667,14.4 L11.4743333,14.3736 C11.83925,14.3736 12.0833333,14.0592 12.0833333,13.5864 C12.0833333,13.1148 11.83925,12.8004 11.4743333,12.8004 L3.831625,12.8268 C3.4655,12.8268 3.222625,13.1412 3.222625,13.6128 C3.222625,14.0856 3.4655,14.4 3.831625,14.4 L3.83041667,14.4 Z M3.77120833,19.2 L9.116875,19.2 C9.44675,19.2 9.66666667,18.8796 9.66666667,18.3996 C9.66666667,17.9196 9.44675,17.6004 9.116875,17.6004 L3.77120833,17.6004 C3.44254167,17.6004 3.222625,17.9196 3.222625,18.3996 C3.222625,18.8796 3.44254167,19.2 3.77120833,19.2 Z M20.354375,27.2004 L3.81229167,27.2004 C3.45825,27.2004 3.222625,27.5196 3.222625,27.9996 C3.222625,28.4796 3.45825,28.8 3.81229167,28.8 L20.354375,28.8 C20.7084167,28.8 20.9440417,28.4796 20.9440417,27.9996 C20.9440417,27.5196 20.7084167,27.2004 20.354375,27.2004 Z" id="Shape" stroke="#FFFFFF"></path>
            </g>
        </g>
    </g>
</svg>