<?xml version="1.0" encoding="UTF-8"?>
<svg width="29px" height="38px" viewBox="0 0 29 38" version="1.1" xmlns="http://www.w3.org/2000/svg" xmlns:xlink="http://www.w3.org/1999/xlink">
    <!-- Generator: Sketch 50.2 (55047) - http://www.bohemiancoding.com/sketch -->
    <title>Group 19</title>
    <desc>Created with Sketch.</desc>
    <defs></defs>
    <g id="Page-1" stroke="none" stroke-width="1" fill="none" fill-rule="evenodd">
        <g id="[VD]-PTF---Left-Nav-(Desktop)" transform="translate(-1231.000000, -831.000000)" fill="#FFFFFF" stroke="#FFFFFF">
            <g id="Group-19" transform="translate(1232.000000, 832.000000)">
                <path d="M13.5757576,16.7832168 C11.7013366,16.7832168 10.1818182,15.2803964 10.1818182,13.4265734 C10.1818182,11.5727505 11.7013366,10.0699301 13.5757576,10.0699301 C15.4501785,10.0699301 16.969697,11.5727505 16.969697,13.4265734 C16.969697,15.2803964 15.4501785,16.7832168 13.5757576,16.7832168 Z M13.5757576,7.83272727 C10.452035,7.83272727 7.91975758,10.3371775 7.91975758,13.4265734 C7.91975758,16.5159694 10.452035,19.0204196 13.5757576,19.0204196 C16.6994801,19.0204196 19.2317576,16.5159694 19.2317576,13.4265734 C19.2317576,10.3371775 16.6994801,7.83272727 13.5757576,7.83272727 Z" id="Shape"></path>
                <path d="M13.5757576,0 C21.0734415,3.72662274e-16 27.1515152,6.01128168 27.1515152,13.4265734 C27.1515152,18.965035 15.7987879,35.8153846 13.5757576,35.8036364 C11.3187879,35.8170629 0,19.0405594 0,13.4265734 C-9.42007415e-16,6.01128168 6.0780737,1.4906491e-15 13.5757576,0 Z M13.5757576,32.446993 C15.4271515,32.4570629 24.8894545,18.041958 24.8894545,13.4265734 C24.8894545,7.24685473 19.8241398,2.23720296 13.5757576,2.23720296 C7.32737534,2.23720296 2.2620607,7.24685473 2.26206061,13.4265734 C2.26206061,18.1040559 11.6938182,32.4587413 13.5757576,32.446993 Z" id="Shape"></path>
            </g>
        </g>
    </g>
</svg>