<?xml version="1.0" encoding="UTF-8"?>
<svg width="36px" height="37px" viewBox="0 0 36 37" version="1.1" xmlns="http://www.w3.org/2000/svg" xmlns:xlink="http://www.w3.org/1999/xlink">
    <!-- Generator: Sketch 50.2 (55047) - http://www.bohemiancoding.com/sketch -->
    <title>Group 20</title>
    <desc>Created with Sketch.</desc>
    <defs></defs>
    <g id="Page-1" stroke="none" stroke-width="1" fill="none" fill-rule="evenodd">
        <g id="[VD]-PTF---Left-Nav-(Desktop)" transform="translate(-1226.000000, -883.000000)" fill="#FFFFFF" fill-rule="nonzero">
            <g id="Group-20" transform="translate(1226.000000, 884.000000)">
                <path d="M35.6526,22.0806 C34.5726,20.6406 33.4926,20.6406 30.852,22.0194 L25.6914,25.2 C24.9714,25.6194 23.3514,25.74 21.852,25.74 C22.1526,25.2 22.032,24.5394 21.492,23.76 C20.5000155,22.3600697 18.8877389,21.5317626 17.172,21.5406 L14.832,21.5406 C13.572,21.5406 12.3714,21.1806 11.412,20.4606 C9.2466,18.837 5.8626,20.6046 4.212,21.6576 L4.212,20.3994 L0.0126,20.3994 L0.0126,36 L4.212,36 L4.212,34.2 L12.0114,34.2 C13.212,34.2 14.472,34.0794 15.6726,34.02 L23.472,32.8194 C23.7726,32.8194 24.0714,32.76 24.3126,32.7006 C25.0326,32.58 25.6914,32.22 26.2926,31.68 L35.352,24.48 C36.0641985,23.881849 36.1952292,22.8359574 35.6526,22.0806 Z M3.0114,34.7994 L1.2114,34.7994 L1.2114,21.6 L3.0114,21.6 L3.0114,34.7994 Z M34.632,23.6394 L25.5114,30.7206 L25.452,30.78 C25.092,31.1994 24.6114,31.4406 24.0714,31.5 C23.832,31.5594 23.652,31.5594 23.4126,31.5594 L15.4926,32.76 C14.3514,32.94 13.1526,32.9994 12.0114,32.9994 L4.212,32.9994 L4.212,23.0994 C5.652,22.0806 9.0126,20.16 10.692,21.4794 C11.8954045,22.3507979 13.3462874,22.8138188 14.832,22.8006 L17.172,22.8006 C18.5526,22.8006 19.8126,23.4 20.592,24.5394 C20.8314,24.8994 20.8926,25.2594 20.8314,25.38 C20.6514,25.6806 19.9314,25.7994 19.152,25.8606 L18.7164,25.8606 C18.6273061,25.8193779 18.5301637,25.7984738 18.432,25.7994 L12.6126,25.7994 C10.7514,25.7994 9.612,26.6994 9.612,28.2006 C9.612,28.5606 9.8514,28.8 10.2114,28.8 C10.5714,28.8 10.8126,28.5606 10.8126,28.2006 C10.8126,27.9 10.8126,27 12.6126,27 L18.4356,27 L18.432,27.0594 L19.512,27.0594 C22.3326,27.1206 24.9714,27.0594 26.352,26.3394 L31.5126,23.1606 C34.0326,21.9006 34.272,22.1994 34.7526,22.9194 C34.8714,23.0994 34.8714,23.4594 34.632,23.6394 Z" id="Shape"></path>
                <path d="M11.1726,13.5594 L18.8514,20.1006 C18.972,20.2194 19.152,20.2806 19.332,20.2806 C19.512,20.2806 19.692,20.2194 19.8126,20.1006 L27.432,13.5 C29.052,12.1194 30.1914,10.3194 30.672,8.4006 C30.9726,7.0794 30.9114,6.2406 30.852,6.0606 C30.5514,2.5794 27.7326,0 24.372,0 C22.1526,0 20.2914,1.4994 19.2114,3.1806 C18.1314,1.4994 16.2126,0 13.9914,0 C10.6326,0 8.1126,2.52 7.7526,6.12 C7.6914,6.3 7.5726,7.1406 7.9326,8.46 C8.4114,10.3806 9.5526,12.1806 11.1726,13.5594 Z M8.9514,6.2406 L8.9514,6.1794 C9.252,3.24 11.2914,1.2006 13.9914,1.2006 C16.092,1.2006 17.8326,2.9394 18.612,4.68 L19.152,5.94 L19.692,4.68 C20.4714,2.9394 22.212,1.2006 24.372,1.2006 C27.1314,1.2006 29.412,3.3606 29.592,6.2406 C29.592,6.2406 29.7126,6.8994 29.412,8.1 C28.9926,9.7794 28.0314,11.34 26.5914,12.6 L19.2726,18.9 L11.952,12.6 C10.512,11.34 9.5526,9.7794 9.1314,8.1 C8.8326,6.8994 8.9514,6.2406 8.9514,6.2406 Z" id="Shape" stroke="#FFFFFF"></path>
            </g>
        </g>
    </g>
</svg>