<?xml version="1.0" encoding="UTF-8"?>
<svg width="42px" height="36px" viewBox="0 0 42 36" version="1.1" xmlns="http://www.w3.org/2000/svg" xmlns:xlink="http://www.w3.org/1999/xlink">
    <!-- Generator: Sketch 50.2 (55047) - http://www.bohemiancoding.com/sketch -->
    <title>Group 11</title>
    <desc>Created with Sketch.</desc>
    <defs></defs>
    <g id="Page-1" stroke="none" stroke-width="1" fill="none" fill-rule="evenodd">
        <g id="[VD]-PTF---Left-Nav-(Desktop)" transform="translate(-1223.000000, -416.000000)" fill="#FFFFFF" fill-rule="nonzero">
            <g id="Group-11" transform="translate(1223.000000, 416.000000)">
                <path d="M39.2193676,3.60503497 L23.603004,3.60503497 C23.2903611,3.60450109 22.9882459,3.49078157 22.7513834,3.28447552 L19.886087,0.785454545 C19.3330199,0.303754596 18.627313,0.0387374542 17.8973123,0.0386013986 L7.63636364,0.0386013986 C6.43612648,0.0386013986 5.46166008,1.02545455 5.46166008,2.2372028 L5.46166008,5.17594406 L2.17470356,5.17594406 C0.976126482,5.17594406 0,6.1627972 0,7.37454545 L0,33.7258741 C0,34.9393007 0.976126482,35.9244755 2.17470356,35.9244755 L33.7593676,35.9244755 C34.9596047,35.9244755 35.9340711,34.9393007 35.9340711,33.7258741 L35.9340711,30.7888112 L39.2193676,30.7888112 C40.4179447,30.7888112 41.3940711,29.801958 41.3940711,28.5902098 L41.3940711,5.80195804 C41.3940711,4.58853147 40.4179447,3.60335664 39.2193676,3.60335664 L39.2193676,3.60503497 Z M34.1959684,33.7258741 C34.1959692,33.8427866 34.1499174,33.9548862 34.0679908,34.0373982 C33.9860642,34.1199102 33.8750084,34.1660406 33.7593676,34.1655944 L2.17470356,34.1655944 C1.93449244,34.1655944 1.73976285,33.9687249 1.73976285,33.7258741 L1.73976285,15.646993 L34.1943083,15.646993 L34.1943083,33.7258741 L34.1959684,33.7258741 Z M34.1959684,13.8881119 L1.74142292,13.8881119 L1.74142292,7.37622378 C1.74142292,7.13286713 1.93565217,6.9365035 2.17470356,6.9365035 L12.4373123,6.9365035 C12.7510672,6.9365035 13.0532016,7.04895105 13.2905929,7.25538462 L16.1558893,9.75440559 C16.7086957,10.2360839 17.4142292,10.5012587 18.144664,10.5012587 L33.7593676,10.5012587 C34.0000791,10.5012587 34.1959684,10.6993007 34.1959684,10.940979 L34.1959684,13.8881119 Z M39.6543083,28.5902098 C39.6533939,28.8324049 39.4589319,29.0282535 39.2193676,29.0282517 L35.9357312,29.0282517 L35.9357312,10.9426573 C35.9357312,9.73090909 34.9596047,8.74405594 33.7610277,8.74405594 L18.144664,8.74405594 C17.8313967,8.74422254 17.528526,8.63044045 17.2913834,8.4234965 L14.426087,5.92447552 C13.873766,5.44241502 13.1686405,5.17679944 12.4389723,5.17594406 L7.19644269,5.17594406 L7.19644269,2.23888112 C7.19644269,1.99552448 7.39233202,1.79748252 7.63304348,1.79748252 L17.8956522,1.79748252 C18.207747,1.79748252 18.5098814,1.91160839 18.7489328,2.11804196 L21.6125692,4.61706294 C22.1670356,5.09874126 22.8725692,5.36391608 23.6013439,5.36391608 L39.2177075,5.36391608 C39.4567589,5.36391608 39.6526482,5.56027972 39.6526482,5.80363636 L39.6526482,28.5885315 L39.6543083,28.5902098 Z" id="Shape"></path>
                <path d="M30.7347036,18.6461538 L25.5237154,18.6461538 C25.0585127,18.6667144 24.6918259,19.0539912 24.6918259,19.5247552 C24.6918259,19.9955193 25.0585127,20.3827961 25.5237154,20.4033566 L30.7347036,20.4033566 C31.2151258,20.4033566 31.604585,20.0096177 31.604585,19.5239161 C31.604585,19.0382145 31.2151258,18.6444755 30.7347036,18.6444755 L30.7347036,18.6461538 Z M30.7347036,22.8671329 L25.5237154,22.8671329 C25.0432932,22.8671329 24.653834,23.2608718 24.653834,23.7465734 C24.653834,24.232275 25.0432932,24.626014 25.5237154,24.626014 L30.7347036,24.626014 C31.2151258,24.626014 31.604585,24.232275 31.604585,23.7465734 C31.604585,23.2608718 31.2151258,22.8671329 30.7347036,22.8671329 Z" id="Shape"></path>
            </g>
        </g>
    </g>
</svg>