<svg xmlns="http://www.w3.org/2000/svg" width="20" height="21" viewBox="0 0 20 21">
    <g fill="#0070D2" fill-rule="nonzero">
        <path d="M19.807 13.267c-.6-.8-1.2-.8-2.667-.034L14.273 15c-.4.233-1.3.3-2.133.3.167-.3.1-.667-.2-1.1a2.923 2.923 0 0 0-2.4-1.233h-1.3c-.7 0-1.367-.2-1.9-.6-1.203-.902-3.083.08-4 .665v-.699H.007V21H2.34v-1h4.333c.667 0 1.367-.067 2.034-.1l4.333-.667c.167 0 .333-.033.467-.066.4-.067.766-.267 1.1-.567l5.033-4a.988.988 0 0 0 .167-1.333zM1.673 20.333h-1V13h1v7.333zm17.567-6.2l-5.067 3.934-.033.033c-.2.233-.467.367-.767.4-.133.033-.233.033-.366.033l-4.4.667c-.634.1-1.3.133-1.934.133H2.34v-5.5c.8-.566 2.667-1.633 3.6-.9a3.863 3.863 0 0 0 2.3.734h1.3c.767 0 1.467.333 1.9.966.133.2.167.4.133.467-.1.167-.5.233-.933.267h-.242a.368.368 0 0 0-.158-.034H7.007c-1.034 0-1.667.5-1.667 1.334 0 .2.133.333.333.333s.334-.133.334-.333c0-.167 0-.667 1-.667h3.235l-.002.033h.6c1.567.034 3.033 0 3.8-.4l2.867-1.766c1.4-.7 1.533-.534 1.8-.134.066.1.066.3-.067.4z"/>
        <path stroke="#0070D2" d="M6.207 8.533l4.266 3.634c.067.066.167.1.267.1s.2-.034.267-.1L15.24 8.5c.9-.767 1.533-1.767 1.8-2.833.167-.734.133-1.2.1-1.3C16.973 2.433 15.407 1 13.54 1c-1.233 0-2.267.833-2.867 1.767C10.073 1.833 9.007 1 7.773 1 5.907 1 4.507 2.4 4.307 4.4c-.034.1-.1.567.1 1.3.266 1.067.9 2.067 1.8 2.833zM4.973 4.467v-.034c.167-1.633 1.3-2.766 2.8-2.766 1.167 0 2.134.966 2.567 1.933l.3.7.3-.7c.433-.967 1.4-1.933 2.6-1.933 1.533 0 2.8 1.2 2.9 2.8 0 0 .067.366-.1 1.033-.233.933-.767 1.8-1.567 2.5l-4.066 3.5L6.64 8c-.8-.7-1.333-1.567-1.567-2.5-.166-.667-.1-1.033-.1-1.033z"/>
    </g>
</svg>
