<svg xmlns="http://www.w3.org/2000/svg" width="25" height="22" viewBox="0 0 25 22">
    <g fill="#00437D" fill-rule="nonzero">
        <path d="M23.625 2.148h-9.407a.788.788 0 0 1-.513-.191L11.979.468a1.836 1.836 0 0 0-1.198-.445H4.6c-.723 0-1.31.588-1.31 1.31v1.751H1.31c-.722 0-1.31.588-1.31 1.31v15.701c0 .723.588 1.31 1.31 1.31h19.026c.723 0 1.31-.587 1.31-1.31v-1.75h1.979c.722 0 1.31-.588 1.31-1.31V3.457c0-.723-.588-1.31-1.31-1.31zm-3.026 17.947a.262.262 0 0 1-.263.262H1.31a.262.262 0 0 1-.262-.262V9.323h19.55v10.772zm0-11.82H1.049v-3.88c0-.145.117-.262.261-.262h6.182c.189 0 .371.067.514.19l1.726 1.489c.333.287.758.445 1.198.445h9.406c.145 0 .263.118.263.262v1.756zm3.288 8.76a.262.262 0 0 1-.262.261h-1.978V6.52c0-.722-.588-1.31-1.31-1.31H10.93a.786.786 0 0 1-.514-.191L8.69 3.53a1.835 1.835 0 0 0-1.197-.446H4.335v-1.75c0-.145.118-.263.263-.263h6.182c.188 0 .37.068.514.191l1.725 1.489c.334.287.759.445 1.198.445h9.407c.144 0 .262.117.262.262v13.576z"/>
        <path d="M18.514 11.11h-3.139a.524.524 0 0 0 0 1.047h3.139a.524.524 0 0 0 0-1.048zM18.514 13.625h-3.139a.524.524 0 0 0 0 1.048h3.139a.524.524 0 0 0 0-1.048z"/>
    </g>
</svg>
