<?xml version="1.0" encoding="UTF-8"?>
<svg width="33px" height="36px" viewBox="0 0 33 36" version="1.1" xmlns="http://www.w3.org/2000/svg" xmlns:xlink="http://www.w3.org/1999/xlink">
    <!-- Generator: Sketch 50.2 (55047) - http://www.bohemiancoding.com/sketch -->
    <title>Group 12</title>
    <desc>Created with Sketch.</desc>
    <defs></defs>
    <g id="Page-1" stroke="none" stroke-width="1" fill="none" fill-rule="evenodd">
        <g id="[VD]-PTF---Left-Nav-(Desktop)" transform="translate(-1227.000000, -468.000000)" fill="#FFFFFF" fill-rule="nonzero">
            <g id="Group-12" transform="translate(1227.000000, 468.000000)">
                <path d="M31.9926316,6.02592334 L27.2816541,1.24766551 C26.7895464,0.753811612 25.9955664,0.753811612 25.5034586,1.24766551 C25.0150198,1.74522895 25.0150198,2.54801147 25.5034586,3.04557491 L28.0839098,5.65296167 L23.0421053,5.65296167 C17.089294,5.65941419 12.2651788,10.5370118 12.258797,16.5558188 L12.258797,19.7836934 C12.2533265,24.4013859 8.551873,28.1431273 3.98481203,28.1477352 L1.28195489,28.1477352 C0.589024389,28.1477352 0.0272932331,28.715694 0.0272932331,29.4163066 C0.0272932331,30.1169193 0.589024389,30.684878 1.28195489,30.684878 L3.98646617,30.684878 C9.93927746,30.6784255 14.7633927,25.8008279 14.7697744,19.7820209 L14.7697744,16.5541463 C14.775245,11.9364538 18.4766984,8.19471246 23.0437594,8.19010453 L28.0822556,8.19010453 L25.5034586,10.7958188 C25.148707,11.1604718 25.0435824,11.7040659 25.2363615,12.1769656 C25.4291405,12.6498652 25.8825701,12.9606863 26.3884211,12.9666899 C26.7214755,12.9659997 27.0405358,12.8311828 27.2750376,12.5920557 L31.9926316,7.82216028 C32.4810704,7.32459684 32.4810704,6.52181431 31.9926316,6.02425087 L31.9926316,6.02592334 Z M11.7162406,8.95777003 C9.69501027,6.83379614 6.90161127,5.63949889 3.98646617,5.65296167 L1.28195489,5.65296167 C0.589024389,5.65296167 0.0272932331,6.22092045 0.0272932331,6.9215331 C0.0272932331,7.62214576 0.589024389,8.19010453 1.28195489,8.19010453 L3.98646617,8.19010453 C6.22308826,8.18297693 8.36564044,9.09939787 9.91819549,10.7272474 C10.1485702,10.9694294 10.465013,11.1086343 10.7973044,11.1139723 C11.1295958,11.1193102 11.4502527,10.9903396 11.6881203,10.7556794 C12.1843609,10.2689895 12.197594,9.46452962 11.7162406,8.95777003 Z M31.9992481,28.5223693 L27.2816541,23.7508014 C26.7895464,23.2569475 25.9955664,23.2569475 25.5034586,23.7508014 C25.0161133,24.2481681 25.0161133,25.0496716 25.5034586,25.5470383 L28.0839098,28.1560976 L23.0421053,28.1560976 C20.8050055,28.1639577 18.6619815,27.2467307 17.1103759,25.6172822 C16.6255706,25.1159461 15.8315277,25.1039968 15.3321805,25.5905226 C14.8369634,26.0800526 14.8244147,26.8816277 15.3040602,27.3867596 C17.3309553,29.5074226 20.1253694,30.7008769 23.0421053,30.6915679 L28.0806015,30.6915679 L25.5018045,33.3006272 C25.2669098,33.5382549 25.1355086,33.8608301 25.1367508,34.196793 C25.137993,34.5327559 25.2717758,34.8543288 25.5084211,35.0901742 C25.9973219,35.5839788 26.7894451,35.5839788 27.2783459,35.0901742 L31.997594,30.3186063 C32.4849393,29.8212396 32.4849393,29.019736 31.997594,28.5223693 L31.9992481,28.5223693 Z" id="Shape"></path>
            </g>
        </g>
    </g>
</svg>