<svg xmlns="http://www.w3.org/2000/svg" width="93" height="81" viewBox="0 0 93 81">
    <g fill="none" fill-rule="nonzero" stroke="#16325C">
        <path fill="#16325C" stroke-width="2" d="M86.994 8.855h-34.24a2.86 2.86 0 0 1-1.87-.699l-6.28-5.444a6.666 6.666 0 0 0-4.36-1.628H17.738c-2.63 0-4.77 2.15-4.77 4.792v6.404h-7.2C3.14 12.28 1 14.43 1 17.072v57.42c0 2.641 2.14 4.79 4.77 4.79h69.255c2.63 0 4.769-2.149 4.769-4.79v-6.403h7.2c2.63 0 4.77-2.15 4.77-4.792v-49.65c0-2.643-2.14-4.792-4.77-4.792zM75.98 74.49a.957.957 0 0 1-.954.959H5.769a.957.957 0 0 1-.954-.959V35.095H75.98V74.49zm0-43.23H4.815V17.073c0-.528.428-.958.954-.958h22.504c.686 0 1.35.247 1.869.698l6.281 5.442a6.66 6.66 0 0 0 4.36 1.629h34.242c.526 0 .954.43.954.958v6.42l.001-.002zm11.97 32.036a.957.957 0 0 1-.955.958h-7.2V24.841c0-2.642-2.14-4.792-4.77-4.792h-34.24c-.686 0-1.35-.248-1.87-.698l-6.28-5.442a6.66 6.66 0 0 0-4.361-1.629H16.785V5.876c0-.528.428-.958.954-.958h22.504c.685 0 1.35.248 1.87.698l6.28 5.444a6.667 6.667 0 0 0 4.36 1.628h34.242c.526 0 .954.43.954.958v49.65h.001z"/>
        <g transform="rotate(-15 187.51 -70.34)">
            <path fill="#16325C" stroke-width=".5" d="M26.309 25.2c.282.348.411.785.365 1.23a1.666 1.666 0 0 1-.613 1.129l-1.65 1.337c-.36.29-.804.408-1.231.364a1.671 1.671 0 0 1-1.129-.612l-5.19-6.41a.586.586 0 0 1 .087-.824l.282-.229-1.443-1.781c-2.054 1.195 4.38-4.014 2.783-2.252l1.442 1.78.282-.228a.586.586 0 0 1 .825.086l4.092 5.054 1.098 1.356z"/>
            <circle cx="10" cy="10" r="10" stroke-width="3.5"/>
        </g>
    </g>
</svg>
