<?xml version="1.0" encoding="UTF-8"?>
<svg width="35px" height="30px" viewBox="0 0 35 30" version="1.1" xmlns="http://www.w3.org/2000/svg" xmlns:xlink="http://www.w3.org/1999/xlink">
    <!-- Generator: sketchtool 42 (36781) - http://www.bohemiancoding.com/sketch -->
    <title>4A4CEB6F-83B7-45A0-97BE-39F7A5A3A195</title>
    <desc>Created with sketchtool.</desc>
    <defs></defs>
    <g id="Symbols" stroke="none" stroke-width="1" fill="none" fill-rule="evenodd">
        <g id="sidebar/v3-copy" transform="translate(-25.000000, -401.000000)" fill-rule="nonzero">
            <g id="Group-4" transform="translate(25.000000, 167.000000)">
                <g id="folder-(1)" transform="translate(0.000000, 234.000000)">
                    <path d="M33.0747955,3.00681818 L19.9053409,3.00681818 C19.6418864,3.00681818 19.3864091,2.91177273 19.1864318,2.73954545 L16.7706136,0.6555 C16.3040455,0.253636364 15.7084773,0.0323181818 15.0936136,0.0323181818 L6.43793182,0.0323181818 C5.42652273,0.0323181818 4.60363636,0.855204545 4.60363636,1.86661364 L4.60363636,4.31822727 L1.83429545,4.31822727 C0.822886364,4.31822727 0,5.14111364 0,6.15252273 L0,28.1333864 C0,29.1447955 0.822886364,29.9676818 1.83429545,29.9676818 L28.4710909,29.9676818 C29.4825,29.9676818 30.3053864,29.1447955 30.3053864,28.1333864 L30.3053864,25.6823182 L33.0747955,25.6823182 C34.0862045,25.6823182 34.9090909,24.8594318 34.9090909,23.8480227 L34.9090909,4.84111364 C34.9090909,3.82963636 34.0862045,3.00681818 33.0747955,3.00681818 Z M28.8379773,28.1333864 C28.8379773,28.3356818 28.6733864,28.5002727 28.4710909,28.5002727 L1.83429545,28.5002727 C1.632,28.5002727 1.46740909,28.3356818 1.46740909,28.1333864 L1.46740909,13.0519091 L28.8379091,13.0519091 L28.8379091,28.1333864 L28.8379773,28.1333864 Z M28.8379773,11.5845 L1.46740909,11.5845 L1.46740909,6.15259091 C1.46740909,5.95029545 1.632,5.78570455 1.83429545,5.78570455 L10.4895,5.78570455 C10.7532955,5.78570455 11.0085,5.88054545 11.2082727,6.05290909 L13.6242273,8.13647727 C14.0903182,8.53840909 14.6858864,8.75972727 15.3013636,8.75972727 L28.4710909,8.75972727 C28.6733864,8.75972727 28.8379773,8.92431818 28.8379773,9.12661364 L28.8379773,11.5845 Z M33.4416818,23.8480227 C33.4416818,24.0503182 33.2770909,24.2149091 33.0747955,24.2149091 L30.3053864,24.2149091 L30.3053864,9.12654545 C30.3053864,8.11513636 29.4825,7.29225 28.4710909,7.29225 L15.3013636,7.29225 C15.0375682,7.29225 14.7822273,7.19740909 14.5825227,7.02511364 L12.1666364,4.94168182 C11.7005455,4.53968182 11.1049773,4.31829545 10.4895,4.31829545 L6.07104545,4.31829545 L6.07104545,1.86661364 C6.07104545,1.66431818 6.23563636,1.49972727 6.43793182,1.49972727 L15.0936136,1.49972727 C15.3570682,1.49972727 15.6125455,1.59477273 15.8125227,1.767 L18.2283409,3.85104545 C18.6949091,4.25284091 19.2904773,4.47415909 19.9053409,4.47415909 L33.0748636,4.47415909 C33.2771591,4.47415909 33.44175,4.63875 33.44175,4.84104545 L33.44175,23.8480227 L33.4416818,23.8480227 Z" id="Shape" fill="#FFFFFF"></path>
                    <path d="M25.9189091,15.5530227 L21.5249318,15.5530227 C21.1197273,15.5530227 20.7912273,15.8815227 20.7912273,16.2867273 C20.7912273,16.6918636 21.1197273,17.0204318 21.5249318,17.0204318 L25.9189091,17.0204318 C26.3241136,17.0204318 26.6526136,16.6918636 26.6526136,16.2867273 C26.6526136,15.8814545 26.3241818,15.5530227 25.9189091,15.5530227 Z" id="Shape" fill="#19BBFF"></path>
                    <path d="M25.9189091,19.0748182 L21.5249318,19.0748182 C21.1197273,19.0748182 20.7912273,19.4033864 20.7912273,19.8085227 C20.7912273,20.2136591 21.1197273,20.5422273 21.5249318,20.5422273 L25.9189091,20.5422273 C26.3241136,20.5422273 26.6526136,20.2136591 26.6526136,19.8085227 C26.6526136,19.4033864 26.3241818,19.0748182 25.9189091,19.0748182 Z" id="Shape" fill="#19BBFF"></path>
                </g>
            </g>
        </g>
    </g>
</svg>