<?xml version="1.0" encoding="UTF-8"?>
<svg width="30px" height="30px" viewBox="0 0 30 30" version="1.1" xmlns="http://www.w3.org/2000/svg" xmlns:xlink="http://www.w3.org/1999/xlink">
    <!-- Generator: sketchtool 42 (36781) - http://www.bohemiancoding.com/sketch -->
    <title>BE110A84-271A-4C69-92EA-4265F909EDBC</title>
    <desc>Created with sketchtool.</desc>
    <defs></defs>
    <g id="Symbols" stroke="none" stroke-width="1" fill="none" fill-rule="evenodd">
        <g id="sidebar/v3-copy" transform="translate(-27.000000, -166.000000)">
            <g id="Group-4" transform="translate(25.000000, 167.000000)">
                <g id="Group-2" transform="translate(2.000000, 0.000000)">
                    <path d="M16,1 L16,2.101 C18.282,2.564 20,4.581 20,7 C20,9.419 18.282,11.436 16,11.899 L16,27 C16,27.553 15.553,28 15,28 C14.447,28 14,27.553 14,27 L14,11.899 C11.718,11.436 10,9.419 10,7 C10,4.581 11.718,2.564 14,2.101 L14,1 C14,0.448 14.447,0 15,0 C15.553,0 16,0.448 16,1 Z M15,10 C16.657,10 18,8.657 18,7 C18,5.344 16.657,4 15,4 C13.343,4 12,5.344 12,7 C12,8.657 13.343,10 15,10 Z" id="Combined-Shape" stroke="#19BBFF" stroke-width="0.5" fill="#19BBFF"></path>
                    <path d="M26,1 L26,16.101 C28.282,16.564 30,18.581 30,21 C30,23.419 28.282,25.436 26,25.899 L26,27 C26,27.553 25.553,28 25,28 C24.447,28 24,27.553 24,27 L24,25.899 C21.718,25.436 20,23.419 20,21 C20,18.581 21.718,16.564 24,16.101 L24,1 C24,0.448 24.447,0 25,0 C25.553,0 26,0.448 26,1 Z M25,24 C26.657,24 28,22.657 28,21 C28,19.344 26.657,18 25,18 C23.343,18 22,19.344 22,21 C22,22.657 23.343,24 25,24 Z" id="Combined-Shape" fill="#FFFFFF"></path>
                    <path d="M6,1 L6,12.101 C8.282,12.564 10,14.581 10,17 C10,19.419 8.282,21.436 6,21.899 L6,27 C6,27.553 5.553,28 5,28 C4.447,28 4,27.553 4,27 L4,21.899 C1.718,21.436 0,19.419 0,17 C0,14.581 1.718,12.564 4,12.101 L4,1 C4,0.448 4.447,0 5,0 C5.553,0 6,0.448 6,1 Z M5,20 C6.657,20 8,18.657 8,17 C8,15.344 6.657,14 5,14 C3.343,14 2,15.344 2,17 C2,18.657 3.343,20 5,20 Z" id="Combined-Shape" fill="#FFFFFF"></path>
                </g>
            </g>
        </g>
    </g>
</svg>