<svg xmlns="http://www.w3.org/2000/svg" width="26" height="31" viewBox="0 0 26 31">
    <g fill="none" fill-rule="nonzero" stroke="#16325C">
        <path fill="#16325C" stroke-width=".5" d="M24.13 26.971c.48 0 .87-.39.87-.87V3.725A2.728 2.728 0 0 0 22.275 1H3.725A2.728 2.728 0 0 0 1 3.725v24.232a2.728 2.728 0 0 0 2.725 2.724H24.13a.87.87 0 0 0 0-1.739.987.987 0 0 1 0-1.971zM2.74 3.725c0-.544.441-.986.985-.986h.985v22.493h-.985c-.348 0-.68.066-.986.185V3.725zm18.85 25.217H3.725a.987.987 0 0 1 0-1.971H21.59a2.71 2.71 0 0 0 0 1.971zm1.67-3.71H6.45V2.739h15.825c.544 0 .986.442.986.986v21.507z"/>
        <path fill="#00437D" d="M10.638 16.365l3.605 3.07a.32.32 0 0 0 .225.085.32.32 0 0 0 .225-.085l3.577-3.098c.76-.648 1.296-1.493 1.521-2.394.141-.62.113-1.014.085-1.098C19.735 11.21 18.41 10 16.834 10c-1.042 0-1.915.704-2.422 1.493-.507-.789-1.409-1.493-2.45-1.493-1.578 0-2.76 1.183-2.93 2.873-.028.084-.084.479.085 1.098.225.902.76 1.747 1.52 2.394zM9.595 12.93v-.028c.141-1.38 1.099-2.338 2.366-2.338.986 0 1.803.817 2.17 1.634l.253.591.253-.591c.366-.817 1.183-1.634 2.197-1.634 1.296 0 2.366 1.014 2.45 2.366 0 0 .057.31-.084.873-.197.789-.648 1.521-1.324 2.113l-3.436 2.957-3.436-2.957c-.676-.592-1.127-1.324-1.324-2.113-.14-.563-.085-.873-.085-.873z"/>
    </g>
</svg>
