<?xml version="1.0" encoding="UTF-8"?>
<svg width="31px" height="37px" viewBox="0 0 31 37" version="1.1" xmlns="http://www.w3.org/2000/svg" xmlns:xlink="http://www.w3.org/1999/xlink">
    <!-- Generator: Sketch 50.2 (55047) - http://www.bohemiancoding.com/sketch -->
    <title>Group 21</title>
    <desc>Created with Sketch.</desc>
    <defs></defs>
    <g id="Page-1" stroke="none" stroke-width="1" fill="none" fill-rule="evenodd">
        <g id="[VD]-PTF---Left-Nav-(Desktop)" transform="translate(-1229.000000, -935.000000)" fill="#FFFFFF" fill-rule="nonzero" stroke="#FFFFFF">
            <g id="Group-21" transform="translate(1230.000000, 936.000000)">
                <path d="M27.94875,31.1652 C28.52875,31.1652 29,30.6972 29,30.1212 L29,3.27 C28.9980022,1.46485133 27.5249761,0.00198404504 25.7072917,0 L3.29270833,0 C1.4750239,0.00198404504 0.00199782313,1.46485133 0,3.27 L0,32.3484 C0.00266344068,34.15308 1.47549495,35.6152173 3.29270833,35.6172 L27.94875,35.6172 C28.5151428,35.5981217 28.9643644,35.1366101 28.9643644,34.5738 C28.9643644,34.0109899 28.5151428,33.5494783 27.94875,33.5304 C27.3165802,33.4957482 26.8218516,32.9765655 26.8218516,32.3478 C26.8218516,31.7190345 27.3165802,31.1998518 27.94875,31.1652 Z M2.1025,3.27 C2.1025,2.6172 2.635375,2.0868 3.29270833,2.0868 L4.48291667,2.0868 L4.48291667,29.0784 L3.29270833,29.0784 C2.87220833,29.0784 2.47104167,29.1576 2.10129167,29.3004 L2.10129167,3.27 L2.1025,3.27 Z M24.8795833,33.5304 L3.29270833,33.5304 C2.66053858,33.4957482 2.16580989,32.9765655 2.16580989,32.3478 C2.16580989,31.7190345 2.66053858,31.1998518 3.29270833,31.1652 L24.8795833,31.1652 C24.5806551,31.9256542 24.5806551,32.7699458 24.8795833,33.5304 Z M26.8975,29.0784 L6.58541667,29.0784 L6.58541667,2.0868 L25.7072917,2.0868 C26.364625,2.0868 26.8987083,2.6172 26.8987083,3.27 L26.8987083,29.0784 L26.8975,29.0784 Z" id="Shape" stroke-width="0.5"></path>
                <path d="M11.6459167,18.438 L16.0019583,22.122 C16.0757795,22.1898164 16.1733004,22.2264036 16.2738333,22.224 C16.3743662,22.2264036 16.4718872,22.1898164 16.5457083,22.122 L20.8679167,18.4044 C21.78625,17.6268 22.4339167,16.6128 22.7057917,15.5316 C22.8761667,14.7876 22.8423333,14.3148 22.8085,14.214 C22.638125,12.252 21.0370833,10.8 19.13275,10.8 C17.8736667,10.8 16.8187917,11.6448 16.2061667,12.5916 C15.5935417,11.6448 14.503625,10.8 13.24575,10.8 C11.339,10.8 9.91075,12.2196 9.70533333,14.2476 C9.6715,14.3484 9.60383333,14.8224 9.80804167,15.5652 C10.0799167,16.6476 10.726375,17.6616 11.6447083,18.438 L11.6459167,18.438 Z M10.385625,14.316 L10.385625,14.2824 C10.556,12.6264 11.7135833,11.4768 13.2445417,11.4768 C14.4359583,11.4768 15.4231667,12.4572 15.866625,13.4376 L16.1723333,14.1468 L16.4780417,13.4376 C16.9202917,12.4572 17.9075,11.4768 19.13275,11.4768 C20.69875,11.4768 21.9916667,12.6936 22.0931667,14.316 C22.0931667,14.316 22.1620417,14.688 21.9916667,15.3636 C21.753625,16.3104 21.2086667,17.1888 20.3918333,17.8992 L16.24,21.4476 L12.0881667,17.8992 C11.2713333,17.1888 10.726375,16.3104 10.4883333,15.3636 C10.3191667,14.688 10.385625,14.316 10.385625,14.316 Z" id="Shape"></path>
            </g>
        </g>
    </g>
</svg>