<?xml version="1.0" encoding="UTF-8"?>
<svg width="45px" height="38px" viewBox="0 0 45 38" version="1.1" xmlns="http://www.w3.org/2000/svg" xmlns:xlink="http://www.w3.org/1999/xlink">
    <!-- Generator: Sketch 50.2 (55047) - http://www.bohemiancoding.com/sketch -->
    <title>Group</title>
    <desc>Created with Sketch.</desc>
    <defs></defs>
    <g id="Page-1" stroke="none" stroke-width="1" fill="none" fill-rule="evenodd">
        <g id="[VD]-PTF---Left-Nav-(Desktop)" transform="translate(-1221.000000, -155.000000)">
            <g id="Group" transform="translate(1222.000000, 156.000000)">
                <path d="M43.3842566,29.6897143 C42.995312,27.4253143 41.2065773,25.6464 38.9201166,25.2601714 L38.9201166,20.3898857 C38.9201166,17.7752571 36.3457959,15.2953714 33.6170262,15.2953714 L22.6578192,15.2953714 L22.6578192,10.7310857 C25.7021574,10.2188571 27.7171778,7.29 27.0578192,4.25262857 C26.4702974,1.548 23.8682682,-0.293142857 21.1035802,0.0385714286 C18.0043382,0.416057143 15.8815627,3.27342857 16.3962216,6.30154286 C16.7851662,8.56542857 18.5646647,10.3448571 20.8506122,10.7310857 L20.8506122,15.3046286 L9.88268222,15.3046286 C7.16314869,15.3046286 4.58780175,17.7752571 4.58780175,20.3991429 L4.58780175,25.2689143 C1.54295044,25.7811429 -0.472069971,28.71 0.18728863,31.7473714 C0.774810496,34.452 3.37683965,36.2936571 6.1415277,35.9614286 C9.24076968,35.5839429 11.3635452,32.7265714 10.8488863,29.6984571 C10.4599417,27.4345714 8.68044315,25.6551429 6.39449563,25.2689143 L6.39449563,20.3986286 C6.39449563,18.7637143 8.15603499,17.1015429 9.88165598,17.1015429 L20.8506122,17.1015429 L20.8506122,25.2601714 C17.8057609,25.7718857 15.7912536,28.7007429 16.4500991,31.7381143 C17.037621,34.4432571 19.6396501,36.2844 22.4043382,35.9521714 C25.5035802,35.5746857 27.6263557,32.7173143 27.1116968,29.6897143 C26.7227522,27.4253143 24.9432536,25.6464 22.6573061,25.2601714 L22.6573061,17.1015429 L33.6257493,17.1015429 C35.3513703,17.1015429 37.1134227,18.7637143 37.1134227,20.3991429 L37.1134227,25.2689143 C34.0049446,25.7898857 31.963242,28.8272571 32.7493411,31.9181143 C33.3907405,34.4694857 35.8485831,36.2036571 38.4860175,35.9706857 C41.6853178,35.6919429 43.9081516,32.7718286 43.3837434,29.6897143 L43.3842566,29.6897143 Z M9.11402915,30.5881714 C9.11402915,32.6638286 7.3524898,34.326 5.2379242,34.182 C3.4491895,34.0652571 2.00373178,32.6185714 1.87699125,30.8489143 C1.73229155,28.7465143 3.40403499,26.9850857 5.49089213,26.9850857 C7.48795335,26.9850857 9.10530612,28.5932571 9.11402915,30.5881714 Z M25.3860758,30.5794286 C25.3860758,32.5645714 23.7594869,34.182 21.7634519,34.182 C19.7663907,34.182 18.1403149,32.5650857 18.1403149,30.5794286 C18.1403149,28.5937714 19.7571545,26.9763429 21.7629388,26.9763429 C23.76,26.9763429 25.3773528,28.5932571 25.3860758,30.5794286 Z M21.7542157,9.01491429 C19.7571545,9.01491429 18.1310787,7.40674286 18.1310787,5.41182857 C18.1310787,3.33617143 19.8926181,1.674 22.0071837,1.818 C23.7959184,1.93474286 25.2413761,3.38142857 25.3681166,5.15108571 C25.5128163,7.254 23.8410729,9.01491429 21.7542157,9.01491429 Z M38.0170262,34.182 C36.0204781,34.182 34.3944023,32.5650857 34.3944023,30.5794286 C34.3944023,28.5937714 36.0204781,26.9763429 38.0170262,26.9763429 C40.0135743,26.9763429 41.6396501,28.5845143 41.6396501,30.5794286 C41.6401633,32.5738286 40.0140875,34.182 38.0170262,34.182 Z" id="Shape" fill="#FFFFFF" fill-rule="nonzero"></path>
                <ellipse id="a" fill="#FFFFFF" fill-rule="nonzero" cx="38.016" cy="30.5454857" rx="5.44214577" ry="5.45451429"></ellipse>
                <ellipse id="Oval" stroke="#FFFFFF" stroke-width="1.8" cx="38.016" cy="30.5454857" rx="4.98033819" ry="4.99165714"></ellipse>
                <ellipse id="b" fill="#FFFFFF" fill-rule="nonzero" cx="5.49345773" cy="30.5454857" rx="5.44214577" ry="5.45451429"></ellipse>
                <ellipse id="Oval" stroke="#FFFFFF" stroke-width="1.8" cx="5.49345773" cy="30.5454857" rx="4.98033819" ry="4.99165714"></ellipse>
                <ellipse id="c" fill="#FFFFFF" fill-rule="nonzero" cx="21.7762799" cy="30.5454857" rx="5.44214577" ry="5.45451429"></ellipse>
                <ellipse id="Oval" stroke="#FFFFFF" stroke-width="1.8" cx="21.7762799" cy="30.5454857" rx="4.98033819" ry="4.99165714"></ellipse>
                <ellipse id="d" fill="#FFFFFF" fill-rule="nonzero" cx="21.7762799" cy="5.45451429" rx="5.44214577" ry="5.45451429"></ellipse>
                <ellipse id="Oval" stroke="#FFFFFF" stroke-width="1.8" cx="21.7762799" cy="5.45451429" rx="4.98033819" ry="4.99165714"></ellipse>
            </g>
        </g>
    </g>
</svg>