<svg xmlns="http://www.w3.org/2000/svg" width="85" height="70" viewBox="0 0 85 70">
    <g fill="#0070D2" fill-rule="evenodd">
        <path fill-rule="nonzero" d="M84.55 57.73c-.758-4.403-4.244-7.862-8.7-8.613v-9.47c0-5.084-5.017-9.906-10.335-9.906H44.157v-8.875c5.933-.996 9.86-6.691 8.575-12.597C51.587 3.01 46.516-.57 41.128.075c-6.04.734-10.177 6.29-9.174 12.178.758 4.402 4.226 7.862 8.681 8.613v8.893H19.26c-5.3 0-10.319 4.804-10.319 9.906v9.469C3.007 50.13-.92 55.825.365 61.731c1.145 5.259 6.216 8.84 11.604 8.194 6.04-.734 10.177-6.29 9.174-12.178-.758-4.402-4.226-7.862-8.681-8.613v-9.47c0-3.179 3.433-6.411 6.796-6.411h21.377v15.864c-5.934.995-9.86 6.69-8.576 12.596 1.145 5.26 6.216 8.84 11.604 8.194 6.04-.734 10.177-6.29 9.174-12.177-.758-4.403-4.226-7.862-8.681-8.613V33.253h21.376c3.363 0 6.797 3.232 6.797 6.412v9.469c-6.058 1.013-10.037 6.919-8.505 12.929 1.25 4.961 6.04 8.333 11.18 7.88 6.235-.542 10.567-6.22 9.545-12.213zm-66.788 1.747c0 4.036-3.433 7.268-7.554 6.988-3.486-.227-6.303-3.04-6.55-6.481-.282-4.088 2.976-7.513 7.043-7.513 3.892 0 7.044 3.127 7.061 7.006zm31.712-.017c0 3.86-3.17 7.005-7.06 7.005-3.892 0-7.061-3.144-7.061-7.005 0-3.861 3.151-7.006 7.06-7.006 3.892 0 7.044 3.144 7.061 7.006zm-7.078-41.931c-3.892 0-7.061-3.127-7.061-7.006 0-4.036 3.433-7.268 7.554-6.988 3.486.227 6.303 3.04 6.55 6.481.282 4.089-2.976 7.513-7.043 7.513zM74.09 66.465c-3.891 0-7.06-3.144-7.06-7.005 0-3.861 3.169-7.006 7.06-7.006 3.891 0 7.06 3.127 7.06 7.006.001 3.878-3.168 7.005-7.06 7.005z"/>
        <circle cx="74.088" cy="59.394" r="10.606"/>
        <circle cx="10.706" cy="59.394" r="10.606"/>
        <circle cx="42.439" cy="59.394" r="10.606"/>
        <circle cx="42.439" cy="10.606" r="10.606"/>
    </g>
</svg>
