<?xml version="1.0" encoding="UTF-8"?>
<svg width="27px" height="30px" viewBox="0 0 27 30" version="1.1" xmlns="http://www.w3.org/2000/svg" xmlns:xlink="http://www.w3.org/1999/xlink">
    <!-- Generator: sketchtool 42 (36781) - http://www.bohemiancoding.com/sketch -->
    <title>87B44F16-97E0-471D-B79D-DBDA1634E971</title>
    <desc>Created with sketchtool.</desc>
    <defs></defs>
    <g id="Symbols" stroke="none" stroke-width="1" fill="none" fill-rule="evenodd">
        <g id="sidebar/v3-copy" transform="translate(-29.000000, -521.000000)" fill-rule="nonzero">
            <g id="Group-4" transform="translate(25.000000, 167.000000)">
                <g id="notification-bell" transform="translate(4.000000, 354.000000)">
                    <path d="M26.4268137,24.5222549 C23.2387255,23.0825 23.117451,16.902598 23.115098,16.7466667 L23.115098,12.6006863 C23.115098,8.61039216 20.6767647,5.17916667 17.2118137,3.71818627 C17.2043627,1.66666667 15.5334804,0 13.4804412,0 C11.4273529,0 9.75651961,1.66676471 9.74901961,3.71808824 C6.28421569,5.17906863 3.84583333,8.61029412 3.84583333,12.6005882 L3.84583333,16.7465686 C3.84357843,16.9025 3.72220588,23.082402 0.534019608,24.5221569 C0.170833333,24.6862255 -0.0287745098,25.0815686 0.0551960784,25.4711765 C0.139068627,25.8608333 0.483627451,26.1391176 0.882205882,26.1391176 L8.96455882,26.1391176 C9.1302451,27.0505882 9.56122549,27.8985294 10.2203922,28.5853431 C11.0958824,29.4975 12.2536765,29.9998529 13.4802941,29.9998529 C14.7070098,29.9998529 15.8648039,29.4975 16.7401961,28.5853431 C17.3994608,27.8984804 17.8304412,27.0504902 17.9960294,26.1391176 L26.0783824,26.1391176 C26.4769608,26.1391176 26.8214706,25.8608824 26.9054412,25.4711765 C26.9895098,25.0815686 26.79,24.6862745 26.4268137,24.5222549 Z M22.2271569,21.5617157 C22.5623039,22.5777941 23.0368627,23.5981863 23.7098039,24.4473039 L3.25098039,24.4473039 C3.92382353,23.5982843 4.39838235,22.5779412 4.73352941,21.5617157 L22.2271569,21.5617157 Z M13.4804412,1.69191176 C14.4091176,1.69191176 15.1943137,2.31593137 15.44,3.16651961 C14.8070588,3.0352451 14.1516667,2.96602941 13.4804412,2.96602941 C12.8092157,2.96602941 12.1538235,3.03519608 11.5208824,3.16651961 C11.7666176,2.31598039 12.5518137,1.69191176 13.4804412,1.69191176 Z M5.5377451,16.7517647 L5.5377451,12.6005392 C5.5377451,8.22098039 9.10078431,4.65794118 13.4804412,4.65794118 C17.860098,4.65794118 21.4231373,8.22098039 21.4231373,12.6005392 L21.4231373,16.7586765 C21.4242647,16.8859314 21.4440686,18.2233333 21.7811275,19.8697059 L5.17955882,19.8697059 C5.51681373,18.2217647 5.53671569,16.8820098 5.5377451,16.7517647 Z M13.4804412,28.3080882 C12.1892157,28.3080882 11.0623039,27.3771078 10.7005882,26.1391667 L16.2601961,26.1391667 C15.8984804,27.3771078 14.7717647,28.3080882 13.4804412,28.3080882 Z" id="Shape" fill="#FFFFFF"></path>
                    <path d="M13.4804412,5.84485294 C9.84073529,5.84485294 6.87960784,8.80588235 6.87960784,12.4455392 C6.87960784,12.9127451 7.25838235,13.2915196 7.72558824,13.2915196 C8.19279412,13.2915196 8.57156863,12.9127451 8.57156863,12.4455392 C8.57156863,9.73882353 10.7736765,7.53676471 13.4804902,7.53676471 C13.9476961,7.53676471 14.3264706,7.1579902 14.3264706,6.69078431 C14.3264216,6.22352941 13.9476471,5.84485294 13.4804412,5.84485294 Z" id="Shape" fill="#19BBFF"></path>
                </g>
            </g>
        </g>
    </g>
</svg>