<svg xmlns="http://www.w3.org/2000/svg" width="30" height="26" viewBox="0 0 30 26">
    <g fill="none" fill-rule="evenodd">
        <path fill="none" d="M0 26h30V0H0z"/>
        <path fill="#0070D2" d="M29.754 20.05a.574.574 0 0 0-.86 0l-3.69 3.751V7.114c0-3.233-2.458-5.691-5.409-5.691-2.95 0-5.41 2.458-5.41 5.691v11.9c0 2.459-1.967 4.399-4.303 4.399-2.213 0-4.18-1.94-4.18-4.398V2.328L9.59 6.08c.123.129.246.258.369.258.246 0 .369-.129.492-.258a.648.648 0 0 0 0-.906L5.779.26a.574.574 0 0 0-.861 0L.246 5.174a.648.648 0 0 0 0 .906c.123.258.615.258.86 0l3.566-3.752v16.687c0 3.234 2.46 5.691 5.41 5.691 3.074 0 5.533-2.457 5.533-5.691v-11.9c0-2.458 1.844-4.528 4.18-4.528 2.336 0 4.18 2.07 4.18 4.527v16.687l-3.688-3.751a.574.574 0 0 0-.86 0c-.247.13-.247.647 0 .905l4.794 4.916c.123.129.246.129.37.129.122 0 .368 0 .491-.13l4.672-4.915c.246-.258.246-.776 0-.905z"/>
    </g>
</svg>
