<?xml version="1.0" encoding="UTF-8"?>
<svg width="29px" height="30px" viewBox="0 0 29 30" version="1.1" xmlns="http://www.w3.org/2000/svg" xmlns:xlink="http://www.w3.org/1999/xlink">
    <!-- Generator: sketchtool 42 (36781) - http://www.bohemiancoding.com/sketch -->
    <title>753FCC95-27C2-4077-AD72-2D7ABE5D2FD0</title>
    <desc>Created with sketchtool.</desc>
    <defs></defs>
    <g id="Symbols" stroke="none" stroke-width="1" fill="none" fill-rule="evenodd">
        <g id="sidebar/v3-copy" transform="translate(-28.000000, -461.000000)" fill-rule="nonzero">
            <g id="Group-4" transform="translate(25.000000, 167.000000)">
                <g id="shuffle" transform="translate(3.000000, 294.000000)">
                    <g id="Layer_1">
                        <path d="M28.0448065,4.46334012 L23.9144603,0.320773931 C23.4867617,-0.106924644 22.790224,-0.106924644 22.3564155,0.320773931 C21.9287169,0.748472505 21.9287169,1.44501018 22.3564155,1.87881874 L24.6171079,4.1395112 L20.1995927,4.1395112 C14.98778,4.1395112 10.7474542,8.37983707 10.7474542,13.5916497 L10.7474542,16.3900204 C10.7474542,20.392057 7.49083503,23.6425662 3.49490835,23.6425662 L1.12423625,23.6425662 C0.519348269,23.6425662 0.0244399185,24.1374745 0.0244399185,24.7423625 C0.0244399185,25.3472505 0.513238289,25.8421589 1.12423625,25.8421589 L3.49490835,25.8421589 C8.70672098,25.8421589 12.9470468,21.601833 12.9470468,16.3900204 L12.9470468,13.5916497 C12.9470468,9.58961303 16.203666,6.33910387 20.1995927,6.33910387 L24.6171079,6.33910387 L22.3564155,8.59979633 C21.9287169,9.02749491 21.9287169,9.72403259 22.3564155,10.1578411 C22.5702648,10.3716904 22.8513238,10.4816701 23.1323829,10.4816701 C23.413442,10.4816701 23.694501,10.3716904 23.9083503,10.1578411 L28.0448065,6.02138493 C28.4725051,5.59368635 28.4725051,4.89714868 28.0448065,4.46334012 Z" id="Shape" fill="#19BBFF"></path>
                        <path d="M10.2708758,7.00509165 C8.48065173,5.15376782 6.07331976,4.1395112 3.49490835,4.1395112 L1.12423625,4.1395112 C0.519348269,4.1395112 0.0244399185,4.63441955 0.0244399185,5.23930754 C0.0244399185,5.84419552 0.513238289,6.33910387 1.12423625,6.33910387 L3.49490835,6.33910387 C5.46843177,6.33910387 7.3197556,7.12118126 8.69450102,8.53869654 C8.90835031,8.7586558 9.19551935,8.87474542 9.48268839,8.87474542 C9.75763747,8.87474542 10.0325866,8.77087576 10.2464358,8.56313646 C10.6802444,8.14154786 10.6924644,7.44501018 10.2708758,7.00509165 Z" id="Shape" fill="#FFFFFF"></path>
                        <path d="M28.0509165,23.9663951 L23.9144603,19.8299389 C23.4867617,19.4022403 22.790224,19.4022403 22.3564155,19.8299389 C21.9287169,20.2576375 21.9287169,20.9541752 22.3564155,21.3879837 L24.6171079,23.6486762 L20.1995927,23.6486762 C18.2199593,23.6486762 16.3747454,22.8665988 15,21.4490835 C14.5784114,21.0152749 13.8818737,21.003055 13.4419552,21.4246436 C13.0081466,21.8462322 12.9959267,22.5427699 13.4175153,22.9826884 C15.2138493,24.8279022 17.6211813,25.8482688 20.1995927,25.8482688 L24.6171079,25.8482688 L22.3564155,28.1089613 C21.9287169,28.5366599 21.9287169,29.2270876 22.3625255,29.6608961 C22.5763747,29.8747454 22.8574338,29.9847251 23.1384929,29.9847251 C23.4195519,29.9847251 23.700611,29.8747454 23.9144603,29.6608961 L28.0509165,25.5244399 C28.4786151,25.0967413 28.4786151,24.4002037 28.0509165,23.9663951 Z" id="Shape" fill="#FFFFFF"></path>
                    </g>
                </g>
            </g>
        </g>
    </g>
</svg>