<?xml version="1.0" encoding="UTF-8"?>
<svg width="42px" height="36px" viewBox="0 0 42 36" version="1.1" xmlns="http://www.w3.org/2000/svg" xmlns:xlink="http://www.w3.org/1999/xlink">
    <!-- Generator: Sketch 50.2 (55047) - http://www.bohemiancoding.com/sketch -->
    <title>Group 13</title>
    <desc>Created with Sketch.</desc>
    <defs></defs>
    <g id="Page-1" stroke="none" stroke-width="1" fill="none" fill-rule="evenodd">
        <g id="[VD]-PTF---Left-Nav-(Desktop)" transform="translate(-1223.000000, -520.000000)">
            <g id="Group-13" transform="translate(1223.000000, 520.000000)">
                <polygon id="Shape" points="0 36 41.2438625 36 41.2438625 0 0 0"></polygon>
                <path d="M40.9056628,27.7615385 C40.7558759,27.590936 40.5406202,27.4932436 40.3145008,27.4932436 C40.0883815,27.4932436 39.8731257,27.590936 39.7233388,27.7615385 L34.6503437,32.9552308 L34.6503437,9.85015385 C34.6503437,5.37369231 31.2710966,1.97030769 27.2140753,1.97030769 C23.1584288,1.97030769 19.7764321,5.37369231 19.7764321,9.85015385 L19.7764321,26.3270769 C19.7764321,29.7318462 17.0722095,32.418 13.8606874,32.418 C10.8182651,32.418 8.11404255,29.7318462 8.11404255,26.3284615 L8.11404255,3.22338462 L13.1842881,8.41846154 C13.3533879,8.59707692 13.5224877,8.77569231 13.6915876,8.77569231 C14.0297872,8.77569231 14.1988871,8.59707692 14.3679869,8.41846154 C14.706458,8.06978281 14.706458,7.51267873 14.3679869,7.164 L7.94494272,0.36 C7.79513928,0.188925576 7.5795748,0.0909212028 7.35309329,0.0909212028 C7.12661178,0.0909212028 6.9110473,0.188925576 6.76124386,0.36 L0.338199673,7.164 C-0.000271443104,7.51267873 -0.000271443104,8.06978281 0.338199673,8.41846154 C0.507299509,8.77569231 1.18369885,8.77569231 1.52052373,8.41846154 L6.42304419,3.22338462 L6.42304419,26.3284615 C6.42304419,30.8063077 9.80504092,34.2083077 13.8606874,34.2083077 C18.0868085,34.2083077 21.4674304,30.8063077 21.4674304,26.3284615 L21.4674304,9.85153846 C21.4674304,6.44815385 24.0025532,3.582 27.2140753,3.582 C30.4255974,3.582 32.9607201,6.44815385 32.9607201,9.85015385 L32.9607201,32.9552308 L27.8904746,27.7615385 C27.7406877,27.590936 27.5254319,27.4932436 27.2993126,27.4932436 C27.0731933,27.4932436 26.8579375,27.590936 26.7081506,27.7615385 C26.3685761,27.9415385 26.3685761,28.6573846 26.7081506,29.0146154 L33.2989198,35.8213846 C33.4680196,36 33.6371195,36 33.8075941,36 C33.9753191,36 34.3135188,36 34.4826187,35.82 L40.9056628,29.0146154 C41.2438625,28.6573846 41.2438625,27.9401538 40.9056628,27.7615385 Z" id="Shape" fill="#FFFFFF" fill-rule="nonzero"></path>
            </g>
        </g>
    </g>
</svg>