<?xml version="1.0" encoding="UTF-8"?>
<svg width="33px" height="30px" viewBox="0 0 33 30" version="1.1" xmlns="http://www.w3.org/2000/svg" xmlns:xlink="http://www.w3.org/1999/xlink">
    <!-- Generator: Sketch 50.2 (55047) - http://www.bohemiancoding.com/sketch -->
    <title>rmb_Renew_Continue Copy</title>
    <desc>Created with Sketch.</desc>
    <defs></defs>
    <g id="Page-1" stroke="none" stroke-width="1" fill="none" fill-rule="evenodd">
        <g id="[VD]-PTF---Left-Nav-(Desktop)" transform="translate(-438.000000, -515.000000)" fill="#0070D2" fill-rule="nonzero" stroke="#0070D2">
            <g id="rmb_Renew_Continue-Copy" transform="translate(438.000000, 516.000000)">
                <path d="M16.1048889,0.024 C9.2344666,0.024 3.66488889,5.59357771 3.66488889,12.464 C3.66488889,12.6253333 3.67822222,12.784 3.69022222,12.944 L1.88222222,11.1373333 C1.68836222,10.9296737 1.39666081,10.8443065 1.12143191,10.9146859 C0.846203009,10.9850654 0.631287587,11.1999808 0.560908152,11.4752097 C0.490528717,11.7504386 0.575895947,12.04214 0.783555556,12.236 L3.89288889,15.3466667 C4.03816702,15.4936444 4.2362293,15.57636 4.44288889,15.57636 C4.64954848,15.57636 4.84761076,15.4936444 4.99288889,15.3466667 L8.10222222,12.236 C8.30988183,12.04214 8.39524906,11.7504386 8.32486963,11.4752097 C8.25449019,11.1999808 8.03957477,10.9850654 7.76434587,10.9146859 C7.48911697,10.8443065 7.19741556,10.9296737 7.00355556,11.1373333 L5.24888889,12.8906667 C5.24088889,12.7466667 5.21955556,12.608 5.21955556,12.464 C5.21955556,6.46266667 10.1022222,1.57866667 16.1035556,1.57866667 C21.1382222,1.57866667 25.3728889,5.02 26.6102222,9.66933333 C26.9595556,9.46933333 27.3528889,9.35333333 27.7662222,9.35333333 C27.8942222,9.35333333 28.0195556,9.37066667 28.1448889,9.39066667 C26.7755556,4.00933333 21.9115556,0.024 16.1035556,0.024 L16.1048889,0.024 Z M31.4262222,15.58 L28.3168889,12.4693333 C28.1714334,12.3226873 27.9734375,12.2402017 27.7668889,12.2402017 C27.5603402,12.2402017 27.3623444,12.3226873 27.2168889,12.4693333 L24.1075556,15.58 C23.8998959,15.77386 23.8145287,16.0655614 23.8849082,16.3407903 C23.9552876,16.6160192 24.170203,16.8309346 24.4454319,16.9013141 C24.7206608,16.9716935 25.0123622,16.8863263 25.2062222,16.6786667 L26.9595556,14.9253333 C26.9675556,15.068 26.9888889,15.2066667 26.9888889,15.352 C26.9888889,21.3533333 22.1062222,26.236 16.1048889,26.236 C11.0702222,26.236 6.83555556,22.796 5.59688889,18.1453333 C5.24755556,18.3453333 4.85555556,18.4613333 4.44222222,18.4613333 C4.31422222,18.4613333 4.18888889,18.4453333 4.06355556,18.424 C5.43288889,23.8053333 10.2968889,27.792 16.1035556,27.792 C19.4028487,27.792 22.5670114,26.4813609 24.8999639,24.1484084 C27.2329165,21.8154558 28.5435556,18.6512931 28.5435556,15.352 C28.5435556,15.1893333 28.5302222,15.032 28.5195556,14.872 L30.3262222,16.6786667 C30.5224801,16.8751627 30.8086593,16.9520303 31.0769588,16.880314 C31.3452584,16.8085977 31.5549172,16.599193 31.6269588,16.3309806 C31.6990005,16.0627683 31.6224801,15.7764961 31.4262222,15.58 Z" id="Shape"></path>
            </g>
        </g>
    </g>
</svg>