<?xml version="1.0" encoding="UTF-8"?>
<svg width="42px" height="38px" viewBox="0 0 42 38" version="1.1" xmlns="http://www.w3.org/2000/svg" xmlns:xlink="http://www.w3.org/1999/xlink">
    <!-- Generator: Sketch 50.2 (55047) - http://www.bohemiancoding.com/sketch -->
    <title>rmb_Renew_Continue</title>
    <desc>Created with Sketch.</desc>
    <defs></defs>
    <g id="Page-1" stroke="none" stroke-width="1" fill="none" fill-rule="evenodd">
        <g id="[VD]-PTF---Left-Nav-(Desktop)" transform="translate(-1226.000000, -1048.000000)" fill="#FFFFFF" fill-rule="nonzero" stroke="#FFFFFF">
            <g id="rmb_Renew_Continue" transform="translate(1225.000000, 1049.000000)">
                <path d="M21.7062857,0.0308571429 C12.8728856,0.0308571429 5.712,7.19174277 5.712,16.0251429 C5.712,16.2325714 5.72914286,16.4365714 5.74457143,16.6422857 L3.42,14.3194286 C3.17075143,14.0524376 2.79570676,13.9426798 2.44184103,14.0331676 C2.0879753,14.1236555 1.81165547,14.3999753 1.72116762,14.753841 C1.63067978,15.1077068 1.74043765,15.4827514 2.00742857,15.732 L6.00514286,19.7314286 C6.19192902,19.9203999 6.44658052,20.0267486 6.71228571,20.0267486 C6.9779909,20.0267486 7.23264241,19.9203999 7.41942857,19.7314286 L11.4171429,15.732 C11.6841338,15.4827514 11.7938916,15.1077068 11.7034038,14.753841 C11.612916,14.3999753 11.3365961,14.1236555 10.9827304,14.0331676 C10.6288647,13.9426798 10.25382,14.0524376 10.0045714,14.3194286 L7.74857143,16.5737143 C7.73828571,16.3885714 7.71085714,16.2102857 7.71085714,16.0251429 C7.71085714,8.30914286 13.9885714,2.02971429 21.7045714,2.02971429 C28.1777143,2.02971429 33.6222857,6.45428571 35.2131429,12.432 C35.6622857,12.1748571 36.168,12.0257143 36.6994286,12.0257143 C36.864,12.0257143 37.0251429,12.048 37.1862857,12.0737143 C35.4257143,5.15485714 29.172,0.0308571429 21.7045714,0.0308571429 L21.7062857,0.0308571429 Z M41.4051429,20.0314286 L37.4074286,16.032 C37.2204144,15.8434552 36.9658483,15.7374022 36.7002857,15.7374022 C36.4347232,15.7374022 36.1801571,15.8434552 35.9931429,16.032 L31.9954286,20.0314286 C31.7284376,20.2806771 31.6186798,20.6557218 31.7091676,21.0095875 C31.7996555,21.3634533 32.0759753,21.6397731 32.429841,21.7302609 C32.7837068,21.8207488 33.1587514,21.7109909 33.408,21.444 L35.6622857,19.1897143 C35.6725714,19.3731429 35.7,19.5514286 35.7,19.7382857 C35.7,27.4542857 29.4222857,33.732 21.7062857,33.732 C15.2331429,33.732 9.78857143,29.3091429 8.196,23.3297143 C7.74685714,23.5868571 7.24285714,23.736 6.71142857,23.736 C6.54685714,23.736 6.38571429,23.7154286 6.22457143,23.688 C7.98514286,30.6068571 14.2388571,35.7325714 21.7045714,35.7325714 C25.9465197,35.7325714 30.0147289,34.047464 33.0142393,31.0479536 C36.0137497,28.0484432 37.6988571,23.980234 37.6988571,19.7382857 C37.6988571,19.5291429 37.6817143,19.3268571 37.668,19.1211429 L39.9908571,21.444 C40.2431887,21.6966378 40.6111334,21.7954675 40.9560899,21.7032608 C41.3010465,21.6110542 41.5706078,21.3418196 41.6632328,20.9969751 C41.7558578,20.6521306 41.6574744,20.2840664 41.4051429,20.0314286 Z" id="Shape"></path>
            </g>
        </g>
    </g>
</svg>