<svg xmlns="http://www.w3.org/2000/svg" width="25" height="23" viewBox="0 0 25 23">
    <g fill="#16325C" fill-rule="nonzero" stroke="#16325C">
        <path d="M12.662 1.018a9.33 9.33 0 0 0-9.33 9.33c0 .121.01.24.019.36L1.995 9.353a.583.583 0 1 0-.824.824l2.332 2.333a.58.58 0 0 0 .825 0l2.332-2.333a.583.583 0 1 0-.824-.824L4.52 10.668c-.006-.108-.022-.212-.022-.32 0-4.501 3.662-8.164 8.163-8.164 3.776 0 6.952 2.581 7.88 6.068.262-.15.557-.237.867-.237.096 0 .19.013.284.028-1.027-4.036-4.675-7.025-9.031-7.025zM24.153 12.685l-2.332-2.333a.581.581 0 0 0-.825 0l-2.332 2.333a.583.583 0 1 0 .824.824l1.315-1.315c.006.107.022.211.022.32 0 4.501-3.662 8.163-8.163 8.163-3.776 0-6.952-2.58-7.881-6.068-.262.15-.556.237-.866.237-.096 0-.19-.012-.284-.028 1.027 4.036 4.675 7.026 9.03 7.026a9.33 9.33 0 0 0 9.33-9.33c0-.122-.01-.24-.018-.36l1.355 1.355a.583.583 0 1 0 .825-.824z"/>
    </g>
</svg>
