<?xml version="1.0" encoding="UTF-8"?>
<svg width="37px" height="36px" viewBox="0 0 37 36" version="1.1" xmlns="http://www.w3.org/2000/svg" xmlns:xlink="http://www.w3.org/1999/xlink">
    <!-- Generator: Sketch 50.2 (55047) - http://www.bohemiancoding.com/sketch -->
    <title>Group 14</title>
    <desc>Created with Sketch.</desc>
    <defs></defs>
    <g id="Page-1" stroke="none" stroke-width="1" fill="none" fill-rule="evenodd">
        <g id="[VD]-PTF---Left-Nav-(Desktop)" transform="translate(-1226.000000, -572.000000)" fill="#FFFFFF" fill-rule="nonzero">
            <g id="Group-14" transform="translate(1226.000000, 572.000000)">
                <path d="M34.8879167,20.9723077 C36.061125,20.9723077 37,21.8538462 37,22.9569231 L37,33.7492308 C37,34.8507692 36.061125,35.7323077 34.8879167,35.7323077 L2.18916667,35.7323077 C1.0175,35.7323077 0,34.8507692 0,33.7492308 L0,22.9553846 C0,21.8538462 1.0175,20.9723077 2.18916667,20.9723077 C3.36391667,20.9723077 4.30279167,21.8538462 4.30279167,22.9569231 L4.30279167,31.6923077 L32.777375,31.6923077 L32.777375,22.9538462 C32.777375,21.8523077 33.7147083,20.9707692 34.8894583,20.9707692 L34.8879167,20.9707692 L34.8879167,20.9723077 Z" id="Shape"></path>
                <path d="M11.5255,11.6384615 C10.6822083,12.4584615 9.45658333,12.4584615 8.61329167,11.6384615 C7.77,10.8184615 7.77,9.62307692 8.61329167,8.80307692 L17.043125,0.596923077 C17.43625,0.218461538 17.9557917,0.00461538462 18.5,0 C19.0365,0 19.573,0.224615385 19.956875,0.596923077 L28.3867083,8.80307692 C29.23,9.62461538 29.23,10.8184615 28.3867083,11.6384615 C27.9963037,12.0163894 27.4752619,12.2301012 26.931375,12.2353846 C26.394875,12.2353846 25.7812917,12.0107692 25.3974167,11.6384615 L20.5689167,6.93846154 L20.5689167,24.3953846 C20.5689167,25.5153846 19.6500833,26.4107692 18.5,26.4107692 C17.3499167,26.4107692 16.4310833,25.5153846 16.4310833,24.3953846 L16.4310833,6.93846154 L11.5255,11.6384615 Z" id="Shape"></path>
            </g>
        </g>
    </g>
</svg>