<svg xmlns="http://www.w3.org/2000/svg" width="24" height="24" viewBox="0 0 24 24">
    <g fill="#0070D2" fill-rule="nonzero">
        <path d="M22.63 13.632c.761 0 1.37.573 1.37 1.29v7.015c0 .716-.609 1.289-1.37 1.289H1.42c-.76 0-1.42-.573-1.42-1.289v-7.016c0-.716.66-1.289 1.42-1.289.762 0 1.371.573 1.371 1.29V20.6h18.47v-5.68c0-.716.608-1.289 1.37-1.289h-.001z"/>
        <path d="M7.476 7.565c-.547.533-1.342.533-1.889 0-.547-.533-.547-1.31 0-1.843L11.055.388C11.31.142 11.647.003 12 0c.348 0 .696.146.945.388l5.468 5.334c.547.534.547 1.31 0 1.843a1.375 1.375 0 0 1-.944.388c-.348 0-.746-.146-.995-.388L13.342 4.51v11.347c0 .728-.596 1.31-1.342 1.31-.746 0-1.342-.582-1.342-1.31V4.51L7.476 7.565z"/>
    </g>
</svg>
