<svg xmlns="http://www.w3.org/2000/svg" width="22" height="22" viewBox="0 0 22 22">
    <g fill="#0070D2" fill-rule="evenodd">
        <path d="M11.8.786v.865C13.626 2.015 15 3.599 15 5.5c0 1.9-1.374 3.485-3.2 3.85v11.864A.792.792 0 0 1 11 22a.792.792 0 0 1-.8-.786V9.35C8.374 8.985 7 7.401 7 5.5c0-1.9 1.374-3.485 3.2-3.85V.787c0-.434.358-.786.8-.786.442 0 .8.352.8.786zM11 7.143a2 2 0 1 0 0-4 2 2 0 0 0 0 4zM18.8.786V12.65c1.826.364 3.2 1.948 3.2 3.849 0 1.9-1.374 3.485-3.2 3.85v.864A.792.792 0 0 1 18 22a.792.792 0 0 1-.8-.786v-.865c-1.826-.364-3.2-1.948-3.2-3.849 0-1.9 1.374-3.485 3.2-3.85V.787c0-.434.358-.786.8-.786.442 0 .8.352.8.786zM18 18a2 2 0 1 0 0-4 2 2 0 0 0 0 4zM4.8.786v8.722c1.826.364 3.2 1.949 3.2 3.85 0 1.9-1.374 3.485-3.2 3.848v4.008A.792.792 0 0 1 4 22a.792.792 0 0 1-.8-.786v-4.008C1.374 16.843 0 15.258 0 13.357c0-1.9 1.374-3.485 3.2-3.85V.787C3.2.352 3.558 0 4 0c.442 0 .8.352.8.786zM4 15a2 2 0 1 0 0-4 2 2 0 0 0 0 4z"/>
    </g>
</svg>
