<?xml version="1.0" encoding="UTF-8"?>
<svg width="28px" height="29px" viewBox="0 0 28 29" version="1.1" xmlns="http://www.w3.org/2000/svg" xmlns:xlink="http://www.w3.org/1999/xlink">
    <!-- Generator: sketchtool 42 (36781) - http://www.bohemiancoding.com/sketch -->
    <title>F16F176B-4501-4777-8121-2044CAB67058</title>
    <desc>Created with sketchtool.</desc>
    <defs></defs>
    <g id="Symbols" stroke="none" stroke-width="1" fill="none" fill-rule="evenodd">
        <g id="sidebar/v3-copy" transform="translate(-28.000000, -284.000000)" fill-rule="nonzero">
            <g id="Group-4" transform="translate(25.000000, 167.000000)">
                <g id="heart" transform="translate(3.000000, 118.000000)">
                    <g id="Group">
                        <g id="Shape">
                            <path d="M27.7295156,17.1733516 C26.8895156,16.0533516 26.0495156,16.0533516 23.9961641,17.1267031 L19.9828125,19.6 C19.4228125,19.9266484 18.1628125,20.02 16.9961641,20.02 C17.2295156,19.6 17.1361641,19.0866484 16.7161641,18.48 C15.9695156,17.4066484 14.7095156,16.7533516 13.3561641,16.7533516 L11.5361641,16.7533516 C10.5561641,16.7533516 9.6228125,16.4733516 8.87616406,15.9133516 C7.19228125,14.6504531 4.55913281,16.0246406 3.27616406,16.8442969 L3.27616406,15.8667031 L0.009515625,15.8667031 L0.009515625,28 L3.27616406,28 L3.27616406,26.6 L9.3428125,26.6 C10.2761641,26.6 11.2561641,26.5066484 12.1894609,26.46 L18.2561094,25.5266484 C18.4894609,25.5266484 18.7227578,25.48 18.9094609,25.4332969 C19.4694609,25.3399453 19.9828125,25.0599453 20.4494609,24.6399453 L27.4961094,19.0399453 C28.0561641,18.5733516 28.1495156,17.7333516 27.7295156,17.1733516 Z M2.3428125,27.0666484 L0.9428125,27.0666484 L0.9428125,16.8 L2.3428125,16.8 L2.3428125,17.5 L2.3428125,26.6 L2.3428125,27.0666484 Z M26.9361641,18.3866484 L19.8428125,23.8933516 L19.7961641,23.94 C19.5161641,24.2666484 19.1428125,24.4533516 18.7228125,24.5 C18.5361641,24.5466484 18.3961641,24.5466484 18.2094609,24.5466484 L12.0494609,25.48 C11.1628125,25.62 10.2294609,25.6666484 9.3428125,25.6666484 L3.27616406,25.6666484 L3.27616406,17.9666484 C4.39616406,17.1732969 7.00951562,15.68 8.31616406,16.7066484 C9.2028125,17.36 10.3228125,17.7332969 11.5361641,17.7332969 L13.3561641,17.7332969 C14.4295156,17.7332969 15.4095156,18.1999453 16.0161641,19.0866484 C16.2028125,19.3666484 16.2495156,19.6466484 16.2028125,19.74 C16.0628125,19.9733516 15.5028125,20.0666484 14.8961641,20.1133516 L14.5568281,20.1133516 C14.4928984,20.0832734 14.4187422,20.0667031 14.3361641,20.0667031 L9.80951562,20.0667031 C8.36286719,20.0667031 7.47616406,20.7667031 7.47616406,21.9333516 C7.47616406,22.2133516 7.6628125,22.4 7.9428125,22.4 C8.2228125,22.4 8.40946094,22.2133516 8.40946094,21.9333516 C8.40946094,21.7 8.40946094,21 9.80946094,21 L14.3361094,21 C14.3369297,21 14.3376406,20.9998906 14.3384609,20.9998906 L14.3361094,21.0466484 L14.9427578,21.0466484 L15.1761094,21.0466484 C17.3694609,21.0932969 19.4227578,21.0466484 20.4961094,20.4866484 L24.5094609,18.0132969 C26.4694609,17.0332969 26.6561094,17.2666484 27.0294609,17.8266484 C27.1228125,17.9666484 27.1228125,18.2466484 26.9361641,18.3866484 Z" fill="#FFFFFF"></path>
                            <path d="M8.68951562,10.5466484 L14.6628672,15.6332969 C14.7562187,15.7266484 14.8962187,15.7732969 15.0362187,15.7732969 C15.1762187,15.7732969 15.3162187,15.7266484 15.4095703,15.6332969 L21.3361641,10.5 C22.5961641,9.42664844 23.4828125,8.02664844 23.8561641,6.53335156 C24.0895156,5.50670312 24.0428125,4.85335156 23.9961641,4.71335156 C23.7628125,2.00664844 21.5695156,0 18.9561641,0 C17.2295156,0 15.7828125,1.16664844 14.9428125,2.47335156 C14.1028125,1.16664844 12.6095156,0 10.8828125,0 C8.26946094,0 6.30946094,1.96 6.02946094,4.76 C5.9828125,4.9 5.88946094,5.55335156 6.16946094,6.58 C6.5428125,8.07335156 7.42951562,9.47335156 8.68951562,10.5466484 Z M6.9628125,4.85335156 L6.9628125,4.80670313 C7.19616406,2.52 8.7828125,0.933351563 10.8828125,0.933351563 C12.5161641,0.933351563 13.8694609,2.28670312 14.4761641,3.64 L14.8961641,4.62 L15.3161641,3.64 C15.9228125,2.28664844 17.2761641,0.933351563 18.9561641,0.933351563 C21.1028125,0.933351563 22.8761641,2.61335156 23.0161641,4.85335156 C23.0161641,4.85335156 23.1095156,5.36670312 22.8761641,6.3 C22.5495156,7.60664844 21.8028125,8.82 20.6828125,9.8 L14.9894609,14.7 L9.29610937,9.8 C8.17610937,8.82 7.42946094,7.60664844 7.10275781,6.3 C6.86951562,5.36664844 6.9628125,4.85335156 6.9628125,4.85335156 Z" stroke="#19BBFF" fill="#19BBFF"></path>
                        </g>
                    </g>
                </g>
            </g>
        </g>
    </g>
</svg>