<?xml version="1.0" encoding="UTF-8"?>
<svg width="28px" height="28px" viewBox="0 0 28 28" version="1.1" xmlns="http://www.w3.org/2000/svg" xmlns:xlink="http://www.w3.org/1999/xlink">
    <!-- Generator: Sketch 50.2 (55047) - http://www.bohemiancoding.com/sketch -->
    <title>view-my-plan-hover</title>
    <desc>Created with Sketch.</desc>
    <defs></defs>
    <g id="Page-1" stroke="none" stroke-width="1" fill="none" fill-rule="evenodd">
        <g id="[VD]-PTF---Left-Nav-(Desktop)" transform="translate(-61.000000, -522.000000)" fill="#00437D">
            <g id="view-my-plan-hover" transform="translate(61.000000, 522.000000)">
                <path d="M15.0181818,1.00036364 L15.0181818,2.10127273 C17.3421818,2.56454545 19.0909091,4.58054545 19.0909091,7 C19.0909091,9.41818182 17.3421818,11.4354545 15.0181818,11.9 L15.0181818,26.9996364 C15.0161668,27.267422 14.9076772,27.5233995 14.7166547,27.7110791 C14.5256323,27.8987586 14.2677795,28.0027126 14,28 C13.7322205,28.0027126 13.4743677,27.8987586 13.2833453,27.7110791 C13.0923228,27.5233995 12.9838332,27.267422 12.9818182,26.9996364 L12.9818182,11.9 C10.6578182,11.4354545 8.90909091,9.41945455 8.90909091,7 C8.90909091,4.58181818 10.6578182,2.56454545 12.9818182,2.1 L12.9818182,1.00163636 C12.9818182,0.449272727 13.4374545,0.00127272727 14,0.00127272727 C14.5625455,0.00127272727 15.0181818,0.449272727 15.0181818,1.00163636 L15.0181818,1.00036364 Z M14,9.09109091 C15.4058157,9.09109091 16.5454545,7.95145209 16.5454545,6.54563636 C16.5454545,5.13982064 15.4058157,4.00018182 14,4.00018182 C12.5941843,4.00018182 11.4545455,5.13982064 11.4545455,6.54563636 C11.4545455,7.95145209 12.5941843,9.09109091 14,9.09109091 Z M23.9272727,1.00036364 L23.9272727,16.1 C26.2512727,16.5632727 28,18.5792727 28,20.9987273 C28,23.4169091 26.2512727,25.4341818 23.9272727,25.8987273 L23.9272727,26.9983636 C23.9255945,27.2663706 23.817253,27.5226753 23.6261938,27.7106298 C23.4351345,27.8985843 23.1770894,28.0027124 22.9090909,28 C22.6413114,28.0027126 22.3834586,27.8987586 22.1924362,27.7110791 C22.0014137,27.5233995 21.8929241,27.267422 21.8909091,26.9996364 L21.8909091,25.8987273 C19.5669091,25.4354545 17.8181818,23.4194545 17.8181818,21 C17.8181818,18.5818182 19.5669091,16.5645455 21.8909091,16.1 L21.8909091,1.00163636 C21.8909091,0.449272727 22.3465455,0.00127272727 22.9090909,0.00127272727 C23.4716364,0.00127272727 23.9272727,0.449272727 23.9272727,1.00163636 L23.9272727,1.00036364 Z M22.9090909,22.9090909 C24.3149066,22.9090909 25.4545455,21.7694521 25.4545455,20.3636364 C25.4545455,18.9578206 24.3149066,17.8181818 22.9090909,17.8181818 C21.5032752,17.8181818 20.3636364,18.9578206 20.3636364,20.3636364 C20.3636364,21.7694521 21.5032752,22.9090909 22.9090909,22.9090909 Z M6.10909091,1.00036364 L6.10909091,12.1010909 C8.43309091,12.5643636 10.1818182,14.5816364 10.1818182,17.0010909 C10.1818182,19.4192727 8.43309091,21.4365455 6.10909091,21.8985455 L6.10909091,26.9996364 C6.10707591,27.267422 5.99858628,27.5233995 5.80756382,27.7110791 C5.61654137,27.8987586 5.35868855,28.0027126 5.09090909,28 C4.82312963,28.0027126 4.56527682,27.8987586 4.37425436,27.7110791 C4.1832319,27.5233995 4.07474227,27.267422 4.07272727,26.9996364 L4.07272727,21.8985455 C1.74872727,21.4365455 0,19.4192727 0,16.9998182 C0,14.5816364 1.74872727,12.5643636 4.07272727,12.0998182 L4.07272727,1.00163636 C4.07272727,0.448 4.52836364,0 5.09090909,0 C5.65345455,0 6.10909091,0.448 6.10909091,1.00036364 Z M5.09090909,19.0909091 C6.49672482,19.0909091 7.63636364,17.9512703 7.63636364,16.5454545 C7.63636364,15.1396388 6.49672482,14 5.09090909,14 C3.68509336,14 2.54545455,15.1396388 2.54545455,16.5454545 C2.54545455,17.9512703 3.68509336,19.0909091 5.09090909,19.0909091 Z" id="Shape"></path>
            </g>
        </g>
    </g>
</svg>