<?xml version="1.0" encoding="UTF-8"?>
<svg width="36px" height="36px" viewBox="0 0 36 36" version="1.1" xmlns="http://www.w3.org/2000/svg" xmlns:xlink="http://www.w3.org/1999/xlink">
    <!-- Generator: Sketch 50.2 (55047) - http://www.bohemiancoding.com/sketch -->
    <title>Group 22</title>
    <desc>Created with Sketch.</desc>
    <defs></defs>
    <g id="Page-1" stroke="none" stroke-width="1" fill="none" fill-rule="evenodd">
        <g id="[VD]-PTF---Left-Nav-(Desktop)" transform="translate(-1228.000000, -988.000000)" fill="#FFFFFF">
            <g id="Group-22" transform="translate(1228.000000, 988.000000)">
                <path d="M19.3090552,1.28617944 L19.3090552,2.70163137 C22.2970497,3.29726663 24.5454092,5.88926184 24.5454092,8.99998336 C24.5454092,12.1090685 22.2970497,14.7027001 19.3090552,15.2999717 L19.3090552,34.713754 C19.3064645,35.0580491 19.1669781,35.3871625 18.9213782,35.6284643 C18.6757784,35.8697662 18.344254,36.003421 17.9999667,35.9999334 C17.6556795,36.003421 17.324155,35.8697662 17.0785552,35.6284643 C16.8329553,35.3871625 16.6934689,35.0580491 16.6908782,34.713754 L16.6908782,15.2999717 C13.7028837,14.7027001 11.4545243,12.1107049 11.4545243,8.99998336 C11.4545243,5.8908982 13.7028837,3.29726663 16.6908782,2.69999501 L16.6908782,1.2878158 C16.6908782,0.577635295 17.2766953,0.00163636061 17.9999667,0.00163636061 C18.7232381,0.00163636061 19.3090552,0.577635295 19.3090552,1.2878158 L19.3090552,1.28617944 Z M17.9999667,11.6885238 C19.8074407,11.6885238 21.2726879,10.2232766 21.2726879,8.41580262 C21.2726879,6.6083286 19.8074407,5.1430814 17.9999667,5.1430814 C16.1924927,5.1430814 14.7272455,6.6083286 14.7272455,8.41580262 C14.7272455,10.2232766 16.1924927,11.6885238 17.9999667,11.6885238 Z M30.7635795,1.28617944 L30.7635795,20.6999617 C33.7515739,21.295597 35.9999334,23.8875922 35.9999334,26.9983137 C35.9999334,30.1073989 33.7515739,32.7010304 30.7635795,33.2983021 L30.7635795,34.7121176 C30.7614217,35.0566974 30.6221258,35.3862313 30.3764787,35.6278867 C30.1308315,35.8695421 29.7990598,36.0034208 29.454491,35.9999334 C29.1102037,36.003421 28.7786793,35.8697662 28.5330795,35.6284643 C28.2874796,35.3871625 28.1479932,35.0580491 28.1454025,34.713754 L28.1454025,33.2983021 C25.157408,32.7026668 22.9090485,30.1106716 22.9090485,26.9999501 C22.9090485,23.8908649 25.157408,21.2972333 28.1454025,20.6999617 L28.1454025,1.2878158 C28.1454025,0.577635295 28.7312196,0.00163636061 29.454491,0.00163636061 C30.1777624,0.00163636061 30.7635795,0.577635295 30.7635795,1.2878158 L30.7635795,1.28617944 Z M29.454491,29.454491 C31.261965,29.454491 32.7272122,27.9892438 32.7272122,26.1817698 C32.7272122,24.3742957 31.261965,22.9090485 29.454491,22.9090485 C27.647017,22.9090485 26.1817698,24.3742957 26.1817698,26.1817698 C26.1817698,27.9892438 27.647017,29.454491 29.454491,29.454491 Z M7.85453093,1.28617944 L7.85453093,15.5585167 C10.8425254,16.1541519 13.0908849,18.7477835 13.0908849,21.858505 C13.0908849,24.9675902 10.8425254,27.5612218 7.85453093,28.1552207 L7.85453093,34.713754 C7.85194022,35.0580491 7.71245381,35.3871625 7.46685396,35.6284643 C7.22125411,35.8697662 6.88972968,36.003421 6.54544244,35.9999334 C6.2011552,36.003421 5.86963077,35.8697662 5.62403092,35.6284643 C5.37843107,35.3871625 5.23894466,35.0580491 5.23635395,34.713754 L5.23635395,28.1552207 C2.24835948,27.5612218 0,24.9675902 0,21.8568687 C0,18.7477835 2.24835948,16.1541519 5.23635395,15.5568803 L5.23635395,1.2878158 C5.23635395,0.575998935 5.82217105,0 6.54544244,0 C7.26871383,0 7.85453093,0.575998935 7.85453093,1.28617944 Z M6.54544244,24.5454092 C8.35291646,24.5454092 9.81816366,23.080162 9.81816366,21.2726879 C9.81816366,19.4652139 8.35291646,17.9999667 6.54544244,17.9999667 C4.73796842,17.9999667 3.27272122,19.4652139 3.27272122,21.2726879 C3.27272122,23.080162 4.73796842,24.5454092 6.54544244,24.5454092 Z" id="Shape"></path>
            </g>
        </g>
    </g>
</svg>