<svg xmlns="http://www.w3.org/2000/svg" width="32" height="32" viewBox="0 0 32 32">
    <g fill="none" fill-rule="evenodd" transform="translate(1 1)">
        <circle cx="15" cy="15" r="15" stroke="#07366D"/>
        <path fill="#07366D" fill-rule="nonzero" d="M24.566 13.731c.394-.384.533-.947.363-1.47a1.426 1.426 0 0 0-1.158-.976l-4.843-.704a.633.633 0 0 1-.476-.347l-2.165-4.388A1.426 1.426 0 0 0 15 5.047c-.55 0-1.043.306-1.286.8l-2.165 4.387a.633.633 0 0 1-.477.347l-4.843.704a1.425 1.425 0 0 0-1.158.976c-.17.523-.03 1.086.363 1.47l3.504 3.415c.15.146.218.356.183.561l-.827 4.823a1.425 1.425 0 0 0 .57 1.403 1.422 1.422 0 0 0 1.51.109l4.331-2.277a.634.634 0 0 1 .59 0l4.331 2.277a1.433 1.433 0 0 0 2.081-1.512l-.827-4.823a.634.634 0 0 1 .182-.56l3.504-3.416zm-4.475 4.112l.827 4.822a.622.622 0 0 1-.252.62.624.624 0 0 1-.667.048l-4.331-2.277a1.44 1.44 0 0 0-1.335 0l-4.33 2.277a.624.624 0 0 1-.668-.048.622.622 0 0 1-.252-.62l.827-4.822c.08-.466-.074-.94-.412-1.27l-3.505-3.415a.62.62 0 0 1-.16-.65.621.621 0 0 1 .511-.43l4.842-.705c.468-.067.872-.36 1.08-.784L14.433 6.2A.621.621 0 0 1 15 5.848c.247 0 .459.132.568.353l2.166 4.388c.208.424.612.717 1.08.784l4.842.704a.621.621 0 0 1 .51.431.622.622 0 0 1-.16.65l-3.503 3.415c-.338.33-.492.804-.412 1.27z"/>
    </g>
</svg>
