<svg xmlns="http://www.w3.org/2000/svg" width="32" height="32" viewBox="0 0 32 32">
    <g fill="none" fill-rule="evenodd" transform="translate(1 1)">
        <circle cx="15" cy="15" r="15" stroke="#16325C"/>
        <path fill="#16325C" fill-rule="nonzero" d="M23.363 8.777a5.485 5.485 0 0 0-3.91-1.618A5.499 5.499 0 0 0 15.54 8.78l-.546.547-.555-.555a5.513 5.513 0 0 0-3.919-1.627 5.493 5.493 0 0 0-3.906 1.618 5.477 5.477 0 0 0-1.618 3.915c0 1.478.58 2.863 1.627 3.91l7.955 7.955a.571.571 0 0 0 .805.004l7.973-7.942a5.499 5.499 0 0 0 1.622-3.915 5.473 5.473 0 0 0-1.614-3.914zm-.813 7.02l-7.57 7.54-7.553-7.553a4.361 4.361 0 0 1-1.288-3.105 4.34 4.34 0 0 1 1.283-3.101 4.355 4.355 0 0 1 3.097-1.284c1.174 0 2.28.458 3.11 1.288l.957.957a.57.57 0 0 0 .809 0l.949-.948a4.368 4.368 0 0 1 3.105-1.288c1.17 0 2.27.457 3.101 1.283a4.357 4.357 0 0 1 1.284 3.105 4.34 4.34 0 0 1-1.284 3.106z"/>
    </g>
</svg>
