<svg xmlns="http://www.w3.org/2000/svg" width="78" height="77" viewBox="0 0 78 77">
    <path fill="#0070D2" fill-rule="nonzero" d="M73.348 16.115L50.805 38.66l22.543 22.545c3.354 3.354 6.664 5.477 0 12.143-6.663 6.665-10.463 1.676-12.137 0L38.662 50.8 16.115 73.348c-1.675 1.676-5.758 6.38-12.138 0s-3.354-8.787 0-12.143L26.52 38.66 3.975 16.115c-3.353-3.354-6.95-5.196 0-12.142 6.95-6.947 8.785-3.35 12.139 0l22.548 22.546L61.208 3.973c3.355-3.35 5.244-6.892 12.14 0 6.894 6.892 3.354 8.788 0 12.142z"/>
</svg>
