<svg xmlns="http://www.w3.org/2000/svg" width="118" height="118" viewBox="0 0 118 118">
    <path fill="#B4C0D6" fill-rule="nonzero" stroke="#B4C0D6" stroke-width=".5" d="M102.376 97.444C111.464 87.202 117 73.738 117 59c0-15.334-5.992-29.286-15.744-39.668v-.002c-.008-.012-.02-.016-.026-.026C91.072 8.506 76.84 1.594 61.01 1.052l-.002-.002-1.13-.03C59.586 1.01 59.294 1 59 1c-.294 0-.586.01-.878.02l-1.126.03-.002.002c-15.83.542-30.062 7.454-40.22 18.252-.008.01-.02.014-.026.026l-.002.004C6.992 29.714 1 43.666 1 59c0 14.738 5.536 28.202 14.624 38.444.012.018.012.038.026.056.036.05.088.074.126.12 10.212 11.416 24.864 18.77 41.216 19.33l.002.002 1.126.03c.294.008.586.018.88.018.294 0 .586-.01.878-.02l1.126-.03.002-.002c16.37-.562 31.038-7.93 41.25-19.37.026-.034.068-.044.092-.08.016-.016.016-.036.028-.054zM5.05 61h24.006a73.912 73.912 0 0 0 4.83 24.434 73.746 73.746 0 0 0-16.222 8.262C10.17 84.782 5.506 73.42 5.05 61zm13.706-37.954a73.566 73.566 0 0 0 15.8 7.764c-3.384 8.214-5.256 17.07-5.5 26.19H5.05c.478-13.014 5.574-24.864 13.706-33.954zM112.95 57H88.944c-.244-9.12-2.116-17.976-5.5-26.19a73.566 73.566 0 0 0 15.8-7.764c8.132 9.09 13.228 20.94 13.706 33.954zM57 30.926a69.917 69.917 0 0 1-16.942-2.566C44.112 20.044 49.836 12.538 57 6.288v24.638zm0 4V57H33.056c.246-8.696 2.07-17.13 5.332-24.95A73.897 73.897 0 0 0 57 34.926zm4 0a73.836 73.836 0 0 0 18.614-2.876C82.876 39.87 84.7 48.304 84.946 57H61V34.926zm0-4V6.288c7.164 6.25 12.888 13.756 16.942 22.072A69.917 69.917 0 0 1 61 30.926zm20.818-3.782c-3.842-8.05-9.174-15.384-15.776-21.67 11.712 1.532 22.25 6.828 30.366 14.636a69.564 69.564 0 0 1-14.59 7.034zm-45.636 0a69.501 69.501 0 0 1-14.588-7.034C29.708 12.302 40.248 7.006 51.96 5.474c-6.604 6.286-11.936 13.62-15.778 21.67zM33.056 61H57v20.076c-6.614.176-13.094 1.208-19.322 3.082A69.849 69.849 0 0 1 33.056 61zM57 85.076v26.636c-7.668-6.69-13.68-14.818-17.768-23.834A69.734 69.734 0 0 1 57 85.076zm4 26.636V85.076a69.732 69.732 0 0 1 17.768 2.8c-4.088 9.018-10.1 17.146-17.768 23.836zm0-30.636V61h23.944a69.822 69.822 0 0 1-4.624 23.16c-6.226-1.876-12.706-2.908-19.32-3.084zM88.944 61h24.006c-.456 12.42-5.118 23.782-12.614 32.696a73.746 73.746 0 0 0-16.222-8.262A73.861 73.861 0 0 0 88.944 61zM20.382 96.692a69.701 69.701 0 0 1 15.034-7.562 73.8 73.8 0 0 0 16.542 23.396c-12.302-1.61-23.312-7.37-31.576-15.834zm45.66 15.834A73.756 73.756 0 0 0 82.584 89.13a69.747 69.747 0 0 1 15.034 7.562c-8.264 8.464-19.274 14.224-31.576 15.834z"/>
</svg>
