<svg width="16" height="21" viewBox="0 0 16 21" xmlns="http://www.w3.org/2000/svg"><title>75066BA2-F6B5-4038-866F-082AFD0208A5</title><g stroke="#9DABBA" stroke-width=".5" fill="#9DABBA" fill-rule="nonzero"><path d="M8.164 5.396A2.567 2.567 0 0 0 5.6 7.96a2.567 2.567 0 0 0 2.564 2.564 2.567 2.567 0 0 0 2.564-2.564 2.567 2.567 0 0 0-2.564-2.564zm0 4.395A1.834 1.834 0 0 1 6.332 7.96c0-1.01.822-1.832 1.832-1.832 1.01 0 1.831.822 1.831 1.832 0 1.01-.821 1.831-1.831 1.831z"/><path d="M13.066 3.058A6.979 6.979 0 0 0 8.099 1c-1.877 0-3.64.73-4.967 2.058-2.455 2.454-2.76 7.074-.66 9.872l5.056 7.303c.315.456.827.455 1.14.002l5.05-7.294c2.108-2.81 1.803-7.429-.652-9.883zm.058 9.455L8.1 19.77l-5.033-7.268c-1.905-2.54-1.632-6.71.584-8.927A6.25 6.25 0 0 1 8.1 1.733c1.68 0 3.26.654 4.449 1.842 2.216 2.216 2.489 6.388.576 8.938z"/></g></svg>