<svg xmlns="http://www.w3.org/2000/svg" xmlns:xlink="http://www.w3.org/1999/xlink" width="120" height="120" viewBox="0 0 120 120">
    <defs>
        <circle id="a" cx="43.583" cy="43.583" r="38.602"/>
    </defs>
    <g fill="none" fill-rule="nonzero">
        <path fill="#344A5E" d="M75.95 87.251l-8.805-8.805L78.59 67l8.805 8.805z"/>
        <g>
            <use fill="#8AD7F8" fill-rule="evenodd" xlink:href="#a"/>
            <circle cx="43.583" cy="43.583" r="33.602" stroke="#FFF" stroke-width="10"/>
        </g>
        <path fill="#415A6B" d="M74.465 74.465C57.53 91.4 29.636 91.4 12.7 74.465c-16.935-16.935-16.935-44.829 0-61.764 16.935-16.935 44.829-16.935 61.764 0 16.935 16.935 17.184 44.829 0 61.764zM19.924 19.924a33.52 33.52 0 0 0 0 47.567 33.52 33.52 0 0 0 47.567 0 33.52 33.52 0 0 0 0-47.567c-13.199-13.2-34.617-13.2-47.567 0z"/>
        <path fill="#F3705A" d="M88.91 73.718c13.2 9.215 23.161 16.437 26.15 19.674 5.977 5.978 5.977 15.69 0 21.668-5.978 5.977-15.69 5.977-21.668 0-2.988-2.989-10.46-12.95-19.674-26.15L88.91 73.718z"/>
        <path fill="#F05540" d="M78.699 95.883c-1.494-2.241-3.238-4.483-4.732-6.724l15.192-15.192c2.49 1.743 4.732 3.238 6.724 4.732L78.699 95.883z"/>
        <path fill="#F3705A" d="M76.457 91.65L91.65 76.456c1.495-1.494 1.495-3.985 0-5.479-1.494-1.494-3.984-1.494-5.479 0L70.978 86.17c-1.494 1.495-1.494 3.985 0 5.48 1.495 1.742 3.985 1.742 5.48 0z"/>
    </g>
</svg>
