<svg width="20" height="20" viewBox="0 0 20 20" xmlns="http://www.w3.org/2000/svg"><title>200F7E22-61ED-4D5C-85F2-10A3A591137E</title><g fill-rule="nonzero" fill="#9DABBA"><path d="M15.8 12.384c-.41-.426-.903-.654-1.426-.654-.52 0-1.017.224-1.443.65l-1.334 1.33c-.11-.06-.22-.115-.325-.17a5.362 5.362 0 0 1-.417-.223c-1.25-.794-2.384-1.827-3.473-3.165-.527-.667-.882-1.228-1.14-1.797.347-.317.668-.646.98-.962.118-.118.236-.24.354-.359.886-.886.886-2.034 0-2.92L6.424 2.962c-.13-.13-.266-.266-.392-.4a19.923 19.923 0 0 0-.793-.785c-.41-.405-.9-.62-1.414-.62-.515 0-1.013.215-1.434.62l-.009.008L.948 3.232a3.087 3.087 0 0 0-.916 1.962c-.101 1.232.262 2.38.54 3.131.684 1.844 1.705 3.553 3.228 5.384a19.856 19.856 0 0 0 6.612 5.177c.97.46 2.265 1.005 3.713 1.097.088.005.181.009.266.009.974 0 1.793-.35 2.434-1.047.004-.008.013-.012.017-.02.22-.267.473-.507.738-.764.182-.173.368-.355.549-.545.418-.434.637-.94.637-1.46 0-.523-.224-1.025-.65-1.447L15.8 12.384zm1.51 4.443c-.004 0-.004.004 0 0-.164.177-.333.338-.514.515-.275.262-.553.536-.815.844-.426.456-.928.67-1.586.67-.064 0-.131 0-.194-.003-1.253-.08-2.418-.57-3.291-.988a18.743 18.743 0 0 1-6.228-4.877c-1.44-1.735-2.401-3.338-3.038-5.06-.393-1.05-.536-1.869-.473-2.64.042-.494.232-.904.582-1.254l1.44-1.439c.206-.194.425-.3.64-.3.266 0 .482.16.617.296l.012.013c.258.24.502.49.76.755.13.135.266.27.4.41L6.776 4.92c.447.447.447.86 0 1.308-.123.122-.241.245-.363.363-.355.363-.692.7-1.06 1.03-.008.008-.016.012-.02.02-.363.363-.296.718-.22.958l.013.038c.3.726.721 1.41 1.363 2.224l.004.004c1.164 1.435 2.392 2.553 3.747 3.41.173.11.35.198.519.282.152.076.295.148.417.224.017.008.034.02.051.03a.915.915 0 0 0 .418.105c.35 0 .57-.22.641-.291l1.443-1.443c.144-.144.371-.317.637-.317.262 0 .477.165.608.308l.008.009 2.325 2.325c.435.43.435.873.004 1.32zM10.804 4.756a5.35 5.35 0 0 1 2.911 1.51 5.379 5.379 0 0 1 1.511 2.911.566.566 0 0 0 .561.473c.034 0 .063-.004.097-.008a.57.57 0 0 0 .469-.659 6.508 6.508 0 0 0-1.827-3.523 6.508 6.508 0 0 0-3.524-1.827.573.573 0 0 0-.658.464.563.563 0 0 0 .46.659zM19.969 8.819a10.706 10.706 0 0 0-3.009-5.802A10.706 10.706 0 0 0 11.158.01a.567.567 0 0 0-.654.464.572.572 0 0 0 .469.658 9.587 9.587 0 0 1 5.185 2.688 9.559 9.559 0 0 1 2.688 5.185.566.566 0 0 0 .561.473c.034 0 .064-.004.097-.008a.559.559 0 0 0 .465-.65z"/></g></svg>