<svg width="12" height="12" viewBox="0 0 12 12" xmlns="http://www.w3.org/2000/svg"><title>EBFF6628-9BF9-4C07-A3D7-76DFE43D689E</title><g fill-rule="nonzero" fill="#FFF"><path d="M9.646 2.457h-.308v-.686C9.338.795 8.543 0 7.566 0H3.847c-.976 0-1.771.795-1.771 1.771v.686h-.281c-.976 0-1.771.795-1.771 1.772v2.857c0 .976.795 1.771 1.771 1.771h.278v2.246c0 .487.398.885.885.885H8.45a.886.886 0 0 0 .884-.885V8.857h.311c.976 0 1.771-.795 1.771-1.771V4.229c0-.977-.795-1.772-1.771-1.772zm-6.902-.686c0-.606.495-1.1 1.1-1.1h3.717c.607 0 1.101.494 1.101 1.1v.686H2.744v-.686zm5.92 9.337a.215.215 0 0 1-.213.214H2.958a.215.215 0 0 1-.214-.214V7.404h5.92v3.704zm2.083-4.02c0 .606-.495 1.1-1.101 1.1h-.308v-.784h.442c.186 0 .336-.15.336-.336a.334.334 0 0 0-.336-.335H1.581a.334.334 0 0 0-.335.335c0 .187.149.336.335.336h.495v.785h-.281c-.606 0-1.1-.495-1.1-1.1V4.23c0-.606.494-1.1 1.1-1.1h7.851c.606 0 1.1.494 1.1 1.1v2.857z"/><path d="M3.557 9.053h4.27c.187 0 .336-.149.336-.335a.334.334 0 0 0-.336-.335h-4.27a.336.336 0 0 0 0 .67zM7.855 9.754H3.58a.334.334 0 0 0-.335.335c0 .187.149.336.335.336h4.271c.187 0 .336-.15.336-.336a.333.333 0 0 0-.333-.335zM9.639 3.774h-.681a.334.334 0 0 0-.336.335c0 .187.15.336.336.336h.68c.187 0 .336-.15.336-.336a.334.334 0 0 0-.335-.335z"/></g></svg>