<svg width="32" height="32" viewBox="0 0 32 32" xmlns="http://www.w3.org/2000/svg"><title>D9276BEE-0E6B-4078-BFE5-8CFF799592CD</title><g transform="translate(1 1)" fill="none" fill-rule="evenodd"><ellipse stroke="#07366D" cx="15" cy="15" rx="15" ry="15"/><path d="M22.858 9.431a.365.365 0 0 0 .302-.106l1.995-1.995a.37.37 0 0 0-.228-.63l-1.492-.135-.135-1.492a.37.37 0 0 0-.63-.228L20.674 6.84a.37.37 0 0 0-.106.302l.176 1.59-.373.373a8.2 8.2 0 0 0-5.18-2.15v-.702a.37.37 0 0 0-.74 0v.703c-4.246.188-7.665 3.607-7.853 7.852h-.703a.37.37 0 0 0 0 .74H6.6c.188 4.246 3.607 7.665 7.853 7.853v.703a.37.37 0 0 0 .74 0V23.4c4.245-.188 7.664-3.607 7.852-7.853h.703a.37.37 0 0 0 0-.74h-.703a8.2 8.2 0 0 0-2.149-5.18l.374-.373 1.589.176zm-.224-3.504l.092 1.012a.37.37 0 0 0 .335.335l1.012.092-1.31 1.31-1.295-.144-.144-1.295 1.31-1.31zm-.33 8.881h-.521a.37.37 0 0 0 0 .74h.521a7.502 7.502 0 0 1-7.112 7.113v-.521a.37.37 0 0 0-.74 0v.52a7.502 7.502 0 0 1-7.113-7.112h.521a.37.37 0 0 0 0-.74h-.52a7.502 7.502 0 0 1 7.112-7.112v.521a.37.37 0 0 0 .74 0v-.521a7.463 7.463 0 0 1 4.656 1.932l-1.113 1.114a5.894 5.894 0 0 0-3.914-1.483 5.926 5.926 0 0 0-5.919 5.92 5.926 5.926 0 0 0 5.92 5.919 5.926 5.926 0 0 0 5.919-5.92c0-1.499-.56-2.87-1.483-3.913l1.114-1.113a7.463 7.463 0 0 1 1.932 4.656zm-7.744.632a.369.369 0 0 0 .523 0l2.01-2.01c.373.485.596 1.091.596 1.748a2.87 2.87 0 0 1-2.868 2.868 2.87 2.87 0 0 1-2.867-2.868 2.87 2.87 0 0 1 2.867-2.867c.658 0 1.264.223 1.748.597l-2.01 2.009a.37.37 0 0 0 0 .523zm.262-3.869a3.611 3.611 0 0 0-3.608 3.607 3.611 3.611 0 0 0 3.608 3.608 3.611 3.611 0 0 0 3.607-3.608 3.59 3.59 0 0 0-.81-2.274l1.116-1.115A5.157 5.157 0 0 1 20 15.179a5.185 5.185 0 0 1-5.18 5.179 5.185 5.185 0 0 1-5.179-5.18A5.185 5.185 0 0 1 14.822 10c1.295 0 2.48.478 3.39 1.266l-1.116 1.116a3.59 3.59 0 0 0-2.274-.81z" fill="#07366D" fill-rule="nonzero"/></g></svg>