<?xml version="1.0" encoding="UTF-8"?>
<svg width="78px" height="78px" viewBox="0 0 78 78" version="1.1" xmlns="http://www.w3.org/2000/svg" xmlns:xlink="http://www.w3.org/1999/xlink">
    <!-- Generator: Sketch 42 (36781) - http://www.bohemiancoding.com/sketch -->
    <title>indifferent copy</title>
    <desc>Created with Sketch.</desc>
    <defs></defs>
    <g id="Success-Plan" stroke="none" stroke-width="1" fill="none" fill-rule="evenodd">
        <g id="Sprint-2-Icons" transform="translate(-135.000000, -96.000000)" fill-rule="nonzero">
            <g id="indifferent-copy" transform="translate(135.000000, 96.000000)">
                <path d="M75.132785,31.9488837 C75.132785,28.6192714 74.7323737,25.3836663 73.9850176,22.2840776 C71.8495887,17.8325499 68.8880729,13.8501763 65.3017039,10.5340776 C58.7238543,6.60458284 50.9756169,4.46298472 42.7482374,4.76292597 C20.0493537,5.59048179 2.3193302,24.6627497 3.14659224,47.3616334 C3.26792009,50.6824324 3.78407756,53.8948296 4.64101058,56.960047 C6.4926557,60.4882491 8.87044653,63.6985899 11.6721504,66.4841363 C18.1034078,70.6524677 25.7702703,73.0763807 34.0055817,73.0763807 C56.7191539,73.0763807 75.132785,54.6627497 75.132785,31.9488837 Z M53.5408343,24.8983549 C56.136604,24.8983549 58.2411868,27.0029377 58.2411868,29.5987074 C58.2411868,32.1944771 56.136604,34.2990599 53.5408343,34.2990599 C50.9450646,34.2990599 48.8404818,32.1944771 48.8404818,29.5987074 C48.8404818,27.0029377 50.9450646,24.8983549 53.5408343,24.8983549 Z M24.4574031,24.8983549 C27.0531727,24.8983549 29.1577556,27.0029377 29.1577556,29.5987074 C29.1577556,32.1944771 27.0531727,34.2990599 24.4574031,34.2990599 C21.8616334,34.2990599 19.7570505,32.1944771 19.7570505,29.5987074 C19.7570505,27.0029377 21.8616334,24.8983549 24.4574031,24.8983549 Z" id="Shape" fill="#E3E3E3"></path>
                <path d="M73.9850176,22.2840776 C74.7323737,25.38396 75.132785,28.6192714 75.132785,31.9488837 C75.132785,54.6627497 56.7191539,73.0763807 34.0052879,73.0763807 C25.7702703,73.0763807 18.103114,70.6524677 11.6718566,66.4841363 C18.6871328,73.4594595 28.3481199,77.7767333 38.9994125,77.7767333 C60.3813161,77.7767333 77.7767333,60.3813161 77.7767333,38.9994125 C77.7767333,33.0176263 76.4142186,27.3481199 73.9850176,22.2840776 Z" id="Shape" fill="#DADADA"></path>
                <path d="M42.7485311,4.76292597 C50.9759107,4.46298472 58.7241481,6.60428907 65.3019976,10.5340776 C58.3845476,4.13748531 49.1413043,0.222091657 38.9994125,0.222091657 C17.6175088,0.222091657 0.222091657,17.6175088 0.222091657,38.9994125 C0.222091657,45.4770858 1.82079906,51.5872503 4.64101058,56.960047 C3.78407756,53.8948296 3.26792009,50.6824324 3.14659224,47.3616334 C2.3193302,24.6627497 20.0493537,5.59048179 42.7485311,4.76292597 Z" id="Shape" fill="#EEEEEE"></path>
                <ellipse id="Oval" fill="#7F7F7F" cx="24.4574031" cy="29.5987074" rx="4.70035253" ry="4.70035253"></ellipse>
                <ellipse id="Oval" fill="#7F7F7F" cx="53.5408343" cy="29.5987074" rx="4.70035253" ry="4.70035253"></ellipse>
            </g>
        </g>
    </g>
</svg>