<svg width="78" height="78" viewBox="0 0 78 78" xmlns="http://www.w3.org/2000/svg"><title>DD8C97A7-4BCB-483B-8EC4-DABEBF5C76E0</title><g fill-rule="nonzero" fill="none"><path d="M75.133 31.949c0-3.33-.4-6.565-1.148-9.665a38.983 38.983 0 0 0-8.683-11.75 40.919 40.919 0 0 0-22.553-5.77c-22.7.826-40.43 19.899-39.602 42.598.12 3.32.637 6.533 1.494 9.598a38.98 38.98 0 0 0 7.031 9.524 40.923 40.923 0 0 0 22.334 6.592c22.713 0 41.127-18.413 41.127-41.127zM53.59 24.605a4.7 4.7 0 1 1 0 9.4 4.7 4.7 0 0 1 0-9.4zm-29.083 0a4.7 4.7 0 1 1 0 9.4 4.7 4.7 0 0 1 0-9.4zm-3.145 34.194l-3.712-2.885c6.3-8.102 16.86-11.979 26.906-9.88a27.052 27.052 0 0 1 15.792 9.88l-3.71 2.885a22.346 22.346 0 0 0-13.044-8.164c-8.3-1.736-17.028 1.47-22.232 8.164z" fill="#FFCE00"/><path d="M73.985 22.284a41.192 41.192 0 0 1 1.148 9.665c0 22.714-18.414 41.127-41.128 41.127a40.924 40.924 0 0 1-22.333-6.592c7.015 6.975 16.676 11.293 27.327 11.293 21.382 0 38.778-17.396 38.778-38.778a38.549 38.549 0 0 0-3.792-16.715z" fill="#FFB100"/><path d="M42.749 4.763a40.92 40.92 0 0 1 22.553 5.77C58.385 4.138 49.142.224 38.999.224 17.618.222.222 17.617.222 38.998A38.535 38.535 0 0 0 4.641 56.96a41.193 41.193 0 0 1-1.494-9.598c-.828-22.7 16.902-41.772 39.602-42.6z" fill="#FFE454"/><path d="M43.594 50.635A22.345 22.345 0 0 1 56.637 58.8l3.711-2.885a27.05 27.05 0 0 0-15.792-9.88c-10.045-2.099-20.607 1.778-26.906 9.88l3.712 2.885c5.204-6.695 13.931-9.9 22.232-8.164z" fill="#000"/><ellipse fill="#000" cx="24.507" cy="29.305" rx="4.7" ry="4.7"/><ellipse fill="#000" cx="53.59" cy="29.305" rx="4.7" ry="4.7"/></g></svg>