<svg width="78" height="78" viewBox="0 0 78 78" xmlns="http://www.w3.org/2000/svg"><title>DA9300E0-1129-4E8A-8A17-8F7B26BE2D5E</title><g fill-rule="nonzero" fill="none"><path d="M75.133 31.949c0-3.33-.4-6.565-1.148-9.665a38.98 38.98 0 0 0-8.683-11.75 40.922 40.922 0 0 0-22.554-5.771C20.05 5.59 2.32 24.663 3.147 47.362c.12 3.32.637 6.533 1.494 9.598a38.98 38.98 0 0 0 7.031 9.524 40.923 40.923 0 0 0 22.334 6.592c22.713 0 41.127-18.413 41.127-41.127zm-21.592-7.05a4.7 4.7 0 1 1 0 9.4 4.7 4.7 0 0 1 0-9.4zm-29.084 0a4.7 4.7 0 1 1 0 9.4 4.7 4.7 0 0 1 0-9.4z" fill="#FFCE00"/><path d="M73.985 22.284a41.187 41.187 0 0 1 1.148 9.665c0 22.714-18.414 41.127-41.128 41.127a40.924 40.924 0 0 1-22.333-6.592c7.015 6.975 16.676 11.293 27.327 11.293 21.382 0 38.778-17.396 38.778-38.778a38.547 38.547 0 0 0-3.792-16.715z" fill="#FFB100"/><path d="M42.749 4.763a40.92 40.92 0 0 1 22.553 5.771C58.385 4.137 49.142.222 38.999.222 17.618.222.222 17.618.222 39A38.534 38.534 0 0 0 4.641 56.96a41.193 41.193 0 0 1-1.494-9.598c-.828-22.7 16.902-41.772 39.602-42.6z" fill="#FFE454"/><ellipse fill="#000" cx="24.457" cy="29.599" rx="4.7" ry="4.7"/><ellipse fill="#000" cx="53.541" cy="29.599" rx="4.7" ry="4.7"/></g></svg>