<svg width="78" height="78" viewBox="0 0 78 78" xmlns="http://www.w3.org/2000/svg"><title>3DB1E823-71A3-4909-B493-3937D5E7EFE3</title><g fill-rule="nonzero" fill="none"><path d="M75.133 31.949c0-3.33-.4-6.565-1.148-9.665a38.983 38.983 0 0 0-8.683-11.75 40.922 40.922 0 0 0-22.553-5.771c-22.7.827-40.43 19.9-39.602 42.599.12 3.32.637 6.533 1.494 9.598a38.98 38.98 0 0 0 7.031 9.524 40.923 40.923 0 0 0 22.333 6.592c22.714 0 41.128-18.413 41.128-41.127zm-21.249-7.344a4.7 4.7 0 1 1 0 9.4 4.7 4.7 0 0 1 0-9.4zm-29.083 0a4.7 4.7 0 1 1 0 9.4 4.7 4.7 0 0 1 0-9.4zm-8.516 26.111l3.947-2.55c3.591 5.556 9.639 9.323 16.179 10.078 8.392.968 16.773-2.989 21.355-10.079l3.948 2.551c-4.99 7.721-13.704 12.372-22.798 12.372-1.012 0-2.027-.057-3.044-.175C27.952 62 20.63 57.44 16.285 50.716z" fill="#FFCE00"/><path d="M73.985 22.284a41.192 41.192 0 0 1 1.148 9.665c0 22.714-18.414 41.127-41.128 41.127a40.922 40.922 0 0 1-22.333-6.592C18.687 73.46 28.35 77.777 39 77.777c21.382 0 38.778-17.396 38.778-38.778a38.549 38.549 0 0 0-3.792-16.715z" fill="#FFB100"/><path d="M42.749 4.763a40.92 40.92 0 0 1 22.553 5.771C58.385 4.137 49.142.222 38.999.222 17.618.222.222 17.618.222 39A38.535 38.535 0 0 0 4.641 56.96a41.178 41.178 0 0 1-1.494-9.598c-.828-22.7 16.902-41.772 39.602-42.6z" fill="#FFE454"/><ellipse fill="#000" cx="24.801" cy="29.305" rx="4.7" ry="4.7"/><ellipse fill="#000" cx="53.884" cy="29.305" rx="4.7" ry="4.7"/><path d="M38.916 63.088c9.094 0 17.808-4.65 22.798-12.372l-3.948-2.55c-4.582 7.09-12.963 11.046-21.355 10.078-6.54-.754-12.588-4.522-16.179-10.079l-3.947 2.551C20.63 57.44 27.952 62 35.872 62.913c1.017.118 2.032.175 3.044.175z" fill="#000"/></g></svg>