<svg width="20" height="20" viewBox="0 0 20 20" xmlns="http://www.w3.org/2000/svg"><title>70C3B368-F8C7-474F-B545-61CD8771C94F</title><g fill-rule="nonzero" fill="#9DABBA"><path d="M10 19.88c5.47 0 9.897-4.444 9.897-9.897 0-5.47-4.444-9.898-9.897-9.898S.103 4.513.103 9.983c0 5.453 4.427 9.897 9.897 9.897zm0-18.41a8.514 8.514 0 0 1 0 17.026c-4.7 0-8.513-3.83-8.513-8.513C1.487 5.283 5.3 1.47 10 1.47z"/><path d="M9.538 11.145h3.3c.393 0 .7-.307.7-.7 0-.394-.307-.701-.7-.701h-2.599V5.675c0-.393-.307-.7-.7-.7-.394 0-.701.307-.701.7v4.77c0 .393.307.7.7.7z"/></g></svg>