<svg xmlns="http://www.w3.org/2000/svg" width="128" height="140" viewBox="0 0 128 140">
    <g fill="none" fill-rule="nonzero">
        <path fill="#6D8199" d="M.394 76.509c.004-6.212 1.864-14.673 5.58-25.384a1.795 1.795 0 0 1 2.966-.68L19.756 61.26c.446.446.625 1.095.471 1.707-1.46 5.805-2.19 10.308-2.185 13.51.006 25.3 20.58 45.874 45.874 45.874 25.275-.02 45.836-20.58 45.874-45.874-.026-25.295-20.586-45.855-45.874-45.874-.04-.004-.132 3.59-.278 10.784a1.795 1.795 0 0 1-3.066 1.23l-19.47-19.542a1.795 1.795 0 0 1 .001-2.534L60.488 1.104a1.795 1.795 0 0 1 3.066 1.267v10.584c35.429.02 63.864 28.455 63.858 63.515-.013 35.106-28.43 63.522-63.528 63.529C28.836 139.992.38 111.576.394 76.509z"/>
        <path fill="#C23934" d="M83.055 65.586l-12.563 12.66 12.563 12.658c1.868 1.884 3.713 3.076 0 6.818-3.714 3.743-5.831.942-6.764 0l-12.566-12.66-12.565 12.66c-.934.941-3.209 3.583-6.764 0-3.556-3.582-1.87-4.934 0-6.818l12.562-12.658-12.563-12.66c-1.869-1.882-3.873-2.917 0-6.817 3.873-3.9 4.895-1.881 6.764 0l12.566 12.66 12.564-12.66c1.87-1.881 2.923-3.87 6.765 0 3.842 3.87 1.87 4.935 0 6.817z"/>
    </g>
</svg>
