<svg width="104" height="150" viewBox="0 0 104 150" xmlns="http://www.w3.org/2000/svg"><title>C0C448A2-0387-4F5C-BD9D-0CF323757C27</title><g fill-rule="nonzero" fill="none"><path d="M9.388 18.714h84.49c5.185 0 9.388 4.19 9.388 9.356v112.281c0 5.167-4.203 9.357-9.388 9.357H9.388c-5.185 0-9.388-4.19-9.388-9.357V28.071c0-5.168 4.203-9.357 9.388-9.357z" fill="#BD6428"/><path d="M11.735 140.351a2.344 2.344 0 0 1-2.347-2.339V30.41a2.344 2.344 0 0 1 2.347-2.34h79.797a2.344 2.344 0 0 1 2.346 2.34v84.21l-25.816 25.731H11.735z" fill="#F5F6F6"/><path d="M28.164 28.07H23.47v-4.678c0-2.585 2.1-4.678 4.694-4.678v9.356z" fill="#A35623"/><path d="M93.878 114.62h-23.47a2.344 2.344 0 0 0-2.346 2.34v23.391l25.816-25.73z" fill="#CECECE"/><path d="M67.1 13.193a7.235 7.235 0 0 1-4.201-4.678c-1.815-6.201-8.33-9.761-14.552-7.953a11.71 11.71 0 0 0-7.98 7.953 7.235 7.235 0 0 1-4.2 4.678l-5.046 2.012a4.678 4.678 0 0 0-2.957 4.327v8.538c0 2.585 2.1 4.679 4.693 4.679H70.41a4.685 4.685 0 0 0 4.694-4.679v-8.538a4.678 4.678 0 0 0-2.957-4.327L67.1 13.193zm-15.467 3.182a4.685 4.685 0 0 1-4.694-4.679c0-2.585 2.1-4.678 4.694-4.678a4.685 4.685 0 0 1 4.694 4.678c0 2.585-2.1 4.679-4.694 4.679z" fill="#9BA7AF"/><path d="M42.55 11.696a2.342 2.342 0 0 1-2.347-2.924C41.548 3.584 46.256-.03 51.633 0a2.344 2.344 0 0 1 2.347 2.34 2.344 2.344 0 0 1-2.347 2.339 7.038 7.038 0 0 0-6.83 5.263 2.344 2.344 0 0 1-2.253 1.754z" fill="#AFBABF"/><ellipse fill="#3CB54A" cx="51.633" cy="77.193" rx="30.511" ry="30.409"/><path d="M69.024 64.538a4.706 4.706 0 0 0-6.637-.004l-.005.004L46.94 79.954l-5.586-5.521a4.279 4.279 0 0 0-.445-.538 4.706 4.706 0 0 0-6.638-.005l-.004.005a4.669 4.669 0 0 0-.005 6.615l.005.005 9.387 9.357a4.706 4.706 0 0 0 6.638.004l.004-.004 18.776-18.714a4.667 4.667 0 0 0-.042-6.615l-.005-.005z" fill="#FFF"/><path d="M69.024 64.538a4.677 4.677 0 0 0-1.385-.935 4.664 4.664 0 0 1-.962 5.216L47.901 87.532a4.706 4.706 0 0 1-6.637.005l-.004-.005 2.347 2.34a4.706 4.706 0 0 0 6.637.004l.004-.004 18.776-18.714a4.669 4.669 0 0 0 .005-6.615l-.005-.005z" fill="#DDDFE1"/><path d="M71.371 66.877a4.677 4.677 0 0 0-1.385-.935 4.664 4.664 0 0 1-.962 5.216L50.248 89.872a4.706 4.706 0 0 1-6.637.004l-.004-.004 2.347 2.339a4.706 4.706 0 0 0 6.637.004l.004-.004 18.776-18.714a4.669 4.669 0 0 0 .005-6.615l-.005-.005z" fill="#0E9347"/></g></svg>