<svg width="80" height="80" viewBox="0 0 80 80" xmlns="http://www.w3.org/2000/svg"><title>F7CF8051-89A5-448B-B0B2-0088B31DB845</title><g fill-rule="nonzero" fill="none"><path d="M61.611 0H3.331A3.34 3.34 0 0 0 0 3.33v73.268a3.34 3.34 0 0 0 3.33 3.33h73.268a3.34 3.34 0 0 0 3.33-3.33V18.317L61.611 0z" fill="#E3E3E3"/><path d="M61.611 14.987a3.34 3.34 0 0 0 3.33 3.33h14.987L61.611 0v14.987z" fill="#C1CBD5"/><g transform="translate(14.502 11.952)" fill="#F8B64C"><ellipse transform="rotate(-101.309 1.333 2.04)" cx="1.333" cy="2.041" rx="1.832" ry=".833"/><ellipse transform="rotate(-168.691 13.435 2.033)" cx="13.435" cy="2.033" rx=".833" ry="1.832"/></g><path d="M37.133 35.135H6.661s.5-6.328 2.497-9.158l.167-.167c1.166-.5 6.161-2.331 8.492-4.163l.167-1.165s.999 1.998 2.997 2.165h1.332c2.165-.334 2.998-2.165 2.998-2.165l.166 1.165c2.332 1.832 7.327 3.664 8.493 4.163.166 0 .166.167.166.167 2.498 2.83 2.997 9.158 2.997 9.158z" fill="#CDD6E0"/><path d="M25.644 20.648s-1 1.998-2.998 2.165h-1.332c-2.165-.333-2.997-2.165-2.997-2.165V19.15c1.832 2.165 3.663 2.498 3.663 2.498s1.998-.333 3.664-2.498v1.499z" fill="#F8B64C"/><path d="M28.142 12.156c0 .333-.167.666-.167.666-1.166 8.16-6.161 8.992-6.161 8.992s-5.162-.833-6.161-8.992c0 0 0-.167-.167-.666-.333-1.998-.5-8.326 6.328-8.16 6.827 0 6.66 6.162 6.328 8.16z" fill="#FFD15C"/><g fill="#ACB3BA"><path d="M26.81 22.48l-2.332 4.496-1.332-2.165.333-.333 1.166 1.665 1.831-3.83zM16.818 22.48l2.331 4.496 1.5-2.165-.334-.333-1.166 1.665-1.998-3.83z"/></g><path d="M28.142 12.156l-.167.333s-.333-3.33-1.832-5.495c0 0-.999 1.332-4.33 1.332-3.33 0-4.329-1.332-4.329-1.332-1.332 2.165-1.665 5.495-1.665 5.495l-.333-.333c-.333-1.998-.5-8.326 6.328-8.16 6.827 0 6.66 6.162 6.328 8.16z" fill="#334A5E"/><path d="M22.48 25.477l.832 7.993-1.498 1.499-1.499-1.499.833-7.993-1-1.165.833-1.5h1.332l.833 1.5-.666 1.165z" fill="#FFF"/><path fill="#FF7058" d="M44.627 31.139h29.141v3.83H44.627z"/><g fill="#C2CBD5"><path d="M6.66 43.96h67.108v3.83H6.66zM6.66 56.616H73.6v3.83H6.66z"/></g><path fill="#4CDBC4" d="M6.661 69.271h43.295v3.83H6.661z"/></g></svg>