<svg xmlns="http://www.w3.org/2000/svg" width="78" height="96" viewBox="0 0 78 96">
    <g fill="none" fill-rule="nonzero">
        <path fill="#F2F2F2" d="M77.453 54.215c-24.589-18.527-49.178 18.528-73.767 0V5.605c24.589 18.528 49.178-18.528 73.767 0v48.61z"/>
        <g fill="#40596B">
            <path d="M15.98 22.937c-4.03-.597-8.263-1.992-12.294-5.18V5.606c4.03 2.988 8.263 4.582 12.294 5.18v12.152z"/>
            <path d="M28.275 33.895c-4.031.996-8.264 1.593-12.295.996V22.738c4.031.598 8.264 0 12.295-.996v12.153zM15.98 47.242c-4.03-.597-8.263-1.992-12.294-5.18V29.91c4.03 2.988 8.263 4.582 12.294 5.18v12.152z"/>
            <path d="M28.275 58.2c-4.031.996-8.264 1.593-12.295.996V47.043c4.031.598 8.264 0 12.295-.996V58.2zM40.57 17.758c-4.031 1.593-8.264 2.988-12.295 4.183V9.79c4.03-.996 8.263-2.59 12.294-4.184v12.153z"/>
            <path d="M52.864 25.726c-4.03.996-8.263 2.59-12.295 4.184V17.757c4.031-1.593 8.264-3.187 12.295-4.183v12.152zM40.57 42.063c-4.031 1.593-8.264 2.988-12.295 4.183V34.094c4.03-.996 8.263-2.59 12.294-4.184v12.153z"/>
            <path d="M52.864 50.032c-4.03.996-8.263 2.59-12.295 4.183V42.063c4.031-1.594 8.264-2.989 12.295-4.184v12.153zM65.159 12.578c-4.031-.598-8.264 0-12.295.996V1.42c4.03-.996 8.264-1.594 12.295-.996v12.153zM77.453 29.91c-4.03-2.988-8.263-4.582-12.294-5.18V12.578c4.03.597 8.263 1.992 12.294 5.18V29.91zM65.159 36.883c-4.031-.598-8.264 0-12.295.996V25.726c4.03-.996 8.264-1.593 12.295-.996v12.153zM77.453 54.215c-4.03-2.988-8.263-4.582-12.294-5.18V36.883c4.03.598 8.263 1.992 12.294 5.18v12.152z"/>
        </g>
        <path fill="#231F20" d="M10.538 9.39c-2.217-.797-4.635-1.992-6.852-3.785v48.61C5.903 56.008 8.32 57.203 10.538 58V9.39z" opacity=".1"/>
        <path fill="#FF7058" d="M3.887 95.852h-.604c-1.814 0-3.225-1.394-3.225-3.187V3.414C.058 1.62 1.468.226 3.283.226h.604c1.814 0 3.225 1.395 3.225 3.188v89.251c0 1.793-1.41 3.187-3.225 3.187z"/>
    </g>
</svg>
