<svg xmlns="http://www.w3.org/2000/svg" width="196" height="177" viewBox="0 0 196 177">
    <g fill="none" fill-rule="evenodd">
        <path fill="#E4EAF8" d="M149.02 42.253H2.98c-1.646 0-2.98-1.35-2.98-3.019V3.02C0 1.35 1.334 0 2.98 0h146.04c1.646 0 2.98 1.35 2.98 3.019v36.215c0 1.67-1.334 3.02-2.98 3.02z"/>
        <path fill="#FF5050" d="M35.076 42.253H2.924C1.31 42.253 0 40.903 0 39.234V3.02C0 1.35 1.31 0 2.924 0h32.152C36.69 0 38 1.35 38 3.019v36.215c0 1.67-1.308 3.02-2.924 3.02z"/>
        <path fill="#707487" d="M102.557 19.012h-51c-1.66 0-3.001-1.415-3.001-3.168 0-1.752 1.341-3.169 3-3.169h50.997c1.659 0 3 1.417 3 3.169 0 1.753-1.341 3.168-2.998 3.168h.002z"/>
        <path fill="#7F8499" fill-rule="nonzero" d="M138.127 29.479H81.442a2.986 2.986 0 0 1-2.984-2.993 2.986 2.986 0 0 1 2.984-2.99h56.683a2.986 2.986 0 0 1 2.984 2.99 2.986 2.986 0 0 1-2.984 2.993h.002zm-68.618 0H51.611a2.985 2.985 0 0 1-2.984-2.993 2.985 2.985 0 0 1 2.984-2.99h17.898a2.985 2.985 0 0 1 2.984 2.99 2.985 2.985 0 0 1-2.984 2.993z"/>
        <path fill="#FFF" fill-rule="nonzero" d="M18.899 27.506a2.987 2.987 0 0 1-2.984-2.99 2.988 2.988 0 0 1 2.984-2.993 4.487 4.487 0 0 0 0-8.972 4.487 4.487 0 0 0-4.474 4.485 2.986 2.986 0 0 1-2.984 2.993 2.986 2.986 0 0 1-2.983-2.993c0-5.771 4.685-10.468 10.443-10.468 5.755 0 10.44 4.697 10.44 10.468 0 5.773-4.685 10.47-10.442 10.47zm.03 8.974a2.997 2.997 0 0 1-2.999-2.992 2.974 2.974 0 0 1 2.969-2.991h.03a2.986 2.986 0 0 1 2.983 2.99 2.986 2.986 0 0 1-2.983 2.993z"/>
        <path fill="#E4EAF8" d="M149.02 97.183H2.98c-1.646 0-2.98-1.35-2.98-3.019V57.947c0-1.667 1.334-3.019 2.98-3.019h146.04c1.646 0 2.98 1.354 2.98 3.019v36.217c0 1.67-1.334 3.02-2.98 3.02z"/>
        <path fill="#FFDC64" d="M35.076 97.183H2.924C1.31 97.183 0 95.833 0 94.164V57.947c0-1.667 1.31-3.019 2.924-3.019h32.152c1.614 0 2.924 1.354 2.924 3.019v36.217c0 1.67-1.308 3.02-2.924 3.02z"/>
        <path fill="#707487" d="M102.557 71.831h-51c-1.66 0-3.001-1.417-3.001-3.169 0-1.753 1.341-3.168 3-3.168h50.997c1.659 0 3 1.415 3 3.168 0 1.752-1.341 3.17-2.998 3.17h.002z"/>
        <path fill="#7F8499" d="M68.875 84.506H51.459c-1.605 0-2.903-1.415-2.903-3.168 0-1.752 1.298-3.17 2.903-3.17h17.416c1.604 0 2.903 1.418 2.903 3.17 0 1.75-1.299 3.168-2.903 3.168z"/>
        <path fill="#FFF" fill-rule="nonzero" d="M18.899 80.404a2.988 2.988 0 0 1-2.984-2.993 2.987 2.987 0 0 1 2.984-2.99 4.487 4.487 0 0 0 4.475-4.487 4.486 4.486 0 0 0-4.475-4.487 4.487 4.487 0 0 0-4.474 4.487 2.985 2.985 0 1 1-5.967 0c0-5.771 4.685-10.468 10.443-10.468 5.755 0 10.44 4.697 10.44 10.468 0 5.773-4.685 10.47-10.442 10.47zm.03 8.974a2.997 2.997 0 0 1-2.999-2.993 2.974 2.974 0 0 1 2.969-2.99h.03a2.986 2.986 0 0 1 2.983 2.99 2.986 2.986 0 0 1-2.983 2.992z"/>
        <path fill="#E4EAF8" d="M149.02 150H2.98A3.001 3.001 0 0 1 0 146.981v-36.217c0-1.667 1.334-3.019 2.98-3.019h146.04c1.646 0 2.98 1.354 2.98 3.019v36.217c0 1.669-1.334 3.019-2.98 3.019z"/>
        <path fill="#7DF5A5" d="M35.076 150H2.924C1.31 150 0 148.65 0 146.981v-36.217c0-1.667 1.31-3.019 2.924-3.019h32.152c1.614 0 2.924 1.354 2.924 3.019v36.217c0 1.669-1.308 3.019-2.924 3.019z"/>
        <path fill="#707487" d="M102.557 126.761h-51c-1.66 0-3.001-1.417-3.001-3.168 0-1.754 1.341-3.17 3-3.17h50.997c1.659 0 3 1.416 3 3.17 0 1.75-1.341 3.168-2.998 3.168h.002z"/>
        <path fill="#7F8499" d="M68.875 137.325H51.459c-1.605 0-2.903-1.417-2.903-3.169 0-1.753 1.298-3.168 2.903-3.168h17.416c1.604 0 2.903 1.415 2.903 3.168 0 1.751-1.299 3.169-2.903 3.169z"/>
        <path fill="#FFF" fill-rule="nonzero" d="M18.899 135.08a2.986 2.986 0 0 1-2.984-2.99 2.986 2.986 0 0 1 2.984-2.99 4.487 4.487 0 0 0 4.475-4.487 4.486 4.486 0 0 0-4.475-4.487 4.487 4.487 0 0 0-4.474 4.487 2.985 2.985 0 1 1-5.967 0c0-5.774 4.685-10.47 10.443-10.47 5.755 0 10.44 4.696 10.44 10.47 0 5.77-4.685 10.468-10.442 10.468zm.03 8.974a2.997 2.997 0 0 1-2.999-2.99 2.973 2.973 0 0 1 2.969-2.99h.03a2.985 2.985 0 0 1 2.983 2.99 2.985 2.985 0 0 1-2.983 2.99z"/>
        <path fill="#7F8499" fill-rule="nonzero" d="M131.927 84.156H81.209a2.987 2.987 0 0 1-2.983-2.991 2.988 2.988 0 0 1 2.983-2.99h50.718a2.987 2.987 0 0 1 2.983 2.99c0 1.65-1.336 2.99-2.983 2.99zm0 53.84H81.209a2.987 2.987 0 0 1-2.983-2.99 2.99 2.99 0 0 1 2.983-2.991h50.718a2.987 2.987 0 0 1 2.983 2.99 2.987 2.987 0 0 1-2.983 2.991z"/>
        <g fill-rule="nonzero">
            <g transform="translate(96.596 77.109)">
                <path fill="#344A5E" d="M63.023 72.238l-7.307-7.282 9.51-9.478 7.307 7.282z"/>
                <ellipse cx="36.169" cy="36.086" fill="#8AD7F8" stroke="#FFF" stroke-width="7.203" rx="28.433" ry="28.36"/>
                <path fill="#415A6B" d="M61.797 61.655c-14.054 14.022-37.202 14.022-51.256 0-14.054-14.022-14.054-37.117 0-51.139 14.054-14.021 37.202-14.021 51.256 0 14.054 14.022 14.26 37.117 0 51.14zM16.534 16.496a27.71 27.71 0 0 0 0 39.385 27.863 27.863 0 0 0 39.476 0 27.71 27.71 0 0 0 0-39.385c-10.954-10.928-28.728-10.928-39.476 0z"/>
                <path fill="#F3705A" d="M73.784 61.037c10.954 7.63 19.221 13.609 21.701 16.29 4.96 4.949 4.96 12.99 0 17.94-4.96 4.948-13.02 4.948-17.98 0-2.48-2.475-8.681-10.723-16.328-21.652l12.607-12.578z"/>
                <path fill="#F05540" d="M65.31 79.389c-1.24-1.856-2.686-3.712-3.926-5.568L73.99 61.243c2.067 1.443 3.927 2.68 5.58 3.918l-14.26 14.228z"/>
                <path fill="#F3705A" d="M63.45 75.883l12.608-12.578c1.24-1.238 1.24-3.3 0-4.537s-3.307-1.237-4.547 0L58.903 71.347c-1.24 1.237-1.24 3.3 0 4.536 1.24 1.444 3.307 1.444 4.547 0z"/>
            </g>
        </g>
    </g>
</svg>
