<svg xmlns="http://www.w3.org/2000/svg" width="22" height="22" viewBox="0 0 22 22">
    <g fill="#4990E2" fill-rule="nonzero" stroke="#4990E2">
        <path d="M11 1C5.486 1 1 5.486 1 11s4.486 10 10 10 10-4.486 10-10S16.514 1 11 1zm0 19.23c-5.09 0-9.23-4.14-9.23-9.23 0-5.09 4.14-9.23 9.23-9.23 5.09 0 9.23 4.14 9.23 9.23 0 5.09-4.14 9.23-9.23 9.23z"/>
        <path d="M11 16.064a.384.384 0 0 0-.385.385v.769a.384.384 0 1 0 .77 0v-.77a.384.384 0 0 0-.385-.384zM11.043 4.462H11c-.814 0-1.579.313-2.16.886a3.055 3.055 0 0 0-.916 2.19.384.384 0 1 0 .77 0c0-.622.244-1.206.687-1.643a2.273 2.273 0 0 1 1.653-.664c1.216.017 2.257 1.059 2.274 2.274A2.297 2.297 0 0 1 12.25 9.48c-1.023.66-1.634 1.826-1.634 3.12v1.093a.384.384 0 1 0 .77 0V12.6c0-1.016.49-1.963 1.281-2.474a3.062 3.062 0 0 0 1.41-2.63 3.098 3.098 0 0 0-3.033-3.033z"/>
    </g>
</svg>
