<svg xmlns="http://www.w3.org/2000/svg" width="112" height="119" viewBox="0 0 112 119">
    <g fill="none" fill-rule="nonzero">
        <g transform="translate(.89)">
            <path fill="#72D9E8" d="M77.267 101.433c-.497 0-.994-.19-1.373-.572L59.303 84.2a1.955 1.955 0 0 1 0-2.757 1.936 1.936 0 0 1 2.746 0l16.59 16.662a1.955 1.955 0 0 1 0 2.757c-.379.38-.876.572-1.372.572z"/>
            <path fill="#006375" d="M104.207 57.776H77.492a1.946 1.946 0 0 1-1.942-1.95c0-1.077.87-1.95 1.942-1.95h26.715c1.072 0 1.941.873 1.941 1.95s-.869 1.95-1.941 1.95z"/>
            <path fill="#72D9E8" d="M48.21 28.369a1.946 1.946 0 0 1-1.941-1.95V6.299c0-1.076.869-1.95 1.941-1.95 1.073 0 1.942.874 1.942 1.95v20.12c0 1.077-.869 1.95-1.942 1.95z"/>
            <path fill="#00B7CF" d="M48.21 114.543a1.946 1.946 0 0 1-1.941-1.95v-27.36c0-1.077.869-1.95 1.941-1.95 1.073 0 1.942.873 1.942 1.95v27.36c0 1.077-.869 1.95-1.942 1.95z"/>
            <path fill="#006375" d="M27.506 36.982c-.497 0-.994-.19-1.373-.571L4.803 14.988a1.955 1.955 0 0 1 0-2.757 1.936 1.936 0 0 1 2.745 0l21.33 21.422a1.955 1.955 0 0 1 0 2.757 1.93 1.93 0 0 1-1.372.572z"/>
            <path fill="#00B7CF" d="M48.21 87.183c-17.216 0-31.222-14.067-31.222-31.357S30.994 24.469 48.21 24.469c17.217 0 31.223 14.067 31.223 31.357S65.427 87.183 48.21 87.183zm0-58.814c-15.075 0-27.34 12.317-27.34 27.457s12.265 27.457 27.34 27.457c15.076 0 27.34-12.317 27.34-27.457S63.286 28.369 48.21 28.369z"/>
            <ellipse cx="77.267" cy="99.483" fill="#C23934" rx="6.085" ry="6.112"/>
            <path fill="#000" d="M78.191 104.666c-3.36 0-6.085-2.736-6.085-6.112a6.1 6.1 0 0 1 1.346-3.831 6.109 6.109 0 0 0-2.27 4.76c0 3.375 2.724 6.111 6.085 6.111 1.916 0 3.624-.89 4.74-2.28a6.044 6.044 0 0 1-3.816 1.352z" opacity=".08"/>
            <ellipse cx="48.209" cy="6.299" fill="#C23934" rx="6.085" ry="6.112"/>
            <path fill="#000" d="M49.134 11.483c-3.36 0-6.085-2.737-6.085-6.112a6.1 6.1 0 0 1 1.346-3.831 6.109 6.109 0 0 0-2.27 4.76c0 3.375 2.724 6.111 6.085 6.111 1.916 0 3.624-.89 4.74-2.28a6.043 6.043 0 0 1-3.816 1.352z" opacity=".08"/>
            <ellipse cx="48.209" cy="112.593" fill="#C23934" rx="6.085" ry="6.112"/>
            <path fill="#000" d="M49.134 117.776c-3.36 0-6.085-2.736-6.085-6.111a6.1 6.1 0 0 1 1.346-3.832 6.109 6.109 0 0 0-2.27 4.76c0 3.376 2.724 6.112 6.085 6.112 1.916 0 3.624-.89 4.74-2.28a6.041 6.041 0 0 1-3.816 1.351z" opacity=".08"/>
            <ellipse cx="104.206" cy="55.825" fill="#C23934" rx="6.085" ry="6.112"/>
            <path fill="#000" d="M105.131 61.009c-3.36 0-6.085-2.736-6.085-6.112a6.1 6.1 0 0 1 1.346-3.831 6.109 6.109 0 0 0-2.27 4.76c0 3.375 2.724 6.111 6.085 6.111 1.916 0 3.624-.89 4.74-2.28a6.042 6.042 0 0 1-3.816 1.352z" opacity=".08"/>
            <ellipse cx="6.175" cy="13.61" fill="#C23934" rx="6.085" ry="6.112"/>
            <path fill="#000" d="M7.1 18.793c-3.361 0-6.085-2.736-6.085-6.112A6.1 6.1 0 0 1 2.36 8.85a6.109 6.109 0 0 0-2.27 4.76c0 3.375 2.725 6.111 6.085 6.111 1.916 0 3.625-.89 4.74-2.28A6.042 6.042 0 0 1 7.1 18.793z" opacity=".08"/>
        </g>
        <path fill="#DC6C84" d="M83.082 55.095H47.326a3.328 3.328 0 0 0-3.324 3.331v19.265c0 1.84 1.489 3.33 3.324 3.33h27.56l6.912 6.315c1.768 1.614 4.608.357 4.608-2.04v-26.87c0-1.84-1.488-3.33-3.324-3.33z"/>
        <g fill="#FFF">
            <path d="M76.187 66.09H54.173a1.774 1.774 0 0 1-1.772-1.777c0-.98.793-1.776 1.772-1.776h22.014c.98 0 1.773.796 1.773 1.776 0 .981-.794 1.776-1.773 1.776zM76.187 73.628H54.173a1.774 1.774 0 0 1-1.772-1.776c0-.981.793-1.776 1.772-1.776h22.014c.98 0 1.773.795 1.773 1.776 0 .98-.794 1.776-1.773 1.776z"/>
        </g>
        <path fill="#000" d="M83.726 85.329l-6.234-5.694a2.368 2.368 0 0 0-1.597-.62h-26.64a3.328 3.328 0 0 1-3.325-3.331V56.42c0-.384.068-.751.187-1.094a3.33 3.33 0 0 0-2.115 3.1v19.265c0 1.84 1.489 3.33 3.324 3.33h27.56l6.912 6.315c1.6 1.462 4.08.57 4.535-1.391a2.7 2.7 0 0 1-2.607-.616z" opacity=".15"/>
        <path fill="#A17CC6" d="M16.688 26.748h35.756a3.328 3.328 0 0 1 3.324 3.33v19.265c0 1.84-1.489 3.331-3.324 3.331h-27.56l-6.912 6.314c-1.768 1.615-4.608.358-4.608-2.039V30.08c0-1.84 1.488-3.331 3.324-3.331z"/>
        <g fill="#FFF">
            <path d="M23.583 37.742h22.014c.979 0 1.772-.795 1.772-1.776 0-.98-.793-1.776-1.772-1.776H23.583c-.98 0-1.773.795-1.773 1.776 0 .98.794 1.776 1.773 1.776zM23.583 45.28h22.014c.979 0 1.772-.795 1.772-1.776 0-.98-.793-1.776-1.772-1.776H23.583c-.98 0-1.773.796-1.773 1.776 0 .981.794 1.776 1.773 1.776z"/>
        </g>
        <path fill="#000" d="M16.044 56.981l6.234-5.694a2.368 2.368 0 0 1 1.597-.62h26.64a3.328 3.328 0 0 0 3.325-3.33V28.072c0-.384-.068-.75-.187-1.093a3.33 3.33 0 0 1 2.115 3.1v19.264c0 1.84-1.489 3.331-3.324 3.331h-27.56l-6.912 6.314c-1.6 1.462-4.08.57-4.535-1.39a2.7 2.7 0 0 0 2.607-.617z" opacity=".15"/>
        <path fill="#FFF" d="M50.864 112.728l.86-.862a1.246 1.246 0 0 0 0-1.758 1.236 1.236 0 0 0-1.753 0l-.859.862-.859-.862a1.236 1.236 0 0 0-1.751 0 1.246 1.246 0 0 0 0 1.758l.859.862-.86.862a1.246 1.246 0 0 0 0 1.757 1.233 1.233 0 0 0 1.753 0l.859-.861.859.861a1.234 1.234 0 0 0 1.752 0 1.246 1.246 0 0 0 0-1.757l-.86-.862zM79.859 99.506l.859-.862a1.246 1.246 0 0 0 0-1.758 1.236 1.236 0 0 0-1.752 0l-.86.862-.858-.862a1.236 1.236 0 0 0-1.752 0 1.246 1.246 0 0 0 0 1.758l.859.862-.86.861a1.246 1.246 0 0 0 0 1.758 1.233 1.233 0 0 0 1.753 0l.859-.862.859.862a1.234 1.234 0 0 0 1.752 0 1.246 1.246 0 0 0 0-1.758l-.86-.861zM106.656 55.872l.86-.861a1.246 1.246 0 0 0 0-1.758 1.236 1.236 0 0 0-1.753 0l-.859.862-.859-.862a1.236 1.236 0 0 0-1.751 0 1.246 1.246 0 0 0 0 1.758l.858.861-.858.862a1.246 1.246 0 0 0 0 1.758 1.233 1.233 0 0 0 1.752 0l.858-.862.86.862a1.234 1.234 0 0 0 1.752 0 1.246 1.246 0 0 0 0-1.758l-.86-.862zM50.864 6.51l.86-.862a1.246 1.246 0 0 0 0-1.758 1.236 1.236 0 0 0-1.753 0l-.859.862-.859-.862a1.236 1.236 0 0 0-1.751 0 1.246 1.246 0 0 0 0 1.758l.859.861-.86.862a1.246 1.246 0 0 0 0 1.758 1.233 1.233 0 0 0 1.753 0l.859-.862.859.862a1.234 1.234 0 0 0 1.752 0 1.246 1.246 0 0 0 0-1.758l-.86-.862zM8.91 13.561l.86-.862a1.246 1.246 0 0 0 0-1.757 1.236 1.236 0 0 0-1.752 0l-.86.861-.858-.861a1.236 1.236 0 0 0-1.752 0 1.246 1.246 0 0 0 0 1.757l.859.862-.86.862a1.246 1.246 0 0 0 0 1.758 1.233 1.233 0 0 0 1.753 0l.859-.862.859.862a1.234 1.234 0 0 0 1.752 0 1.246 1.246 0 0 0 0-1.758l-.86-.862z"/>
    </g>
</svg>
