<svg xmlns="http://www.w3.org/2000/svg" width="16" height="16" viewBox="0 0 16 16">
    <g fill="#FFF" fill-rule="nonzero">
        <path d="M12.861 3.276h-.41v-.914A2.365 2.365 0 0 0 10.089 0h-4.96a2.365 2.365 0 0 0-2.361 2.362v.914h-.375A2.365 2.365 0 0 0 .031 5.638v3.81a2.365 2.365 0 0 0 2.362 2.362h.371v2.994c0 .65.53 1.18 1.18 1.18h7.324c.65 0 1.18-.53 1.18-1.18V11.81h.413a2.365 2.365 0 0 0 2.362-2.362v-3.81a2.365 2.365 0 0 0-2.362-2.362zM3.66 2.362c0-.808.659-1.468 1.467-1.468h4.956c.808 0 1.467.66 1.467 1.468v.914H3.66v-.914zm7.894 12.449c0 .155-.13.285-.285.285H3.944a.287.287 0 0 1-.285-.285V9.87h7.894v4.94zm2.776-5.36a1.47 1.47 0 0 1-1.468 1.467h-.41V9.872h.59a.445.445 0 0 0 .446-.448.445.445 0 0 0-.447-.447H2.108a.445.445 0 0 0-.447.447c0 .249.199.448.447.448h.66v1.046h-.375A1.47 1.47 0 0 1 .926 9.451V5.64c0-.808.66-1.467 1.467-1.467h10.468c.809 0 1.468.66 1.468 1.467v3.81z"/>
        <path d="M4.742 12.071h5.694a.445.445 0 0 0 .448-.447.445.445 0 0 0-.448-.447H4.742a.447.447 0 0 0 0 .894zM10.473 13.005H4.775a.445.445 0 0 0-.447.448c0 .248.199.447.447.447h5.695a.445.445 0 0 0 .447-.447.445.445 0 0 0-.444-.448zM12.851 5.032h-.907a.445.445 0 0 0-.448.447c0 .249.2.447.448.447h.907a.445.445 0 0 0 .448-.447.445.445 0 0 0-.448-.447z"/>
    </g>
</svg>
