<svg xmlns="http://www.w3.org/2000/svg" width="134" height="169" viewBox="0 0 134 169">
    <g fill="none" fill-rule="nonzero">
        <circle cx="52.5" cy="52.5" r="52.5" fill="#FF5050"/>
        <g fill="#FFF">
            <path d="M52.955 71.898c-2.004 0-3.628-1.639-3.628-3.66v-1.664c0-3.313 2.44-6.113 5.677-6.514 8.466-1.043 14.755-8.33 14.636-16.95-.122-8.872-7.652-16.471-16.447-16.594-4.495-.046-8.75 1.658-11.955 4.846-3.205 3.19-4.97 7.448-4.97 11.989 0 2.02-1.625 3.66-3.629 3.66-2.003 0-3.627-1.64-3.627-3.66 0-6.515 2.533-12.623 7.13-17.2 4.518-4.494 10.476-6.956 16.81-6.956l.343.001c12.833.18 23.422 10.863 23.6 23.812.168 12.128-8.517 22.418-20.312 24.223v1.007c0 2.021-1.625 3.66-3.628 3.66zM52.955 85.806c-2.4 0-4.354-1.97-4.354-4.392 0-2.421 1.954-4.392 4.354-4.392 2.4 0 4.353 1.97 4.353 4.392 0 2.421-1.953 4.392-4.353 4.392z"/>
        </g>
        <path fill="#F0C087" d="M134 139.833v-21.46c0-3.813-2.729-7.289-6.503-7.669-4.339-.437-7.997 2.98-7.997 7.254v-2.5c0-3.815-2.729-7.29-6.503-7.67-4.339-.437-7.997 2.978-7.997 7.253v-2.5c0-3.815-2.729-7.29-6.503-7.67-4.339-.437-7.997 2.979-7.997 7.254V71.707c0-3.814-2.729-7.29-6.503-7.67-4.339-.436-7.997 2.98-7.997 7.255v68.541C76 155.942 88.984 169 105 169s29-13.058 29-29.167z"/>
        <g fill="#E6AF78">
            <path d="M81.972 139.852V71.355c0-2.975 1.796-5.5 4.344-6.632-.666-.308-1.374-.54-2.141-.617-4.35-.437-8.016 2.977-8.016 7.25v68.496c0 16.098 13.013 29.148 29.067 29.148.98 0 1.95-.052 2.906-.147-14.688-1.463-26.16-13.887-26.16-29z"/>
            <path d="M93.599 116.534a2.911 2.911 0 0 0 2.907-2.915v-1.457c0-2.975 1.795-5.5 4.344-6.632-.667-.309-1.375-.54-2.142-.617-4.35-.437-8.016 2.976-8.016 7.249v1.457a2.91 2.91 0 0 0 2.907 2.915zM108.132 119.449a2.911 2.911 0 0 0 2.907-2.915v-1.457c0-2.975 1.796-5.5 4.344-6.632-.667-.309-1.375-.54-2.142-.617-4.35-.437-8.015 2.976-8.015 7.249v1.457a2.91 2.91 0 0 0 2.906 2.915zM122.665 122.364a2.911 2.911 0 0 0 2.907-2.915v-1.458c0-2.975 1.796-5.5 4.344-6.631-.666-.309-1.375-.54-2.142-.618-4.349-.436-8.015 2.977-8.015 7.25v1.457a2.91 2.91 0 0 0 2.906 2.915z"/>
        </g>
    </g>
</svg>
