<svg xmlns="http://www.w3.org/2000/svg" width="124" height="118" viewBox="0 0 124 118">
    <g fill="none" fill-rule="evenodd" transform="translate(0 -1)">
        <path fill="#4DC95B" d="M62 1.071c34.241 0 62 24.945 62 55.715 0 11.34-3.78 21.88-10.254 30.681.851 10.168 3.297 24.489 10.254 31.462 0 0-21.257-2.99-35.654-11.705l-.047.02c-5.91-3.86-11.827-7.835-13.052-8.842a2.138 2.138 0 0 0-2.844-.593 2.18 2.18 0 0 0-1.045 1.817c-.022 1.333.01 1.68 11.94 9.473A68.086 68.086 0 0 1 62 112.5c-34.241 0-62-24.945-62-55.714C0 26.016 27.759 1.07 62 1.07z"/>
        <ellipse cx="32.069" cy="56.786" fill="#FFF" rx="6.414" ry="6.429"/>
        <ellipse cx="62" cy="56.786" fill="#FFF" rx="6.414" ry="6.429"/>
        <ellipse cx="91.931" cy="56.786" fill="#FFF" rx="6.414" ry="6.429"/>
    </g>
</svg>
