<svg xmlns="http://www.w3.org/2000/svg" xmlns:xlink="http://www.w3.org/1999/xlink" width="179" height="173" viewBox="0 0 179 173">
    <defs>
        <circle id="a" cx="43.583" cy="43.583" r="38.602"/>
    </defs>
    <g fill="none" fill-rule="nonzero">
        <g fill="#FF6469">
            <path d="M61.009 0C43.229 0 22.9 27.617 22.9 61.56c0 43.857 35.697 107.723 36.967 110.423.29.619.706.97 1.142.97.831 0 1.625-.352 2.18-.97 2.424-2.7 59.38-66.566 59.38-110.423C122.568 27.617 94.953 0 61.008 0zm0 93.805c-17.809 0-32.246-14.436-32.246-32.245 0-17.81 14.437-32.246 32.246-32.246 17.809 0 32.246 14.437 32.246 32.246 0 17.81-14.437 32.245-32.246 32.245z"/>
            <path d="M60.676 171.984c-1.27-2.7-36.967-66.567-36.967-110.424C23.71 27.617 44.037 0 61.817 0 27.873 0 .257 27.617.257 61.56c0 43.857 56.956 107.723 59.38 110.423.556.619 1.35.97 2.18.97-.435 0-.85-.351-1.141-.97z"/>
        </g>
        <path fill="#344A5E" d="M134.964 140.606l-8.805-8.805 11.446-11.446 8.805 8.805z"/>
        <g transform="translate(59.014 53.355)">
            <use fill="#8AD7F8" fill-rule="evenodd" xlink:href="#a"/>
            <circle cx="43.583" cy="43.583" r="33.602" stroke="#FFF" stroke-width="10"/>
        </g>
        <path fill="#415A6B" d="M133.479 127.82c-16.935 16.935-44.829 16.935-61.764 0-16.935-16.935-16.935-44.828 0-61.763 16.935-16.936 44.829-16.936 61.764 0 16.935 16.935 17.184 44.828 0 61.763zM78.938 73.279a33.52 33.52 0 0 0 0 47.568 33.52 33.52 0 0 0 47.568 0 33.52 33.52 0 0 0 0-47.568c-13.2-13.2-34.618-13.2-47.568 0z"/>
        <path fill="#F3705A" d="M147.924 127.073c13.2 9.215 23.161 16.437 26.15 19.675 5.977 5.977 5.977 15.69 0 21.667-5.978 5.977-15.69 5.977-21.667 0-2.989-2.989-10.46-12.95-19.675-26.15l15.192-15.192z"/>
        <path fill="#F05540" d="M137.713 149.238c-1.494-2.241-3.238-4.483-4.732-6.724l15.192-15.192c2.49 1.743 4.732 3.238 6.724 4.732l-17.184 17.184z"/>
        <path fill="#F3705A" d="M135.471 145.004l15.192-15.192c1.495-1.494 1.495-3.985 0-5.479-1.494-1.494-3.984-1.494-5.479 0l-15.192 15.192c-1.494 1.495-1.494 3.985 0 5.48 1.495 1.743 3.985 1.743 5.48 0z"/>
    </g>
</svg>
