<svg xmlns="http://www.w3.org/2000/svg" xmlns:xlink="http://www.w3.org/1999/xlink" width="225" height="225" viewBox="0 0 225 225">
    <defs>
        <rect id="a" width="150" height="149.189" rx="4"/>
    </defs>
    <g fill="none" fill-rule="evenodd">
        <g transform="translate(24 24)">
            <use fill="#FFF" xlink:href="#a"/>
            <rect width="149" height="148.189" x=".5" y=".5" stroke="#CAD3E2" rx="4"/>
        </g>
        <g transform="translate(32.824 44.168)">
            <text fill="#16325C" font-family="SalesforceSans-Regular, Salesforce Sans" font-size="25">
                <tspan x="35.069" y="101.897">Topic</tspan>
            </text>
            <rect width="69.328" height="69.328" x="31.513" fill="#E0E5EE" rx="8"/>
        </g>
        <g fill-rule="nonzero">
            <path fill="#434C6D" d="M223.279 175.684L166.13 109.32a3.79 3.79 0 0 0-3.862-1.185 3.77 3.77 0 0 0-2.745 2.94l-15.991 85.774a3.738 3.738 0 0 0 1.987 4.012 3.807 3.807 0 0 0 1.734.417 3.801 3.801 0 0 0 2.722-1.144l26.044-26.681 13.19 48.76a3.787 3.787 0 0 0 3.657 2.787c.325 0 .655-.041.984-.127 2.018-.537 3.218-2.592 2.677-4.594l-13.19-48.761 36.019 10.207c1.605.439 3.32-.188 4.225-1.579a3.721 3.721 0 0 0-.303-4.462z"/>
            <g fill="#7383BF">
                <path d="M133.322 195h-1.893c-2.093 0-3.785-1.676-3.785-3.75s1.692-3.75 3.785-3.75h1.893c2.094 0 3.786 1.676 3.786 3.75s-1.692 3.75-3.786 3.75zM116.733 195h-3.676c-2.094 0-3.786-1.676-3.786-3.75s1.692-3.75 3.786-3.75h3.676c2.093 0 3.786 1.676 3.786 3.75s-1.693 3.75-3.786 3.75zm-18.37 0h-3.676c-2.093 0-3.785-1.676-3.785-3.75s1.692-3.75 3.785-3.75h3.677c2.093 0 3.785 1.676 3.785 3.75s-1.696 3.75-3.785 3.75zm-18.376 0H76.31c-2.094 0-3.786-1.676-3.786-3.75s1.692-3.75 3.786-3.75h3.676c2.093 0 3.786 1.676 3.786 3.75S82.08 195 79.987 195zm-18.37 0h-3.675c-2.094 0-3.786-1.676-3.786-3.75s1.692-3.75 3.786-3.75h3.676c2.093 0 3.786 1.676 3.786 3.75S63.708 195 61.618 195zm-18.376 0h-3.676c-2.094 0-3.786-1.676-3.786-3.75s1.692-3.75 3.786-3.75h3.676c2.094 0 3.786 1.676 3.786 3.75S45.335 195 43.24 195zm-18.373 0h-3.672c-2.094 0-3.786-1.676-3.786-3.75s1.692-3.75 3.786-3.75h3.676c2.093 0 3.786 1.676 3.786 3.75s-1.696 3.75-3.79 3.75zM6.495 195H4.602c-2.093 0-3.786-1.676-3.786-3.75v-1.875c0-2.074 1.693-3.75 3.786-3.75 1.534 0 2.859.904 3.453 2.205a3.752 3.752 0 0 1 2.226 3.42c0 2.074-1.692 3.75-3.786 3.75zM4.602 178.125c-2.093 0-3.786-1.676-3.786-3.75v-3.75c0-2.074 1.693-3.75 3.786-3.75 2.094 0 3.786 1.676 3.786 3.75v3.75c0 2.074-1.692 3.75-3.786 3.75zm0-18.75c-2.093 0-3.786-1.676-3.786-3.75v-3.75c0-2.074 1.693-3.75 3.786-3.75 2.094 0 3.786 1.676 3.786 3.75v3.75c0 2.074-1.692 3.75-3.786 3.75zm0-18.75c-2.093 0-3.786-1.676-3.786-3.75v-3.75c0-2.074 1.693-3.75 3.786-3.75 2.094 0 3.786 1.676 3.786 3.75v3.75c0 2.074-1.692 3.75-3.786 3.75zm0-18.75c-2.093 0-3.786-1.676-3.786-3.75v-3.75c0-2.074 1.693-3.75 3.786-3.75 2.094 0 3.786 1.676 3.786 3.75v3.75c0 2.074-1.692 3.75-3.786 3.75zm0-18.75c-2.093 0-3.786-1.676-3.786-3.75v-3.75c0-2.074 1.693-3.75 3.786-3.75 2.094 0 3.786 1.676 3.786 3.75v3.75c0 2.074-1.692 3.75-3.786 3.75zm0-18.75c-2.093 0-3.786-1.676-3.786-3.75v-3.75c0-2.074 1.693-3.75 3.786-3.75 2.094 0 3.786 1.676 3.786 3.75v3.75c0 2.074-1.692 3.75-3.786 3.75zm0-18.75c-2.093 0-3.786-1.676-3.786-3.75v-3.75c0-2.074 1.693-3.75 3.786-3.75 2.094 0 3.786 1.676 3.786 3.75v3.75c0 2.074-1.692 3.75-3.786 3.75zm0-18.75c-2.093 0-3.786-1.676-3.786-3.75v-3.75c0-2.074 1.693-3.75 3.786-3.75 2.094 0 3.786 1.676 3.786 3.75v3.75c0 2.074-1.692 3.75-3.786 3.75zm0-18.75c-2.093 0-3.786-1.676-3.786-3.75v-3.75c0-2.074 1.693-3.75 3.786-3.75 2.094 0 3.786 1.676 3.786 3.75v3.75c0 2.074-1.692 3.75-3.786 3.75zM4.602 9.375C2.51 9.375.816 7.699.816 5.625V3.75C.816 1.676 2.51 0 4.602 0h1.893c2.094 0 3.786 1.676 3.786 3.75a3.752 3.752 0 0 1-2.226 3.42 3.792 3.792 0 0 1-3.453 2.205zM176.86 7.5h-3.786c-2.093 0-3.786-1.676-3.786-3.75S170.981 0 173.074 0h3.786c2.094 0 3.786 1.676 3.786 3.75s-1.692 3.75-3.786 3.75zm-18.93 0h-3.785c-2.094 0-3.786-1.676-3.786-3.75S152.05 0 154.145 0h3.786c2.093 0 3.786 1.676 3.786 3.75s-1.693 3.75-3.786 3.75zm-18.929 0h-3.786c-2.093 0-3.786-1.676-3.786-3.75S133.122 0 135.215 0h3.786c2.094 0 3.786 1.676 3.786 3.75s-1.692 3.75-3.786 3.75zm-18.93 0h-3.785c-2.094 0-3.786-1.676-3.786-3.75S114.192 0 116.286 0h3.786c2.093 0 3.786 1.676 3.786 3.75s-1.693 3.75-3.786 3.75zm-18.929 0h-3.786c-2.093 0-3.785-1.676-3.785-3.75S95.263 0 97.356 0h3.786c2.094 0 3.786 1.676 3.786 3.75s-1.692 3.75-3.786 3.75zm-18.93 0h-3.785c-2.094 0-3.786-1.676-3.786-3.75S76.333 0 78.427 0h3.786c2.094 0 3.786 1.676 3.786 3.75S84.307 7.5 82.213 7.5zm-18.929 0h-3.785c-2.094 0-3.786-1.676-3.786-3.75S57.404 0 59.498 0h3.785c2.094 0 3.786 1.676 3.786 3.75S65.377 7.5 63.283 7.5zm-18.929 0h-3.786c-2.093 0-3.786-1.676-3.786-3.75S38.475 0 40.568 0h3.786c2.094 0 3.786 1.676 3.786 3.75S46.448 7.5 44.354 7.5zm-18.93 0H21.64c-2.094 0-3.786-1.676-3.786-3.75S19.545 0 21.639 0h3.786c2.093 0 3.786 1.676 3.786 3.75S27.518 7.5 25.425 7.5zM193.897 9.375a3.792 3.792 0 0 1-3.453-2.205 3.752 3.752 0 0 1-2.226-3.42c0-2.074 1.692-3.75 3.786-3.75h1.893c2.093 0 3.785 1.676 3.785 3.75v1.875c0 2.074-1.692 3.75-3.785 3.75zM193.897 99.896c-2.094 0-3.786-1.676-3.786-3.75v-3.622c0-2.074 1.692-3.75 3.786-3.75 2.093 0 3.785 1.676 3.785 3.75v3.622c0 2.07-1.692 3.75-3.785 3.75zm0-18.105c-2.094 0-3.786-1.676-3.786-3.75v-3.618c0-2.074 1.692-3.75 3.786-3.75 2.093 0 3.785 1.676 3.785 3.75v3.618c0 2.07-1.692 3.75-3.785 3.75zm0-18.105c-2.094 0-3.786-1.676-3.786-3.75v-3.622c0-2.074 1.692-3.75 3.786-3.75 2.093 0 3.785 1.676 3.785 3.75v3.622c0 2.074-1.692 3.75-3.785 3.75zm0-18.105c-2.094 0-3.786-1.676-3.786-3.75v-3.619c0-2.073 1.692-3.75 3.786-3.75 2.093 0 3.785 1.677 3.785 3.75v3.62c0 2.073-1.692 3.75-3.785 3.75zm0-18.101c-2.094 0-3.786-1.676-3.786-3.75v-3.622c0-2.074 1.692-3.75 3.786-3.75 2.093 0 3.785 1.676 3.785 3.75v3.622c0 2.074-1.692 3.75-3.785 3.75zM193.897 116.25c-2.094 0-3.786-1.676-3.786-3.75v-1.875c0-2.074 1.692-3.75 3.786-3.75 2.093 0 3.785 1.676 3.785 3.75v1.875c0 2.074-1.692 3.75-3.785 3.75z"/>
            </g>
        </g>
    </g>
</svg>
