<svg xmlns="http://www.w3.org/2000/svg" width="26" height="26" viewBox="0 0 26 26">
    <g fill="#FFF" fill-rule="evenodd" stroke="#FFF">
        <path fill-rule="nonzero" d="M13 1C6.383 1 1 6.383 1 13s5.383 12 12 12 12-5.383 12-12S19.617 1 13 1zm0 22.957C6.958 23.957 2.043 19.042 2.043 13 2.043 6.958 6.958 2.043 13 2.043c6.042 0 10.957 4.915 10.957 10.957 0 6.042-4.915 10.957-10.957 10.957z"/>
        <path d="M17.174 9.348a2.612 2.612 0 0 0-2.609 2.609.522.522 0 0 0 1.044 0c0-.863.702-1.566 1.565-1.566s1.565.703 1.565 1.566a.522.522 0 0 0 1.044 0 2.612 2.612 0 0 0-2.61-2.61zM10.391 11.957a.522.522 0 0 0 1.044 0 2.612 2.612 0 0 0-2.609-2.61 2.612 2.612 0 0 0-2.609 2.61.522.522 0 0 0 1.044 0c0-.863.702-1.566 1.565-1.566s1.565.703 1.565 1.566zM18.261 16.133a.522.522 0 0 0-.737.04 5.78 5.78 0 0 1-4.307 1.914 5.78 5.78 0 0 1-4.307-1.913.522.522 0 1 0-.777.696 6.826 6.826 0 0 0 5.084 2.26 6.826 6.826 0 0 0 5.085-2.26.522.522 0 0 0-.041-.737z"/>
    </g>
</svg>
