<svg xmlns="http://www.w3.org/2000/svg" width="18" height="24" viewBox="0 0 18 24">
    <g fill="#0070D2" fill-rule="evenodd">
        <path fill-rule="nonzero" d="M.005 2.8v20.8c0 .22.174.4.39.4H15.24c.215 0 .39-.18.39-.4V6.8c0-.009-.004-.016-.005-.025a.385.385 0 0 0-.02-.103c-.004-.013-.007-.025-.013-.038a.396.396 0 0 0-.078-.117l-3.906-4a.379.379 0 0 0-.252-.114c-.007.001-.014-.003-.022-.003H.395a.395.395 0 0 0-.39.4zm14.29 3.6h-2.572V3.766L14.296 6.4zM.786 3.2h10.157v3.6c0 .22.175.4.39.4h3.516v16H.786v-20z"/>
        <path d="M16.41 20.8v.8h1.172c.216 0 .391-.179.391-.4V.4c0-.22-.175-.4-.39-.4H2.738c-.216 0-.39.18-.39.4v1.2h.78V.8h14.063v20h-.782z"/>
        <path d="M3.13 8h9.374v.8H3.13zM3.13 5.6h3.124v.8H3.13zM3.13 10.4h6.25v.8H3.13zM10.16 10.4h2.344v.8h-2.343zM3.13 12.8h9.374v.8H3.13zM3.13 17.6h9.374v.8H3.13zM6.645 15.2h5.86v.8h-5.86zM3.13 15.2h2.734v.8H3.129zM3.13 20h1.562v.8H3.129zM5.473 20h7.031v.8h-7.03z"/>
    </g>
</svg>
