<svg xmlns="http://www.w3.org/2000/svg" width="71" height="80" viewBox="0 0 71 80">
    <g fill="#66788C" fill-rule="evenodd" opacity=".3">
        <path fill-rule="nonzero" d="M55.962 39.484V18.13c0-.466-.193-.91-.532-1.226L37.79.448A1.662 1.662 0 0 0 36.654 0H7.413C3.365.005.085 3.299.08 7.364v56.2c.005 4.065 3.285 7.36 7.333 7.364h25.898c5.096 7.552 14.523 10.85 23.19 8.115 8.666-2.736 14.518-10.86 14.394-19.981C70.77 49.94 64.7 41.98 55.962 39.484zM38.445 5.628l11.83 11.036h-7.83a4.014 4.014 0 0 1-4-4.017V5.628zM7.413 67.58a4.013 4.013 0 0 1-4-4.016v-56.2a4.013 4.013 0 0 1 4-4.017h27.699v9.3c.005 4.065 3.285 7.36 7.333 7.364H52.63v18.815a20.51 20.51 0 0 0-16.004 5.125 20.687 20.687 0 0 0-6.86 15.397 20.622 20.622 0 0 0 1.706 8.232H7.413zm42.918 9.073c-9.517 0-17.233-7.748-17.233-17.305 0-9.557 7.716-17.304 17.233-17.304s17.232 7.747 17.232 17.304c-.01 9.553-7.72 17.294-17.232 17.305z"/>
        <path d="M59.081 57.397h-6.807V50.56a1.67 1.67 0 0 0-1.667-1.674c-.92 0-1.666.75-1.666 1.674v6.836h-6.808c-.92 0-1.666.749-1.666 1.673a1.67 1.67 0 0 0 1.666 1.674h6.808v7.761a1.67 1.67 0 0 0 1.666 1.674c.921 0 1.667-.75 1.667-1.674v-7.761h6.807c.921 0 1.667-.75 1.667-1.674a1.67 1.67 0 0 0-1.667-1.673z"/>
    </g>
</svg>
