<svg xmlns="http://www.w3.org/2000/svg" width="42" height="36" viewBox="0 0 42 36">
    <g fill="none" fill-rule="nonzero">
        <path fill="#F0EDE0" d="M.02 18.22h32.124v15.417H.02z"/>
        <path fill="#D6D0BB" d="M18.943 24.44H17.45a.498.498 0 1 1 0-.994h1.494a.498.498 0 1 1 0 .995M11.473 22.451H9.978a.498.498 0 1 1 0-.994h1.495a.498.498 0 1 1 0 .994M18.943 22.451h-3.486a.498.498 0 1 1 0-.994h3.486a.498.498 0 1 1 0 .994M13.465 22.451a.515.515 0 0 1-.354-.144.523.523 0 0 1-.144-.353c0-.13.054-.26.144-.353a.522.522 0 0 1 .707 0c.09.094.145.224.145.353 0 .13-.055.258-.145.353a.525.525 0 0 1-.353.144M15.457 24.44h-3.486a.498.498 0 1 1 0-.994h3.486a.498.498 0 1 1 0 .995M9.978 24.44a.515.515 0 0 1-.353-.144.523.523 0 0 1-.145-.353c0-.135.055-.259.145-.353a.522.522 0 0 1 .707 0c.09.094.144.218.144.353 0 .13-.054.259-.144.353a.525.525 0 0 1-.354.145"/>
        <path fill="#56B46F" d="M4.5 30.022a2.491 2.491 0 0 1-2.49-2.487.498.498 0 0 1 .996 0 1.495 1.495 0 0 0 2.635.963.726.726 0 0 0 .165-.55.814.814 0 0 0-.31-.556L2.892 25.37a1.814 1.814 0 0 1-.69-1.24c-.049-.475.091-.935.396-1.294A2.492 2.492 0 0 1 6.99 24.44a.498.498 0 0 1-.996 0 1.495 1.495 0 0 0-2.636-.962.723.723 0 0 0-.165.549.817.817 0 0 0 .31.557l2.605 2.023c.387.3.638.752.689 1.238.05.476-.09.936-.395 1.296a2.49 2.49 0 0 1-1.902.881"/>
        <path fill="#56B46F" d="M4.5 30.906a.498.498 0 0 1-.498-.497v-8.952a.498.498 0 0 1 .996 0v8.952a.498.498 0 0 1-.498.497"/>
        <path fill="#D6D0BB" d="M11.544 27.126c-1.091.568-1.458 1.651-1.592 2.776l-.618-.517c-.489-.409-1.197.291-.704.703l1.397 1.17c.33.275.835.104.85-.352.037-1.078.089-2.359 1.17-2.921.57-.296.066-1.155-.503-.859M16.196 29.654a1.174 1.174 0 0 0-1.34-.545c-.679.192-1.484 1.016-1.96.053-.284-.575-1.143-.07-.86.503.256.517.747.893 1.33.96.302.034.556-.006.84-.113.203-.075.958-.661 1.13-.356.313.56 1.173.059.86-.502"/>
        <path fill="#E6E7E9" d="M24.576 3.226l1.834.779-.778 1.83-1.833-.778z"/>
        <path fill="#D85B4B" d="M27.77.8L26.846.41a.993.993 0 0 0-.574-.061.986.986 0 0 0-.721.583l-.975 2.296 1.834.778L27.77.801z"/>
        <path fill="#E38E23" d="M25.633 5.837l1.834.778-7.385 17.397-1.834-.778z"/>
        <path fill="#CFCECE" d="M26.41 4.005l1.834.779-.777 1.83-1.834-.778z"/>
        <path fill="#C56256" d="M28.244 4.784l.974-2.296a.985.985 0 0 0-.524-1.295L27.77.8l-1.36 3.204 1.834.779z"/>
        <path fill="#EDDDC8" d="M20.082 24.011l-3.667-1.557.473 3.983z"/>
        <path fill="#5F5F5F" d="M16.041 27.158a.497.497 0 1 0 .917.39l.777-1.832-.917-.389-.777 1.831z"/>
        <path fill="#F39D20" d="M23.798 5.058l1.834.779-7.384 17.396-1.834-.778z"/>
        <g>
            <path fill="#8798CC" d="M40.056 35.997H22.833a1.075 1.075 0 0 1-1.075-1.076v-11.89c0-.594.481-1.075 1.075-1.075h17.223c.593 0 1.074.481 1.074 1.076v11.89c0 .593-.48 1.075-1.074 1.075"/>
            <path fill="#556180" d="M21.758 23.46H41.13v2.507H21.758z"/>
            <path fill="#B0D3F0" d="M26.41 27.974h-2.845c-.175 0-.317.112-.317.25 0 .139.142.251.317.251h2.844c.175 0 .316-.112.316-.25 0-.14-.14-.251-.316-.251M31.196 28.224c0-.138-.141-.25-.316-.25h-2.845c-.175 0-.316.112-.316.25 0 .139.141.251.316.251h2.845c.175 0 .316-.112.316-.25M23.91 29.478h-.33c-.184 0-.332.112-.332.25 0 .139.148.251.332.251h.33c.184 0 .332-.112.332-.25 0-.139-.148-.251-.331-.251M26.353 29.478h-.745c-.206 0-.373.112-.373.25 0 .139.167.251.373.251h.745c.206 0 .372-.112.372-.25 0-.139-.166-.251-.372-.251M27.884 29.478h-.33c-.184 0-.332.112-.332.25 0 .139.148.251.331.251h.331c.184 0 .332-.112.332-.25 0-.139-.148-.251-.332-.251M29.83 29.478h-.745c-.206 0-.373.112-.373.25 0 .139.167.251.373.251h.745c.206 0 .372-.112.372-.25 0-.139-.166-.251-.372-.251"/>
            <path fill="#91BAE1" d="M33.68 30.481h5.463v3.51H33.68z"/>
        </g>
    </g>
</svg>
