<svg xmlns="http://www.w3.org/2000/svg" width="33" height="36" viewBox="0 0 33 36">
    <g fill="none" fill-rule="nonzero">
        <path fill="#6E8C61" d="M12 32.21V22.106c0-2.093 2.686-3.79 6-3.79a9.1 9.1 0 0 1 2.21.27V0H0v35.368h14.686C13.068 34.69 12 33.53 12 32.211"/>
        <path fill="#E9E8D3" d="M3.158 13.895c1.52-2.44 4.2-4.066 7.263-4.066 3.063 0 5.744 1.626 7.263 4.066V7.144c-.109.01-.218.017-.33.017-2.006 0-3.632-1.643-3.632-3.67 0-.112.007-.223.017-.333H7.103c.01.11.017.22.017.333 0 2.027-1.626 3.67-3.632 3.67-.112 0-.221-.007-.33-.017v6.75zM12.632 27.505v-1.572a8.88 8.88 0 0 1-2.03.238 8.81 8.81 0 0 1-7.444-4.066v6.751c.112-.01.224-.017.338-.017 2.056 0 3.722 1.643 3.722 3.67 0 .112-.007.223-.017.333h5.43v-5.337zM15.79 3.474c0-.871.707-1.58 1.578-1.58a1.58 1.58 0 0 1 0 3.158 1.58 1.58 0 0 1-1.579-1.578M1.895 3.474c0-.871.708-1.58 1.579-1.58a1.58 1.58 0 0 1 0 3.158 1.58 1.58 0 0 1-1.58-1.578M1.895 32.526c0-.87.708-1.579 1.579-1.579a1.58 1.58 0 0 1 0 3.158 1.58 1.58 0 0 1-1.58-1.579"/>
        <path fill="#FCC62D" d="M25.263 22.105c0 2.093-2.827 3.79-6.316 3.79-3.488 0-6.315-1.697-6.315-3.79s2.827-3.79 6.315-3.79c3.489 0 6.316 1.697 6.316 3.79"/>
        <path fill="#D19D18" d="M18.947 33.474c-3.488 0-6.315-1.697-6.315-3.79v2.527c0 2.093 2.827 3.789 6.315 3.789 3.489 0 6.316-1.696 6.316-3.79v-2.526c0 2.093-2.827 3.79-6.316 3.79"/>
        <path fill="#E4AF18" d="M18.947 31.579c-3.488 0-6.315-1.696-6.315-3.79v2.527c0 2.093 2.827 3.79 6.315 3.79 3.489 0 6.316-1.697 6.316-3.79v-2.527c0 2.094-2.827 3.79-6.316 3.79"/>
        <path fill="#D19D18" d="M18.947 28.421c-3.488 0-6.315-1.696-6.315-3.79v2.527c0 2.093 2.827 3.79 6.315 3.79 3.489 0 6.316-1.697 6.316-3.79v-2.526c0 2.093-2.827 3.79-6.316 3.79"/>
        <path fill="#E4AF18" d="M18.947 25.895c-3.488 0-6.315-1.697-6.315-3.79v2.527c0 2.093 2.827 3.79 6.315 3.79 3.489 0 6.316-1.697 6.316-3.79v-2.527c0 2.093-2.827 3.79-6.316 3.79"/>
        <path fill="#FCC62D" d="M32.842 15.158c0 2.093-2.827 3.79-6.316 3.79-3.488 0-6.315-1.697-6.315-3.79s2.827-3.79 6.315-3.79c3.489 0 6.316 1.697 6.316 3.79"/>
        <path fill="#E9E8D3" d="M13.92 19.795c1.334-2.513.051-5.145.051-5.145-.542-.167-2.13.332-2.313.875a3.072 3.072 0 0 0-2.136-.875c-1.033 0-1.47 1.14-1.784 1.254a1.46 1.46 0 0 1-.473.086c-.474.008-.918-.25-1.237-.619l-2.368-2.74A8.964 8.964 0 0 0 1.895 18c0 2.027.663 3.888 1.764 5.368l2.347-2.719c.386-.446.954-.717 1.518-.613.08.015.16.036.239.064.204.073 1.203 1.195 1.422 1.221.666 1.655 2.12.993 3.116.262.298-.69.862-1.304 1.619-1.788"/>
        <path fill="#E4AF18" d="M26.467 33.474c-.91 0-1.773-.115-2.556-.32-.305.706-.94 1.33-1.806 1.815 1.141.638 2.672 1.031 4.362 1.031 3.521 0 6.375-1.696 6.375-3.79v-2.526c0 2.093-2.854 3.79-6.375 3.79"/>
        <path fill="#D19D18" d="M26.53 31.579c-.821 0-1.605-.097-2.325-.27v1.533a2.4 2.4 0 0 1-.205.944c.775.204 1.63.32 2.53.32 3.487 0 6.312-1.697 6.312-3.79v-2.527c0 2.094-2.825 3.79-6.311 3.79"/>
        <path fill="#E4AF18" d="M26.38 28.421c-.84 0-1.643-.097-2.38-.269v2.526c.737.172 1.54.27 2.38.27 3.57 0 6.462-1.697 6.462-3.79v-2.526c0 2.093-2.893 3.79-6.461 3.79"/>
        <path fill="#D19D18" d="M26.38 25.895c-.84 0-1.643-.098-2.38-.27v2.527c.737.172 1.54.27 2.38.27 3.57 0 6.462-1.697 6.462-3.79v-2.527c0 2.093-2.893 3.79-6.461 3.79"/>
        <path fill="#E4AF18" d="M26.38 23.368c-.84 0-1.643-.097-2.38-.269v2.527c.737.171 1.54.269 2.38.269 3.57 0 6.462-1.697 6.462-3.79V19.58c0 2.093-2.893 3.79-6.461 3.79"/>
        <path fill="#D19D18" d="M26.436 20.842c-1.111 0-2.157-.168-3.068-.462.45.518.708 1.103.708 1.725v.994c.73.172 1.526.27 2.36.27 3.538 0 6.406-1.697 6.406-3.79v-2.526c0 2.093-2.868 3.79-6.406 3.79"/>
        <path fill="#E4AF18" d="M26.526 18.316c-3.488 0-6.315-1.697-6.315-3.79v2.527c0 .622.254 1.207.697 1.725 1.11.365 2.015.925 2.594 1.602a9.773 9.773 0 0 0 3.024.462c3.489 0 6.316-1.696 6.316-3.79v-2.526c0 2.093-2.827 3.79-6.316 3.79"/>
        <path fill="#607B53" d="M25.895 11.1V0H24v11.368a8.759 8.759 0 0 1 1.895-.267"/>
        <path fill="#546949" d="M24 11.223V0h-1.895v12A6.996 6.996 0 0 1 24 11.223"/>
        <path fill="#607B53" d="M22.105 11.767V0h-1.894v14.526c0-1.09.73-2.067 1.894-2.76"/>
    </g>
</svg>
