<svg xmlns="http://www.w3.org/2000/svg" width="30" height="30" viewBox="0 0 30 30">
    <g fill="none" fill-rule="evenodd">
        <rect width="29.2" height="29.2" x=".4" y=".4" fill="#E53D48" stroke="#E53D48" stroke-width=".8" rx="1.6"/>
        <path fill="#FFC855" d="M23.193 20.624c-.065-4.111-.598-5.283-4.68-6.024 0 0-.574.737-1.913.737s-1.913-.737-1.913-.737c-4.037.733-4.603 1.887-4.677 5.89-.006.327-.009.344-.01.306v.432s.972 1.972 6.6 1.972 6.6-1.972 6.6-1.972v-.32a2.664 2.664 0 0 1-.007-.284z"/>
        <path d="M23 20.931c0 .004 0 .008.003.022 0 .015 0 .015.044.09.106.085.106.085.278.027.056-.064.056-.064.063-.09.013-.057.013-.057.012-.062l-.2-.01H23v.023zm-12.8-.14c0-.003 0-.006-.004-.023 0-.017 0-.017-.065-.11-.142-.064-.142-.064-.267.007-.043.053-.043.053-.05.076-.012.03-.01-.005-.01.031l.006-.286c.08-4.295.874-5.362 4.84-6.083l.12-.021.074.095c.012.015.041.047.089.091.083.077.187.155.31.228.359.213.808.34 1.357.34.55 0 .999-.127 1.357-.34.124-.073.227-.15.31-.228a.904.904 0 0 0 .089-.091l.074-.095.12.021c4 .727 4.773 1.795 4.843 6.218a22.159 22.159 0 0 0 .005.273l-.003-.02c0-.014 0-.014-.043-.09-.107-.084-.107-.084-.278-.026-.056.064-.056.064-.063.09-.012.054-.012.054-.01.051l.399.01v.366l-.02.042c-.04.08-.127.205-.276.358-.24.247-.568.491-1.001.716-1.214.633-3.01 1.009-5.503 1.009-2.492 0-4.289-.376-5.503-1.009a3.874 3.874 0 0 1-1-.716 1.565 1.565 0 0 1-.276-.358l-.02-.042v-.047l-.001-.431.4-.006z"/>
        <path fill="#FEE187" d="M16.6 14.6c1.988 0 3.6-1.925 3.6-4.3S19.67 6 16.6 6C13.53 6 13 7.925 13 10.3s1.612 4.3 3.6 4.3z"/>
        <path stroke="#E53D48" stroke-width=".5" d="M16.6 14.8c-2.107 0-3.8-2.022-3.8-4.5 0-3.036.971-4.5 3.8-4.5 2.829 0 3.8 1.464 3.8 4.5 0 2.478-1.693 4.5-3.8 4.5z"/>
        <g>
            <path fill="#FFC855" d="M15.795 22.263c-.045-2.773-.417-3.563-3.261-4.063 0 0-.4.497-1.334.497-.933 0-1.334-.497-1.334-.497-2.813.495-3.207 1.273-3.259 3.972-.004.22-.006.232-.007.207v.291S7.278 24 11.2 24c3.923 0 4.6-1.33 4.6-1.33 0-.1-.002-.23-.005-.407z"/>
            <path stroke="#E53D48" stroke-width=".5" d="M6.407 22.169c.056-2.928.63-3.675 3.425-4.166l.116-.02.074.092a1.217 1.217 0 0 0 .26.2c.242.138.545.222.918.222s.676-.084.918-.222a1.217 1.217 0 0 0 .26-.2l.074-.092.116.02c2.818.495 3.378 1.243 3.427 4.256.004.243.005.325.005.411v.048l-.022.043c-.03.06-.095.15-.204.258-.17.171-.406.34-.713.495-.855.43-2.115.686-3.86.686-1.746 0-3.007-.256-3.862-.686a2.759 2.759 0 0 1-.713-.495 1.118 1.118 0 0 1-.204-.258l-.022-.043v-.048-.29c.003-.074.006-.145.007-.211z"/>
            <path fill="#FEE187" d="M11.2 18.2c1.325 0 2.4-1.254 2.4-2.8 0-1.546-.353-2.8-2.4-2.8-2.047 0-2.4 1.254-2.4 2.8 0 1.546 1.075 2.8 2.4 2.8z"/>
            <path stroke="#E53D48" stroke-width=".5" d="M11.2 18.4c-1.443 0-2.6-1.35-2.6-3 0-2.011.672-3 2.6-3 1.929 0 2.6.989 2.6 3 0 1.65-1.157 3-2.6 3z"/>
        </g>
    </g>
</svg>
