<svg xmlns="http://www.w3.org/2000/svg" width="42" height="36" viewBox="0 0 42 36">
    <g fill="none" fill-rule="nonzero">
        <path fill="#E9E8D3" d="M15.73 20.625a9.748 9.748 0 0 1-4.544-8.25 9.748 9.748 0 0 1 4.544-8.25H8.184c.011.124.019.248.019.375 0 2.279-1.837 4.125-4.102 4.125-.126 0-.25-.008-.372-.019v7.538c.123-.011.246-.019.372-.019 2.265 0 4.102 1.846 4.102 4.125 0 .127-.008.251-.019.375h7.546zM37.659 8.625c-2.266 0-4.102-1.846-4.102-4.125 0-.127.008-.251.019-.375H26.03a9.75 9.75 0 0 1 4.544 8.25 9.75 9.75 0 0 1-4.544 8.25h7.546a4.153 4.153 0 0 1-.019-.375c0-2.279 1.836-4.125 4.102-4.125.126 0 .25.008.372.019V8.606a4.082 4.082 0 0 1-.372.019M4.101 6.375A1.871 1.871 0 0 1 2.237 4.5c0-1.034.836-1.875 1.864-1.875 1.029 0 1.865.84 1.865 1.875A1.871 1.871 0 0 1 4.1 6.375M37.659 6.375A1.871 1.871 0 0 1 35.794 4.5c0-1.034.836-1.875 1.865-1.875 1.028 0 1.864.84 1.864 1.875a1.871 1.871 0 0 1-1.864 1.875M4.101 22.125a1.871 1.871 0 0 1-1.864-1.875c0-1.034.836-1.875 1.864-1.875 1.029 0 1.865.84 1.865 1.875A1.871 1.871 0 0 1 4.1 22.125M37.659 22.125a1.871 1.871 0 0 1-1.865-1.875c0-1.034.836-1.875 1.865-1.875 1.028 0 1.864.84 1.864 1.875a1.871 1.871 0 0 1-1.864 1.875"/>
        <path fill="#6E8C61" d="M16.406 3.731a9.75 9.75 0 0 0-5.22 8.645 9.75 9.75 0 0 0 5.22 8.644V3.73zM25.354 3.731V21.02a9.75 9.75 0 0 0 5.22-8.644 9.75 9.75 0 0 0-5.22-8.645"/>
        <path fill="#607B53" d="M0 33.375h16.406v2.25H0zM25.354 33.375H41.76v2.25H25.354z"/>
        <path fill="#546949" d="M0 31.125h16.406v2.25H0zM25.354 31.125H41.76v2.25H25.354z"/>
        <path fill="#607B53" d="M0 28.875h16.406v2.25H0zM25.354 28.875H41.76v2.25H25.354z"/>
        <path fill="#546949" d="M0 26.625h16.406v2.25H0zM25.354 26.625H41.76v2.25H25.354z"/>
        <path fill="#607B53" d="M0 24.375h16.406v2.25H0zM25.354 24.375H41.76v2.25H25.354z"/>
        <path fill="#D1D4D2" d="M16.406.375h8.949v24h-8.949z"/>
        <path fill="#A5A5A4" d="M16.406 24.375h8.949v11.25h-8.949z"/>
        <path fill="#6E8C61" d="M0 .375h41.76v24H0z"/>
        <g>
            <path fill="#E9E8D3" d="M15.73 20.625a9.748 9.748 0 0 1-4.544-8.25 9.748 9.748 0 0 1 4.544-8.25H8.184c.011.124.019.248.019.375 0 2.279-1.837 4.125-4.102 4.125-.126 0-.25-.008-.372-.019v7.538c.123-.011.246-.019.372-.019 2.265 0 4.102 1.846 4.102 4.125 0 .127-.008.251-.019.375h7.546zM37.659 8.625c-2.266 0-4.102-1.846-4.102-4.125 0-.127.008-.251.019-.375H26.03a9.75 9.75 0 0 1 4.544 8.25 9.75 9.75 0 0 1-4.544 8.25h7.546a4.153 4.153 0 0 1-.019-.375c0-2.279 1.836-4.125 4.102-4.125.126 0 .25.008.372.019V8.606a4.082 4.082 0 0 1-.372.019M4.101 6.375A1.871 1.871 0 0 1 2.237 4.5c0-1.034.836-1.875 1.864-1.875 1.029 0 1.865.84 1.865 1.875A1.871 1.871 0 0 1 4.1 6.375M37.659 6.375A1.871 1.871 0 0 1 35.794 4.5c0-1.034.836-1.875 1.865-1.875 1.028 0 1.864.84 1.864 1.875a1.871 1.871 0 0 1-1.864 1.875M4.101 22.125a1.871 1.871 0 0 1-1.864-1.875c0-1.034.836-1.875 1.864-1.875 1.029 0 1.865.84 1.865 1.875A1.871 1.871 0 0 1 4.1 22.125M37.659 22.125a1.871 1.871 0 0 1-1.865-1.875c0-1.034.836-1.875 1.865-1.875 1.028 0 1.864.84 1.864 1.875a1.871 1.871 0 0 1-1.864 1.875"/>
            <path fill="#6E8C61" d="M16.406 3.731a9.75 9.75 0 0 0-5.22 8.645 9.75 9.75 0 0 0 5.22 8.644V3.73zM25.354 3.731V21.02a9.75 9.75 0 0 0 5.22-8.644 9.75 9.75 0 0 0-5.22-8.645"/>
            <path fill="#607B53" d="M0 33.375h16.406v2.25H0zM25.354 33.375H41.76v2.25H25.354z"/>
            <path fill="#546949" d="M0 31.125h16.406v2.25H0zM25.354 31.125H41.76v2.25H25.354z"/>
            <path fill="#607B53" d="M0 28.875h16.406v2.25H0zM25.354 28.875H41.76v2.25H25.354z"/>
            <path fill="#546949" d="M0 26.625h16.406v2.25H0zM25.354 26.625H41.76v2.25H25.354z"/>
            <path fill="#607B53" d="M0 24.375h16.406v2.25H0zM25.354 24.375H41.76v2.25H25.354z"/>
            <path fill="#D1D4D2" d="M16.406.375h8.949v24h-8.949z"/>
            <path fill="#A5A5A4" d="M16.406 24.375h8.949v11.25h-8.949z"/>
        </g>
    </g>
</svg>
