<svg xmlns="http://www.w3.org/2000/svg" width="39" height="36" viewBox="0 0 39 36">
    <g fill="none" fill-rule="nonzero">
        <path fill="#D6B772" d="M0 28.64c0-.25.203-.452.454-.452h12.797v6.789c0 .249-.203.451-.454.451H.454A.452.452 0 0 1 0 34.977V28.64zM25.176 28.188h12.797c.25 0 .454.202.454.452v6.337c0 .249-.203.451-.454.451H25.631a.452.452 0 0 1-.455-.451v-6.789z"/>
        <path fill="#F4D99D" d="M33.127 28.188h-7.95v-.572c0-1.698-.855-3.96-2.278-4.901a6.68 6.68 0 0 0-7.37 0c-1.424.943-2.278 3.203-2.278 4.901v.572H5.3v-9.966c0-.312.255-.564.568-.564h26.69c.313 0 .568.252.568.564v9.966z"/>
        <path fill="#FACE64" d="M13.251 9.76h11.926v7.898H13.251z"/>
        <path fill="#C03A2B" d="M28.18 9.43c.17.182.105.33-.144.33H10.392c-.25 0-.316-.148-.144-.33L18.904.217a.42.42 0 0 1 .62 0l8.655 9.213z"/>
        <path fill="#FACE64" d="M0 28.64c0-.25.204-.452.455-.452h6.17v7.24H.455A.453.453 0 0 1 0 34.977V28.64zM31.802 28.188h6.17c.251 0 .455.202.455.452v6.337c0 .249-.203.451-.455.451h-6.17v-7.24z"/>
        <path fill="#D6B772" d="M18.551 17.658h1.325v3.949h-1.325zM13.251 13.051h11.926v1.316H13.251z"/>
        <g>
            <g transform="translate(16.843 13.014)">
                <path fill="#A5694B" d="M13.216 11.544l-.022-.023H3.15l-.022.023C2.722 11.755-.37 13.436.07 15.36c.212.929 1.057 1.124 1.559 1.156.387 3.24 3.166 5.756 6.543 5.756 3.377 0 6.157-2.515 6.543-5.756.502-.032 1.347-.227 1.56-1.156.439-1.925-2.653-3.606-3.06-3.817z"/>
                <g fill="#925F4A">
                    <path d="M8.172 14.976a7.769 7.769 0 0 0 6.021-2.842c-.461-.315-.85-.524-.977-.59l-.022-.023H3.15l-.022.022a10 10 0 0 0-.977.591 7.768 7.768 0 0 0 6.021 2.842z"/>
                    <path d="M3.129 11.543c-.407.212-3.499 1.892-3.059 3.818.212.929 1.057 1.124 1.559 1.156.387 3.24 3.166 5.756 6.543 5.756.392 0 .774-.038 1.147-.102.005-.002.011-.005.017-.006-3.086-.545-5.43-3.209-5.43-6.42 0-1.613.591-3.087 1.57-4.224H3.15c-.007.008-.011.022-.021.022z"/>
                </g>
                <ellipse cx="3.13" cy="2.688" fill="#A5694B" rx="2.715" ry="2.688"/>
                <ellipse cx="3.13" cy="2.688" fill="#925F4A" rx="1.939" ry="1.92"/>
                <ellipse cx="13.214" cy="2.688" fill="#A5694B" rx="2.715" ry="2.688"/>
                <ellipse cx="13.214" cy="2.688" fill="#925F4A" rx="1.939" ry="1.92"/>
                <g fill="#B97850" transform="translate(1.186 .348)">
                    <path d="M13.177 18.1c-.35-.346-.865-.473-1.45-.357-.534.106-1.072.407-1.517.847-.444.44-.748.973-.855 1.502-.117.58.011 1.089.36 1.435.266.262.626.398 1.04.398.131 0 .269-.013.41-.041.534-.106 1.073-.407 1.517-.847.445-.44.748-.973.855-1.502.117-.58-.011-1.09-.36-1.435z"/>
                    <ellipse cx="6.986" cy="6.947" rx="6.981" ry="6.912"/>
                </g>
                <path fill="#A5694B" d="M3.655 7.296c0-3.401 2.482-6.222 5.75-6.799-.402-.07-.812-.114-1.233-.114-3.856 0-6.981 3.095-6.981 6.913 0 3.817 3.125 6.912 6.981 6.912.421 0 .831-.043 1.232-.114-3.267-.577-5.75-3.398-5.75-6.798z"/>
                <ellipse cx="8.172" cy="11.137" fill="#FFE678" rx="3.06" ry="2.688"/>
                <path fill="#FFC855" d="M6.19 11.137c0-1.323 1.089-2.42 2.521-2.644a3.481 3.481 0 0 0-.539-.044c-1.69 0-3.06 1.203-3.06 2.688 0 1.484 1.37 2.688 3.06 2.688.184 0 .364-.017.54-.044-1.433-.224-2.522-1.322-2.522-2.644z"/>
                <g fill="#6E4141">
                    <path d="M5.263 8.449a.579.579 0 0 1-.582-.576v-.385c0-.318.261-.576.582-.576.322 0 .582.258.582.576v.385c0 .318-.26.576-.582.576zM11.08 8.449a.579.579 0 0 1-.58-.576v-.385c0-.318.26-.576.58-.576.322 0 .583.258.583.576v.385c0 .318-.26.576-.582.576z"/>
                </g>
                <path fill="#B97850" d="M4.948 18.938c-.445-.44-.983-.741-1.517-.847-.585-.116-1.1.01-1.45.357-.349.346-.477.856-.36 1.435.107.529.41 1.062.855 1.502.444.44.983.74 1.517.847.142.028.279.041.41.041.414 0 .774-.136 1.04-.398.349-.346.477-.856.36-1.435-.107-.529-.41-1.062-.855-1.502z"/>
                <path fill="#A5694B" d="M3.524 21.385c-.444-.44-.748-.973-.855-1.502-.117-.58.011-1.09.36-1.435.15-.148.33-.253.533-.32-.044-.01-.087-.028-.131-.037-.585-.116-1.1.01-1.45.357-.349.346-.477.856-.36 1.435.107.529.41 1.062.855 1.502.444.44.983.74 1.517.846.142.029.279.042.41.042.18 0 .347-.03.503-.08a3.097 3.097 0 0 1-1.382-.808z"/>
                <g fill="#925F4A">
                    <path d="M11.95 21.874c-.35-.346-.477-.856-.36-1.435.106-.529.41-1.062.855-1.502a3.1 3.1 0 0 1 1.385-.81 1.808 1.808 0 0 0-.917-.037c-.533.106-1.072.406-1.517.847-.444.44-.748.973-.855 1.502-.117.58.011 1.089.36 1.435.266.262.626.398 1.04.398.131 0 .269-.013.41-.041.045-.01.09-.028.136-.04a1.336 1.336 0 0 1-.537-.317zM9.998 10.822a.39.39 0 0 0-.549 0c-.36.358-.7.245-.89.127V9.6a.386.386 0 0 0-.387-.384.386.386 0 0 0-.388.384v1.347c-.18.11-.526.234-.89-.126a.39.39 0 0 0-.548 0 .381.381 0 0 0 0 .543c.341.338.71.463 1.051.463.291 0 .558-.094.775-.221.217.127.484.221.775.221.341 0 .71-.125 1.05-.463a.381.381 0 0 0 0-.543z"/>
                </g>
                <ellipse cx="8.172" cy="9.025" fill="#784B46" rx="1.551" ry="1"/>
                <path fill="#6E4141" d="M7.396 9.025c0-.447.496-.82 1.164-.927a2.436 2.436 0 0 0-.388-.034c-.857 0-1.551.43-1.551.96s.694.96 1.551.96c.135 0 .263-.013.388-.033-.668-.107-1.164-.48-1.164-.926z"/>
                <ellipse cx="8.948" cy="8.833" fill="#A0786E" rx="1" ry="1"/>
            </g>
        </g>
    </g>
</svg>
