<?xml version="1.0" encoding="UTF-8"?>
<svg width="512px" height="441px" viewBox="0 0 512 441" version="1.1" xmlns="http://www.w3.org/2000/svg" xmlns:xlink="http://www.w3.org/1999/xlink">
    <!-- Generator: Sketch 56.3 (81716) - https://sketch.com -->
    <title>Group 26</title>
    <desc>Created with Sketch.</desc>
    <g id="Page-1" stroke="none" stroke-width="1" fill="none" fill-rule="evenodd">
        <g id="Group-26" transform="translate(0.000000, -12.804520)" fill-rule="nonzero">
            <g id="sprout" transform="translate(0.000000, 188.804520)">
                <path d="M134.242,54.021 C136.008,54.021 137.773,54.021 140.421,55.787 C157.193,68.146 178.38,75.208 199.566,75.208 L233.111,75.208 L235.759,75.208 C259.593,75.208 281.662,85.801 294.904,105.222 C315.207,135.236 264.89,123.76 247.235,123.76 C256.063,123.76 284.311,140.532 295.787,140.532 C323.153,140.532 354.049,138.766 369.939,130.822 L450.27,81.388 C452.036,80.505 452.918,79.622 454.684,79.622 L444.091,47.843 C444.091,47.843 422.905,31.953 415.843,29.305 C408.781,26.657 353.167,26.657 341.691,29.305 C330.215,31.953 305.498,-4.24 294.905,1.057 C284.312,7.236 215.457,18.712 211.043,19.595 C206.629,19.595 105.995,46.96 105.995,46.96 L105.995,47.843 C116.587,46.076 126.298,48.724 134.242,54.021" id="Path" fill="#994530"></path>
                <path d="M505.884,99.041 C512.946,93.744 513.829,83.151 508.532,76.089 C497.056,61.082 488.229,56.668 450.27,76.972 L373.47,123.758 C349.636,136.117 288.725,132.586 262.242,132.586 C262.242,132.586 324.918,137 300.201,99.924 C287.842,81.386 266.656,70.793 243.704,70.793 L209.276,70.793 C188.973,70.793 169.552,64.614 153.662,52.255 C115.703,24.007 44.2,79.621 44.2,79.621 L44.2,238.518 L167.786,238.518 C185.441,238.518 203.096,236.752 220.752,234.104 L335.511,216.449 C339.042,216.449 343.456,215.566 346.987,215.566 L346.987,215.566 C356.697,214.683 364.642,209.387 371.704,203.207 L505.884,99.041 Z" id="Path" fill="#FDC794"></path>
                <polygon id="Path" fill="#2872C9" points="0.063 265 44.201 265 44.201 53.138 0.063 53.138"></polygon>
                <path d="M141.304,167.897 C136.007,167.897 132.476,164.366 132.476,159.069 C132.476,137 149.248,123.759 176.614,123.759 L262.242,123.759 C267.539,123.759 271.07,127.29 271.07,132.587 C271.07,137.884 267.539,141.415 262.242,141.415 L176.614,141.415 C150.131,141.415 150.131,154.656 150.131,159.07 C150.132,164.366 146.601,167.897 141.304,167.897 Z" id="Path" fill="#F9A671"></path>
            </g>
            <ellipse id="Oval" fill="#49CB8B" transform="translate(332.001373, 99.441970) rotate(-59.075541) translate(-332.001373, -99.441970) " cx="332.001373" cy="99.4419699" rx="67.9742321" ry="32.5298538"></ellipse>
            <ellipse id="Oval" fill="#49CB8B" transform="translate(167.980350, 49.517576) rotate(-14.717311) translate(-167.980350, -49.517576) " cx="167.98035" cy="49.5175759" rx="67.9485762" ry="32.5175759"></ellipse>
            <path d="M296.994247,247.965672 C292.727247,247.965672 289.268247,244.506672 289.268247,240.239672 C289.268247,237.056672 289.347247,233.343672 289.440247,229.044672 C289.889247,208.023672 290.642247,172.841672 282.549247,137.618672 C272.970247,95.9256719 253.339247,64.5586719 224.204247,44.3876719 C220.695247,41.9586719 219.820247,37.1456719 222.249247,33.6366719 C224.678247,30.1276719 229.492247,29.2536719 233.000247,31.6816719 C308.007247,83.6096719 305.822247,185.755672 304.889247,229.373672 C304.799247,233.583672 304.721247,237.220672 304.721247,240.238672 C304.721247,244.506672 301.261247,247.965672 296.994247,247.965672 Z" id="Path" fill="#13B766"></path>
        </g>
    </g>
</svg>