<svg xmlns="http://www.w3.org/2000/svg" width="36" height="36" viewBox="0 0 36 36">
    <g fill="none" fill-rule="nonzero">
        <path fill="#A25425" d="M4.06 21.6l-.133 1.964h19.637V21.6z"/>
        <path fill="#CB202C" d="M23.564 26.182h9.818v1.309h-9.818zM23.564 18.327h9.818v1.309h-9.818z"/>
        <path fill="#A25425" d="M1.964 19.636h1.904l.06-1.309H1.963z"/>
        <path fill="#AF6328" d="M36 17.182c0 .27-.253.49-.563.49H.563c-.31 0-.563-.22-.563-.49V16.2c0-.27.253-.49.563-.49h34.874c.31 0 .563.22.563.49v.982z"/>
        <path fill="#E2E4E6" d="M9.818 9.818v1.571c0 .576.497 1.047 1.105 1.047h15.463c.608 0 1.105-.47 1.105-1.047V9.82H9.818z"/>
        <circle cx="18.982" cy="11.782" r="1" fill="#35495C"/>
        <path fill="#113247" d="M26.386.545a.55.55 0 0 1 .553.546v8.182H10.37V1.09c0-.3.248-.546.553-.546h15.463zm0-.545H10.923a1.1 1.1 0 0 0-1.105 1.09v8.728h17.673V1.091A1.1 1.1 0 0 0 26.386 0z"/>
        <path fill="#35495C" d="M26.836 1.227a.57.57 0 0 0-.567-.572H10.385a.57.57 0 0 0-.567.572v8.591h17.018v-8.59z"/>
        <path fill="#3B5366" d="M26.912.655h-7.93l2.83 9.163h5.679v-8.59a.577.577 0 0 0-.58-.573z"/>
        <path fill="#35495C" d="M26.345 0h-8.018l.175.545h7.843a.56.56 0 0 1 .573.546v8.182h-5.616l.175.545h6.014V1.091C27.49.49 26.976 0 26.345 0z"/>
        <path fill="#C9D1D7" d="M20.945 15.055h-4.581l.572-1.964h3.437z"/>
        <path fill="#F6B74E" d="M26.182 19.636h4.582v1.309h-4.582z"/>
        <path fill="#CB202C" d="M26.182 20.945h4.582v1h-4.582z"/>
        <path fill="#F6B74E" d="M26.182 28.8h4.582v1.309h-4.582z"/>
        <path fill="#CB202C" d="M26.182 30.109h4.582v1h-4.582z"/>
        <path fill="#AF6328" d="M1.964 18.982v16.45c0 .313.234.568.521.568.287 0 .536-.255.552-.566l.89-16.452H1.964z"/>
        <path fill="#ED2C39" d="M23.564 26.836v8.591c0 .315.245.573.545.573h8.727c.3 0 .546-.258.546-.573v-8.59h-9.818zm7.09 3.437h-4.363v-1.718h4.364v1.718zM23.564 18.982v6.545h9.818v-6.545h-9.818zm7.09 2.182h-4.363v-1.637h4.364v1.637z"/>
        <path fill="#E2E4E6" d="M15.055 15.055H21.6v1h-6.545z"/>
    </g>
</svg>
