<svg xmlns="http://www.w3.org/2000/svg" width="136" height="150" viewBox="0 0 136 150">
    <g fill="none" fill-rule="evenodd">
        <g fill-rule="nonzero">
            <path fill="#EFF2FA" d="M119.941 0H13.045c-2.812 0-5.09 3.04-5.09 6.79v135.803c0 3.75 2.278 6.79 5.09 6.79H119.94c2.812 0 5.09-3.04 5.09-6.79V6.79c0-3.75-2.279-6.79-5.09-6.79z"/>
            <g fill="#D7DEED">
                <path d="M41.042 20.565H20.68a2.545 2.545 0 0 1 0-5.09h20.362a2.545 2.545 0 0 1 0 5.09zM112.306 20.565h-7.635a2.545 2.545 0 0 1 0-5.09h7.635a2.545 2.545 0 0 1 0 5.09z"/>
            </g>
            <path fill="#C7CFE2" d="M94.49 20.565H51.222a2.545 2.545 0 0 1 0-5.09H94.49a2.545 2.545 0 0 1 0 5.09z"/>
            <g fill="#D7DEED">
                <path d="M51.222 46.017H20.68a2.545 2.545 0 0 1 0-5.09h30.542a2.545 2.545 0 0 1 0 5.09zM51.133 136.318H20.591a2.545 2.545 0 0 1 0-5.091h30.542a2.545 2.545 0 0 1 0 5.09zM38.497 58.743H20.68a2.545 2.545 0 0 1 0-5.091h17.816a2.545 2.545 0 0 1 0 5.09zM112.306 58.743H71.583a2.545 2.545 0 0 1 0-5.091h40.723a2.545 2.545 0 0 1 0 5.09zM112.306 46.017H91.945a2.545 2.545 0 0 1 0-5.09h20.361a2.545 2.545 0 0 1 0 5.09z"/>
            </g>
            <g fill="#C7CFE2">
                <path d="M81.764 46.016H61.403a2.545 2.545 0 0 1 0-5.09h20.361a2.545 2.545 0 0 1 0 5.09zM90.45 110.838H40.966c-3.416 0-3.416-5.09 0-5.09H90.45c3.416 0 3.416 5.09 0 5.09zM58.858 33.29H20.68a2.545 2.545 0 0 1 0-5.09h38.178a2.545 2.545 0 0 1 0 5.09zM56.313 58.743h-7.636a2.545 2.545 0 0 1 0-5.091h7.636a2.545 2.545 0 0 1 0 5.09z"/>
            </g>
            <g fill="#D7DEED">
                <path d="M30.861 71.468h-10.18a2.545 2.545 0 0 1 0-5.09h10.18a2.545 2.545 0 0 1 0 5.09zM79.219 84.194h-10.18a2.545 2.545 0 0 1 0-5.09h10.18a2.545 2.545 0 0 1 0 5.09zM112.306 84.194H89.4a2.545 2.545 0 0 1 0-5.09h22.906a2.545 2.545 0 0 1 0 5.09zM112.306 71.468h-10.18a2.545 2.545 0 0 1 0-5.09h10.18a2.545 2.545 0 0 1 0 5.09z"/>
            </g>
            <g fill="#D7DEED">
                <path d="M30.771 110.803h-10.18a2.545 2.545 0 0 1 0-5.09h10.18a2.545 2.545 0 0 1 0 5.09zM79.219 123.56h-10.18a2.545 2.545 0 0 1 0-5.091h10.18a2.545 2.545 0 0 1 0 5.09zM112.306 123.56H89.4a2.545 2.545 0 0 1 0-5.091h22.906a2.545 2.545 0 0 1 0 5.09zM112.753 136.353h-18.88c-1.158 0-2.098-1.14-2.098-2.546 0-1.405.94-2.545 2.098-2.545h18.88c1.159 0 2.098 1.14 2.098 2.545 0 1.406-.939 2.546-2.098 2.546zM112.306 110.833h-10.18a2.545 2.545 0 0 1 0-5.09h10.18a2.545 2.545 0 0 1 0 5.09z"/>
            </g>
            <path fill="#C7CFE2" d="M91.945 71.468H41.042a2.545 2.545 0 0 1 0-5.09h50.903a2.545 2.545 0 0 1 0 5.09z"/>
            <g fill="#D7DEED">
                <path d="M51.222 96.92H20.68a2.545 2.545 0 0 1 0-5.09h30.542a2.545 2.545 0 0 1 0 5.09zM112.306 96.92H94.49a2.545 2.545 0 0 1 0-5.09h17.816a2.545 2.545 0 0 1 0 5.09z"/>
            </g>
            <g fill="#C7CFE2">
                <path d="M84.31 96.92H61.402a2.545 2.545 0 0 1 0-5.09h22.906a2.545 2.545 0 0 1 0 5.09zM58.858 84.194H20.68a2.545 2.545 0 0 1 0-5.09h38.178a2.545 2.545 0 0 1 0 5.09z"/>
            </g>
            <g fill="#C7CFE2">
                <path d="M83.846 136.283H60.94a2.545 2.545 0 0 1 0-5.09h22.906a2.545 2.545 0 0 1 0 5.09zM58.858 123.56H20.68a2.545 2.545 0 0 1 0-5.091h38.178a2.545 2.545 0 0 1 0 5.09z"/>
            </g>
            <path fill="#D7DEED" d="M112.306 33.29H69.038a2.545 2.545 0 0 1 0-5.09h43.268a2.545 2.545 0 0 1 0 5.09z"/>
        </g>
        <path fill="#FFF" d="M88.617 87.264a4.122 4.122 0 0 1-1.491-.16L46.572 75.08 6.017 87.104C3.592 87.822 1.1 86.23.45 83.548l-.294-1.215c-.65-2.683.79-5.44 3.214-6.159l41.71-12.365a4.122 4.122 0 0 1 1.492-.16c.488-.038.99.012 1.49.16l40.555 12.022 40.554-12.022c2.425-.719 4.918.873 5.567 3.556l.295 1.214c.65 2.683-.79 5.44-3.215 6.16l-41.71 12.365c-.5.148-1.002.198-1.491.16z"/>
        <path fill="#FFC100" d="M89.283 84.729l-16.35-28.333a8.247 8.247 0 0 0-14.282 0L42.014 85.214a8.246 8.246 0 0 0 7.142 12.37H82.447a8.247 8.247 0 0 0 6.836-12.855z"/>
        <path fill="#FFF" fill-rule="nonzero" d="M69.323 87.567c0 1.95-1.5 3.44-3.522 3.44-2.02 0-3.521-1.49-3.521-3.44v-.08c0-1.94 1.5-3.441 3.521-3.441s3.522 1.491 3.522 3.44v.081z"/>
        <path fill="#FFF" d="M69.404 64.373L67.66 79.59c-.117 1.096-.845 1.779-1.86 1.779-1.015 0-1.742-.692-1.86-1.779L62.2 64.364c-.117-1.177.521-2.066 1.617-2.066h3.962c1.096.009 1.742.898 1.626 2.075z"/>
    </g>
</svg>
