<svg xmlns="http://www.w3.org/2000/svg" width="50" height="36" viewBox="0 0 50 36">
    <g fill="none" fill-rule="nonzero">
        <path fill="#3A79BD" d="M46.957 36h-44.2A2.757 2.757 0 0 1 0 33.243V2.757A2.757 2.757 0 0 1 2.757 0h44.2a2.757 2.757 0 0 1 2.757 2.757v30.486A2.757 2.757 0 0 1 46.957 36"/>
        <path fill="#FFF" d="M12 7.714H4.286a.857.857 0 1 1 0-1.714H12a.857.857 0 1 1 0 1.714M23.143 7.714h-7.714a.857.857 0 1 1 0-1.714h7.714a.857.857 0 1 1 0 1.714M5.143 12h-.857a.857.857 0 1 1 0-1.714h.857a.857.857 0 1 1 0 1.714M10.286 12H8.57a.857.857 0 1 1 0-1.714h1.715a.857.857 0 1 1 0 1.714M14.571 12h-.857a.857.857 0 1 1 0-1.714h.857a.857.857 0 1 1 0 1.714M19.714 12H18a.857.857 0 1 1 0-1.714h1.714a.857.857 0 1 1 0 1.714M23.143 12a.898.898 0 0 1-.609-.249.897.897 0 0 1-.248-.608c0-.223.093-.446.248-.609.317-.317.892-.317 1.217 0a.901.901 0 0 1 .249.609.901.901 0 0 1-.249.608.888.888 0 0 1-.608.249"/>
        <path fill="#2C91D0" d="M31.714 6h13.714v8.571H31.714z"/>
        <path fill="#FFF" d="M44.286 15.429H32.857a2 2 0 0 1-2-2V7.143a2 2 0 0 1 2-2h11.429a2 2 0 0 1 2 2v6.286a2 2 0 0 1-2 2zm-9.715-1.715h8a2 2 0 0 0 2-2V8.857a2 2 0 0 0-2-2h-8a2 2 0 0 0-2 2v2.857a2 2 0 0 0 2 2z"/>
        <path fill="#1D6AAA" d="M4.286 24.857H12V30H4.286zM15.429 24.857h7.714V30h-7.714zM26.571 24.857h7.714V30h-7.714zM37.714 24.857h7.714V30h-7.714z"/>
    </g>
</svg>
