<svg xmlns="http://www.w3.org/2000/svg" width="42" height="36" viewBox="0 0 42 36">
    <g fill="none" fill-rule="nonzero">
        <path fill="#EB5031" d="M16.16 11.405a.54.54 0 0 1 1.047.136L18.07 21.6l1.616-5.812a.54.54 0 1 1 1.047.023l.9 3.895 1.537-6.44a.541.541 0 0 1 1.06.05l1.148 8.156.514-1.658a.54.54 0 0 1 .515-.379h12.164v-2.778a4.65 4.65 0 0 0-4.655-4.642h-7.39V4.643A4.649 4.649 0 0 0 21.87 0h-3.114a4.65 4.65 0 0 0-4.655 4.643v7.372h-7.39a4.65 4.65 0 0 0-4.655 4.642v2.837H13.25l2.91-8.09z"/>
        <path fill="#EB5031" d="M25.708 23.792a.542.542 0 0 1-.561.375.539.539 0 0 1-.493-.458l-1.09-7.643-1.412 5.844a.54.54 0 0 1-.528.41h-.002a.54.54 0 0 1-.526-.414l-.943-4.028-1.858 6.588a.541.541 0 0 1-.572.388.538.538 0 0 1-.49-.486l-.911-10.482-2.21 6.064a.541.541 0 0 1-.512.353H2.057c.385 2.157 2.298 3.798 4.6 3.798h7.417v7.3c0 2.54 2.093 4.599 4.673 4.599h3.124c2.58 0 4.673-2.06 4.673-4.6v-7.3h7.416c2.325 0 4.251-1.67 4.611-3.855H26.824l-1.116 3.547z"/>
        <path fill="#F7F1E6" d="M40.603 19.562H26.559a.539.539 0 0 0-.515.373l-.514 1.63-1.146-8.021a.536.536 0 0 0-.51-.455.54.54 0 0 0-.55.407l-1.537 6.333-.9-3.83a.538.538 0 0 0-.514-.411.537.537 0 0 0-.533.389l-1.615 5.714-.863-9.892a.534.534 0 0 0-.468-.48.54.54 0 0 0-.577.346l-2.91 7.955H.54a.535.535 0 0 0-.54.53c0 .292.242.53.54.53h13.247a.54.54 0 0 0 .509-.352l2.201-6.02.908 10.407c.026.277.26.488.538.485a.539.539 0 0 0 .52-.388l1.85-6.541.94 4c.055.24.273.41.523.41h.003a.538.538 0 0 0 .525-.406l1.407-5.803 1.085 7.589a.536.536 0 0 0 .491.455.54.54 0 0 0 .56-.372l1.11-3.522h13.646c.298 0 .54-.238.54-.53a.535.535 0 0 0-.54-.53z"/>
    </g>
</svg>
