<svg xmlns="http://www.w3.org/2000/svg" width="35" height="36" viewBox="0 0 35 36">
    <g fill="none" fill-rule="evenodd">
        <g fill="#D43D21" fill-rule="nonzero">
            <path d="M16.016 11.856c-.037.005-.073.008-.11.011v6.28c.847.149 1.79.014 2.461-.078V11.9a1.24 1.24 0 0 1-.207-.043c-.877-.268-1.001-.169-2.144-.001zM17.153 0c-1.536 0-2.78 1.232-2.78 2.751 0 1.076.624 2.007 1.533 2.46v.374l.05-.002h2.287l.124.004v-.36a2.75 2.75 0 0 0 1.566-2.476c0-1.52-1.245-2.751-2.78-2.751z"/>
        </g>
        <path d="M19.148 24.48c.557-.514.85-1.052.85-1.563 0-.487.121-1.46-1.712-2.346v4.572c.286-.178.584-.405.862-.663zM13.716 22.833c0 .508.309 1.108.972 1.568.52.36.83.47 1.312.742V20.57c-2.442.858-2.284 1.766-2.284 2.262z"/>
        <path fill="#D43D21" fill-rule="nonzero" d="M16 20.789v5.183c.897.582 1.68.212 2.044.016.08-.042.16-.09.242-.14v-4.923a7.461 7.461 0 0 0-.304-.14v.01c-.635-.32-1.02-.25-1.811-.078a10.14 10.14 0 0 0-.171.072zM16.002 28.923v5.24l-.002.053c0 .67.512 1.213 1.143 1.213s1.143-.543 1.143-1.212v-5.082a5.922 5.922 0 0 0-.403-.304c-.625-.365-1.26-.355-1.88.092z"/>
        <path fill="#707487" fill-rule="nonzero" d="M18.47 20.545v-.008c.113.045.22.09.321.136 2.003.895 1.871 1.877 1.871 2.369 0 .516-.32 1.06-.928 1.579-.305.26-.63.49-.943.669-.086.05-.171.096-.255.137-.386.191-1.214.552-2.163-.016-.459-.289-.755-.407-1.25-.79-.631-.49-.925-1.13-.925-1.671 0-.529-.15-1.496 2.175-2.41l.18-.07c.838-.167 1.245-.237 1.917.075zm-2.097-2.764a3.412 3.412 0 0 1-.161-.032c-.928-.212-1.837-.399-3.78-.938-1.86-.494-3.908-1.293-4.212-1.7a.34.34 0 0 1 .117-.072c.164-.094.456-.175.784-.247.69-.14 1.615-.21 2.55-.258 1.861-.057 2.003.037 2.224.024.221-.013 1.352-.027 1.387-.889.036-.862-.576-.924-1.056-1.021-.76-.104-.437-.072-1.466-.059-1.708.13-6.939-.294-7.594 2.461 0 .08-.011.13-.023.201.222 2.401 5.195 3.448 8.787 4.16-1.217.836-1.872 1.926-2.13 3.345-.128 1.501 1.065 2.932 3.839 4.523-2.107 1.49-3.488 2.897-3.37 4.588.17 1.259 1.21 2.906 3.19 4.066.197.115.481.102.277-.241-.497-.833-1.357-2.404-1.432-3.394-.102-.717.246-1.738 1.701-2.95.122-.115.245-.213.368-.297.657-.447 1.33-.457 1.992-.092.15.099.292.2.426.305 1.316 1.028 1.857 2.324 1.762 3.034-.074.985-.913 2.55-1.423 3.379-.17.277.006.418.276.252 1.96-1.205 3.012-2.8 3.182-4.061.118-1.692-1.263-3.1-3.36-4.588 2.764-1.592 3.957-3.023 3.829-4.524-.258-1.407-.913-2.498-2.13-3.345 3.592-.712 8.565-1.759 8.787-4.16-.012-.072-.023-.12-.023-.2-.655-2.756-5.886-2.333-7.594-2.462-1.03-.013-.901-.02-1.383-.017-.482.002-1.105.256-1.121 1.026-.015.77.871.968 1.37.96.29-.005.362-.08 2.222-.012.936.035 1.86.106 2.54.246.339.072.62.153.795.247a.518.518 0 0 1 .117.072c-.304.407-2.352 1.206-4.212 1.7a68.676 68.676 0 0 1-3.5.875l-.134.018c-.66.092-1.586.226-2.418.077z"/>
        <path fill="#EBE8E1" fill-rule="nonzero" d="M33.036 8.626c-4.477-.844-8.016-4.983-9.01-5.808-1.13-.938-1.91-.723-3.038 1.338-.706 1.28-1.807 1.496-2.545 1.484-.042 0-.082-.002-.122-.004h-2.235l-.049.002c-.736.027-1.888-.159-2.617-1.482-1.129-2.06-1.92-2.276-3.038-1.338-1.01.838-4.65 5.05-9.223 5.84-1.27.22-1.497.832-.678 1.424.641.463 1.575.81 2.869.57 0 0 1.572 1.66 4.121.498 0 0 1.327 1.22 3.446.105 0 0 1.56 1.22 3.237.168 0 0 .819.643 1.883.532.036-.003.071-.006.108-.011 1.116-.168 1.238-.269 2.095 0 .066.022.134.035.203.044.826.108 1.81-.565 1.81-.565 1.666 1.051 3.237-.168 3.237-.168 2.12 1.114 3.435-.105 3.435-.105 2.56 1.161 4.133-.498 4.133-.498 1.07.198 1.895-.005 2.51-.343 1.079-.593.972-1.399-.532-1.683z"/>
    </g>
</svg>
