<svg xmlns="http://www.w3.org/2000/svg" width="22" height="36" viewBox="0 0 22 36">
    <g fill="none" fill-rule="nonzero">
        <path fill="#959CB5" d="M20.053 9.913h-18.8C.561 9.913 0 10.469 0 11.155v23.603C0 35.444.561 36 1.253 36h18.8c.692 0 1.253-.556 1.253-1.242V11.155c0-.686-.561-1.242-1.253-1.242z"/>
        <path fill="#00C3FF" d="M18.062 14.783H3.07a.623.623 0 0 0-.625.62v3.106c0 .343.28.621.625.621h14.992a.623.623 0 0 0 .625-.62v-3.106a.623.623 0 0 0-.625-.621z"/>
        <path fill="#464655" d="M18.761 12.87H2.545a.616.616 0 0 1-.624-.61c0-.336.279-.608.624-.608H18.76c.345 0 .624.272.624.609a.616.616 0 0 1-.624.609z"/>
        <g fill="#C7CFE2">
            <path d="M6.301 24.273H3.814a.625.625 0 0 1-.621-.63v-1.257c0-.347.278-.629.621-.629h2.487c.343 0 .622.282.622.63v1.257a.625.625 0 0 1-.622.629zM17.492 24.273h-2.487a.625.625 0 0 1-.622-.63v-1.257c0-.347.279-.629.622-.629h2.487c.343 0 .621.282.621.63v1.257a.625.625 0 0 1-.621.629zM11.896 24.273H9.41a.625.625 0 0 1-.622-.63v-1.257c0-.347.278-.629.622-.629h2.486c.344 0 .622.282.622.63v1.257a.625.625 0 0 1-.622.629zM6.301 28.674H3.814a.625.625 0 0 1-.621-.629v-1.257c0-.347.278-.629.621-.629h2.487c.343 0 .622.282.622.629v1.257a.625.625 0 0 1-.622.63zM17.492 28.674h-2.487a.625.625 0 0 1-.622-.629v-1.257c0-.347.279-.629.622-.629h2.487c.343 0 .621.282.621.629v1.257a.625.625 0 0 1-.621.63zM11.896 28.674H9.41a.625.625 0 0 1-.622-.629v-1.257c0-.347.278-.629.622-.629h2.486c.344 0 .622.282.622.629v1.257a.625.625 0 0 1-.622.63z"/>
        </g>
        <path fill="#707487" d="M6.2 32.87H3.755a.61.61 0 0 1-.611-.61v-1.217a.61.61 0 0 1 .61-.608H6.2a.61.61 0 0 1 .611.608v1.218a.61.61 0 0 1-.611.609z"/>
        <path fill="#9BF57D" d="M17.377 32.87h-2.445a.61.61 0 0 1-.611-.61v-1.217a.61.61 0 0 1 .61-.608h2.446a.61.61 0 0 1 .611.608v1.218a.61.61 0 0 1-.611.609z"/>
        <path fill="#FFDC64" d="M11.788 32.87H9.343a.61.61 0 0 1-.611-.61v-1.217a.61.61 0 0 1 .611-.608h2.445a.61.61 0 0 1 .611.608v1.218a.61.61 0 0 1-.61.609z"/>
        <path fill="#E4E7ED" d="M16.037.884L14.85.104a.634.634 0 0 0-.696 0l-1.185.78a.634.634 0 0 1-.696 0l-1.186-.78a.634.634 0 0 0-.695 0l-1.186.78a.634.634 0 0 1-.696 0L7.325.104a.634.634 0 0 0-.695 0l-1.186.78a.634.634 0 0 1-.696 0L4.297.587a.293.293 0 0 0-.455.24V12.87H17.64V.827c0-.23-.26-.368-.455-.24l-.452.297a.634.634 0 0 1-.695 0z"/>
        <g fill="#C7CFE2">
            <path d="M12.429 4.933H8.703a.624.624 0 0 1-.621-.628c0-.346.277-.627.62-.627h3.727c.343 0 .62.28.62.627a.624.624 0 0 1-.62.628zM14.913 7.444H6.219a.624.624 0 0 1-.621-.628c0-.347.278-.628.62-.628h8.695c.343 0 .62.281.62.628a.624.624 0 0 1-.62.628z"/>
        </g>
        <g fill="#AFB9D2">
            <path d="M7.46 9.735H6.22a.61.61 0 0 1-.621-.599c0-.33.277-.599.62-.599h1.243a.61.61 0 0 1 .62.6.61.61 0 0 1-.62.598zM14.913 9.735H13.67a.61.61 0 0 1-.621-.599c0-.33.277-.599.62-.599h1.243a.61.61 0 0 1 .62.6.61.61 0 0 1-.62.598zM11.187 9.735H9.945a.61.61 0 0 1-.621-.599c0-.33.277-.599.62-.599h1.243a.61.61 0 0 1 .62.6.61.61 0 0 1-.62.598z"/>
        </g>
        <path fill="#D7DEED" d="M3.842 11.652h13.797v1.217H3.842z"/>
        <path fill="#00AAF0" d="M18.062 14.783H3.07a.631.631 0 0 0-.625.637v1.276c0-.353.28-.638.625-.638h14.992c.345 0 .625.285.625.638V15.42a.631.631 0 0 0-.625-.637z"/>
    </g>
</svg>
