<svg xmlns="http://www.w3.org/2000/svg" width="122" height="150" viewBox="0 0 122 150">
    <g fill="none" fill-rule="nonzero">
        <path fill="#EFF2FA" d="M98.548.18H4.48C2.006.18 0 2.853 0 6.154V125.66c0 3.3 2.006 5.976 4.48 5.976h94.069c2.474 0 4.48-2.675 4.48-5.976V6.155c0-3.3-2.007-5.976-4.48-5.976z"/>
        <g fill="#D7DEED">
            <path d="M29.117 18.097H11.199a2.24 2.24 0 0 1 0-4.48h17.918a2.24 2.24 0 0 1 0 4.48zM91.83 18.097h-6.72a2.24 2.24 0 0 1 0-4.48h6.72a2.24 2.24 0 0 1 0 4.48z"/>
        </g>
        <path fill="#C7CFE2" d="M76.151 18.097H38.076a2.24 2.24 0 0 1 0-4.48H76.15a2.24 2.24 0 0 1 0 4.48z"/>
        <g fill="#D7DEED">
            <path d="M38.076 40.495H11.199a2.24 2.24 0 0 1 0-4.48h26.877a2.24 2.24 0 0 1 0 4.48zM37.997 119.96H11.12a2.24 2.24 0 0 1 0-4.48h26.877a2.24 2.24 0 0 1 0 4.48zM26.877 51.693H11.2a2.24 2.24 0 0 1 0-4.48h15.678a2.24 2.24 0 0 1 0 4.48zM91.83 51.693H55.992a2.24 2.24 0 0 1 0-4.48H91.83a2.24 2.24 0 0 1 0 4.48zM91.83 40.495H73.91a2.24 2.24 0 0 1 0-4.48H91.83a2.24 2.24 0 0 1 0 4.48z"/>
        </g>
        <g fill="#C7CFE2">
            <path d="M64.953 40.494H47.035a2.24 2.24 0 0 1 0-4.48h17.918a2.24 2.24 0 0 1 0 4.48zM72.596 97.537H29.05c-3.006 0-3.006-4.48 0-4.48h43.546c3.006 0 3.006 4.48 0 4.48zM44.795 29.296H11.199a2.24 2.24 0 0 1 0-4.48h33.596a2.24 2.24 0 0 1 0 4.48zM42.555 51.693h-6.72a2.24 2.24 0 0 1 0-4.48h6.72a2.24 2.24 0 0 1 0 4.48z"/>
        </g>
        <g fill="#D7DEED">
            <path d="M20.158 62.892h-8.96a2.24 2.24 0 0 1 0-4.48h8.96a2.24 2.24 0 0 1 0 4.48zM62.713 74.09h-8.96a2.24 2.24 0 0 1 0-4.479h8.96a2.24 2.24 0 0 1 0 4.48zM91.83 74.09H71.671a2.24 2.24 0 0 1 0-4.479h20.157a2.24 2.24 0 0 1 0 4.48zM91.83 62.892h-8.96a2.24 2.24 0 0 1 0-4.48h8.96a2.24 2.24 0 0 1 0 4.48z"/>
        </g>
        <g fill="#D7DEED">
            <path d="M20.079 97.507H11.12a2.24 2.24 0 0 1 0-4.48h8.959a2.24 2.24 0 0 1 0 4.48zM62.713 108.732h-8.96a2.24 2.24 0 0 1 0-4.48h8.96a2.24 2.24 0 0 1 0 4.48zM91.83 108.732H71.671a2.24 2.24 0 0 1 0-4.48h20.157a2.24 2.24 0 0 1 0 4.48zM92.223 119.99H75.608c-1.02 0-1.846-1.003-1.846-2.24 0-1.236.827-2.24 1.846-2.24h16.615c1.02 0 1.846 1.004 1.846 2.24 0 1.237-.826 2.24-1.846 2.24zM91.83 97.533h-8.96a2.24 2.24 0 0 1 0-4.48h8.96a2.24 2.24 0 0 1 0 4.48z"/>
        </g>
        <path fill="#C7CFE2" d="M73.911 62.892H29.117a2.24 2.24 0 0 1 0-4.48H73.91a2.24 2.24 0 0 1 0 4.48z"/>
        <g fill="#D7DEED">
            <path d="M38.076 85.29H11.199a2.24 2.24 0 0 1 0-4.48h26.877a2.24 2.24 0 0 1 0 4.48zM91.83 85.29H76.15a2.24 2.24 0 0 1 0-4.48H91.83a2.24 2.24 0 0 1 0 4.48z"/>
        </g>
        <g fill="#C7CFE2">
            <path d="M67.192 85.29H47.035a2.24 2.24 0 0 1 0-4.48h20.157a2.24 2.24 0 0 1 0 4.48zM44.795 74.09H11.199a2.24 2.24 0 0 1 0-4.479h33.596a2.24 2.24 0 0 1 0 4.48z"/>
        </g>
        <g fill="#C7CFE2">
            <path d="M66.785 119.929H46.627a2.24 2.24 0 0 1 0-4.48h20.158a2.24 2.24 0 0 1 0 4.48zM44.795 108.732H11.199a2.24 2.24 0 0 1 0-4.48h33.596a2.24 2.24 0 0 1 0 4.48z"/>
        </g>
        <path fill="#D7DEED" d="M91.83 29.296H53.753a2.24 2.24 0 0 1 0-4.48h38.075a2.24 2.24 0 0 1 0 4.48z"/>
        <g>
            <path fill="#FF6465" d="M90.566 150c17.194 0 31.132-13.938 31.132-31.132 0-17.194-13.938-31.132-31.132-31.132-17.194 0-31.132 13.938-31.132 31.132 0 17.194 13.938 31.132 31.132 31.132z"/>
            <path fill="#FFF" d="M97.692 118.84l8.4-8.4c.61-.61.61-1.6 0-2.21l-4.942-4.942c-.61-.61-1.6-.61-2.21 0l-8.401 8.4-8.4-8.4c-.61-.61-1.6-.61-2.211 0l-4.942 4.942c-.61.61-.61 1.6 0 2.21l8.4 8.4-8.4 8.401c-.61.61-.61 1.6 0 2.211l4.942 4.942c.61.61 1.6.61 2.211 0l8.4-8.4 8.4 8.4c.61.61 1.6.61 2.211 0l4.942-4.942c.61-.61.61-1.6 0-2.211l-8.4-8.4z"/>
        </g>
    </g>
</svg>
