<svg xmlns="http://www.w3.org/2000/svg" width="59" height="50" viewBox="0 0 59 50">
    <g fill="#0070D2" fill-rule="nonzero">
        <path d="M56.922.046H9.814a1.962 1.962 0 0 0-1.963 1.957V3.96H5.888a1.962 1.962 0 0 0-1.962 1.958v1.957H1.963A1.962 1.962 0 0 0 0 9.832v38.165c0 1.08.88 1.957 1.963 1.957H49.07a1.962 1.962 0 0 0 1.963-1.957V46.04h1.962a1.962 1.962 0 0 0 1.963-1.958v-1.957h1.963a1.962 1.962 0 0 0 1.963-1.957V2.003c0-1.08-.88-1.957-1.963-1.957zM1.962 9.832h47.109v21.862l-5.15-5.87c-.373-.427-1.104-.427-1.478 0l-6.218 7.086L19.3 17.908a.98.98 0 0 0-1.304 0L1.963 32.118V9.832zm47.11 35.238v2.927H1.963V34.735l16.685-14.787 17.014 15.079c.194.173.453.251.713.245a.98.98 0 0 0 .678-.332l6.13-6.986 5.89 6.713v10.386l-.001.008.002.009zm3.924-.987h-1.962V9.832c0-1.08-.88-1.957-1.963-1.957H5.888V5.917h47.108v38.166zm3.926-3.915H54.96V5.918c0-1.08-.88-1.958-1.963-1.958H9.814V2.003h47.108v38.165z"/>
        <path d="M35.331 15.703a3.924 3.924 0 0 0-3.926 3.915 3.924 3.924 0 0 0 3.926 3.914 3.924 3.924 0 0 0 3.926-3.914 3.924 3.924 0 0 0-3.926-3.915zm0 5.872a1.962 1.962 0 0 1-1.963-1.957c0-1.08.88-1.958 1.963-1.958 1.083 0 1.963.878 1.963 1.958s-.88 1.957-1.963 1.957z"/>
    </g>
</svg>
