<svg xmlns="http://www.w3.org/2000/svg" width="59" height="50" viewBox="0 0 59 50">
    <g fill="#16325C" fill-rule="nonzero">
        <path d="M56.758.046H9.786a1.96 1.96 0 0 0-1.957 1.957V3.96H5.872a1.96 1.96 0 0 0-1.958 1.958v1.957H1.957C.877 7.875 0 8.752 0 9.832v38.165a1.96 1.96 0 0 0 1.957 1.957H48.93a1.96 1.96 0 0 0 1.957-1.957V46.04h1.957a1.96 1.96 0 0 0 1.957-1.958v-1.957h1.957a1.96 1.96 0 0 0 1.958-1.957V2.003A1.96 1.96 0 0 0 56.758.046zm-54.8 9.786H48.93v21.862l-5.135-5.87c-.373-.427-1.1-.427-1.474 0l-6.2 7.086-16.878-15.002a.975.975 0 0 0-1.3 0L1.957 32.118V9.832zM48.931 45.07v2.927H1.957V34.735l16.636-14.787 16.965 15.079c.194.173.452.251.712.245a.976.976 0 0 0 .675-.332l6.113-6.986 5.873 6.713v10.386l-.001.008.002.009zm3.912-.987h-1.957V9.832a1.96 1.96 0 0 0-1.957-1.957H5.872V5.917h46.972v38.166zm3.914-3.915h-1.957V5.918a1.96 1.96 0 0 0-1.957-1.958H9.786V2.003h46.972v38.165z"/>
        <path d="M35.23 15.703a3.918 3.918 0 0 0-3.915 3.915 3.918 3.918 0 0 0 3.914 3.914 3.918 3.918 0 0 0 3.915-3.914 3.918 3.918 0 0 0-3.915-3.915zm0 5.872a1.96 1.96 0 0 1-1.958-1.957 1.96 1.96 0 0 1 1.957-1.958 1.96 1.96 0 0 1 1.958 1.958 1.96 1.96 0 0 1-1.958 1.957z"/>
    </g>
</svg>
