<svg xmlns="http://www.w3.org/2000/svg" width="23" height="20" viewBox="0 0 23 20">
    <g fill="#0070D2" fill-rule="nonzero">
        <path d="M22.19.018H3.826a.775.775 0 0 0-.765.783v.783h-.765a.775.775 0 0 0-.766.783v.783H.765A.775.775 0 0 0 0 3.933v15.266c0 .432.343.783.765.783H19.13a.775.775 0 0 0 .766-.783v-.783h.765a.775.775 0 0 0 .765-.783v-.783h.765a.775.775 0 0 0 .765-.783V.801a.775.775 0 0 0-.765-.783zM.765 3.933H19.13v8.744l-2.007-2.347a.388.388 0 0 0-.576 0l-2.424 2.834-6.599-6a.375.375 0 0 0-.508 0l-6.25 5.683V3.933zM19.13 18.028v1.17H.765v-5.304L7.27 7.979l6.633 6.032c.075.069.176.1.278.098a.378.378 0 0 0 .264-.133l2.39-2.794 2.296 2.685v4.161zm1.53-.395h-.766v-13.7a.775.775 0 0 0-.765-.783H2.296v-.783H20.66v15.266zm1.53-1.566h-.765v-13.7a.775.775 0 0 0-.765-.783H3.826V.801H22.19v15.266z"/>
        <path d="M13.773 6.281c-.844 0-1.53.703-1.53 1.566 0 .864.686 1.566 1.53 1.566s1.53-.702 1.53-1.566c0-.863-.686-1.566-1.53-1.566zm0 2.349a.775.775 0 0 1-.765-.783c0-.432.343-.783.765-.783s.765.351.765.783a.775.775 0 0 1-.765.783z"/>
    </g>
</svg>
