<?xml version="1.0" encoding="UTF-8"?>
<svg width="92px" height="92px" viewBox="0 0 92 92" version="1.1" xmlns="http://www.w3.org/2000/svg" xmlns:xlink="http://www.w3.org/1999/xlink">
    <!-- Generator: Sketch 56.3 (81716) - https://sketch.com -->
    <title>hospital (1) copy</title>
    <desc>Created with Sketch.</desc>
    <g id="Page-1" stroke="none" stroke-width="1" fill="none" fill-rule="evenodd">
        <g id="[VD]-RMC---Disability---Splash-(mobile)" transform="translate(-109.000000, -186.000000)" fill-rule="nonzero">
            <g id="hospital-(1)-copy" transform="translate(109.000000, 186.000000)">
                <path d="M80.6392538,0 L46,0 L11.3607462,0 C5.08636059,0 0,5.12572538 0,11.4484113 L0,80.5515887 C0,86.8742746 5.08636059,92 11.3607462,92 L46,92 L68.78855,92 L68.78855,80.0575803 C68.78855,73.7346354 73.8749106,68.60891 80.1490393,68.60891 L92,68.026353 L92,11.4484113 C92,5.12572538 86.9136394,0 80.6392538,0 Z M69.5973525,48.0275575 C69.5973525,51.3753187 66.904256,54.0897757 63.5804066,54.0897757 L54.0284182,54.0897757 L54.0284182,63.7162075 C54.0284182,67.0655222 51.3355786,69.780497 48.0114723,69.780497 L44.5362936,69.780497 L43.9882708,69.780497 C40.6651921,69.780497 37.9702971,67.0655222 37.9702971,63.7162075 L37.9702971,54.0897757 L28.4183088,54.0897757 C25.0967717,54.0897757 22.4026475,51.3753187 22.4026475,48.0275575 L22.4026475,43.970889 C22.4026475,40.6231278 25.0967717,37.9086708 28.4183088,37.9086708 L37.9702971,37.9086708 L37.9702971,28.2832747 C37.9702971,24.9334422 40.6651921,22.219503 43.9882708,22.219503 L44.5362936,22.219503 L48.0114723,22.219503 C51.3355786,22.219503 54.0284182,24.9334422 54.0284182,28.2832747 L54.0284182,37.9086708 L63.5804066,37.9086708 C66.904256,37.9086708 69.5973525,40.6231278 69.5973525,43.970889 L69.5973525,48.0275575 Z" id="Shape" fill="#E74424"></path>
                <path d="M68.5490196,79.6703104 L68.5490196,92 L91.8133874,67.85 L80.2084747,67.85 C73.7691335,67.85 68.5490196,73.1420145 68.5490196,79.6703104 Z" id="Path" fill="#D43D21"></path>
                <path d="M63.1707034,37.937091 L53.6779651,37.937091 L53.6779651,28.3455034 C53.6779651,25.0074369 51.001829,22.3030303 47.6983417,22.3030303 L44.2447192,22.3030303 L43.7000957,22.3030303 C40.3976299,22.3030303 37.719451,25.0074369 37.719451,28.3455034 L37.719451,37.937091 L28.2267127,37.937091 C24.9257788,37.937091 22.248366,40.6420137 22.248366,43.9780161 L22.248366,48.0204358 C22.248366,51.3564383 24.9257788,54.0613609 28.2267127,54.0613609 L37.719451,54.0613609 L37.719451,63.6539805 C37.719451,66.991531 40.3976299,69.6969697 43.7000957,69.6969697 L44.2447192,69.6969697 L47.6983417,69.6969697 C51.001829,69.6969697 53.6779651,66.991531 53.6779651,63.6539805 L53.6779651,54.0613609 L63.1707034,54.0613609 C66.4739353,54.0613609 69.1503268,51.3564383 69.1503268,48.0204358 L69.1503268,43.9780161 C69.1503268,40.6420137 66.47368,37.937091 63.1707034,37.937091 Z" id="Path" fill="#F7F1E6"></path>
            </g>
        </g>
    </g>
</svg>