<svg xmlns="http://www.w3.org/2000/svg" width="40" height="36" viewBox="0 0 40 36">
    <g fill="none" fill-rule="nonzero">
        <path fill="#FCD577" d="M33.425 13.912a.143.143 0 0 0-.041.1V32a4 4 0 0 1-4 4H10.616a4 4 0 0 1-4-4V14.013a.143.143 0 0 0-.041-.101.06.06 0 0 1 0-.084L17.163 3.175a4 4 0 0 1 5.674 0l10.588 10.653a.06.06 0 0 1 0 .084z"/>
        <path fill="#CFDCE5" d="M31.475 9.1V4.26a2.95 2.95 0 0 0-2.95-2.95h-.73a2.221 2.221 0 0 0-2.221 2.22v.973a4 4 0 0 0 .709 2.274"/>
        <path fill="#FF6F52" d="M38.234 19.925L22.82 4.601a4 4 0 0 0-5.64 0L1.766 19.925a.992.992 0 0 1-1.4 0 .98.98 0 0 1 0-1.39L17.18 1.818a4 4 0 0 1 5.64 0l16.813 16.715a.98.98 0 0 1 0 1.391.992.992 0 0 1-1.399 0z"/>
        <path fill="#CFDCE5" d="M9.836 19.636h9.18V36h-9.18z"/>
        <path fill="#EAC36E" d="M19.016 36h-.88V24.522a4 4 0 0 0-4-4h-.075a4 4 0 0 0-4 4V36h-.88V23.636a4 4 0 0 1 4-4h1.835a4 4 0 0 1 4 4V36z"/>
        <g fill="#4EBFED">
            <path d="M21.695 19.567h9.042v9.197h-9.042zM17.1 8.578h5.87v5.971H17.1z"/>
        </g>
        <g fill="#EAC36E">
            <path d="M21.216 23.409v2.005a4 4 0 0 0 4 4h2.25a4 4 0 0 0 4-4V23.41a4 4 0 0 0-4-4h-2.25a4 4 0 0 0-4 4zm7.503.554h-.09a1.83 1.83 0 1 1 0-3.659h.09a1.83 1.83 0 1 1 0 3.659zm-2.837-1.829a1.83 1.83 0 0 1-1.83 1.83h-.089a1.83 1.83 0 0 1 0-3.659h.09c1.01 0 1.83.819 1.83 1.83zm0 4.555a1.83 1.83 0 0 1-1.83 1.829h-.089a1.83 1.83 0 1 1 0-3.659h.09c1.01 0 1.83.82 1.83 1.83zm.918 0c0-1.01.82-1.83 1.83-1.83h.089a1.83 1.83 0 1 1 0 3.659h-.09a1.83 1.83 0 0 1-1.829-1.83zM20.043 8.525h-.166a3.405 3.405 0 0 0 0 6.81h.166a3.405 3.405 0 0 0 0-6.81zm-.021 5.914h-.123a2.51 2.51 0 1 1 0-5.018h.123a2.51 2.51 0 0 1 0 5.018z"/>
        </g>
        <ellipse cx="16.393" cy="28.145" fill="#FF6F52" rx="1" ry="1"/>
    </g>
</svg>
