<svg xmlns="http://www.w3.org/2000/svg" width="61" height="56" viewBox="0 0 61 56">
    <g fill="#0070D2" fill-rule="nonzero">
        <path d="M59.252 27.257c-.97 0-1.747.77-1.747 1.734v15.771c0 4.29-3.522 7.77-7.832 7.77H11.327c-4.323 0-7.832-3.493-7.832-7.77V28.734C3.495 27.77 2.72 27 1.748 27 .777 27 0 27.77 0 28.734v16.028C0 50.965 5.088 56 11.327 56h38.346C55.925 56 61 50.953 61 44.762V28.991c0-.95-.777-1.734-1.748-1.734z"/>
        <path d="M21.009 14.041l8.223-8.097v35.315c0 .967.786 1.741 1.768 1.741s1.768-.774 1.768-1.74V5.943l8.223 8.097c.34.335.8.516 1.244.516.459 0 .904-.168 1.244-.516a1.717 1.717 0 0 0 0-2.463L32.244.516A1.803 1.803 0 0 0 31 0c-.471 0-.917.18-1.244.516L18.521 11.578a1.717 1.717 0 0 0 0 2.463c.68.67 1.807.67 2.488 0z"/>
    </g>
</svg>
