<svg xmlns="http://www.w3.org/2000/svg" width="55" height="62" viewBox="0 0 55 62">
    <g fill="none" fill-rule="evenodd">
        <g fill-rule="nonzero">
            <path fill="#49C9A7" d="M4.94 0C2.229 0 .098 2.228.098 4.94v52.216C.097 59.87 2.228 62 4.94 62h44.368c2.713 0 4.941-2.131 4.941-4.844V19.763L35.94 0h-31z"/>
            <path fill="#37BB91" d="M54.25 19.762v.97h-12.4s-6.103-1.26-6.006-6.588c0 0 .29 5.618 5.91 5.618H54.25z"/>
            <path fill="#FFF" d="M35.94 0v14.144c0 1.55 1.066 5.618 5.91 5.618h12.4L35.94 0z" opacity=".5"/>
        </g>
        <path fill="#FFF" d="M9.784 52.022V31.775h20.247v20.247H9.784zm18.213-18.213H11.819v12.207h16.178V33.809zm-9.3 8.138l3.778-5.135 1.26 2.035 1.259-.388.968 5.425h-12.69l3.39-3.197 2.035 1.26zm-3.681-3.585c-.872 0-1.647-.58-1.647-1.453 0-.775.775-1.453 1.647-1.453.871 0 1.55.678 1.55 1.453 0 .872-.678 1.453-1.55 1.453z"/>
    </g>
</svg>
