<svg xmlns="http://www.w3.org/2000/svg" viewBox="0 0 166.2 127.58"><defs><style>.cls-1{fill:#e8ecef;}.cls-2{fill:#57677b;}.cls-3{fill:#f2b430;}.cls-4{fill:#fdd349;}.cls-5{fill:#d0544c;}.cls-6{fill:#f37364;}.cls-7{fill:#4ea146;}.cls-8{fill:#73c166;}.cls-9{fill:#34435e;}.cls-10{fill:#f04c54;}.cls-11{fill:#fff;}</style></defs><title>integration-failure</title><g id="Layer_2" data-name="Layer 2"><g id="Layer_1-2" data-name="Layer 1"><rect class="cls-1" y="0.85" width="140.05" height="113.89" rx="1.66" ry="1.66"/><path class="cls-2" d="M139.23,0H2.51C1.59,0,.2-.1.2.82V26h140V.82C140.2-.1,140.15,0,139.23,0Z"/><circle class="cls-3" cx="109.68" cy="13.5" r="5.91"/><circle class="cls-4" cx="109.68" cy="13.5" r="3.37"/><circle class="cls-5" cx="127.39" cy="13.5" r="5.91"/><circle class="cls-6" cx="127.39" cy="13.5" r="3.37"/><circle class="cls-7" cx="91.96" cy="13.5" r="5.91"/><circle class="cls-8" cx="91.96" cy="13.5" r="3.37"/><rect class="cls-9" x="5.91" y="12.66" width="5.06" height="3.37" rx="1.69" ry="1.69"/><rect class="cls-9" x="14.34" y="12.66" width="6.75" height="3.37" rx="1.69" ry="1.69"/><rect class="cls-9" x="25.31" y="12.66" width="5.06" height="3.37" rx="1.69" ry="1.69"/><circle class="cls-10" cx="138.36" cy="99.74" r="27.84"/><polygon class="cls-11" points="151.48 91.58 146.71 86.8 138.36 95.16 130.01 86.8 125.23 91.58 133.59 99.93 125.23 108.28 130.01 113.05 138.36 104.7 146.71 113.05 151.48 108.28 143.13 99.93 151.48 91.58"/></g></g></svg>