<svg xmlns="http://www.w3.org/2000/svg" width="26" height="36" viewBox="0 0 26 36">
    <g fill="none" fill-rule="nonzero">
        <path fill="#F7F1E6" d="M21.727 6.19c-1.445 0-2.616-1.19-2.616-2.66V.1l3.092 3.043L19.111 0H2.616C1.17 0 0 1.19 0 2.659v30.682C0 34.809 1.171 36 2.616 36h19.968c1.445 0 2.616-1.19 2.616-2.659V6.189H21.727zm-13.766.244c0-.52.416-.942.927-.942h1.472V3.996c0-.52.415-.943.927-.943h.62c.512 0 .927.422.927.943v1.496h1.472c.512 0 .927.422.927.942v.63c0 .52-.415.943-.927.943h-1.472v1.496c0 .52-.415.942-.927.942h-.62a.935.935 0 0 1-.927-.942V8.007H8.888a.935.935 0 0 1-.927-.943v-.63zm-4.483 6.65c0-.475.378-.86.846-.86h2.792c.467 0 .846.385.846.86v2.838c0 .475-.38.86-.846.86H4.324a.853.853 0 0 1-.846-.86v-2.838zm18.641 15.729H4.095a.43.43 0 0 1-.427-.434.43.43 0 0 1 .427-.434h18.024a.43.43 0 0 1 .427.434.43.43 0 0 1-.427.434zm0-3.941H4.095a.43.43 0 0 1-.427-.434.43.43 0 0 1 .427-.434h18.024a.43.43 0 0 1 .427.434.43.43 0 0 1-.427.434zm0-4.132H4.095a.43.43 0 0 1-.427-.434.43.43 0 0 1 .427-.433h18.024a.43.43 0 0 1 .427.433.43.43 0 0 1-.427.434zm0-4.131H9.362a.43.43 0 0 1-.427-.434.43.43 0 0 1 .427-.434h12.757a.43.43 0 0 1 .427.434.43.43 0 0 1-.427.434z"/>
        <path fill="#E0DCD3" d="M19.2 3.48c0 1.448 1.154 2.622 2.578 2.622H25.2l-2.953-3.004L19.2 0v3.48z"/>
        <path fill="#DEC8AE" d="M4.506 17.085h2.988c.5 0 .906-.413.906-.921v-3.04a.913.913 0 0 0-.906-.92H4.506c-.5 0-.906.412-.906.92v3.04c0 .508.405.92.906.92zM21.786 15.864H9.414c-.229 0-.414.274-.414.61 0 .338.185.61.414.61h12.372c.229 0 .414-.272.414-.61 0-.336-.185-.61-.414-.61zM21.78 20.136H4.02c-.232 0-.42.273-.42.61 0 .337.188.61.42.61h17.76c.232 0 .42-.273.42-.61 0-.337-.188-.61-.42-.61zM21.78 23.797H4.02c-.232 0-.42.273-.42.61 0 .337.188.61.42.61h17.76c.232 0 .42-.273.42-.61 0-.337-.188-.61-.42-.61zM21.78 28.068H4.02c-.232 0-.42.273-.42.61 0 .337.188.61.42.61h17.76c.232 0 .42-.273.42-.61 0-.337-.188-.61-.42-.61z"/>
        <path fill="#D43D21" d="M8.265 7.982h1.632v1.66c0 .577.46 1.046 1.028 1.046H11.612c.568 0 1.028-.469 1.028-1.046v-1.66h1.632c.568 0 1.028-.467 1.028-1.045v-.699c0-.577-.46-1.045-1.028-1.045H12.64v-1.66c0-.577-.46-1.045-1.028-1.045H10.925c-.568 0-1.028.468-1.028 1.046v1.66H8.265c-.567 0-1.028.467-1.028 1.044v.7c0 .577.46 1.044 1.028 1.044z"/>
    </g>
</svg>
