<svg xmlns="http://www.w3.org/2000/svg" width="181" height="150" viewBox="0 0 181 150">
    <g fill="none" fill-rule="nonzero">
        <path fill="#F3D55C" d="M73.404 25.532l-8.6-22.936A4 4 0 0 0 61.057 0H4a4 4 0 0 0-4 4v142a4 4 0 0 0 4 4h145.191a4 4 0 0 0 4-4V29.532a4 4 0 0 0-4-4H73.404z"/>
        <path fill="#F0C41B" d="M153.191 38.298h23.517a4 4 0 0 1 3.865 5.03l-27.382 102.663c-.02.074-.02-35.823 0-107.693z"/>
        <path fill="#F5F1E2" d="M19.149 89.362h70.213v41.489H19.149z"/>
        <path fill="#D6D0BB" d="M60.638 121.277H31.915a3.189 3.189 0 0 1-3.192-3.192 3.189 3.189 0 0 1 3.192-3.191h28.723a3.189 3.189 0 0 1 3.192 3.191 3.189 3.189 0 0 1-3.192 3.192M44.68 105.32H31.916a3.189 3.189 0 0 1-3.192-3.192 3.189 3.189 0 0 1 3.192-3.192H44.68a3.189 3.189 0 0 1 3.191 3.192 3.189 3.189 0 0 1-3.191 3.191M76.596 105.32h-6.383a3.189 3.189 0 0 1-3.192-3.192 3.189 3.189 0 0 1 3.192-3.192h6.383a3.189 3.189 0 0 1 3.191 3.192 3.189 3.189 0 0 1-3.191 3.191M73.404 121.277a3.178 3.178 0 0 1-2.266-.958 3.149 3.149 0 0 1-.925-2.234c0-.865.348-1.663.925-2.266 1.181-1.18 3.351-1.18 4.532 0 .575.603.926 1.436.926 2.266 0 .83-.351 1.66-.926 2.266-.606.575-1.436.926-2.266.926M57.447 105.32c-.83 0-1.663-.352-2.266-.926a3.341 3.341 0 0 1-.926-2.266c0-.83.348-1.663.926-2.266 1.142-1.181 3.35-1.181 4.532 0 .574.603.925 1.4.925 2.266 0 .83-.35 1.66-.925 2.266-.607.574-1.436.925-2.266.925"/>
    </g>
</svg>
