<svg xmlns="http://www.w3.org/2000/svg" width="172" height="200" viewBox="0 0 172 200">
    <g fill="none" fill-rule="nonzero">
        <path fill="#EFF2FA" d="M149.728.273H6.806C3.047.273 0 4.337 0 9.35v181.57C0 195.937 3.047 200 6.806 200h142.922c3.76 0 6.806-4.064 6.806-9.078V9.35c0-5.014-3.048-9.078-6.806-9.078z"/>
        <g fill="#D7DEED">
            <path d="M44.238 27.496H17.015a3.403 3.403 0 0 1 0-6.806h27.223a3.403 3.403 0 0 1 0 6.806zM139.52 27.496h-10.21a3.403 3.403 0 0 1 0-6.806h10.21a3.403 3.403 0 0 1 0 6.806z"/>
        </g>
        <path fill="#C7CFE2" d="M115.699 27.496h-57.85a3.403 3.403 0 0 1 0-6.806h57.85a3.403 3.403 0 0 1 0 6.806z"/>
        <g fill="#D7DEED">
            <path d="M57.85 61.525H17.015a3.403 3.403 0 0 1 0-6.806H57.85a3.403 3.403 0 0 1 0 6.806zM57.73 182.258H16.895a3.403 3.403 0 0 1 0-6.806H57.73a3.403 3.403 0 0 1 0 6.806zM40.835 78.54h-23.82a3.403 3.403 0 0 1 0-6.807h23.82a3.403 3.403 0 0 1 0 6.807zM139.52 78.54H85.072a3.403 3.403 0 0 1 0-6.807h54.446a3.403 3.403 0 0 1 0 6.807zM139.52 61.525h-27.224a3.403 3.403 0 0 1 0-6.806h27.223a3.403 3.403 0 0 1 0 6.806z"/>
        </g>
        <g fill="#C7CFE2">
            <path d="M98.685 61.525H71.46a3.403 3.403 0 0 1 0-6.807h27.224a3.403 3.403 0 0 1 0 6.807zM110.298 148.192H44.137c-4.567 0-4.567-6.806 0-6.806h66.16c4.568 0 4.568 6.806 0 6.806zM68.058 44.51H17.015a3.403 3.403 0 0 1 0-6.806h51.043a3.403 3.403 0 0 1 0 6.806zM64.656 78.54h-10.21a3.403 3.403 0 0 1 0-6.807h10.21a3.403 3.403 0 0 1 0 6.807z"/>
        </g>
        <g fill="#D7DEED">
            <path d="M30.626 95.554H17.015a3.403 3.403 0 0 1 0-6.806h13.611a3.403 3.403 0 0 1 0 6.806zM95.282 112.569H81.67a3.403 3.403 0 0 1 0-6.807h13.612a3.403 3.403 0 0 1 0 6.807zM139.52 112.569h-30.627a3.403 3.403 0 0 1 0-6.807h30.626a3.403 3.403 0 0 1 0 6.807zM139.52 95.554h-13.612a3.403 3.403 0 0 1 0-6.806h13.611a3.403 3.403 0 0 1 0 6.806z"/>
        </g>
        <g fill="#D7DEED">
            <path d="M30.507 148.146H16.895a3.403 3.403 0 0 1 0-6.807h13.612a3.403 3.403 0 0 1 0 6.807zM95.282 165.2H81.67a3.403 3.403 0 0 1 0-6.806h13.612a3.403 3.403 0 0 1 0 6.806zM139.52 165.2h-30.627a3.403 3.403 0 0 1 0-6.806h30.626a3.403 3.403 0 0 1 0 6.806zM140.118 182.305h-25.244c-1.549 0-2.805-1.523-2.805-3.403 0-1.879 1.256-3.403 2.805-3.403h25.244c1.548 0 2.804 1.524 2.804 3.403 0 1.88-1.256 3.403-2.804 3.403zM139.52 148.186h-13.612a3.403 3.403 0 0 1 0-6.806h13.611a3.403 3.403 0 0 1 0 6.806z"/>
        </g>
        <path fill="#C7CFE2" d="M112.296 95.554H44.238a3.403 3.403 0 0 1 0-6.806h68.058a3.403 3.403 0 0 1 0 6.806z"/>
        <g fill="#D7DEED">
            <path d="M57.85 129.583H17.015a3.403 3.403 0 0 1 0-6.806H57.85a3.403 3.403 0 0 1 0 6.806zM139.52 129.583H115.7a3.403 3.403 0 0 1 0-6.806h23.82a3.403 3.403 0 0 1 0 6.806z"/>
        </g>
        <g fill="#C7CFE2">
            <path d="M102.087 129.583H71.461a3.403 3.403 0 0 1 0-6.806h30.626a3.403 3.403 0 0 1 0 6.806zM68.058 112.569H17.015a3.403 3.403 0 0 1 0-6.807h51.043a3.403 3.403 0 0 1 0 6.807z"/>
        </g>
        <g fill="#C7CFE2">
            <path d="M101.468 182.212H70.842a3.403 3.403 0 0 1 0-6.806h30.626a3.403 3.403 0 0 1 0 6.806zM68.058 165.2H17.015a3.403 3.403 0 0 1 0-6.806h51.043a3.403 3.403 0 0 1 0 6.806z"/>
        </g>
        <path fill="#D7DEED" d="M139.52 44.51H81.67a3.403 3.403 0 0 1 0-6.806h57.85a3.403 3.403 0 0 1 0 6.806z"/>
        <g fill="#5D5E6E">
            <path d="M170.56 114.081l-59.056-37.417a2.795 2.795 0 0 0-3.021.016l-.006.004.003-.002 59.722 92.28c3.328-2.163 4.272-6.626 2.11-9.968l-20.716-32.008 20.482-7.905c2.15-.83 2.433-3.764.482-5z"/>
            <path d="M108.567 76.517a2.818 2.818 0 0 0-1.25 2.766l10.047 69.514c.332 2.296 3.129 3.236 4.765 1.602l15.59-15.568 20.772 32.105c2.169 3.352 6.631 4.31 9.967 2.14L108.57 76.516l-.003.002z"/>
        </g>
    </g>
</svg>
