<svg xmlns="http://www.w3.org/2000/svg" width="29" height="36" viewBox="0 0 29 36">
    <g fill="none" fill-rule="nonzero">
        <path fill="#EFF2FA" d="M26.974.05H1.226C.55.05 0 .78 0 1.682v32.683C0 35.268.55 36 1.226 36h25.748c.677 0 1.226-.732 1.226-1.634V1.683C28.2.781 27.65.05 26.974.05z"/>
        <g fill="#D7DEED">
            <path d="M7.97 4.95H3.065a.613.613 0 1 1 0-1.226H7.97a.613.613 0 1 1 0 1.225zM25.135 4.95h-1.84a.613.613 0 1 1 0-1.226h1.84a.613.613 0 1 1 0 1.225z"/>
        </g>
        <path fill="#C7CFE2" d="M20.843 4.95H10.422a.613.613 0 1 1 0-1.226h10.421a.613.613 0 1 1 0 1.225z"/>
        <g fill="#D7DEED">
            <path d="M10.422 11.074H3.065a.613.613 0 1 1 0-1.225h7.357a.613.613 0 1 1 0 1.225zM10.4 32.807H3.044a.613.613 0 1 1 0-1.226H10.4a.613.613 0 1 1 0 1.226zM7.357 14.137H3.065a.613.613 0 1 1 0-1.225h4.291a.613.613 0 1 1 0 1.225zM25.135 14.137h-9.809a.613.613 0 1 1 0-1.225h9.809a.613.613 0 1 1 0 1.225zM25.135 11.074H20.23a.613.613 0 1 1 0-1.225h4.905a.613.613 0 1 1 0 1.225z"/>
        </g>
        <g fill="#C7CFE2">
            <path d="M17.778 11.074h-4.904a.613.613 0 1 1 0-1.225h4.904a.613.613 0 1 1 0 1.225zM19.87 26.675H7.951c-.822 0-.822-1.226 0-1.226h11.92c.822 0 .822 1.226 0 1.226zM12.26 8.012H3.066a.613.613 0 1 1 0-1.225h9.196a.613.613 0 1 1 0 1.225zM11.648 14.137h-1.84a.613.613 0 1 1 0-1.225h1.84a.613.613 0 1 1 0 1.225z"/>
        </g>
        <g fill="#D7DEED">
            <path d="M5.517 17.2H3.065a.613.613 0 1 1 0-1.225h2.452a.613.613 0 1 1 0 1.225zM17.165 20.262h-2.452a.613.613 0 1 1 0-1.225h2.452a.613.613 0 1 1 0 1.225zM25.135 20.262h-5.518a.613.613 0 1 1 0-1.225h5.518a.613.613 0 1 1 0 1.225zM25.135 17.2h-2.452a.613.613 0 1 1 0-1.225h2.452a.613.613 0 1 1 0 1.225z"/>
        </g>
        <g fill="#D7DEED">
            <path d="M5.496 26.666H3.044a.613.613 0 1 1 0-1.225h2.452a.613.613 0 1 1 0 1.225zM17.165 29.736h-2.452a.613.613 0 1 1 0-1.225h2.452a.613.613 0 1 1 0 1.225zM25.135 29.736h-5.518a.613.613 0 1 1 0-1.225h5.518a.613.613 0 1 1 0 1.225zM25.242 32.815h-4.547c-.28 0-.505-.274-.505-.613 0-.338.226-.612.505-.612h4.547c.28 0 .506.274.506.612 0 .339-.226.613-.506.613zM25.135 26.673h-2.452a.613.613 0 1 1 0-1.225h2.452a.613.613 0 1 1 0 1.225z"/>
        </g>
        <path fill="#C7CFE2" d="M20.23 17.2H7.97a.613.613 0 1 1 0-1.225h12.26a.613.613 0 1 1 0 1.225z"/>
        <g fill="#D7DEED">
            <path d="M10.422 23.325H3.065a.613.613 0 1 1 0-1.225h7.357a.613.613 0 1 1 0 1.225zM25.135 23.325h-4.292a.613.613 0 1 1 0-1.225h4.292a.613.613 0 1 1 0 1.225z"/>
        </g>
        <g fill="#C7CFE2">
            <path d="M18.391 23.325h-5.517a.613.613 0 1 1 0-1.225h5.517a.613.613 0 1 1 0 1.225zM12.26 20.262H3.066a.613.613 0 1 1 0-1.225h9.196a.613.613 0 1 1 0 1.225z"/>
        </g>
        <g fill="#C7CFE2">
            <path d="M18.28 32.798h-5.518a.613.613 0 1 1 0-1.225h5.518a.613.613 0 1 1 0 1.225zM12.26 29.736H3.066a.613.613 0 1 1 0-1.225h9.196a.613.613 0 1 1 0 1.225z"/>
        </g>
        <path fill="#D7DEED" d="M25.135 8.012H14.713a.613.613 0 1 1 0-1.225h10.422a.613.613 0 1 1 0 1.225z"/>
    </g>
</svg>
