<svg xmlns="http://www.w3.org/2000/svg" width="112" height="80" viewBox="0 0 112 80">
    <path fill="#068BFF" fill-rule="nonzero" d="M90.554 28.323C89.024 12.453 75.748 0 59.404 0 46.757 0 35.927 7.471 30.937 18.191c-1.503-.476-3.068-.8-4.728-.8-8.684 0-15.726 7.012-15.726 15.652 0 1.719.346 3.343.86 4.884C4.588 41.847 0 49.043 0 57.384c0 12.487 10.17 22.609 22.715 22.609V80h62.898v-.007c14.481 0 26.205-11.677 26.205-26.087 0-12.717-9.156-23.28-21.264-25.583zm-14.698 3.232a5.266 5.266 0 0 1 0 7.519L50.81 63.739a3.595 3.595 0 0 1-2.53 1.03 3.595 3.595 0 0 1-2.529-1.03L33.579 51.75a5.266 5.266 0 0 1 0-7.519c2.104-2.073 5.53-2.073 7.634 0l7.069 6.96 19.94-19.636A5.428 5.428 0 0 1 72.038 30c1.381 0 2.765.52 3.817 1.555z"/>
</svg>
