<svg xmlns="http://www.w3.org/2000/svg" width="112" height="80" viewBox="0 0 112 80">
    <path fill="#068BFF" fill-rule="nonzero" d="M90.554 28.323C89.024 12.453 75.748 0 59.404 0 46.757 0 35.927 7.471 30.937 18.191c-1.503-.476-3.068-.8-4.728-.8-8.684 0-15.726 7.012-15.726 15.652 0 1.719.346 3.343.86 4.884C4.588 41.847 0 49.043 0 57.384c0 12.487 10.17 22.609 22.715 22.609V80h62.898v-.007c14.481 0 26.205-11.677 26.205-26.087 0-12.717-9.156-23.28-21.264-25.583zM69.118 48.348h-6.22v13.955a3.487 3.487 0 0 1-3.494 3.485h-6.99a3.492 3.492 0 0 1-3.494-3.485V48.348h-6.224c-3.795 0-5.343-2.522-3.449-5.597L52.46 29.788c2.59-2.574 4.228-2.66 6.898 0l13.213 12.963c1.901 3.079.342 5.597-3.453 5.597z"/>
</svg>
