<svg xmlns="http://www.w3.org/2000/svg" width="22" height="20" viewBox="0 0 22 20">
    <g fill="#0070D2" fill-rule="nonzero">
        <path d="M20.947 9.755a.615.615 0 0 0-.617.618v5.62a2.773 2.773 0 0 1-2.77 2.769H4.006a2.773 2.773 0 0 1-2.77-2.769v-5.712a.615.615 0 0 0-.617-.617.615.615 0 0 0-.618.617v5.712a4.009 4.009 0 0 0 4.005 4.005H17.56a4.009 4.009 0 0 0 4.004-4.005v-5.62a.618.618 0 0 0-.618-.618z"/>
        <path d="M7.29 4.995l2.875-2.874v12.536c0 .343.274.618.618.618a.615.615 0 0 0 .617-.618V2.12l2.875 2.874c.119.12.279.183.434.183.16 0 .316-.059.435-.183a.616.616 0 0 0 0-.874L11.217.195a.625.625 0 0 0-.434-.184.598.598 0 0 0-.435.184L6.42 4.12a.616.616 0 1 0 .87.874z"/>
    </g>
</svg>
