<svg xmlns="http://www.w3.org/2000/svg" width="55" height="62" viewBox="0 0 55 62">
    <g fill="none" fill-rule="nonzero">
        <path fill="#E2574C" d="M3.901 0H37.05l17.57 17.383v40.742c0 2.14-1.748 3.875-3.901 3.875H3.9C1.748 62 0 60.266 0 58.125V3.875C0 1.735 1.748 0 3.901 0z"/>
        <path fill="#FFF" d="M39.015 31.303c.638 0 .95-.579.95-1.14 0-.58-.326-1.142-.95-1.142H35.38c-.71 0-1.107.613-1.107 1.289v9.295c0 .829.454 1.289 1.067 1.289.61 0 1.065-.46 1.065-1.289v-2.551h2.198c.682 0 1.023-.581 1.023-1.158 0-.565-.34-1.126-1.023-1.126h-2.198v-3.467h2.61zM26.73 29.021h-2.66c-.721 0-1.234.516-1.234 1.28v9.312c0 .95.738 1.247 1.265 1.247h2.79c3.304 0 5.485-2.262 5.485-5.753-.002-3.691-2.055-6.086-5.646-6.086zm.128 9.544h-1.621v-7.248h1.46c2.212 0 3.174 1.544 3.174 3.675 0 1.995-.945 3.573-3.013 3.573zm-9.742-9.544h-2.634c-.745 0-1.16.512-1.16 1.289v9.295c0 .829.476 1.289 1.116 1.289.64 0 1.116-.46 1.116-1.289v-2.714h1.652c2.038 0 3.72-1.503 3.72-3.919 0-2.365-1.623-3.95-3.81-3.95zm-.044 5.69h-1.518v-3.507h1.518c.938 0 1.534.761 1.534 1.754-.002.992-.596 1.753-1.534 1.753z"/>
        <path fill="#B53629" d="M54.497 17.766H40.6c-2.2 0-3.987-1.768-3.987-3.948V.04l17.884 17.727z"/>
    </g>
</svg>
