<svg xmlns="http://www.w3.org/2000/svg" width="60" height="50" viewBox="0 0 60 50">
    <g fill="#0070D2" fill-rule="nonzero">
        <path d="M55.201 10.5h-8.524L43.18 1.757A2 2 0 0 0 41.323.5H18.677a2 2 0 0 0-1.857 1.257L13.323 10.5H12v-3a2 2 0 0 0-2-2H8a2 2 0 0 0-2 2v3H4.799A4.803 4.803 0 0 0 0 15.299v29.368A4.838 4.838 0 0 0 4.833 49.5h50.334A4.838 4.838 0 0 0 60 44.667V15.299a4.803 4.803 0 0 0-4.799-4.799zM9 7.5a1 1 0 0 1 1 1v2H8v-2a1 1 0 0 1 1-1zm49 37.167a2.836 2.836 0 0 1-2.833 2.833H4.833A2.836 2.836 0 0 1 2 44.667V15.299A2.803 2.803 0 0 1 4.799 12.5H14a1 1 0 0 0 .928-.629l3.498-8.742a1 1 0 0 1 .928-.629h21.292a1 1 0 0 1 .928.629l3.498 8.742A1 1 0 0 0 46 12.5h9.201A2.803 2.803 0 0 1 58 15.299v29.368z"/>
        <path d="M30 9.5c-9.925 0-18 8.075-18 18s8.075 18 18 18 18-8.075 18-18-8.075-18-18-18zm0 34c-8.822 0-16-7.178-16-16s7.178-16 16-16 16 7.178 16 16-7.178 16-16 16z"/>
        <path d="M30 15.5c-6.617 0-12 5.383-12 12s5.383 12 12 12 12-5.383 12-12-5.383-12-12-12zm0 22c-5.514 0-10-4.486-10-10s4.486-10 10-10 10 4.486 10 10-4.486 10-10 10zM52 14.5c-2.206 0-4 1.794-4 4s1.794 4 4 4 4-1.794 4-4-1.794-4-4-4zm0 6c-1.103 0-2-.897-2-2s.897-2 2-2 2 .897 2 2-.897 2-2 2z"/>
    </g>
</svg>
