<svg xmlns="http://www.w3.org/2000/svg" width="37" height="36" viewBox="0 0 37 36">
    <g fill="none" fill-rule="nonzero">
        <path fill="#FD5D65" d="M31.034 12.122L18.424 1.914a.563.563 0 0 0-.707 0L5.107 12.12a.563.563 0 0 0-.21.438v22.817h26.345V12.559c0-.17-.076-.33-.208-.437z"/>
        <path fill="#D3D2D2" d="M36.137 14.009a.563.563 0 0 0-.21-.376L19.113.423a1.685 1.685 0 0 0-2.087 0L.215 13.633a.563.563 0 0 0-.095.79l1.391 1.77a.563.563 0 0 0 .79.096l15.77-12.39 15.768 12.39a.562.562 0 0 0 .79-.095l1.392-1.77a.563.563 0 0 0 .116-.416v.001z"/>
        <path fill="#BDBCBC" d="M15.068 24.568h6.005v10.808h-6.005z"/>
        <path fill="#E9E9E9" d="M21.636 24.568a.563.563 0 0 0-.563-.563h-6.005a.563.563 0 0 0-.562.563v10.657h7.13V24.568zM20.51 34.813h-4.879V25.13h4.88v9.683z"/>
        <path fill="#C4DF64" d="M3.66 29.446a2.968 2.968 0 0 0-2.964 2.965 2.968 2.968 0 0 0 2.964 2.965 2.968 2.968 0 0 0 2.965-2.965 2.968 2.968 0 0 0-2.965-2.965zm6.605 0a2.968 2.968 0 0 0-2.964 2.965 2.968 2.968 0 0 0 2.964 2.965 2.968 2.968 0 0 0 2.964-2.965 2.968 2.968 0 0 0-2.964-2.965zm15.612 0a2.968 2.968 0 0 0-2.965 2.965 2.968 2.968 0 0 0 2.965 2.965 2.968 2.968 0 0 0 2.964-2.965 2.968 2.968 0 0 0-2.964-2.965zm6.604 0a2.968 2.968 0 0 0-2.965 2.965 2.968 2.968 0 0 0 2.965 2.965 2.968 2.968 0 0 0 2.965-2.965 2.968 2.968 0 0 0-2.965-2.965z"/>
        <path fill="#6DDAE1" d="M21.073 15.562h7.205v6.004h-7.205z"/>
        <path fill="#E9E9E9" d="M28.278 14.998h-7.205a.563.563 0 0 0-.563.563v6.005c0 .31.252.562.563.562h7.205c.31 0 .563-.251.563-.562V15.56a.563.563 0 0 0-.563-.563zm-6.642 1.126h2.477v4.879h-2.477v-4.879zm6.079 4.879h-2.477v-4.879h2.477v4.879z"/>
        <path fill="#6DDAE1" d="M7.826 15.562h7.205v6.004H7.826z"/>
        <path fill="#E9E9E9" d="M15.031 14.998H7.826a.563.563 0 0 0-.563.563v6.005c0 .31.252.562.563.562h7.205c.31 0 .563-.251.563-.562V15.56a.564.564 0 0 0-.563-.563zM8.39 16.124h2.476v4.879H8.39v-4.879zm6.08 4.879h-2.477v-4.879h2.476v4.879z"/>
        <path fill="#6DDAE1" d="M15.67 7.756h4.803v4.804h-4.804z"/>
        <path fill="#E9E9E9" d="M20.472 7.193H15.67a.563.563 0 0 0-.563.563v4.804c0 .31.252.562.563.562h4.804c.31 0 .562-.252.562-.563V7.756a.563.563 0 0 0-.563-.563zm-.563 2.402h-1.275V8.318h1.275v1.277zm-2.401-1.277v1.277h-1.276V8.318h1.276zm-1.276 2.403h1.276v1.275h-1.276v-1.275zm2.402 1.275v-1.275h1.276v1.275h-1.277z"/>
        <path fill="#7B7979" d="M16.87 30.535a.563.563 0 0 1-.563-.563v-.601a.563.563 0 0 1 1.126 0v.6c0 .311-.252.564-.563.564zm18.613 5.403H.658a.563.563 0 1 1 0-1.125h34.825a.563.563 0 1 1 0 1.126v-.001z"/>
    </g>
</svg>
