<svg xmlns="http://www.w3.org/2000/svg" width="30" height="30" viewBox="0 0 30 30">
    <g fill="none" fill-rule="evenodd">
        <path fill="#5A7AB1" stroke="#5A7AB1" stroke-width=".8" d="M.4 1.592v26.816c0 .659.533 1.192 1.192 1.192h26.816c.659 0 1.192-.533 1.192-1.192V1.592C29.6.933 29.067.4 28.408.4H1.592C.933.4.4.933.4 1.592z"/>
        <path fill="#DE5E47" fill-rule="nonzero" d="M19.462 8.787h2.063v3.6h-2.063z"/>
        <path fill="#DE5E47" fill-rule="nonzero" d="M18.675 6.95h3.638V8.9h-3.638zM7.575 15.713V23a1 1 0 0 0 1 1h12.7a1 1 0 0 0 1-1v-7.287l-7.35-7.35a679.22 679.22 0 0 1-7.35 7.35z"/>
        <path fill="#F0F1F1" d="M13.4 17.8h3.2a.8.8 0 0 1 .8.8V24h-4.8v-5.4a.8.8 0 0 1 .8-.8z"/>
        <path fill="#BF513D" fill-rule="nonzero" d="M22.313 15.713l-7.35-7.35c-1.463 1.424-2.588 2.55-3.713 3.674l-3.675 3.675V17.4l7.35-7.35 7.35 7.35v.225-1.913h.038z"/>
        <path fill="#F0F1F1" fill-rule="nonzero" d="M23.663 14.175l-7.838-7.838c-.45-.45-1.237-.45-1.687 0l-7.8 7.838c-.45.45-.45 1.237 0 1.687.45.45 1.237.45 1.687 0L15 8.887l6.975 6.975c.45.45 1.237.45 1.688 0 .45-.487.45-1.237 0-1.687z"/>
    </g>
</svg>
