<svg xmlns="http://www.w3.org/2000/svg" width="53" height="36" viewBox="0 0 53 36">
    <g fill="none" fill-rule="nonzero">
        <path fill="#EBF0FA" d="M49.613.089H3.393C1.555.089.032 1.475.032 3.174v29.69c0 1.699 1.523 3.085 3.36 3.085h46.22c1.837 0 3.36-1.386 3.36-3.085V3.174c0-1.699-1.523-3.085-3.36-3.085z"/>
        <g fill="#4485C5" transform="translate(5.02 8.176)">
            <ellipse cx="10.6" cy="5.416" rx="5.375" ry="5.366"/>
            <path d="M10.645 11.095c-5.15 0-9.54 3.667-10.525 8.54h21.005c-.985-4.873-5.33-8.54-10.48-8.54z"/>
        </g>
        <g fill="#CEDAF0">
            <path d="M29.728 12.52h18.094v3.353H29.728zM29.728 20.166h18.094v3.353H29.728z"/>
        </g>
    </g>
</svg>
