<svg xmlns="http://www.w3.org/2000/svg" width="35" height="30" viewBox="0 0 35 30">
    <g fill="none" fill-rule="nonzero">
        <path fill="#8AA8A7" d="M34.286 6.935c-2.618-.702-7.897.72-13.072 3.66-5.164 2.895-9.118 6.61-9.802 9.163-.05.186.008.35.186.448a.48.48 0 0 0 .5.035L34.386 7.707c.18-.1.218-.24.22-.438-.01-.152-.128-.283-.319-.334z"/>
        <path fill="#99B5B5" d="M21.293 10.244c-5.188 3.018-9.173 6.871-9.878 9.502-.051.191.005.36.182.459.13.086.32.137.501.032l.241-.14L28.52 7.32c-1.862.68-5.237 1.765-7.227 2.924z"/>
        <path fill="#144D6D" d="M10.116 25.042c-.42.236-.889.46-1.392.624-3.68 1.357-7.344.375-8.412-2.304-.882-2.23.45-4.914 3.273-6.5.42-.237.888-.46 1.391-.625 3.68-1.357 7.344-.375 8.412 2.304.942 2.196-.39 4.88-3.272 6.5zM5.213 19.54c-1.561.877-2.243 2.09-1.965 2.763.325.885 2.313 1.268 4.35.518.336-.11.636-.278.937-.447 1.561-.878 2.243-2.09 1.965-2.764-.325-.884-2.313-1.268-4.35-.517-.336.11-.637.278-.937.447z"/>
        <path fill="#283944" d="M9.333 15.684s-.047-.012 0 0c-.187-.05-.34-.04-.48-.078l-.047-.013a7.688 7.688 0 0 0-1.045-.027c-.046-.013-.046-.013-.106.022-.153.01-.259.031-.411.04-.047-.012-.107.023-.153.01-.106.022-.26.032-.365.054-.06.035-.106.022-.166.057-.106.022-.259.031-.365.053-.06.035-.106.022-.212.044s-.272.079-.378.1c-.072.083-.118.07-.178.105-.165.056-.377.1-.556.204-.45.182-.911.412-1.374.641l-.475.276-.118.07a1.29 1.29 0 0 1-.31.22c-.012.047-.059.034-.072.081-.072.082-.19.15-.322.267l-.059.035c-.131.116-.203.197-.335.314l-.012.047c-.119.069-.204.198-.276.28l.094.024c-.131.116-.17.258-.207.399-.505.016-.373.455-.42.443l-.046-.013c-.047-.012-.216.245-.254.386l-.012.047a4.798 4.798 0 0 0-.677 2.898c1.609 1.289 4.293 1.554 6.978.507.45-.182.912-.412 1.387-.688 2.434-1.417 3.791-3.678 3.535-5.714a5.771 5.771 0 0 0-2.563-1.09zm.902 3.926c.27.677-.411 1.908-1.955 2.807-.296.172-.593.345-.924.458-2.07.808-3.965.401-4.277-.49-.09-.226-.074-.474.002-.756.025-.094.038-.141.11-.223l.025-.094c.072-.082.084-.129.097-.176.013-.047.013-.047.072-.082.013-.047.072-.081.097-.175.013-.047.072-.082.072-.082.313-.42.826-.839 1.432-1.231.297-.173.594-.346.925-.459.78-.295 1.57-.437 2.262-.403.047.012.153-.01.2.003.093.025.246.015.34.04.82.12 1.389.423 1.522.863z"/>
        <path fill="#FFB000" d="M25.622 12.476c-2.864-1.202-3.675-1.923-3.675-3.125 0-1.058.716-2.164 2.816-2.164 2.053 0 3.294.722 3.866 1.058.191.096.43.144.62.048.192-.096.383-.24.478-.432l.86-2.212c.142-.337.047-.77-.287-.914a9.855 9.855 0 0 0-4.01-1.298V.89c0-.433-.43-.529-.859-.529h-2.1c-.382 0-.859.096-.859.529v2.789c-2.864.769-5.012 3.077-5.012 6.058 0 3.702 2.912 5.337 6.062 6.587 2.339.961 3.341 1.923 3.341 3.317 0 1.539-1.288 2.548-3.245 2.548-1.528 0-3.15-.48-4.392-1.346-.19-.144-.43-.144-.668-.096a.79.79 0 0 0-.477.48l-.812 2.26a.78.78 0 0 0 .335.866c1.145.817 2.959 1.442 4.868 1.587v2.692c0 .433.239.529.62.529h2.1c.43 0 .573-.096.573-.529v-2.885c3.342-.769 5.394-3.27 5.394-6.394.048-3.174-1.575-5.241-5.537-6.876z"/>
        <g>
            <path fill="#8AA8A7" d="M34.24 23.044c-2.612.7-7.879-.724-13.044-3.668-5.153-2.897-9.1-6.615-9.784-9.167-.05-.186.007-.35.185-.448a.478.478 0 0 1 .5-.034l22.289 12.532c.18.101.217.24.219.439a.519.519 0 0 1-.365.346z"/>
            <path fill="#144D6D" d="M13.424 11.43c-1.08 2.639-4.736 3.669-8.42 2.305-.457-.177-.925-.402-1.394-.626C.784 11.516-.598 8.836.33 6.587c1.08-2.64 4.737-3.67 8.42-2.306.457.178.926.402 1.394.626 2.827 1.593 4.161 4.286 3.28 6.522zm-7.308-.593c2.1.787 4.031.37 4.355-.517.279-.674-.404-1.891-1.968-2.773-.3-.169-.602-.338-.937-.448-2.1-.788-4.031-.37-4.355.516-.28.675.404 1.892 1.968 2.773.3.17.601.34.937.45z"/>
            <path fill="#283944" d="M11.774 12.768c.279-1.958-1.005-4.125-3.468-5.446a7.657 7.657 0 0 0-1.366-.6c-2.624-.987-5.31-.702-6.932.554-.145.956.109 1.903.655 2.819l-.012-.045c.048.18.156.393.203.38l.093-.025c.047-.013-.09.41.414.42.036.136.073.27.203.38l-.047.013c.083.123.154.2.284.31l.012.046c.13.11.2.187.33.297 0 0 .013.045.06.033.117.065.2.188.318.253.012.045.06.032.071.077l.295.163.118.065c.13.11.294.162.471.26.413.227.872.442 1.366.6.165.052.388.137.553.19.012.045.06.032.118.065.106.02.27.072.376.092.06.032.106.02.212.04s.258.027.364.047c.059.033.106.02.165.053.105.02.258.027.364.047.047-.013.106.02.152.007.153.008.259.028.412.035.046-.012.046-.012.105.02.352.002.704.005 1.045-.038l.046-.013c.14-.038.294-.03.434-.068l.047-.012c.973-.116 1.874-.502 2.54-1.019zM8.721 10.93c-.094.025-.247.018-.34.043-.047.012-.153-.007-.2.005-.692.04-1.432-.099-2.256-.361-.33-.105-.624-.268-.919-.43-.648-.358-1.109-.766-1.417-1.166-.012-.045-.07-.078-.07-.078-.06-.032-.084-.122-.096-.167-.012-.045-.012-.045-.07-.078-.013-.045-.084-.123-.096-.168l-.024-.09c-.024-.09-.095-.167-.107-.213-.073-.27-.098-.553.006-.726.322-.859 2.28-1.238 4.28-.519.33.105.624.268.918.43 1.532.846 2.199 2.02 1.922 2.673-.197.39-.77.69-1.531.845z"/>
        </g>
        <g transform="translate(16.28 13.8)">
            <path fill="#638280" d="M1.92 1.047c0 .568-.44 1.353-.96 1.353S0 1.615 0 1.047C0 .48.44 0 .96 0s.96.48.96 1.047z"/>
            <circle cx=".96" cy=".96" r="1" fill="#FFC200"/>
        </g>
    </g>
</svg>
