<svg xmlns="http://www.w3.org/2000/svg" width="135" height="82" viewBox="0 0 135 82">
    <g fill="none" fill-rule="evenodd">
        <g fill-rule="nonzero">
            <path fill="#66788C" d="M135.003 60.433V10.827c0-2.66-2.194-4.824-4.886-4.824H60.204c-2.697 0-4.888 2.165-4.888 4.824v48.509c0 2.661 2.191 4.825 4.888 4.825h59.689l11.25.099a3.827 3.827 0 0 0 3.86-3.827zm-74.8-.324a.782.782 0 0 1-.783-.775V10.827a.78.78 0 0 1 .783-.772h69.914c.431 0 .78.346.78.772v49.282H60.204zm52.975-43.305V42.19c0 .618-.689 1.12-1.538 1.12-.849 0-1.537-.502-1.537-1.12V16.804c0-.618.688-1.12 1.537-1.12s1.538.502 1.538 1.12zm-11.87 36.325c-.848 0-1.537-.68-1.537-1.518V17.203c0-.839.689-1.519 1.538-1.519.849 0 1.537.68 1.537 1.519V51.61c0 .838-.688 1.518-1.537 1.518zm-20.156 0c-.848 0-1.537-.68-1.537-1.518V17.203c0-.839.689-1.519 1.537-1.519.85 0 1.538.68 1.538 1.519V51.61c0 .838-.689 1.518-1.538 1.518z"/>
            <path fill="#000" d="M29.84 50.332h45.222l-.23-3.798c.88-1.487-14.83-1.443-17.891-2.072H36.308V6.475h49.819v37.987H56.941c1.009 1.206 17.244 2.83 17.891 5.025.084.283.16.564.23.845h17.534a8.457 8.457 0 0 0 8.458-8.457V9.062A8.457 8.457 0 0 0 92.596.605H29.839a8.458 8.458 0 0 0-8.458 8.457v32.814a8.457 8.457 0 0 0 8.458 8.456zm63.412-11.446a1.814 1.814 0 1 1-3.627 0 1.814 1.814 0 0 1 3.627 0zm-.34-21.266v15.698H89.95V17.62h2.962zm-65.018 7.849a3.16 3.16 0 1 1 6.319 0 3.16 3.16 0 0 1-6.319 0z"/>
            <path fill="#FFF" d="M36.212 6.357h49.996v38.17H36.212z"/>
            <path fill="#66788C" d="M82.415 38.702V12.324a2.588 2.588 0 0 0-2.584-2.583H42.85a2.587 2.587 0 0 0-2.586 2.583V38.3a2.586 2.586 0 0 0 2.585 2.584h31.573l5.74.05a2.232 2.232 0 0 0 2.252-2.231zm-39.565.011a.416.416 0 0 1-.414-.415V12.324c0-.228.187-.413.414-.413h36.98c.229 0 .414.185.414.413v26.389H42.85zm28.02-22.975v18.425a.813.813 0 0 1-1.626 0V15.738a.813.813 0 0 1 1.627 0zm-6.277 19.238a.813.813 0 0 1-.813-.813V15.738a.813.813 0 0 1 1.626 0v18.425a.813.813 0 0 1-.813.813zm-5.286 0a.813.813 0 0 1-.813-.813V15.738a.813.813 0 0 1 1.626 0v18.425a.813.813 0 0 1-.813.813zm-5.376 0a.813.813 0 0 1-.813-.813V15.738a.813.813 0 0 1 1.626 0v18.425a.813.813 0 0 1-.813.813z"/>
            <g stroke="#9AF436" stroke-linecap="square" stroke-width="1.116">
                <path d="M38.221 8.366v9.04M38.221 8.143h9.04"/>
            </g>
            <g stroke="#9AF436" stroke-linecap="square" stroke-width="1.116">
                <path d="M84.2 8.366v9.04M84.2 8.143h-9.04"/>
            </g>
            <g stroke="#9AF436" stroke-linecap="square" stroke-width="1.116">
                <path d="M38.221 42.295v-9.04M38.221 42.518h9.04"/>
            </g>
            <g stroke="#9AF436" stroke-linecap="square" stroke-width="1.116">
                <path d="M84.2 42.295v-9.04M84.2 42.518h-9.04"/>
            </g>
        </g>
        <path fill="#BE8C38" d="M17.11 79.272l-.45 1.115a1.2 1.2 0 0 1-1.562.666L.661 75.22a1.2 1.2 0 0 1-.66-1.563l2.462-6.092a9.46 9.46 0 0 0 .613-2.177c.128-.893.328-1.75.446-2.623l2.5-18.397a8.743 8.743 0 0 1 1.093-4.127c4.81-8.564 14.627-18.598 14.627-18.598V41.45c-.221.517.258 3.268.258 3.268 1.207-2.988 3.164-6.743 5.87-11.267a4.21 4.21 0 0 1 5.218-2.421 4.358 4.358 0 0 1 2.465 2.382 4.39 4.39 0 0 1-.013 3.438l-5.7 14.109s-1.23 11.678-7.997 19.54l-.1.1a13.01 13.01 0 0 0-2.104 2.683 7.139 7.139 0 0 0-.431.895l-2.098 5.094zM105.143 79.272l.45 1.115a1.2 1.2 0 0 0 1.562.666l14.437-5.833a1.2 1.2 0 0 0 .66-1.563l-2.462-6.092a9.46 9.46 0 0 1-.613-2.177c-.128-.893-.328-1.75-.446-2.623l-2.5-18.397a8.743 8.743 0 0 0-1.093-4.127c-4.81-8.564-14.627-18.77-14.627-18.77v19.98c.221.517-.258 3.268-.258 3.268-1.207-2.988-3.164-6.743-5.87-11.267a4.21 4.21 0 0 0-5.218-2.421 4.358 4.358 0 0 0-2.465 2.382 4.39 4.39 0 0 0 .013 3.438l5.7 14.109s1.23 11.678 7.997 19.54l.1.1a13.01 13.01 0 0 1 2.104 2.683c.164.288.308.587.431.895l2.098 5.094z"/>
    </g>
</svg>
