<svg xmlns="http://www.w3.org/2000/svg" width="101" height="120" viewBox="0 0 101 120">
    <g fill="none" fill-rule="nonzero">
        <path fill="#EFF2FA" d="M81.252.147H3.693C1.653.147 0 2.342 0 5.05v98.057c0 2.708 1.654 4.903 3.693 4.903h77.56c2.04 0 3.693-2.195 3.693-4.903V5.05c0-2.708-1.654-4.903-3.694-4.903z"/>
        <g fill="#D7DEED">
            <path d="M24.006 14.85H9.233a1.842 1.842 0 0 1-1.847-1.839c0-1.015.827-1.838 1.847-1.838h14.773c1.02 0 1.847.823 1.847 1.838a1.842 1.842 0 0 1-1.847 1.838zM75.712 14.85h-5.54a1.842 1.842 0 0 1-1.846-1.839c0-1.015.827-1.838 1.846-1.838h5.54c1.02 0 1.847.823 1.847 1.838a1.843 1.843 0 0 1-1.847 1.838z"/>
        </g>
        <path fill="#C7CFE2" d="M62.786 14.85H31.393a1.842 1.842 0 0 1-1.847-1.839c0-1.015.827-1.838 1.847-1.838h31.393c1.02 0 1.847.823 1.847 1.838a1.843 1.843 0 0 1-1.847 1.838z"/>
        <g fill="#D7DEED">
            <path d="M31.393 33.226H9.233a1.842 1.842 0 0 1-1.847-1.837c0-1.015.827-1.838 1.847-1.838h22.16c1.02 0 1.847.823 1.847 1.838a1.843 1.843 0 0 1-1.847 1.837zM31.328 98.428H9.168a1.842 1.842 0 0 1-1.846-1.838c0-1.014.827-1.837 1.846-1.837h22.16c1.02 0 1.847.823 1.847 1.837a1.843 1.843 0 0 1-1.847 1.838zM22.16 42.415H9.233a1.842 1.842 0 0 1-1.847-1.838c0-1.015.827-1.838 1.847-1.838H22.16c1.02 0 1.846.823 1.846 1.838a1.842 1.842 0 0 1-1.846 1.838zM75.712 42.415H46.166a1.842 1.842 0 0 1-1.847-1.838c0-1.015.827-1.838 1.847-1.838h29.546c1.02 0 1.847.823 1.847 1.838a1.842 1.842 0 0 1-1.847 1.838zM75.712 33.226H60.94a1.842 1.842 0 0 1-1.847-1.837c0-1.015.827-1.838 1.847-1.838h14.773c1.02 0 1.847.823 1.847 1.838a1.843 1.843 0 0 1-1.847 1.837z"/>
        </g>
        <g fill="#C7CFE2">
            <path d="M53.553 33.226H38.78a1.842 1.842 0 0 1-1.847-1.838c0-1.014.827-1.837 1.847-1.837h14.773c1.02 0 1.846.823 1.846 1.837a1.842 1.842 0 0 1-1.846 1.838zM59.855 80.03H23.952c-2.479 0-2.479-3.675 0-3.675h35.903c2.478 0 2.478 3.676 0 3.676zM36.933 24.038h-27.7A1.842 1.842 0 0 1 7.386 22.2c0-1.015.827-1.838 1.847-1.838h27.7c1.02 0 1.847.823 1.847 1.838a1.842 1.842 0 0 1-1.847 1.838zM35.086 42.415h-5.54a1.842 1.842 0 0 1-1.846-1.838c0-1.015.827-1.838 1.846-1.838h5.54c1.02 0 1.847.823 1.847 1.838a1.843 1.843 0 0 1-1.847 1.838z"/>
        </g>
        <g fill="#D7DEED">
            <path d="M16.62 51.604H9.233a1.842 1.842 0 0 1-1.846-1.838c0-1.015.827-1.838 1.846-1.838h7.387c1.02 0 1.847.823 1.847 1.838a1.843 1.843 0 0 1-1.847 1.838zM51.706 60.792H44.32a1.842 1.842 0 0 1-1.847-1.837c0-1.015.827-1.838 1.847-1.838h7.386c1.02 0 1.847.823 1.847 1.838a1.842 1.842 0 0 1-1.847 1.837zM75.712 60.792h-16.62a1.842 1.842 0 0 1-1.846-1.837c0-1.015.827-1.838 1.847-1.838h16.62c1.02 0 1.846.823 1.846 1.838a1.843 1.843 0 0 1-1.847 1.837zM75.712 51.604h-7.386a1.842 1.842 0 0 1-1.847-1.838c0-1.015.827-1.838 1.847-1.838h7.386c1.02 0 1.847.823 1.847 1.838a1.843 1.843 0 0 1-1.847 1.838z"/>
        </g>
        <g fill="#D7DEED">
            <path d="M16.555 80.006H9.168a1.842 1.842 0 0 1-1.846-1.838c0-1.015.827-1.838 1.846-1.838h7.387c1.02 0 1.847.823 1.847 1.838a1.843 1.843 0 0 1-1.847 1.838zM51.706 89.216H44.32a1.842 1.842 0 0 1-1.847-1.838c0-1.015.827-1.838 1.847-1.838h7.386c1.02 0 1.847.823 1.847 1.838a1.842 1.842 0 0 1-1.847 1.838zM75.712 89.216h-16.62a1.842 1.842 0 0 1-1.846-1.838c0-1.015.827-1.838 1.847-1.838h16.62c1.02 0 1.846.823 1.846 1.838a1.843 1.843 0 0 1-1.847 1.838zM76.037 98.454H62.338c-.84 0-1.522-.823-1.522-1.838 0-1.015.682-1.838 1.522-1.838h13.699c.84 0 1.522.823 1.522 1.838 0 1.015-.681 1.838-1.522 1.838zM75.712 80.027h-7.386a1.842 1.842 0 0 1-1.847-1.837c0-1.015.827-1.838 1.847-1.838h7.386c1.02 0 1.847.823 1.847 1.838a1.843 1.843 0 0 1-1.847 1.837z"/>
        </g>
        <path fill="#C7CFE2" d="M60.94 51.604H24.005a1.842 1.842 0 0 1-1.846-1.838c0-1.015.827-1.838 1.846-1.838H60.94c1.02 0 1.847.823 1.847 1.838a1.843 1.843 0 0 1-1.847 1.838z"/>
        <g fill="#D7DEED">
            <path d="M31.393 69.981H9.233a1.842 1.842 0 0 1-1.847-1.838c0-1.015.827-1.838 1.847-1.838h22.16c1.02 0 1.847.823 1.847 1.838a1.843 1.843 0 0 1-1.847 1.838zM75.712 69.981H62.786a1.842 1.842 0 0 1-1.847-1.838c0-1.015.827-1.838 1.847-1.838h12.926c1.02 0 1.847.823 1.847 1.838a1.843 1.843 0 0 1-1.847 1.838z"/>
        </g>
        <g fill="#C7CFE2">
            <path d="M55.4 69.981H38.78a1.842 1.842 0 0 1-1.847-1.838c0-1.015.827-1.838 1.847-1.838H55.4c1.019 0 1.846.823 1.846 1.838a1.842 1.842 0 0 1-1.847 1.838zM36.933 60.792h-27.7a1.842 1.842 0 0 1-1.847-1.837c0-1.015.827-1.838 1.847-1.838h27.7c1.02 0 1.847.823 1.847 1.838a1.842 1.842 0 0 1-1.847 1.837z"/>
        </g>
        <g fill="#C7CFE2">
            <path d="M55.063 98.403h-16.62a1.842 1.842 0 0 1-1.846-1.838c0-1.014.827-1.837 1.847-1.837h16.62c1.02 0 1.846.823 1.846 1.837a1.842 1.842 0 0 1-1.847 1.838zM36.933 89.216h-27.7a1.842 1.842 0 0 1-1.847-1.838c0-1.015.827-1.838 1.847-1.838h27.7c1.02 0 1.847.823 1.847 1.838a1.842 1.842 0 0 1-1.847 1.838z"/>
        </g>
        <path fill="#D7DEED" d="M75.712 24.038H44.32a1.842 1.842 0 0 1-1.847-1.838c0-1.015.827-1.838 1.847-1.838h31.392c1.02 0 1.847.823 1.847 1.838a1.843 1.843 0 0 1-1.847 1.838z"/>
        <g transform="translate(59.776 78.974)">
            <ellipse cx="20.612" cy="20.513" fill="#04844B" rx="20.612" ry="20.513"/>
            <path fill="#FFF" d="M33.1 12.695L30.37 9.547c-.363-.422-.967-.422-1.354 0L17.34 23.572l-5.052-5.79c-.363-.421-.967-.421-1.354 0l-2.417 2.783c-.363.421-.363 1.124 0 1.546l8.073 9.303a.9.9 0 0 0 .798.31.9.9 0 0 0 .798-.31L33.1 14.269c.363-.45.363-1.153 0-1.574z"/>
        </g>
    </g>
</svg>
