<svg xmlns="http://www.w3.org/2000/svg" width="35" height="36" viewBox="0 0 35 36">
    <g fill="none" fill-rule="nonzero">
        <path fill="#EFCE4A" d="M17.84 5.786c-6.125 0-11.09 4.867-11.09 10.87 0 4.816 3.199 8.894 7.624 10.321v6.663h1.386v2.039h4.159V33.64h1.386v-6.663c4.425-1.427 7.624-5.505 7.624-10.321 0-6.003-4.965-10.87-11.09-10.87z"/>
        <g fill="#EFCE4A">
            <path d="M17.357 0c-.376 0-.68.3-.68.673v2.69c0 .373.304.674.68.674.377 0 .68-.301.68-.673V.673a.676.676 0 0 0-.68-.673zM33.693 16.146h-2.722c-.377 0-.681.3-.681.673 0 .372.304.673.68.673h2.723c.377 0 .68-.301.68-.673a.676.676 0 0 0-.68-.673zM3.744 16.146H1.02c-.376 0-.68.3-.68.673 0 .372.304.673.68.673h2.723c.376 0 .68-.301.68-.673a.676.676 0 0 0-.68-.673zM28.428 4.926l-1.925 1.902a.666.666 0 0 0 0 .952.683.683 0 0 0 .962 0l1.925-1.903a.666.666 0 0 0 0-.951.686.686 0 0 0-.962 0zM7.25 25.858l-1.926 1.903a.666.666 0 0 0 0 .95.683.683 0 0 0 .963 0l1.925-1.902a.666.666 0 0 0 0-.95.686.686 0 0 0-.963 0zM27.465 25.858a.686.686 0 0 0-.962 0 .666.666 0 0 0 0 .951l1.925 1.903a.683.683 0 0 0 .962 0 .666.666 0 0 0 0-.951l-1.925-1.903zM6.287 4.926a.686.686 0 0 0-.963 0 .666.666 0 0 0 0 .951L7.25 7.78a.683.683 0 0 0 .963 0 .666.666 0 0 0 0-.952L6.287 4.926z"/>
        </g>
        <path fill="#F7E6A1" d="M10.31 17.357a.667.667 0 0 1-.667-.667c0-4.418 3.593-8.011 8.01-8.011a.667.667 0 1 1 0 1.335 6.683 6.683 0 0 0-6.675 6.676c0 .369-.298.667-.668.667z"/>
        <path fill="#556080" d="M14.5 28.929v4.725h1.35v2.025h4.05v-2.025h1.35v-4.725z"/>
    </g>
</svg>
