<svg xmlns="http://www.w3.org/2000/svg" width="49" height="36" viewBox="0 0 49 36">
    <g fill="none" fill-rule="nonzero">
        <path fill="#008DB3" d="M45.216 14.336l-2.277-1.568-2.088-9.055A4.802 4.802 0 0 0 36.165 0H12.693a4.802 4.802 0 0 0-4.686 3.713L5.92 12.768l-2.278 1.568a5.545 5.545 0 0 0-2.405 4.567v8.15a2.748 2.748 0 0 0 2.755 2.74h40.875a2.748 2.748 0 0 0 2.755-2.74v-8.15c0-1.823-.9-3.53-2.406-4.567z"/>
        <path fill="#76CDCE" d="M40.2 12.414H8.658l1.946-8.264c.23-.981 1.113-1.667 2.147-1.667h23.357c1.033 0 1.916.686 2.147 1.667l1.945 8.264z"/>
        <g fill="#FFF">
            <path d="M5.029 19.305c0 1.98 1.619 3.586 3.616 3.586s3.616-1.606 3.616-3.586H5.03zM36.598 19.305c0 1.98 1.619 3.586 3.616 3.586s3.616-1.606 3.616-3.586h-7.232z"/>
        </g>
        <path fill="#CCC" d="M46.277 26.069H1.963C.879 26.069 0 27.042 0 28.241c0 1.2.879 2.173 1.963 2.173h44.314c1.084 0 1.963-.973 1.963-2.173 0-1.2-.879-2.172-1.963-2.172z"/>
        <path fill="#666" d="M3.71 29.793v5.013c0 .66.523 1.194 1.167 1.194h4.47c.645 0 1.167-.534 1.167-1.194v-5.013M37.726 29.793v5.013c0 .66.522 1.194 1.167 1.194h4.47c.644 0 1.166-.534 1.166-1.194v-5.013"/>
        <path fill="#4D4D4D" d="M31.542 29.793v.575c0 1.397-1.16 2.529-2.59 2.529h-8.426c-1.43 0-2.59-1.132-2.59-2.529v-.575"/>
        <path fill="#96E0DE" d="M39.582 12.414H28.734l-10.18-9.931h16.94c1.032 0 1.914.686 2.144 1.667l1.944 8.264z"/>
        <path fill="#037893" d="M15.462 19.862h17.935v1.241H15.462zM15.462 22.345h17.935v1.241H15.462z"/>
    </g>
</svg>
