<svg xmlns="http://www.w3.org/2000/svg" width="35" height="35" viewBox="0 0 35 35">
    <g fill="none" fill-rule="evenodd">
        <path fill="#006AC7" d="M0 0h35v35H0z"/>
        <g fill="#FFF" fill-rule="nonzero">
            <path d="M17.175 17.894h.16c1.464-.024 2.648-.535 3.522-1.511 1.923-2.15 1.603-5.838 1.568-6.19-.125-2.64-1.383-3.905-2.422-4.494-.775-.441-1.679-.68-2.688-.699h-.085c-.554 0-1.643.09-2.687.679-1.05.59-2.328 1.853-2.453 4.514-.035.352-.355 4.04 1.569 6.19.869.976 2.053 1.487 3.516 1.511zm-3.751-7.577c0-.015.005-.03.005-.04.165-3.552 2.707-3.934 3.796-3.934h.06c1.349.03 3.642.575 3.797 3.935 0 .015 0 .03.005.04.005.034.354 3.404-1.234 5.178-.63.704-1.469 1.05-2.573 1.06h-.05c-1.099-.01-1.943-.356-2.567-1.06-1.584-1.764-1.244-5.149-1.24-5.179z"/>
            <path d="M27.52 24.01c0-.055-.005-.095-.005-.14-.03-.98-.094-3.275-2.262-4.008-2.303-.585-5.246-3.101-5.266-3.116a.677.677 0 0 0-.94.163.665.665 0 0 0 .165.932c.085.06 3.143 2.66 5.631 3.294 1.164.412 1.294 1.646 1.329 2.776 0 .044 0 .084.005.123.005.446-.025 1.135-.105 1.532-.81.456-3.984 2.929-8.81 2.929-4.805 0-7.994-2.478-8.808-2.934-.08-.397-.115-1.086-.105-1.532 0-.04.005-.079.005-.123.035-1.13.165-2.364 1.328-2.776 2.488-.634 5.623-3.235 5.708-3.289a.665.665 0 0 0 .165-.932.677.677 0 0 0-.94-.163c-.02.015-3.03 2.526-5.292 3.096-2.218.753-2.283 3.048-2.313 4.024 0 .045 0 .084-.005.124-.005.272-.01 1.596.255 2.26.05.128.14.237.26.312.15.099 3.738 3.266 9.748 3.266 6.009 0 9.603-3.172 9.753-3.266a.664.664 0 0 0 .26-.312c.25-.66.244-1.983.24-2.24z"/>
        </g>
    </g>
</svg>
