<svg xmlns="http://www.w3.org/2000/svg" width="15" height="25" viewBox="0 0 15 25">
    <g fill="#0070D2" fill-rule="nonzero" stroke="#FFF" stroke-width=".5">
        <path d="M7.411.66A6.874 6.874 0 0 0 .545 7.529a1.412 1.412 0 1 0 2.823 0 4.048 4.048 0 0 1 4.043-4.044 4.048 4.048 0 0 1 4.044 4.044 4.048 4.048 0 0 1-4.044 4.044c-.78 0-1.411.632-1.411 1.411v4.918a1.412 1.412 0 1 0 2.823 0v-3.653c3.112-.653 5.456-3.418 5.456-6.72A6.875 6.875 0 0 0 7.41.66zM7.412 20.29a1.773 1.773 0 1 0 .001 3.546 1.773 1.773 0 0 0 0-3.545z"/>
    </g>
</svg>
