<svg xmlns="http://www.w3.org/2000/svg" width="32" height="26" viewBox="0 0 32 26">
    <g fill="#0070D2" fill-rule="nonzero" stroke="#FFF">
        <path d="M26.004 14.463H9.049a1.463 1.463 0 0 1 0-2.926h16.955l-1.892-1.892a1.463 1.463 0 1 1 2.07-2.07l4.389 4.39c.034.034.066.07.096.106l.021.028c.023.029.045.057.065.087l.016.027c.02.032.04.063.058.096l.01.02c.018.036.036.073.051.11l.005.014c.016.04.03.08.043.12l.004.016c.012.04.023.081.031.123.003.012.004.025.006.038a1.37 1.37 0 0 1 .016.396c-.004.036-.01.07-.016.106l-.006.036c-.008.042-.019.083-.03.124l-.005.014a1.458 1.458 0 0 1-.043.122l-.005.013a1.423 1.423 0 0 1-.052.11l-.01.02a1.473 1.473 0 0 1-.057.097l-.016.026c-.02.03-.042.058-.065.087l-.02.028c-.031.037-.063.072-.097.106l-4.39 4.39c-.286.286-.66.429-1.035.429a1.463 1.463 0 0 1-1.035-2.498l1.893-1.893z"/>
        <path d="M13.176 1.03c3.994 0 7.71 1.98 9.941 5.3a1.464 1.464 0 0 1-2.429 1.632 9.04 9.04 0 0 0-7.512-4.006c-4.987 0-9.044 4.057-9.044 9.044s4.057 9.044 9.044 9.044a9.042 9.042 0 0 0 7.5-3.988 1.463 1.463 0 0 1 2.425 1.638 11.965 11.965 0 0 1-9.925 5.277C6.575 24.97 1.205 19.6 1.205 13c0-6.6 5.37-11.97 11.97-11.97z"/>
    </g>
</svg>
