<svg xmlns="http://www.w3.org/2000/svg" width="24" height="24" viewBox="0 0 24 24">
    <g fill="none" fill-rule="evenodd" transform="translate(1 1)">
        <g fill="#0070D2" fill-rule="nonzero">
            <path d="M11.139 14.239h.114c1.046-.018 1.891-.386 2.516-1.088 1.373-1.549 1.145-4.204 1.12-4.457-.09-1.902-.988-2.811-1.73-3.236-.554-.318-1.2-.489-1.92-.503h-.061c-.396 0-1.174.064-1.92.489-.749.424-1.662 1.334-1.751 3.25-.025.253-.254 2.908 1.12 4.457.621.702 1.467 1.07 2.512 1.088zm-2.68-5.456c0-.01.004-.021.004-.028.118-2.558 1.934-2.833 2.712-2.833H11.218c.963.021 2.6.414 2.711 2.833 0 .01 0 .021.004.028.003.025.253 2.452-.882 3.729-.45.507-1.049.756-1.837.763h-.036c-.785-.007-1.388-.256-1.834-.763-1.13-1.27-.888-3.707-.885-3.729z"/>
            <path d="M18.528 18.642c0-.04-.003-.068-.003-.1-.022-.707-.068-2.359-1.616-2.887-1.645-.42-3.748-2.232-3.762-2.243a.481.481 0 1 0-.553.788c.06.043 2.245 1.916 4.022 2.372.831.296.924 1.185.949 1.998 0 .033 0 .061.004.09.003.32-.018.817-.075 1.102-.578.328-2.846 2.109-6.293 2.109-3.432 0-5.71-1.784-6.292-2.112a6.131 6.131 0 0 1-.075-1.103c0-.028.004-.057.004-.09.025-.813.118-1.701.949-1.997 1.777-.457 4.016-2.33 4.077-2.369a.481.481 0 1 0-.553-.788c-.015.01-2.165 1.819-3.78 2.23-1.585.541-1.631 2.193-1.653 2.896 0 .032 0 .061-.003.09-.004.196-.008 1.148.182 1.627.035.092.1.17.185.224.107.072 2.67 2.352 6.963 2.352 4.292 0 6.86-2.284 6.967-2.352a.477.477 0 0 0 .185-.224c.179-.475.175-1.428.171-1.613z"/>
        </g>
        <circle cx="11.226" cy="11.226" r="11.226" stroke="#0070D2"/>
    </g>
</svg>
