<svg xmlns="http://www.w3.org/2000/svg" width="24" height="24" viewBox="0 0 24 24">
    <path fill="#0070D2" fill-rule="evenodd" d="M1.519 8.625C1.519 4.691 5.128 1.5 9.87 1.5c3.776 0 7.593 3.19 7.593 7.125s-2.98 7.125-7.593 7.125c-.678 0-2.093-.076-2.724-.206L4.556 17.25v-2.658c-1.852-1.484-3.037-3.466-3.037-5.967zm5.798 8.427c.59.095 1.932.198 2.554.198 5.452 0 9.112-4.007 9.112-8.719C18.983 3.82 14.409 0 9.87 0 4.412 0 0 3.82 0 8.531c0 2.73 1.053 5.047 3.037 6.716V19.5l4.28-2.448zM20.501 7.5c0 .477-.047.944-.114 1.406 1.022 1.182 1.633 2.638 1.633 4.219 0 2.5-1.513 4.696-3.797 5.967v2.658l-2.591-1.706a9.73 9.73 0 0 1-1.965.206c-1.966 0-3.01-.584-4.438-1.553-.414.033-.832.053-1.256.053-.302 0-.599-.021-.896-.038 1.808 1.745 3.666 2.85 6.59 2.85.622 0 1.23-.055 1.819-.15L19.742 24v-4.253c2.308-1.563 3.796-3.986 3.796-6.716 0-2.433-1.185-4.623-3.075-6.177.014.215.038.428.038.646z"/>
</svg>
