<svg width="20" height="20" viewBox="0 0 20 20" xmlns="http://www.w3.org/2000/svg"><title>5C5D626C-E616-405E-90C0-84BAF7E45C53</title><path d="M1.266 7.188c0-3.28 3.007-5.938 6.96-5.938 3.146 0 6.327 2.659 6.327 5.938s-2.483 5.937-6.327 5.937c-.565 0-1.744-.064-2.27-.172l-2.16 1.422V12.16c-1.543-1.237-2.53-2.889-2.53-4.973zm4.832 7.022c.492.08 1.61.165 2.128.165 4.543 0 7.593-3.34 7.593-7.266S12.008 0 8.226 0C3.676 0 0 3.183 0 7.11c0 2.274.878 4.205 2.531 5.596v3.544l3.567-2.04zm10.986-7.96c0 .397-.039.787-.095 1.171.852.985 1.36 2.199 1.36 3.516 0 2.084-1.26 3.914-3.163 4.973v2.215l-2.16-1.422a8.11 8.11 0 0 1-1.636.172c-1.64 0-2.51-.486-3.7-1.294-.344.027-.692.044-1.046.044-.252 0-.499-.017-.747-.032 1.507 1.454 3.056 2.376 5.493 2.376.518 0 1.023-.047 1.515-.126L16.452 20v-3.544c1.923-1.302 3.163-3.322 3.163-5.597 0-2.027-.987-3.852-2.563-5.147.012.179.032.356.032.538z" fill="#526173" fill-rule="evenodd"/></svg>