<?xml version="1.0" encoding="UTF-8"?>
<svg width="25px" height="25px" viewBox="0 0 25 25" version="1.1" xmlns="http://www.w3.org/2000/svg" xmlns:xlink="http://www.w3.org/1999/xlink">
    <!-- Generator: sketchtool 42 (36781) - http://www.bohemiancoding.com/sketch -->
    <title>0AC4BBAB-1BEA-4960-9328-E22374BB316B</title>
    <desc>Created with sketchtool.</desc>
    <defs></defs>
    <g id="Symbols" stroke="none" stroke-width="1" fill="none" fill-rule="evenodd">
        <g id="Top-Bar/vSmall-Small" transform="translate(-1000.000000, -20.000000)" fill="#9DABBA">
            <path d="M1001.58189,28.984375 C1001.58189,24.8859375 1005.34124,21.5625 1010.28226,21.5625 C1014.21562,21.5625 1018.19169,24.8859375 1018.19169,28.984375 C1018.19169,33.0835938 1015.08724,36.40625 1010.28226,36.40625 C1009.57595,36.40625 1008.10242,36.3265625 1007.44515,36.1914062 L1004.74566,37.96875 L1004.74566,35.2 C1002.81655,33.6539063 1001.58189,31.5890625 1001.58189,28.984375 L1001.58189,28.984375 Z M1007.62232,37.7625 C1008.23688,37.8617188 1009.63448,37.96875 1010.28226,37.96875 C1015.96123,37.96875 1019.77357,33.7945312 1019.77357,28.8867188 C1019.77357,23.9789063 1015.00972,20 1010.28226,20 C1004.59617,20 1000,23.9789063 1000,28.8867188 C1000,31.7304687 1001.09704,34.14375 1003.16377,35.8820312 L1003.16377,40.3125 L1007.62232,37.7625 L1007.62232,37.7625 Z M1021.35546,27.8125 C1021.35546,28.309375 1021.30642,28.7960937 1021.23603,29.2765625 C1022.30064,30.5078125 1022.93734,32.025 1022.93734,33.671875 C1022.93734,36.2765625 1021.36179,38.5632812 1018.98263,39.8875 L1018.98263,42.65625 L1016.28314,40.8789062 C1015.62587,41.0140625 1014.94328,41.09375 1014.23697,41.09375 C1012.18843,41.09375 1011.10009,40.4859375 1009.61312,39.4757813 C1009.18206,39.5101562 1008.74704,39.53125 1008.3049,39.53125 C1007.99011,39.53125 1007.68164,39.509375 1007.37159,39.4914063 C1009.25482,41.309375 1011.19105,42.4609375 1014.23697,42.4609375 C1014.88475,42.4609375 1015.51672,42.403125 1016.13128,42.3039062 L1020.56452,45 L1020.56452,40.5695312 C1022.96898,38.9421875 1024.51923,36.4179687 1024.51923,33.5742187 C1024.51923,31.0398438 1023.28457,28.7585937 1021.31512,27.1398437 C1021.33015,27.3632812 1021.35546,27.5851563 1021.35546,27.8125 Z" id="Fill-189"></path>
        </g>
    </g>
</svg>