<?xml version="1.0" encoding="UTF-8"?>
<svg width="15px" height="25px" viewBox="0 0 15 25" version="1.1" xmlns="http://www.w3.org/2000/svg" xmlns:xlink="http://www.w3.org/1999/xlink">
    <!-- Generator: sketchtool 42 (36781) - http://www.bohemiancoding.com/sketch -->
    <title>6A5B5E87-45D1-4D8A-A17B-DC977E52F853</title>
    <desc>Created with sketchtool.</desc>
    <defs></defs>
    <g id="Symbols" stroke="none" stroke-width="1" fill="none" fill-rule="evenodd">
        <g id="Top-Bar/vSmall-Small" transform="translate(-921.000000, -20.000000)" fill-rule="nonzero" fill="#9DABBA">
            <g id="round-help-button" transform="translate(921.000000, 20.000000)">
                <path d="M7.72013971,0.688055147 C3.77577206,0.688055147 0.567329044,3.89683456 0.567329044,7.84131434 C0.567329044,8.65348897 1.22565809,9.31193015 2.03772059,9.31193015 C2.85023162,9.31193015 3.50856066,8.65337684 3.50856066,7.84131434 C3.50856066,5.51905331 5.39776654,3.6293989 7.72013971,3.6293989 C10.0434099,3.6293989 11.9325037,5.51905331 11.9325037,7.84131434 C11.9325037,10.1640239 10.0431857,12.0536783 7.72013971,12.0536783 C6.90807721,12.0536783 6.24974816,12.7122316 6.24974816,13.524182 L6.24974816,18.6468364 C6.24974816,19.459011 6.90807721,20.1174522 7.72013971,20.1174522 C8.53220221,20.1174522 9.19097978,19.459011 9.19097978,18.6468364 L9.19097978,14.8412886 C12.4321654,14.161318 14.8738474,11.2815349 14.8738474,7.84120221 C14.8738474,3.89683456 11.6649559,0.688055147 7.72013971,0.688055147 Z" id="Shape"></path>
                <path d="M7.72103676,21.1360625 C6.70220221,21.1360625 5.87477757,21.9625901 5.87477757,22.9819853 C5.87477757,24.0013805 6.70220221,24.8282445 7.72103676,24.8282445 C8.74076838,24.8282445 9.5663989,24.0013805 9.5663989,22.9819853 C9.5663989,21.9625901 8.74076838,21.1360625 7.72103676,21.1360625 Z" id="Shape"></path>
            </g>
        </g>
    </g>
</svg>