<svg width="13" height="21" viewBox="0 0 13 21" xmlns="http://www.w3.org/2000/svg"><title>753D83EE-B7E5-40EF-A1E6-683107050B72</title><g stroke="#FFF" stroke-width=".5" fill="#526173" fill-rule="nonzero"><path d="M6.176.55A5.729 5.729 0 0 0 .454 6.273a1.176 1.176 0 1 0 2.353 0 3.373 3.373 0 0 1 3.37-3.37 3.373 3.373 0 0 1 3.369 3.37 3.374 3.374 0 0 1-3.37 3.37c-.65 0-1.176.527-1.176 1.176v4.098a1.176 1.176 0 1 0 2.353 0v-3.044a5.732 5.732 0 0 0 4.546-5.6A5.729 5.729 0 0 0 6.176.55zM6.177 16.909a1.477 1.477 0 1 0 0 2.955 1.477 1.477 0 0 0 0-2.955z"/></g></svg>