<?xml version="1.0" encoding="UTF-8"?>
<svg width="18px" height="18px" viewBox="0 0 18 18" version="1.1" xmlns="http://www.w3.org/2000/svg" xmlns:xlink="http://www.w3.org/1999/xlink">
    <!-- Generator: sketchtool 42 (36781) - http://www.bohemiancoding.com/sketch -->
    <title>D0697759-FB80-4B56-ACA5-BAFD2EB3B389</title>
    <desc>Created with sketchtool.</desc>
    <defs></defs>
    <g id="Symbols" stroke="none" stroke-width="1" fill="none" fill-rule="evenodd">
        <g id="Top-Bar/vMobile" transform="translate(-9.000000, -13.000000)" fill="#FFFFFF">
            <path d="M23.3484784,20.5635752 L17.6428095,14.8579064 C17.2173057,14.4334908 17.2173057,13.7435434 17.6428095,13.3191279 C18.0672251,12.893624 18.7571724,12.893624 19.1826763,13.3191279 L26.6904789,20.8269305 C26.9168339,21.0543738 27.0136877,21.3558176 26.9984523,21.6518203 C27.0136877,21.947823 26.9168339,22.2492668 26.6904789,22.4767101 L19.1826763,29.9845127 C18.7571724,30.4100166 18.0672251,30.4100166 17.6428095,29.9845127 C17.2173057,29.5600972 17.2173057,28.8701498 17.6428095,28.444646 L23.3484784,22.7400654 L10.0882451,22.7400654 C9.48644554,22.7400654 9,22.2536198 9,21.6518203 C9,21.051109 9.48644554,20.5635752 10.0882451,20.5635752" id="Path"></path>
        </g>
    </g>
</svg>