<svg width="27" height="22" viewBox="0 0 27 22" xmlns="http://www.w3.org/2000/svg"><title>3F2E3A6F-22F5-4B01-BED5-1543C8FD660E</title><g stroke="#FFF" fill-rule="nonzero" fill="#526173"><path d="M21.836 12.22H7.707a1.22 1.22 0 0 1 0-2.44h14.13L20.26 8.204a1.22 1.22 0 1 1 1.724-1.725l3.659 3.658c.028.029.054.058.08.09l.017.023c.019.023.037.047.054.072l.014.022c.016.027.033.053.048.08l.008.017c.015.03.03.06.043.092l.004.011c.013.033.026.066.036.1l.003.014c.01.033.02.067.026.102l.005.031c.005.03.01.058.013.087a1.188 1.188 0 0 1 0 .244c-.003.03-.008.059-.013.088l-.005.03a1.21 1.21 0 0 1-.026.103l-.003.012c-.01.035-.023.068-.036.102l-.004.01a1.186 1.186 0 0 1-.044.092l-.007.016a1.227 1.227 0 0 1-.049.081l-.013.022a1.245 1.245 0 0 1-.054.073l-.017.023c-.026.03-.052.06-.08.089l-3.659 3.658a1.215 1.215 0 0 1-1.724 0 1.22 1.22 0 0 1 0-1.725l1.576-1.576z"/><path d="M11.146 1.024a9.968 9.968 0 0 1 8.285 4.418 1.22 1.22 0 0 1-2.024 1.36 7.533 7.533 0 0 0-6.26-3.339C6.99 3.463 3.61 6.844 3.61 11c0 4.156 3.38 7.537 7.536 7.537a7.535 7.535 0 0 0 6.25-3.324 1.22 1.22 0 0 1 2.022 1.365 9.971 9.971 0 0 1-8.272 4.398c-5.5 0-9.975-4.475-9.975-9.976 0-5.5 4.475-9.976 9.975-9.976z"/></g></svg>