<?xml version="1.0" encoding="UTF-8"?>
<svg width="28px" height="20px" viewBox="0 0 28 20" version="1.1" xmlns="http://www.w3.org/2000/svg" xmlns:xlink="http://www.w3.org/1999/xlink">
    <!-- Generator: sketchtool 42 (36781) - http://www.bohemiancoding.com/sketch -->
    <title>E62175F2-23B4-41DE-A1DF-57A279AA2DC6</title>
    <desc>Created with sketchtool.</desc>
    <defs></defs>
    <g id="Symbols" stroke="none" stroke-width="1" fill="none" fill-rule="evenodd">
        <g id="Top-Bar/vSmall-Small" transform="translate(-104.000000, -23.000000)" fill-rule="nonzero" fill="#0070D2">
            <g id="menu-options" transform="translate(104.000000, 23.000000)">
                <path d="M1.17241379,2.40227586 L26.183931,2.40227586 C26.8287586,2.40227586 27.3563448,1.87468966 27.3563448,1.22986207 C27.3563448,0.585034483 26.8287586,0.0574482759 26.183931,0.0574482759 L1.17241379,0.0574482759 C0.527586207,0.0574482759 0,0.585034483 0,1.22986207 C0,1.87468966 0.527586207,2.40227586 1.17241379,2.40227586 Z" id="Shape"></path>
                <path d="M1.17241379,11.1953793 L26.183931,11.1953793 C26.8287586,11.1953793 27.3563448,10.6677931 27.3563448,10.0229655 C27.3563448,9.37813793 26.8287586,8.85055172 26.183931,8.85055172 L1.17241379,8.85055172 C0.527586207,8.85055172 0,9.37813793 0,10.0229655 C0,10.6677931 0.527586207,11.1953793 1.17241379,11.1953793 Z" id="Shape"></path>
                <path d="M1.17241379,19.9884828 L26.183931,19.9884828 C26.8287586,19.9884828 27.3563448,19.4608966 27.3563448,18.816069 C27.3563448,18.1712414 26.8287586,17.6436552 26.183931,17.6436552 L1.17241379,17.6436552 C0.527586207,17.6436552 0,18.1712414 0,18.816069 C0,19.4608966 0.527586207,19.9884828 1.17241379,19.9884828 Z" id="Shape"></path>
            </g>
        </g>
    </g>
</svg>