<svg xmlns="http://www.w3.org/2000/svg" width="137" height="30" viewBox="0 0 137 30">
    <g fill="#FFF" fill-rule="evenodd">
        <path d="M13.146 8.581a5.085 5.085 0 0 0-4.024 1.976 5.085 5.085 0 0 0-6.976-1.03v-.946H0v12.873h2.146v-7.777a2.95 2.95 0 0 1 5.902 0v7.777h2.147v-7.777a2.95 2.95 0 0 1 5.902 0v7.777h2.146v-7.777a5.096 5.096 0 0 0-5.097-5.096M24.145 21.454h2.146V8.58h-2.146zM25.218 7.509a1.073 1.073 0 1 0 0-2.146 1.073 1.073 0 0 0 0 2.146M64.119 21.454h2.146V8.58H64.12zM65.192 7.509a1.073 1.073 0 1 0 0-2.146 1.073 1.073 0 0 0 0 2.146M37.828 19.308a4.291 4.291 0 1 1 0-8.581 4.291 4.291 0 1 1 0 8.581zm0-10.727c-1.65 0-3.154.621-4.293 1.64V0h-2.146v21.454h2.146v-1.64a6.437 6.437 0 0 0 10.731-4.796 6.437 6.437 0 0 0-6.438-6.437zM54.997 8.581a5.606 5.606 0 0 0-3.487 1.215V8.58h-2.146v12.873h2.146v-7.241a3.487 3.487 0 0 1 5.954-2.465l1.517-1.517a5.617 5.617 0 0 0-3.984-1.65M78.07 19.308a4.291 4.291 0 1 1 0-8.581 4.291 4.291 0 1 1 0 8.581zM82.362 0v10.222a6.437 6.437 0 0 0-10.731 4.796 6.437 6.437 0 0 0 10.731 4.795v1.64h2.146V0h-2.146zM95.967 19.04a4.291 4.291 0 1 1 0-8.581 4.291 4.291 0 1 1 0 8.581zm4.293-10.727v1.64a6.437 6.437 0 0 0-10.731 4.796 6.437 6.437 0 0 0 10.73 4.796v4.59c0 1.926-1.584 3.486-3.51 3.486-.963 0-1.846-.39-2.477-1.02l-1.524 1.516a5.612 5.612 0 0 0 3.981 1.65c3.112 0 5.655-2.522 5.655-5.632h.022V8.313h-2.146zM109.867 13.945a4.29 4.29 0 0 1 4.152-3.218c2 0 3.675 1.368 4.152 3.218h-8.304zm10.59 1.073a6.439 6.439 0 1 0-12.787 1.073 6.439 6.439 0 0 0 10.902 3.478l-1.518-1.517a4.29 4.29 0 0 1-7.187-1.961h10.5c.059-.35.09-.708.09-1.073zM135.128 15.018c-1.016-.663-2.405-1.073-3.939-1.073-1.926 0-3.488-.72-3.488-1.61 0-.888 1.562-1.608 3.488-1.608 1.728 0 3.158.58 3.435 1.34h2.179c-.208-1.947-2.638-3.486-5.614-3.486-3.111 0-5.634 1.681-5.634 3.755 0 1.051.65 2 1.695 2.682 1.016.662 2.405 1.072 3.94 1.072 1.925 0 3.487.72 3.487 1.61 0 .888-1.562 1.608-3.488 1.608-1.728 0-3.158-.58-3.435-1.34h-2.178c.207 1.947 2.637 3.486 5.613 3.486 3.112 0 5.634-1.681 5.634-3.755 0-1.051-.65-2-1.695-2.681"/>
    </g>
</svg>
