<?xml version="1.0" encoding="UTF-8"?>
<svg width="106px" height="23px" viewBox="0 0 106 23" version="1.1" xmlns="http://www.w3.org/2000/svg" xmlns:xlink="http://www.w3.org/1999/xlink">
    <!-- Generator: sketchtool 42 (36781) - http://www.bohemiancoding.com/sketch -->
    <title>7E2BA862-AE24-44C3-968C-6ACBB287D42B</title>
    <desc>Created with sketchtool.</desc>
    <defs></defs>
    <g id="Symbols" stroke="none" stroke-width="1" fill="none" fill-rule="evenodd">
        <g id="Top-Bar/vMobile" transform="translate(-107.000000, -11.000000)" fill="#FFFFFF">
            <g id="Group-2" transform="translate(107.000000, 11.000000)">
                <path d="M10.1520236,6.63063063 C8.88695713,6.63063063 7.76443338,7.22987387 7.04426126,8.15712613 C6.32408913,7.22987387 5.20156538,6.63063063 3.93649894,6.63063063 C3.08621517,6.63063063 2.30098722,6.9029009 1.65747324,7.36145045 L1.65747324,6.63063063 L0,6.63063063 L0,16.5765766 L1.65747324,16.5765766 L1.65747324,10.5675676 C1.65747324,9.30878378 2.6778552,8.28828829 3.93649894,8.28828829 C5.19514268,8.28828829 6.21552464,9.30878378 6.21552464,10.5675676 L6.21552464,16.5765766 L7.87299787,16.5765766 L7.87299787,10.5675676 C7.87299787,9.30878378 8.89337984,8.28828829 10.1520236,8.28828829 C11.4106673,8.28828829 12.4310493,9.30878378 12.4310493,10.5675676 L12.4310493,16.5765766 L14.0885225,16.5765766 L14.0885225,10.5675676 C14.0885225,8.39334234 12.3260069,6.63063063 10.1520236,6.63063063" id="Fill-22"></path>
                <polygon id="Fill-15" points="18.6465739 16.5765766 20.3040471 16.5765766 20.3040471 6.63063063 18.6465739 6.63063063"></polygon>
                <path d="M19.4753105,5.8018018 C19.9329803,5.8018018 20.3040471,5.43069369 20.3040471,4.97297297 C20.3040471,4.51525225 19.9329803,4.14414414 19.4753105,4.14414414 C19.0176407,4.14414414 18.6465739,4.51525225 18.6465739,4.97297297 C18.6465739,5.43069369 19.0176407,5.8018018 19.4753105,5.8018018" id="Fill-16"></path>
                <polygon id="Fill-15" points="49.5170129 16.5765766 51.1744862 16.5765766 51.1744862 6.63063063 49.5170129 6.63063063"></polygon>
                <path d="M50.3457496,5.8018018 C50.8034194,5.8018018 51.1744862,5.43069369 51.1744862,4.97297297 C51.1744862,4.51525225 50.8034194,4.14414414 50.3457496,4.14414414 C49.8880798,4.14414414 49.5170129,4.51525225 49.5170129,4.97297297 C49.5170129,5.43069369 49.8880798,5.8018018 50.3457496,5.8018018" id="Fill-16"></path>
                <path d="M29.2129658,14.9189189 C27.3820794,14.9189189 25.8980193,13.4346937 25.8980193,11.6036036 C25.8980193,9.77251351 27.3820794,8.28828829 29.2129658,8.28828829 C31.0438522,8.28828829 32.5279123,9.77251351 32.5279123,11.6036036 C32.5279123,13.4346937 31.0438522,14.9189189 29.2129658,14.9189189 Z M29.2129658,6.63063063 C27.9391976,6.63063063 26.7777232,7.11010811 25.8980193,7.89790991 L25.8980193,0 L24.2405461,0 L24.2405461,16.5765766 L25.8980193,16.5765766 L25.8980193,15.3092973 C26.7777232,16.0970991 27.9391976,16.5765766 29.2129658,16.5765766 C31.9591918,16.5765766 34.1853855,14.3501351 34.1853855,11.6036036 C34.1853855,8.85707207 31.9591918,6.63063063 29.2129658,6.63063063 L29.2129658,6.63063063 Z" id="Fill-9"></path>
                <path d="M42.4727517,6.63063063 C41.4546488,6.63063063 40.5204554,6.98309009 39.7793577,7.56886486 L39.7793577,6.63063063 L38.1218844,6.63063063 L38.1218844,16.5765766 L39.7793577,16.5765766 L39.7793577,10.981982 C39.7793577,9.49423423 40.9851695,8.28828829 42.4727517,8.28828829 C43.2165428,8.28828829 43.8898913,8.58977477 44.3771884,9.07733333 L45.5492292,7.90516216 C44.7619294,7.11777477 43.6742126,6.63063063 42.4727517,6.63063063" id="Fill-26"></path>
                <path d="M60.290589,14.9189189 C58.4597026,14.9189189 56.9756425,13.4346937 56.9756425,11.6036036 C56.9756425,9.77251351 58.4597026,8.28828829 60.290589,8.28828829 C62.1214754,8.28828829 63.6055355,9.77251351 63.6055355,11.6036036 C63.6055355,13.4346937 62.1214754,14.9189189 60.290589,14.9189189 Z M63.6055355,0 L63.6055355,7.89790991 C62.7258315,7.11010811 61.5643572,6.63063063 60.290589,6.63063063 C57.544363,6.63063063 55.3181693,8.85707207 55.3181693,11.6036036 C55.3181693,14.3501351 57.544363,16.5765766 60.290589,16.5765766 C61.5643572,16.5765766 62.7258315,16.0970991 63.6055355,15.3092973 L63.6055355,16.5765766 L65.2630087,16.5765766 L65.2630087,0 L63.6055355,0 L63.6055355,0 Z" id="Fill-10"></path>
                <path d="M74.1123101,14.7117117 C72.2814237,14.7117117 70.7973636,13.2274865 70.7973636,11.3963964 C70.7973636,9.56530631 72.2814237,8.08108108 74.1123101,8.08108108 C75.9431965,8.08108108 77.4272566,9.56530631 77.4272566,11.3963964 C77.4272566,13.2274865 75.9431965,14.7117117 74.1123101,14.7117117 Z M77.4272566,6.42342342 L77.4272566,7.6907027 C76.5475527,6.9029009 75.3860783,6.42342342 74.1123101,6.42342342 C71.3660841,6.42342342 69.1398904,8.64986486 69.1398904,11.3963964 C69.1398904,14.1429279 71.3660841,16.3693694 74.1123101,16.3693694 C75.3860783,16.3693694 76.5475527,15.8898919 77.4272566,15.1020901 L77.4272566,18.6486486 C77.4272566,20.1363964 76.2038341,21.3423423 74.7162519,21.3423423 C73.9724608,21.3423423 73.2904106,21.0408559 72.8029062,20.5532973 L71.6265146,21.7254685 C72.4140216,22.5128559 73.4994594,23 74.7009203,23 C77.1038421,23 79.0681551,21.0518378 79.0681551,18.6486486 L79.0847298,18.6486486 L79.0847298,6.42342342 L77.4272566,6.42342342 L77.4272566,6.42342342 Z" id="Fill-4"></path>
                <path d="M84.8468837,10.7747748 C85.2154643,9.34566667 86.5091222,8.28828829 88.0532657,8.28828829 C89.5974092,8.28828829 90.8910671,9.34566667 91.2596477,10.7747748 L84.8468837,10.7747748 Z M93.0256854,11.6036036 C93.0256854,11.320973 93.0008233,11.0443514 92.9556572,10.7747748 C92.5609713,8.42297297 90.5168925,6.63063063 88.0532657,6.63063063 C85.5896389,6.63063063 83.54556,8.42297297 83.1508742,10.7747748 C83.1057081,11.0443514 83.080846,11.320973 83.080846,11.6036036 C83.080846,11.8862342 83.1057081,12.1628559 83.1508742,12.4324324 C83.54556,14.7842342 85.5896389,16.5765766 88.0532657,16.5765766 C89.4262751,16.5765766 90.66938,16.020018 91.569388,15.1201171 L90.3973472,13.9479459 C89.7973419,14.5478108 88.9686053,14.9189189 88.0532657,14.9189189 C86.5091222,14.9189189 85.2154643,13.8615405 84.8468837,12.4324324 L92.9556572,12.4324324 C93.0008233,12.1628559 93.0256854,11.8862342 93.0256854,11.6036036 L93.0256854,11.6036036 Z" id="Fill-12"></path>
                <path d="M104.355137,11.6036036 C103.57053,11.0913874 102.497731,10.7747748 101.313052,10.7747748 C99.8254694,10.7747748 98.6196576,10.2182162 98.6196576,9.53153153 C98.6196576,8.84484685 99.8254694,8.28828829 101.313052,8.28828829 C102.647318,8.28828829 103.752023,8.73647748 103.966045,9.32432432 L105.648173,9.32432432 C105.488227,7.81937838 103.611138,6.63063063 101.313052,6.63063063 C98.9101298,6.63063063 96.9621843,7.92940541 96.9621843,9.53153153 C96.9621843,10.3437838 97.4641915,11.0770901 98.2709666,11.6036036 C99.055573,12.1158198 100.128373,12.4324324 101.313052,12.4324324 C102.800634,12.4324324 104.006446,12.988991 104.006446,13.6756757 C104.006446,14.3623604 102.800634,14.9189189 101.313052,14.9189189 C99.9787856,14.9189189 98.8740797,14.4707297 98.6600585,13.8828829 L96.9779303,13.8828829 C97.1378765,15.3878288 99.0149649,16.5765766 101.313052,16.5765766 C103.715973,16.5765766 105.663919,15.2778018 105.663919,13.6756757 C105.663919,12.8634234 105.161912,12.1301171 104.355137,11.6036036" id="Fill-27"></path>
            </g>
        </g>
    </g>
</svg>