<?xml version="1.0" encoding="UTF-8"?>
<svg width="203px" height="44px" viewBox="0 0 203 44" version="1.1" xmlns="http://www.w3.org/2000/svg" xmlns:xlink="http://www.w3.org/1999/xlink">
    <!-- Generator: sketchtool 42 (36781) - http://www.bohemiancoding.com/sketch -->
    <title>9CCAB7E2-DA09-4E67-A9D2-CD90FA602056</title>
    <desc>Created with sketchtool.</desc>
    <defs></defs>
    <g id="Symbols" stroke="none" stroke-width="1" fill="none" fill-rule="evenodd">
        <g id="Top-Bar/vSmall-Small" transform="translate(-154.000000, -11.000000)">
            <g id="Group-2" transform="translate(154.000000, 11.000000)">
                <path d="M19.4314413,12.6846847 C17.0100458,12.6846847 14.8614836,13.8310631 13.4830409,15.6049369 C12.1045983,13.8310631 9.95603605,12.6846847 7.53464052,12.6846847 C5.90715817,12.6846847 4.40419567,13.2055495 3.17248022,14.0827748 L3.17248022,12.6846847 L0,12.6846847 L0,31.7117117 L3.17248022,31.7117117 L3.17248022,20.2162162 C3.17248022,17.8081081 5.12553836,15.8558559 7.53464052,15.8558559 C9.94374269,15.8558559 11.8968008,17.8081081 11.8968008,20.2162162 L11.8968008,31.7117117 L15.069281,31.7117117 L15.069281,20.2162162 C15.069281,17.8081081 17.0223392,15.8558559 19.4314413,15.8558559 C21.8405435,15.8558559 23.7936017,17.8081081 23.7936017,20.2162162 L23.7936017,31.7117117 L26.9660819,31.7117117 L26.9660819,20.2162162 C26.9660819,16.0568288 23.5925457,12.6846847 19.4314413,12.6846847" id="Fill-22" fill="#07366D"></path>
                <polygon id="Fill-15" fill="#07366D" points="35.6904025 31.7117117 38.8628827 31.7117117 38.8628827 12.6846847 35.6904025 12.6846847"></polygon>
                <path d="M37.2766426,11.0990991 C38.1526437,11.0990991 38.8628827,10.3891532 38.8628827,9.51351351 C38.8628827,8.63787387 38.1526437,7.92792793 37.2766426,7.92792793 C36.4006415,7.92792793 35.6904025,8.63787387 35.6904025,9.51351351 C35.6904025,10.3891532 36.4006415,11.0990991 37.2766426,11.0990991" id="Fill-16" fill="#07366D"></path>
                <polygon id="Fill-15" fill="#0070D2" points="94.7778466 31.7117117 97.9503268 31.7117117 97.9503268 12.6846847 94.7778466 12.6846847"></polygon>
                <path d="M96.3640867,11.0990991 C97.2400878,11.0990991 97.9503268,10.3891532 97.9503268,9.51351351 C97.9503268,8.63787387 97.2400878,7.92792793 96.3640867,7.92792793 C95.4880856,7.92792793 94.7778466,8.63787387 94.7778466,9.51351351 C94.7778466,10.3891532 95.4880856,11.0990991 96.3640867,11.0990991" id="Fill-16" fill="#0070D2"></path>
                <path d="M55.9149639,28.5405405 C52.4105629,28.5405405 49.5700034,25.7011532 49.5700034,22.1981982 C49.5700034,18.6952432 52.4105629,15.8558559 55.9149639,15.8558559 C59.4193648,15.8558559 62.2599243,18.6952432 62.2599243,22.1981982 C62.2599243,25.7011532 59.4193648,28.5405405 55.9149639,28.5405405 Z M55.9149639,12.6846847 C53.4769128,12.6846847 51.2537973,13.6019459 49.5700034,15.109045 L49.5700034,0 L46.3975232,0 L46.3975232,31.7117117 L49.5700034,31.7117117 L49.5700034,29.2873514 C51.2537973,30.7944505 53.4769128,31.7117117 55.9149639,31.7117117 C61.171367,31.7117117 65.4324045,27.4524324 65.4324045,22.1981982 C65.4324045,16.943964 61.171367,12.6846847 55.9149639,12.6846847 L55.9149639,12.6846847 Z" id="Fill-9" fill="#0070D2"></path>
                <path d="M81.2948056,12.6846847 C79.3461097,12.6846847 77.5580205,13.358955 76.1395253,14.4795676 L76.1395253,12.6846847 L72.9670451,12.6846847 L72.9670451,31.7117117 L76.1395253,31.7117117 L76.1395253,21.009009 C76.1395253,18.1628829 78.4475046,15.8558559 81.2948056,15.8558559 C82.7184561,15.8558559 84.0072762,16.4326126 84.9399854,17.3653333 L87.1833255,15.1229189 C85.6763974,13.6166126 83.5944572,12.6846847 81.2948056,12.6846847" id="Fill-26" fill="#0070D2"></path>
                <path d="M115.398968,28.5405405 C111.894567,28.5405405 109.054008,25.7011532 109.054008,22.1981982 C109.054008,18.6952432 111.894567,15.8558559 115.398968,15.8558559 C118.903369,15.8558559 121.743928,18.6952432 121.743928,22.1981982 C121.743928,25.7011532 118.903369,28.5405405 115.398968,28.5405405 Z M121.743928,0 L121.743928,15.109045 C120.060135,13.6019459 117.837019,12.6846847 115.398968,12.6846847 C110.142565,12.6846847 105.881527,16.943964 105.881527,22.1981982 C105.881527,27.4524324 110.142565,31.7117117 115.398968,31.7117117 C117.837019,31.7117117 120.060135,30.7944505 121.743928,29.2873514 L121.743928,31.7117117 L124.916409,31.7117117 L124.916409,0 L121.743928,0 L121.743928,0 Z" id="Fill-10" fill="#0070D2"></path>
                <path d="M141.85438,28.1441441 C138.349979,28.1441441 135.509419,25.3047568 135.509419,21.8018018 C135.509419,18.2988468 138.349979,15.4594595 141.85438,15.4594595 C145.358781,15.4594595 148.19934,18.2988468 148.19934,21.8018018 C148.19934,25.3047568 145.358781,28.1441441 141.85438,28.1441441 Z M148.19934,12.2882883 L148.19934,14.7126486 C146.515546,13.2055495 144.292431,12.2882883 141.85438,12.2882883 C136.597977,12.2882883 132.336939,16.5475676 132.336939,21.8018018 C132.336939,27.056036 136.597977,31.3153153 141.85438,31.3153153 C144.292431,31.3153153 146.515546,30.3980541 148.19934,28.890955 L148.19934,35.6756757 C148.19934,38.5218018 145.857653,40.8288288 143.010352,40.8288288 C141.586702,40.8288288 140.281226,40.2520721 139.34812,39.3193514 L137.096452,41.5617658 C138.603777,43.0680721 140.681355,44 142.981007,44 C147.58031,44 151.340096,40.2730811 151.340096,35.6756757 L151.37182,35.6756757 L151.37182,12.2882883 L148.19934,12.2882883 L148.19934,12.2882883 Z" id="Fill-4" fill="#0070D2"></path>
                <path d="M162.400849,20.6126126 C163.106329,17.8786667 165.58245,15.8558559 168.538012,15.8558559 C171.493574,15.8558559 173.969694,17.8786667 174.675175,20.6126126 L162.400849,20.6126126 Z M178.055452,22.1981982 C178.055452,21.6575135 178.007865,21.1283243 177.921415,20.6126126 C177.165968,16.1135135 173.253507,12.6846847 168.538012,12.6846847 C163.822516,12.6846847 159.910055,16.1135135 159.154608,20.6126126 C159.068158,21.1283243 159.020571,21.6575135 159.020571,22.1981982 C159.020571,22.7388829 159.068158,23.2680721 159.154608,23.7837838 C159.910055,28.2828829 163.822516,31.7117117 168.538012,31.7117117 C171.166015,31.7117117 173.545375,30.646991 175.268032,28.9254414 L173.024692,26.683027 C171.876254,27.8305946 170.290014,28.5405405 168.538012,28.5405405 C165.58245,28.5405405 163.106329,26.5177297 162.400849,23.7837838 L177.921415,23.7837838 C178.007865,23.2680721 178.055452,22.7388829 178.055452,22.1981982 L178.055452,22.1981982 Z" id="Fill-12" fill="#0070D2"></path>
                <path d="M199.740544,22.1981982 C198.238772,21.2183063 196.185384,20.6126126 193.917853,20.6126126 C191.070552,20.6126126 188.762573,19.5478919 188.762573,18.2342342 C188.762573,16.9205766 191.070552,15.8558559 193.917853,15.8558559 C196.4717,15.8558559 198.586158,16.7132613 198.995805,17.8378378 L202.215475,17.8378378 C201.909331,14.9588108 198.316497,12.6846847 193.917853,12.6846847 C189.31855,12.6846847 185.590093,15.1692973 185.590093,18.2342342 C185.590093,19.7881081 186.550958,21.190955 188.095163,22.1981982 C189.596935,23.1780901 191.650323,23.7837838 193.917853,23.7837838 C196.765154,23.7837838 199.073134,24.8485045 199.073134,26.1621622 C199.073134,27.4758198 196.765154,28.5405405 193.917853,28.5405405 C191.364007,28.5405405 189.249549,27.6831351 188.839902,26.5585586 L185.620231,26.5585586 C185.926376,29.4375856 189.51921,31.7117117 193.917853,31.7117117 C198.517157,31.7117117 202.245614,29.2270991 202.245614,26.1621622 C202.245614,24.6082883 201.284749,23.2054414 199.740544,22.1981982" id="Fill-27" fill="#0070D2"></path>
            </g>
        </g>
    </g>
</svg>