<?xml version="1.0" encoding="utf-8"?>
<!-- Generator: Adobe Illustrator 20.0.0, SVG Export Plug-In . SVG Version: 6.00 Build 0)  -->
<svg version="1.1" id="Layer_1" xmlns="http://www.w3.org/2000/svg" xmlns:xlink="http://www.w3.org/1999/xlink" x="0px" y="0px"
	 viewBox="0 0 418 79" style="enable-background:new 0 0 418 79;" xml:space="preserve">
<style type="text/css">
	.st0{fill:#FFFFFF;}
</style>
<g>
	
		<image style="overflow:visible;opacity:0.35;" width="422" height="83" xlink:href="890F5E19AE99134.png"  transform="matrix(1 0 0 1 -1 -1)">
	</image>
	<g>
		<g>
			<path class="st0" d="M124.7,65.9c-0.3-0.8-1-1.4-1.9-1.4L21.5,64.3c-0.4,0-0.7-0.1-1.1-0.2c-1.5-0.6-2.3-2.3-1.7-3.9l15.2-38.8
				L45,44.5c0.1,0.2,0.2,0.4,0.3,0.6c0.3,0.5,1,0.9,1.7,0.9h11.4c0,0,0.1,0,0.1,0l0.4,0c0.8,0,1.6-0.4,1.8-1
				c4.4-9.4,8.1-17.2,11.1-23.4l13.1,33.9c0.3,0.8,1,1.3,1.8,1.3l11.2,0.2c1.1,0,2-0.9,2-2c0-0.3,0-0.5-0.1-0.7L80.7,2.6
				c0-0.3-0.2-0.5-0.3-0.7C80,1.3,79.4,1,78.7,1L68.8,1l-2.3,0c-0.8,0-1.6,0.4-1.8,1l-12,25.5c-3-6.6-7-15.1-11.8-25.5
				c-0.3-0.6-1-1-1.8-1H26.9c-0.4,0-0.8,0.1-1.2,0.3c-0.4,0.2-0.8,0.6-0.9,1L0.7,66.2C0.3,67.1,0.1,68,0.1,69c0,4.4,3.6,8,8,8h117.6
				c0.2,0,0.4,0,0.6-0.1c1-0.4,1.6-1.5,1.2-2.5L124.7,65.9z"/>
			<path class="st0" d="M111,57h8.5c1.1,0,2-0.9,2-2V3c0-1.1-0.9-2-2-2H111c-1.1,0-2,0.9-2,2v52C109,56.1,109.9,57,111,57z"/>
			<path class="st0" d="M177.9,26.6c2.2-1.2,3.9-2.7,5.2-4.5c1.3-1.9,1.9-4,1.9-6.3c0-2.9-0.7-5.5-2.1-7.7c-1.4-2.3-3.4-4.1-5.9-5.3
				c-2.5-1.3-5.4-1.9-8.6-1.9h-17.2c-1.1,0-1.9,0.3-2.7,1c-0.7,0.7-1.1,1.6-1.1,2.7v48.7c0,1.1,0.4,1.9,1.1,2.7
				c0.7,0.7,1.6,1.1,2.7,1.1H170c3.6,0,6.7-0.7,9.5-2.2c2.8-1.4,5-3.5,6.6-6s2.3-5.5,2.3-8.8c0-3.6-0.9-6.5-2.8-8.8
				S181.2,27.4,177.9,26.6z M155,7.7h13.5c2.8,0,5.1,0.7,6.8,2.1c1.7,1.4,2.6,3.4,2.6,6c0,2.6-0.9,4.7-2.6,6c-1.7,1.4-4,2.1-6.8,2.1
				H155V7.7z M178.1,47.5c-2.1,1.8-4.8,2.6-8.1,2.6h-15V30.8h15c3.4,0,6.1,0.8,8.2,2.4c2,1.6,3.1,3.9,3.1,6.8
				C181.2,43.2,180.2,45.7,178.1,47.5z"/>
			<path class="st0" d="M221.8,18.3c-1.4-0.8-3.4-1.2-6-1.2c-2.4,0-4.7,0.5-6.8,1.4c-2.1,1-3.9,2.3-5.3,4v-1.4
				c0-2.4-1.2-3.6-3.6-3.6c-1.2,0-2,0.3-2.7,0.9s-0.9,1.5-0.9,2.7v32.2c0,1.2,0.3,2.1,0.9,2.7c0.6,0.6,1.5,0.9,2.7,0.9
				c1.2,0,2.1-0.3,2.7-0.9c0.6-0.6,0.9-1.5,0.9-2.7v-21c0-2.7,1.1-4.8,3.2-6.4c2.1-1.6,4.9-2.4,8.4-2.4c1.2,0,2.8,0.2,4.7,0.5
				c0.5,0.1,0.8,0.1,1.1,0.1c1.5,0,2.4-0.8,2.9-2.3c0-0.1,0.1-0.4,0.1-0.7C224,20.1,223.2,19.1,221.8,18.3z"/>
			<path class="st0" d="M324.8,19.9L324.8,19.9c-3-1.7-6.4-2.6-10.2-2.6c-3.8,0-7.3,0.9-10.3,2.6S299,24,297.3,27s-2.5,6.5-2.5,10.4
				c0,3.8,0.8,7.3,2.3,10.3s3.7,5.4,6.6,7.1c2.8,1.7,6,2.6,9.5,2.6c3.1,0,5.8-0.7,8.3-2.2s4.4-3.6,5.9-6.2v3.5c0,3-0.6,5.6-1.7,7.8
				c-1.2,2.2-2.7,3.8-4.6,5c-1.9,1.1-4.1,1.7-6.4,1.7c-2.5,0-4.7-0.4-6.7-1.3c-1.9-0.9-3.6-2.2-4.9-3.9c-0.8-1-1.8-1.5-3-1.5
				c-0.7,0-1.3,0.2-2,0.6c-1,0.7-1.5,1.6-1.5,2.6c0,0.7,0.3,1.3,0.8,2c2,2.5,4.5,4.5,7.5,5.9c3,1.4,6.2,2.1,9.6,2.1
				c3.8,0,7.3-0.9,10.3-2.7c3-1.8,5.4-4.3,7.1-7.4s2.5-6.6,2.5-10.4V37.3c0-3.9-0.9-7.3-2.6-10.4C330.2,24,327.8,21.6,324.8,19.9z
				 M325.8,44.3c-1.1,2-2.6,3.6-4.5,4.8c-1.9,1.2-4.1,1.7-6.6,1.7s-4.6-0.6-6.6-1.7c-1.9-1.2-3.5-2.7-4.6-4.8s-1.7-4.4-1.7-6.9
				s0.6-4.9,1.7-7c1.1-2.1,2.6-3.7,4.6-4.8c1.9-1.2,4.1-1.7,6.6-1.7s4.6,0.6,6.6,1.7c1.9,1.2,3.5,2.8,4.5,4.8c1.1,2.1,1.6,4.4,1.6,7
				S326.9,42.3,325.8,44.3z"/>
			<path class="st0" d="M376.2,26.6c-1.4-2.9-3.5-5.2-6.2-6.8s-5.9-2.4-9.6-2.4c-3.7,0-7.1,0.9-10,2.6c-3,1.7-5.3,4.1-6.9,7.1
				c-1.7,3-2.5,6.5-2.5,10.3c0,3.8,0.9,7.3,2.6,10.3c1.8,3,4.2,5.4,7.3,7.1s6.6,2.6,10.6,2.6c2.2,0,4.5-0.4,6.9-1.2
				c2.4-0.8,4.5-1.9,6.1-3.2c0.8-0.6,1.2-1.3,1.2-2.2c0-0.9-0.4-1.7-1.3-2.4c-0.5-0.5-1.2-0.7-2.2-0.7s-1.7,0.3-2.4,0.8
				c-1,0.8-2.3,1.4-3.9,1.9c-1.6,0.5-3.1,0.8-4.5,0.8c-3.6,0-6.7-1-9.3-3.1c-2.5-2.1-4-4.8-4.6-8.1h27.4c1,0,1.8-0.3,2.4-0.9h0
				c0.6-0.6,0.9-1.4,0.9-2.3C378.4,32.9,377.7,29.5,376.2,26.6z M347.8,34.1c0.6-3.2,2-5.8,4.1-7.7c2.2-1.9,5-2.9,8.5-2.9
				c3.2,0,5.7,1,7.7,2.9c2,1.9,3.2,4.5,3.6,7.7H347.8z"/>
			<path class="st0" d="M411.9,38.2c-2.2-1.9-5.9-3.3-11.1-4.4c-2.5-0.5-4.5-1.1-5.8-1.6s-2.3-1.2-2.7-1.8c-0.5-0.6-0.7-1.5-0.7-2.4
				c0-1.3,0.7-2.4,2.1-3.1c1.4-0.7,3.2-1.1,5.4-1.1c1.9,0,3.6,0.2,4.9,0.7c1.3,0.5,2.6,1.2,3.8,2.3c1,0.9,2.1,1.4,3.4,1.4
				c0.8,0,1.5-0.2,2-0.6c0.8-0.7,1.2-1.4,1.2-2.2c0-0.8-0.3-1.5-0.9-2.3c-1.4-1.8-3.4-3.2-5.9-4.2s-5.3-1.5-8.4-1.5
				c-2.5,0-4.9,0.4-7.2,1.2c-2.3,0.8-4.1,2-5.5,3.7c-1.4,1.6-2.1,3.6-2.1,6c0,5.8,4.6,9.6,13.8,11.4c3.6,0.7,6.1,1.5,7.6,2.5
				c1.5,1,2.2,2.2,2.2,3.7c0,1.5-0.8,2.8-2.3,3.7c-1.5,0.9-3.6,1.4-6.4,1.4c-2.1,0-4-0.4-5.8-1.1c-1.8-0.7-3.2-1.6-4.1-2.6
				c-0.9-0.9-1.8-1.3-2.7-1.3c-0.8,0-1.6,0.3-2.5,1c-1,0.7-1.4,1.7-1.4,2.8c0,0.9,0.3,1.6,0.9,2.2c1.6,1.6,3.9,3,6.8,4
				s6,1.5,9.2,1.5c3.3,0,6.1-0.5,8.4-1.5s4.1-2.4,5.3-4.2s1.8-3.8,1.8-6C415.2,42.5,414.1,40.1,411.9,38.2z"/>
			<path class="st0" d="M233.5,17.6c-1.1,0-1.9,0.3-2.6,1c-0.7,0.7-1,1.6-1,2.7v32c0,1.1,0.3,1.9,1,2.6c0.7,0.7,1.6,1,2.6,1
				c1.1,0,2-0.3,2.7-1s1-1.6,1-2.6v-32c0-1.1-0.3-2-1-2.7C235.5,18,234.7,17.6,233.5,17.6z"/>
			<path class="st0" d="M282.5,0.8c-1.1,0-1.9,0.3-2.6,1c-0.7,0.7-1,1.6-1,2.7v19.4c-1.7-2.1-3.7-3.7-6.1-4.8
				c-2.4-1.2-5-1.7-7.8-1.7c-3.5,0-6.6,0.9-9.4,2.6c-2.8,1.7-5,4.1-6.6,7.2c-1.6,3-2.4,6.4-2.4,10.2c0,3.7,0.9,7.1,2.6,10.2
				c1.7,3,4.1,5.4,7.2,7.2c3,1.8,6.4,2.6,10.1,2.6c3.7,0,7-0.9,10-2.6c3-1.8,5.4-4.2,7.1-7.2c1.8-3,2.6-6.4,2.6-10.2V4.4
				c0-1.1-0.3-2-1-2.7S283.6,0.8,282.5,0.8z M277.5,44.2c-1.1,2.1-2.6,3.7-4.6,4.9c-1.9,1.2-4.1,1.8-6.5,1.8c-2.4,0-4.6-0.6-6.5-1.8
				c-1.9-1.2-3.5-2.8-4.6-4.9c-1.1-2.1-1.7-4.4-1.7-6.9s0.6-4.8,1.7-6.9c1.1-2,2.7-3.6,4.6-4.8c1.9-1.2,4.1-1.8,6.5-1.8
				c2.4,0,4.6,0.6,6.5,1.8c1.9,1.2,3.5,2.8,4.6,4.8s1.7,4.3,1.7,6.9S278.6,42.1,277.5,44.2z"/>
			<path class="st0" d="M233.5,1.7c-1.3,0-2.4,0.5-3.3,1.4c-0.9,0.9-1.4,2.1-1.4,3.3s0.5,2.4,1.4,3.3c0.9,0.9,2.1,1.4,3.3,1.4
				s2.4-0.5,3.3-1.4c0.9-0.9,1.4-2.1,1.4-3.3s-0.5-2.4-1.4-3.3C236,2.2,234.8,1.7,233.5,1.7z"/>
		</g>
	</g>
</g>
</svg>
