<svg width="31" height="31" viewBox="0 0 31 31" xmlns="http://www.w3.org/2000/svg"><title>B816BD60-EF67-4540-90E9-49F976A22096</title><g transform="translate(1 1)" fill="none" fill-rule="evenodd"><g fill-rule="nonzero" fill="#FFF"><path d="M14.388 18.392h.147c1.35-.023 2.443-.498 3.25-1.406 1.774-2 1.479-5.429 1.447-5.756-.116-2.457-1.277-3.632-2.236-4.18-.714-.41-1.548-.632-2.479-.65h-.078c-.512 0-1.517.083-2.48.631-.968.549-2.148 1.724-2.263 4.199-.032.327-.327 3.756 1.447 5.756.802.908 1.895 1.383 3.245 1.406zm-3.461-7.047c0-.014.004-.028.004-.037.152-3.304 2.498-3.659 3.503-3.659H14.489c1.245.028 3.36.535 3.503 3.66 0 .013 0 .027.005.036.004.032.327 3.166-1.139 4.816-.58.655-1.355.977-2.373.986h-.046c-1.014-.009-1.793-.331-2.37-.986-1.46-1.64-1.147-4.788-1.142-4.816z"/><path d="M23.933 24.079c0-.05-.005-.088-.005-.13-.028-.912-.088-3.045-2.088-3.728-2.124-.543-4.84-2.884-4.858-2.897a.621.621 0 1 0-.715 1.018c.079.055 2.9 2.474 5.195 3.064 1.074.382 1.194 1.53 1.226 2.58 0 .042 0 .08.005.116.004.415-.023 1.055-.097 1.424-.747.424-3.675 2.724-8.127 2.724-4.434 0-7.377-2.305-8.128-2.729-.074-.368-.106-1.009-.097-1.424 0-.036.005-.073.005-.115.032-1.05.152-2.198 1.226-2.58 2.295-.59 5.187-3.01 5.266-3.06a.621.621 0 1 0-.715-1.018c-.018.013-2.795 2.349-4.883 2.879-2.046.7-2.106 2.834-2.134 3.742 0 .042 0 .079-.004.116-.005.253-.01 1.484.235 2.101.046.12.129.221.24.29.138.093 3.449 3.038 8.993 3.038 5.544 0 8.86-2.95 8.999-3.038a.617.617 0 0 0 .24-.29c.23-.613.225-1.843.22-2.083z"/></g><circle stroke="#FFF" cx="14.5" cy="14.5" r="14.5"/></g></svg>