<svg xmlns="http://www.w3.org/2000/svg" xmlns:xlink="http://www.w3.org/1999/xlink" width="96" height="51" viewBox="0 0 96 51">
    <defs>
        <rect id="b" width="48" height="48" rx="24"/>
        <filter id="a" width="110.4%" height="112.5%" x="-3.1%" y="-3.1%" filterUnits="objectBoundingBox">
            <feOffset dx="1" dy="2" in="SourceAlpha" result="shadowOffsetOuter1"/>
            <feGaussianBlur in="shadowOffsetOuter1" result="shadowBlurOuter1" stdDeviation=".5"/>
            <feColorMatrix in="shadowBlurOuter1" values="0 0 0 0 0 0 0 0 0 0.262745098 0 0 0 0 0.490196078 0 0 0 0.8 0"/>
        </filter>
    </defs>
    <g fill="none" fill-rule="evenodd" opacity=".8">
        <path fill="#EEF0F5" fill-rule="nonzero" d="M88.72 12.688c-3.944 0-7.153 3.209-7.153 7.153a1.47 1.47 0 1 0 2.942 0 4.217 4.217 0 0 1 4.211-4.212 4.217 4.217 0 0 1 4.213 4.212 4.217 4.217 0 0 1-4.213 4.213 1.47 1.47 0 0 0-1.47 1.47v5.123a1.47 1.47 0 1 0 2.941 0V26.84c3.241-.68 5.683-3.56 5.683-7 0-3.944-3.209-7.153-7.154-7.153z"/>
        <g>
            <use fill="#000" filter="url(#a)" xlink:href="#b"/>
            <use fill="#0062B8" xlink:href="#b"/>
        </g>
        <g fill="#EEF0F5" fill-rule="nonzero">
            <path d="M34.797 33.324l-1.48-2.746v-6.784c0-4.193-2.848-7.74-6.732-8.851v-3.386C26.585 10.147 25.425 9 24 9c-1.426 0-2.585 1.147-2.585 2.557v3.386c-3.884 1.11-6.732 4.658-6.732 8.851v6.784l-1.48 2.746a1.661 1.661 0 0 0 .043 1.666 1.7 1.7 0 0 0 1.466.82h5.876C20.688 37.586 22.18 39 24 39c1.82 0 3.312-1.414 3.412-3.19h5.876a1.7 1.7 0 0 0 1.466-.82 1.662 1.662 0 0 0 .043-1.666zM22.783 11.557c0-.664.546-1.204 1.217-1.204s1.217.54 1.217 1.204v3.103a9.464 9.464 0 0 0-2.434 0v-3.103zM16.05 23.794c0-4.334 3.566-7.86 7.949-7.86s7.95 3.526 7.95 7.86v6.224h-15.9v-6.224zM24 37.647a2.044 2.044 0 0 1-2.04-1.837h4.08A2.044 2.044 0 0 1 24 37.647zm9.581-3.353a.337.337 0 0 1-.293.164H14.712a.337.337 0 0 1-.293-.164.33.33 0 0 1-.009-.334l1.396-2.59h16.388l1.396 2.59a.33.33 0 0 1-.009.334z"/>
            <path d="M24.297 18A6.304 6.304 0 0 0 18 24.297a.703.703 0 0 0 1.406 0 4.896 4.896 0 0 1 4.89-4.89.703.703 0 0 0 0-1.407z"/>
        </g>
        <path fill="#EEF0F5" fill-rule="nonzero" d="M88.721 33.136a1.847 1.847 0 1 0 0 3.693 1.847 1.847 0 0 0 0-3.693z"/>
    </g>
</svg>
