<?xml version="1.0" encoding="UTF-8"?>
<svg width="24px" height="25px" viewBox="0 0 24 25" version="1.1" xmlns="http://www.w3.org/2000/svg" xmlns:xlink="http://www.w3.org/1999/xlink">
    <!-- Generator: sketchtool 42 (36781) - http://www.bohemiancoding.com/sketch -->
    <title>0EBB5932-BC99-4313-BB25-6BE9DD68E7E2</title>
    <desc>Created with sketchtool.</desc>
    <defs></defs>
    <g id="Symbols" stroke="none" stroke-width="1" fill="none" fill-rule="evenodd">
        <g id="Top-Bar/vSmall-Small" transform="translate(-957.000000, -20.000000)" fill="#9DABBA">
            <path d="M959.5,40 L962,35 L962,28.3333333 C962,24.6516667 964.985,21.6666667 968.666667,21.6666667 C972.348333,21.6666667 975.333333,24.6516667 975.333333,28.3333333 L975.333333,35 L977.833333,40 L959.5,40 L959.5,40 Z M968.666667,43.3333333 C967.579167,43.3333333 966.664167,42.6358333 966.32,41.6666667 L971.013333,41.6666667 C970.669167,42.6358333 969.754167,43.3333333 968.666667,43.3333333 L968.666667,43.3333333 Z M977,35 L977,28.3333333 C977,23.7316667 973.268333,20 968.666667,20 C964.065,20 960.333333,23.7316667 960.333333,28.3333333 L960.333333,35 L957,41.6666667 L964.584167,41.6666667 C964.97,43.5683333 966.650833,45 968.666667,45 C970.6825,45 972.363333,43.5683333 972.749167,41.6666667 L980.333333,41.6666667 L977,35 L977,35 Z" id="Fill-67"></path>
        </g>
    </g>
</svg>