<svg width="30" height="28" viewBox="0 0 30 28" xmlns="http://www.w3.org/2000/svg"><title>17DBE348-B51E-4B7B-9FAC-9174CD11355C</title><g fill="#FFF" fill-rule="evenodd"><path d="M16 1v1.101a5 5 0 0 1 0 9.798V27a1 1 0 1 1-2 0V11.899a5 5 0 0 1 0-9.798V1a1 1 0 1 1 2 0zm-1 9a3 3 0 1 0 0-6 3 3 0 0 0 0 6zM26 1v15.101a5 5 0 0 1 0 9.798V27a1 1 0 1 1-2 0v-1.101a5 5 0 0 1 0-9.798V1a1 1 0 1 1 2 0zm-1 23a3 3 0 1 0 0-6 3 3 0 0 0 0 6zM6 1v11.101a5 5 0 0 1 0 9.798V27a1 1 0 1 1-2 0v-5.101a5 5 0 0 1 0-9.798V1a1 1 0 1 1 2 0zM5 20a3 3 0 1 0 0-6 3 3 0 0 0 0 6z"/></g></svg>