<svg width="320" height="57" viewBox="0 0 320 57" xmlns="http://www.w3.org/2000/svg"><title>32A1B81B-76AD-4D48-9755-2EFE007C1C9D</title><g fill="none" fill-rule="evenodd"><path d="M-33.532 56.135s-18.22-29.698-.704-32.14 46.944 17.83 90.898 19.564c43.953 1.734 62.156-10.373 128.334-10.917 66.179-.544 62.846 10.599 145.948 8.664 83.102-1.934 139.682-15.313 139.682-15.313l.66 30.362-504.818-.22z" fill="#FBFBFC"/><g fill="#FFF"><path d="M26.476 7.495c-1.43 0-2.699.678-3.513 1.726a4.438 4.438 0 0 0-6.09-.9v-.826H15V18.74h1.874v-6.793a2.576 2.576 0 1 1 5.152 0v6.793H23.9v-6.793a2.576 2.576 0 1 1 5.152 0v6.793h1.874v-6.793a4.45 4.45 0 0 0-4.45-4.45M36.079 18.739h1.873V7.495H36.08zM37.016 6.559a.937.937 0 1 0 0-1.874.937.937 0 0 0 0 1.874M70.976 18.739h1.873V7.495h-1.873zM71.913 6.559a.937.937 0 1 0 0-1.874.937.937 0 0 0 0 1.874M48.023 16.865a3.747 3.747 0 1 1 0-7.495 3.747 3.747 0 0 1 0 7.495zm0-9.37c-1.44 0-2.753.543-3.747 1.433V0h-1.874v18.739h1.874v-1.433a5.621 5.621 0 1 0 3.747-9.81zM63.013 7.495c-1.151 0-2.207.399-3.045 1.061v-1.06h-1.874v11.243h1.874v-6.325a3.045 3.045 0 0 1 5.198-2.153l1.324-1.325a4.903 4.903 0 0 0-3.477-1.44M83.155 16.865a3.747 3.747 0 1 1 0-7.495 3.747 3.747 0 0 1 0 7.495zM86.902 0v8.928a5.621 5.621 0 1 0 0 8.378v1.433h1.874V0h-1.874zM98.78 16.63a3.747 3.747 0 1 1 0-7.494 3.747 3.747 0 0 1 0 7.495zm3.746-9.369v1.433a5.621 5.621 0 1 0 0 8.378v4.01c0 1.68-1.383 3.044-3.064 3.044-.841 0-1.612-.34-2.163-.892l-1.33 1.325c.89.89 2.117 1.441 3.476 1.441 2.716 0 4.936-2.202 4.936-4.919h.02V7.261h-1.875zM110.914 12.18a3.746 3.746 0 0 1 3.624-2.81 3.746 3.746 0 0 1 3.625 2.81h-7.25zm9.245.937a5.622 5.622 0 0 0-11.163-.937 5.664 5.664 0 0 0 0 1.874 5.622 5.622 0 0 0 9.517 3.038l-1.325-1.325a3.746 3.746 0 0 1-6.274-1.713h9.166c.051-.305.08-.617.08-.937zM132.967 13.117c-.887-.579-2.1-.937-3.44-.937-1.68 0-3.044-.629-3.044-1.405s1.363-1.406 3.045-1.406c1.508 0 2.757.507 2.999 1.172h1.901c-.18-1.702-2.302-3.046-4.9-3.046-2.717 0-4.919 1.469-4.919 3.28 0 .918.568 1.747 1.48 2.342.887.58 2.1.937 3.439.937 1.681 0 3.045.63 3.045 1.405 0 .777-1.364 1.406-3.045 1.406-1.509 0-2.757-.507-3-1.171h-1.9c.18 1.7 2.302 3.045 4.9 3.045 2.716 0 4.918-1.468 4.918-3.28 0-.918-.567-1.747-1.48-2.342"/><g fill-rule="nonzero"><path d="M283.172 5.402h25.012c.645 0 1.172-.527 1.172-1.172 0-.645-.527-1.173-1.172-1.173h-25.012c-.644 0-1.172.528-1.172 1.173s.528 1.172 1.172 1.172zM283.172 14.195h25.012c.645 0 1.172-.527 1.172-1.172 0-.645-.527-1.172-1.172-1.172h-25.012c-.644 0-1.172.527-1.172 1.172 0 .645.528 1.172 1.172 1.172zM283.172 22.988h25.012c.645 0 1.172-.527 1.172-1.172 0-.645-.527-1.172-1.172-1.172h-25.012c-.644 0-1.172.527-1.172 1.172 0 .645.528 1.172 1.172 1.172z"/></g></g></g></svg>