<svg xmlns="http://www.w3.org/2000/svg" width="19" height="17" viewBox="0 0 19 17">
    <g fill="#526173" fill-rule="nonzero">
        <path d="M4.84 13.26c-.166.162-.3.48-.3.71v2.992h1.771v-4.73c0-.23-.134-.284-.3-.122L4.84 13.26zM12.619 10.424c-.166.163-.3.48-.3.71v5.829h1.771V9.395c0-.23-.134-.284-.3-.121l-1.171 1.15zM15.211 7.877c-.166.162-.3.48-.3.71v8.375h1.647V6.975c0-.23-.135-.285-.3-.122L15.21 7.877zM10.078 12.916l-.176.173c-.097.096-.176.36-.176.59v3.283h1.77v-5.02c0-.23-.134-.285-.3-.122l-1.118 1.096zM7.433 12.033c-.166-.162-.3-.108-.3.122v4.807h1.77V13.89c0-.23-.126-.541-.284-.695l-.285-.278-.9-.883zM2.611 15.447l-.572.562c-.165.163-.3.442-.3.624v.33h1.977v-2.186c0-.23-.134-.284-.3-.121l-.805.79z"/>
        <path d="M18.693 6.899c.166.162.3.107.3-.122V.829c0-.426-.416-.799-.847-.799h-6.028c-.234 0-.29.132-.124.295l2.144 2.105-.875.854-4.055 3.982-2.146-2.104a.43.43 0 0 0-.6 0L.497 11.02a1.643 1.643 0 0 0 0 2.355l.042.04a1.72 1.72 0 0 0 2.4 0l3.823-3.752 2.145 2.102a.431.431 0 0 0 .6 0l7.072-6.938 2.114 2.073z"/>
    </g>
</svg>
