<svg xmlns="http://www.w3.org/2000/svg" width="59" height="71" viewBox="0 0 59 71">
    <g fill="none" fill-rule="nonzero">
        <path fill="#CDD6E0" d="M45.878 70.219L2.399 62.894c-1.61-.293-2.635-1.758-2.342-3.37l9.662-57.13C10.01.783 11.475-.243 13.086.05l43.478 7.324c1.61.293 2.635 1.758 2.342 3.37l-9.661 57.13c-.293 1.466-1.757 2.637-3.367 2.345z"/>
        <path fill="#F2F2F2" d="M51.44 3.126H7.523a2.937 2.937 0 0 0-2.928 2.93v57.863a2.937 2.937 0 0 0 2.928 2.93H51.44a2.937 2.937 0 0 0 2.928-2.93V6.056a2.937 2.937 0 0 0-2.928-2.93z"/>
        <path fill="#84DBFF" d="M10.45 8.986h20.056v23.145H10.45z"/>
        <g fill="#ACB3BA">
            <path d="M7.083 47.366H51.88v2.93H7.083zM7.083 38.284H51.88v2.93H7.083zM7.083 56.302h20.35v2.93H7.082z"/>
        </g>
        <path fill="#F8B64C" d="M34.459 29.201h17.274v2.93H34.459z"/>
        <path fill="#FFD15C" d="M34.459 20.119h17.274v2.93H34.459z"/>
        <ellipse cx="42.803" cy="58.353" fill="#86B03E" rx="5.856" ry="5.86"/>
        <ellipse cx="42.803" cy="58.353" fill="#F2F2F2" rx="4.685" ry="4.688"/>
        <ellipse cx="42.803" cy="58.353" fill="#9AD14B" rx="3.66" ry="3.662"/>
        <g fill="#3F4B5B">
            <path d="M16.599 18.068c1.171 4.248 3.953 4.541 3.953 4.541s2.781-.293 3.952-4.54c0 0 .586-.44.147-2.345 0 0-.293-3.662-3.953-3.662-3.66 0-3.953 3.662-3.953 3.662-.878 1.758-.146 2.344-.146 2.344z"/>
            <path d="M26.846 23.635l-2.927-1.026-.44-.146c-1.463 1.318-2.781 1.611-2.927 1.611h-.293c-.147 0-1.464-.146-2.928-1.611l-.44.146-2.927 1.026c-1.464.586-2.489 1.904-2.489 3.516v2.05h17.86v-2.05c0-1.465-1.025-2.93-2.489-3.516z"/>
        </g>
    </g>
</svg>
