<svg xmlns="http://www.w3.org/2000/svg" width="318" height="205" viewBox="0 0 318 205">
    <g fill="#FFF" fill-rule="nonzero">
        <path d="M314.63 102.772a2.917 2.917 0 0 0 2.919-2.915 2.917 2.917 0 0 0-2.919-2.915h-16.476V88.92a75.23 75.23 0 0 0 16.476 1.822 2.917 2.917 0 0 0 2.919-2.916 2.917 2.917 0 0 0-2.919-2.915c-38.235 0-69.341-31.07-69.341-69.26a2.917 2.917 0 0 0-2.919-2.915h-2.75v-9.82A2.917 2.917 0 0 0 236.703 0a2.917 2.917 0 0 0-2.919 2.915v9.822h-2.749a2.917 2.917 0 0 0-2.918 2.915c0 38.19-31.107 69.26-69.342 69.26s-69.341-31.07-69.341-69.26a2.917 2.917 0 0 0-2.92-2.915h-2.748V2.915A2.917 2.917 0 0 0 80.846 0a2.917 2.917 0 0 0-2.918 2.915v9.822h-2.749a2.917 2.917 0 0 0-2.919 2.915c0 38.19-31.106 69.26-69.341 69.26A2.917 2.917 0 0 0 0 87.827a2.917 2.917 0 0 0 2.919 2.915c5.661 0 11.176-.632 16.483-1.822v8.023H2.92A2.917 2.917 0 0 0 0 99.858a2.917 2.917 0 0 0 2.919 2.915H72.26v6.195H2.92A2.917 2.917 0 0 0 0 111.883a2.917 2.917 0 0 0 2.919 2.916H72.26v38.044h-2.036a2.917 2.917 0 0 0-2.92 2.916v20.894c-2.657.058-5.332-.873-7.403-2.81-6.26-5.858-16.069-5.858-22.33-.001-4.024 3.765-10.327 3.763-14.35 0a2.921 2.921 0 0 0-4.125.135 2.913 2.913 0 0 0 .135 4.12c6.26 5.858 16.07 5.857 22.33 0 4.023-3.763 10.326-3.764 14.35 0 6.261 5.858 16.07 5.857 22.33 0 4.024-3.763 10.326-3.764 14.349 0 6.262 5.858 16.07 5.857 22.33 0 4.024-3.763 10.326-3.764 14.35 0 6.261 5.858 16.07 5.857 22.33 0 4.023-3.763 10.326-3.765 14.35 0 6.261 5.857 16.068 5.858 22.33 0 4.023-3.764 10.326-3.763 14.35 0 6.26 5.858 16.069 5.857 22.329 0 4.024-3.764 10.327-3.763 14.35 0 6.26 5.858 16.07 5.857 22.33 0 4.024-3.764 10.326-3.763 14.35 0 3.13 2.93 7.147 4.393 11.165 4.393 4.017 0 8.034-1.464 11.165-4.392a2.913 2.913 0 0 0 .135-4.12 2.924 2.924 0 0 0-4.126-.136c-4.022 3.765-10.324 3.764-14.35 0-6.26-5.857-16.069-5.858-22.33 0-2.07 1.938-4.746 2.87-7.403 2.813v-20.896a2.917 2.917 0 0 0-2.919-2.916h-2.037V114.8h69.341a2.917 2.917 0 0 0 2.919-2.916 2.917 2.917 0 0 0-2.919-2.915H245.29v-6.195h69.341zm-22.314-5.83H278.75V81.624a74.756 74.756 0 0 0 13.565 5.741v9.577zM272.914 78.09v18.852h-13.566v-30.46a75.745 75.745 0 0 0 13.566 11.608zM253.51 59.325v37.617h-8.221V44.657a74.96 74.96 0 0 0 8.221 14.668zm-25.394 49.642H89.433v-6.195h138.683v6.195zm-150.018-90.4h5.497V152.84h-5.497V18.567zm102.994 78.375v-9.578a74.759 74.759 0 0 0 13.565-5.742v15.32h-13.565zm-5.837 0H161.69V90.68a75.085 75.085 0 0 0 13.565-1.76v8.022zm-19.403 0h-13.557V88.92a75.005 75.005 0 0 0 13.557 1.76v6.262zm-19.395 0h-13.565v-15.32a74.865 74.865 0 0 0 13.565 5.742v9.578zm97.496-78.375h5.498V152.84h-5.498V18.567zm-5.837 78.375h-8.22v-37.62a75.04 75.04 0 0 0 8.22-14.665v52.285zM214.059 66.48v30.463h-13.565V78.088a75.744 75.744 0 0 0 13.565-11.608zm-97.005 11.608v18.854H103.49V66.479a75.744 75.744 0 0 0 13.565 11.609zM97.651 59.32v37.62h-8.218V44.658a75.048 75.048 0 0 0 8.218 14.664zm-39.444 7.155v30.467H44.642V78.086a75.807 75.807 0 0 0 13.565-11.61zM25.24 87.364a74.764 74.764 0 0 0 13.565-5.744v15.322H25.24v-9.578zm38.805 9.578V59.316a75.044 75.044 0 0 0 8.215-14.659v52.285h-8.215zM74.25 173.84c-.35.329-.725.618-1.108.889v-16.056h15.41v11.081c-4.991-.966-10.351.391-14.302 4.086zm169.049 0c-3.95-3.695-9.31-5.054-14.303-4.086v-11.081h15.41v16.057c-.382-.271-.756-.56-1.107-.89zm-17.221-20.998a2.917 2.917 0 0 0-2.92 2.916v16.375a16.182 16.182 0 0 0-2.19 1.708c-4.022 3.765-10.325 3.764-14.349 0-6.26-5.857-16.07-5.858-22.33 0-4.024 3.765-10.326 3.763-14.35 0-6.26-5.858-16.07-5.857-22.33 0-4.023 3.765-10.326 3.763-14.35 0-6.26-5.857-16.068-5.857-22.33 0-4.022 3.763-10.326 3.763-14.349 0a16.216 16.216 0 0 0-2.19-1.707V155.76a2.917 2.917 0 0 0-2.919-2.916h-2.038V114.8h138.683v38.044h-2.038zM294.943 196.47c-4.029 3.713-10.34 3.713-14.372 0-6.27-5.777-16.095-5.777-22.366 0-4.028 3.713-10.34 3.713-14.371 0-6.27-5.777-16.095-5.777-22.366 0-4.028 3.713-10.34 3.713-14.371 0-6.27-5.777-16.095-5.777-22.366 0-4.03 3.713-10.342 3.711-14.371 0-6.27-5.777-16.095-5.775-22.365 0-4.03 3.713-10.343 3.712-14.372 0-6.27-5.777-16.094-5.776-22.365 0-4.03 3.712-10.342 3.711-14.372 0-6.27-5.777-16.093-5.776-22.365 0-4.03 3.712-10.342 3.711-14.372 0-6.27-5.777-16.094-5.776-22.365 0-4.03 3.713-10.343 3.713-14.372 0a2.958 2.958 0 0 0-4.132.134 2.843 2.843 0 0 0 .135 4.064c6.27 5.776 16.094 5.777 22.365 0 4.03-3.712 10.342-3.714 14.372 0 6.271 5.776 16.095 5.777 22.366 0 4.03-3.714 10.341-3.713 14.37 0 6.272 5.776 16.095 5.777 22.366 0 4.03-3.712 10.342-3.714 14.372 0 6.27 5.776 16.095 5.777 22.364 0 4.03-3.713 10.342-3.714 14.372 0 6.271 5.775 16.093 5.777 22.365 0 4.03-3.713 10.342-3.714 14.372 0 6.271 5.777 16.095 5.776 22.365 0 4.03-3.713 10.342-3.714 14.371 0 6.272 5.777 16.095 5.776 22.366 0 4.03-3.713 10.342-3.714 14.372 0 3.135 2.887 7.159 4.332 11.183 4.332 4.023 0 8.047-1.445 11.182-4.332a2.843 2.843 0 0 0 .135-4.064 2.96 2.96 0 0 0-4.13-.134z"/>
    </g>
</svg>
