<svg xmlns="http://www.w3.org/2000/svg" width="80" height="78" viewBox="0 0 80 78">
    <g fill="none" fill-rule="nonzero">
        <g fill="#C7CBC7">
            <path d="M6.883 77.055H1.377c-.826 0-1.377-.56-1.377-1.4V50.449c0-.84.55-1.4 1.377-1.4h5.506c.826 0 1.377.56 1.377 1.4v25.206c0 .84-.551 1.4-1.377 1.4M52.312 7.04V1.439c0-.84.55-1.4 1.376-1.4h24.78c.826 0 1.376.56 1.376 1.4v5.6c0 .841-.55 1.401-1.376 1.401h-24.78c-.826 0-1.376-.56-1.376-1.4"/>
        </g>
        <path fill="#E8EDEE" d="M56.441 8.44v23.805c0 11.623-9.223 21.005-20.649 21.005H8.26v19.604h27.532c22.026 0 39.922-18.204 39.922-40.609V8.44H56.441z"/>
        <g fill="#C7CBC7">
            <path d="M24.78 68.653H8.26c-.826 0-1.377-.56-1.377-1.4 0-.84.55-1.4 1.377-1.4h16.52c.825 0 1.376.56 1.376 1.4 0 .84-.55 1.4-1.377 1.4M35.792 68.653h-4.13c-.826 0-1.376-.56-1.376-1.4 0-.84.55-1.4 1.376-1.4h4.13c1.79 0 3.58-.14 5.231-.42.689-.14 1.515.42 1.515 1.12.137.7-.413 1.54-1.102 1.54-1.79.42-3.717.56-5.644.56M50.935 65.012c-.55 0-.964-.28-1.239-.84-.275-.7 0-1.54.688-1.82 2.891-1.4 5.507-3.361 7.985-5.602.55-.56 1.376-.56 1.927.14.55.56.55 1.4-.138 1.961-2.615 2.38-5.506 4.481-8.535 6.021-.275.14-.55.14-.688.14M62.223 56.05c-.275 0-.688-.14-.826-.28-.55-.56-.688-1.4-.137-1.96 2.34-2.8 4.13-6.022 5.506-9.382.275-.7 1.101-1.12 1.79-.84.688.28 1.1 1.12.826 1.82-1.377 3.64-3.442 7.142-5.92 10.222-.413.28-.826.42-1.239.42M69.932 37.846h-.137c-.689-.14-1.24-.84-1.24-1.54.138-1.4.276-2.66.276-4.06v-2.801c0-.84.55-1.4 1.377-1.4.826 0 1.376.56 1.376 1.4v2.8c0 1.4-.137 2.94-.275 4.341 0 .7-.688 1.26-1.377 1.26M70.208 19.643c-.826 0-1.377-.56-1.377-1.4V14.04c0-.84.55-1.4 1.377-1.4.826 0 1.376.56 1.376 1.4v4.201c0 .84-.55 1.4-1.376 1.4M71.584 23.843c0-.84-.55-1.4-1.376-1.4-.826 0-1.377.56-1.377 1.4 0 .84.55 1.4 1.377 1.4.826 0 1.376-.56 1.376-1.4"/>
        </g>
        <g>
            <g transform="translate(6.423 .193)">
                <path fill="#FFC843" d="M30.84 49.696c0-7.283 13.126-11.425 13.126-27.418C43.966 9.974 34.136 0 22.01 0 9.885 0 .056 9.974.056 22.278c0 15.993 13.127 20.135 13.127 27.418h17.656z"/>
                <path fill="#FFC843" d="M30.84 49.696c0-7.283 13.126-11.425 13.126-27.418C43.966 9.974 34.136 0 22.01 0 9.885 0 .056 9.974.056 22.278c0 15.993 13.127 20.135 13.127 27.418h17.656z"/>
                <g fill="#D49000">
                    <path d="M17.758 50.931a1.227 1.227 0 0 1-1.217-1.235c0-6.404-1.817-9.182-3.74-12.124-1.786-2.732-3.633-5.557-3.633-11.059 0-.682.545-1.236 1.217-1.236.673 0 1.218.554 1.218 1.236 0 4.756 1.496 7.044 3.227 9.693 1.944 2.972 4.146 6.341 4.146 13.49 0 .682-.545 1.235-1.218 1.235zM26.263 50.931a1.227 1.227 0 0 1-1.218-1.235c0-7.149 2.202-10.518 4.146-13.49 1.731-2.65 3.227-4.937 3.227-9.693 0-.682.545-1.236 1.218-1.236.672 0 1.218.554 1.218 1.236 0 5.502-1.847 8.327-3.634 11.059-1.923 2.942-3.74 5.72-3.74 12.124 0 .682-.544 1.235-1.217 1.235z"/>
                </g>
                <path fill="#FFF" d="M25.982 32.213c-.369 0-.718-.17-.95-.462l-3.021-3.812-3.022 3.812c-.231.292-.58.462-.95.462-.368 0-.717-.17-.948-.462l-3.971-5.01a1.248 1.248 0 0 1 .186-1.737 1.206 1.206 0 0 1 1.712.188l3.022 3.813 3.022-3.813c.231-.291.58-.461.949-.461s.718.17.95.461l3.02 3.813 3.023-3.813a1.206 1.206 0 0 1 1.712-.188c.524.427.607 1.205.186 1.737l-3.97 5.01c-.232.292-.582.462-.95.462z"/>
                <path fill="#000" d="M12.39 46.594c.498.997.793 2.014.793 3.102h17.656c0-1.088.295-2.105.792-3.102h-19.24z" opacity=".1"/>
                <ellipse cx="22.011" cy="73.708" fill="#5C6670" rx="2.993" ry="3.037"/>
                <path fill="#000" d="M22.01 70.67c-1.653 0-2.993 1.36-2.993 3.037 0 .135.012.266.029.396a9.58 9.58 0 0 0 5.93 0 3.12 3.12 0 0 0 .028-.396c0-1.677-1.34-3.037-2.993-3.037z" opacity=".1"/>
                <ellipse cx="22.011" cy="64.715" fill="#333E48" rx="8.863" ry="8.993"/>
                <path fill="#000" d="M22.01 55.722c-4.894 0-8.862 4.026-8.862 8.993 0 .653.07 1.289.2 1.902h17.325c.13-.613.2-1.25.2-1.902 0-4.967-3.968-8.993-8.862-8.993z" opacity=".1"/>
                <path fill="#5C6670" d="M34.58 61.672c0 1.673-1.35 3.043-3 3.043H12.44c-1.649 0-2.998-1.37-2.998-3.043V52.22c0-1.674 1.35-3.043 2.999-3.043h19.14c1.649 0 2.998 1.37 2.998 3.043v9.45z"/>
                <g fill="#333E48">
                    <path d="M9.443 52.797H34.58v2.472H9.443zM9.443 58.625H34.58v2.472H9.443z"/>
                </g>
            </g>
        </g>
    </g>
</svg>
