<svg xmlns="http://www.w3.org/2000/svg" xmlns:xlink="http://www.w3.org/1999/xlink" width="110" height="110" viewBox="0 0 110 110">
    <defs>
        <circle id="b" cx="35" cy="35" r="35"/>
        <filter id="a" width="190%" height="190%" x="-45%" y="-40.7%" filterUnits="objectBoundingBox">
            <feOffset dy="3" in="SourceAlpha" result="shadowOffsetOuter1"/>
            <feGaussianBlur in="shadowOffsetOuter1" result="shadowBlurOuter1" stdDeviation="10"/>
            <feColorMatrix in="shadowBlurOuter1" values="0 0 0 0 0 0 0 0 0 0 0 0 0 0 0 0 0 0 0.16 0"/>
        </filter>
        <path id="c" d="M25.307 27.679c-.125-7.78-1.148-9.998-8.976-11.401 0 0-1.102 1.394-3.67 1.394-2.569 0-3.671-1.394-3.671-1.394C1.247 17.666.162 19.85.02 27.426c-.012.619-.018.651-.02.58l.001.817s1.864 3.732 12.66 3.732c10.795 0 12.66-3.732 12.66-3.732v-.605c-.002.045-.007-.041-.014-.539z"/>
        <path id="d" d="M12.66 16.278c3.814 0 6.906-3.644 6.906-8.14C19.566 3.645 18.551 0 12.66 0 6.77 0 5.755 3.644 5.755 8.139c0 4.495 3.092 8.139 6.905 8.139z"/>
        <path id="e" d="M16.871 18.396c-.082-5.279-.764-6.783-5.983-7.735 0 0-.735.947-2.447.947-1.713 0-2.448-.947-2.448-.947-5.162.942-5.885 2.424-5.98 7.563-.008.42-.012.442-.013.393v.555s1.243 2.531 8.44 2.531c7.198 0 8.44-2.531 8.44-2.531 0-.19-.003-.439-.009-.776z"/>
        <path id="f" d="M8.44 10.661c2.432 0 4.404-2.386 4.404-5.33S12.197 0 8.44 0C4.684 0 4.037 2.387 4.037 5.33c0 2.945 1.971 5.331 4.403 5.331z"/>
    </defs>
    <g fill="none" fill-rule="evenodd">
        <g transform="translate(20 17)">
            <use fill="#000" filter="url(#a)" xlink:href="#b"/>
            <use fill="#E53D48" xlink:href="#b"/>
        </g>
        <g fill-rule="nonzero">
            <g transform="translate(45.008 35)">
                <use fill="#FFC855" fill-rule="evenodd" xlink:href="#c"/>
                <path stroke="#E53D48" d="M24.82 28.267l.01.06c0 .037 0 .037.11.228l.1.088.423.065c.294-.233.294-.233.328-.311.032-.145.032-.145.03-.155l-.5-.024h-.5v.049zM.5 27.99v-.003l-.01-.063c.001-.044.001-.044-.304-.357l-.405.016-.182.153c-.034.05-.034.05-.065.119-.034.153-.034.153-.028.099.004-.081.008-.257.013-.538.154-8.186 1.717-10.257 9.383-11.632l.295-.052.185.235c.102.128.343.348.732.575.671.392 1.513.63 2.547.63 1.033 0 1.875-.238 2.546-.63.39-.227.63-.447.732-.575l.185-.235.295.052c7.732 1.387 9.253 3.459 9.387 11.886.004.231.007.384.01.466v.044c0-.01 0-.01-.007-.053 0-.036 0-.036-.21-.313l-.423-.065-.252.172c-.042.06-.042.06-.075.138-.031.14-.031.14-.028.135l1 .024v.722l-.053.105c-.28.562-1.044 1.34-2.5 2.088-2.346 1.205-5.81 1.921-10.607 1.921-4.798 0-8.261-.716-10.607-1.921-1.457-.749-2.22-1.526-2.5-2.088l-.053-.105v-.118l-.001-.816 1-.016z"/>
            </g>
            <g transform="translate(45.008 35)">
                <use fill="#FEE187" fill-rule="evenodd" xlink:href="#d"/>
                <path stroke="#E53D48" d="M12.66 16.778c-4.11 0-7.405-3.885-7.405-8.64C5.255 2.334 7.159-.5 12.66-.5c5.502 0 7.406 2.833 7.406 8.639 0 4.754-3.296 8.639-7.406 8.639z"/>
            </g>
            <g>
                <g transform="translate(39 47.017)">
                    <use fill="#FFC855" fill-rule="evenodd" xlink:href="#e"/>
                    <path stroke="#E53D48" d="M16.371 18.403zm-15.871.2v-.01l-.01-.063c.001-.044.001-.044-.302-.358l-.41.017-.182.154c-.034.05-.034.05-.063.119-.034.154-.034.154-.029.115.003-.054.005-.172.009-.362.104-5.624 1.196-7.098 6.39-8.046l.3-.054.185.24a1.7 1.7 0 0 0 .442.35c.422.25.953.403 1.61.403.658 0 1.19-.153 1.61-.403a1.7 1.7 0 0 0 .443-.35l.186-.24.298.054c5.24.956 6.304 2.43 6.394 8.219.007.462.01.619.01.784v.116l-.052.104c-.201.411-.735.964-1.738 1.489-1.59.831-3.926 1.322-7.15 1.322-3.225 0-5.561-.49-7.151-1.322-1.003-.525-1.536-1.078-1.738-1.489l-.051-.104v-.116l-.001-.553 1-.016z"/>
                </g>
                <g transform="translate(39 47.017)">
                    <use fill="#FEE187" fill-rule="evenodd" xlink:href="#f"/>
                    <path stroke="#E53D48" d="M8.44 11.161c-2.731 0-4.903-2.629-4.903-5.83C3.537 1.445 4.81-.5 8.44-.5s4.904 1.945 4.904 5.83c0 3.202-2.172 5.831-4.904 5.831z"/>
                </g>
            </g>
        </g>
    </g>
</svg>
