<?xml version="1.0" encoding="UTF-8"?>
<svg width="58px" height="82px" viewBox="0 0 58 82" version="1.1" xmlns="http://www.w3.org/2000/svg" xmlns:xlink="http://www.w3.org/1999/xlink">
    <!-- Generator: sketchtool 42 (36781) - http://www.bohemiancoding.com/sketch -->
    <title>CD8FC067-893B-4ADA-BF5F-549D3273972A</title>
    <desc>Created with sketchtool.</desc>
    <defs></defs>
    <g id="Public-Content" stroke="none" stroke-width="1" fill="none" fill-rule="evenodd">
        <g id="Landing-Page" transform="translate(-134.000000, -1147.000000)" fill-rule="nonzero">
            <g id="clipboard" transform="translate(134.000000, 1147.000000)">
                <g id="Layer_1">
                    <path d="M56.9168915,81.4479208 L1.04061765,81.4479208 C0.47045159,81.4479208 0.00993284982,80.9915187 0.00993284982,80.4264494 L0.00993284982,10.2274547 C0.00993284982,9.66238538 0.47045159,9.20598324 1.04061765,9.20598324 L56.938821,9.20598324 C57.508987,9.20598324 57.9695058,9.66238538 57.9695058,10.2274547 L57.9695058,80.4264494 C57.9475763,80.9915187 57.4870576,81.4479208 56.9168915,81.4479208 Z" id="Shape" fill="#324A5E"></path>
                    <polygon id="Shape" fill="#FFFFFF" points="5.71159345 13.3570693 5.71159345 70.4725362 44.1320141 70.4725362 44.1320141 62.4311653 52.2459157 62.4311653 52.2459157 13.3570693"></polygon>
                    <polygon id="Shape" fill="#E6E9EE" points="44.1320141 70.4725362 52.2459157 62.4311653 44.1320141 62.4311653"></polygon>
                    <path d="M33.5400831,6.90223915 L33.5400831,5.3156984 C33.5400831,2.81635339 31.5006429,0.795143945 28.9787546,0.795143945 C26.4568662,0.795143945 24.4174261,2.81635339 24.4174261,5.3156984 L24.4174261,6.90223915 L16.3693129,6.90223915 L16.3693129,16.1606824 L41.6101257,16.1606824 L41.6101257,6.90223915 L33.5400831,6.90223915 Z" id="Shape" fill="#FF7058"></path>
                    <ellipse id="Oval" fill="#FFD05B" cx="28.9787546" cy="5.33743184" rx="2.28066424" ry="2.26027723"></ellipse>
                    <rect id="Rectangle-path" fill="#84DBFF" x="12.1369264" y="27.8532704" width="5.21921239" height="2.39067784"></rect>
                    <rect id="Rectangle-path" fill="#E6E9EE" x="20.6016994" y="27.8532704" width="25.2188834" height="2.39067784"></rect>
                    <rect id="Rectangle-path" fill="#84DBFF" x="12.1369264" y="35.3078385" width="5.21921239" height="2.39067784"></rect>
                    <rect id="Rectangle-path" fill="#E6E9EE" x="20.6016994" y="35.3078385" width="25.2188834" height="2.39067784"></rect>
                    <rect id="Rectangle-path" fill="#84DBFF" x="12.1369264" y="42.7624067" width="5.21921239" height="2.39067784"></rect>
                    <rect id="Rectangle-path" fill="#E6E9EE" x="20.6016994" y="42.7624067" width="25.2188834" height="2.39067784"></rect>
                    <rect id="Rectangle-path" fill="#84DBFF" x="12.1369264" y="50.2169749" width="5.21921239" height="2.39067784"></rect>
                    <rect id="Rectangle-path" fill="#E6E9EE" x="20.6016994" y="50.2169749" width="25.2188834" height="2.39067784"></rect>
                </g>
            </g>
        </g>
    </g>
</svg>