<svg xmlns="http://www.w3.org/2000/svg" width="104" height="103" viewBox="0 0 104 103">
    <g fill="none" fill-rule="evenodd" transform="translate(2 2)">
        <ellipse cx="49.701" cy="49.385" fill="#068BFF" fill-rule="nonzero" stroke="#FFF" stroke-width="4.894" rx="45.464" ry="45.148"/>
        <ellipse cx="49.907" cy="49.592" stroke="#068BFF" stroke-width="2.447" rx="49.907" ry="49.592"/>
        <g fill-rule="nonzero">
            <path fill="#694B4B" d="M32.835 39.41c-8.514 0-7.57 10.28-7.53 17.732.001.28.149.534.392.68.944.564 3.535 1.885 7.14 1.885 3.604 0 6.194-1.32 7.138-1.886a.794.794 0 0 0 .393-.68c.038-7.45.983-17.73-7.531-17.73h-.002z"/>
            <path fill="#5A4146" d="M32.288 39.43c-7.919.442-7.021 10.427-6.983 17.712.001.28.149.534.392.68.944.564 3.535 1.885 7.14 1.885l2.151-14.956"/>
            <path fill="#694B4B" d="M32.835 39.41c-4.84 0-5.177 5.809-5.177 5.809 2.791-.468 4.505.7 7.33-.468l-2.153 14.956c3.605 0 6.195-1.32 7.139-1.886a.794.794 0 0 0 .393-.68c.038-7.45.983-17.73-7.532-17.73z"/>
            <path fill="#785550" d="M40.367 57.142c.034-6.403.73-14.89-4.476-17.151-.09.468-.255 1.776.172 2.623 1.076 2.138 2.153 2.138 3.228 3.74 1.076 5.875-2.056 12.11-3.095 12.96 1.842-.436 3.163-1.124 3.779-1.493a.794.794 0 0 0 .393-.68h-.001z"/>
            <path fill="#E6AF78" d="M40.987 58.761l-4.8-1.985c-.4-.165-.66-.554-.66-.986v-1.291h-5.38v1.29c0 .433-.262.82-.663.987l-4.799 1.985c-.6.247-.992.83-.993 1.48v2.137c0 .59.481 1.068 1.076 1.068h16.137c.594 0 1.075-.479 1.075-1.069V60.24a1.6 1.6 0 0 0-.993-1.478z"/>
            <path fill="#EFF2FA" d="M40.987 58.761l-4.64-1.92-3.51 1.505-3.512-1.504-4.64 1.92c-.6.247-.992.83-.993 1.478v2.138c0 .59.481 1.068 1.076 1.068h16.137c.594 0 1.075-.479 1.075-1.069V60.24a1.6 1.6 0 0 0-.993-1.478z"/>
            <path fill="#D29B6E" d="M35.526 54.5h-5.379v1.29c0 .432-.262.82-.663.986l-.75.31c5.737 1.453 6.792-2.587 6.792-2.587z"/>
            <g fill="#E4EAF6">
                <path d="M26.313 60.828l-2.159-1.705c-.289.293-.462.691-.462 1.117v2.138c0 .59.481 1.068 1.076 1.068h2.151v-1.367a1.6 1.6 0 0 0-.606-1.251zm15.668 1.549V60.24a1.59 1.59 0 0 0-.457-1.11l-2.164 1.698a1.6 1.6 0 0 0-.606 1.251v1.367h2.152c.594 0 1.075-.479 1.075-1.069zm-9.065 0h-.16a.455.455 0 0 1-.458-.454v-3.576h1.076v3.576a.455.455 0 0 1-.458.454z"/>
                <path d="M32.835 58.346l-3.077-2.292a.432.432 0 0 0-.617.104l-.608.906 1.887 2.625a.433.433 0 0 0 .62.085l1.797-1.428h-.002z"/>
                <path d="M32.835 58.346l3.08-2.292a.432.432 0 0 1 .616.104l.608.906-1.887 2.625a.433.433 0 0 1-.62.085l-1.797-1.428z"/>
            </g>
            <path fill="#F0C087" d="M35.526 44.217c-2.69 2.67-7.969.534-7.969 4.807l.334 3.148c.065.704.477 1.33 1.099 1.674l3.063 1.69a1.624 1.624 0 0 0 1.566 0l3.063-1.69a2.135 2.135 0 0 0 1.099-1.674l.385-3.738c.027-.266.033-.533.024-.8-.202-1.36-2.127-2.348-2.664-3.417z"/>
            <path fill="#E6AF78" d="M27.557 49.024l.334 3.148c.065.704.477 1.33 1.099 1.674l3.063 1.69c.338.186.725.234 1.095.162 0 0-1.544-.464-2.464-2.935-.28-.757-.672-4.763-.336-5.252.665-.968 4.37-1.068 5.466-2.863a3.005 3.005 0 0 1-.15-.201l-.011-.016a2.028 2.028 0 0 1-.128-.214c-2.688 2.67-7.968.534-7.968 4.807z"/>
            <path fill="#E4EAF6" d="M36.763 62.377h-1.399a.911.911 0 0 0-.914.908v.16h3.228v-.16a.911.911 0 0 0-.915-.908z"/>
            <path fill="#E6AF78" d="M69.587 56.278v-2.933H61.99v2.933l3.798 3.353z"/>
            <path fill="#EFF2FA" d="M75.46 57.65l-5.222-1.22a.841.841 0 0 1-.22-.087l-4.23 2.45-4.064-2.568a.842.842 0 0 1-.385.205l-5.222 1.22a1.68 1.68 0 0 0-1.302 1.632v3.282c0 .464.378.84.844.84h20.259a.841.841 0 0 0 .844-.84v-3.282c0-.777-.539-1.453-1.301-1.631h-.001z"/>
            <path fill="#D29B6E" d="M61.99 53.345v3.095c4.785 1.712 7.597-2.573 7.597-2.573v-.522H61.99z"/>
            <path fill="#F0C087" d="M60.302 43.706l.368 8.034c.034.75.404 1.446 1.01 1.897l1.744 1.3c.44.326.972.503 1.521.503h1.688c.547 0 1.08-.177 1.518-.503l1.746-1.3a2.51 2.51 0 0 0 1.01-1.897l.368-8.034H60.302z"/>
            <path fill="#E6AF78" d="M64.522 45.383c1.689 0 4.222-.42 4.822-1.677h-9.042l.368 8.034c.034.75.404 1.446 1.01 1.897l1.744 1.3c.44.326.972.503 1.521.503h.843c-.844 0-2.532-1.676-2.532-3.771v-5.03c0-.418.422-1.256 1.266-1.256z"/>
            <path fill="#E4EAF6" d="M73.662 60.683l2.737-2.44c.228.288.362.651.362 1.04v3.281a.841.841 0 0 1-.843.838h-2.954v-1.16c0-.596.254-1.161.7-1.56h-.002z"/>
            <path fill="#5B5D6E" d="M66.843 63.402h-2.11l.264-3.77h1.583z"/>
            <path fill="#515262" d="M66.843 58.793h-2.11v.241c0 .562.458 1.016 1.022 1.016h.066a1.019 1.019 0 0 0 1.022-1.016v-.24z"/>
            <g fill="#E4EAF6">
                <path d="M61.93 55.345l3.858 3.448s-1.08.541-2.414 1.633a.543.543 0 0 1-.838-.189l-1.812-3.959.573-.853a.424.424 0 0 1 .633-.08zM69.647 55.345l-3.859 3.448s1.08.541 2.414 1.633a.543.543 0 0 0 .838-.189l1.813-3.959-.574-.853a.424.424 0 0 0-.632-.08z"/>
            </g>
            <path fill="#785550" d="M68.347 40.93l.396 2.776c1.805.359 2.066 3.173 2.103 3.977a.818.818 0 0 0 .134.41l.69 1.06s-.237-1.754.844-2.932c0 0 .37-6.968-4.167-5.291z"/>
            <path fill="#F0C087" d="M72.093 48.975l-.477 1.893a.507.507 0 0 1-.996-.06l-.244-1.936a.87.87 0 0 1 .867-.975h.002c.569 0 .986.53.848 1.078z"/>
            <path fill="#694B4B" d="M60.706 40.18l.624.422c-2.822 2.07-2.295 5.619-2.295 5.619.845.838.845 2.933.845 2.933l.844-.838s-.326-2.422 1.266-3.352c1.478-.865 2.77-.42 4.089-.42 3.535 0 4.524-1.322 4.353-2.933-.09-.834-1.372-2.57-4.644-2.515-1.32.022-3.798.42-5.082 1.083z"/>
            <path fill="#5A4146" d="M60.46 44.178s-.448-1.755.87-3.576c-2.822 2.07-2.295 5.619-2.295 5.619.845.838.845 2.933.845 2.933l.844-.838s-.326-2.422 1.266-3.352c1.478-.865 2.77-.42 4.089-.42.574 0 1.075-.038 1.52-.104-2.721.09-4.326-1.956-7.139-.262z"/>
            <path fill="#E6AF78" d="M59.484 48.975l.477 1.893a.508.508 0 0 0 .996-.06l.244-1.936a.87.87 0 0 0-.867-.975h-.002a.869.869 0 0 0-.848 1.078z"/>
            <path fill="#E4EAF6" d="M70.853 62.564h-2.11a.841.841 0 0 0-.845.84h3.799a.84.84 0 0 0-.844-.84z"/>
            <path fill="#694B4B" d="M50.242 28.899c-14.473 0-12.868 17.477-12.803 30.143.003.479.256.91.668 1.156 1.604.96 6.009 3.204 12.135 3.204 6.128 0 10.532-2.244 12.137-3.204.41-.241.664-.68.667-1.156.066-12.666 1.671-30.143-12.804-30.143z"/>
            <path fill="#5A4146" d="M49.31 28.934c-13.462.75-11.936 17.724-11.87 30.107.002.478.255.91.667 1.157 1.604.96 6.009 3.204 12.135 3.204l3.659-25.423"/>
            <path fill="#694B4B" d="M50.242 28.899c-8.23 0-8.8 9.874-8.8 9.874 4.742-.794 7.657 1.191 12.459-.794l-3.659 25.424c6.128 0 10.532-2.245 12.137-3.205.41-.241.664-.68.667-1.156.066-12.666 1.671-30.143-12.804-30.143z"/>
            <path fill="#785550" d="M63.046 59.04c.057-10.882 1.24-25.308-7.61-29.154-.154.795-.433 3.018.293 4.461 1.83 3.632 3.658 3.632 5.487 6.355 1.83 9.988-3.494 20.59-5.263 22.033 3.133-.74 5.378-1.91 6.426-2.537.41-.241.664-.68.667-1.156v-.001z"/>
            <path fill="#E6AF78" d="M64.1 61.795l-8.16-3.375a1.815 1.815 0 0 1-1.125-1.676V54.55h-9.144v2.194c0 .734-.444 1.394-1.126 1.676l-8.16 3.376a2.724 2.724 0 0 0-1.687 2.514v3.633c0 1.003.819 1.816 1.829 1.816h27.432c1.01 0 1.83-.813 1.83-1.816V64.31a2.724 2.724 0 0 0-1.688-2.514z"/>
            <path fill="#B4E1FA" d="M64.1 61.795l-7.89-3.262-5.968 2.557-5.968-2.557-7.889 3.263a2.724 2.724 0 0 0-1.687 2.514v3.633c0 1.003.819 1.816 1.829 1.816h27.432c1.01 0 1.83-.813 1.83-1.816V64.31a2.724 2.724 0 0 0-1.688-2.514z"/>
            <path fill="#D29B6E" d="M54.815 54.55h-9.144v2.194c0 .734-.444 1.394-1.126 1.676l-1.275.527c9.752 2.47 11.545-4.397 11.545-4.397z"/>
            <g fill="#A0D2F0">
                <path d="M39.155 65.309l-3.671-2.899a2.709 2.709 0 0 0-.787 1.9v3.632c0 1.003.818 1.817 1.829 1.817h3.658v-2.323c0-.827-.378-1.61-1.03-2.127zm26.633 2.633V64.31c0-.72-.29-1.39-.775-1.89l-3.682 2.889a2.717 2.717 0 0 0-1.03 2.127v2.323h3.66c1.008 0 1.827-.813 1.827-1.817zm-15.546 0a.911.911 0 0 1-.914-.907v-5.944h1.83v5.944a.911.911 0 0 1-.916.907z"/>
                <path d="M50.242 61.09l-5.233-3.899a.734.734 0 0 0-1.047.18l-1.035 1.54 3.21 4.46a.737.737 0 0 0 1.052.145l3.053-2.426z"/>
                <path d="M50.242 61.09l5.235-3.899a.734.734 0 0 1 1.047.18l1.034 1.54-3.208 4.46a.735.735 0 0 1-1.053.145l-3.055-2.426z"/>
            </g>
            <path fill="#F0C087" d="M54.815 37.07c-4.573 4.54-13.545.909-13.545 8.172l.568 5.352a3.63 3.63 0 0 0 1.866 2.846l5.207 2.87a2.758 2.758 0 0 0 2.664 0l5.207-2.87a3.63 3.63 0 0 0 1.866-2.846l.655-6.356c.047-.452.058-.906.043-1.359-.344-2.312-3.616-3.992-4.53-5.808z"/>
            <path fill="#E6AF78" d="M41.269 45.242l.569 5.352a3.63 3.63 0 0 0 1.866 2.846l5.207 2.87c.574.319 1.234.4 1.861.277 0 0-2.625-.789-4.187-4.988-.478-1.287-1.143-8.097-.57-8.93 1.129-1.644 7.429-1.815 9.29-4.867a5.075 5.075 0 0 1-.255-.34l-.02-.028a3.425 3.425 0 0 1-.215-.363c-4.573 4.54-13.545.908-13.545 8.171h-.001z"/>
            <path fill="#A0D2F0" d="M57.558 67.942H53.9a.911.911 0 0 0-.915.908v.909h5.488v-.909a.911.911 0 0 0-.915-.908z"/>
        </g>
    </g>
</svg>
