<svg xmlns="http://www.w3.org/2000/svg" width="51" height="39" viewBox="0 0 51 39">
    <g fill="none" fill-rule="nonzero">
        <path fill="#694B4B" d="M9.397 10.003c-8.038 0-7.146 9.705-7.11 16.739.002.265.141.505.371.642.89.532 3.337 1.779 6.74 1.779 3.402 0 5.848-1.246 6.738-1.78a.75.75 0 0 0 .371-.642c.037-7.033.928-16.738-7.11-16.738z"/>
        <path fill="#5A4146" d="M8.88 10.022c-7.476.417-6.628 9.843-6.592 16.72 0 .265.14.505.37.642.89.532 3.337 1.779 6.74 1.779l2.03-14.118"/>
        <path fill="#694B4B" d="M9.397 10.003c-4.57 0-4.887 5.484-4.887 5.484 2.634-.442 4.252.661 6.919-.442L9.397 29.163c3.402 0 5.848-1.246 6.738-1.78a.75.75 0 0 0 .371-.642c.037-7.033.928-16.738-7.11-16.738z"/>
        <path fill="#785550" d="M16.506 26.742c.033-6.044.69-14.055-4.225-16.19-.085.441-.241 1.676.163 2.476 1.016 2.018 2.032 2.018 3.047 3.53 1.015 5.546-1.941 11.432-2.922 12.235 1.739-.412 2.986-1.062 3.567-1.41a.75.75 0 0 0 .371-.642z"/>
        <path fill="#E6AF78" d="M17.092 28.27l-4.53-1.874a1.008 1.008 0 0 1-.625-.93v-1.22H6.859v1.22c0 .407-.247.774-.626.93l-4.53 1.875a1.513 1.513 0 0 0-.938 1.396v2.018c0 .556.455 1.008 1.016 1.008h15.233c.56 0 1.015-.452 1.015-1.01v-2.016c0-.61-.369-1.162-.937-1.395v-.001z"/>
        <path fill="#EFF2FA" d="M17.092 28.27l-4.38-1.812-3.314 1.421-3.315-1.42-4.38 1.813a1.513 1.513 0 0 0-.938 1.395v2.018c0 .556.455 1.008 1.016 1.008h15.233c.56 0 1.015-.452 1.015-1.01v-2.016c0-.61-.369-1.162-.937-1.395v-.001z"/>
        <path fill="#D29B6E" d="M11.937 24.248H6.859v1.218c0 .407-.247.774-.626.93l-.707.293c5.415 1.372 6.41-2.442 6.41-2.442z"/>
        <g fill="#E4EAF6">
            <path d="M3.24 30.221l-2.038-1.61a1.504 1.504 0 0 0-.437 1.056v2.018c0 .556.455 1.008 1.016 1.008h2.03v-1.29c0-.46-.21-.894-.571-1.182zm14.79 1.463v-2.017c0-.4-.161-.773-.431-1.05l-2.043 1.604a1.511 1.511 0 0 0-.572 1.182v1.29h2.031c.56 0 1.015-.452 1.015-1.01zm-8.557 0h-.152a.43.43 0 0 1-.431-.429V27.88h1.015v3.375a.43.43 0 0 1-.432.429z"/>
            <path d="M9.397 27.879L6.49 25.715a.408.408 0 0 0-.582.098l-.574.855 1.782 2.478a.408.408 0 0 0 .584.08l1.697-1.347h-.001zM9.397 27.879l2.906-2.164a.408.408 0 0 1 .582.098l.575.855-1.782 2.478a.409.409 0 0 1-.585.08L9.397 27.88z"/>
        </g>
        <path fill="#F0C087" d="M11.937 14.54c-2.54 2.522-7.523.505-7.523 4.539l.315 2.971c.062.665.45 1.256 1.038 1.58l2.89 1.596c.461.253 1.02.253 1.48 0l2.89-1.596a2.016 2.016 0 0 0 1.038-1.58l.363-3.529c.026-.25.031-.502.023-.754-.19-1.284-2.007-2.217-2.514-3.226z"/>
        <path fill="#E6AF78" d="M4.414 19.079l.315 2.971c.062.665.45 1.256 1.038 1.58l2.89 1.596c.32.175.685.22 1.035.153 0 0-1.458-.438-2.326-2.77-.265-.715-.635-4.497-.317-4.959.627-.913 4.126-1.008 5.16-2.702a2.837 2.837 0 0 1-.142-.19l-.01-.015a1.914 1.914 0 0 1-.121-.202c-2.538 2.52-7.522.504-7.522 4.538z"/>
        <path fill="#E4EAF6" d="M13.104 31.684h-1.32a.86.86 0 0 0-.863.857v.15h3.047v-.15a.86.86 0 0 0-.864-.857z"/>
        <path fill="#E6AF78" d="M44.09 25.926v-2.768h-7.172v2.768l3.586 3.166z"/>
        <path fill="#EFF2FA" d="M49.634 27.222l-4.93-1.152a.794.794 0 0 1-.206-.082L40.504 28.3l-3.837-2.425a.795.795 0 0 1-.363.194l-4.93 1.152a1.585 1.585 0 0 0-1.228 1.54v3.099c0 .437.356.792.796.792h19.125a.794.794 0 0 0 .797-.792v-3.099c0-.733-.51-1.372-1.23-1.54z"/>
        <path fill="#D29B6E" d="M36.918 23.158v2.921c4.518 1.616 7.172-2.428 7.172-2.428v-.493h-7.172z"/>
        <path fill="#F0C087" d="M35.325 14.058l.347 7.585c.032.708.382 1.365.954 1.79l1.647 1.227c.414.309.917.475 1.435.475h1.593a2.4 2.4 0 0 0 1.434-.475l1.647-1.226a2.37 2.37 0 0 0 .954-1.791l.347-7.585H35.325z"/>
        <path fill="#E6AF78" d="M39.309 15.641c1.594 0 3.985-.395 4.551-1.583h-8.535l.347 7.585c.032.708.382 1.365.954 1.79l1.647 1.227c.414.309.917.475 1.435.475h.796c-.797 0-2.39-1.582-2.39-3.56v-4.748c0-.395.398-1.186 1.195-1.186z"/>
        <path fill="#E4EAF6" d="M47.937 30.085l2.583-2.303c.216.272.343.614.343.98v3.099a.794.794 0 0 1-.796.79h-2.79v-1.095c0-.562.24-1.096.661-1.471z"/>
        <path fill="#5B5D6E" d="M41.5 32.652h-1.992l.25-3.56h1.493z"/>
        <path fill="#515262" d="M41.5 28.3h-1.992v.229c0 .53.432.958.965.958h.062a.962.962 0 0 0 .965-.958V28.3z"/>
        <g fill="#E4EAF6">
            <path d="M36.862 25.046l3.642 3.255s-1.02.51-2.279 1.54a.513.513 0 0 1-.79-.177l-1.711-3.738.54-.805a.4.4 0 0 1 .598-.075z"/>
            <path d="M44.146 25.046l-3.642 3.255s1.02.51 2.28 1.54a.512.512 0 0 0 .79-.177l1.71-3.738-.54-.805a.4.4 0 0 0-.598-.075z"/>
        </g>
        <path fill="#785550" d="M42.92 11.438l.373 2.62c1.705.34 1.95 2.996 1.986 3.755.007.137.05.27.126.386l.65 1.002s-.222-1.656.798-2.769c0 0 .35-6.577-3.933-4.994z"/>
        <path fill="#F0C087" d="M46.455 19.032l-.45 1.787a.479.479 0 0 1-.94-.056l-.23-1.828a.821.821 0 0 1 .818-.92h.002a.82.82 0 0 1 .8 1.017z"/>
        <path fill="#694B4B" d="M35.706 10.729l.59.4c-2.665 1.953-2.167 5.303-2.167 5.303.797.791.797 2.77.797 2.77l.798-.792s-.309-2.286 1.194-3.164c1.396-.817 2.615-.396 3.86-.396 3.337 0 4.271-1.249 4.11-2.77-.085-.787-1.296-2.425-4.384-2.373-1.246.02-3.586.396-4.798 1.022z"/>
        <path fill="#5A4146" d="M35.475 14.504s-.424-1.657.82-3.375c-2.664 1.953-2.166 5.303-2.166 5.303.797.791.797 2.77.797 2.77l.798-.792s-.309-2.286 1.194-3.164c1.396-.817 2.615-.396 3.86-.396a9.78 9.78 0 0 0 1.436-.098c-2.57.085-4.084-1.847-6.74-.248z"/>
        <path fill="#E6AF78" d="M34.553 19.032l.45 1.787a.48.48 0 0 0 .94-.056l.23-1.828a.821.821 0 0 0-.818-.92h-.002a.82.82 0 0 0-.8 1.017z"/>
        <path fill="#E4EAF6" d="M45.285 31.86h-1.992a.794.794 0 0 0-.797.793h3.586a.793.793 0 0 0-.797-.792z"/>
        <path fill="#694B4B" d="M25.829.08C12.166.08 13.68 16.58 13.743 28.536c.003.451.24.858.63 1.09 1.514.907 5.672 3.026 11.456 3.026s9.942-2.119 11.457-3.025c.387-.228.626-.642.63-1.091C37.976 16.579 39.492.08 25.828.08z"/>
        <path fill="#5A4146" d="M24.948.114c-12.707.707-11.267 16.73-11.205 28.42.003.452.24.86.63 1.093 1.514.906 5.672 3.025 11.456 3.025l3.453-24"/>
        <path fill="#694B4B" d="M25.829.08c-7.77 0-8.309 9.322-8.309 9.322 4.478-.75 7.23 1.124 11.762-.75l-3.453 24c5.784 0 9.942-2.119 11.457-3.025.387-.228.626-.642.63-1.091C37.976 16.579 39.492.08 25.828.08z"/>
        <path fill="#785550" d="M37.915 28.535c.054-10.274 1.17-23.892-7.183-27.523-.146.751-.41 2.85.276 4.212 1.727 3.428 3.454 3.428 5.18 5.999 1.727 9.429-3.299 19.436-4.968 20.8 2.958-.7 5.077-1.805 6.066-2.396.387-.228.626-.642.63-1.091v-.001z"/>
        <path fill="#E6AF78" d="M38.911 31.135l-7.703-3.187a1.714 1.714 0 0 1-1.062-1.582v-2.071h-8.633v2.071c0 .693-.419 1.316-1.062 1.582l-7.703 3.188a2.571 2.571 0 0 0-1.593 2.373v3.43a1.72 1.72 0 0 0 1.726 1.713h25.896a1.72 1.72 0 0 0 1.727-1.714V33.51a2.571 2.571 0 0 0-1.593-2.373v-.001z"/>
        <path fill="#B4E1FA" d="M38.911 31.135l-7.448-3.08-5.634 2.414-5.634-2.414-7.447 3.08a2.571 2.571 0 0 0-1.593 2.374v3.43a1.72 1.72 0 0 0 1.726 1.713h25.896a1.72 1.72 0 0 0 1.727-1.714V33.51a2.571 2.571 0 0 0-1.593-2.373v-.001z"/>
        <path fill="#D29B6E" d="M30.146 24.295h-8.633v2.071c0 .693-.419 1.316-1.062 1.582l-1.204.498c9.206 2.331 10.899-4.151 10.899-4.151z"/>
        <g fill="#A0D2F0">
            <path d="M15.362 34.452l-3.466-2.737a2.557 2.557 0 0 0-.742 1.794v3.428a1.72 1.72 0 0 0 1.726 1.715h3.454V36.46c0-.782-.358-1.52-.972-2.008zm25.142 2.485V33.51a2.56 2.56 0 0 0-.732-1.784l-3.475 2.727a2.565 2.565 0 0 0-.972 2.008v2.192h3.453a1.72 1.72 0 0 0 1.726-1.715zm-14.675 0a.86.86 0 0 1-.863-.856v-5.61h1.726v5.61a.86.86 0 0 1-.863.856z"/>
            <path d="M25.829 30.47l-4.94-3.681a.693.693 0 0 0-.99.168l-.976 1.454 3.03 4.212c.23.319.683.381.994.136l2.882-2.29z"/>
            <path d="M25.829 30.47l4.941-3.681a.693.693 0 0 1 .99.168l.975 1.454-3.029 4.212a.694.694 0 0 1-.994.136l-2.883-2.29z"/>
        </g>
        <path fill="#F0C087" d="M30.146 7.795c-4.317 4.285-12.787.857-12.787 7.714l.536 5.051a3.427 3.427 0 0 0 1.762 2.687l4.915 2.71a2.604 2.604 0 0 0 2.515 0l4.915-2.71a3.427 3.427 0 0 0 1.762-2.687l.618-5.999c.044-.427.055-.855.04-1.283-.324-2.183-3.413-3.769-4.276-5.483z"/>
        <path fill="#E6AF78" d="M17.358 15.509l.537 5.051a3.427 3.427 0 0 0 1.762 2.687l4.915 2.71c.542.3 1.165.378 1.757.262 0 0-2.478-.745-3.953-4.71-.451-1.215-1.079-7.643-.539-8.429 1.066-1.553 7.014-1.713 8.772-4.595a4.79 4.79 0 0 1-.241-.321l-.02-.026a3.234 3.234 0 0 1-.202-.343c-4.317 4.285-12.787.857-12.787 7.714h-.001z"/>
        <path fill="#A0D2F0" d="M32.735 36.937H29.28a.86.86 0 0 0-.863.858v.857h5.18v-.857a.86.86 0 0 0-.863-.858z"/>
    </g>
</svg>
