<svg xmlns="http://www.w3.org/2000/svg" width="324" height="315" viewBox="0 0 324 315">
    <defs>
        <filter id="a" width="106.3%" height="109.9%" x="-3.1%" y="-4.9%" filterUnits="objectBoundingBox">
            <feOffset dx="2" dy="2" in="SourceAlpha" result="shadowOffsetOuter1"/>
            <feColorMatrix in="shadowOffsetOuter1" result="shadowMatrixOuter1" values="0 0 0 0 0.0470588235 0 0 0 0 0.109803922 0 0 0 0 0.2 0 0 0 0.12 0"/>
            <feMerge>
                <feMergeNode in="shadowMatrixOuter1"/>
                <feMergeNode in="SourceGraphic"/>
            </feMerge>
        </filter>
    </defs>
    <g fill="none" fill-rule="evenodd">
        <path stroke="#66788C" stroke-dasharray="1,40" stroke-linecap="round" stroke-opacity=".2" stroke-width="10" d="M82.295 232.205c39.178 48.381 110.159 55.842 158.54 16.663 48.38-39.178 55.841-110.158 16.663-158.54-39.178-48.38-110.159-55.84-158.54-16.663-48.381 39.178-55.841 110.16-16.663 158.54z"/>
        <g fill-rule="nonzero">
            <path fill="#FF9A00" d="M270.429 218.615c7.39 17.885 15.094 28.5 15.581 29.16l33.17 35.572a167.638 167.638 0 0 1-16.898 18.264 169.197 169.197 0 0 1-15.33 12.699l-28.872-30.96c-1.163-1.248-2.783-1.935-4.438-1.886-6.11.183-15.87.743-20.839.847-4.402.092-7.498-1.37-9.01-3.896-.675-1.123-1.04-2.458-1.06-3.972-.027-1.592.602-3.067 1.813-4.26 1.947-1.92 5.205-2.929 9.141-2.837 1.977.044 5.593-.061 8.18-.154-5.05-3.99-17.5-13.889-21.757-17.818-5.467-5.048-4.705-8.832-3.103-11.112.708-1.001 1.783-1.72 3.027-2.024 1.563-.375 4.147-.285 7.58 2.273a369.917 369.917 0 0 0 5.464 3.963c3.802 2.716 7.914 5.595 9.525 6.72.11.078.227.105.31.097a.172.172 0 0 0 .113-.034c.057-.053.087-.306-.119-.527l-18.139-19.451c-2.226-2.388-2.935-4.459-2.918-6.143.02-2.274 1.364-3.823 2.03-4.444l.02-.02c2.783-2.601 7.149-1.975 10.385 1.487l8.188 8.78 6.287 6.75 3.875 4.157c.187.2.417.178.45.147.024-.022.06-.179-.042-.354a93.873 93.873 0 0 0-.514-.86 398.48 398.48 0 0 0-3.031-4.904c-1.21-1.932-2.519-4.004-3.67-5.817a625.345 625.345 0 0 0-2.75-4.302c-.945-1.451-1.677-2.766-2.187-3.965a15.607 15.607 0 0 1-.446-1.162c-.563-1.711-.627-3.165-.223-4.425.392-1.209 1.209-2.19 2.436-2.909 4.521-2.644 7.41 1.594 10.465 6.076 1.581 2.314 3.475 5.225 5.216 7.93 1.23 1.92 2.384 3.737 3.288 5.155.503.8.94 1.488 1.286 2.022.042.07.081.136.125.2.025.034.05.069.075.096.152.155.359.181.436.142.02-.012.07-.13.001-.292-.67-1.63-1.81-4.425-2.957-7.357-1.173-3.009-2.36-6.147-3.05-8.295-.944-2.926-.9-5.273.126-6.983.647-1.081 1.663-1.841 2.937-2.217 4.329-1.254 6.313 2.34 9.823 10.843z"/>
            <path fill="#E67500" d="M271.401 218.259c7.275 17.873 14.923 28.455 15.406 29.113l33.01 35.4a171.92 171.92 0 0 1-16.332 17.717l-34.916-37.443-6.1-6.55-36.237-38.859c2.716-1.296 6.196-.405 8.877 2.461l18.261 19.591c.189.202.42.179.453.148.025-.023.059-.176-.042-.358-1.821-3.123-8.083-13.074-9.88-15.841-2.684-4.146-3.57-7.18-2.785-9.558.4-1.22 1.23-2.206 2.468-2.937 4.56-2.687 7.426 1.539 10.457 6.008 1.948 2.863 4.381 6.659 6.39 9.825.753 1.195 1.45 2.296 2.04 3.226.499.798.931 1.485 1.275 2.017.042.07.08.137.123.2.025.034.05.068.075.096.151.154.359.178.436.138.02-.012.067-.126.004-.292a527.139 527.139 0 0 1-3.275-8.306c-1.03-2.701-2.023-5.422-2.628-7.34-.925-2.926-.862-5.28.181-7.003.66-1.088 1.685-1.866 2.966-2.246 1.277-.377 2.35-.338 3.311.124 2.324 1.11 4.023 4.66 6.462 10.669z"/>
        </g>
        <g fill-rule="nonzero">
            <path fill="#FFDCA8" d="M105.553 64.96c-.459 1.245-1.284 2.203-2.407 2.77-1.776.897-4.126.765-6.99-.4-2.103-.849-5.163-2.271-8.096-3.67a486.724 486.724 0 0 1-7.163-3.508c-.158-.08-.279-.039-.292-.02-.044.074-.032.283.113.446.026.028.06.055.093.083.06.048.123.092.19.14.512.386 1.172.874 1.939 1.437 1.359 1.01 3.1 2.3 4.94 3.673 2.592 1.944 5.38 4.056 7.59 5.81 4.283 3.39 8.333 6.596 5.397 10.918-.8 1.174-1.833 1.917-3.067 2.217-1.286.31-2.735.137-4.41-.554-.366-.157-.745-.33-1.132-.533-1.166-.6-2.433-1.43-3.823-2.483-.836-.629-2.345-1.76-4.123-3.073a1107.728 1107.728 0 0 0-6.499-4.777 404.998 404.998 0 0 0-3.784-2.726 95.396 95.396 0 0 0-.827-.579c-.169-.115-.327-.09-.352-.068-.032.03-.069.259.12.46l3.903 4.186 6.341 6.793 8.247 8.844c3.252 3.495 3.595 7.906.813 10.494l-.02.019c-.664.62-2.3 1.846-4.575 1.696-1.685-.11-3.71-.973-5.952-3.378L63.455 79.583c-.207-.222-.462-.211-.519-.158a.171.171 0 0 0-.04.11.493.493 0 0 0 .076.317c1.02 1.696 3.632 6.023 6.102 10.027a375.992 375.992 0 0 0 3.607 5.76c2.334 3.625 2.258 6.214 1.78 7.75-.383 1.22-1.172 2.242-2.219 2.873-2.383 1.431-6.216 1.91-10.908-3.935-3.653-4.55-12.743-17.74-16.404-23.087-.26 2.579-.6 6.185-.684 8.166-.164 3.942-1.384 7.124-3.428 8.927-1.272 1.12-2.788 1.639-4.378 1.493-1.512-.135-2.823-.6-3.902-1.358-2.427-1.702-3.689-4.906-3.311-9.3.426-4.96 1.618-14.677 2.197-20.772.157-1.65-.425-3.322-1.596-4.578L.746 30.63a167.039 167.039 0 0 1 13.69-14.375A165.512 165.512 0 0 1 33.792.73l33.413 35.83c.628.537 10.742 9.036 28.144 17.766 8.274 4.146 11.738 6.4 10.204 10.634z"/>
            <path fill="#FFC56E" d="M105.93 60.548c.398.995.367 2.07-.093 3.317-.464 1.252-1.308 2.22-2.44 2.797-1.789.914-4.144.802-7.008-.339-1.876-.747-4.53-1.942-7.16-3.17a533.09 533.09 0 0 1-8.085-3.89c-.162-.075-.28-.036-.292-.018-.046.075-.035.284.11.446a.982.982 0 0 0 .091.082c.06.048.124.092.19.139.51.382 1.168.866 1.933 1.423.89.66 1.944 1.437 3.09 2.278 3.031 2.242 6.664 4.955 9.398 7.114 4.266 3.36 8.301 6.538 5.318 10.893-.812 1.183-1.852 1.94-3.096 2.249-2.428.607-5.401-.504-9.368-3.493-2.647-2-12.18-8.996-15.18-11.048-.175-.114-.33-.091-.355-.068-.033.03-.072.26.118.463l18.379 19.7c2.688 2.892 3.35 6.434 1.877 9.052l-36.452-39.09-6.145-6.582-35.124-37.666A169.961 169.961 0 0 1 34.406.135l33.208 35.61c.626.532 10.698 8.959 28.079 17.555 5.844 2.883 9.28 4.844 10.236 7.248z"/>
        </g>
        <g fill-rule="nonzero">
            <path fill="#FFC473" d="M77.749 249.072c.026.029.2.051.401-.076.283-.18.618-.392.993-.636a786.3 786.3 0 0 0 4.556-2.995c.364-.24.732-.49 1.108-.742 2.238-1.483 4.634-3.09 6.732-4.504a858.34 858.34 0 0 0 4.98-3.375c1.677-1.16 3.19-2.065 4.554-2.726.458-.229.895-.422 1.324-.592 1.933-.764 3.536-.967 4.891-.633 1.297.32 2.305 1.122 2.985 2.4 2.513 4.68-2.405 8.204-7.61 11.926-2.687 1.925-6.06 4.244-9.192 6.379-2.227 1.51-4.325 2.924-5.966 4.034a252.38 252.38 0 0 0-2.34 1.578c-.08.052-.157.101-.23.154-.045.026-.081.06-.114.09-.188.183-.235.403-.194.487.007.024.136.064.32-.024a658.54 658.54 0 0 1 8.362-3.868c3.414-1.548 6.978-3.113 9.4-4.056 3.309-1.283 5.89-1.442 7.682-.476 1.133.61 1.88 1.648 2.182 3.002.995 4.599-3.133 7.08-12.806 11.651-20.346 9.625-32.714 18.95-33.484 19.538l-27.635 25.77a143.685 143.685 0 0 1-18.636-16.797 144.943 144.943 0 0 1-12.623-15.555l22.187-20.69c1.476-1.376 2.37-3.197 2.467-4.999.337-6.636.582-17.214.906-22.614.283-4.79 2.166-8.28 5.077-10.154 1.304-.833 2.806-1.348 4.47-1.509 1.76-.165 3.33.39 4.533 1.599 1.94 1.958 2.769 5.413 2.32 9.707-.222 2.156-.426 6.083-.551 8.891 4.833-5.853 16.836-20.279 21.538-25.26 6.037-6.401 10.133-5.901 12.502-4.358 1.048.682 1.745 1.79 1.969 3.117.272 1.665-.052 4.49-3.175 8.45-1.3 1.655-3.04 3.926-4.841 6.302-3.327 4.38-6.86 9.11-8.245 10.96a.665.665 0 0 0-.134.347c-.002.055.012.103.028.12.057.06.333.07.594-.173l23.015-21.461c2.83-2.64 5.172-3.593 7.017-3.724h.008a5.82 5.82 0 0 1 4.73 1.835c2.62 2.8 1.545 7.617-2.553 11.438l-23.292 21.72c-.236.22-.24.47-.21.502z"/>
            <path fill="#FFAA20" d="M77.779 249.84c.023.025.189.048.398-.077 3.596-2.257 15.095-9.948 18.298-12.139 4.802-3.287 8.219-4.517 10.768-3.872 1.307.328 2.32 1.146 3.012 2.433 2.559 4.719-2.34 8.213-7.525 11.903-3.322 2.372-7.717 5.349-11.382 7.816l-3.722 2.504c-.922.613-1.716 1.144-2.332 1.564-.08.052-.157.1-.23.152-.044.026-.08.06-.113.09-.186.182-.231.402-.19.487.007.024.133.061.321-.021 2.044-.955 5.73-2.652 9.43-4.294 3.063-1.356 6.141-2.68 8.304-3.507 3.306-1.259 5.892-1.396 7.696-.412 1.141.622 1.903 1.666 2.213 3.031.299 1.353.163 2.524-.43 3.61-1.425 2.627-5.482 4.788-12.306 7.973-20.31 9.484-32.631 18.732-33.395 19.32l-27.478 25.624a147.292 147.292 0 0 1-18.074-16.22l29.899-27.881 7.744-7.214 45.947-42.846c1.188 2.843-.097 6.708-3.49 9.873l-23.16 21.597c-.24.223-.234.473-.203.506z"/>
        </g>
        <g fill-rule="nonzero">
            <path fill="#9A4C00" d="M307.654 22.907a143.46 143.46 0 0 1 15.453 19.765l-27.68 25.811c-.641.729-10.824 12.434-21.87 32.082-5.247 9.342-8.016 13.292-12.537 11.981-1.33-.395-2.314-1.212-2.843-2.385-.837-1.857-.496-4.422 1.018-7.638 1.113-2.352 2.927-5.802 4.713-9.104 1.74-3.22 3.454-6.294 4.453-8.08.1-.179.07-.31.046-.32-.081-.046-.304-.014-.5.161-.032.03-.069.065-.098.107-.058.07-.112.143-.17.22a253.17 253.17 0 0 0-1.74 2.227c-1.224 1.562-2.783 3.558-4.45 5.677-2.351 2.981-4.905 6.188-7.017 8.738-4.083 4.94-7.948 9.606-12.444 6.774-1.227-.767-1.958-1.829-2.185-3.145-.237-1.377.078-2.963.977-4.84.2-.416.424-.84.684-1.28.757-1.318 1.768-2.765 3.044-4.36.76-.962 2.129-2.696 3.721-4.739 1.56-1.996 3.334-4.278 4.973-6.41.277-.358.554-.708.819-1.054a788.732 788.732 0 0 0 3.312-4.342c.269-.358.505-.678.704-.948.141-.193.131-.367.105-.395-.03-.033-.28-.046-.516.175l-23.33 21.755c-4.105 3.828-8.989 4.568-11.6 1.76a5.816 5.816 0 0 1-1.497-4.849v-.008c.26-1.833 1.379-4.106 4.213-6.75l23.052-21.495c.261-.244.27-.52.214-.582-.016-.016-.062-.034-.118-.036a.667.667 0 0 0-.355.11c-1.945 1.256-6.918 4.456-11.524 7.475-2.5 1.635-4.89 3.215-6.635 4.398-4.174 2.845-7.017 2.974-8.66 2.587-1.31-.315-2.366-1.088-2.973-2.18-1.373-2.473-1.583-6.595 5.235-12.181 5.304-4.35 20.555-15.338 26.74-19.76-2.813-.069-6.748-.137-8.917-.064-4.318.152-7.709-.913-9.527-2.986-1.122-1.285-1.565-2.89-1.276-4.635.278-1.65.898-3.115 1.822-4.36 2.077-2.776 5.695-4.415 10.496-4.367 5.415.05 15.993.535 22.642.655 1.805.029 3.686-.739 5.164-2.117l22.223-20.723a144.713 144.713 0 0 1 14.639 13.675z"/>
            <path fill="#703700" d="M308.709 24.127a147.06 147.06 0 0 1 14.917 19.164l-27.523 25.665c-.64.721-10.744 12.384-21.647 32.007-3.662 6.593-6.105 10.494-8.828 11.735-1.127.518-2.306.573-3.635.181-1.341-.404-2.33-1.236-2.87-2.418-.856-1.87-.536-4.442.955-7.656.977-2.102 2.517-5.084 4.088-8.049a573.02 573.02 0 0 1 4.952-9.117c.096-.182.067-.31.044-.32-.082-.047-.305-.017-.5.157a.646.646 0 0 0-.097.107c-.058.069-.111.142-.169.218a247.79 247.79 0 0 0-1.726 2.22l-2.762 3.543c-2.722 3.49-6.005 7.672-8.607 10.825-4.051 4.922-7.885 9.572-12.416 6.692-1.236-.78-1.981-1.848-2.216-3.175-.464-2.59 1.005-5.917 4.627-10.484 2.413-3.047 10.904-13.996 13.41-17.43.14-.201.129-.368.106-.393-.031-.033-.28-.056-.52.168l-23.198 21.632c-3.399 3.17-7.349 4.186-10.103 2.803l46.021-42.915 7.75-7.234 29.947-27.926z"/>
        </g>
        <g fill="#068BFF" filter="url(#a)" transform="translate(103.659 111.608)">
            <path d="M78.204 4.833l-11.484.02a2 2 0 0 0-1.861 2.724L84.78 58.96a2 2 0 0 0 1.811 1.276l10.853.293a2 2 0 0 0 1.928-2.699L80.08 6.134a2 2 0 0 0-1.877-1.301zM39.114 4.884h-12.04c-1.048 0-1.896.694-1.896 1.55 0 .192.044.383.13.562l19.846 41.672c.283.596.985.988 1.766.988h11.287c1.046 0 1.895-.694 1.895-1.55 0-.124-6.404-14.196-19.213-42.216-.277-.605-.984-1.006-1.775-1.006z"/>
            <path d="M123.742 69.494l2.852 8.456a2 2 0 0 1-1.895 2.639H8.821a8 8 0 0 1-7.49-10.81L25.165 6.234a2 2 0 0 1 1.864-1.298l12.146-.052a2 2 0 0 1 1.872 2.726L19.122 63.88a3 3 0 0 0 2.79 4.09l99.939.163a2 2 0 0 1 1.891 1.36z"/>
            <path d="M67.03 4.884l12.293.204c1.069.017 1.917.721 1.896 1.573-.003.118-6.633 14.118-19.888 42-.29.61-1.031 1.008-1.849.994l-12.103-.2c-1.069-.017-1.918-.722-1.896-1.573.004-.175.046-.348.123-.512L65.178 5.884c.29-.612 1.03-1.013 1.851-1zM110.833 4.884h8.183a2 2 0 0 1 2 2v51.354a2 2 0 0 1-2 2h-8.183a2 2 0 0 1-2-2V6.884a2 2 0 0 1 2-2z"/>
        </g>
    </g>
</svg>
