<svg xmlns="http://www.w3.org/2000/svg" width="163" height="157" viewBox="0 0 163 157">
    <g fill="none" fill-rule="nonzero">
        <path fill="#66788C" d="M60 52.533l-9.792-9.498c1.14-2.127 1.846-4.535 1.846-7.133C52.054 27.669 45.557 21 37.532 21S23 27.665 23 35.902c0 8.237 6.507 14.909 14.532 14.909 2.83 0 5.446-.865 7.679-2.3L54.989 58A33.792 33.792 0 0 1 60 52.533z"/>
        <path fill="#1D4177" d="M102.466 51l13.417-22.196c1.321.371 2.691.638 4.129.638 8.288 0 14.988-6.59 14.988-14.724C135 6.586 128.3 0 120.012 0c-8.275 0-14.971 6.583-14.971 14.718 0 4.038 1.656 7.687 4.333 10.35L96 47.202A33.631 33.631 0 0 1 102.466 51z"/>
        <path fill="#8859B6" d="M148.451 70c-6.261 0-11.565 4.102-13.621 9.82l-18.12-1.843c0 .141.021.276.021.414 0 2.435-.26 4.813-.731 7.11l18.112 1.844c1.095 7.162 7.079 12.655 14.34 12.655 8.04 0 14.548-6.71 14.548-14.998C163 76.717 156.491 70 148.451 70z"/>
        <path fill="#C23934" d="M98.458 127.791L94.284 110a34.902 34.902 0 0 1-7.365 1.66l4.181 17.794c-4.793 2.447-8.1 7.28-8.1 12.926 0 8.081 6.707 14.62 15.009 14.62 8.284 0 14.991-6.542 14.991-14.62.01-7.933-6.47-14.354-14.542-14.589z"/>
        <path fill="#04844B" d="M49.629 85l-22.711 7.541a14.676 14.676 0 0 0-12.265-6.599C6.554 85.942 0 92.442 0 100.466 0 108.5 6.554 115 14.653 115c8.092 0 14.664-6.5 14.664-14.534 0-.336-.073-.644-.1-.973L52 91.93A32.974 32.974 0 0 1 49.629 85z"/>
        <circle cx="82" cy="78" r="25" fill="#08828E"/>
    </g>
</svg>
