<svg xmlns="http://www.w3.org/2000/svg" width="78" height="93" viewBox="0 0 78 93">
    <g fill="none" fill-rule="nonzero">
        <path fill="#CDD6E0" d="M60.652 92.872l-57.48-9.687c-2.13-.388-3.484-2.325-3.097-4.456L12.848 3.166c.387-2.131 2.323-3.487 4.452-3.1l57.48 9.688c2.128.387 3.483 2.325 3.096 4.456L65.103 89.772c-.387 1.938-2.322 3.488-4.451 3.1z"/>
        <path fill="#F2F2F2" d="M68.006 4.135H9.946A3.884 3.884 0 0 0 6.074 8.01V84.54a3.884 3.884 0 0 0 3.87 3.875h58.061a3.884 3.884 0 0 0 3.87-3.875V8.01a3.884 3.884 0 0 0-3.87-3.875z"/>
        <path fill="#84DBFF" d="M13.816 11.885H40.33v30.612H13.816z"/>
        <g fill="#ACB3BA">
            <path d="M9.364 62.647h59.222v3.875H9.364zM9.364 50.635h59.222v3.875H9.364zM9.364 74.466h26.902v3.875H9.364z"/>
        </g>
        <path fill="#F8B64C" d="M45.556 38.622h22.837v3.875H45.556z"/>
        <path fill="#FFD15C" d="M45.556 26.61h22.837v3.875H45.556z"/>
        <ellipse cx="56.587" cy="77.179" fill="#86B03E" rx="7.741" ry="7.75"/>
        <ellipse cx="56.587" cy="77.179" fill="#F2F2F2" rx="6.193" ry="6.2"/>
        <ellipse cx="56.587" cy="77.179" fill="#9AD14B" rx="4.838" ry="4.844"/>
        <g fill="#3F4B5B">
            <path d="M21.944 23.897c1.549 5.619 5.226 6.006 5.226 6.006s3.677-.387 5.225-6.006c0 0 .775-.581.194-3.1 0 0-.387-4.844-5.226-4.844-4.838 0-5.225 4.844-5.225 4.844-1.161 2.325-.194 3.1-.194 3.1z"/>
            <path d="M35.492 31.26l-3.87-1.357-.581-.193c-1.936 1.743-3.678 2.13-3.87 2.13h-.388c-.194 0-1.936-.193-3.87-2.13l-.581.193-3.871 1.357c-1.935.775-3.29 2.519-3.29 4.65v2.712h23.611V35.91c0-1.938-1.355-3.875-3.29-4.65z"/>
        </g>
    </g>
</svg>
