<?xml version="1.0" encoding="UTF-8"?>
<svg width="64px" height="82px" viewBox="0 0 64 82" version="1.1" xmlns="http://www.w3.org/2000/svg" xmlns:xlink="http://www.w3.org/1999/xlink">
    <!-- Generator: sketchtool 42 (36781) - http://www.bohemiancoding.com/sketch -->
    <title>0CB24A65-BD95-4012-A1F1-18FFA5B11F4F</title>
    <desc>Created with sketchtool.</desc>
    <defs></defs>
    <g id="Public-Content" stroke="none" stroke-width="1" fill="none" fill-rule="evenodd">
        <g id="Landing-Page" transform="translate(-134.000000, -1365.000000)" fill-rule="nonzero">
            <g id="curriculum" transform="translate(134.000000, 1365.000000)">
                <g id="Layer_1">
                    <path d="M48.8011093,0.137430168 L3.41107474,0.137430168 C1.59183488,0.137430168 0.13644299,1.60335196 0.13644299,3.43575419 L0.13644299,78.6558659 C0.13644299,80.4882682 1.59183488,81.9541899 3.41107474,81.9541899 L60.6261684,81.9541899 C62.4454083,81.9541899 63.9008001,80.4882682 63.9008001,78.6558659 L63.9008001,15.3463687 L52.075741,15.3463687 C50.2565012,15.3463687 48.8011093,13.8804469 48.8011093,12.0480447 L48.8011093,0.137430168 Z" id="Shape" fill="#002B5D"></path>
                    <path d="M23.4227132,24.0502793 C23.0588652,26.7072626 22.3311693,29.9139665 20.9667394,33.3955307 C20.6028914,33.3955307 20.2390435,33.4871508 19.7842335,33.4871508 C19.4203855,33.4871508 19.0565376,33.4871508 18.6926896,33.3955307 C17.3282597,29.9139665 16.6005637,26.7072626 16.2367158,24.1418994 C17.0553737,21.4849162 19.8751955,21.301676 19.8751955,21.301676 C19.8751955,21.301676 22.6040553,21.3932961 23.4227132,24.0502793 Z" id="Shape" fill="#ACB3BA"></path>
                    <path d="M19.8751955,21.2100559 C19.7842335,21.2100559 19.7842335,21.2100559 19.8751955,21.2100559 C19.7842335,21.2100559 19.7842335,21.2100559 19.8751955,21.2100559 C16.0547918,19.3776536 16.5096017,16.9955307 16.5096017,16.9955307 L16.5096017,16.9039106 C17.4192217,18.003352 18.6017276,18.827933 19.8751955,18.827933 C21.1486634,18.827933 22.2402073,18.0949721 23.2407892,16.9039106 L23.2407892,16.9955307 C23.2407892,16.9955307 23.2407892,16.9955307 23.2407892,17.0871508 C23.2407892,17.3620112 23.2407892,19.5608939 19.8751955,21.2100559 Z" id="Shape" fill="#F9B54C"></path>
                    <g id="Group" transform="translate(18.419804, 21.072626)" fill="#F1543F">
                        <path d="M1.5448627,0.137430168 C1.33460629,0.137430168 1.33460629,0.137430168 1.5448627,0.137430168 C1.33460629,0.137430168 1.33460629,0.137430168 1.5448627,0.137430168 L1.5448627,0.137430168 Z" id="Shape"></path>
                        <path d="M2.72885979,0.503910615 L2.27404983,1.78659218 L0.545771959,1.78659218 L0.0909619931,0.503910615 C0.818657938,0.229050279 1.3644299,0.137430168 1.3644299,0.137430168 C1.3644299,0.137430168 2.00116385,0.137430168 2.72885979,0.503910615 Z" id="Shape"></path>
                    </g>
                    <g id="Group" transform="translate(17.737589, 22.675978)" fill="#FF7058">
                        <path d="M4.13877069,8.24581006 C3.86588471,9.07039106 3.59299873,9.89497207 3.22915075,10.7195531 L2.13760684,10.7195531 L1.04606292,10.7195531 C0.682214948,9.89497207 0.409328969,9.07039106 0.13644299,8.24581006 L1.22798691,0.183240223 L2.95626478,0.183240223 L4.13877069,8.24581006 Z" id="Shape"></path>
                        <path d="M4.66441171,10.5363128 L4.66441171,10.5363128 L4.13877069,10.5363128 L4.66441171,10.5363128 Z" id="Shape"></path>
                    </g>
                    <g id="Group" transform="translate(7.276959, 18.324022)" fill="#324A5E">
                        <path d="M25.0600291,8.65810056 C22.4221313,12.2312849 18.3288416,14.7050279 13.68978,15.0715084 C15.0542099,11.5899441 15.7819058,8.38324022 16.1457538,5.72625698 L16.1457538,5.72625698 C16.2367158,5.45139665 17.1463357,2.15307263 16.6005637,0.0458100559 L23.3317512,3.25251397 L25.0600291,8.65810056 Z" id="Shape"></path>
                        <path d="M11.4157301,15.0715084 C6.77666849,14.7050279 2.6833788,12.322905 0.0454809965,8.65810056 L1.77375887,3.25251397 L8.41398436,0.0458100559 C7.8682124,2.24469274 8.86879433,5.81787709 8.86879433,5.81787709 C9.32360429,8.38324022 10.0513002,11.5899441 11.4157301,15.0715084 Z" id="Shape"></path>
                    </g>
                    <g id="Group" transform="translate(15.463539, 16.949721)" fill="#E6E9EE">
                        <path d="M7.68628842,0.0458100559 C7.68628842,0.0458100559 8.14109838,2.42793296 4.32069467,4.2603352 C4.32069467,4.2603352 7.14051646,4.44357542 7.9591744,7.10055866 C8.05013639,7.19217877 9.50552828,1.42011173 7.68628842,0.0458100559 Z" id="Shape"></path>
                        <path d="M1.04606292,0.0458100559 C1.04606292,0.0458100559 0.591252955,2.42793296 4.41165666,4.2603352 C4.41165666,4.2603352 1.59183488,4.44357542 0.773176941,7.10055866 C0.682214948,7.19217877 -0.864138934,1.42011173 1.04606292,0.0458100559 Z" id="Shape"></path>
                    </g>
                    <path d="M24.0594472,14.2469274 C23.6955992,15.5296089 23.5136752,16.2625698 23.4227132,16.4458101 L23.4227132,16.4458101 C22.4221313,17.8201117 21.1486634,18.7363128 19.7842335,18.7363128 C18.5107656,18.7363128 17.3282597,17.9117318 16.3276778,16.7206704 C14.3265139,14.1553073 15.6909438,9.48268156 15.6909438,9.48268156 C16.6915257,10.673743 20.0571195,10.7653631 20.0571195,10.7653631 C18.6926896,10.5821229 18.4198036,9.48268156 18.4198036,9.39106145 C18.6926896,10.1240223 21.8763593,10.4905028 21.8763593,10.4905028 C25.1509911,11.0402235 24.0594472,14.2469274 24.0594472,14.2469274 Z" id="Shape" fill="#FFD05B"></path>
                    <path d="M17.8740316,4.62681564 C17.8740316,4.62681564 22.4221313,2.79441341 24.6961811,6.91731844 C27.1521549,11.3150838 24.0594472,16.0793296 23.4227132,16.4458101 C23.4227132,16.4458101 23.6046372,15.7128492 24.0594472,14.2469274 C24.0594472,14.2469274 25.1509911,10.9486034 21.8763593,10.4905028 C21.8763593,10.4905028 18.6926896,10.0324022 18.4198036,9.39106145 C18.4198036,9.39106145 18.6926896,10.5821229 20.0571195,10.7653631 C20.0571195,10.7653631 16.7824877,10.673743 15.6909438,9.48268156 C15.6909438,9.48268156 14.3265139,14.1553073 16.3276778,16.7206704 C16.3276778,16.7206704 12.78016,13.8804469 13.23497,9.48268156 C13.325932,9.48268156 13.053046,3.43575419 17.8740316,4.62681564 Z" id="Shape" fill="#324A5E"></path>
                    <path d="M48.8011093,0.137430168 L48.8011093,12.1396648 C48.8011093,13.972067 50.2565012,15.4379888 52.075741,15.4379888 L63.9008001,15.4379888 L63.9008001,3.34413408 C63.9008001,1.51173184 62.4454083,0.0458100559 60.6261684,0.0458100559 L48.8011093,0.0458100559 L48.8011093,0.137430168 Z" id="Shape" fill="#CED5E0"></path>
                    <g id="Group" transform="translate(5.230315, 0.000000)" fill="#E6E9EE">
                        <path d="M43.5707947,0.137430168 L43.5707947,12.1396648 C43.5707947,13.972067 45.0261866,15.4379888 46.8454264,15.4379888 L58.6704855,15.4379888 L43.5707947,0.137430168 Z" id="Shape"></path>
                        <rect id="Rectangle-path" x="0.0909619931" y="39.1675978" width="53.4856519" height="3.02346369"></rect>
                        <rect id="Rectangle-path" x="0.0909619931" y="46.8636872" width="53.4856519" height="3.02346369"></rect>
                        <rect id="Rectangle-path" x="0.0909619931" y="54.5597765" width="53.4856519" height="3.02346369"></rect>
                        <rect id="Rectangle-path" x="0.0909619931" y="62.1642458" width="53.4856519" height="3.02346369"></rect>
                        <rect id="Rectangle-path" x="0.0909619931" y="69.8603352" width="30.1084197" height="3.02346369"></rect>
                    </g>
                </g>
            </g>
        </g>
    </g>
</svg>