<svg xmlns="http://www.w3.org/2000/svg" width="80" height="80" viewBox="0 0 80 80">
    <g fill="#FFF" fill-rule="evenodd">
        <circle cx="40" cy="40" r="40" fill-opacity=".2"/>
        <g fill-rule="nonzero">
            <path d="M57.974 43.478c1.31 0 2.36.987 2.36 2.22V57.78c0 1.233-1.05 2.219-2.36 2.219H21.447C20.136 60 19 59.014 19 57.78V45.699c0-1.233 1.136-2.22 2.447-2.22 1.31 0 2.36.987 2.36 2.22v9.781h31.808v-9.781c0-1.233 1.048-2.22 2.359-2.22z"/>
            <path d="M31.875 33.029c-.942.918-2.312.918-3.254 0-.941-.919-.941-2.255 0-3.174l9.419-9.187A2.369 2.369 0 0 1 39.667 20c.599 0 1.198.25 1.626.668l9.419 9.187c.942.919.942 2.255 0 3.174a2.369 2.369 0 0 1-1.627.668c-.6 0-1.284-.25-1.712-.668l-5.395-5.262V47.31c0 1.253-1.027 2.255-2.311 2.255-1.285 0-2.312-1.002-2.312-2.255V27.767l-5.48 5.262z"/>
        </g>
    </g>
</svg>
