<svg xmlns="http://www.w3.org/2000/svg" width="106" height="82" viewBox="0 0 106 82">
    <g fill="none" fill-rule="nonzero">
        <path fill="#9AD14B" d="M26.782 31.928L3.357 8.265 0 9.018v64.627l3.123-.7 23.66-23.9z"/>
        <path fill="#84DBFF" d="M13.945 70.515l12.837-2.882V57.547z"/>
        <path fill="#9AD14B" d="M26.782 3.006l-16.54 3.712 16.54 16.707zM73.575 1.78L52.076 9.018v14.476z"/>
        <path fill="#84DBFF" d="M52.076 31.997v40.145l26.783-10.52V4.943z"/>
        <path fill="#86B03E" d="M39.464 36.235l12.612-12.74V9.017L26.782 3.006v20.42zM26.782 31.928v17.117l8.474-8.558z"/>
        <path fill="#52BAE3" d="M26.782 57.547v10.086l25.294 4.51V31.996z"/>
        <path fill="#EFCE4A" d="M26.782 23.425L10.242 6.718 3.358 8.265l23.425 23.663zM26.782 49.045l-23.659 23.9 10.822-2.43 12.837-12.968zM52.076 31.997L78.86 4.943V0l-5.284 1.78-21.499 21.714z"/>
        <path fill="#D4B244" d="M39.464 36.235l-12.682-12.81v8.503l8.474 8.559-8.474 8.558v8.502l25.294-25.55v-8.503z"/>
        <g transform="translate(49.99 45.32)">
            <g fill="#1B2A38" transform="translate(9.48 .072)">
                <ellipse cx="5.895" cy="5.94" rx="5.872" ry="5.897"/>
                <ellipse cx="31.338" cy="5.94" rx="5.872" ry="5.897"/>
            </g>
            <path fill="#3F4B5B" d="M50.115 8.837C48.28 4.905 44.06 2.51 39.656 3.124a5.44 5.44 0 0 0-1.59.43c-1.407.676-4.281 1.229-6.606 1.597v.062a3.362 3.362 0 0 1-3.364 3.378 3.362 3.362 0 0 1-3.364-3.378V5.15c-2.324-.368-5.198-.921-6.605-1.597a5.44 5.44 0 0 0-1.59-.43C12.133 2.51 7.913 4.967 6.078 8.837L.94 19.772l27.156-5.16 27.156 5.16-5.137-10.935z"/>
            <path fill="#1B2A38" d="M42.225 27.942a37.072 37.072 0 0 0-28.318 0c-1.346-3.318-2.753-6.635-4.098-10.013a47.608 47.608 0 0 1 36.514 0c-1.346 3.317-2.691 6.634-4.098 10.013z"/>
            <ellipse cx="12.255" cy="24.072" fill="#2B3B4E" rx="12.11" ry="12.163"/>
            <ellipse cx="12.255" cy="24.072" fill="#54C0EB" rx="9.297" ry="9.337"/>
            <ellipse cx="12.255" cy="24.072" fill="#84DBFF" rx="6.728" ry="6.757"/>
            <ellipse cx="43.876" cy="24.072" fill="#2B3B4E" rx="12.11" ry="12.163"/>
            <ellipse cx="43.876" cy="24.072" fill="#54C0EB" rx="9.297" ry="9.337"/>
            <ellipse cx="43.876" cy="24.072" fill="#84DBFF" rx="6.728" ry="6.757"/>
            <ellipse cx="28.096" cy="19.403" fill="#324A5E" rx="3.425" ry="3.44"/>
            <ellipse cx="28.096" cy="19.403" fill="#2B3B4E" rx="2.385" ry="2.396"/>
            <path fill="#1B2A38" d="M32.928 6.687c-1.162 3.379-4.832 3.501-4.832 3.501s-3.73-.123-4.831-3.501l-1.713-.307v6.634H34.641V6.38l-1.713.307z"/>
        </g>
    </g>
</svg>
