<svg xmlns="http://www.w3.org/2000/svg" width="60" height="46" viewBox="0 0 60 46">
    <g fill="none" fill-rule="nonzero">
        <path fill="#9AD14B" d="M15.134 17.94L1.897 4.643 0 5.067v36.312l1.765-.393 13.37-13.43z"/>
        <path fill="#84DBFF" d="M7.88 39.62l7.254-1.619v-5.667z"/>
        <path fill="#9AD14B" d="M15.134 1.689L5.788 3.775l9.346 9.387zM41.577 1L29.428 5.067V13.2z"/>
        <path fill="#84DBFF" d="M29.428 17.978v22.557l15.134-5.911V2.777z"/>
        <path fill="#86B03D" d="M22.3 20.36l7.128-7.16V5.068L15.134 1.689v11.473zM15.134 17.94v9.617l4.789-4.809z"/>
        <path fill="#52BAE3" d="M15.134 32.334v5.667l14.294 2.534V17.978z"/>
        <path fill="#EFCE4A" d="M15.134 13.162L5.788 3.775l-3.891.869 13.237 13.295zM15.134 27.557L1.764 40.986 7.88 39.62l7.254-7.286zM29.428 17.978l15.134-15.2V0l-2.985 1-12.149 12.2z"/>
        <path fill="#D4B243" d="M22.3 20.36l-7.166-7.198v4.777l4.789 4.81-4.789 4.808v4.777l14.294-14.356v-4.777z"/>
        <g transform="translate(28.25 25.464)">
            <g fill="#1B2A38" transform="translate(5.357 .04)">
                <ellipse cx="3.331" cy="3.337" rx="3.318" ry="3.314"/>
                <ellipse cx="17.709" cy="3.337" rx="3.318" ry="3.314"/>
            </g>
            <path fill="#3F4B5B" d="M28.32 4.965a5.684 5.684 0 0 0-5.91-3.21 3.088 3.088 0 0 0-.9.242c-.794.38-2.419.69-3.732.897v.035c0 1.07-.864 1.898-1.901 1.898a1.894 1.894 0 0 1-1.9-1.898v-.035c-1.314-.207-2.939-.518-3.734-.897a3.088 3.088 0 0 0-.898-.242c-2.489-.345-4.873 1.036-5.91 3.21L.53 11.11l15.346-2.9 15.346 2.9-2.904-6.144z"/>
            <path fill="#1B2A38" d="M23.86 15.7a21.06 21.06 0 0 0-16.001 0c-.76-1.864-1.556-3.728-2.316-5.626a27.045 27.045 0 0 1 20.633 0c-.76 1.863-1.52 3.727-2.315 5.626z"/>
            <ellipse cx="6.925" cy="13.525" fill="#2B3B4E" rx="6.843" ry="6.834"/>
            <ellipse cx="6.925" cy="13.525" fill="#54C0EB" rx="5.253" ry="5.246"/>
            <ellipse cx="6.925" cy="13.525" fill="#84DBFF" rx="3.802" ry="3.797"/>
            <ellipse cx="24.794" cy="13.525" fill="#2B3B4E" rx="6.843" ry="6.834"/>
            <ellipse cx="24.794" cy="13.525" fill="#54C0EB" rx="5.253" ry="5.246"/>
            <ellipse cx="24.794" cy="13.525" fill="#84DBFF" rx="3.802" ry="3.797"/>
            <ellipse cx="15.877" cy="10.902" fill="#324A5E" rx="1.935" ry="1.933"/>
            <ellipse cx="15.877" cy="10.902" fill="#2B3B4E" rx="1.348" ry="1.346"/>
            <path fill="#1B2A38" d="M18.607 3.757c-.656 1.899-2.73 1.968-2.73 1.968s-2.108-.07-2.73-1.968l-.968-.172v3.727h7.396V3.585l-.968.172z"/>
        </g>
    </g>
</svg>
