<svg xmlns="http://www.w3.org/2000/svg" width="81" height="71" viewBox="0 0 81 71">
    <g fill="none" fill-rule="nonzero">
        <path fill="#E4EAF8" d="M70.658 19.926H1.413C.633 19.926 0 19.292 0 18.51V1.52C0 .738.633.104 1.413.104h69.245c.78 0 1.413.634 1.413 1.416v16.99c0 .782-.633 1.416-1.413 1.416z"/>
        <path fill="#FF5050" d="M16.958 19.926H1.413C.633 19.926 0 19.292 0 18.51V1.52C0 .738.633.104 1.413.104h15.545c.78 0 1.413.634 1.413 1.416v16.99c0 .782-.633 1.416-1.413 1.416z"/>
        <path fill="#707487" d="M48.047 8.6H24.024a1.414 1.414 0 0 1-1.414-1.416c0-.783.632-1.416 1.414-1.416h24.023c.781 0 1.413.633 1.413 1.416 0 .782-.632 1.415-1.413 1.415z"/>
        <g fill="#7F8499">
            <path d="M65.005 14.263h-26.85a1.414 1.414 0 0 1-1.413-1.416c0-.783.632-1.416 1.413-1.416h26.85c.781 0 1.413.633 1.413 1.416 0 .782-.632 1.416-1.413 1.416zM32.503 14.263h-8.48a1.414 1.414 0 0 1-1.413-1.416c0-.783.632-1.416 1.414-1.416h8.479c.78 0 1.413.633 1.413 1.416 0 .782-.632 1.416-1.413 1.416z"/>
        </g>
        <g fill="#FFF">
            <path d="M9.185 12.847a1.414 1.414 0 0 1-1.413-1.416c0-.782.632-1.416 1.413-1.416a2.124 2.124 0 0 0 0-4.247c-1.168 0-2.12.953-2.12 2.124a1.414 1.414 0 1 1-2.825 0c0-2.733 2.219-4.956 4.946-4.956s4.946 2.224 4.946 4.956-2.22 4.955-4.947 4.955zM9.2 17.094a1.42 1.42 0 0 1-1.42-1.415c0-.783.624-1.416 1.405-1.416H9.2c.781 0 1.413.633 1.413 1.416 0 .782-.632 1.415-1.413 1.415z"/>
        </g>
        <path fill="#E4EAF8" d="M70.658 45.41H1.413C.633 45.41 0 44.778 0 43.996v-16.99c0-.782.633-1.416 1.413-1.416h69.245c.78 0 1.413.634 1.413 1.416v16.99c0 .782-.633 1.416-1.413 1.416z"/>
        <path fill="#FFDC64" d="M16.958 45.41H1.413C.633 45.41 0 44.778 0 43.996v-16.99c0-.782.633-1.416 1.413-1.416h15.545c.78 0 1.413.634 1.413 1.416v16.99c0 .782-.633 1.416-1.413 1.416z"/>
        <path fill="#707487" d="M48.047 34.084H24.024a1.414 1.414 0 0 1-1.414-1.416c0-.782.632-1.415 1.414-1.415h24.023c.781 0 1.413.633 1.413 1.415 0 .783-.632 1.416-1.413 1.416z"/>
        <path fill="#7F8499" d="M32.503 39.748h-8.48a1.414 1.414 0 0 1-1.413-1.416c0-.783.632-1.416 1.414-1.416h8.479c.78 0 1.413.633 1.413 1.416 0 .782-.632 1.416-1.413 1.416z"/>
        <g fill="#FFF">
            <path d="M9.185 38.332a1.414 1.414 0 0 1-1.413-1.416c0-.783.632-1.416 1.413-1.416a2.124 2.124 0 0 0 0-4.247c-1.168 0-2.12.952-2.12 2.123a1.414 1.414 0 1 1-2.825 0c0-2.732 2.219-4.955 4.946-4.955s4.946 2.223 4.946 4.955c0 2.733-2.22 4.956-4.947 4.956zM9.2 42.58a1.42 1.42 0 0 1-1.42-1.416c0-.783.624-1.416 1.405-1.416H9.2c.781 0 1.413.633 1.413 1.416 0 .782-.632 1.415-1.413 1.415z"/>
        </g>
        <path fill="#E4EAF8" d="M70.658 70.896H1.413C.633 70.896 0 70.262 0 69.48V52.49c0-.782.633-1.416 1.413-1.416h69.245c.78 0 1.413.634 1.413 1.416v16.99c0 .782-.633 1.416-1.413 1.416z"/>
        <path fill="#7DF5A5" d="M16.958 70.896H1.413C.633 70.896 0 70.262 0 69.48V52.49c0-.782.633-1.416 1.413-1.416h15.545c.78 0 1.413.634 1.413 1.416v16.99c0 .782-.633 1.416-1.413 1.416z"/>
        <path fill="#707487" d="M48.047 59.57H24.024a1.414 1.414 0 0 1-1.414-1.417c0-.782.632-1.415 1.414-1.415h24.023c.781 0 1.413.633 1.413 1.415 0 .783-.632 1.416-1.413 1.416z"/>
        <path fill="#7F8499" d="M32.503 65.232h-8.48a1.414 1.414 0 0 1-1.413-1.415c0-.783.632-1.416 1.414-1.416h8.479c.78 0 1.413.633 1.413 1.416 0 .782-.632 1.415-1.413 1.415z"/>
        <g fill="#FFF">
            <path d="M9.185 63.817A1.414 1.414 0 0 1 7.772 62.4c0-.783.632-1.416 1.413-1.416a2.124 2.124 0 0 0 0-4.247c-1.168 0-2.12.952-2.12 2.123a1.414 1.414 0 1 1-2.825 0c0-2.732 2.219-4.955 4.946-4.955s4.946 2.223 4.946 4.955-2.22 4.956-4.947 4.956zM9.2 68.064a1.42 1.42 0 0 1-1.42-1.416c0-.782.624-1.415 1.405-1.415H9.2c.781 0 1.413.633 1.413 1.415 0 .783-.632 1.416-1.413 1.416z"/>
        </g>
        <g fill="#D5DCED">
            <path d="M70.658 51.074h-7.066v8.4a3.542 3.542 0 0 0 3.535 3.54c.687 0 1.356-.2 1.934-.58l.567-.372 2.443 5.909V52.49c0-.782-.633-1.416-1.413-1.416zM69.623 39.37a3.501 3.501 0 0 0-2.493-1.038 3.544 3.544 0 0 0-3.538 3.54v3.539h7.066c.78 0 1.413-.634 1.413-1.416v-2.173l-2.448-2.452z"/>
        </g>
        <path fill="#464655" d="M66.418 41.873v17.6c0 .563.624.9 1.094.592l3.421-2.246 4.382 10.598a1.412 1.412 0 0 0 1.846.767l2.142-.89a1.417 1.417 0 0 0 .765-1.85l-4.381-10.598 4.02-.815a.708.708 0 0 0 .359-1.194L67.625 41.372a.706.706 0 0 0-1.207.5z"/>
        <g fill="#7F8499">
            <path d="M62.179 39.748H38.155c-.78 0-1.413-.634-1.413-1.416 0-.782.633-1.416 1.413-1.416H62.18c.78 0 1.413.634 1.413 1.416 0 .782-.633 1.416-1.413 1.416zM62.179 65.232H38.155a1.414 1.414 0 1 1 0-2.832H62.18c.78 0 1.413.635 1.413 1.417s-.633 1.415-1.413 1.415z"/>
        </g>
    </g>
</svg>
