<svg xmlns="http://www.w3.org/2000/svg" width="77" height="70" viewBox="0 0 77 70">
    <g fill="none" fill-rule="nonzero">
        <path fill="#324D5B" d="M47.88.033H28.729c-2.643 0-4.788 2.16-4.788 4.823v7.235h4.788V7.267a2.402 2.402 0 0 1 2.394-2.411h14.365a2.402 2.402 0 0 1 2.394 2.411v4.824h4.788V4.856c0-2.66-2.145-4.823-4.788-4.823z"/>
        <path fill="#E2574C" d="M4.788 12.093h67.033c2.643 0 4.788 2.161 4.788 4.826v48.233c0 2.662-2.145 4.823-4.788 4.823H4.788C2.145 69.975 0 67.815 0 65.152V16.919c0-2.665 2.145-4.826 4.788-4.826z"/>
        <path fill="#FFF" d="M50.275 36.207h-7.182v-7.23a2.405 2.405 0 0 0-2.394-2.416H35.91a2.405 2.405 0 0 0-2.394 2.416v7.23h-7.182a2.404 2.404 0 0 0-2.394 2.412v4.823a2.403 2.403 0 0 0 2.394 2.417h7.183v7.23A2.4 2.4 0 0 0 35.91 55.5h4.788a2.4 2.4 0 0 0 2.394-2.411v-7.23h7.182a2.403 2.403 0 0 0 2.394-2.417V38.62a2.406 2.406 0 0 0-2.394-2.412z"/>
        <path fill="#BF392C" d="M4.788 12.093C2.145 12.093 0 14.253 0 16.92v12.056l16.758-16.882H4.788zm-.024 57.88h11.994L0 53.089v12.063c0 2.655 2.13 4.809 4.764 4.82zm67.057-57.88h-11.97L76.61 28.975V16.919c0-2.665-2.145-4.826-4.788-4.826zm.024 57.88c2.634-.015 4.764-2.166 4.764-4.821V53.089L59.851 69.973h11.994z"/>
    </g>
</svg>
