<svg xmlns="http://www.w3.org/2000/svg" width="98" height="92" viewBox="0 0 98 92">
    <g fill="none" fill-rule="nonzero">
        <path fill="#B5885B" d="M91.241 36.126V10.37c0-.717-.58-1.299-1.297-1.299H37.907c-.456 0-.878-.238-1.111-.63l-4.314-7.195A1.3 1.3 0 0 0 31.37.615H8.056a1.301 1.301 0 0 0-1.297 1.3v34.21H91.24z"/>
        <path fill="#FFF" d="M11.828 29.362h74.345v6.764H11.828z"/>
        <path fill="#E7ECED" d="M13.517 24.289h70.966v5.073H13.517z"/>
        <path fill="#C7CAC7" d="M15.207 19.217h67.586v5.073H15.207z"/>
        <path fill="#F7B563" d="M89.084 91.926H8.768a.458.458 0 0 1-.453-.39L.005 36.654a.458.458 0 0 1 .453-.527h96.935c.28 0 .495.25.453.527l-8.31 54.884a.458.458 0 0 1-.452.389z"/>
        <path fill="#EDEADA" d="M45.546 59.798h32.103v20.291H45.546z"/>
        <g fill="#CEC9AE">
            <path d="M52.305 68.253h6.759c.934 0 1.69-.756 1.69-1.691s-.756-1.69-1.69-1.69h-6.759c-.934 0-1.69.755-1.69 1.69 0 .935.756 1.69 1.69 1.69zM65.822 68.253h1.69c.934 0 1.69-.756 1.69-1.691s-.756-1.69-1.69-1.69h-1.69c-.934 0-1.69.755-1.69 1.69 0 .935.756 1.69 1.69 1.69zM70.891 71.635H52.305c-.934 0-1.69.756-1.69 1.69 0 .936.756 1.692 1.69 1.692h18.586c.935 0 1.69-.756 1.69-1.691s-.755-1.691-1.69-1.691z"/>
        </g>
    </g>
</svg>
