<?xml version="1.0" encoding="UTF-8"?>
<svg width="158px" height="158px" viewBox="0 0 158 158" version="1.1" xmlns="http://www.w3.org/2000/svg" xmlns:xlink="http://www.w3.org/1999/xlink">
    <!-- Generator: sketchtool 42 (36781) - http://www.bohemiancoding.com/sketch -->
    <title>F74508A9-F948-42EC-B5DB-2003C94837E6</title>
    <desc>Created with sketchtool.</desc>
    <defs></defs>
    <g id="Public-Content" stroke="none" stroke-width="1" fill="none" fill-rule="evenodd">
        <g id="Community-Partners-Page" transform="translate(-242.000000, -133.000000)">
            <g id="Group" transform="translate(245.000000, 136.000000)">
                <g id="handshake" transform="translate(9.000000, 23.000000)" stroke="#0D70E5" stroke-width="2" fill="#FFFFFF" fill-rule="nonzero">
                    <path d="M132.820897,32.0618633 C131.975423,31.2209439 130.605494,31.220685 129.76028,32.0618633 L118.077385,43.6889717 C117.726449,44.0382328 117.506885,44.4967514 117.455637,44.9878918 C116.532379,53.7766384 112.565153,62.0605227 106.284969,68.3130481 L103.715248,70.8704994 L84.4358314,51.6831427 C85.367414,51.8519479 86.3185076,51.9480012 87.2815679,51.9480012 C88.9902065,51.9480012 90.7365663,51.6505208 92.4709594,50.9439725 C93.5770999,50.4937389 94.1070172,49.2359845 93.6546234,48.1353846 C93.2022296,47.0347848 91.939221,46.507139 90.8325602,46.9576315 C83.3159031,50.017356 74.4758835,41.7453813 73.4922717,40.7920977 C73.4761426,40.7765634 70.4774402,37.7926977 70.4774402,37.7926977 L73.5645922,34.720287 C74.4098064,33.8791087 74.4098064,32.5157216 73.5645922,31.6745433 C72.7191179,30.833365 71.3491893,30.833365 70.5039751,31.6745433 L65.8887258,36.2677547 C65.8884657,36.2680136 65.8882055,36.2682725 65.8879454,36.2685314 C65.8876852,36.2687903 65.8874251,36.2690492 65.8871649,36.2693081 L62.5866933,39.5540199 C60.2154629,41.9139276 57.0630143,43.2133655 53.7092127,43.2133655 C50.4063997,43.2133655 47.2976556,41.9512097 44.9415137,39.6591349 L64.8101607,19.8853612 C65.8616706,18.8388722 67.0307665,17.9182105 68.2870113,17.147713 C71.2734869,15.310532 74.7219816,14.339384 78.2604868,14.339384 C83.3429582,14.339384 88.1197582,16.3088648 91.7105527,19.8851023 C92.1161203,20.289251 92.6665891,20.5163096 93.2407312,20.5163096 L93.2412515,20.5163096 C93.8148733,20.5163096 94.3653422,20.2895099 94.77143,19.8856201 L107.190017,7.52917986 C108.035492,6.68800159 108.035492,5.32461446 107.190277,4.48317728 C106.345063,3.64199901 104.974874,3.6417401 104.12992,4.48291838 L93.1720527,15.3856141 C88.9907268,11.918634 83.7724592,10.0320024 78.2602267,10.0320024 C74.2440935,10.0320024 70.3210925,11.0546722 66.8528267,12.9923078 C65.366873,12.6075769 63.8377351,12.4097744 62.2924682,12.4097744 C58.1920477,12.4097744 54.2984433,13.7594396 51.1241424,16.2482814 L35.4854686,0.684282603 C34.6402544,-0.156895671 33.2700656,-0.156895671 32.4253717,0.684282603 C31.5801575,1.52546088 31.5801575,2.88884801 32.4253717,3.72976738 L49.5039534,20.7267984 C49.9264304,21.147517 50.4802812,21.3577468 51.0341319,21.3577468 C51.5874623,21.3577468 52.1413131,21.1477759 52.5637901,20.727834 C55.0632724,18.242358 58.3528179,16.8339216 61.8655687,16.7277711 C61.8270671,16.7653121 41.7742368,36.7200595 41.7742368,36.7200595 C40.1483246,38.3382079 40.1467637,40.9748837 41.7742368,42.6002814 C44.9628457,45.7736647 49.2011435,47.5212649 53.7089526,47.5212649 C58.2185826,47.5212649 62.457921,45.7736647 65.6465299,42.6002814 L67.4168231,40.8384414 L103.044852,76.2955685 C103.875498,77.1222481 104.332834,78.2212945 104.332834,79.390245 C104.332834,80.5591954 103.875498,81.6582418 103.043811,82.4859571 C102.213425,83.3131545 101.109366,83.769084 99.9353271,83.769084 C98.7612885,83.769084 97.6569689,83.3134134 96.8258026,82.4851804 L96.8242417,82.4867338 L69.8705197,55.6643056 C69.0247853,54.8231273 67.6548567,54.823904 66.8099026,55.6648234 C65.9652087,56.5060017 65.9654689,57.8696477 66.8104229,58.710826 L95.8460929,87.6044841 C96.6764788,88.4309049 97.1338154,89.5299513 97.1338154,90.6991606 C97.1338154,91.8701823 96.6764788,92.9700054 95.8466132,93.7959083 C94.1299101,95.5026018 91.3382839,95.5031197 89.6241822,93.7966851 L84.7245934,88.9204919 C84.7001397,88.8946015 84.6754258,88.8687111 84.6499315,88.8435975 C84.6413467,88.8350537 84.6317213,88.8280632 84.6231365,88.8197783 L62.1004805,66.4049275 C61.2552663,65.5637493 59.8850776,65.5637493 59.0401235,66.4049275 C58.1949093,67.2461058 58.1949093,68.6094929 59.0401235,69.4504123 L81.6345798,91.9369794 C82.4376503,92.755892 82.8798985,93.8396631 82.8798985,94.9891957 C82.8798985,96.1581461 82.4225619,97.2574514 81.5919158,98.0838722 C79.8778142,99.7905657 77.088009,99.7903068 75.3731269,98.0838722 L50.8790849,73.7067899 C50.0338707,72.8656116 48.663682,72.8656116 47.8187279,73.7067899 C46.9735137,74.5479682 46.9735137,75.9113553 47.8187279,76.7522747 L65.9878414,94.8346302 C66.8182273,95.6610509 67.2755639,96.7603562 67.2755639,97.9293067 C67.2755639,99.0982571 66.8182273,100.197303 65.9857603,101.025795 C65.156415,101.852993 64.0520954,102.308664 62.8751951,102.308664 C61.7006362,102.308664 60.5968369,101.853252 59.7659307,101.024242 L26.8962297,68.3130481 C20.6150057,62.0592281 16.6490807,53.7758617 15.7284242,44.9881507 C15.6771754,44.4967514 15.4573521,44.0379739 15.1064152,43.6887128 L3.95421845,32.5902859 C3.10900426,31.7491076 1.73881553,31.7491076 0.893861487,32.5902859 C0.0486472928,33.4314641 0.0486472928,34.7951102 0.893861487,35.6360295 L11.5111982,46.2026682 C12.6800339,55.6832056 17.0377388,64.5910479 23.8356126,71.3587918 L26.5809328,74.0907442 C25.7867072,75.4178848 25.3624092,76.9376498 25.3624092,78.5223996 C25.3624092,80.8421772 26.2700584,83.0226645 27.9188634,84.6635965 C29.6048693,86.3392215 31.850189,87.1889436 34.0994109,87.1889436 C34.1980062,87.1889436 34.2968617,87.179882 34.395457,87.1765162 C34.3520127,87.529661 34.3272988,87.8869481 34.3272988,88.2483778 C34.3272988,90.566343 35.2341676,92.7473482 36.8827125,94.3916459 C38.5853677,96.0861709 40.8200214,96.9395176 43.058057,96.9395176 C43.3650293,96.9395176 43.6717413,96.9213944 43.977673,96.8892903 C43.7136248,99.4058347 44.5466122,102.01662 46.4794966,103.942605 C48.127261,105.582501 50.3184704,106.486076 52.6493781,106.486076 C54.4740418,106.486076 56.212337,105.930209 57.672016,104.90262 C59.1673349,106.013835 60.9743087,106.615268 62.8751951,106.615268 C65.2097449,106.615268 67.4025151,105.7104 69.0476781,104.069209 C70.1582412,102.963949 70.9308746,101.612471 71.3179718,100.13905 L72.3122496,101.12858 C74.013344,102.821552 76.2477376,103.667908 78.4823913,103.667908 C80.7162646,103.667908 82.9509183,102.821293 84.6520127,101.12858 C85.7669982,100.018919 86.5417129,98.6614865 86.9272492,97.1815926 C88.5763143,98.6467289 90.6543602,99.3796855 92.7334466,99.3796855 C94.9681003,99.3796855 97.2037946,98.5333291 98.9061897,96.8408753 C100.554214,95.200979 101.461864,93.0189382 101.461864,90.6973483 C101.461864,89.7686606 101.314101,88.8630153 101.033663,88.0044904 C102.948338,87.7665579 104.719671,86.9098454 106.105209,85.5291117 C107.752973,83.8889565 108.660622,81.7082102 108.660622,79.3886915 C108.660622,77.3868478 107.983202,75.4890833 106.738404,73.9522307 L109.345587,71.3574973 C116.1419,64.5910479 120.500385,55.6834645 121.672082,46.2018914 L132.820897,35.1065714 C133.666111,34.2666876 133.666111,32.9027827 132.820897,32.0618633 Z M30.9787001,81.6170761 C30.1483142,80.7906553 29.6909777,79.69135 29.6909777,78.5223996 C29.6909777,78.1195454 29.7489902,77.7260117 29.8543493,77.3480122 L35.2638242,82.7313978 C33.7807321,83.1339931 32.1238626,82.7554759 30.9787001,81.6170761 Z M39.9448904,91.3477145 C39.1132038,90.5184458 38.655347,89.4175871 38.655347,88.2486367 C38.655347,87.6293389 38.787241,87.0310123 39.0312579,86.4811008 L44.831472,92.2531009 C43.2141446,92.9671575 41.2627898,92.659062 39.9448904,91.3477145 Z M52.6498984,102.178694 C51.4750793,102.178435 50.3707597,101.723282 49.5411543,100.897638 C48.2222143,99.5837016 47.9220059,97.6385578 48.6311637,96.0336134 L54.4287764,101.803025 C53.8751858,102.046912 53.2734682,102.178694 52.6498984,102.178694 Z" id="Shape"></path>
                </g>
                <circle id="Oval-4" stroke="#FFFFFF" stroke-width="5" cx="76" cy="76" r="76"></circle>
            </g>
        </g>
    </g>
</svg>