<svg xmlns="http://www.w3.org/2000/svg" width="158" height="158" viewBox="0 0 158 158">
    <g fill="none" fill-rule="evenodd" stroke="#FFF" transform="translate(3 3)">
        <path fill="#FFF" fill-rule="nonzero" d="M141.82 55.062a2.172 2.172 0 0 0-3.06 0l-11.683 11.627c-.35.35-.57.808-.621 1.299-.924 8.789-4.89 17.073-11.171 23.325l-2.57 2.557-19.28-19.187c.932.169 1.884.265 2.847.265 1.708 0 3.455-.297 5.189-1.004a2.15 2.15 0 0 0 1.184-2.809 2.167 2.167 0 0 0-2.822-1.177c-7.517 3.06-16.357-5.213-17.34-6.166-.017-.015-3.016-3-3.016-3l3.088-3.072a2.146 2.146 0 0 0 0-3.045 2.171 2.171 0 0 0-3.061 0l-4.615 4.593h-.001v.001l-3.301 3.285a12.502 12.502 0 0 1-8.878 3.66 12.496 12.496 0 0 1-8.767-3.555L73.81 42.885a19.017 19.017 0 0 1 13.45-5.546c5.083 0 9.86 1.97 13.45 5.546.406.404.957.631 1.53.631h.001a2.17 2.17 0 0 0 1.53-.63l12.419-12.357a2.146 2.146 0 0 0 0-3.046 2.171 2.171 0 0 0-3.06 0l-10.958 10.903c-4.181-3.467-9.4-5.354-14.912-5.354-4.016 0-7.939 1.023-11.407 2.96a18.178 18.178 0 0 0-4.56-.582c-4.101 0-7.995 1.35-11.169 3.838L44.485 23.684a2.17 2.17 0 0 0-3.06 0 2.146 2.146 0 0 0 0 3.046l17.079 16.997c.422.42.976.63 1.53.63.553 0 1.107-.21 1.53-.63a13.7 13.7 0 0 1 9.302-4L50.774 59.72a4.153 4.153 0 0 0 0 5.88 16.809 16.809 0 0 0 11.935 4.921c4.51 0 8.749-1.747 11.938-4.92l1.77-1.763 35.628 35.458a4.337 4.337 0 0 1 1.288 3.094 4.338 4.338 0 0 1-1.29 3.096 4.376 4.376 0 0 1-3.108 1.283 4.377 4.377 0 0 1-3.11-1.284v.002L78.87 78.664a2.172 2.172 0 0 0-3.061 0 2.147 2.147 0 0 0 0 3.047l29.036 28.893a4.337 4.337 0 0 1 1.288 3.095 4.34 4.34 0 0 1-1.287 3.097 4.421 4.421 0 0 1-6.223 0l-4.9-4.876a2.974 2.974 0 0 0-.074-.076l-.027-.024L71.1 89.405a2.171 2.171 0 0 0-3.06 0 2.146 2.146 0 0 0 0 3.045l22.595 22.487a4.334 4.334 0 0 1 1.245 3.052 4.337 4.337 0 0 1-1.288 3.095 4.417 4.417 0 0 1-6.219 0L59.88 96.707a2.171 2.171 0 0 0-3.06 0 2.146 2.146 0 0 0 0 3.045l18.169 18.083a4.338 4.338 0 0 1 1.288 3.094 4.339 4.339 0 0 1-1.29 3.097 4.374 4.374 0 0 1-3.11 1.283 4.372 4.372 0 0 1-3.11-1.285l-32.87-32.711c-6.281-6.254-10.247-14.537-11.168-23.325a2.148 2.148 0 0 0-.622-1.3L12.954 55.59a2.171 2.171 0 0 0-3.06 0 2.146 2.146 0 0 0 0 3.046L20.51 69.203a43.033 43.033 0 0 0 12.325 25.156l2.745 2.732a8.598 8.598 0 0 0-1.219 4.431c0 2.32.908 4.5 2.557 6.142 1.686 1.675 3.931 2.525 6.18 2.525.099 0 .198-.01.296-.012a8.62 8.62 0 0 0 2.487 7.215 8.731 8.731 0 0 0 7.096 2.497 8.655 8.655 0 0 0 2.501 7.054 8.69 8.69 0 0 0 6.17 2.543 8.687 8.687 0 0 0 5.023-1.583 8.681 8.681 0 0 0 5.203 1.712 8.682 8.682 0 0 0 6.173-2.546 8.623 8.623 0 0 0 2.27-3.93l.994.99a8.72 8.72 0 0 0 6.17 2.539 8.721 8.721 0 0 0 6.17-2.54 8.622 8.622 0 0 0 2.275-3.946 8.723 8.723 0 0 0 5.806 2.198 8.73 8.73 0 0 0 6.173-2.54 8.61 8.61 0 0 0 2.556-6.143 8.66 8.66 0 0 0-.428-2.693 8.667 8.667 0 0 0 5.071-2.475 8.607 8.607 0 0 0 2.556-6.14c0-2.002-.678-3.9-1.923-5.437l2.608-2.595a43.054 43.054 0 0 0 12.326-25.155l11.149-11.095a2.145 2.145 0 0 0 0-3.045zM39.98 104.617a4.338 4.338 0 0 1-1.125-4.269l5.41 5.383c-1.483.403-3.14.024-4.285-1.114zm8.966 9.73a4.35 4.35 0 0 1-1.29-3.098c0-.62.132-1.218.376-1.768l5.8 5.772a4.407 4.407 0 0 1-4.886-.905zM61.65 125.18a4.38 4.38 0 0 1-3.109-1.281 4.37 4.37 0 0 1-.91-4.864l5.798 5.769a4.4 4.4 0 0 1-1.78.376z"/>
        <circle cx="76" cy="76" r="76" stroke-width="5"/>
    </g>
</svg>
