<svg xmlns="http://www.w3.org/2000/svg" xmlns:xlink="http://www.w3.org/1999/xlink" width="110" height="110" viewBox="0 0 110 110">
    <defs>
        <circle id="b" cx="35" cy="35" r="35"/>
        <filter id="a" width="190%" height="190%" x="-45%" y="-40.7%" filterUnits="objectBoundingBox">
            <feOffset dy="3" in="SourceAlpha" result="shadowOffsetOuter1"/>
            <feGaussianBlur in="shadowOffsetOuter1" result="shadowBlurOuter1" stdDeviation="10"/>
            <feColorMatrix in="shadowBlurOuter1" values="0 0 0 0 0 0 0 0 0 0 0 0 0 0 0 0 0 0 0.16 0"/>
        </filter>
    </defs>
    <g fill="none" fill-rule="evenodd">
        <g transform="translate(20 17)">
            <use fill="#000" filter="url(#a)" xlink:href="#b"/>
            <use fill="#BB80EF" xlink:href="#b"/>
        </g>
        <g fill-rule="nonzero">
            <path fill="#DE5E47" d="M50.75 42.993a.703.703 0 0 1 .753-.454.699.699 0 0 1 .61.63l1.124 12.967 2.104-7.492a.7.7 0 0 1 .693-.509.701.701 0 0 1 .67.539l1.17 5.02 2.001-8.302a.704.704 0 0 1 .717-.533.7.7 0 0 1 .663.597l1.493 10.514.67-2.136a.702.702 0 0 1 .671-.49h7.522c1.104-1.642 1.89-3.277 2.151-4.85.574-3.48.014-6.35-1.667-8.53-1.698-2.2-4.276-3.454-7.891-3.837a9.792 9.792 0 0 0-.98-.05c-2.557 0-5.137.94-7.119 2.529-1.98-1.59-4.56-2.53-7.114-2.53-.318 0-.632.017-.982.051-3.615.383-6.196 1.638-7.892 3.838-1.68 2.18-2.24 5.05-1.667 8.53.266 1.597 1.071 3.258 2.202 4.926h6.311l3.788-10.428z"/>
            <path fill="#DE5E47" d="M63.161 59.352a.703.703 0 0 1-.728.487.7.7 0 0 1-.64-.596l-1.412-9.949-1.833 7.607a.701.701 0 0 1-.684.534h-.002a.701.701 0 0 1-.683-.539l-1.224-5.244-2.408 8.575a.702.702 0 0 1-.743.506.699.699 0 0 1-.635-.632l-1.182-13.645-2.867 7.894a.703.703 0 0 1-.662.46h-5.793c2.338 3.01 5.542 5.987 8.35 8.596 0 0 2.392 2.373 3.11 2.98.542.46 1.712 1.38 2.983 1.38 1.268 0 2.441-.92 2.98-1.38.718-.607 3.11-2.98 3.11-2.98 2.832-2.63 6.066-5.638 8.409-8.673h-5.999l-1.447 4.619z"/>
            <path fill="#FFF" d="M73.141 53.344H64.09a.702.702 0 0 0-.672.49l-.67 2.136-1.492-10.514a.7.7 0 0 0-.664-.597.704.704 0 0 0-.717.533l-2 8.303-1.172-5.021a.701.701 0 0 0-.67-.539.7.7 0 0 0-.692.51l-2.104 7.49-1.124-12.967a.698.698 0 0 0-.61-.63.703.703 0 0 0-.752.455L46.963 53.42h-9.26a.699.699 0 0 0-.703.694c0 .384.315.695.703.695h9.755a.703.703 0 0 0 .662-.46l2.867-7.894 1.182 13.645a.699.699 0 0 0 .701.635.702.702 0 0 0 .677-.509l2.408-8.575 1.224 5.244a.701.701 0 0 0 .683.539h.002c.325 0 .609-.221.684-.534l1.833-7.607 1.412 9.949a.7.7 0 0 0 .64.596.703.703 0 0 0 .728-.487l1.447-4.619h8.533a.699.699 0 0 0 .703-.694.699.699 0 0 0-.703-.695z"/>
        </g>
    </g>
</svg>
