<?xml version="1.0" encoding="UTF-8"?>
<svg width="81px" height="81px" viewBox="0 0 81 81" version="1.1" xmlns="http://www.w3.org/2000/svg" xmlns:xlink="http://www.w3.org/1999/xlink">
    <!-- Generator: sketchtool 42 (36781) - http://www.bohemiancoding.com/sketch -->
    <title>217BD969-8166-4613-B31F-B000424A9583</title>
    <desc>Created with sketchtool.</desc>
    <defs></defs>
    <g id="Public-Content" stroke="none" stroke-width="1" fill="none" fill-rule="evenodd">
        <g id="Landing-Page" transform="translate(-792.000000, -1365.000000)" fill-rule="nonzero">
            <g id="human-resources" transform="translate(792.000000, 1365.000000)">
                <g id="Layer_1">
                    <path d="M79.8554211,75.2355527 L65.5162105,60.8683359 C70.8757895,54.4278867 74.1052105,46.1491172 74.1052105,37.1277422 C74.1052105,16.6570488 57.4834737,0.00268945313 37.0525263,0.00268945313 C16.6215789,0.00268945313 0,16.6567324 0,37.1277422 C0,57.598752 16.6217368,74.2527949 37.0526842,74.2527949 C46.0591579,74.2527949 54.3246316,71.0148516 60.7531579,65.6417988 L75.0920526,80.0086992 C75.7498421,80.6677734 76.6119474,80.9973105 77.4737368,80.9973105 C78.3355263,80.9973105 79.1979474,80.6679316 79.8554211,80.0086992 C81.1711579,78.6903926 81.1711579,76.5533848 79.8554211,75.2355527 Z" id="Shape" fill="#9BC9FF"></path>
                    <path d="M37.0526842,6.75274219 C20.3365263,6.75274219 6.73689474,20.3787773 6.73689474,37.1277422 C6.73689474,53.8765488 20.3365263,67.5027422 37.0526842,67.5027422 C53.7688421,67.5027422 67.3684737,53.8765488 67.3684737,37.1277422 C67.3684737,20.3787773 53.7686842,6.75274219 37.0526842,6.75274219 Z M21.3333158,52.8776543 C21.3333158,44.1785391 28.3713158,37.127584 37.0526842,37.127584 C31.4718947,37.127584 26.9472632,32.5944316 26.9472632,27.002584 C26.9472632,21.4107363 31.4718947,16.877584 37.0526842,16.877584 C42.6334737,16.877584 47.1579474,21.4104199 47.1579474,27.0024258 C47.1579474,32.5944316 42.6334737,37.1274258 37.0526842,37.1274258 C45.7337368,37.1274258 52.7717368,44.1782227 52.7717368,52.8774961 L21.3333158,52.8774961 L21.3333158,52.8776543 Z" id="Shape" fill="#E8F1FA"></path>
                    <ellipse id="Oval" fill="#EFC27B" cx="37.0526842" cy="27.0021094" rx="10.1052632" ry="10.125"></ellipse>
                    <path d="M37.0526842,37.1277422 C28.3713158,37.1277422 21.3333158,44.1785391 21.3333158,52.8778125 L37.0526842,52.8778125 L52.7717368,52.8778125 C52.7717368,44.1785391 45.7337368,37.1277422 37.0526842,37.1277422 Z" id="Shape" fill="#5286FA"></path>
                    <path d="M26.9471053,27.0024258 C26.9471053,32.5945898 31.4717368,37.1274258 37.0525263,37.1274258 L37.0525263,16.8774258 C31.4718947,16.8777422 26.9471053,21.4105781 26.9471053,27.0024258 Z" id="Shape" fill="#ECB45C"></path>
                    <path d="M21.3333158,52.8776543 L37.0526842,52.8776543 L37.0526842,37.127584 C28.3713158,37.1277422 21.3333158,44.1785391 21.3333158,52.8776543 Z" id="Shape" fill="#3D6DEB"></path>
                </g>
            </g>
        </g>
    </g>
</svg>