<?xml version="1.0" encoding="UTF-8"?>
<svg width="1440px" height="968px" viewBox="0 0 1440 968" version="1.1" xmlns="http://www.w3.org/2000/svg" xmlns:xlink="http://www.w3.org/1999/xlink">
    <!-- Generator: sketchtool 42 (36781) - http://www.bohemiancoding.com/sketch -->
    <title>1008F48E-2CDA-451B-A528-EC3B195EE105</title>
    <desc>Created with sketchtool.</desc>
    <defs>
        <linearGradient x1="23.1181627%" y1="0%" x2="85.9070401%" y2="103.951741%" id="linearGradient-1">
            <stop stop-color="#105CDF" offset="0%"></stop>
            <stop stop-color="#00BAFF" offset="100%"></stop>
        </linearGradient>
        <rect id="path-2" x="284" y="0" width="1548" height="1094"></rect>
        <mask id="mask-3" maskContentUnits="userSpaceOnUse" maskUnits="objectBoundingBox" x="0" y="0" width="1548" height="1094" fill="white">
            <use xlink:href="#path-2"></use>
        </mask>
    </defs>
    <g id="Public-Content" stroke="none" stroke-width="1" fill="none" fill-rule="evenodd">
        <g id="Landing-Page">
            <g id="Group-3" transform="translate(-343.000000, -165.000000)">
                <use id="Rectangle-4" stroke="#979797" mask="url(#mask-3)" stroke-width="2" fill="url(#linearGradient-1)" xlink:href="#path-2"></use>
                <g id="Group" opacity="0.100000001" transform="translate(284.000000, 272.000000)">
                    <rect id="Rectangle" fill="#2C2C2C" x="1.64054196" y="658.561871" width="1558.43911" height="29.2104056"></rect>
                    <path d="M242.179857,5.00068492 C242.202382,2.2388829 244.453215,0 247.212819,0 L264.79547,0 C267.552573,0 269.803789,2.23948337 269.823692,5.00068492 L275.84052,839.731109 C275.860427,842.492911 273.638907,844.731794 270.884569,844.731794 L240.323019,844.731794 C237.566016,844.731794 235.349288,842.492311 235.371809,839.731109 L242.179857,5.00068492 Z" id="Rectangle-2" fill="#2C2C2C"></path>
                    <path d="M381.252241,5.00068492 C381.275504,2.2388829 383.527205,0 386.300903,0 L397.527198,0 C400.292234,0 402.552575,2.23948337 402.5758,5.00068492 L409.596914,839.731109 C409.620144,842.492911 407.39389,844.731794 404.633626,844.731794 L379.18428,844.731794 C376.419902,844.731794 374.197794,842.492311 374.221053,839.731109 L381.252241,5.00068492 Z" id="Rectangle-2" fill="#2C2C2C"></path>
                    <path d="M914.892728,107.710445 C914.915329,104.952879 917.166492,102.717429 919.940191,102.717429 L931.166485,102.717429 C933.931521,102.717429 936.191427,104.961179 936.213974,107.710445 L942.167852,833.690109 C942.190468,836.447676 939.971712,838.683126 937.204378,838.683126 L913.906159,838.683126 C911.142292,838.683126 908.920125,836.439375 908.942658,833.690109 L914.892728,107.710445 Z" id="Rectangle-2" fill="#2C2C2C"></path>
                    <path d="M1039.67407,107.710445 C1039.69666,104.952879 1041.94782,102.717429 1044.72152,102.717429 L1055.94781,102.717429 C1058.71285,102.717429 1060.97273,104.961179 1060.99525,107.710445 L1066.94125,833.690109 C1066.96383,836.447676 1064.74572,838.683126 1061.97921,838.683126 L1038.68795,838.683126 C1035.92491,838.683126 1033.7034,836.439375 1033.72593,833.690109 L1039.67407,107.710445 Z" id="Rectangle-2" fill="#2C2C2C"></path>
                    <path d="M378.315371,63.7317939 L391.914051,63.7317939 L391.914051,26.5549141 L259.167959,26.5549141 L259.167959,63.7317939 L272.766639,63.7317939 C275.701473,57.757004 298.209743,53.1098283 325.541005,53.1098283 C352.872267,53.1098283 375.380536,57.757004 378.315371,63.7317939 Z" id="Combined-Shape" fill="#2C2C2C"></path>
                    <path d="M378.315371,191.195382 L391.914051,191.195382 L391.914051,154.018502 L259.167959,154.018502 L259.167959,191.195382 L272.766639,191.195382 C275.701473,185.220592 298.209743,180.573416 325.541005,180.573416 C352.872267,180.573416 375.380536,185.220592 378.315371,191.195382 Z" id="Combined-Shape" fill="#2C2C2C"></path>
                    <path d="M378.315371,316.003478 L391.914051,316.003478 L391.914051,278.826599 L259.167959,278.826599 L259.167959,316.003478 L272.766639,316.003478 C275.701473,310.028688 298.209743,305.381513 325.541005,305.381513 C352.872267,305.381513 375.380536,310.028688 378.315371,316.003478 Z" id="Combined-Shape" fill="#2C2C2C"></path>
                    <path d="M1042.04583,169.951451 L1055.64451,169.951451 L1055.64451,132.774571 L922.898416,132.774571 L922.898416,169.951451 L936.497095,169.951451 C939.43193,163.976661 961.9402,159.329485 989.271462,159.329485 C1016.60272,159.329485 1039.11099,163.976661 1042.04583,169.951451 Z" id="Combined-Shape" fill="#2C2C2C"></path>
                    <path d="M1042.04583,422.223135 L1055.64451,422.223135 L1055.64451,385.046255 L922.898416,385.046255 L922.898416,422.223135 L936.497095,422.223135 C939.43193,416.248345 961.9402,411.601169 989.271462,411.601169 C1016.60272,411.601169 1039.11099,416.248345 1042.04583,422.223135 Z" id="Combined-Shape" fill="#2C2C2C"></path>
                    <path d="M1042.04583,297.415038 L1055.64451,297.415038 L1055.64451,260.238159 L922.898416,260.238159 L922.898416,297.415038 L936.497095,297.415038 C939.43193,291.440249 961.9402,286.793073 989.271462,286.793073 C1016.60272,286.793073 1039.11099,291.440249 1042.04583,297.415038 Z" id="Combined-Shape" fill="#2C2C2C"></path>
                    <path d="M383.949285,41.1100331 L397.070458,31.865897 C397.070458,31.865897 522.721821,559.641431 648.241769,583.925008 C773.761716,608.208585 1041.44644,140.394076 1041.44644,140.394076 L1054.82424,151.146748 C1054.82424,151.146748 789.860115,628.193829 644.36646,600.277193 C498.872805,572.360558 383.949285,41.1100331 383.949285,41.1100331 Z" id="Path-2" fill="#2C2C2C"></path>
                    <path d="M267.132725,41.1100331 L280.253897,31.865897 C280.253897,31.865897 405.905261,559.641431 531.425208,583.925008 C656.945155,608.208585 924.629875,140.394076 924.629875,140.394076 L938.007684,151.146748 C938.007684,151.146748 673.043555,628.193829 527.549899,600.277193 C382.056244,572.360558 267.132725,41.1100331 267.132725,41.1100331 Z" id="Path-2" fill="#2C2C2C"></path>
                    <path d="M1560.46681,580.940956 C1195.2812,539.493206 932.631068,363.918188 928.308208,177.917925 L930.392317,177.917925 L914.933651,177.917925 C914.933651,383.165974 1193.42821,554.844946 1560.46681,596.229871 L1560.46681,580.940956 Z" id="Oval-2" fill="#2C2C2C"></path>
                    <path d="M1560.63189,499.255966 C1263.17172,435.953451 1059.54643,280.429645 1055.74446,116.841622 L1057.82856,116.841622 L1042.3699,116.841622 C1042.3699,297.47254 1258.06626,452.103928 1559.98585,514.806593 L1560.63189,499.255966 Z" id="Oval-2" fill="#2C2C2C"></path>
                    <path d="M0.299071089,490.783882 C159.4522,398.255123 265.944294,219.106529 265.944294,13.2774571 L252.46561,13.2774571 C252.46561,213.591398 149.434108,383.805719 0.0830383313,474.39965 L0.299071089,490.783882 Z" id="Oval-3" fill="#2C2C2C"></path>
                    <path d="M1.23130031,620.851861 C230.62992,565.324109 398.690386,348.858302 398.690386,90.2867081 L385.211701,90.2867081 C385.211701,345.538079 217.916359,551.915794 0.665433556,606.958967 L1.23130031,620.851861 Z" id="Oval-3" fill="#2C2C2C"></path>
                    <path d="M503.420767,675.822565 L503.420767,406.237867" id="Line" stroke="#2C2C2C" stroke-width="2" stroke-linecap="square" fill="#052A54"></path>
                    <path d="M556.519204,675.822565 L556.519204,509.833109" id="Line" stroke="#2C2C2C" stroke-width="2" stroke-linecap="square" fill="#052A54"></path>
                    <path d="M609.61764,675.822565 L609.61764,568.275163" id="Line" stroke="#2C2C2C" stroke-width="2" stroke-linecap="square" fill="#052A54"></path>
                    <path d="M662.716077,675.822565 L662.716077,525.763802" id="Line" stroke="#2C2C2C" stroke-width="2" stroke-linecap="square" fill="#052A54"></path>
                    <path d="M715.814513,675.822565 L715.814513,472.608059" id="Line" stroke="#2C2C2C" stroke-width="2" stroke-linecap="square" fill="#052A54"></path>
                    <path d="M768.91295,675.822565 L768.91295,395.466929" id="Line" stroke="#2C2C2C" stroke-width="2" stroke-linecap="square" fill="#052A54"></path>
                    <path d="M822.011387,675.822565 L822.011387,329.240241" id="Line" stroke="#2C2C2C" stroke-width="2" stroke-linecap="square" fill="#052A54"></path>
                    <path d="M875.109823,675.822565 L875.109823,241.641598" id="Line" stroke="#2C2C2C" stroke-width="2" stroke-linecap="square" fill="#052A54"></path>
                    <path d="M1116.70771,675.822565 L1116.70771,278.684524" id="Line" stroke="#2C2C2C" stroke-width="2" stroke-linecap="square" fill="#052A54"></path>
                    <path d="M1169.80615,675.822565 L1169.80615,337.205757" id="Line" stroke="#2C2C2C" stroke-width="2" stroke-linecap="square" fill="#052A54"></path>
                    <path d="M1222.90458,675.822565 L1222.90458,382.198574" id="Line" stroke="#2C2C2C" stroke-width="2" stroke-linecap="square" fill="#052A54"></path>
                    <path d="M1276.00302,675.822565 L1276.00302,411.601169" id="Line" stroke="#2C2C2C" stroke-width="2" stroke-linecap="square" fill="#052A54"></path>
                    <path d="M1329.10146,675.822565 L1329.10146,435.485921" id="Line" stroke="#2C2C2C" stroke-width="2" stroke-linecap="square" fill="#052A54"></path>
                    <path d="M1382.19989,675.822565 L1382.19989,456.72843" id="Line" stroke="#2C2C2C" stroke-width="2" stroke-linecap="square" fill="#052A54"></path>
                    <path d="M1435.29833,675.822565 L1435.29833,480.643946" id="Line" stroke="#2C2C2C" stroke-width="2" stroke-linecap="square" fill="#052A54"></path>
                    <path d="M1488.39677,675.822565 L1488.39677,493.902021" id="Line" stroke="#2C2C2C" stroke-width="2" stroke-linecap="square" fill="#052A54"></path>
                    <path d="M450.322331,675.822565 L450.322331,259.21286" id="Line" stroke="#2C2C2C" stroke-width="2" stroke-linecap="square" fill="#052A54"></path>
                    <path d="M198.104757,675.822565 L198.104757,270.860124" id="Line" stroke="#2C2C2C" stroke-width="2" stroke-linecap="square" fill="#052A54"></path>
                    <path d="M145.006321,675.822565 L145.006321,353.16943" id="Line" stroke="#2C2C2C" stroke-width="2" stroke-linecap="square" fill="#052A54"></path>
                    <path d="M91.9078841,675.822565 L91.9078841,410.948112" id="Line" stroke="#2C2C2C" stroke-width="2" stroke-linecap="square" fill="#052A54"></path>
                </g>
                <g id="Group-2" transform="translate(0.000000, 990.000000)">
                    <path d="M0,125.382187 C0,125.382187 240.124961,18.3702741 443.791952,9.46994841 C647.458943,0.5696227 694.912573,81.6488606 1018.81281,80.8596759 C1342.71306,80.0704911 1418.15154,-4.27463232 1697.13617,6.41616807 C1976.1208,17.1069685 1994.33623,118.242116 1994.33623,118.242116 L0,125.382187 Z" id="Path-3-Copy-3" fill-opacity="0.300000012" fill="#07366D"></path>
                    <path d="M765,130.178105 C765,130.178105 1005.12496,23.1661925 1208.79195,14.2658668 C1412.45894,5.36554107 1459.91257,86.444779 1783.81281,85.6555942 C2107.71306,84.8664094 2183.15154,0.521286051 2462.13617,11.2120864 C2741.1208,21.9028868 2759.33623,123.038034 2759.33623,123.038034 L765,130.178105 Z" id="Path-3-Copy-2" fill-opacity="0.300000012" fill="#07366D"></path>
                    <path d="M323,140.635964 C323,140.635964 576.930874,15.1197188 792.307638,4.68036276 C1007.6844,-5.75899328 1057.86636,89.3403391 1400.38915,88.4146897 C1742.91194,87.4890403 1822.68774,-11.4409093 2117.71251,1.09852752 C2412.73728,13.6379643 2432,132.261242 2432,132.261242 L323,140.635964 Z" id="Path-3-Copy" fill-opacity="0.300000012" fill="#07366D"></path>
                    <path d="M295.835659,141.479699 C295.835659,141.479699 239.961661,50.4082323 293.67687,42.9188061 C347.39208,35.4293799 437.63755,97.5984557 572.429027,102.914725 C707.220505,108.230995 763.041028,71.1023332 965.988461,69.4352429 C1168.93589,67.7681525 1158.71633,101.937722 1413.56235,96.0053241 C1668.40836,90.0729261 1841.91966,49.0449988 1841.91966,49.0449988 L1843.94422,142.155619 L295.835659,141.479699 Z" id="Path-5-Copy" fill="#FBFBFC"></path>
                </g>
            </g>
        </g>
    </g>
</svg>