<svg xmlns="http://www.w3.org/2000/svg" xmlns:xlink="http://www.w3.org/1999/xlink" width="1440" height="605" viewBox="0 0 1440 605">
    <defs>
        <path id="a" d="M.393 21.13c192.537 65.81 361.007 98.714 505.41 98.714 216.603 0 296.872-119.68 504.602-119.68 138.487 0 329.71 47.278 573.67 141.833V616l-1573.973-.733L.393 21.131z"/>
        <filter id="b" width="101%" height="102.6%" x="-.5%" y="-1.3%" filterUnits="objectBoundingBox">
            <feMorphology in="SourceAlpha" radius="5" result="shadowSpreadInner1"/>
            <feGaussianBlur in="shadowSpreadInner1" result="shadowBlurInner1" stdDeviation="5"/>
            <feOffset dy="1" in="shadowBlurInner1" result="shadowOffsetInner1"/>
            <feComposite in="shadowOffsetInner1" in2="SourceAlpha" k2="-1" k3="1" operator="arithmetic" result="shadowInnerInner1"/>
            <feColorMatrix in="shadowInnerInner1" values="0 0 0 0 0.0235294118 0 0 0 0 0.0980392157 0 0 0 0 0.203921569 0 0 0 0.2 0"/>
        </filter>
    </defs>
    <g fill="none" fill-rule="evenodd" transform="translate(-47 -11)">
        <mask id="c" fill="#fff">
            <use xlink:href="#a"/>
        </mask>
        <g transform="matrix(1 0 0 -1 0 616.165)">
            <use fill="#2F90E5" xlink:href="#a"/>
            <use fill="#000" filter="url(#b)" xlink:href="#a"/>
        </g>
        <path fill="#F9FBFD" fill-opacity=".15" d="M-5.896 549.548c86.741-91.748 196.02-137.622 327.835-137.622 197.723 0 287.74 66.845 485.463 66.845s398.198-153.743 595.92-153.743c131.816 0 192.876 41.425 183.18 124.274v523.85L4.716 965-5.896 549.55z" mask="url(#c)"/>
    </g>
</svg>
