<svg xmlns="http://www.w3.org/2000/svg" width="71" height="84" viewBox="0 0 71 84">
    <g fill="none" fill-rule="nonzero">
        <path fill="#F15540" d="M46.243 13.904c-3.621-1.058-6.903-.498-9.548 1.205l-.007.002a6.944 6.944 0 0 0-.189.122c-.32.194-.698.303-1.1.303-.403 0-.78-.11-1.101-.303-.062-.04-.125-.084-.187-.122l-.008-.002c-2.645-1.703-5.927-2.263-9.546-1.205-8.166 2.39-10.415 10.79-6.863 18.764 4.238 9.522 11.62 13.07 15.878 11.82a5.967 5.967 0 0 0 1.305-.563c.157-.082.332-.126.522-.126a1.114 1.114 0 0 1 .576.156c.412.233.828.41 1.25.534 4.26 1.25 11.64-2.3 15.878-11.82 3.552-7.975 1.303-16.375-6.86-18.765z"/>
        <g fill="#39C4AD">
            <path d="M34.26 13.125c-.143-.12-.304-.257-.482-.404-.086-.074-.177-.149-.267-.233l-.279-.26-.293-.275c-.1-.096-.194-.199-.296-.3-.194-.208-.405-.413-.596-.645-.189-.228-.4-.448-.577-.692-.18-.24-.377-.469-.542-.72l-.25-.364c-.083-.12-.166-.236-.233-.355-.149-.239-.289-.461-.423-.687-.12-.227-.237-.44-.345-.638a7.47 7.47 0 0 0-.15-.282c-.046-.089-.083-.18-.12-.26l-.198-.426a32.44 32.44 0 0 1-.168-.372l.216.346c.07.11.153.244.247.398.05.075.095.16.155.243.06.081.12.167.184.258.133.178.267.373.418.578.148.193.326.404.498.62.085.113.18.212.274.318.096.103.19.208.284.315.185.215.405.414.61.623.2.209.428.394.635.586.21.197.434.365.642.537.11.084.213.172.315.247.107.076.211.15.313.226.098.071.198.141.29.21.097.067.196.125.285.186l.494.317c.15.087.281.16.388.223a14.105 14.105 0 0 0-2.378-7.196A14.198 14.198 0 0 0 26.503 0a8.431 8.431 0 0 0-.147 9.6c1.844 2.763 5.038 4.09 8.136 3.7l-.233-.175zM41.57 8.048a5.085 5.085 0 0 0-3.89 1.478 5.05 5.05 0 0 0-1.484 3.878c1.4.08 2.821-.413 3.889-1.477a5.036 5.036 0 0 0 1.485-3.879z"/>
        </g>
        <path fill="#80DCFF" d="M10.015 69.794a5.902 5.902 0 0 1-1.745-4.206c0-1.588.62-3.08 1.745-4.204a5.94 5.94 0 0 1 4.22-1.74h49.492c.464 0 .84-.372.84-.834v-.362a.838.838 0 0 0-.84-.835H14.235a7.983 7.983 0 0 0-5.658 2.337 7.952 7.952 0 0 0 0 11.28 7.992 7.992 0 0 0 5.658 2.334h49.492c.464 0 .84-.373.84-.838v-.355a.839.839 0 0 0-.84-.838H14.235a5.947 5.947 0 0 1-4.22-1.74z"/>
        <path fill="#E6EAEE" d="M14.235 71.533a5.946 5.946 0 0 1-4.22-1.74 5.902 5.902 0 0 1-1.745-4.205c0-1.588.62-3.08 1.745-4.204a5.94 5.94 0 0 1 4.22-1.74h48.293v11.89H14.235z"/>
        <rect width="70.578" height="10.046" x=".11" y="73.564" fill="#F15540" rx="5.023"/>
        <g fill="#E6EAEE">
            <path d="M12.21 73.564h6.05V83.61h-6.05zM8.178 73.564h2.013V83.61H8.178zM52.536 73.564h6.051V83.61h-6.05zM60.606 73.564h2.014V83.61h-2.014z"/>
        </g>
        <path fill="#34495E" d="M66.92 45.543a2.82 2.82 0 0 0-1.997-.823H3.887a.839.839 0 0 0-.84.835v-.029c0 .46.376.835.84.835h61.036c.313 0 .61.122.831.343.222.222.346.516.346.83V54.8a1.17 1.17 0 0 1-1.177 1.171H3.887a.836.836 0 0 0-.84.835v-.028c0 .46.376.835.84.835h61.036c.722 0 1.446-.276 1.998-.824.55-.55.827-1.27.827-1.99v-7.265a2.81 2.81 0 0 0-.828-1.991z"/>
        <path fill="#E6EAEE" d="M4.697 55.971v-9.61h60.226c.313 0 .61.122.83.343.222.222.346.516.346.83V54.8a1.17 1.17 0 0 1-1.176 1.171H4.697z"/>
        <g fill="#AAB5BD">
            <path d="M35.4 47.01h30.512a1.427 1.427 0 0 0-.158-.236 1.079 1.079 0 0 0-.83-.413H35.398v.649zM35.4 55.073h30.687c.007-.065.013-.13.013-.198v-.451H35.4v.649zM35.399 49.384h30.7v1h-30.7zM35.399 50.391h30.7v1h-30.7zM35.4 48.018h30.7v-.45a1.69 1.69 0 0 0-.013-.2H35.399v.65zM35.399 53.416h30.7v1h-30.7zM35.399 51.4h30.7v1h-30.7zM35.399 52.41h30.7v1h-30.7zM35.4 56.082h29.523c.313 0 .61-.146.831-.411.06-.073.113-.153.158-.238H35.4v.65zM35.399 48.376h30.7v1h-30.7z"/>
        </g>
        <g fill="#E6EAEE">
            <path d="M35.4 47.55h30.687a2.023 2.023 0 0 0-.175-.65H35.399v.65zM35.399 47.908h30.7v1h-30.7zM35.399 48.916h30.7v1h-30.7zM35.399 49.925h30.7v1h-30.7zM35.399 50.933h30.7v1h-30.7zM35.399 51.939h30.7v1h-30.7zM35.399 52.948h30.7v1h-30.7zM35.399 53.957h30.7v1h-30.7zM35.4 55.614h30.512c.092-.197.15-.417.175-.65H35.399v.65z"/>
        </g>
        <path fill="#F15540" d="M59.093 53.416h-3.975v8.096c0 .462.266.571.594.244l1.394-1.39 1.394 1.39c.327.327.593.22.593-.244v-8.096z"/>
    </g>
</svg>
