<svg xmlns="http://www.w3.org/2000/svg" width="104" height="104" viewBox="0 0 104 104">
    <g fill="none" fill-rule="evenodd" transform="translate(2 2)">
        <circle cx="50" cy="50" r="50" stroke="#FFF" stroke-width="3.289"/>
        <path fill="#FFF" fill-rule="nonzero" d="M82.44 77.272L63.152 57.984c3.202-4.273 5.123-9.557 5.123-15.294 0-14.108-11.477-25.585-25.585-25.585S17.105 28.582 17.105 42.69 28.582 68.275 42.69 68.275c5.737 0 11.021-1.921 15.294-5.123L77.272 82.44l5.168-5.168zM19.542 42.69c0-12.764 10.384-23.148 23.148-23.148S65.838 29.926 65.838 42.69 55.454 65.838 42.69 65.838 19.542 55.454 19.542 42.69zm40.895 18.388c.217-.21.43-.423.64-.64.178-.183.37-.353.542-.542l17.376 17.376-1.724 1.724L59.896 61.62c.19-.172.357-.364.541-.54z"/>
    </g>
</svg>
