<svg xmlns="http://www.w3.org/2000/svg" width="80" height="80" viewBox="0 0 80 80">
    <g fill="#FFF" fill-rule="evenodd">
        <circle cx="40" cy="40" r="40" fill-opacity=".2"/>
        <g fill-rule="nonzero" stroke="#FFF">
            <path d="M60.583 24.875H43.229c-.347 0-.683-.124-.947-.348L39.1 21.812a3.41 3.41 0 0 0-2.21-.812H25.483c-1.332 0-2.417 1.072-2.417 2.39v3.194h-3.649c-1.333 0-2.417 1.072-2.417 2.39V57.61c0 1.318 1.084 2.39 2.417 2.39h35.1c1.332 0 2.417-1.072 2.417-2.39v-3.193h3.649c1.333 0 2.417-1.072 2.417-2.39V27.265c0-1.318-1.084-2.39-2.417-2.39zM55 57.61a.481.481 0 0 1-.483.478h-35.1a.481.481 0 0 1-.483-.478V37.962H55V57.61zm0-21.56H18.934v-7.076c0-.264.216-.478.483-.478h11.405c.348 0 .684.123.947.348l3.184 2.714a3.408 3.408 0 0 0 2.21.812h17.354c.266 0 .483.215.483.478v3.202zm6.066 15.977a.481.481 0 0 1-.483.478h-3.65V32.848c0-1.318-1.084-2.39-2.416-2.39H37.163a1.46 1.46 0 0 1-.947-.348l-3.184-2.714a3.408 3.408 0 0 0-2.21-.812H25V23.39c0-.264.217-.478.483-.478H36.89c.347 0 .684.124.947.348l3.184 2.715c.614.524 1.4.812 2.21.812h17.353c.267 0 .483.214.483.478v24.762z"/>
            <path d="M50.999 41H45a1 1 0 1 0 0 2H51a1 1 0 1 0 0-2zM50.999 46H45a1 1 0 1 0 0 2H51a1 1 0 1 0 0-2z"/>
        </g>
    </g>
</svg>
