<svg xmlns="http://www.w3.org/2000/svg" width="92" height="93" viewBox="0 0 92 93">
    <g fill="none" fill-rule="nonzero">
        <path fill="#F4F0D3" d="M71.921 82.693c3.956 1.737 14.887 6.732 18.77 8.324.432.217 1.439.145 1.295-.796-.863-9.41-6.113-63.33-7.048-72.884-.144-1.375-.575-1.592-1.582-1.954-3.092-1.158-10.572-3.836-13.664-4.922-1.08-.434-1.726-.434-2.877 0-4.819 1.375-20.065 6.08-20.065 6.08s-15.894-4.85-20.856-6.225c-1.079-.362-1.654-.434-2.877.073-3.164 1.013-10.5 3.763-13.664 4.921-1.295.507-1.438 1.086-1.582 1.955C6.764 26.6 1.01 80.739.004 90.22c-.072 1.085.863 1.013 1.726.723 4.315-1.737 15.246-6.514 19.13-8.106.79-.362 1.582-.579 2.877 0 4.387 1.81 17.26 7.672 21.503 9.41.935.433 1.798.506 2.877 0 4.243-1.81 16.684-7.6 20.855-9.482.792-.434 2.014-.507 2.95-.073z"/>
        <path fill="#E8E4C8" d="M24.98 10.053c-.577-.072-1.152 0-1.944.288-3.167 1.007-10.508 3.741-13.675 4.893-1.296.503-1.44 1.079-1.584 1.942C6.77 26.46 1.012 80.282.004 89.708c-.072 1.08.864 1.008 1.727.72 4.319-1.727 15.259-6.476 19.146-8.06.575-.215 1.08-.431 1.87-.287l2.232-72.028zm42.968 0c-.288.072-.576.144-.935.288-4.823 1.439-19.506 5.9-20.153 6.116V92.01c.431 0 .935-.144 1.44-.36 4.246-1.799 16.697-7.556 20.872-9.426.288-.144.648-.216 1.007-.288l-2.23-71.884z"/>
        <path fill="#EFC75E" d="M33.98 87.075l12.562-12.638 12.777 12.855c2.656-1.228 5.24-2.455 7.322-3.394L20.772 37.82l22.253-22.389c-2.297-.722-5.312-1.589-8.184-2.455l-19.38 19.5-7.969-8.017c-.287 2.745-.646 6.067-1.005 9.75L41.23 69.164 26.658 83.825c2.01.867 4.666 2.023 7.322 3.25z"/>
        <path fill="#E3BD59" d="M24.67 34.03l.36-11.027-9.56 9.513-7.977-7.928c-.287 2.739-.647 6.054-1.006 9.73l17.68 17.73.287-10.45-3.593-3.604 3.809-3.964zm22.495 41.082l12.146 12.18c2.659-1.225 5.246-2.45 7.33-3.387L47.165 64.373v10.739z"/>
        <path fill="#E2574C" d="M58.09 0c11.55 0 20.936 9.384 20.936 21.006 0 .217-.073 5.63-1.877 9.456-4.26 9.89-14.511 20.357-17.904 23.75-.866.794-1.227.938-2.31-.073-3.466-3.392-13.573-13.715-17.832-23.532-1.516-2.888-1.95-9.096-1.95-9.601C37.155 9.384 46.54 0 58.09 0z"/>
        <path fill="#FFF" d="M58.09 10.027a10.896 10.896 0 0 0-10.91 10.911A10.896 10.896 0 0 0 58.09 31.85c6.037 0 10.91-4.874 10.91-10.912a10.896 10.896 0 0 0-10.91-10.911zm0 17.458a6.52 6.52 0 0 1-6.546-6.546 6.52 6.52 0 0 1 6.546-6.547 6.52 6.52 0 0 1 6.546 6.547 6.52 6.52 0 0 1-6.546 6.546z"/>
    </g>
</svg>
