<svg xmlns="http://www.w3.org/2000/svg" width="76" height="80" viewBox="0 0 76 80">
    <g fill="none" fill-rule="evenodd">
        <g fill="#D43D21" fill-rule="nonzero">
            <path d="M35.503 26.347c-.083.012-.163.017-.244.025v13.954c1.877.33 3.966.032 5.455-.172v-13.71c-.156-.02-.31-.05-.46-.096-1.944-.596-2.219-.374-4.751-.001zM38.022 0c-3.404 0-6.163 2.737-6.163 6.114 0 2.39 1.384 4.46 3.4 5.465v.833l.111-.005h5.068c.09.005.182.007.276.009v-.801c2.054-.992 3.47-3.082 3.47-5.5C44.184 2.736 41.425 0 38.022 0z"/>
        </g>
        <path d="M42.445 54.401c1.235-1.143 1.885-2.339 1.885-3.475 0-1.08.268-3.243-3.797-5.212v10.159c.634-.395 1.295-.9 1.912-1.472zM30.405 50.74c0 1.13.683 2.463 2.154 3.485 1.15.8 1.84 1.046 2.908 1.648V45.714c-5.414 1.906-5.062 3.924-5.062 5.026z"/>
        <path fill="#D43D21" fill-rule="nonzero" d="M35.467 46.197v11.519c1.989 1.293 3.722.471 4.532.036.175-.094.354-.2.534-.312V46.5a16.52 16.52 0 0 0-.673-.31v.02c-1.407-.712-2.26-.553-4.015-.171-.13.052-.255.105-.378.158zM35.472 64.272v11.646c-.002.04-.005.079-.005.119 0 1.487 1.134 2.693 2.533 2.693 1.4 0 2.533-1.206 2.533-2.693V64.744a13.13 13.13 0 0 0-.892-.676c-1.386-.81-2.794-.787-4.169.204z"/>
        <path fill="#707487" fill-rule="nonzero" d="M40.941 45.657v-.02c.252.1.487.202.713.303 4.44 1.988 4.147 4.172 4.147 5.264 0 1.147-.71 2.355-2.058 3.509a14.051 14.051 0 0 1-2.089 1.486c-.191.11-.38.213-.566.305-.856.425-2.69 1.227-4.794-.035-1.018-.642-1.674-.904-2.77-1.756-1.4-1.09-2.052-2.51-2.052-3.714 0-1.174-.334-3.324 4.822-5.355.13-.051.262-.103.4-.154 1.857-.373 2.76-.528 4.247.167zm-4.647-6.143a7.547 7.547 0 0 1-.358-.072c-2.057-.47-4.072-.886-8.378-2.084-4.124-1.098-8.662-2.874-9.337-3.779a.753.753 0 0 1 .26-.16c.362-.208 1.011-.387 1.737-.547 1.53-.313 3.58-.469 5.655-.573 4.124-.127 4.437.081 4.927.052.49-.03 2.997-.06 3.076-1.975.078-1.915-1.278-2.055-2.341-2.27-1.686-.231-.968-.16-3.25-.13-3.787.287-15.38-.655-16.833 5.47 0 .178-.026.286-.052.446.492 5.335 11.516 7.66 19.478 9.244-2.698 1.856-4.15 4.28-4.72 7.433-.285 3.336 2.36 6.515 8.507 10.052-4.668 3.31-7.73 6.436-7.47 10.196.378 2.796 2.685 6.457 7.073 9.033.437.257 1.066.228.612-.535-1.1-1.85-3.006-5.34-3.172-7.54-.227-1.596.545-3.864 3.77-6.557.27-.256.543-.473.816-.66 1.456-.993 2.946-1.015 4.414-.204.333.219.649.445.946.678 2.917 2.284 4.117 5.164 3.905 6.742-.165 2.187-2.025 5.665-3.153 7.508-.378.616.011.929.61.56 4.344-2.678 6.677-6.223 7.055-9.025.26-3.76-2.801-6.886-7.45-10.196 6.128-3.537 8.773-6.716 8.488-10.052-.57-3.127-2.023-5.55-4.72-7.433 7.962-1.583 18.985-3.909 19.478-9.244-.026-.16-.052-.267-.052-.447-1.453-6.124-13.047-5.182-16.832-5.469-2.283-.03-2-.043-3.068-.039-1.068.004-2.45.57-2.484 2.28-.034 1.712 1.931 2.153 3.035 2.134.645-.01.804-.179 4.928-.026 2.075.078 4.125.234 5.628.547.753.16 1.375.339 1.764.547.104.052.207.108.26.16-.675.905-5.214 2.68-9.337 3.779a151.918 151.918 0 0 1-7.76 1.944l-.295.041c-1.464.203-3.516.5-5.36.171z"/>
        <path fill="#EBE8E1" fill-rule="nonzero" d="M73.23 19.17C63.305 17.293 55.46 8.096 53.258 6.263c-2.503-2.084-4.233-1.607-6.736 2.973-1.563 2.845-4.005 3.324-5.64 3.297a8.346 8.346 0 0 1-.27-.009h-4.954l-.109.005c-1.632.06-4.186-.353-5.801-3.294-2.503-4.579-4.258-5.056-6.735-2.972C20.775 8.124 12.707 17.485 2.57 19.242c-2.817.488-3.318 1.847-1.504 3.162 1.421 1.03 3.492 1.8 6.36 1.267 0 0 3.484 3.688 9.135 1.107 0 0 2.942 2.709 7.639.233 0 0 3.458 2.71 7.174.372 0 0 1.815 1.43 4.175 1.184.08-.008.158-.013.238-.025 2.476-.374 2.745-.597 4.645.002.146.046.297.077.45.097 1.83.24 4.014-1.258 4.014-1.258 3.69 2.338 7.175-.372 7.175-.372 4.696 2.476 7.612-.233 7.612-.233 5.678 2.58 9.162-1.107 9.162-1.107 2.373.44 4.2-.01 5.565-.763 2.39-1.317 2.154-3.107-1.18-3.738z"/>
    </g>
</svg>
