<svg xmlns="http://www.w3.org/2000/svg" xmlns:xlink="http://www.w3.org/1999/xlink" width="417" height="79" viewBox="0 0 417 79">
    <defs>
        <filter id="a" width="103.1%" height="104.9%" x="-.8%" y="-1.2%" filterUnits="objectBoundingBox">
            <feOffset dx="2" dy="2" in="SourceAlpha" result="shadowOffsetOuter1"/>
            <feColorMatrix in="shadowOffsetOuter1" result="shadowMatrixOuter1" values="0 0 0 0 0.0470588235 0 0 0 0 0.109803922 0 0 0 0 0.2 0 0 0 0.12 0"/>
            <feMerge>
                <feMergeNode in="shadowMatrixOuter1"/>
                <feMergeNode in="SourceGraphic"/>
            </feMerge>
        </filter>
        <path id="c" d="M148.625 59.92c-.72-.72-1.08-1.608-1.08-2.664V8.512c0-1.104.36-2.004 1.08-2.7.72-.696 1.608-1.044 2.664-1.044h17.208c3.216 0 6.072.636 8.568 1.908 2.496 1.272 4.452 3.048 5.868 5.328 1.416 2.28 2.124 4.86 2.124 7.74 0 2.352-.636 4.464-1.908 6.336-1.272 1.872-3.012 3.384-5.22 4.536 3.264.768 5.832 2.304 7.704 4.608 1.872 2.304 2.808 5.232 2.808 8.784 0 3.264-.78 6.192-2.34 8.784-1.56 2.592-3.744 4.608-6.552 6.048-2.808 1.44-5.988 2.16-9.54 2.16h-18.72c-1.056 0-1.944-.36-2.664-1.08zm19.872-32.04c2.832 0 5.1-.696 6.804-2.088 1.704-1.392 2.556-3.408 2.556-6.048s-.852-4.644-2.556-6.012c-1.704-1.368-3.972-2.052-6.804-2.052h-13.464v16.2h13.464zm1.512 26.208c3.36 0 6.072-.876 8.136-2.628 2.064-1.752 3.096-4.236 3.096-7.452 0-2.976-1.02-5.256-3.06-6.84-2.04-1.584-4.764-2.376-8.172-2.376h-14.976v19.296h14.976zm51.786-31.752c1.44.768 2.16 1.728 2.16 2.88 0 .336-.024.576-.072.72-.432 1.536-1.392 2.304-2.88 2.304-.24 0-.6-.048-1.08-.144-1.92-.336-3.48-.504-4.68-.504-3.456 0-6.24.792-8.352 2.376-2.112 1.584-3.168 3.72-3.168 6.408V57.4c0 1.152-.3 2.04-.9 2.664-.6.624-1.5.936-2.7.936-1.152 0-2.04-.3-2.664-.9-.624-.6-.936-1.5-.936-2.7V25.216c0-1.152.312-2.04.936-2.664.624-.624 1.512-.936 2.664-.936 2.4 0 3.6 1.2 3.6 3.6v1.368c1.44-1.68 3.216-3 5.328-3.96s4.368-1.44 6.768-1.44c2.544 0 4.536.384 5.976 1.152zm9.126 37.62c-.696-.696-1.044-1.572-1.044-2.628v-32.04c0-1.104.348-1.992 1.044-2.664.696-.672 1.572-1.008 2.628-1.008 1.104 0 1.992.336 2.664 1.008.672.672 1.008 1.56 1.008 2.664v32.04c0 1.056-.336 1.932-1.008 2.628-.672.696-1.56 1.044-2.664 1.044-1.056 0-1.932-.348-2.628-1.044zm-.72-46.152c-.936-.936-1.404-2.052-1.404-3.348 0-1.296.468-2.412 1.404-3.348.936-.936 2.052-1.404 3.348-1.404 1.296 0 2.412.468 3.348 1.404.936.936 1.404 2.052 1.404 3.348 0 1.296-.468 2.412-1.404 3.348-.936.936-2.052 1.404-3.348 1.404-1.296 0-2.412-.468-3.348-1.404zm54.99-8.028c.672.672 1.008 1.56 1.008 2.664v32.832c0 3.744-.876 7.14-2.628 10.188-1.752 3.048-4.128 5.448-7.128 7.2-3 1.752-6.348 2.628-10.044 2.628-3.696 0-7.068-.876-10.116-2.628-3.048-1.752-5.436-4.152-7.164-7.2-1.728-3.048-2.592-6.444-2.592-10.188 0-3.744.804-7.14 2.412-10.188 1.608-3.048 3.816-5.436 6.624-7.164 2.808-1.728 5.94-2.592 9.396-2.592 2.784 0 5.376.576 7.776 1.728 2.4 1.152 4.44 2.76 6.12 4.824V8.44c0-1.104.348-1.992 1.044-2.664.696-.672 1.572-1.008 2.628-1.008 1.104 0 1.992.336 2.664 1.008zm-12.276 47.268c1.944-1.176 3.468-2.796 4.572-4.86 1.104-2.064 1.656-4.368 1.656-6.912 0-2.544-.552-4.836-1.656-6.876-1.104-2.04-2.628-3.648-4.572-4.824-1.944-1.176-4.116-1.764-6.516-1.764-2.4 0-4.572.588-6.516 1.764-1.944 1.176-3.48 2.784-4.608 4.824-1.128 2.04-1.692 4.332-1.692 6.876 0 2.544.564 4.848 1.692 6.912 1.128 2.064 2.664 3.684 4.608 4.86 1.944 1.176 4.116 1.764 6.516 1.764 2.4 0 4.572-.588 6.516-1.764zm51.93-29.16c3 1.704 5.352 4.068 7.056 7.092 1.704 3.024 2.556 6.48 2.556 10.368v15.552c0 3.792-.84 7.248-2.52 10.368-1.68 3.12-4.044 5.58-7.092 7.38-3.048 1.8-6.492 2.7-10.332 2.7-3.456 0-6.672-.684-9.648-2.052-2.976-1.368-5.472-3.324-7.488-5.868-.528-.672-.792-1.344-.792-2.016 0-1.008.504-1.872 1.512-2.592.672-.432 1.344-.648 2.016-.648 1.2 0 2.184.504 2.952 1.512a12.657 12.657 0 0 0 4.896 3.852c1.968.888 4.2 1.332 6.696 1.332 2.352 0 4.488-.564 6.408-1.692 1.92-1.128 3.456-2.784 4.608-4.968 1.152-2.184 1.728-4.788 1.728-7.812v-3.528c-1.488 2.64-3.456 4.704-5.904 6.192-2.448 1.488-5.208 2.232-8.28 2.232-3.552 0-6.732-.852-9.54-2.556-2.808-1.704-4.992-4.068-6.552-7.092-1.56-3.024-2.34-6.456-2.34-10.296 0-3.888.84-7.344 2.52-10.368 1.68-3.024 4.032-5.388 7.056-7.092 3.024-1.704 6.456-2.556 10.296-2.556 3.792 0 7.188.852 10.188 2.556zm-3.6 29.196c1.944-1.152 3.456-2.748 4.536-4.788 1.08-2.04 1.62-4.356 1.62-6.948 0-2.592-.54-4.92-1.62-6.984s-2.592-3.672-4.536-4.824c-1.944-1.152-4.14-1.728-6.588-1.728-2.448 0-4.644.576-6.588 1.728-1.944 1.152-3.468 2.76-4.572 4.824s-1.656 4.392-1.656 6.984c0 2.592.552 4.908 1.656 6.948 1.104 2.04 2.628 3.636 4.572 4.788 1.944 1.152 4.14 1.728 6.588 1.728 2.448 0 4.644-.576 6.588-1.728zm56.214-10.116c-.624.6-1.416.9-2.376.9h-27.36c.528 3.36 2.052 6.072 4.572 8.136 2.52 2.064 5.604 3.096 9.252 3.096 1.44 0 2.94-.264 4.5-.792s2.844-1.176 3.852-1.944c.672-.528 1.464-.792 2.376-.792.912 0 1.632.24 2.16.72.864.72 1.296 1.536 1.296 2.448 0 .864-.384 1.584-1.152 2.16-1.632 1.296-3.66 2.352-6.084 3.168-2.424.816-4.74 1.224-6.948 1.224-3.936 0-7.464-.852-10.584-2.556-3.12-1.704-5.556-4.068-7.308-7.092-1.752-3.024-2.628-6.456-2.628-10.296 0-3.84.828-7.284 2.484-10.332 1.656-3.048 3.96-5.424 6.912-7.128 2.952-1.704 6.3-2.556 10.044-2.556 3.696 0 6.888.816 9.576 2.448 2.688 1.632 4.752 3.912 6.192 6.84 1.44 2.928 2.16 6.288 2.16 10.08 0 .912-.312 1.668-.936 2.268zM351.935 30.4c-2.184 1.92-3.564 4.488-4.14 7.704h23.976c-.432-3.216-1.632-5.784-3.6-7.704-1.968-1.92-4.536-2.88-7.704-2.88-3.504 0-6.348.96-8.532 2.88zm38.574 29.376c-2.88-1.008-5.136-2.328-6.768-3.96-.624-.624-.936-1.368-.936-2.232 0-1.152.48-2.088 1.44-2.808.912-.672 1.752-1.008 2.52-1.008.96 0 1.872.432 2.736 1.296.912 1.008 2.28 1.884 4.104 2.628 1.824.744 3.768 1.116 5.832 1.116 2.736 0 4.86-.456 6.372-1.368 1.512-.912 2.268-2.136 2.268-3.672 0-1.488-.744-2.724-2.232-3.708-1.488-.984-4.008-1.812-7.56-2.484-9.216-1.776-13.824-5.568-13.824-11.376 0-2.352.696-4.344 2.088-5.976 1.392-1.632 3.216-2.856 5.472-3.672 2.256-.816 4.656-1.224 7.2-1.224 3.12 0 5.916.504 8.388 1.512 2.472 1.008 4.428 2.4 5.868 4.176.624.768.936 1.536.936 2.304 0 .816-.408 1.56-1.224 2.232-.528.384-1.2.576-2.016.576-1.248 0-2.376-.456-3.384-1.368-1.2-1.104-2.472-1.884-3.816-2.34-1.344-.456-2.976-.684-4.896-.684-2.208 0-4.02.372-5.436 1.116-1.416.744-2.124 1.788-2.124 3.132 0 .96.24 1.764.72 2.412.48.648 1.392 1.248 2.736 1.8 1.344.552 3.288 1.092 5.832 1.62 5.232 1.056 8.94 2.52 11.124 4.392 2.184 1.872 3.276 4.296 3.276 7.272 0 2.208-.6 4.212-1.8 6.012-1.2 1.8-2.964 3.216-5.292 4.248s-5.124 1.548-8.388 1.548c-3.264 0-6.336-.504-9.216-1.512z"/>
        <filter id="b" width="101.5%" height="105.5%" x="-.4%" y="-1.4%" filterUnits="objectBoundingBox">
            <feOffset dx="2" dy="2" in="SourceAlpha" result="shadowOffsetOuter1"/>
            <feColorMatrix in="shadowOffsetOuter1" values="0 0 0 0 0.0470588235 0 0 0 0 0.109803922 0 0 0 0 0.2 0 0 0 0.12 0"/>
        </filter>
    </defs>
    <g fill="none" fill-rule="evenodd">
        <g fill="#068BFF" filter="url(#a)" transform="translate(0 -4)">
            <path d="M78.713 4.957l-11.825.097a2 2 0 0 0-1.849 2.722l20.015 51.661a2 2 0 0 0 1.825 1.277l11.179.226a2 2 0 0 0 1.915-2.697L80.603 6.259a2 2 0 0 0-1.89-1.302zM39.135 5H26.922C25.861 5 25 5.697 25 6.557c0 .194.044.385.131.566l20.13 41.885c.288.598.999.992 1.791.992H58.5c1.062 0 1.922-.697 1.922-1.557 0-.125-6.495-14.269-19.487-42.432-.28-.608-.998-1.011-1.8-1.011z"/>
            <path d="M124.705 69.853l2.895 8.502A2 2 0 0 1 125.706 81H8.15A8 8 0 0 1 .668 70.167L24.83 6.357a2 2 0 0 1 1.862-1.292l12.359-.053a2 2 0 0 1 1.87 2.733l-22.222 56.49a3 3 0 0 0 2.787 4.099l101.329.164a2 2 0 0 1 1.89 1.355z"/>
            <path d="M66.547 5l12.295.205c1.068.017 1.917.725 1.896 1.581-.003.119-6.633 14.19-19.89 42.214-.29.613-1.03 1.013-1.848 1l-12.104-.201c-1.068-.018-1.917-.726-1.896-1.582.005-.176.047-.35.124-.514L64.697 6.005c.288-.615 1.03-1.018 1.85-1.005z"/>
            <rect width="12.5" height="56" x="109" y="5" rx="2"/>
        </g>
        <g transform="translate(0 -4)">
            <use fill="#000" filter="url(#b)" xlink:href="#c"/>
            <use fill="#068BFF" xlink:href="#c"/>
        </g>
    </g>
</svg>
