<svg xmlns="http://www.w3.org/2000/svg" width="104" height="103" viewBox="0 0 104 103">
    <g fill="none" fill-rule="evenodd">
        <g transform="translate(2 2)">
            <ellipse cx="49.701" cy="49.385" fill="#068BFF" fill-rule="nonzero" stroke="#FFF" stroke-width="4.894" rx="45.464" ry="45.148"/>
            <ellipse cx="49.907" cy="49.592" stroke="#068BFF" stroke-width="2.447" rx="49.907" ry="49.592"/>
        </g>
        <path fill="#F3D55C" fill-rule="nonzero" d="M47.725 36.733l-2.433-6.456a1.79 1.79 0 0 0-1.674-1.158h-16.1a1.79 1.79 0 0 0-1.79 1.789V72.06c0 .988.802 1.79 1.79 1.79h42.326a1.79 1.79 0 0 0 1.79-1.79v-33.54a1.79 1.79 0 0 0-1.79-1.788h-22.12z"/>
        <path fill="#F0C41B" fill-rule="nonzero" d="M71.583 40.302h6.275a1.79 1.79 0 0 1 1.728 2.252l-8.002 29.863c-.007.022-.007-10.683 0-32.115h-.001z"/>
        <g fill-rule="nonzero">
            <path fill="#5D6D7E" d="M50.331 59.736l.66.66.77.766.298.3 1.539-1.54-1.726-1.728z"/>
            <path fill="#FF8E31" d="M55.127 59.872l5.309 5.309c.4.398.647.951.646 1.559a2.203 2.203 0 0 1-3.764 1.56l-5.31-5.31 3.119-3.118z"/>
            <path fill="#FECE59" d="M54.245 60.304l.432-.432 5.31 5.31c.335.335.52.781.519 1.256 0 .476-.185.923-.52 1.26a.308.308 0 0 1-.433 0 .306.306 0 0 1 0-.432c.222-.22.343-.516.343-.829 0-.31-.121-.604-.341-.824l-5.31-5.309z"/>
            <path fill="#34495E" d="M51.91 62.891l3.118-3.119-.233-.233a.765.765 0 0 0-.545-.226.764.764 0 0 0-.546.225l-2.028 2.029a.765.765 0 0 0 0 1.09l.234.234zM34.116 51.947c0-5.504 4.463-9.968 9.969-9.968 5.506 0 9.969 4.464 9.969 9.968 0 5.506-4.464 9.97-9.97 9.97-5.505 0-9.968-4.464-9.968-9.97z"/>
            <path fill="#5D6D7E" d="M44.124 60.876a8.89 8.89 0 1 0-.001-17.78 8.89 8.89 0 0 0 .001 17.78z"/>
            <path fill="#CEE2F2" d="M43.972 60.013a8.178 8.178 0 1 0 0-16.356 8.178 8.178 0 0 0 0 16.356z"/>
            <path fill="#FFF" d="M44.42 45.08a.724.724 0 0 0-.642-.322 7.114 7.114 0 0 0-3.17.953.721.721 0 0 0 .724 1.247 5.715 5.715 0 0 1 2.531-.758.717.717 0 0 0 .677-.759.68.68 0 0 0-.12-.362zM39.65 47.313a.718.718 0 0 0-1.157-.051 7.14 7.14 0 0 0-1.068 7.207.722.722 0 0 0 1.337-.548 5.679 5.679 0 0 1-.315-3.241 5.644 5.644 0 0 1 1.166-2.51.722.722 0 0 0 .037-.857z"/>
        </g>
    </g>
</svg>
