<svg xmlns="http://www.w3.org/2000/svg" width="48" height="40" viewBox="0 0 48 40">
    <g fill="none" fill-rule="evenodd">
        <path fill="#F3D55C" fill-rule="nonzero" d="M19.226 6.655L17.1 1.013A1.564 1.564 0 0 0 15.636 0H1.564C.7 0 0 .7 0 1.564v35.97C0 38.4.7 39.1 1.564 39.1H38.56c.864 0 1.564-.7 1.564-1.564V8.219c0-.864-.7-1.564-1.564-1.564H19.226z"/>
        <path fill="#F0C41B" fill-rule="nonzero" d="M40.08 9.775h5.485a1.564 1.564 0 0 1 1.51 1.968L40.08 37.846c-.005.02-.005-9.338 0-28.071z"/>
        <g fill-rule="nonzero">
            <path fill="#5D6D7E" d="M21.504 26.761l.577.577.674.67.26.262 1.344-1.346-1.507-1.51z"/>
            <path fill="#FF8E31" d="M25.696 26.88l4.64 4.641c.35.348.566.831.565 1.363a1.926 1.926 0 0 1-3.29 1.363l-4.64-4.64 2.725-2.727z"/>
            <path fill="#FECE59" d="M24.926 27.258l.377-.378 4.64 4.642c.294.293.455.683.455 1.098 0 .416-.162.807-.454 1.1a.27.27 0 0 1-.379 0 .267.267 0 0 1 0-.376c.193-.193.3-.451.3-.725 0-.272-.106-.528-.299-.72l-4.64-4.64z"/>
            <path fill="#34495E" d="M22.884 29.52l2.726-2.727-.204-.203a.669.669 0 0 0-.477-.198.668.668 0 0 0-.477.197l-1.772 1.773a.669.669 0 0 0 0 .953l.204.205zM7.331 19.954a8.714 8.714 0 1 1 17.427.001 8.714 8.714 0 0 1-17.427-.001z"/>
            <path fill="#5D6D7E" d="M16.079 27.759a7.77 7.77 0 1 0-.001-15.542 7.77 7.77 0 0 0 0 15.542z"/>
            <path fill="#CEE2F2" d="M15.946 27.004a7.148 7.148 0 1 0 0-14.297 7.148 7.148 0 0 0 0 14.297z"/>
            <path fill="#FFF" d="M16.338 13.951a.633.633 0 0 0-.561-.28c-.987.06-1.92.337-2.772.832a.63.63 0 0 0 .633 1.09 4.995 4.995 0 0 1 2.213-.663.626.626 0 0 0 .591-.663.595.595 0 0 0-.104-.316zM12.168 15.903a.628.628 0 0 0-1.011-.045 6.241 6.241 0 0 0-.934 6.3.631.631 0 0 0 1.169-.478 4.963 4.963 0 0 1-.276-2.834 4.934 4.934 0 0 1 1.02-2.193.631.631 0 0 0 .032-.75z"/>
        </g>
    </g>
</svg>
