<svg xmlns="http://www.w3.org/2000/svg" width="80" height="80" viewBox="0 0 80 80">
    <g fill="#FFF" fill-rule="evenodd">
        <circle cx="40" cy="40" r="40" fill-opacity=".2"/>
        <path fill-rule="nonzero" d="M54.142 25.866a19.87 19.87 0 0 0-13.871-5.852A3.01 3.01 0 0 0 40 20c-.089 0-.18.006-.27.014a19.87 19.87 0 0 0-13.872 5.851A19.853 19.853 0 0 0 20 40c0 5.34 2.08 10.359 5.858 14.135a19.869 19.869 0 0 0 13.871 5.85c.092.01.182.015.271.015.089 0 .18-.006.27-.014a19.869 19.869 0 0 0 13.872-5.851A19.853 19.853 0 0 0 60 40c0-5.34-2.08-10.359-5.858-14.134zm-26.603 1.68a17.53 17.53 0 0 1 7.504-4.455 19.083 19.083 0 0 0-1.82 2.493 23.673 23.673 0 0 0-1.892 3.822H25.92a17.873 17.873 0 0 1 1.62-1.86zm-3.134 4.236h6.126a29.805 29.805 0 0 0-1.107 7.03h-7.006c.164-2.485.844-4.87 1.987-7.03zm0 16.436a17.465 17.465 0 0 1-1.987-7.03h7.006c.093 2.428.47 4.802 1.107 7.03h-6.126zm3.134 4.236a17.838 17.838 0 0 1-1.62-1.86h5.412a23.667 23.667 0 0 0 1.892 3.822 19.083 19.083 0 0 0 1.82 2.493 17.53 17.53 0 0 1-7.504-4.455zm11.272 4.68c-.99-.647-2.32-1.948-3.565-3.965-.499-.81-.947-1.67-1.344-2.575h4.91v6.54zm0-8.916h-5.8a27.18 27.18 0 0 1-1.208-7.03h7.008v7.03zm0-9.406h-7.008a27.173 27.173 0 0 1 1.209-7.03h5.8v7.03zm0-9.406h-4.909c.397-.904.845-1.766 1.344-2.575 1.245-2.017 2.575-3.318 3.565-3.966v6.54zm16.784 2.376a17.465 17.465 0 0 1 1.987 7.03h-7.006a29.803 29.803 0 0 0-1.107-7.03h6.126zm-3.134-4.236c.587.587 1.127 1.209 1.62 1.86h-5.412a23.667 23.667 0 0 0-1.892-3.822 19.076 19.076 0 0 0-1.82-2.493 17.53 17.53 0 0 1 7.504 4.455zm-11.272-4.68c.99.647 2.32 1.948 3.565 3.965.499.81.947 1.67 1.344 2.575h-4.91v-6.54zm0 8.916h5.8a27.175 27.175 0 0 1 1.208 7.03h-7.008v-7.03zm7.008 9.406a27.173 27.173 0 0 1-1.209 7.03h-5.8v-7.03h7.009zm-7.008 15.947v-6.54h4.909a20.859 20.859 0 0 1-1.344 2.574c-1.245 2.017-2.575 3.318-3.565 3.966zm11.272-4.68a17.53 17.53 0 0 1-7.503 4.454 19.083 19.083 0 0 0 1.82-2.493 23.673 23.673 0 0 0 1.89-3.822h5.413a17.863 17.863 0 0 1-1.62 1.86zm3.134-4.237H49.47a29.8 29.8 0 0 0 1.107-7.03h7.006a17.467 17.467 0 0 1-1.987 7.03z"/>
    </g>
</svg>
