<svg xmlns="http://www.w3.org/2000/svg" width="417" height="454" viewBox="0 0 417 454">
    <g fill="none" fill-rule="evenodd" transform="translate(2 2)">
        <circle cx="212" cy="225" r="185" stroke="#0070D2" stroke-width="3"/>
        <g stroke="#0070D2" transform="translate(172 370)">
            <circle cx="40" cy="40" r="40" fill="#EBF4FC" stroke-width="3"/>
            <g fill="#0070D2" fill-rule="nonzero">
                <path d="M60.2 23.927H42.999a1.44 1.44 0 0 1-.94-.349l-3.155-2.722a3.358 3.358 0 0 0-2.19-.814H25.41a2.399 2.399 0 0 0-2.396 2.396v3.202h-3.617A2.399 2.399 0 0 0 17 28.036v28.71a2.399 2.399 0 0 0 2.396 2.395h34.79a2.399 2.399 0 0 0 2.397-2.395v-3.202H60.2a2.399 2.399 0 0 0 2.396-2.396V26.323a2.399 2.399 0 0 0-2.396-2.396zm-5.534 32.819a.48.48 0 0 1-.48.479h-34.79a.48.48 0 0 1-.48-.48V37.048h35.75v19.699zm0-21.615h-35.75v-7.095a.48.48 0 0 1 .48-.48H30.7c.344 0 .677.125.938.35l3.156 2.721a3.355 3.355 0 0 0 2.19.814h17.202a.48.48 0 0 1 .479.48v3.21zm6.013 16.017a.48.48 0 0 1-.48.48h-3.616V31.92a2.399 2.399 0 0 0-2.396-2.395H36.985c-.344 0-.678-.124-.938-.35l-3.156-2.72a3.355 3.355 0 0 0-2.19-.815H24.93v-3.202a.48.48 0 0 1 .479-.48h11.305c.344 0 .678.125.94.35l3.154 2.722c.61.525 1.388.814 2.19.814H60.2a.48.48 0 0 1 .479.479v24.825z"/>
                <path d="M50.853 40.314h-5.739a.958.958 0 0 0 0 1.917h5.74a.958.958 0 0 0 0-1.917zM50.853 44.914h-5.739a.958.958 0 0 0 0 1.917h5.74a.958.958 0 0 0 0-1.917z"/>
            </g>
        </g>
        <g stroke="#0070D2" transform="translate(0 100)">
            <circle cx="40" cy="40" r="40" fill="#EBF4FC" stroke-width="3"/>
            <g fill="#0070D2" fill-rule="nonzero">
                <path d="M55.484 30.558c-.006-.07-.054-.275-.054-.275s.009.02 0 0c-.042-.089-.052-.104-.062-.12a1.032 1.032 0 0 0-.092-.117l-9.83-9.83a1.298 1.298 0 0 0-.111-.092 1.125 1.125 0 0 0-.127-.068 1.038 1.038 0 0 0-.138-.042c-.085-.012-.098-.012-.112-.012-.033-.002-18.851 0-18.851 0-1.102 0-1.996.89-1.996 2.006V57.91a2.01 2.01 0 0 0 1.998 2.007h27.377a1.998 1.998 0 0 0 1.998-2.004V30.558c-.005-.091 0 0 0 0zm-2.515-.736h-6.306c-.552 0-1-.456-1-1v-6.307l7.306 7.307zM27.583 58.444a2 2 0 0 1-1.999-2v-32.97a2 2 0 0 1 1.991-2H44.19v7.822c0 1.104.889 1.999 2 1.999h7.822v27.15H27.583z"/>
                <path stroke-width=".5" d="M34.878 30.311a3.066 3.066 0 0 0 3.062-3.063 3.066 3.066 0 0 0-3.062-3.064 3.067 3.067 0 0 0-3.064 3.064 3.067 3.067 0 0 0 3.064 3.063zm0-4.654c.876 0 1.59.714 1.59 1.59 0 .877-.714 1.591-1.59 1.591-.877 0-1.59-.713-1.59-1.59 0-.877.713-1.59 1.59-1.59zM31.455 36.696c.407 0 .737-.33.737-.736v-1.292c0-.836.68-1.515 1.515-1.515h2.36c.835 0 1.515.68 1.515 1.515v1.292a.736.736 0 1 0 1.473 0v-1.292a2.992 2.992 0 0 0-2.988-2.988h-2.36a2.991 2.991 0 0 0-2.989 2.988v1.292c0 .406.33.736.737.736z"/>
                <path d="M30.719 41.1c0 .407.33.737.736.737H48.14a.737.737 0 1 0 0-1.473H31.455a.737.737 0 0 0-.736.737zM48.14 51.264H31.455a.737.737 0 0 0 0 1.473H48.14a.737.737 0 1 0 0-1.473zM48.14 45.814H31.455a.737.737 0 0 0 0 1.473H48.14a.737.737 0 1 0 0-1.473z"/>
            </g>
        </g>
        <g stroke="#0070D2" transform="translate(169)">
            <circle cx="40" cy="40" r="40" fill="#EBF4FC" stroke-width="3"/>
            <g fill="#0070D2" fill-rule="nonzero">
                <path d="M58.413 45.253c-1.133-1.522-2.267-1.522-5.037-.063l-5.415 3.363c-.756.444-2.456.57-4.03.57.315-.57.19-1.268-.377-2.093-1.008-1.46-2.708-2.348-4.534-2.348h-2.455c-1.323 0-2.582-.38-3.59-1.142-2.271-1.717-5.824.152-7.555 1.266v-.33a1 1 0 0 0-1-1h-2.407a1 1 0 0 0-1 1v14.498a1 1 0 0 0 1 1h2.407a1 1 0 0 0 1-1v-.904h8.185c1.26 0 2.582-.127 3.841-.19l8.185-1.269c.315 0 .63-.063.882-.127.755-.127 1.448-.508 2.078-1.079l9.507-7.614c.756-.634.882-1.776.315-2.538zM24.16 58.705h-1.889v-13.96h1.889V58.706zm33.181-11.802l-9.57 7.487-.063.064a2.18 2.18 0 0 1-1.448.761c-.252.064-.44.064-.693.064l-8.31 1.269c-1.197.19-2.456.253-3.653.253H25.42V46.332c1.511-1.079 5.037-3.11 6.8-1.713 1.196.888 2.708 1.396 4.345 1.396h2.455c1.448 0 2.77.634 3.59 1.84.25.38.314.761.25.888-.188.317-.944.444-1.762.508h-.458a.69.69 0 0 0-.298-.064h-6.107c-1.952 0-3.148.952-3.148 2.538 0 .381.252.635.63.635.377 0 .63-.254.63-.635 0-.317 0-1.269 1.888-1.269h6.107v.064h1.134c2.959.063 5.73 0 7.177-.762l5.415-3.363c2.645-1.332 2.897-1.015 3.4-.253.126.19.126.57-.126.761zM36.502 34.34l8.059 6.916c.126.127.315.19.504.19a.712.712 0 0 0 .503-.19l7.997-6.98c1.7-1.459 2.896-3.363 3.4-5.393.315-1.396.251-2.284.189-2.474-.315-3.68-3.274-6.409-6.8-6.409-2.33 0-4.282 1.586-5.415 3.363C43.805 21.586 41.79 20 39.46 20c-3.526 0-6.17 2.665-6.548 6.472-.063.19-.19 1.079.189 2.475.503 2.03 1.7 3.934 3.4 5.393zm-2.33-7.741v-.064c.315-3.109 2.456-5.266 5.289-5.266 2.204 0 4.03 1.84 4.848 3.68l.567 1.333.566-1.333c.819-1.84 2.645-3.68 4.912-3.68 2.896 0 5.288 2.284 5.477 5.33 0 0 .126.698-.189 1.967-.44 1.776-1.448 3.426-2.959 4.759l-7.681 6.662-7.682-6.662c-1.511-1.333-2.518-2.983-2.96-4.76-.314-1.268-.188-1.966-.188-1.966z"/>
            </g>
        </g>
        <g transform="translate(0 261)">
            <circle cx="40" cy="40" r="40" fill="#EBF4FC" stroke="#0070D2" stroke-width="3"/>
            <g fill="#0070D2" fill-rule="nonzero">
                <path stroke="#0070D2" d="M56.527 54.2l-4.475-4.467V28a3.304 3.304 0 0 0-3.34-3.333h-3.339V24c0-.733-.601-1.333-1.336-1.333h-2.004V22c0-1.133-.868-2-2.003-2h-4.008a2.008 2.008 0 0 0-2.003 2v.667h-2.004c-.735 0-1.336.6-1.336 1.333v.667h-3.34A3.304 3.304 0 0 0 24 28v28.667A3.304 3.304 0 0 0 27.34 60h21.372c1.87 0 3.34-1.467 3.34-3.333V51.6l3.54 3.533c.133.134.267.2.467.2s.334-.066.468-.2a.643.643 0 0 0 0-.933zM32.015 24h2.671c.401 0 .668-.267.668-.667V22c0-.4.267-.667.668-.667h4.008c.4 0 .668.334.668.667v1.333c0 .4.267.667.667.667h2.672v4.667H32.015V24zm16.697 34.667H27.34c-1.136 0-2.004-.867-2.004-2V28c0-1.133.868-2 2.004-2h3.339v2.667c0 .733.601 1.333 1.336 1.333h12.022c.735 0 1.336-.6 1.336-1.333V26h3.34c1.135 0 2.003.867 2.003 2v20.4l-3.035-3.03a7.304 7.304 0 0 0 1.7-4.703 7.319 7.319 0 0 0-7.348-7.334 7.34 7.34 0 0 0-4.238 1.334h-2.44c-.401 0-.669.266-.669.666s.268.667.668.667h1a7.291 7.291 0 0 0-1.637 4H33.35c-.401 0-.668.267-.668.667s.267.666.668.666h1.366A7.318 7.318 0 0 0 42.033 48a7.334 7.334 0 0 0 4.713-1.696l3.97 3.963v6.4c0 1.133-.868 2-2.004 2zM38.305 35.95a.592.592 0 0 0 .254-.19 6.01 6.01 0 0 1 3.474-1.093c3.34 0 6.012 2.733 6.012 6 0 3.333-2.672 6-6.012 6a5.98 5.98 0 0 1-6.01-6c0-1.923.889-3.622 2.282-4.717z"/>
                <path stroke="#0070D2" d="M28.26 47.273h8.45c.374 0 .623-.364.623-.91 0-.545-.249-.908-.623-.908h-8.45c-.374 0-.624.363-.624.909 0 .545.25.909.624.909z"/>
                <path d="M42.745 50.91h-7.793c-.39 0-.649.363-.649.908 0 .546.26.91.65.91h7.792c.39 0 .649-.364.649-.91 0-.545-.26-.909-.65-.909zM45.94 50.91c-.437 0-.728.363-.728.908 0 .546.291.91.727.91h2.182c.437 0 .727-.364.727-.91 0-.545-.29-.909-.727-.909H45.94z"/>
                <path stroke="#0070D2" d="M28.303 36.364l8.364-.03c.4 0 .666-.358.666-.894 0-.537-.266-.895-.666-.895l-8.364.03c-.4 0-.667.358-.667.894 0 .537.267.895.667.895zM28.256 41.818h6.033c.372 0 .62-.363.62-.909 0-.545-.248-.909-.62-.909h-6.033c-.372 0-.62.364-.62.91 0 .545.248.908.62.908zM46.97 50.91H28.302c-.4 0-.666.363-.666.908 0 .546.267.91.666.91H46.97c.4 0 .666-.364.666-.91 0-.545-.266-.909-.666-.909z"/>
            </g>
        </g>
        <g stroke="#0070D2" transform="translate(333 100)">
            <circle cx="40" cy="40" r="40" fill="#EBF4FC" stroke-width="3"/>
            <g fill="#0070D2">
                <path d="M40.286 38.182c-1.973 0-3.572-1.628-3.572-3.637 0-2.008 1.6-3.636 3.572-3.636s3.571 1.628 3.571 3.636c0 2.009-1.599 3.637-3.571 3.637zm0-9.697c-3.287 0-5.953 2.713-5.953 6.06 0 3.348 2.666 6.061 5.953 6.061 3.287 0 5.952-2.713 5.952-6.06 0-3.348-2.665-6.061-5.952-6.061z"/>
                <path d="M40.286 20c7.889 0 14.285 6.513 14.285 14.545 0 6-11.947 24.256-14.285 24.243C37.91 58.8 26 40.628 26 34.545 26 26.513 32.396 20 40.286 20zm0 35.152c1.949.01 11.904-15.607 11.904-20.607 0-6.693-5.33-12.12-11.904-12.12-6.575 0-11.905 5.427-11.905 12.12 0 5.068 9.925 20.617 11.905 20.607z"/>
            </g>
        </g>
        <g transform="translate(333 261)">
            <circle cx="40" cy="40" r="40" fill="#EBF4FC" stroke="#0070D2" stroke-width="3"/>
            <g fill="#0070D2" fill-rule="nonzero">
                <path d="M54.236 42.214c1.017 0 1.83.766 1.83 1.723v9.373c0 .957-.813 1.722-1.83 1.722H25.898c-1.017 0-1.898-.765-1.898-1.722v-9.374c0-.956.881-1.722 1.898-1.722s1.831.766 1.831 1.723v7.588h24.677v-7.589c0-.956.813-1.722 1.83-1.722z"/>
                <path d="M33.989 34.108c-.731.712-1.794.712-2.524 0-.732-.713-.732-1.75 0-2.462l7.306-7.127c.339-.329.79-.514 1.262-.519.465 0 .93.194 1.262.518l7.307 7.127c.731.714.731 1.75 0 2.463-.338.328-.79.514-1.262.518-.465 0-.996-.195-1.328-.518l-4.185-4.082v15.161c0 .973-.798 1.75-1.794 1.75s-1.793-.777-1.793-1.75V30.026l-4.252 4.082z"/>
            </g>
        </g>
        <path fill="#0070D2" fill-rule="nonzero" d="M280.202 269.025l-26.09-11.15c-.613-.303-1.294-1.043-1.878-2.03l17.418-.014c.304.03 7.485.677 13.243-1.764a7.775 7.775 0 0 0 4.456-5.023 7.73 7.73 0 0 0-1.138-6.646c-4.978-6.99-16.598-25.256-16.962-43.784-.008-.318-1.06-31.825-32.594-32.08-4.642.036-8.935.813-12.84 2.246a21.848 21.848 0 0 0-3.972-6.477c-5.48-6.174-14.378-9.303-26.447-9.303-12.069 0-20.966 3.13-26.45 9.298-6.32 7.114-5.733 15.74-5.584 17.186v14.01c-1.708 1.92-2.67 4.378-2.67 6.914v10.536c0 3.205 1.477 6.195 3.997 8.189 2.445 9.553 7.563 16.752 9.351 19.062v8.715c0 2.55-1.41 4.889-3.676 6.11l-23.814 12.818C136.808 270.01 132 278 132 286.704v11.162H292.169v-9.737c0-8.145-4.586-15.462-11.967-19.104zm-30.745 23.573H137.34v-5.894c0-6.772 3.743-12.996 9.768-16.236l23.814-12.817c3.986-2.146 6.46-6.263 6.46-10.738v-10.586l-.622-.732c-.064-.077-6.607-7.886-9.103-18.609l-.243-1.043-.91-.58c-1.546-.984-2.47-2.636-2.47-4.417v-10.535c0-1.478.636-2.855 1.79-3.885l.88-.783V179.34l-.024-.345c-.008-.07-.915-7.372 4.285-13.225 4.423-4.978 11.972-7.501 22.434-7.501 10.424 0 17.958 2.505 22.386 7.449 2.203 2.454 3.31 5.196 3.863 7.551.043.184.083.366.12.548.038.187.078.374.107.553.035.206.064.4.093.595.022.14.043.282.06.417a19.366 19.366 0 0 1 .095 1.003 24.475 24.475 0 0 1 .043.932c.005.22.005.427.003.609v.079c-.011.619-.054.988-.054.996l-.021 16.743.88.785c1.154 1.028 1.79 2.405 1.79 3.883v10.535c0 2.3-1.528 4.312-3.797 5.002l-1.329.403-.427 1.304c-1.786 5.481-4.33 10.544-7.565 15.048-.793 1.109-1.565 2.091-2.235 2.842l-.664.748v10.865c0 .666.066 1.32.17 1.962.022.137.06.269.086.406.104.53.243 1.048.414 1.554a12.17 12.17 0 0 0 .862 1.944c.032.058.061.118.093.176.387.674.833 1.314 1.346 1.904l.608.74h.104c.916.89 1.968 1.665 3.164 2.255l25.501 12.58c6.394 3.15 10.363 9.487 10.363 16.538v5.381zm37.373 0h-32.034v-5.38c0-9.059-5.101-17.2-13.31-21.251l-18.307-9.035c.451-1.016.51-2.18.115-3.303-.654-1.857-2.363-3.055-4.352-3.055h-5.918c-.123-.213-.203-.448-.301-.674-.134-.303-.291-.6-.38-.92a6.79 6.79 0 0 1-.258-1.822v-8.906a45.42 45.42 0 0 0 1.919-2.504c3.307-4.61 5.958-9.74 7.886-15.275 3.766-1.704 6.211-5.378 6.211-9.527v-10.535c0-2.537-.96-4.994-2.67-6.914v-14.01c.07-.659.22-2.816-.223-5.634 3.438-1.333 7.29-2.02 11.452-2.055 26.27.214 27.229 25.842 27.255 26.922.393 19.973 12.67 39.316 17.931 46.705.451.632.587 1.427.371 2.178a2.469 2.469 0 0 1-1.428 1.62c-4.485 1.904-10.568 1.364-10.88 1.351h-18.375a4.91 4.91 0 0 0-4.186 2.302 4.746 4.746 0 0 0-.23 4.696c.836 1.662 2.313 3.883 4.74 5.076l26.019 11.12c5.523 2.753 8.953 8.247 8.953 14.36v4.47z"/>
    </g>
</svg>
