<svg xmlns="http://www.w3.org/2000/svg" width="80" height="80" viewBox="0 0 80 80">
    <g fill="#FFF" fill-rule="evenodd">
        <circle cx="40" cy="40" r="40" fill-opacity=".2"/>
        <path fill-rule="nonzero" d="M58.486 20.447c-.327-.35-.76-.505-1.186-.428l-32.494 5.902c-1.056.191-2.022.847-2.723 1.848-.698.998-1.083 2.277-1.083 3.6v10.295c0 1.321.384 2.6 1.083 3.6s1.666 1.654 2.723 1.847l5.026.913v8.533c0 .909.54 1.683 1.27 1.814l8.905 1.61c.427.077.86-.079 1.187-.428.326-.347.513-.854.513-1.387V50.18L57.3 53.013c.426.077.859-.079 1.186-.427.327-.35.514-.855.514-1.39v-29.36c0-.533-.187-1.04-.514-1.388v-.001zM38 57l-6-1.147V49l6 1.153V57zm13-10l-25.702-4.357C24.558 42.518 24 41.77 24 40.91v-9.822c0-.86.558-1.607 1.297-1.732L51 25v22zm6 2l-3-.502V23.502L57 23v26z"/>
    </g>
</svg>
