<svg xmlns="http://www.w3.org/2000/svg" width="88" height="77" viewBox="0 0 88 77">
    <g fill="none" fill-rule="nonzero">
        <path fill="#E4EAF8" d="M76.847 21.383H1.537c-.849 0-1.537-.68-1.537-1.52V1.631C0 .792.688.112 1.537.112h75.31c.849 0 1.537.68 1.537 1.52v18.231c0 .84-.688 1.52-1.537 1.52z"/>
        <path fill="#FF5050" d="M18.443 21.383H1.537c-.849 0-1.537-.68-1.537-1.52V1.631C0 .792.688.112 1.537.112h16.906c.85 0 1.537.68 1.537 1.52v18.231c0 .84-.688 1.52-1.537 1.52z"/>
        <path fill="#707487" d="M52.256 9.228H26.128c-.85 0-1.537-.68-1.537-1.52s.687-1.519 1.537-1.519h26.128c.85 0 1.537.68 1.537 1.52s-.688 1.519-1.537 1.519z"/>
        <g fill="#7F8499">
            <path d="M70.7 15.305H41.496c-.85 0-1.536-.68-1.536-1.519 0-.84.687-1.52 1.536-1.52H70.7c.85 0 1.537.68 1.537 1.52s-.687 1.52-1.537 1.52zM35.35 15.305h-9.222c-.85 0-1.537-.68-1.537-1.519 0-.84.687-1.52 1.537-1.52h9.222c.85 0 1.536.68 1.536 1.52s-.687 1.52-1.536 1.52z"/>
        </g>
        <g fill="#FFF">
            <path d="M9.99 13.786c-.85 0-1.537-.68-1.537-1.52 0-.839.688-1.518 1.537-1.518 1.271 0 2.305-1.023 2.305-2.28 0-1.256-1.034-2.278-2.305-2.278-1.271 0-2.305 1.022-2.305 2.279 0 .84-.688 1.519-1.537 1.519-.85 0-1.537-.68-1.537-1.52 0-2.931 2.413-5.317 5.38-5.317 2.965 0 5.379 2.386 5.379 5.318 0 2.931-2.414 5.317-5.38 5.317zM10.005 18.344c-.85 0-1.544-.68-1.544-1.52 0-.839.68-1.518 1.53-1.518h.014c.85 0 1.537.679 1.537 1.519 0 .84-.687 1.519-1.537 1.519z"/>
        </g>
        <path fill="#E4EAF8" d="M76.847 48.73H1.537C.688 48.73 0 48.05 0 47.212V28.98c0-.839.688-1.519 1.537-1.519h75.31c.849 0 1.537.68 1.537 1.52V47.21c0 .84-.688 1.52-1.537 1.52z"/>
        <path fill="#FFDC64" d="M18.443 48.73H1.537C.688 48.73 0 48.05 0 47.212V28.98c0-.839.688-1.519 1.537-1.519h16.906c.85 0 1.537.68 1.537 1.52V47.21c0 .84-.688 1.52-1.537 1.52z"/>
        <path fill="#707487" d="M52.256 36.576H26.128c-.85 0-1.537-.68-1.537-1.52s.687-1.519 1.537-1.519h26.128c.85 0 1.537.68 1.537 1.52s-.688 1.519-1.537 1.519z"/>
        <path fill="#7F8499" d="M35.35 42.653h-9.222c-.85 0-1.537-.68-1.537-1.519 0-.84.687-1.52 1.537-1.52h9.222c.85 0 1.536.68 1.536 1.52s-.687 1.52-1.536 1.52z"/>
        <g fill="#FFF">
            <path d="M9.99 41.134c-.85 0-1.537-.68-1.537-1.52s.688-1.519 1.537-1.519c1.271 0 2.305-1.022 2.305-2.279 0-1.256-1.034-2.279-2.305-2.279-1.271 0-2.305 1.023-2.305 2.28 0 .84-.688 1.519-1.537 1.519-.85 0-1.537-.68-1.537-1.52 0-2.931 2.413-5.317 5.38-5.317 2.965 0 5.379 2.386 5.379 5.317 0 2.932-2.414 5.318-5.38 5.318zM10.005 45.692c-.85 0-1.544-.68-1.544-1.52 0-.839.68-1.518 1.53-1.518h.014c.85 0 1.537.679 1.537 1.519 0 .84-.687 1.519-1.537 1.519z"/>
        </g>
        <path fill="#E4EAF8" d="M76.847 76.079H1.537c-.849 0-1.537-.68-1.537-1.52V56.327c0-.839.688-1.519 1.537-1.519h75.31c.849 0 1.537.68 1.537 1.52v18.231c0 .84-.688 1.52-1.537 1.52z"/>
        <path fill="#7DF5A5" d="M18.443 76.079H1.537c-.849 0-1.537-.68-1.537-1.52V56.327c0-.839.688-1.519 1.537-1.519h16.906c.85 0 1.537.68 1.537 1.52v18.231c0 .84-.688 1.52-1.537 1.52z"/>
        <path fill="#707487" d="M52.256 63.924H26.128c-.85 0-1.537-.68-1.537-1.52s.687-1.519 1.537-1.519h26.128c.85 0 1.537.68 1.537 1.52s-.688 1.519-1.537 1.519z"/>
        <path fill="#7F8499" d="M35.35 70.001h-9.222c-.85 0-1.537-.68-1.537-1.52 0-.839.687-1.518 1.537-1.518h9.222c.85 0 1.536.68 1.536 1.519 0 .84-.687 1.52-1.536 1.52z"/>
        <g fill="#FFF">
            <path d="M9.99 68.482c-.85 0-1.537-.68-1.537-1.52s.688-1.519 1.537-1.519c1.271 0 2.305-1.022 2.305-2.279 0-1.256-1.034-2.279-2.305-2.279-1.271 0-2.305 1.023-2.305 2.28 0 .84-.688 1.519-1.537 1.519-.85 0-1.537-.68-1.537-1.52 0-2.932 2.413-5.317 5.38-5.317 2.965 0 5.379 2.386 5.379 5.317 0 2.932-2.414 5.318-5.38 5.318zM10.005 73.04c-.85 0-1.544-.68-1.544-1.52s.68-1.519 1.53-1.519h.014c.85 0 1.537.68 1.537 1.52s-.687 1.519-1.537 1.519z"/>
        </g>
        <g fill="#D5DCED">
            <path d="M76.847 54.808h-7.685v9.013c0 2.095 1.725 3.8 3.845 3.8.747 0 1.475-.216 2.103-.623l.617-.4 2.657 6.342V56.327c0-.839-.688-1.52-1.537-1.52zM75.722 42.248a3.834 3.834 0 0 0-2.712-1.114c-2.122 0-3.848 1.705-3.848 3.8v3.797h7.685c.849 0 1.537-.68 1.537-1.52V44.88l-2.662-2.632z"/>
        </g>
        <path fill="#464655" d="M72.236 44.934V63.82c0 .604.679.967 1.19.635l3.72-2.41 4.766 11.373a1.543 1.543 0 0 0 2.008.822l2.33-.954a1.514 1.514 0 0 0 .832-1.985L82.316 59.93l4.372-.875c.6-.12.824-.853.391-1.281l-13.53-13.376c-.485-.48-1.313-.14-1.313.537z"/>
        <g fill="#7F8499">
            <path d="M67.625 42.653H41.497c-.848 0-1.536-.68-1.536-1.519 0-.839.688-1.52 1.536-1.52h26.128c.85 0 1.537.681 1.537 1.52s-.688 1.52-1.537 1.52zM67.625 70.001H41.497c-.848 0-1.536-.68-1.536-1.52 0-.838.688-1.518 1.536-1.518h26.128c.85 0 1.537.68 1.537 1.519 0 .839-.688 1.52-1.537 1.52z"/>
        </g>
    </g>
</svg>
