<svg xmlns="http://www.w3.org/2000/svg" width="64" height="55" viewBox="0 0 64 55">
    <g fill="#0070D2" fill-rule="nonzero">
        <path d="M22.111.074H7.371c-2.048 0-3.788.716-5.222 2.15C.717 3.655 0 5.395 0 7.443v14.74c0 2.048.716 3.788 2.15 5.22 1.433 1.434 3.173 2.15 5.22 2.15h8.6c1.023 0 1.893.359 2.61 1.075.716.716 1.074 1.587 1.074 2.61v1.229c0 2.713-.96 5.028-2.879 6.948-1.92 1.918-4.235 2.878-6.948 2.878H7.37c-.665 0-1.24.244-1.727.73-.486.486-.73 1.062-.73 1.727v4.914c0 .665.244 1.242.73 1.728.486.485 1.062.73 1.727.73h2.457c2.662 0 5.202-.52 7.62-1.556 2.419-1.036 4.51-2.438 6.277-4.203 1.765-1.766 3.166-3.858 4.203-6.277a19.147 19.147 0 0 0 1.554-7.62V7.444c0-2.047-.716-3.787-2.15-5.22C25.9.79 24.16.073 22.112.073zM61.726 2.223C60.294.79 58.553.073 56.506.073h-14.74c-2.048 0-3.788.717-5.221 2.15-1.433 1.433-2.15 3.173-2.15 5.221v14.74c0 2.048.717 3.788 2.15 5.22 1.433 1.434 3.173 2.15 5.22 2.15h8.599c1.023 0 1.894.359 2.61 1.075.717.717 1.076 1.587 1.076 2.61v1.229c0 2.713-.96 5.028-2.88 6.948-1.919 1.918-4.234 2.878-6.948 2.878h-2.457c-.665 0-1.241.244-1.727.73s-.73 1.062-.73 1.727v4.914c0 .665.244 1.242.73 1.728.486.485 1.062.73 1.727.73h2.457c2.662 0 5.201-.52 7.62-1.556 2.418-1.036 4.51-2.438 6.276-4.203 1.766-1.766 3.168-3.859 4.204-6.277a19.148 19.148 0 0 0 1.554-7.62V7.444c0-2.047-.716-3.787-2.15-5.22z"/>
    </g>
</svg>
