<svg xmlns="http://www.w3.org/2000/svg" width="64" height="55" viewBox="0 0 64 55">
    <g fill="#0070D2" fill-rule="nonzero">
        <path d="M22.11 24.641h-8.598c-1.024 0-1.894-.358-2.61-1.074-.717-.717-1.075-1.587-1.075-2.611v-1.228c0-2.713.96-5.029 2.879-6.948 1.92-1.92 4.236-2.88 6.948-2.88h2.457c.665 0 1.24-.242 1.727-.728.486-.487.73-1.062.73-1.728V2.53c0-.665-.244-1.241-.73-1.727s-1.062-.73-1.727-.73h-2.457c-2.661 0-5.2.519-7.62 1.555-2.418 1.037-4.51 2.438-6.276 4.204-1.766 1.765-3.167 3.857-4.203 6.276A19.144 19.144 0 0 0 0 19.728v27.024c0 2.048.716 3.788 2.15 5.221 1.433 1.433 3.173 2.15 5.22 2.15h14.742c2.047 0 3.787-.717 5.22-2.15 1.433-1.433 2.15-3.173 2.15-5.221v-14.74c0-2.048-.717-3.787-2.15-5.221-1.433-1.433-3.174-2.15-5.221-2.15zM61.728 26.79c-1.433-1.432-3.173-2.149-5.22-2.149h-8.6c-1.022 0-1.893-.358-2.609-1.074-.717-.717-1.075-1.587-1.075-2.611v-1.228c0-2.713.96-5.029 2.879-6.948 1.919-1.92 4.235-2.88 6.949-2.88h2.456c.665 0 1.241-.242 1.727-.728.486-.487.73-1.062.73-1.728V2.53c0-.665-.244-1.241-.73-1.727s-1.062-.73-1.727-.73h-2.456c-2.664 0-5.203.519-7.622 1.555-2.418 1.037-4.51 2.438-6.275 4.204-1.766 1.765-3.168 3.857-4.204 6.276a19.15 19.15 0 0 0-1.555 7.62v27.024c0 2.048.717 3.788 2.15 5.221 1.432 1.433 3.173 2.15 5.22 2.15h14.74c2.048 0 3.788-.717 5.221-2.15 1.434-1.433 2.15-3.173 2.15-5.221v-14.74c0-2.048-.716-3.787-2.149-5.221z"/>
    </g>
</svg>
