<svg xmlns="http://www.w3.org/2000/svg" width="86" height="81" viewBox="0 0 86 81">
    <g fill="none" fill-rule="nonzero">
        <path fill="#A4E869" d="M42.808 39.801c5.008 1.657 31.06 10.814 40.271 24.692 8.045 12.116-1.743 21.33-14.603 13.756-14.736-8.68-24.457-33.213-26.217-37.928-.149-.398.13-.658.55-.52z"/>
        <path fill="#FFF" d="M78.65 74.078c-.737.695-2.88 2.059-6.857-.284-5.96-3.51-12.205-12.565-17.05-22.11-.05-.1.026-.168.132-.124 10.138 4.566 19.747 10.445 23.478 16.058 2.484 3.743 1.035 5.765.297 6.46z"/>
        <ellipse cx="25.8" cy="24.3" fill="#26B99A" rx="25.8" ry="24.3"/>
        <path fill="#A4E869" d="M9.38 43.902a26.597 26.597 0 0 0 8.37 4.698c6.65-2.319 14.97-6.912 20.738-12.346C44.26 30.821 49.14 22.984 51.6 16.72a24.434 24.434 0 0 0-4.988-7.884c-1.905 6.682-7.432 15.774-13.958 21.92C26.13 36.9 16.472 42.106 9.38 43.902zM24.68 9.99l4.187 1.336 3.543-2.49L32.353 13l3.612 2.402-4.221 1.24-1.317 3.975-2.55-3.399-4.422.05 2.646-3.334-1.422-3.945zM9.043 20.3l4.188 1.334 3.542-2.491-.056 4.165 3.609 2.403-4.22 1.235-1.314 3.98-2.554-3.4-4.419.055 2.647-3.338L9.043 20.3z"/>
    </g>
</svg>
