<svg xmlns="http://www.w3.org/2000/svg" width="35" height="32" viewBox="0 0 35 32">
    <g fill="none" fill-rule="nonzero">
        <path fill="#F4B459" d="M6.412 10.5h21.374l6.413 6.28H0z"/>
        <path fill="#D07C40" d="M7.49 12.56h19.22l5.338 5.25s-.427 5.25-1.174 5.25H3.11c-.64 0-.96-5.25-.96-5.25l5.338-5.25z"/>
        <path fill="#F4B459" d="M23.512 16.78v2.104c0 1.156-.962 2.103-2.138 2.103h-8.55c-1.175 0-2.137-.947-2.137-2.103V16.78H0v12.618c0 1.157.962 2.103 2.137 2.103h29.924c1.176 0 2.138-.946 2.138-2.103V16.781H23.512z"/>
        <path fill="#475F6C" d="M23.179 7.363h-2.985V1.052C20.194.42 19.768 0 19.13 0h-4.264c-.64 0-1.066.42-1.066 1.052v6.31h-2.984c-1.172 0-1.599.737-1.066 1.684l6.182 5.995c.533.947 1.492.947 2.132 0l6.182-5.995c.533-.947.106-1.683-1.066-1.683z"/>
    </g>
</svg>
