<?xml version="1.0" encoding="UTF-8"?>
<svg width="82px" height="82px" viewBox="0 0 82 82" version="1.1" xmlns="http://www.w3.org/2000/svg" xmlns:xlink="http://www.w3.org/1999/xlink">
    <!-- Generator: sketchtool 42 (36781) - http://www.bohemiancoding.com/sketch -->
    <title>2EBBE3A0-FFFD-4A20-9490-47D7E1633D4E</title>
    <desc>Created with sketchtool.</desc>
    <defs></defs>
    <g id="Public-Content" stroke="none" stroke-width="1" fill="none" fill-rule="evenodd">
        <g id="Landing-Page" transform="translate(-787.000000, -1151.000000)" fill-rule="nonzero">
            <g id="strategy" transform="translate(787.000000, 1151.000000)">
                <g id="Layer_1">
                    <g id="Strategy">
                        <g id="strategy">
                            <path d="M49.9081617,80.9271482 C50.0535957,81.517283 50.6698113,82 51.277628,82 L61.4447439,82 C62.0525606,82 62.4309542,81.517062 62.2855202,80.9271482 L51.7629973,38.2051482 C51.6175633,37.6150135 51.0013477,37.1320755 50.393531,37.1320755 L40.2264151,37.1320755 C39.6185984,37.1320755 39.2402049,37.6150135 39.3856388,38.2049272 L49.9081617,80.9271482 Z" id="Shape" fill="#E87E04"></path>
                            <path d="M31.4287655,80.9271482 C31.2833315,81.517062 30.6671159,82 30.0592992,82 L19.8921833,82 C19.2843666,82 18.905973,81.517062 19.051407,80.9271482 L29.5739299,38.2051482 C29.7193639,37.6150135 30.3355795,37.1322965 30.9433962,37.1322965 L41.1105121,37.1322965 C41.7183288,37.1322965 42.0967224,37.6152345 41.9512884,38.2051482 L31.4287655,80.9271482 Z" id="Shape" fill="#E87E04"></path>
                            <polygon id="Shape" fill="#D55400" points="39.1212938 37.1320755 29.8382749 37.1320755 24.1765175 60.1185984 36.553876 60.1185984 40.6684636 43.4135849"></polygon>
                            <polygon id="Shape" fill="#D55400" points="51.4986523 37.1320755 42.2156334 37.1320755 40.6684636 43.4135849 44.7830512 60.1185984 57.1604097 60.1185984"></polygon>
                            <path d="M26.0815256,77.5797358 C26.0344474,77.5797358 25.9864852,77.5746523 25.9385229,77.5640431 C25.5809057,77.4855795 25.3545768,77.1319407 25.4332615,76.7743235 L27.643504,66.7177197 C27.7221887,66.3598814 28.0749434,66.1328895 28.4334447,66.2124582 C28.791062,66.2909218 29.0173908,66.6445606 28.9387062,67.0021779 L26.7284636,77.0587817 C26.6603881,77.3684367 26.386097,77.5797358 26.0815256,77.5797358 Z" id="Shape" fill="#D55400"></path>
                            <path d="M29.1756442,79.7899784 C29.1212722,79.7899784 29.0660162,79.7833477 29.0109811,79.7689811 C28.6562372,79.6783612 28.4420647,79.3172075 28.5326846,78.9624636 L36.0475094,49.5662372 C36.1383504,49.2117143 36.498841,48.9968787 36.854248,49.0881617 C37.2089919,49.1787817 37.4231644,49.5399353 37.3325445,49.8946792 L29.8177197,79.2909057 C29.7410243,79.5906146 29.4713747,79.7899784 29.1756442,79.7899784 Z" id="Shape" fill="#D55400"></path>
                            <path d="M23.4290135,74.1907709 C23.3797251,74.1907709 23.3295526,74.1852453 23.2793801,74.173531 C22.9226469,74.09131 22.7000755,73.7352399 22.7822965,73.3782857 L25.8766361,59.969407 C25.9590782,59.6128949 26.3147062,59.3898814 26.6718814,59.4725445 C27.0286146,59.5547655 27.251186,59.9108356 27.168965,60.2677898 L24.0746253,73.6766685 C24.0038976,73.9832291 23.7309326,74.1907709 23.4290135,74.1907709 Z" id="Shape" fill="#D55400"></path>
                            <path d="M55.2554016,77.5797358 C54.9508302,77.5797358 54.6765391,77.3684367 54.6084636,77.0587817 L52.398221,67.0021779 C52.3197574,66.6445606 52.5458652,66.2909218 52.9034825,66.2124582 C53.2606577,66.1328895 53.6147385,66.3598814 53.6934232,66.7177197 L55.9036658,76.7743235 C55.9821294,77.1319407 55.7560216,77.4855795 55.3984043,77.5640431 C55.350442,77.5746523 55.3024798,77.5797358 55.2554016,77.5797358 Z" id="Shape" fill="#D55400"></path>
                            <path d="M52.161283,79.7899784 C51.8655526,79.7899784 51.595903,79.5906146 51.5192075,79.2909057 L44.0043827,49.8946792 C43.9137628,49.5399353 44.1279353,49.1787817 44.4826792,49.0881617 C44.8378652,48.9962156 45.1985768,49.2117143 45.2894178,49.5662372 L52.8042426,78.9624636 C52.8948625,79.3172075 52.68069,79.6783612 52.3259461,79.7689811 C52.2709111,79.7833477 52.215655,79.7899784 52.161283,79.7899784 Z" id="Shape" fill="#D55400"></path>
                            <path d="M57.9079137,74.1907709 C57.6059946,74.1907709 57.3330296,73.9834501 57.2623019,73.6766685 L54.1679623,60.2677898 C54.0855202,59.9110566 54.3080916,59.5547655 54.6650458,59.4725445 C55.0226631,59.3898814 55.3780701,59.6126739 55.4602911,59.969407 L58.5546307,73.3782857 C58.6370728,73.7350189 58.4145013,74.09131 58.0575472,74.173531 C58.0073747,74.1852453 57.9572022,74.1907709 57.9079137,74.1907709 Z" id="Shape" fill="#D55400"></path>
                            <rect id="Rectangle-path" fill="#33495F" x="1.76819407" y="0" width="77.8005391" height="57.6873315"></rect>
                            <path d="M81.115903,1.10512129 C81.115903,1.71293801 80.6185984,2.21024259 80.0107817,2.21024259 L1.10512129,2.21024259 C0.497304582,2.21024259 0,1.71293801 0,1.10512129 L0,1.10512129 C0,0.497304582 0.497304582,0 1.10512129,0 L80.0107817,0 C80.6185984,0 81.115903,0.497304582 81.115903,1.10512129 L81.115903,1.10512129 Z" id="Shape" fill="#2B3E51"></path>
                            <path d="M81.115903,56.5822102 C81.115903,57.190027 80.6185984,57.6873315 80.0107817,57.6873315 L1.10512129,57.6873315 C0.497304582,57.6873315 0,57.190027 0,56.5822102 L0,56.5822102 C0,55.9743935 0.497304582,55.4770889 1.10512129,55.4770889 L80.0107817,55.4770889 C80.6185984,55.4770889 81.115903,55.9743935 81.115903,56.5822102 L81.115903,56.5822102 Z" id="Shape" fill="#2B3E51"></path>
                            <circle id="Oval" fill="#ECF0F1" cx="12.3773585" cy="16.2821941" r="2.65229111"></circle>
                            <ellipse id="Oval" fill="#ECF0F1" cx="17.0188679" cy="45.6784205" rx="2.65229111" ry="2.65229111"></ellipse>
                            <circle id="Oval" fill="#ECF0F1" cx="19.671159" cy="28.8805768" r="2.65229111"></circle>
                            <path d="M11.7881078,43.3947978 C11.6700809,43.3947978 11.552496,43.3477197 11.4654124,43.2548895 C5.71126685,37.1119623 5.202469,31.2994663 5.78862534,27.5053639 C6.42473315,23.3890081 8.40599461,20.764566 8.48998383,20.654938 C8.63873315,20.4608787 8.9161186,20.4248518 9.10973585,20.572717 C9.3033531,20.7212453 9.34026415,20.9984097 9.1921779,21.192248 C9.16919137,21.2223073 7.24871159,23.779558 6.65614555,27.6808571 C5.86311051,32.9034394 7.69805391,37.9399191 12.1103612,42.6506092 C12.2772345,42.8287547 12.2681725,43.1083504 12.090027,43.2754447 C12.0049326,43.3552345 11.8964097,43.3947978 11.7881078,43.3947978 Z" id="Shape" fill="#ECF0F1"></path>
                            <path d="M12.3773585,44.1314717 C12.3481833,44.1314717 12.3190081,44.1285984 12.2898329,44.1226307 L8.09037197,43.2747817 C7.8510027,43.2265984 7.69628571,42.9934178 7.74469003,42.7542695 C7.79287332,42.5151213 8.02516981,42.3592992 8.26542318,42.4085876 L11.93531,43.1492399 L11.93531,39.3423181 C11.93531,39.0983073 12.1333477,38.9002695 12.3773585,38.9002695 C12.6213693,38.9002695 12.819407,39.0983073 12.819407,39.3423181 L12.819407,43.6894232 C12.819407,43.8220377 12.7599515,43.9475795 12.6573962,44.0315687 C12.5776065,44.0967709 12.4785876,44.1314717 12.3773585,44.1314717 Z" id="Shape" fill="#ECF0F1"></path>
                            <path d="M41.1105121,22.7659407 C40.9973477,22.7659407 40.8841833,22.722841 40.7979838,22.6364205 L36.3774987,18.2159353 C36.2048787,18.0433154 36.2048787,17.7634987 36.3774987,17.5908787 C36.5498976,17.4182588 36.8301563,17.4182588 37.0025553,17.5908787 L41.4230404,22.0113639 C41.5956604,22.1839838 41.5956604,22.4638005 41.4230404,22.6364205 C41.336841,22.722841 41.2236765,22.7659407 41.1105121,22.7659407 Z" id="Shape" fill="#ECF0F1"></path>
                            <path d="M36.690027,22.7659407 C36.5768625,22.7659407 36.4636981,22.722841 36.3774987,22.6364205 C36.2048787,22.4638005 36.2048787,22.1839838 36.3774987,22.0113639 L40.7979838,17.5908787 C40.9703827,17.4182588 41.2506415,17.4182588 41.4230404,17.5908787 C41.5956604,17.7634987 41.5956604,18.0433154 41.4230404,18.2159353 L37.0025553,22.6364205 C36.9163558,22.722841 36.8031914,22.7659407 36.690027,22.7659407 Z" id="Shape" fill="#ECF0F1"></path>
                            <g id="Group" transform="translate(49.509434, 32.711590)" fill="#ECF0F1">
                                <path d="M4.86253369,5.30502426 C4.74936927,5.30502426 4.63620485,5.26192453 4.55000539,5.17550404 L0.129520216,0.755018868 C-0.0430997305,0.582398922 -0.0430997305,0.30258221 0.129520216,0.129962264 C0.301919137,-0.0426576819 0.582177898,-0.0426576819 0.754576819,0.129962264 L5.17506199,4.55044744 C5.34768194,4.72306739 5.34768194,5.0028841 5.17506199,5.17550404 C5.08886253,5.26192453 4.97569811,5.30502426 4.86253369,5.30502426 Z" id="Shape"></path>
                                <path d="M0.442048518,5.30502426 C0.328884097,5.30502426 0.215719677,5.26192453 0.129520216,5.17550404 C-0.0430997305,5.0028841 -0.0430997305,4.72306739 0.129520216,4.55044744 L4.55000539,0.129962264 C4.72240431,-0.0426576819 5.00266307,-0.0426576819 5.17506199,0.129962264 C5.34768194,0.30258221 5.34768194,0.582398922 5.17506199,0.755018868 L0.754576819,5.17550404 C0.668377358,5.26192453 0.555212938,5.30502426 0.442048518,5.30502426 Z" id="Shape"></path>
                            </g>
                            <path d="M67.4123989,25.8602803 C67.2992345,25.8602803 67.1860701,25.8171806 67.0998706,25.7307601 L62.6793854,21.3102749 C62.5067655,21.137655 62.5067655,20.8578383 62.6793854,20.6852183 C62.8517844,20.5125984 63.1320431,20.5125984 63.304442,20.6852183 L67.7249272,25.1057035 C67.8975472,25.2783235 67.8975472,25.5581402 67.7249272,25.7307601 C67.6387278,25.8171806 67.5255633,25.8602803 67.4123989,25.8602803 Z" id="Shape" fill="#ECF0F1"></path>
                            <path d="M62.9919137,25.8602803 C62.8787493,25.8602803 62.7655849,25.8171806 62.6793854,25.7307601 C62.5067655,25.5581402 62.5067655,25.2783235 62.6793854,25.1057035 L67.0998706,20.6852183 C67.2722695,20.5125984 67.5525283,20.5125984 67.7249272,20.6852183 C67.8975472,20.8578383 67.8975472,21.137655 67.7249272,21.3102749 L63.304442,25.7307601 C63.2182426,25.8171806 63.1050782,25.8602803 62.9919137,25.8602803 Z" id="Shape" fill="#ECF0F1"></path>
                            <circle id="Oval" fill="#ECF0F1" cx="64.7601078" cy="46.3414933" r="2.65229111"></circle>
                            <path d="M58.2489542,35.1430782 C58.0537898,35.1430782 57.8754232,35.0126739 57.8223774,34.8155202 C57.7591644,34.5799084 57.8986307,34.3376658 58.1342426,34.2742318 L58.1342426,34.2742318 C58.3137143,34.2253854 62.5372668,33.0318544 63.2186846,28.7738221 C63.2573639,28.5329057 63.4834717,28.3673585 63.7250512,28.4073639 C63.9661887,28.4458221 64.1301887,28.672593 64.0917305,28.9137305 C63.3183666,33.7455418 58.565903,35.0736765 58.3638868,35.1278275 C58.3254286,35.1382156 58.2867493,35.1430782 58.2489542,35.1430782 Z" id="Shape" fill="#ECF0F1"></path>
                            <path d="M64.7601078,32.380496 C64.5786469,32.380496 64.4084582,32.2675526 64.3439191,32.0869757 L63.3800323,29.3878275 L60.4667116,30.2617574 C60.233531,30.331159 59.9866469,30.1994286 59.9163612,29.9651429 C59.8462965,29.7312992 59.9789111,29.4848571 60.2127547,29.4147925 L63.5281186,28.4201833 C63.7535633,28.353434 63.9922695,28.4734501 64.0713962,28.6949164 L65.1765175,31.7894771 C65.2587385,32.0193423 65.1389434,32.2724151 64.9090782,32.3546361 C64.8595687,32.372097 64.8093962,32.380496 64.7601078,32.380496 Z" id="Shape" fill="#ECF0F1"></path>
                            <path d="M69.6960216,43.4681779 C69.6144636,43.4681779 69.5322426,43.4456334 69.4584205,43.3987763 C69.2526469,43.2672668 69.1923073,42.9940809 69.3238167,42.7883073 C69.3463612,42.7529434 71.5946199,39.1924636 72.9033046,33.947779 C74.1052345,29.1307763 74.7375849,21.8590782 70.9255795,14.5714663 C70.8124151,14.3550836 70.8959623,14.0880863 71.112345,13.9749218 C71.3287278,13.8621995 71.5959461,13.9455256 71.7088895,14.1619084 C75.6552776,21.7063504 74.9990566,29.2183019 73.7535849,34.1913477 C72.4068841,39.5684259 70.1634879,43.1160863 70.0686685,43.2643935 C69.9844582,43.396124 69.8418976,43.4681779 69.6960216,43.4681779 Z" id="Shape" fill="#ECF0F1"></path>
                            <path d="M69.6964636,18.3456765 C69.6531429,18.3456765 69.608938,18.3392668 69.5653962,18.3255633 C69.3322156,18.2532884 69.2018113,18.0055202 69.2743073,17.7723396 L70.6004528,13.4988356 C70.63869,13.3757251 70.7284259,13.2756011 70.8464528,13.2245445 C70.9644798,13.1728248 71.0990836,13.1759191 71.2149003,13.2318383 L75.6353854,15.3684798 C75.8553046,15.4745714 75.9472507,15.7391375 75.841159,15.9588356 C75.7348464,16.1785337 75.4702803,16.2707008 75.2508032,16.1646092 L71.2927008,14.2514232 L70.1186199,18.0344744 C70.0598275,18.2238922 69.8849973,18.3456765 69.6964636,18.3456765 Z" id="Shape" fill="#ECF0F1"></path>
                            <ellipse id="Oval" fill="#ECF0F1" cx="50.8355795" cy="11.6406846" rx="2.65229111" ry="2.65229111"></ellipse>
                            <circle id="Oval" fill="#ECF0F1" cx="32.9326146" cy="40.152814" r="2.65229111"></circle>
                            <path d="M28.2911051,37.574124 C28.1724151,37.574124 28.0543881,37.5266038 27.9673046,37.4328895 L22.7639515,31.8336819 C22.5977412,31.6548733 22.6079084,31.3752776 22.786938,31.2090674 C22.9659677,31.0428571 23.2455633,31.0532453 23.4115526,31.2320539 L28.6149057,36.8312615 C28.7811159,37.0100701 28.7709488,37.2896658 28.5919191,37.455876 C28.5070458,37.5350027 28.398965,37.574124 28.2911051,37.574124 Z" id="Shape" fill="#ECF0F1"></path>
                            <path d="M29.1752022,38.0166146 C29.1586253,38.0166146 29.1418275,38.0157305 29.1250296,38.0137412 L24.9255687,37.5343396 C24.6831051,37.5064906 24.508938,37.2874555 24.536566,37.0449919 C24.5641941,36.8023073 24.7827871,36.6274771 25.0259137,36.6557682 L28.5832992,37.0620108 L27.6426199,33.4873854 C27.5805121,33.2513315 27.7215256,33.009531 27.9575795,32.9474232 C28.1934124,32.8850943 28.435434,33.0263288 28.4975418,33.2626038 L29.6026631,37.4620647 C29.6397951,37.6032992 29.6048733,37.7533747 29.5093908,37.8636658 C29.4249596,37.9615795 29.3027332,38.0166146 29.1752022,38.0166146 Z" id="Shape" fill="#ECF0F1"></path>
                        </g>
                    </g>
                </g>
            </g>
        </g>
    </g>
</svg>