<svg xmlns="http://www.w3.org/2000/svg" width="269" height="205" viewBox="0 0 269 205">
    <g fill="#FFF" fill-rule="nonzero">
        <path d="M148.295 170.833H59.634c-2.743 0-4.967 2.404-4.967 5.37 0 2.964 2.224 5.368 4.967 5.368h88.66c2.744 0 4.968-2.403 4.968-5.369 0-2.965-2.225-5.369-4.967-5.369zM202.997 170.833H171.86c-2.724 0-4.931 2.404-4.931 5.37 0 2.964 2.207 5.368 4.93 5.368h31.138c2.724 0 4.932-2.404 4.932-5.369s-2.209-5.369-4.932-5.369zM67.227 146.429H32.344c-2.767 0-5.01 2.404-5.01 5.369s2.243 5.369 5.01 5.369h34.883c2.767 0 5.011-2.404 5.011-5.37 0-2.964-2.244-5.368-5.011-5.368zM233.18 146.429H90.915c-2.768 0-5.011 2.404-5.011 5.369s2.243 5.369 5.01 5.369H233.18c2.768 0 5.011-2.404 5.011-5.37 0-2.964-2.243-5.368-5.01-5.368zM103.285 194.262H87.072c-2.801 0-5.072 2.404-5.072 5.369S84.271 205 87.072 205h16.213c2.801 0 5.072-2.404 5.072-5.369s-2.27-5.37-5.072-5.37zM171.804 194.262h-42.941c-2.699 0-4.887 2.404-4.887 5.369s2.188 5.369 4.887 5.369h42.941c2.699 0 4.886-2.404 4.886-5.369s-2.187-5.37-4.886-5.37zM263.47 119.931h-74.842a57.41 57.41 0 0 0 3.428-19.502c0-31.692-25.942-57.477-57.83-57.477-31.887 0-57.83 25.784-57.83 57.477a57.388 57.388 0 0 0 3.433 19.502H4.982c-2.752 0-4.982 2.217-4.982 4.951 0 2.735 2.23 4.951 4.982 4.951H263.47c2.75 0 4.981-2.216 4.981-4.95 0-2.735-2.23-4.952-4.982-4.952zm-85.572 0H90.554a47.515 47.515 0 0 1-4.195-19.502c0-26.233 21.473-47.575 47.867-47.575 26.395 0 47.868 21.342 47.868 47.575 0 6.727-1.445 13.41-4.196 19.502zM134.226 0c-2.965 0-5.369 2.221-5.369 4.96v24.247c0 2.74 2.404 4.96 5.37 4.96 2.964 0 5.368-2.221 5.368-4.961V4.96c0-2.739-2.404-4.96-5.369-4.96z"/>
        <path d="M228.49 96.643h-23.552c-2.661 0-4.819 2.404-4.819 5.369s2.158 5.369 4.819 5.369h23.553c2.66 0 4.819-2.404 4.819-5.37 0-2.964-2.158-5.368-4.82-5.368zM61.562 96.643H38.01c-2.66 0-4.819 2.404-4.819 5.369s2.158 5.369 4.82 5.369h23.552c2.661 0 4.819-2.404 4.819-5.37 0-2.964-2.158-5.368-4.819-5.368zM204.509 29.777a5.01 5.01 0 0 0-7.085 0L180.11 47.09a5.01 5.01 0 1 0 7.085 7.085l17.314-17.315a5.01 5.01 0 0 0 0-7.084zM86.39 47.091L69.076 29.777a5.01 5.01 0 1 0-7.085 7.084l17.314 17.315a4.993 4.993 0 0 0 3.542 1.467 5.009 5.009 0 0 0 3.542-8.552zM110.938 33.084l-4.323-11.404c-.976-2.574-3.703-3.81-6.09-2.757-1.811.798-2.906 2.678-2.906 4.663 0 .634.112 1.278.348 1.902l4.323 11.405c.74 1.95 2.484 3.13 4.326 3.13.588 0 1.187-.12 1.765-.374 1.81-.798 2.905-2.678 2.905-4.663 0-.634-.112-1.278-.348-1.902zM167.015 18.942c-2.36-1.078-5.078.13-6.069 2.698l-4.393 11.385a5.399 5.399 0 0 0-.363 1.949c0 1.972 1.068 3.845 2.843 4.655a4.296 4.296 0 0 0 1.793.395c1.81 0 3.53-1.162 4.276-3.093l4.393-11.385a5.399 5.399 0 0 0 .362-1.949c.001-1.97-1.068-3.844-2.842-4.655zM215.379 69.286c-1.003-2.387-3.81-3.532-6.266-2.557l-10.886 4.323c-1.861.739-2.989 2.484-2.989 4.326 0 .588.115 1.186.359 1.765.76 1.81 2.556 2.905 4.45 2.905.605 0 1.22-.112 1.815-.348l10.886-4.323c1.863-.74 2.99-2.485 2.99-4.326 0-.588-.115-1.186-.359-1.765zM70.263 69.185L59.395 64.79c-2.451-.991-5.275.119-6.304 2.48a4.482 4.482 0 0 0-.377 1.79c0 1.813 1.108 3.534 2.953 4.279l10.867 4.393c.61.246 1.241.362 1.862.362 1.881 0 3.668-1.068 4.442-2.842a4.473 4.473 0 0 0 .376-1.79c.002-1.812-1.107-3.533-2.951-4.278z"/>
    </g>
</svg>
