<svg xmlns="http://www.w3.org/2000/svg" width="109" height="70" viewBox="0 0 109 70">
    <g fill="none" fill-rule="nonzero">
        <path fill="#FECB2D" d="M48.1 56.488c-3.847 2.388-8.364 3.79-13.22 3.79C20.967 60.278 9.69 48.96 9.69 35c0-13.961 11.277-25.278 25.19-25.278 4.856 0 9.373 1.402 13.22 3.79a25.328 25.328 0 0 1 7.127 6.627c3.032 4.174 4.844 9.3 4.844 14.861s-1.812 10.687-4.844 14.861a25.333 25.333 0 0 0 7.127 6.627C66.977 50.55 69.76 43.103 69.76 35s-2.783-15.55-7.406-21.488a35.131 35.131 0 0 0-7.127-6.881C49.493 2.477 42.476 0 34.88 0 15.648 0 0 15.7 0 35c0 19.299 15.648 35 34.88 35 7.596 0 14.613-2.477 20.347-6.63a35.12 35.12 0 0 1-7.127-6.882"/>
        <path fill="#D1A014" d="M74.12 0c-7.596 0-14.613 2.477-20.347 6.63a35.114 35.114 0 0 1 7.127 6.882c3.847-2.388 8.366-3.79 13.22-3.79C88.033 9.722 99.31 21.04 99.31 35c0 13.961-11.277 25.278-25.19 25.278-4.854 0-9.373-1.402-13.22-3.79a25.328 25.328 0 0 1-7.127-6.627c-3.032-4.174-4.844-9.3-4.844-14.86 0-5.562 1.812-10.688 4.844-14.862a25.333 25.333 0 0 0-7.127-6.627C42.023 19.45 39.24 26.898 39.24 35c0 8.103 2.783 15.55 7.406 21.488a35.125 35.125 0 0 0 7.127 6.881C59.507 67.523 66.524 70 74.12 70 93.352 70 109 54.299 109 35c0-19.298-15.648-35-34.88-35"/>
    </g>
</svg>
