<svg xmlns="http://www.w3.org/2000/svg" width="29" height="26" viewBox="0 0 29 26">
    <g fill="#16325C" fill-rule="nonzero">
        <path d="M7.196 20.438c-.278.244-.504.722-.504 1.067V26h2.975v-7.105c0-.345-.226-.427-.504-.183l-1.967 1.726zM19.094 16.014c-.278.248-.504.734-.504 1.086V26h2.974V14.443c0-.35-.225-.434-.504-.186l-1.966 1.757zM23.458 12.11c-.224.247-.407.734-.407 1.085V26h2.231V10.73c0-.352-.182-.436-.407-.187l-1.417 1.566zM15.464 19.685l-.297.27c-.163.15-.295.563-.295.921V26h2.974v-7.835c0-.359-.226-.444-.504-.19l-1.878 1.71zM11.658 18.71c-.278-.24-.504-.16-.504.18V26h2.974v-4.546c0-.34-.214-.8-.478-1.027l-.478-.411-1.514-1.306zM4.286 23.655l-.86.87c-.25.25-.452.683-.452.965V26H5.95v-3.381c0-.356-.202-.44-.452-.188l-1.211 1.224z"/>
        <path d="M28.542 10.666c.253.253.458.167.458-.19V1.24C29 .58 28.365 0 27.706 0h-9.203c-.358 0-.443.205-.19.458l3.274 3.268-1.336 1.327-6.192 6.184-3.276-3.267a.649.649 0 0 0-.916 0L.76 17.064a2.582 2.582 0 0 0 0 3.658l.064.064a2.594 2.594 0 0 0 3.664 0l5.838-5.829 3.275 3.265a.65.65 0 0 0 .917 0L25.314 7.447l3.228 3.219z"/>
    </g>
</svg>
