<svg xmlns="http://www.w3.org/2000/svg" width="27" height="31" viewBox="0 0 27 31">
    <g fill="none" fill-rule="evenodd">
        <path fill="#16325C" fill-rule="nonzero" stroke="#16325C" d="M20.494 1H2.04A1.03 1.03 0 0 0 1 2.019v23.964C1 26.545 1.465 27 2.04 27h18.454c.574 0 1.04-.455 1.04-1.017V2.019A1.03 1.03 0 0 0 20.494 1zM2.553 25.336V2.665h17.052v22.671H2.553zM6.848 8.365h8.838c.286 0 .52-.229.52-.51a.515.515 0 0 0-.52-.51H6.848a.515.515 0 0 0-.52.51c0 .281.233.51.52.51zm0 3.999h8.838c.286 0 .52-.227.52-.508a.514.514 0 0 0-.52-.51H6.848a.514.514 0 0 0-.52.51c0 .28.233.508.52.508zm0 4h8.838c.286 0 .52-.227.52-.51a.515.515 0 0 0-.52-.509H6.848a.515.515 0 0 0-.52.51c0 .282.233.51.52.51zm0 4h8.838c.286 0 .52-.228.52-.509 0-.28-.234-.51-.52-.51H6.848a.516.516 0 0 0-.52.51c0 .281.233.51.52.51z"/>
        <g transform="translate(15 19)">
            <circle cx="6" cy="6" r="5" fill="#FFF"/>
            <path fill="#16325C" fill-rule="nonzero" d="M6 0C2.692 0 0 2.691 0 6s2.692 6 6 6 6-2.691 6-6-2.692-6-6-6zm2.885 6.462H6.462V9a.462.462 0 0 1-.924 0V6.462H3.115a.462.462 0 0 1 0-.924h2.423V3.231a.462.462 0 0 1 .924 0v2.307h2.423a.462.462 0 0 1 0 .924z"/>
        </g>
    </g>
</svg>
