<svg xmlns="http://www.w3.org/2000/svg" width="26" height="26" viewBox="0 0 26 26">
    <g fill="none" fill-rule="evenodd">
        <rect width="25.536" height="26" fill="#16325C" rx="12.768"/>
        <path fill="#FFF" d="M14.316 15.03h-2.59l-.54-8.53h3.671l-.541 8.53zm-3.173 2.986c0-.49.159-.859.477-1.109.319-.25.782-.375 1.39-.375.588 0 1.042.128 1.364.384.322.256.483.623.483 1.1 0 .46-.163.822-.488 1.087-.325.265-.778.397-1.358.397-.595 0-1.055-.13-1.38-.389-.325-.259-.488-.624-.488-1.095z"/>
    </g>
</svg>
