<svg xmlns="http://www.w3.org/2000/svg" width="24" height="24" viewBox="0 0 24 24">
    <g fill="none" fill-rule="nonzero">
        <circle cx="11.998" cy="11.998" r="11.998" fill="#E84849"/>
        <path fill="#EDC92C" d="M20.722 16.906L12.49 3.638a.525.525 0 0 0-.894 0L3.342 16.943a.525.525 0 0 0 .446.803h16.513a.526.526 0 0 0 .421-.84z"/>
        <path fill="#000" d="M11.434 12.259l-.17-2.554a18.95 18.95 0 0 1-.049-1.072c0-.295.078-.525.232-.69a.796.796 0 0 1 .61-.248c.307 0 .511.105.614.317.103.211.155.516.155.914 0 .235-.013.473-.037.715l-.23 2.628c-.025.313-.078.553-.16.72a.42.42 0 0 1-.405.25c-.192 0-.326-.08-.4-.242-.075-.161-.128-.408-.16-.738zm.592 3.508a.838.838 0 0 1-.568-.21c-.162-.14-.243-.337-.243-.59 0-.22.078-.407.232-.562a.773.773 0 0 1 .568-.232.79.79 0 0 1 .573.232.758.758 0 0 1 .238.563c0 .249-.08.444-.24.586a.817.817 0 0 1-.56.213z"/>
    </g>
</svg>
