<svg xmlns="http://www.w3.org/2000/svg" width="32" height="30" viewBox="0 0 32 30">
    <g fill="none" fill-rule="nonzero">
        <path fill="#CAD3E2" d="M31.5 12.82L28.83 2.467A3.27 3.27 0 0 0 25.666.015H9.808a2.18 2.18 0 0 0-2.18 2.18A2.18 2.18 0 0 0 5.45.015h-3.27A2.18 2.18 0 0 0 0 2.195v12.533a2.18 2.18 0 0 0 2.18 2.18h3.27a2.18 2.18 0 0 0 2.179-2.18 2.18 2.18 0 0 0 2.18 2.18s5.448 2.179 5.448 5.993v6.539c0 .3.244.545.545.545h.545a4.36 4.36 0 0 0 4.36-4.36v-8.718h7.628A3.27 3.27 0 0 0 31.5 12.82z"/>
        <path fill="#2F3741" d="M2.18.015h3.27a2.18 2.18 0 0 1 2.179 2.18v12.533a2.18 2.18 0 0 1-2.18 2.18H2.18A2.18 2.18 0 0 1 0 14.727V2.195A2.18 2.18 0 0 1 2.18.015z"/>
    </g>
</svg>
