<svg xmlns="http://www.w3.org/2000/svg" width="32" height="30" viewBox="0 0 32 30">
    <g fill="none" fill-rule="nonzero">
        <path fill="#FFF" d="M28.17 13.017h-7.585V4.349A4.334 4.334 0 0 0 16.252.015h-.542c-.3 0-.542.243-.542.542v6.5c0 3.793-5.417 5.96-5.417 5.96-1.197 0-2.167.97-2.167 2.166 0-1.196-.97-2.166-2.167-2.166h-3.25C.97 13.017 0 13.987 0 15.183v12.46c0 1.197.97 2.167 2.167 2.167h3.25c1.197 0 2.167-.97 2.167-2.167 0 1.197.97 2.167 2.167 2.167h15.764a3.25 3.25 0 0 0 3.147-2.438l2.655-10.293a3.25 3.25 0 0 0-3.148-4.062z"/>
        <path fill="#2F3741" d="M2.167 13.017h3.25c1.197 0 2.167.97 2.167 2.166v12.46c0 1.197-.97 2.167-2.167 2.167h-3.25A2.167 2.167 0 0 1 0 27.643v-12.46c0-1.196.97-2.166 2.167-2.166z"/>
    </g>
</svg>
