<svg xmlns="http://www.w3.org/2000/svg" width="300" height="250" viewBox="0 0 300 250">
    <g fill="none" fill-rule="nonzero">
        <path fill="#1E0478" d="M299.065 206.813v36.88c0 3.44-2.785 6.231-6.23 6.231H140.767a6.228 6.228 0 0 1-6.23-6.23V215.21h-17.282c-.306.05-.624.075-.947.075H6.23a6.224 6.224 0 0 1-6.23-6.23v-36.88c0-18.48 14.71-33.581 33.032-34.235a6.84 6.84 0 0 1 .623-.03c13.52 0 24.695-10.23 26.203-23.357-11.731-8.528-20.304-23.606-22.77-41.728a6.23 6.23 0 0 1-1.103-1.75 57.195 57.195 0 0 1-2.486-7.545C26.95 37.874 39.062 11.964 60.494 5.772a34.568 34.568 0 0 1 6.64-1.221C73.217 1.579 79.645.078 86.275.078c25.636 0 46.488 22.44 46.488 50.02 0 7.171-1.383 14.1-4.106 20.585a6.2 6.2 0 0 1-1.159 1.8c-1.551 11.775-5.725 22.658-12.161 31.368-3.184 4.305-6.772 7.906-10.666 10.734 1.526 13.114 12.69 23.326 26.203 23.326.237 0 .461.018.685.043a34.29 34.29 0 0 1 22.44 9.526l.038-.037c6.473 6.23 10.51 14.983 10.51 24.658v.723a34.67 34.67 0 0 1 3.028-.243c.2-.02.405-.031.617-.031 13.52 0 24.696-10.224 26.203-23.35a47.448 47.448 0 0 1-7.401-6.666c-5.389-5.987-9.638-13.569-12.41-22.005a46.693 46.693 0 0 0-1.856 2.841 6.235 6.235 0 0 1-10.984-.66c-3.01-6.586-5.046-13.675-6.062-21.083-.38-2.58-.61-5.295-.704-8.236-.554-17.382 4.504-33.947 14.254-46.644 10.03-13.064 23.799-20.528 38.77-21.008 7.245-.23 14.285 1.184 20.945 4.206.274-.02 1.987-.082 2.673-.05 12.964.124 25.2 6.118 34.47 16.89 9.052 10.516 14.298 24.533 14.778 39.46.486 15.22-4.031 29.749-12.722 40.913a6.226 6.226 0 0 1-6.76 2.124 6.239 6.239 0 0 1-4.117-4.13c-4.144 10.136-10.436 18.465-18.068 24.023 1.502 13.132 12.679 23.375 26.21 23.375.212 0 .418.012.623.03 18.323.647 33.032 15.754 33.032 34.232zm-12.46 30.651v-30.651c0-12.024-9.78-21.805-21.805-21.805-.205 0-.411-.013-.617-.031a38.82 38.82 0 0 1-6.292-.704c-5.414 17.768-21.967 30.44-41.087 30.44-19.126 0-35.679-12.672-41.093-30.44a38.74 38.74 0 0 1-6.292.704 6.814 6.814 0 0 1-.616.03c-1.458 0-2.879.144-4.256.418-4.965.984-9.326 3.663-12.46 7.402a21.701 21.701 0 0 0-5.09 13.986v30.652h139.608zm-20.858-131.99c1.956-5.874 2.879-12.26 2.667-18.833-.387-12.092-4.567-23.362-11.77-31.735-6.914-8.03-15.88-12.491-25.237-12.554-.093 0-3.29.15-3.408.15-1.028.03-2.087-.18-3.003-.642-8.192-4.13-16.228-3.682-16.596-3.67-11.171.356-21.569 6.093-29.281 16.142-8 10.423-12.149 24.148-11.688 38.657.081 2.474.274 4.729.586 6.89a66.043 66.043 0 0 0 1.44 7.377c5.22-5.613 13.518-10.292 18.459-12.155a49.265 49.265 0 0 1 18.952-3.059c7.314.255 13.893-3.215 17.151-9.046a46.395 46.395 0 0 0 2.99-6.485 6.234 6.234 0 0 1 3.365-3.558 6.232 6.232 0 0 1 4.891-.025c12.373 5.202 22.497 15.114 28.515 27.91a61.255 61.255 0 0 1 1.967 4.637zm-15.743-3.27c.019-.193.044-.373.075-.56-3.65-5.987-8.51-10.921-14.192-14.423a52.32 52.32 0 0 1-.991 1.857c-5.55 9.924-16.429 15.83-28.458 15.42a36.799 36.799 0 0 0-14.142 2.268 37.192 37.192 0 0 0-7.514 3.88c4.274 19.706 17.326 33.648 31.991 33.648 7.937 0 15.656-4.099 21.75-11.544 6.447-7.874 10.528-18.727 11.481-30.546zm-33.2 100.048c13.837 0 25.792-9.35 29.393-22.353-9.22-5.27-16.085-14.21-18.584-24.82a36.152 36.152 0 0 1-10.84 1.676c-3.657 0-7.277-.58-10.784-1.676-2.498 10.61-9.357 19.55-18.584 24.82 3.6 13.002 15.556 22.353 29.4 22.353zm-64.717-25.337v-4.816c0-4.442-1.34-8.58-3.632-12.03-.137-.15-.25-.3-.367-.462a21.87 21.87 0 0 0-17.825-9.238c-.205 0-.41-.013-.616-.031a38.48 38.48 0 0 1-12.766-2.586l-29.498 42.57a6.228 6.228 0 0 1-10.242 0l-29.493-42.57a38.466 38.466 0 0 1-12.765 2.586 6.814 6.814 0 0 1-.617.03c-12.024 0-21.805 9.782-21.805 21.805v30.652h35.78v-.074h86.534c1.32-11.102 7.967-20.597 17.312-25.836zM106.814 44.328c5.052 0 9.712 1.682 13.456 4.517-.598-20.136-15.612-36.309-33.997-36.309-5.034 0-9.937 1.234-14.566 3.663-.81.424-1.7.667-2.616.71a22.177 22.177 0 0 0-5.14.835C49.77 21.837 41.635 39.12 44.869 57.18c4.03-4.828 7.002-10.51 8.59-16.616a7.306 7.306 0 0 1 6.623-5.47 7.293 7.293 0 0 1 7.233 4.56 7.46 7.46 0 0 0 2.468 3.202 7.404 7.404 0 0 0 4.454 1.47c0 .002 32.577.002 32.577.002zm-1.502 52.12c6.672-9.033 10.36-21.126 10.404-34.065-1.607-3.302-4.984-5.595-8.902-5.595H74.237c-4.33 0-8.448-1.365-11.912-3.95-.018-.012-.037-.03-.062-.044a55.647 55.647 0 0 1-12.921 17.712c1.351 10.672 5.258 20.385 11.17 27.606 6.093 7.445 13.819 11.544 21.75 11.544 8.572 0 16.758-4.692 23.05-13.208zm-23.05 79.389l23.848-34.415c-6.392-5.302-11.052-12.615-13.027-20.951a36.425 36.425 0 0 1-10.821 1.645c-3.72 0-7.34-.58-10.81-1.664a38.902 38.902 0 0 1-13.033 20.97l23.842 34.415z"/>
        <path fill="#94E7EF" d="M286.605 206.813v30.651H146.997v-30.652a21.704 21.704 0 0 1 5.09-13.987c3.134-3.737 7.495-6.416 12.46-7.4a21.77 21.77 0 0 1 4.256-.418c.205 0 .41-.012.616-.03a38.74 38.74 0 0 0 6.292-.705c5.415 17.768 21.968 30.44 41.093 30.44 19.12 0 35.673-12.672 41.087-30.44a38.82 38.82 0 0 0 6.292.704c.206.019.412.031.617.031 12.024 0 21.805 9.782 21.805 21.805z"/>
        <path fill="#9B8CCC" d="M268.414 86.642c.212 6.572-.71 12.958-2.667 18.833a60.372 60.372 0 0 0-1.968-4.634c-6.018-12.797-16.142-22.709-28.515-27.911a6.23 6.23 0 0 0-4.89.025 6.238 6.238 0 0 0-3.365 3.557 46.328 46.328 0 0 1-2.99 6.486c-3.26 5.83-9.838 9.301-17.152 9.046a49.249 49.249 0 0 0-18.952 3.059c-4.94 1.863-13.24 6.541-18.46 12.155a66.044 66.044 0 0 1-1.44-7.377 62.324 62.324 0 0 1-.585-6.89c-.461-14.51 3.688-28.234 11.687-38.657 7.713-10.049 18.11-15.787 29.281-16.142.368-.012 8.405-.46 16.597 3.67.916.46 1.975.672 3.003.642.119 0 3.315-.15 3.408-.15 9.357.062 18.322 4.523 25.238 12.554 7.203 8.371 11.383 19.642 11.77 31.734z"/>
        <g fill="#FFF">
            <path d="M250.079 101.644a8.203 8.203 0 0 0-.075.56c-.953 11.819-5.034 22.672-11.482 30.546-6.093 7.445-13.812 11.544-21.749 11.544-14.665 0-27.717-13.942-31.99-33.648a37.192 37.192 0 0 1 7.513-3.881 36.799 36.799 0 0 1 14.141-2.268c12.03.411 22.908-5.495 28.459-15.42.343-.61.673-1.233.99-1.856 5.683 3.502 10.542 8.436 14.193 14.423zM246.197 179.899c-3.6 13.002-15.556 22.353-29.393 22.353-13.843 0-25.798-9.35-29.4-22.353 9.227-5.27 16.087-14.21 18.585-24.82 3.507 1.096 7.127 1.676 10.784 1.676 3.732 0 7.357-.586 10.84-1.676 2.499 10.61 9.364 19.55 18.584 24.82z"/>
        </g>
        <path fill="#6F7CCD" d="M152.087 172.099v4.816c-9.345 5.24-15.992 14.734-17.313 25.836H48.239v.074H12.46v-30.652c0-12.023 9.781-21.804 21.805-21.804.206 0 .411-.013.617-.031a38.48 38.48 0 0 0 12.765-2.586l29.493 42.57a6.228 6.228 0 0 0 10.242 0l29.499-42.57a38.466 38.466 0 0 0 12.765 2.586c.206.018.411.03.617.03a21.87 21.87 0 0 1 17.824 9.24c.119.161.23.31.367.46a21.674 21.674 0 0 1 3.633 12.03z"/>
        <path fill="#9B8CCC" d="M120.27 48.845a22.215 22.215 0 0 0-13.456-4.517H74.237a7.408 7.408 0 0 1-4.454-1.47 7.464 7.464 0 0 1-2.468-3.203 7.292 7.292 0 0 0-7.233-4.56 7.305 7.305 0 0 0-6.622 5.47c-1.59 6.106-4.56 11.788-8.591 16.616-3.234-18.06 4.903-35.343 19.082-39.436a22.12 22.12 0 0 1 5.14-.834 6.292 6.292 0 0 0 2.616-.71c4.63-2.43 9.532-3.664 14.566-3.664 18.385-.001 33.4 16.172 33.997 36.308z"/>
        <g fill="#FFF">
            <path d="M115.716 62.382c-.044 12.94-3.732 25.032-10.404 34.065-6.292 8.517-14.478 13.208-23.05 13.208-7.932 0-15.657-4.1-21.75-11.545-5.912-7.22-9.818-16.933-11.17-27.605a55.647 55.647 0 0 0 12.92-17.712c.026.012.045.031.063.044a19.765 19.765 0 0 0 11.912 3.95h32.577c3.918 0 7.295 2.293 8.902 5.595zM106.11 141.422L82.26 175.837 58.42 141.422a38.902 38.902 0 0 0 13.033-20.97 36.144 36.144 0 0 0 10.81 1.664c3.7 0 7.326-.561 10.82-1.645 1.975 8.336 6.635 15.65 13.028 20.951z"/>
        </g>
    </g>
</svg>
