<svg xmlns="http://www.w3.org/2000/svg" width="214" height="250" viewBox="0 0 214 250">
    <g fill="none" fill-rule="nonzero">
        <path fill="#1E0478" d="M111.831 36.4c56.495 2.656 101.639 49.512 101.639 106.738 0 58.924-47.866 106.862-106.7 106.862C47.939 250 .073 202.062.073 143.138.072 85.912 45.215 39.056 101.71 36.4v-6.583h-8.134a5.065 5.065 0 0 1-5.06-5.067V5.068A5.07 5.07 0 0 1 93.576 0h26.384a5.065 5.065 0 0 1 5.06 5.068v19.68c0 2.8-2.264 5.068-5.06 5.068h-8.129v6.583zm90.985 106.738c0-53.038-43.087-96.192-96.045-96.192S10.725 90.1 10.725 143.138c0 53.039 43.088 96.193 96.046 96.193 52.958 0 96.045-43.154 96.045-96.193zM114.9 19.68v-9.544H98.637v9.544H114.9z"/>
        <path fill="#94E7EF" d="M106.77 46.946c52.959 0 96.046 43.154 96.046 96.192 0 53.039-43.087 96.193-96.045 96.193s-96.046-43.154-96.046-96.193c0-53.039 43.088-96.192 96.046-96.192zm78.127 96.192c0-43.148-35.05-78.245-78.126-78.245-43.077 0-78.127 35.097-78.127 78.245 0 43.143 35.05 78.246 78.127 78.246s78.126-35.103 78.126-78.246z"/>
        <path fill="#FFF" d="M174.59 138.07h-6.525a5.069 5.069 0 0 0 0 10.136h6.525c-2.476 33.524-29.286 60.374-62.759 62.85v-6.53a5.065 5.065 0 0 0-5.06-5.068 5.065 5.065 0 0 0-5.06 5.068v6.53c-33.473-2.476-60.282-29.326-62.76-62.85h6.526a5.069 5.069 0 0 0 0-10.136H38.95c2.477-33.524 29.286-60.374 62.76-62.855v6.53c0 2.8 2.263 5.068 5.06 5.068a5.062 5.062 0 0 0 5.06-5.068v-6.53c33.473 2.481 60.283 29.331 62.76 62.855zm-29.542-26.562a5.074 5.074 0 0 0-1.028-5.681 5.056 5.056 0 0 0-5.667-1.03l-46.305 21.078a1.115 1.115 0 0 1-.112.058c-.075.037-.155.075-.23.117-.068.038-.132.08-.201.117-.064.043-.134.086-.197.128-.08.054-.155.112-.23.171a3.858 3.858 0 0 0-.154.112c-.25.208-.48.438-.682.688-.042.048-.08.102-.117.155-.058.075-.117.15-.17.224l-.128.208c-.037.064-.08.128-.117.192-.037.08-.08.16-.117.235-.016.037-.037.074-.053.112l-21.046 46.37a5.072 5.072 0 0 0 1.028 5.681 5.053 5.053 0 0 0 5.668 1.03l46.305-21.078c.038-.016.075-.037.112-.059.074-.037.154-.074.229-.117.069-.037.133-.074.197-.117.069-.037.138-.08.207-.128.075-.053.15-.107.224-.165a4.6 4.6 0 0 0 .836-.8c.043-.053.08-.107.123-.16.053-.075.111-.144.16-.224.047-.064.09-.134.133-.208.037-.064.08-.123.111-.192.043-.075.086-.155.123-.235.016-.037.037-.07.053-.112l21.045-46.37z"/>
        <g fill="#1E0478">
            <path d="M106.77 64.893c43.078 0 78.127 35.097 78.127 78.245 0 43.143-35.05 78.246-78.126 78.246-43.077 0-78.127-35.103-78.127-78.246 0-43.148 35.05-78.245 78.127-78.245zm61.295 73.177h6.525c-2.476-33.524-29.286-60.374-62.759-62.855v6.53c0 2.8-2.264 5.068-5.06 5.068a5.062 5.062 0 0 1-5.06-5.068v-6.53c-33.473 2.48-60.282 29.33-62.76 62.855h6.526a5.069 5.069 0 0 1 0 10.136H38.95c2.477 33.524 29.286 60.374 62.76 62.85v-6.53a5.065 5.065 0 0 1 5.06-5.068 5.065 5.065 0 0 1 5.06 5.068v6.53c33.473-2.476 60.282-29.326 62.76-62.85h-6.526a5.069 5.069 0 0 1 0-10.136z"/>
            <path d="M144.02 105.827a5.076 5.076 0 0 1 1.028 5.681l-21.045 46.37c-.016.043-.037.075-.053.112-.038.08-.08.16-.123.235-.032.07-.074.128-.111.192a1.973 1.973 0 0 1-.133.208c-.048.08-.107.15-.16.224-.043.053-.08.107-.123.16a4.6 4.6 0 0 1-.836.8c-.074.059-.149.112-.224.166a2.17 2.17 0 0 1-.207.128c-.064.042-.128.08-.197.117-.075.042-.155.08-.23.117a1.115 1.115 0 0 1-.111.059L75.19 181.473a5.053 5.053 0 0 1-5.668-1.03 5.074 5.074 0 0 1-1.028-5.68l21.046-46.37c.016-.039.037-.076.053-.113.037-.074.08-.155.117-.235.037-.064.08-.128.117-.191l.128-.208c.053-.075.111-.15.17-.225a1.67 1.67 0 0 1 .117-.154c.203-.251.432-.48.682-.688.048-.037.101-.075.154-.112.075-.059.15-.117.23-.171.063-.043.133-.086.197-.128.069-.038.133-.08.202-.117.074-.043.154-.08.229-.117.037-.017.075-.038.112-.059l46.305-21.078a5.056 5.056 0 0 1 5.667 1.03zm-26.207 41.2l12.438-27.41-27.368 12.462 14.93 14.948zm-34.522 19.627l27.368-12.457-14.93-14.953-12.438 27.41z"/>
        </g>
        <path fill="#94E7EF" d="M130.25 119.617l-12.437 27.41-14.93-14.948z"/>
        <g fill="#9B8CCC">
            <path d="M98.636 10.137h16.262v9.544H98.636zM110.66 154.197L83.29 166.654l12.438-27.41z"/>
        </g>
    </g>
</svg>
