<svg xmlns="http://www.w3.org/2000/svg" width="25" height="26" viewBox="0 0 25 26">
    <path fill="#EEF0F5" fill-rule="evenodd" d="M1.582 9.484c0-4.098 3.76-7.421 8.7-7.421 3.934 0 7.91 3.323 7.91 7.421 0 4.1-3.105 7.422-7.91 7.422-.706 0-2.18-.08-2.837-.215l-2.7 1.778V15.7c-1.928-1.546-3.163-3.61-3.163-6.216zm6.04 8.779c.615.099 2.012.206 2.66.206 5.68 0 9.492-4.174 9.492-9.082S15.01.5 10.282.5C4.596.5 0 4.479 0 9.387c0 2.843 1.097 5.257 3.164 6.995v4.43l4.458-2.55zm13.733-9.95c0 .496-.049.983-.119 1.464 1.065 1.23 1.701 2.748 1.701 4.395 0 2.605-1.575 4.891-3.954 6.216v2.768l-2.7-1.777c-.657.135-1.34.215-2.046.215-2.049 0-3.137-.608-4.624-1.618-.43.034-.866.055-1.308.055-.315 0-.623-.022-.933-.04 1.883 1.818 3.819 2.97 6.865 2.97.648 0 1.28-.058 1.894-.157l4.434 2.696v-4.43c2.404-1.628 3.954-4.152 3.954-6.996 0-2.534-1.234-4.815-3.204-6.434.015.223.04.445.04.673z" opacity=".8"/>
</svg>
