<svg xmlns="http://www.w3.org/2000/svg" width="15" height="25" viewBox="0 0 15 25">
    <g fill="#ffffff" fill-rule="nonzero" opacity="1">
        <path d="M7.72.188C3.776.188.567 3.397.567 7.341a1.47 1.47 0 1 0 2.942 0A4.217 4.217 0 0 1 7.72 3.13a4.217 4.217 0 0 1 4.213 4.212 4.217 4.217 0 0 1-4.213 4.213 1.47 1.47 0 0 0-1.47 1.47v5.123a1.47 1.47 0 1 0 2.941 0V14.34c3.241-.68 5.683-3.56 5.683-7 0-3.944-3.209-7.153-7.154-7.153zM7.721 20.636a1.847 1.847 0 1 0 0 3.693 1.847 1.847 0 0 0 0-3.693z"/>
    </g>
</svg>
