<svg xmlns="http://www.w3.org/2000/svg" xmlns:xlink="http://www.w3.org/1999/xlink" width="165" height="33" viewBox="0 0 165 33">
    <defs>
        <filter id="a" width="108.3%" height="112.5%" x="-2%" y="-3.1%" filterUnits="objectBoundingBox">
            <feOffset dx="2" dy="2" in="SourceAlpha" result="shadowOffsetOuter1"/>
            <feColorMatrix in="shadowOffsetOuter1" result="shadowMatrixOuter1" values="0 0 0 0 0.0470588235 0 0 0 0 0.109803922 0 0 0 0 0.2 0 0 0 0.15 0"/>
            <feMerge>
                <feMergeNode in="shadowMatrixOuter1"/>
                <feMergeNode in="SourceGraphic"/>
            </feMerge>
        </filter>
        <rect id="c" width="4.958" height="22.123" x="43.233" y="1.975" rx="2"/>
        <filter id="b" width="180.7%" height="118.1%" x="-20.2%" y="-4.5%" filterUnits="objectBoundingBox">
            <feOffset dx="2" dy="2" in="SourceAlpha" result="shadowOffsetOuter1"/>
            <feColorMatrix in="shadowOffsetOuter1" values="0 0 0 0 0.0470588235 0 0 0 0 0.109803922 0 0 0 0 0.2 0 0 0 0.15 0"/>
        </filter>
        <path id="e" d="M58.95 23.672a1.427 1.427 0 0 1-.429-1.052V3.363c0-.436.143-.792.429-1.067a1.465 1.465 0 0 1 1.056-.412h6.826c1.275 0 2.408.25 3.398.753.99.503 1.766 1.205 2.328 2.105.561.901.842 1.92.842 3.058 0 .93-.252 1.764-.757 2.503-.504.74-1.194 1.337-2.07 1.792 1.294.304 2.313.91 3.055 1.82.743.91 1.114 2.068 1.114 3.47 0 1.29-.31 2.447-.928 3.471-.619 1.024-1.485 1.82-2.599 2.39-1.113.568-2.375.853-3.784.853h-7.425c-.418 0-.77-.142-1.056-.427zm7.882-12.658c1.123 0 2.023-.275 2.698-.825.676-.55 1.014-1.346 1.014-2.389 0-1.043-.338-1.835-1.014-2.375-.675-.54-1.575-.81-2.698-.81h-5.34v6.4h5.34zm.6 10.354c1.332 0 2.408-.346 3.226-1.038.82-.692 1.228-1.674 1.228-2.944 0-1.176-.404-2.077-1.213-2.702-.81-.626-1.89-.939-3.242-.939h-5.94v7.623h5.94zm20.54-12.544c.57.304.856.683.856 1.138 0 .133-.01.227-.028.284-.172.607-.552.91-1.143.91-.095 0-.238-.018-.428-.056-.761-.133-1.38-.2-1.856-.2-1.371 0-2.475.313-3.313.94-.838.625-1.256 1.469-1.256 2.53v8.307c0 .455-.12.805-.357 1.052-.238.247-.595.37-1.071.37-.457 0-.81-.119-1.057-.356-.247-.237-.371-.592-.371-1.066V9.962c0-.455.124-.806.371-1.053.248-.246.6-.37 1.057-.37.952 0 1.428.475 1.428 1.423v.54a6.023 6.023 0 0 1 2.113-1.564 6.433 6.433 0 0 1 2.684-.569c1.01 0 1.8.152 2.37.455zm3.62 14.862c-.277-.275-.415-.62-.415-1.038V9.99c0-.436.138-.787.414-1.052.276-.266.624-.398 1.043-.398.438 0 .79.132 1.056.398.267.265.4.616.4 1.052v12.658c0 .417-.133.763-.4 1.038-.266.275-.618.413-1.056.413-.42 0-.767-.138-1.043-.413zm-.286-18.233a1.802 1.802 0 0 1-.557-1.322c0-.512.185-.953.557-1.323.37-.37.814-.555 1.328-.555.514 0 .956.185 1.328.555.37.37.556.81.556 1.323 0 .512-.185.953-.556 1.322-.372.37-.814.555-1.328.555-.514 0-.957-.185-1.328-.555zm21.81-3.171c.267.265.4.616.4 1.052v12.971c0 1.48-.347 2.82-1.042 4.025a7.663 7.663 0 0 1-2.827 2.844c-1.19.692-2.518 1.039-3.984 1.039-1.466 0-2.803-.347-4.012-1.039a7.496 7.496 0 0 1-2.842-2.844c-.685-1.204-1.028-2.546-1.028-4.025 0-1.48.319-2.82.957-4.025.638-1.204 1.513-2.147 2.627-2.83 1.114-.683 2.356-1.024 3.727-1.024 1.104 0 2.132.227 3.084.683a6.992 6.992 0 0 1 2.428 1.905v-7.68c0-.436.138-.787.414-1.052.276-.266.623-.398 1.042-.398.438 0 .79.132 1.057.398zm-4.868 18.674a4.903 4.903 0 0 0 1.813-1.92c.438-.816.657-1.726.657-2.731s-.22-1.91-.657-2.716a4.929 4.929 0 0 0-1.813-1.906c-.772-.465-1.633-.697-2.585-.697s-1.813.232-2.584.697a5.034 5.034 0 0 0-1.828 1.906c-.448.805-.671 1.71-.671 2.716 0 1.005.223 1.915.67 2.73a5.007 5.007 0 0 0 1.829 1.92c.77.465 1.632.698 2.584.698.952 0 1.813-.233 2.585-.697zm20.597-11.52a7.276 7.276 0 0 1 2.798 2.801c.676 1.195 1.014 2.56 1.014 4.096v6.144c0 1.499-.333 2.864-1 4.096a7.41 7.41 0 0 1-2.812 2.916c-1.21.711-2.575 1.067-4.098 1.067-1.371 0-2.647-.27-3.827-.811a7.992 7.992 0 0 1-2.97-2.318c-.21-.266-.314-.531-.314-.797 0-.398.2-.74.6-1.024.266-.17.533-.256.8-.256.475 0 .865.2 1.17.598a5.017 5.017 0 0 0 1.942 1.521c.78.351 1.666.527 2.656.527.933 0 1.78-.223 2.541-.669.762-.445 1.371-1.1 1.828-1.962.457-.863.686-1.892.686-3.087v-1.393c-.59 1.043-1.371 1.858-2.342 2.446-.971.588-2.066.882-3.284.882-1.41 0-2.67-.337-3.784-1.01-1.114-.673-1.98-1.607-2.599-2.802-.619-1.195-.928-2.55-.928-4.068 0-1.536.333-2.9 1-4.096a7.15 7.15 0 0 1 2.798-2.801c1.2-.674 2.56-1.01 4.084-1.01 1.504 0 2.85.336 4.04 1.01zm-1.428 11.534a4.727 4.727 0 0 0 1.799-1.892c.428-.806.643-1.72.643-2.745 0-1.024-.215-1.943-.643-2.759a4.704 4.704 0 0 0-1.8-1.905c-.77-.456-1.641-.683-2.612-.683-.971 0-1.842.227-2.613.683a4.802 4.802 0 0 0-1.814 1.905c-.437.816-.656 1.735-.656 2.76 0 1.023.219 1.938.656 2.744a4.826 4.826 0 0 0 1.814 1.892c.77.455 1.642.683 2.613.683.97 0 1.842-.228 2.613-.683zm22.296-3.997c-.247.237-.561.356-.942.356h-10.852c.21 1.327.814 2.399 1.813 3.214 1 .816 2.223 1.223 3.67 1.223a5.58 5.58 0 0 0 1.785-.313c.619-.208 1.128-.464 1.528-.768.266-.208.58-.312.942-.312s.647.094.857.284c.343.284.514.607.514.967 0 .341-.152.626-.457.853-.647.512-1.452.93-2.413 1.252-.962.322-1.88.484-2.756.484-1.561 0-2.96-.337-4.198-1.01a7.344 7.344 0 0 1-2.899-2.802c-.694-1.195-1.042-2.55-1.042-4.068 0-1.517.329-2.877.985-4.081a7.108 7.108 0 0 1 2.742-2.816c1.17-.674 2.499-1.01 3.984-1.01 1.466 0 2.732.322 3.798.967 1.066.645 1.885 1.545 2.456 2.702s.857 2.484.857 3.982c0 .36-.124.66-.372.896zM139.59 12.01c-.867.758-1.414 1.773-1.642 3.043h9.51c-.172-1.27-.648-2.285-1.429-3.043-.78-.759-1.799-1.138-3.055-1.138-1.39 0-2.518.38-3.384 1.138zm15.3 11.605c-1.143-.398-2.038-.92-2.685-1.564a1.201 1.201 0 0 1-.371-.882c0-.455.19-.825.57-1.11.363-.265.696-.398 1-.398.381 0 .743.171 1.086.512.361.399.904.745 1.627 1.039.724.294 1.495.44 2.314.44 1.085 0 1.927-.18 2.527-.54.6-.36.9-.844.9-1.45 0-.588-.296-1.077-.886-1.465-.59-.39-1.59-.716-2.998-.982-3.656-.701-5.483-2.2-5.483-4.494 0-.93.276-1.716.828-2.36.552-.646 1.275-1.13 2.17-1.452a8.361 8.361 0 0 1 2.856-.483c1.237 0 2.346.199 3.327.597.98.398 1.756.948 2.327 1.65.248.303.372.607.372.91 0 .323-.162.617-.486.882-.21.152-.476.228-.8.228-.495 0-.942-.18-1.342-.54-.476-.437-.98-.745-1.513-.925-.533-.18-1.18-.27-1.942-.27-.876 0-1.595.146-2.156.44-.562.294-.843.707-.843 1.238 0 .379.095.697.286.953.19.256.552.493 1.085.71.533.219 1.304.432 2.313.64 2.075.418 3.546.996 4.412 1.736.867.74 1.3 1.697 1.3 2.873 0 .872-.238 1.664-.714 2.375-.476.71-1.176 1.27-2.1 1.678-.923.408-2.032.612-3.326.612-1.295 0-2.513-.2-3.656-.598z"/>
        <filter id="d" width="103.8%" height="114%" x="-.9%" y="-3.5%" filterUnits="objectBoundingBox">
            <feOffset dx="2" dy="2" in="SourceAlpha" result="shadowOffsetOuter1"/>
            <feColorMatrix in="shadowOffsetOuter1" values="0 0 0 0 0.0470588235 0 0 0 0 0.109803922 0 0 0 0 0.2 0 0 0 0.15 0"/>
        </filter>
    </defs>
    <g fill="none" fill-rule="evenodd">
        <g fill="#FFF" filter="url(#a)" transform="translate(-2 -1)">
            <path d="M30.389 1.962l-2.098.02a2 2 0 0 0-1.846 2.723l6.982 18.023a2 2 0 0 0 1.827 1.277l1.85.035a2 2 0 0 0 1.911-2.698L32.282 3.264a2 2 0 0 0-1.893-1.302zM15.522 1.975h-4.844c-.42 0-.762.276-.762.616 0 .076.017.152.052.223l7.984 16.547c.114.236.396.392.71.392h4.541c.421 0 .763-.275.763-.615 0-.05-2.577-5.637-7.73-16.763-.111-.24-.396-.4-.714-.4z"/>
            <path d="M49.741 28.413l.383 1.118A1.866 1.866 0 0 1 48.358 32h-38.12A8 8 0 0 1 2.76 21.157l6.794-17.87a2 2 0 0 1 1.86-1.29l2.291-.01a2 2 0 0 1 1.869 2.735L8.396 22.898A3 3 0 0 0 11.18 27l36.671.06a2 2 0 0 1 1.89 1.353z"/>
            <path d="M26.395 1.975l4.876.081c.424.007.76.287.752.625 0 .047-2.63 5.606-7.888 16.677-.116.242-.41.4-.734.395l-4.8-.08c-.424-.006-.76-.286-.752-.624a.506.506 0 0 1 .049-.203L25.66 2.372c.114-.243.409-.402.734-.397z"/>
        </g>
        <g transform="translate(-2 -1)">
            <use fill="#000" filter="url(#b)" xlink:href="#c"/>
            <use fill="#FFF" xlink:href="#c"/>
        </g>
        <g transform="translate(-2 -1)">
            <use fill="#000" filter="url(#d)" xlink:href="#e"/>
            <use fill="#FFF" xlink:href="#e"/>
        </g>
    </g>
</svg>
