<svg xmlns="http://www.w3.org/2000/svg" xmlns:xlink="http://www.w3.org/1999/xlink" width="50" height="51" viewBox="0 0 50 51">
    <defs>
        <rect id="b" width="48" height="48" rx="24"/>
        <filter id="a" width="110.4%" height="112.5%" x="-3.1%" y="-3.1%" filterUnits="objectBoundingBox">
            <feOffset dx="1" dy="2" in="SourceAlpha" result="shadowOffsetOuter1"/>
            <feGaussianBlur in="shadowOffsetOuter1" result="shadowBlurOuter1" stdDeviation=".5"/>
            <feColorMatrix in="shadowBlurOuter1" values="0 0 0 0 0 0 0 0 0 0.262745098 0 0 0 0 0.490196078 0 0 0 0.8 0"/>
        </filter>
    </defs>
    <g fill="none" fill-rule="evenodd">
        <g>            
            
        </g>
        <g fill="#FFF" fill-rule="nonzero">
            <path d="M23.66 24.508h.167c1.534-.026 2.774-.56 3.69-1.583 2.014-2.253 1.68-6.116 1.643-6.484-.131-2.767-1.45-4.091-2.538-4.709-.811-.462-1.759-.711-2.816-.732h-.089c-.58 0-1.721.093-2.815.711-1.099.618-2.439 1.942-2.57 4.73-.036.368-.371 4.23 1.644 6.484.91 1.023 2.15 1.557 3.684 1.583zm-3.93-7.937c0-.016.005-.032.005-.042.173-3.722 2.836-4.122 3.977-4.122h.063c1.413.031 3.815.602 3.977 4.122 0 .016 0 .031.005.042.006.036.372 3.566-1.292 5.425-.66.737-1.539 1.1-2.695 1.11h-.053c-1.15-.01-2.035-.373-2.69-1.11-1.658-1.848-1.302-5.394-1.297-5.425z"/>
            <path d="M34.498 30.915c0-.057-.006-.099-.006-.146-.031-1.027-.1-3.431-2.37-4.2-2.413-.612-5.496-3.248-5.517-3.264a.71.71 0 0 0-.984.171.697.697 0 0 0 .173.976c.089.063 3.293 2.787 5.899 3.452 1.219.43 1.355 1.723 1.392 2.907 0 .047 0 .088.005.13.005.467-.026 1.189-.11 1.604-.848.478-4.173 3.068-9.229 3.068-5.034 0-8.375-2.596-9.228-3.073-.084-.416-.12-1.137-.11-1.604 0-.042.005-.083.005-.13.037-1.184.173-2.477 1.392-2.907 2.606-.665 5.89-3.39 5.98-3.447a.697.697 0 0 0 .172-.976.71.71 0 0 0-.984-.17c-.02.015-3.174 2.646-5.545 3.243-2.323.789-2.391 3.193-2.423 4.215 0 .047 0 .089-.005.13-.005.286-.01 1.672.267 2.367.052.135.147.25.272.328.157.103 3.917 3.42 10.213 3.42 6.295 0 10.06-3.322 10.217-3.42a.696.696 0 0 0 .272-.328c.262-.69.257-2.076.252-2.346z"/>
        </g>
    </g>
</svg>
