<svg xmlns="http://www.w3.org/2000/svg" width="24" height="25" viewBox="0 0 20 25">
    <g fill="#FFF" fill-rule="nonzero">
        <path d="M9.69 12.508h.153c1.394-.024 2.521-.52 3.354-1.466 1.832-2.087 1.527-5.663 1.494-6.004-.12-2.562-1.318-3.788-2.308-4.36C11.646.25 10.785.019 9.824 0h-.081c-.528 0-1.565.087-2.56.659-.998.572-2.216 1.797-2.335 4.379-.034.341-.338 3.917 1.494 6.004.827.947 1.955 1.442 3.349 1.466zm-3.572-7.35c0-.015.005-.029.005-.039C6.28 1.673 8.7 1.303 9.738 1.303H9.795c1.285.029 3.469.557 3.616 3.816 0 .015 0 .03.005.039.005.034.338 3.302-1.175 5.023-.6.683-1.399 1.02-2.45 1.029h-.048c-1.047-.01-1.85-.346-2.445-1.029C5.79 8.47 6.113 5.187 6.118 5.158z"/>
        <path d="M19.543 18.44c0-.053-.005-.092-.005-.135-.028-.952-.09-3.177-2.155-3.889-2.193-.567-4.996-3.008-5.015-3.022a.637.637 0 0 0-.894.158.653.653 0 0 0 .157.904c.08.058 2.993 2.58 5.362 3.196 1.109.399 1.232 1.596 1.266 2.692 0 .043 0 .081.005.12.004.432-.024 1.1-.1 1.485-.771.442-3.794 2.841-8.39 2.841-4.577 0-7.614-2.403-8.39-2.846-.076-.384-.109-1.052-.1-1.485 0-.039.005-.077.005-.12.034-1.096.157-2.293 1.266-2.692 2.369-.615 5.354-3.138 5.435-3.191a.653.653 0 0 0 .157-.904.637.637 0 0 0-.894-.158c-.02.014-2.886 2.45-5.04 3.003C.1 15.127.037 17.353.01 18.3c0 .044 0 .082-.005.12-.005.265-.01 1.548.242 2.192.048.125.134.231.248.303.142.096 3.56 3.168 9.284 3.168 5.723 0 9.146-3.076 9.289-3.168.109-.072.2-.178.247-.303.238-.639.233-1.922.228-2.172z"/>
    </g>
</svg>
