<svg xmlns="http://www.w3.org/2000/svg" width="24" height="24" viewBox="0 0 24 24">
    <g fill="#FFF" fill-rule="nonzero">
        <path d="M22.757 9.475l-1.683-.286a9.506 9.506 0 0 0-.677-1.633l.993-1.388a1.477 1.477 0 0 0-.16-1.91l-1.494-1.492a1.47 1.47 0 0 0-1.904-.16l-1.393.992a9.407 9.407 0 0 0-1.693-.697l-.28-1.663A1.48 1.48 0 0 0 13.001 0h-2.11A1.48 1.48 0 0 0 9.43 1.238L9.139 2.94a9.272 9.272 0 0 0-1.628.687l-1.378-.992a1.47 1.47 0 0 0-.862-.276c-.396 0-.772.155-1.047.436L2.726 4.289a1.483 1.483 0 0 0-.16 1.909l1.001 1.408a9.285 9.285 0 0 0-.666 1.638l-1.663.28A1.48 1.48 0 0 0 0 10.989v2.11a1.48 1.48 0 0 0 1.238 1.462l1.703.291c.175.561.406 1.107.687 1.628l-.987 1.373a1.477 1.477 0 0 0 .16 1.91l1.493 1.492a1.47 1.47 0 0 0 1.904.16l1.408-1.001a9.479 9.479 0 0 0 1.583.65l.28 1.684a1.48 1.48 0 0 0 1.464 1.238h2.114a1.48 1.48 0 0 0 1.463-1.238l.286-1.683a9.506 9.506 0 0 0 1.633-.676l1.388.992c.25.18.551.275.862.275a1.47 1.47 0 0 0 1.047-.436l1.493-1.493a1.483 1.483 0 0 0 .16-1.909l-.992-1.393a9.438 9.438 0 0 0 .677-1.633l1.683-.28a1.48 1.48 0 0 0 1.238-1.464v-2.11a1.462 1.462 0 0 0-1.228-1.462zm-.115 3.572a.13.13 0 0 1-.11.13l-2.104.351a.673.673 0 0 0-.542.496 8.02 8.02 0 0 1-.871 2.1.677.677 0 0 0 .03.736l1.237 1.744c.035.05.03.125-.015.17l-1.493 1.493a.127.127 0 0 1-.095.04.123.123 0 0 1-.075-.025l-1.739-1.237a.677.677 0 0 0-.736-.03 8.02 8.02 0 0 1-2.1.871.665.665 0 0 0-.496.542l-.356 2.104a.13.13 0 0 1-.13.11h-2.11a.13.13 0 0 1-.13-.11l-.35-2.104a.673.673 0 0 0-.496-.542 8.329 8.329 0 0 1-2.055-.841.694.694 0 0 0-.34-.09.66.66 0 0 0-.391.125L5.42 20.327a.15.15 0 0 1-.075.025.134.134 0 0 1-.095-.04L3.758 18.82a.136.136 0 0 1-.015-.17l1.232-1.729a.686.686 0 0 0 .03-.741 7.945 7.945 0 0 1-.881-2.095.686.686 0 0 0-.542-.496l-2.119-.36a.13.13 0 0 1-.11-.13v-2.11a.13.13 0 0 1 .11-.13l2.09-.351a.677.677 0 0 0 .546-.501 8.013 8.013 0 0 1 .856-2.104.669.669 0 0 0-.035-.732L3.673 5.416a.136.136 0 0 1 .015-.17L5.18 3.753a.127.127 0 0 1 .095-.04c.03 0 .055.01.075.025L7.08 4.97c.22.156.51.166.741.03a7.945 7.945 0 0 1 2.095-.881c.255-.07.45-.281.496-.541l.36-2.12a.13.13 0 0 1 .13-.11h2.11a.13.13 0 0 1 .13.11l.351 2.09c.045.265.24.48.501.546.757.19 1.478.486 2.15.881.23.136.516.126.736-.03l1.729-1.242a.15.15 0 0 1 .075-.025c.02 0 .06.005.095.04l1.493 1.493c.045.045.05.115.015.17L19.05 7.12a.677.677 0 0 0-.03.736 8.02 8.02 0 0 1 .871 2.1c.066.26.281.456.542.496l2.104.356a.13.13 0 0 1 .11.13v2.11h-.005z"/>
        <path d="M11.995 6.814a5.18 5.18 0 0 0-5.176 5.176 5.18 5.18 0 0 0 5.176 5.176 5.18 5.18 0 0 0 5.176-5.176 5.18 5.18 0 0 0-5.176-5.176zm0 8.999a3.825 3.825 0 0 1-3.823-3.823 3.825 3.825 0 0 1 3.823-3.823 3.825 3.825 0 0 1 3.823 3.823 3.825 3.825 0 0 1-3.823 3.823z"/>
    </g>
</svg>
