<svg xmlns="http://www.w3.org/2000/svg" width="64" height="92" viewBox="0 0 64 92">
    <g fill="#B4C0D6" fill-rule="nonzero" stroke="#B4C0D6" stroke-width=".5">
        <path d="M32.237 20.78c-6.361 0-11.539 5.178-11.539 11.539 0 6.36 5.178 11.538 11.539 11.538 6.36 0 11.538-5.177 11.538-11.538 0-6.361-5.177-11.539-11.538-11.539zm0 19.78c-4.545 0-8.242-3.697-8.242-8.241 0-4.545 3.697-8.242 8.242-8.242 4.544 0 8.242 3.697 8.242 8.242 0 4.544-3.698 8.241-8.242 8.241z"/>
        <path d="M54.297 10.259C48.327 4.289 40.387 1 31.945 1c-8.444 0-16.381 3.288-22.352 9.259C-1.455 21.306-2.829 42.092 6.62 54.685l24.76 35.759c.312.45.815.453 1.129 0l24.723-35.708c9.487-12.644 8.114-33.43-2.935-44.477zm.262 42.55L31.945 85.466 9.295 52.758C.725 41.332 1.953 22.56 11.925 12.59c5.348-5.348 12.457-8.293 20.02-8.293 7.563 0 14.672 2.945 20.02 8.293 9.973 9.97 11.201 28.742 2.594 40.22z"/>
    </g>
</svg>
