<svg xmlns="http://www.w3.org/2000/svg" width="90" height="90" viewBox="0 0 90 90">
    <g fill="#B4C0D6" fill-rule="nonzero">
        <path d="M71.1 55.729c-1.843-1.918-4.064-2.943-6.418-2.943-2.336 0-4.576 1.006-6.494 2.924l-6 5.981c-.494-.266-.987-.513-1.462-.76-.684-.341-1.33-.664-1.88-1.006-5.62-3.57-10.728-8.221-15.627-14.24-2.373-3-3.968-5.526-5.126-8.089 1.557-1.424 3-2.905 4.405-4.329.532-.532 1.063-1.082 1.595-1.614 3.987-3.987 3.987-9.152 0-13.14l-5.184-5.183a79.107 79.107 0 0 1-1.765-1.804c-1.14-1.177-2.336-2.392-3.57-3.531-1.842-1.823-4.044-2.791-6.36-2.791-2.317 0-4.558.968-6.457 2.79l-.038.039-6.455 6.512c-2.43 2.43-3.817 5.393-4.12 8.83-.456 5.544 1.177 10.708 2.43 14.088 3.076 8.298 7.67 15.988 14.525 24.228 8.317 9.93 18.323 17.772 29.753 23.297 4.367 2.07 10.197 4.52 16.71 4.937.398.02.816.038 1.195.038 4.387 0 8.07-1.576 10.956-4.709.02-.038.057-.057.076-.095.987-1.196 2.127-2.278 3.323-3.436a74.766 74.766 0 0 0 2.468-2.45c1.88-1.955 2.867-4.234 2.867-6.57 0-2.354-1.006-4.613-2.924-6.512L71.1 55.729zm6.797 19.994c-.02 0-.02.019 0 0-.74.797-1.5 1.519-2.317 2.316-1.234 1.177-2.487 2.412-3.664 3.798-1.918 2.05-4.178 3.019-7.14 3.019-.284 0-.588 0-.873-.02-5.64-.36-10.88-2.563-14.81-4.442-10.747-5.203-20.184-12.59-28.025-21.95-6.475-7.804-10.804-15.019-13.671-22.766-1.766-4.727-2.412-8.411-2.127-11.886.19-2.221 1.044-4.063 2.62-5.639l6.475-6.475c.93-.873 1.918-1.348 2.886-1.348 1.196 0 2.165.722 2.772 1.33.02.018.038.037.057.056 1.158 1.083 2.26 2.203 3.418 3.4.589.607 1.196 1.214 1.804 1.84l5.183 5.184c2.013 2.013 2.013 3.874 0 5.886-.55.551-1.082 1.102-1.633 1.633-1.595 1.633-3.114 3.152-4.765 4.633-.038.038-.076.057-.095.095-1.633 1.633-1.33 3.228-.988 4.31l.057.171c1.348 3.266 3.247 6.342 6.133 10.007l.02.019c5.24 6.455 10.765 11.487 16.86 15.341.778.494 1.576.893 2.335 1.272.684.342 1.33.665 1.88 1.007.076.038.152.095.228.133.646.322 1.253.474 1.88.474 1.576 0 2.563-.987 2.886-1.31l6.493-6.493c.646-.646 1.671-1.424 2.868-1.424 1.177 0 2.145.74 2.734 1.386l.038.038L77.878 69.78c1.955 1.936 1.955 3.93.019 5.943zM48.618 21.4c4.975.835 9.494 3.19 13.101 6.797 3.608 3.608 5.944 8.127 6.798 13.102a2.548 2.548 0 0 0 2.525 2.126c.152 0 .285-.019.437-.038 1.405-.228 2.335-1.557 2.108-2.962-1.026-6.019-3.874-11.506-8.222-15.854-4.348-4.348-9.835-7.196-15.854-8.222a2.577 2.577 0 0 0-2.962 2.089c-.247 1.386.664 2.734 2.07 2.962zM89.859 39.685c-1.69-9.912-6.361-18.93-13.538-26.108C69.144 6.4 60.125 1.73 50.213.04c-1.386-.247-2.696.703-2.943 2.089a2.576 2.576 0 0 0 2.108 2.962c8.848 1.5 16.917 5.696 23.335 12.095 6.418 6.417 10.595 14.487 12.095 23.335a2.548 2.548 0 0 0 2.525 2.127c.152 0 .285-.02.437-.038a2.516 2.516 0 0 0 2.089-2.924z"/>
    </g>
</svg>
