<svg xmlns="http://www.w3.org/2000/svg" width="115" height="115" viewBox="0 0 115 115">
    <g fill="#FFF" fill-rule="nonzero">
        <path d="M57.5 50C64.944 50 71 43.942 71 36.5S64.944 23 57.5 23 44 29.058 44 36.5 50.056 50 57.5 50zm0-23.143c5.317 0 9.643 4.326 9.643 9.643 0 5.317-4.326 9.643-9.643 9.643-5.317 0-9.643-4.326-9.643-9.643 0-5.317 4.326-9.643 9.643-9.643z"/>
        <path d="M57.004 105l29.602-42.487c11.102-14.71 9.497-38.889-3.437-51.74C76.18 3.826 66.887 0 57.004 0 47.12 0 37.828 3.826 30.839 10.771c-12.934 12.851-14.54 37.03-3.481 51.682L57.004 105zM33.567 13.482c6.261-6.22 14.584-9.647 23.437-9.647 8.853 0 17.175 3.427 23.436 9.647 11.674 11.6 13.112 33.437 3.036 46.787L57.004 98.262l-26.515-38.05c-10.034-13.293-8.594-35.13 3.078-46.73z"/>
        <path d="M80.724 82.015c-1.054-.13-2.005.635-2.127 1.7-.123 1.066.628 2.03 1.679 2.155 20.155 2.403 30.89 8.879 30.89 12.63 0 5.269-20.416 12.618-53.666 12.618S3.833 103.768 3.833 98.5c0-3.752 10.736-10.228 30.891-12.63 1.05-.125 1.802-1.092 1.68-2.155-.125-1.066-1.076-1.835-2.128-1.7C14.096 84.421 0 91.2 0 98.5 0 106.7 19.751 115 57.5 115c37.749 0 57.5-8.3 57.5-16.5 0-7.3-14.095-14.078-34.276-16.485z"/>
    </g>
</svg>
