<svg xmlns="http://www.w3.org/2000/svg" width="227" height="211" viewBox="0 0 227 211">
    <g fill="none" fill-rule="nonzero">
        <path fill="#E4EAF6" d="M222.206 47H4.794A4.795 4.795 0 0 1 0 42.203V4.797A4.796 4.796 0 0 1 4.794 0h217.412A4.796 4.796 0 0 1 227 4.797v37.406A4.796 4.796 0 0 1 222.206 47z"/>
        <path fill="#18BDF6" d="M185.875 47h35.25A5.875 5.875 0 0 0 227 41.125V5.875A5.875 5.875 0 0 0 221.125 0h-35.25A5.875 5.875 0 0 0 180 5.875v35.25A5.875 5.875 0 0 0 185.875 47z"/>
        <path fill="#FFF" d="M216.865 32.386l-7.75-7.75c-.01-.01-.024-.013-.034-.023.728-1.517 1.17-3.196 1.17-4.988 0-6.41-5.216-11.625-11.626-11.625C192.215 8 187 13.215 187 19.625s5.215 11.625 11.625 11.625c1.792 0 3.47-.441 4.988-1.169.01.01.012.024.022.034l7.75 7.75a3.86 3.86 0 0 0 2.74 1.135 3.873 3.873 0 0 0 2.74-6.614zm-18.24-8.886a3.88 3.88 0 0 1-3.875-3.875 3.88 3.88 0 0 1 3.875-3.875 3.88 3.88 0 0 1 3.875 3.875 3.88 3.88 0 0 1-3.875 3.875z"/>
        <circle cx="158" cy="24" r="10" fill="#A6DCF6"/>
        <circle cx="131" cy="24" r="10" fill="#D7DEED"/>
        <path fill="#E4EAF6" d="M222.206 110H4.794A4.796 4.796 0 0 1 0 105.203V67.797A4.796 4.796 0 0 1 4.794 63h217.412A4.796 4.796 0 0 1 227 67.797v37.406a4.796 4.796 0 0 1-4.794 4.797z"/>
        <path fill="#C3B4FA" d="M35.124 102H11.875A3.875 3.875 0 0 1 8 98.125v-23.25A3.875 3.875 0 0 1 11.875 71h23.25A3.875 3.875 0 0 1 39 74.875v23.25A3.876 3.876 0 0 1 35.124 102z"/>
        <path fill="#C7CFE2" d="M191.105 98H50.895C48.745 98 47 96.209 47 94s1.744-4 3.895-4h140.21c2.15 0 3.895 1.791 3.895 4s-1.744 4-3.895 4z"/>
        <path fill="#28BEFF" d="M129.09 83H50.91C48.75 83 47 81.209 47 79s1.75-4 3.91-4h78.18c2.16 0 3.91 1.791 3.91 4 0 2.21-1.75 4-3.91 4z"/>
        <path fill="#C3E678" d="M35.124 157H11.875A3.875 3.875 0 0 1 8 153.125v-23.25A3.875 3.875 0 0 1 11.875 126h23.25A3.875 3.875 0 0 1 39 129.875v23.25A3.876 3.876 0 0 1 35.124 157z"/>
        <path fill="#C7CFE2" d="M191.105 153H50.895c-2.15 0-3.895-1.791-3.895-4s1.744-4 3.895-4h140.21c2.15 0 3.895 1.791 3.895 4s-1.744 4-3.895 4z"/>
        <path fill="#28BEFF" d="M129.09 137H50.91c-2.16 0-3.91-1.791-3.91-4s1.75-4 3.91-4h78.18c2.16 0 3.91 1.791 3.91 4s-1.75 4-3.91 4z"/>
        <path fill="#FFE182" d="M35.124 211H11.875A3.875 3.875 0 0 1 8 207.125v-23.25A3.875 3.875 0 0 1 11.875 180h23.25A3.875 3.875 0 0 1 39 183.875v23.25A3.876 3.876 0 0 1 35.124 211z"/>
        <path fill="#C7CFE2" d="M191.105 208H50.895c-2.15 0-3.895-1.791-3.895-4s1.744-4 3.895-4h140.21c2.15 0 3.895 1.791 3.895 4 0 2.21-1.744 4-3.895 4z"/>
        <path fill="#28BEFF" d="M129.09 192H50.91c-2.16 0-3.91-1.791-3.91-4s1.75-4 3.91-4h78.18c2.16 0 3.91 1.791 3.91 4s-1.75 4-3.91 4z"/>
    </g>
</svg>
