<svg xmlns="http://www.w3.org/2000/svg" width="164" height="152" viewBox="0 0 164 152">
    <g fill="none" fill-rule="nonzero">
        <path fill="#E4EAF6" d="M160.536 34H3.463A3.467 3.467 0 0 1 0 30.53V3.47C0 1.554 1.55 0 3.463 0h157.074A3.467 3.467 0 0 1 164 3.47v27.06a3.467 3.467 0 0 1-3.464 3.47z"/>
        <path fill="#18BDF6" d="M134.25 34h25.5a4.25 4.25 0 0 0 4.25-4.25V4.25A4.25 4.25 0 0 0 159.75 0h-25.5A4.25 4.25 0 0 0 130 4.25v25.5a4.25 4.25 0 0 0 4.25 4.25z"/>
        <path fill="#FFF" d="M156.194 23.306l-5.5-5.5c-.007-.007-.017-.01-.023-.016.516-1.077.83-2.268.83-3.54 0-4.55-3.702-8.25-8.25-8.25C138.7 6 135 9.7 135 14.25s3.7 8.25 8.25 8.25c1.272 0 2.463-.313 3.54-.83.007.008.009.018.016.024l5.5 5.5a2.74 2.74 0 0 0 1.944.806 2.748 2.748 0 0 0 1.944-4.694zM143.25 17a2.754 2.754 0 0 1-2.75-2.75 2.754 2.754 0 0 1 2.75-2.75 2.754 2.754 0 0 1 2.75 2.75 2.754 2.754 0 0 1-2.75 2.75z"/>
        <circle cx="114" cy="17" r="7" fill="#A6DCF6"/>
        <circle cx="94" cy="17" r="7" fill="#D7DEED"/>
        <path fill="#E4EAF6" d="M160.536 79H3.463A3.467 3.467 0 0 1 0 75.53V48.47C0 46.554 1.55 45 3.463 45h157.074A3.467 3.467 0 0 1 164 48.47v27.06a3.467 3.467 0 0 1-3.464 3.47z"/>
        <path fill="#C3B4FA" d="M25.25 73H8.75A2.75 2.75 0 0 1 6 70.25v-16.5A2.75 2.75 0 0 1 8.75 51h16.5A2.75 2.75 0 0 1 28 53.75v16.5A2.75 2.75 0 0 1 25.25 73z"/>
        <path fill="#C7CFE2" d="M138.184 71H36.816C35.26 71 34 69.657 34 68s1.26-3 2.816-3h101.368c1.555 0 2.816 1.343 2.816 3s-1.26 3-2.816 3z"/>
        <path fill="#28BEFF" d="M93.182 60H36.818C35.262 60 34 58.657 34 57s1.262-3 2.818-3h56.364C94.738 54 96 55.343 96 57s-1.262 3-2.818 3z"/>
        <path fill="#C3E678" d="M25.25 113H8.75A2.75 2.75 0 0 1 6 110.25v-16.5A2.75 2.75 0 0 1 8.75 91h16.5A2.75 2.75 0 0 1 28 93.75v16.5a2.75 2.75 0 0 1-2.75 2.75z"/>
        <path fill="#C7CFE2" d="M138.184 110H36.816C35.26 110 34 108.657 34 107s1.26-3 2.816-3h101.368c1.555 0 2.816 1.343 2.816 3s-1.26 3-2.816 3z"/>
        <path fill="#28BEFF" d="M93.182 99H36.818C35.262 99 34 97.657 34 96s1.262-3 2.818-3h56.364C94.738 93 96 94.343 96 96s-1.262 3-2.818 3z"/>
        <path fill="#FFE182" d="M25.25 152H8.75A2.75 2.75 0 0 1 6 149.25v-16.5A2.75 2.75 0 0 1 8.75 130h16.5a2.75 2.75 0 0 1 2.75 2.75v16.5a2.75 2.75 0 0 1-2.75 2.75z"/>
        <path fill="#C7CFE2" d="M138.184 150H36.816C35.26 150 34 148.657 34 147s1.26-3 2.816-3h101.368c1.555 0 2.816 1.343 2.816 3s-1.26 3-2.816 3z"/>
        <path fill="#28BEFF" d="M93.182 139H36.818c-1.556 0-2.818-1.343-2.818-3s1.262-3 2.818-3h56.364c1.556 0 2.818 1.343 2.818 3s-1.262 3-2.818 3z"/>
    </g>
</svg>
