<svg xmlns="http://www.w3.org/2000/svg" xmlns:xlink="http://www.w3.org/1999/xlink" width="175" height="170" viewBox="0 0 175 170">
    <defs>
        <ellipse id="a" cx="42.494" cy="42.331" rx="37.637" ry="37.493"/>
    </defs>
    <g fill="none" fill-rule="nonzero">
        <g fill="#FF6469">
            <path d="M59.36 0c-17.3 0-37.078 26.982-37.078 60.145 0 42.848 34.731 105.247 35.967 107.885.283.604.687.947 1.11.947.81 0 1.582-.343 2.122-.947 2.359-2.638 57.775-65.037 57.775-107.885C119.256 26.982 92.388 0 59.36 0zm0 91.649c-17.327 0-31.374-14.105-31.374-31.504 0-17.4 14.047-31.505 31.374-31.505 17.328 0 31.374 14.105 31.374 31.505S76.688 91.649 59.36 91.649z"/>
            <path d="M59.036 168.03c-1.236-2.638-35.968-65.036-35.968-107.885C23.068 26.982 42.847 0 60.147 0 27.119 0 .25 26.982.25 60.145c0 42.848 55.416 105.247 57.775 107.885.54.604 1.312.947 2.12.947-.423 0-.827-.343-1.11-.947z"/>
        </g>
        <path fill="#344A5E" d="M132.072 137.76l-8.585-8.585 11.118-11.117 8.585 8.585z"/>
        <g transform="translate(58 53)">
            <use fill="#8AD7F8" fill-rule="evenodd" xlink:href="#a"/>
            <ellipse cx="42.494" cy="42.331" stroke="#FFF" stroke-width="10" rx="32.637" ry="32.493"/>
        </g>
        <path fill="#415A6B" d="M130.603 125.325c-16.511 16.449-43.707 16.449-60.22 0-16.51-16.448-16.51-43.54 0-59.989 16.513-16.448 43.709-16.448 60.22 0 16.512 16.449 16.755 43.54 0 59.99zM77.426 72.351c-12.87 12.82-12.87 33.381 0 46.201a32.771 32.771 0 0 0 46.378 0c12.87-12.82 12.87-33.38 0-46.2-12.87-12.821-33.752-12.821-46.378 0z"/>
        <path fill="#F3705A" d="M144.687 124.6c12.87 8.95 22.582 15.964 25.496 19.109 5.828 5.805 5.828 15.239 0 21.044-5.828 5.806-15.298 5.806-21.125 0-2.914-2.902-10.199-12.578-19.183-25.398l14.812-14.756z"/>
        <path fill="#F05540" d="M134.731 146.128c-1.457-2.177-3.156-4.354-4.613-6.531l14.812-14.756c2.428 1.694 4.613 3.145 6.556 4.596l-16.755 16.69z"/>
        <path fill="#F3705A" d="M132.546 142.015l14.812-14.755c1.457-1.451 1.457-3.87 0-5.322-1.457-1.45-3.885-1.45-5.342 0l-14.812 14.756c-1.457 1.451-1.457 3.87 0 5.322 1.457 1.693 3.885 1.693 5.342 0z"/>
    </g>
</svg>
