<svg width="17" height="32" viewBox="0 0 17 32" xmlns="http://www.w3.org/2000/svg"><title>7C1A8593-BC1E-4A39-87BD-448998E4F109</title><path d="M14.09 24c0 3.313-2.596 6-5.797 6-3.2 0-5.796-2.687-5.796-6V6c0-2.209 1.73-4 3.864-4s3.864 1.791 3.864 4v18c0 1.104-.866 2-1.932 2-1.067 0-1.932-.896-1.932-2V8H4.429v16c0 2.209 1.73 4 3.864 4s3.864-1.791 3.864-4V6c0-3.313-2.596-6-5.796-6S.565 2.687.565 6v19c.476 3.945 3.787 7 7.728 7 3.94 0 7.252-3.055 7.728-7V4H14.09v20z" fill="#9B9B9B" fill-rule="evenodd"/></svg>