<svg width="19" height="18" viewBox="0 0 19 18" xmlns="http://www.w3.org/2000/svg" xmlns:xlink="http://www.w3.org/1999/xlink"><title>0EDBBFDE-C2C4-4317-B19F-66A3D08716F4</title><defs><path d="M2.493 14.568C-.024 11.416-.029 6.879 2.482 3.722c3.281-4.13 9.316-4.405 12.967-.835l1.663-1.662c.092-.092.256-.026.277.11l.909 5.937a.149.149 0 0 1-.17.17l-5.937-.91c-.136-.02-.2-.187-.11-.276l1.66-1.66c-2.578-2.496-6.769-2.37-9.176.384-2.072 2.367-2.063 5.977.015 8.338 2.202 2.502 5.882 2.823 8.462.958a1.206 1.206 0 0 1 1.556.13c.516.517.461 1.38-.13 1.81C10.799 18.88 5.5 18.33 2.493 14.568z" id="a"/></defs><g fill-rule="evenodd" fill="none"><use fill="#000" xlink:href="#a"/><use fill="#0070D2" xlink:href="#a"/></g></svg>