<svg width="24" height="24" viewBox="0 0 24 24" xmlns="http://www.w3.org/2000/svg" xmlns:xlink="http://www.w3.org/1999/xlink"><title>7735F9DB-64A4-41EA-9B30-0FC239AC8CF1</title><defs><path d="M21.707 20.293L16.314 14.9A7.928 7.928 0 0 0 18 10a7.945 7.945 0 0 0-2.344-5.656A7.94 7.94 0 0 0 10 2a7.94 7.94 0 0 0-5.656 2.344A7.945 7.945 0 0 0 2 10c0 2.137.833 4.146 2.344 5.656A7.94 7.94 0 0 0 10 18a7.922 7.922 0 0 0 4.9-1.686l5.393 5.392 1.414-1.413zM10 16a5.959 5.959 0 0 1-4.242-1.757A5.958 5.958 0 0 1 4 10c0-1.602.624-3.109 1.758-4.242A5.956 5.956 0 0 1 10 4c1.603 0 3.109.624 4.242 1.758A5.957 5.957 0 0 1 16 10c0 1.603-.624 3.11-1.758 4.243A5.959 5.959 0 0 1 10 16z" id="a"/></defs><g fill="none" fill-rule="evenodd"><path d="M0 0h24v24H0z"/><mask id="b" fill="#fff"><use xlink:href="#a"/></mask><g mask="url(#b)" fill="#526173"><path d="M.24 0H24v24H0z"/></g></g></svg>