<svg xmlns="http://www.w3.org/2000/svg" width="24" height="22" viewBox="0 0 24 22">
    <path fill="#FFF" fill-rule="nonzero" stroke="#FFF" stroke-width=".5" d="M21.63 17.083l-3.582-1.79a.986.986 0 0 1-.548-.887v-1.268c.086-.105.176-.225.27-.357a8.582 8.582 0 0 0 1.107-2.175c.53-.242.873-.765.873-1.356v-1.5c0-.361-.135-.711-.375-.984V4.77c.021-.206.103-1.434-.784-2.447C17.82 1.445 16.57 1 14.875 1c-1.695 0-2.945.445-3.716 1.324a3.257 3.257 0 0 0-.774 1.802c-.642-.333-1.4-.501-2.26-.501C4.229 3.625 4.002 6.945 4 7v1.717c-.243.265-.375.57-.375.874v1.295c0 .405.181.782.492 1.037.309 1.166 1.07 2.048 1.366 2.357v1.028c0 .296-.16.566-.439.719L2.549 17.59A2.971 2.971 0 0 0 1 20.201v1.424h22.5v-1.516c0-1.29-.717-2.449-1.87-3.026zM6.25 20.036v.839h-4.5v-.674c0-.814.444-1.561 1.178-1.962l2.494-1.565c.5-.273.81-.796.81-1.366v-1.346l-.119-.111c-.01-.01-1.006-.95-1.3-2.234l-.034-.148-.128-.083a.596.596 0 0 1-.276-.5V9.591c0-.135.092-.296.252-.44l.123-.112V7.022c.006-.108.201-2.647 3.375-2.647.897 0 1.653.207 2.25.616v1.775c-.24.273-.375.623-.375.984v1.5c0 .114.013.226.038.335.01.043.03.083.044.125.02.063.037.128.066.188l.001.001c.096.199.236.375.412.517l.006.02c.023.086.046.172.072.255l.03.098.018.052.039.12c.022.066.046.134.074.208.011.03.024.058.036.089.03.078.061.154.094.229l.022.055.021.047.03.063c.036.08.072.158.11.233l.018.037c.023.047.047.091.07.136a8.178 8.178 0 0 0 .333.577l.032.05c.091.141.17.255.235.344l.047.064.027.036v1.241a.99.99 0 0 1-.517.87l-.992.541-.173-.015-.07.148-2.11 1.151a3.383 3.383 0 0 0-1.763 2.97zm16.5.839H7v-.84c0-.963.526-1.85 1.372-2.31l3.345-1.826c.56-.305.908-.891.908-1.528v-1.507l-.073-.088-.014-.016-.062-.08a3.564 3.564 0 0 1-.077-.103v-.001a6.813 6.813 0 0 1-.205-.3l-.005-.008a7.308 7.308 0 0 1-.116-.187l-.009-.015a7.675 7.675 0 0 1-.264-.48v-.002a7.589 7.589 0 0 1-.142-.3l-.02-.044a7.548 7.548 0 0 1-.062-.146l-.022-.057c-.02-.049-.04-.098-.06-.155a6.191 6.191 0 0 1-.11-.318l-.02-.067-.007-.023a5.869 5.869 0 0 1-.098-.364l-.034-.149-.128-.082a.748.748 0 0 1-.347-.629v-1.5c0-.21.09-.406.251-.553l.124-.111V4.617l-.01-.008c-.013-.27.003-1.1.609-1.79.62-.71 1.681-1.069 3.151-1.069 1.464 0 2.523.357 3.145 1.06.73.826.61 1.882.608 1.89l-.003 2.386.124.111A.739.739 0 0 1 19 7.75v1.5a.746.746 0 0 1-.533.712l-.187.057-.06.186a7.85 7.85 0 0 1-1.063 2.143c-.111.157-.22.297-.314.404l-.093.107v1.547c0 .663.369 1.26.962 1.557l3.583 1.79a2.618 2.618 0 0 1 1.455 2.356v.766z"/>
</svg>
