<svg xmlns="http://www.w3.org/2000/svg" width="17" height="17" viewBox="0 0 17 17">
    <g fill="none" fill-rule="nonzero" transform="translate(1 1)">
        <circle cx="7.5" cy="7.5" r="7.5" stroke="#000"/>
        <path fill="#000" d="M7.271 7.654L7.06 4.49C7.02 3.874 7 3.431 7 3.163c0-.366.096-.651.288-.855.192-.206.445-.308.758-.308.38 0 .634.131.762.393S9 3.033 9 3.526c0 .29-.016.586-.046.885l-.285 3.256c-.031.388-.097.685-.199.892a.52.52 0 0 1-.503.31c-.239 0-.404-.1-.497-.3-.093-.2-.159-.505-.199-.915zM8.007 12c-.27 0-.505-.087-.706-.26-.2-.174-.301-.418-.301-.73a.95.95 0 0 1 .288-.697.96.96 0 0 1 .705-.288c.278 0 .515.096.712.288A.938.938 0 0 1 9 11.01c0 .308-.1.55-.298.726-.199.176-.43.264-.695.264z"/>
    </g>
</svg>
