<svg xmlns="http://www.w3.org/2000/svg" width="130" height="150" viewBox="0 0 130 150">
    <g fill="none" fill-rule="nonzero">
        <path fill="#AFB0B4" d="M82.5 97.5h-15A2.5 2.5 0 0 0 65 100v47.5a2.5 2.5 0 0 0 2.5 2.5h15a2.5 2.5 0 0 0 2.5-2.5V100a2.5 2.5 0 0 0-2.5-2.5z"/>
        <path fill="#88898E" d="M67.5 97.5h-25A2.5 2.5 0 0 0 40 100v47.5a2.5 2.5 0 0 0 2.5 2.5h25a2.5 2.5 0 0 0 2.5-2.5V100a2.5 2.5 0 0 0-2.5-2.5z"/>
        <path fill="#B83C26" d="M107.5 25h-85C10.093 25 0 35.093 0 47.5V100a2.5 2.5 0 0 0 2.5 2.5h125a2.5 2.5 0 0 0 2.5-2.5V47.5c0-12.406-10.093-22.5-22.5-22.5z"/>
        <path fill="#B83C26" d="M10 100V47.5C10 35.093 20.093 25 32.5 25h-10C10.093 25 0 35.093 0 47.5V100a2.5 2.5 0 0 0 2.5 2.5h10A2.5 2.5 0 0 1 10 100z"/>
        <path fill="#F07B52" d="M107.5 25h-75C44.907 25 55 35.093 55 47.5v55h72.5a2.5 2.5 0 0 0 2.5-2.5V47.5c0-12.406-10.093-22.5-22.5-22.5z"/>
        <circle cx="92.5" cy="52.5" r="12.5" fill="#FDD042"/>
        <circle cx="92.5" cy="52.5" r="7.5" fill="#E1A527"/>
        <path fill="#606268" d="M92.5 55a2.5 2.5 0 0 1-2.5-2.5v-50a2.5 2.5 0 0 1 5 0v50a2.5 2.5 0 0 1-2.5 2.5z"/>
        <path fill="#FDD042" d="M112.5 0h-20A2.5 2.5 0 0 0 90 2.5v10a2.5 2.5 0 0 0 2.5 2.5h20a2.5 2.5 0 0 0 2.5-2.5v-10a2.5 2.5 0 0 0-2.5-2.5z"/>
        <path fill="#B83C26" d="M104.942 92.304h-32.5a2.5 2.5 0 0 1 0-5h32.5a2.5 2.5 0 0 1 0 5z"/>
        <path fill="#783125" d="M37.008 62.304H18.375c-.792 0-1.434-1.119-1.434-2.5 0-1.38.642-2.5 1.434-2.5h18.633c.791 0 1.433 1.12 1.433 2.5 0 1.381-.642 2.5-1.433 2.5z"/>
        <path fill="#B83C26" d="M117.5 92.5h-5a2.5 2.5 0 0 1 0-5h5a2.5 2.5 0 0 1 0 5z"/>
    </g>
</svg>
