<svg xmlns="http://www.w3.org/2000/svg" xmlns:xlink="http://www.w3.org/1999/xlink" viewBox="0 0 131.24 117.92"><defs><style>.cls-1{fill:none;}.cls-2{clip-path:url(#clip-path);}.cls-3{fill:#ffcc42;}.cls-4{fill:#fcdb4f;}.cls-5{fill:#1173b2;}.cls-6{fill:#115da8;}</style><clipPath id="clip-path"><path class="cls-1" d="M52.88,7.41,2.21,95.18A14.82,14.82,0,0,0,15,117.42H116.4a14.82,14.82,0,0,0,12.84-22.23L78.55,7.41a14.82,14.82,0,0,0-25.67,0L2.21,95.18A14.82,14.82,0,0,0,15,117.42H116.4a14.82,14.82,0,0,0,12.84-22.23L78.55,7.41A14.82,14.82,0,0,0,52.88,7.41Z"/></clipPath></defs><title>warning</title><g id="Layer_2" data-name="Layer 2"><g id="Layer_1-2" data-name="Layer 1"><g class="cls-2"><path class="cls-3" d="M52.88,7.41,2.21,95.18A14.82,14.82,0,0,0,15,117.42H116.4a14.82,14.82,0,0,0,12.84-22.23L78.55,7.41a14.82,14.82,0,0,0-25.67,0L2.21,95.18A14.82,14.82,0,0,0,15,117.42H116.4a14.82,14.82,0,0,0,12.84-22.23L78.55,7.41A14.82,14.82,0,0,0,52.88,7.41Z"/><path class="cls-4" d="M64.79,0A14,14,0,0,0,52.42,7.41L2,95.43c-5.7,9.88,1.66,22.48,13.07,22.48l49.74-.5Z"/><path class="cls-5" d="M71.82,30.87l0,30.81a7.17,7.17,0,0,1-14.33.12L56.92,31a7.45,7.45,0,0,1,14.89-.26S71.82,30.84,71.82,30.87Z"/><circle class="cls-5" cx="64.5" cy="92.41" r="7.43"/><path class="cls-6" d="M72,30.74a7.31,7.31,0,0,0-7.17-7.31v45.4s-.06,0,0,0a7.11,7.11,0,0,0,7.1-7.16l.05-30.81S72,30.77,72,30.74Z"/><path class="cls-6" d="M64.79,85V99.85a7.43,7.43,0,0,0,0-14.86Z"/></g></g></g></svg>