<svg width="24" height="24" viewBox="0 0 24 24" xmlns="http://www.w3.org/2000/svg" xmlns:xlink="http://www.w3.org/1999/xlink"><title>2AC24B92-E380-4A24-A7FB-E0AC4B6F468D</title><defs><path d="M20.821 3.179A3.997 3.997 0 0 0 17.974 2a3.997 3.997 0 0 0-2.846 1.179L3.72 14.587s0 .003-.003.004a1.274 1.274 0 0 0-.26.461L2.03 20.756a.997.997 0 0 0 .263.949l.001.001.001.001a1 1 0 0 0 .95.264l5.703-1.427a1.266 1.266 0 0 0 .465-.264l11.41-11.407A3.996 3.996 0 0 0 22 6.026a4.002 4.002 0 0 0-1.178-2.847zm-6.41 3.549l2.863 2.863-8.568 8.568-2.863-2.863 8.568-8.568zM4.375 19.626l.595-2.374 1.78 1.781-2.375.593zM19.41 4.594c.764.765.764 2.099 0 2.864l-.719.72-2.866-2.865.721-.719c.765-.764 2.1-.765 2.864 0z" id="a"/></defs><g fill="none" fill-rule="evenodd"><path d="M0 0h24v24H0z"/><mask id="b" fill="#fff"><use xlink:href="#a"/></mask><g mask="url(#b)" fill="#526173"><path d="M.24 0H24v24H0z"/></g></g></svg>