<svg xmlns="http://www.w3.org/2000/svg" width="124" height="124" viewBox="0 0 124 124">
    <g fill="#0070D2" fill-rule="nonzero">
        <path d="M62 .16C28.046.16.423 27.897.423 61.993.423 96.09 28.046 123.83 62 123.83c33.954 0 61.577-27.74 61.577-61.835C123.577 27.898 95.954.159 62 .159zm0 115.35c-29.386 0-53.293-24.007-53.293-53.516C8.707 32.485 32.614 8.478 62 8.478s53.293 24.007 53.293 53.516c0 29.509-23.907 53.516-53.293 53.516z"/>
        <path d="M66.142 58.955V39.909c5.69 1.066 9.388 4.224 9.388 7.111 0 2.297 1.855 4.16 4.143 4.16a4.15 4.15 0 0 0 4.142-4.16c0-7.833-7.488-14.163-17.673-15.528v-4.99c0-2.298-1.854-4.16-4.142-4.16-2.287 0-4.142 1.862-4.142 4.16v4.99c-10.185 1.365-17.673 7.695-17.673 15.528 0 11.08 9.75 15.386 17.673 18.013V84.08c-5.69-1.066-9.388-4.223-9.388-7.111 0-2.297-1.855-4.16-4.143-4.16a4.15 4.15 0 0 0-4.142 4.16c0 7.833 7.488 14.163 17.673 15.528v4.99c0 2.298 1.854 4.16 4.142 4.16 2.287 0 4.142-1.862 4.142-4.16v-4.99c10.185-1.365 17.673-7.695 17.673-15.528 0-11.08-9.75-15.386-17.673-18.013zm-8.284-2.776c-7.068-2.708-9.388-5.157-9.388-9.159 0-2.888 3.697-6.045 9.388-7.11v16.269zm8.284 27.9v-16.27c7.068 2.708 9.388 5.157 9.388 9.159 0 2.887-3.697 6.045-9.388 7.11z"/>
    </g>
</svg>
