<svg xmlns="http://www.w3.org/2000/svg" width="152" height="174" viewBox="0 0 152 174">
    <g fill="none" fill-rule="nonzero">
        <path fill="#E2574C" d="M10.849 0h92.18l48.859 48.67v114.067c0 5.994-4.86 10.85-10.85 10.85H10.85C4.86 173.586 0 168.73 0 162.736V10.85C0 4.855 4.86 0 10.849 0z"/>
        <path fill="#FFF" d="M109.418 85.994c1.817 0 2.707-1.584 2.707-3.12 0-1.589-.928-3.124-2.707-3.124h-10.35c-2.024 0-3.152 1.676-3.152 3.526v25.436c0 2.268 1.29 3.526 3.037 3.526 1.736 0 3.033-1.258 3.033-3.526v-6.981h6.26c1.942 0 2.913-1.59 2.913-3.168 0-1.546-.97-3.082-2.913-3.082h-6.26v-9.487h7.432zM74.434 79.75h-7.573c-2.056 0-3.515 1.41-3.515 3.504v25.48c0 2.598 2.099 3.412 3.602 3.412h7.947c9.406 0 15.617-6.19 15.617-15.743-.005-10.1-5.852-16.653-16.078-16.653zm.364 26.115H70.18V86.032h4.161c6.298 0 9.037 4.226 9.037 10.057 0 5.458-2.69 9.776-8.581 9.776zM47.056 79.75h-7.502c-2.121 0-3.304 1.4-3.304 3.526v25.436c0 2.268 1.356 3.526 3.179 3.526 1.822 0 3.178-1.258 3.178-3.526v-7.426h4.703c5.805 0 10.595-4.112 10.595-10.725 0-6.471-4.622-10.811-10.849-10.811zm-.125 15.57h-4.323v-9.597h4.323c2.67 0 4.367 2.083 4.367 4.8-.005 2.713-1.698 4.796-4.367 4.796z"/>
    </g>
</svg>
