<svg xmlns="http://www.w3.org/2000/svg" width="80" height="80" viewBox="0 0 80 80">
    <path fill="#66788C" fill-rule="evenodd" d="M11.429 31.429c0-11.029 8.971-20 20-20 11.028 0 20 8.971 20 20 0 11.028-8.972 20-20 20-11.029 0-20-8.972-20-20zm45.885 17.805a31.257 31.257 0 0 0 5.543-17.805C62.857 14.069 48.79 0 31.43 0S0 14.069 0 31.429s14.069 31.428 31.429 31.428a31.257 31.257 0 0 0 17.805-5.543l21.012 21.012A5.699 5.699 0 0 0 74.286 80c1.463 0 2.926-.56 4.04-1.674a5.708 5.708 0 0 0 0-8.08L57.314 49.234z"/>
</svg>
