<svg xmlns="http://www.w3.org/2000/svg" width="14" height="16" viewBox="0 0 14 16">
    <g fill="#0070D2" fill-rule="nonzero">
        <path d="M.541 15.319h12.086a.535.535 0 0 0 .541-.541V.54a.535.535 0 0 0-.54-.541H3.562c-.04 0-.093 0-.132.013-.014 0-.027.013-.027.013-.04.014-.066.027-.105.04-.014.013-.027.013-.04.026-.04.027-.08.053-.106.093L.132 3.747c-.04.04-.066.093-.092.145-.014.014-.014.04-.014.053-.013.04-.013.08-.026.119v10.701c0 .316.25.554.541.554zm2.48-13.3v1.557H1.703l1.32-1.557zm-1.94 2.625h2.482a.535.535 0 0 0 .54-.54V1.081h7.983v13.155H1.082V4.644z"/>
        <path d="M10.852 5.895H3.067a.535.535 0 0 0-.54.54c0 .304.237.542.54.542h7.785a.535.535 0 0 0 .541-.541.535.535 0 0 0-.541-.541zM10.852 8.421H3.067a.535.535 0 0 0-.54.541c0 .303.237.541.54.541h7.785a.535.535 0 0 0 .541-.541.543.543 0 0 0-.541-.54z"/>
    </g>
</svg>
