<svg xmlns="http://www.w3.org/2000/svg" width="151" height="132" viewBox="0 0 151 132">
    <g fill="none" fill-rule="nonzero">
        <g fill="#6B4841">
            <path d="M23.132 64.783h10.373V55.52H23.132zM116.495 64.783h10.373V55.52h-10.373zM121.682 18.474c-1.816 0-3.631-.463-5.187-1.389v10.651h10.373V17.085c-1.556.926-3.371 1.39-5.186 1.39M28.318 18.474c-1.815 0-3.63-.463-5.186-1.389v10.651h10.373V17.085c-1.556.926-3.371 1.39-5.187 1.39"/>
        </g>
        <path fill="#6B4841" d="M116.09 131.91h10.507V91.028h-10.506z"/>
        <path fill="#4C2C28" d="M29 121h88v-14H29z"/>
        <path fill="#556080" d="M0 91h151V64H0z"/>
        <path fill="#ECBA16" d="M20.041 64L0 81.325V91h25.767L57 64H20.041zM62 91h36.736L130 64H93.264z"/>
        <path fill="#556080" d="M99 91h36.318L150 78.175V64h-20.349z"/>
        <path fill="#ECBA16" d="M151 92V78l-15 14z"/>
        <path fill="#556080" d="M0 55h150.756V28H0z"/>
        <path fill="#ECBA16" d="M19.973 28L0 45.325V55h25.68l31.127-27H19.973zM62.269 55h36.59l31.14-27H93.41z"/>
        <path fill="#556080" d="M99.411 55h36.516l14.762-12.825V28h-20.46z"/>
        <path fill="#ECBA16" d="M150.845 55V41l-15.383 14z"/>
        <path fill="#6B4841" d="M23 132h10V92H23z"/>
        <path fill="#E15649" d="M18 9c0-4.95 4.5-9 10-9s10 4.05 10 9-4.5 9-10 9-10-4.05-10-9M111 9c0-4.95 4.5-9 10-9s10 4.05 10 9-4.5 9-10 9-10-4.05-10-9"/>
    </g>
</svg>
