<svg xmlns="http://www.w3.org/2000/svg" width="109" height="132" viewBox="0 0 109 132">
    <g fill="none" fill-rule="nonzero">
        <g fill="#66788C">
            <path d="M108.989 102.08v23.411c0 3.588-3.216 6.509-7.166 6.509H7.177c-3.95 0-7.166-2.92-7.166-6.509V102.08c0-.006.003-.016.003-.025l-.003-.022c0-1.68 1.007-3.235 2.624-4.051 1.62-.82 3.6-.773 5.175.111l10.059 5.671a5.272 5.272 0 0 0 5.152 0l8.286-4.67a12.62 12.62 0 0 1 12.331 0l8.286 4.67a5.272 5.272 0 0 0 5.152 0l8.286-4.67a12.62 12.62 0 0 1 12.331 0l8.286 4.67a5.272 5.272 0 0 0 5.152 0l10.062-5.671c1.572-.887 3.553-.927 5.172-.111 1.617.816 2.624 2.37 2.624 4.051l-.003.022c0 .01.003.019.003.025zm-6.806 23.411v-20.68l-7.462 4.204a12.614 12.614 0 0 1-12.328 0l-8.29-4.67a5.272 5.272 0 0 0-5.151 0l-8.286 4.67a12.564 12.564 0 0 1-6.166 1.61c-2.13 0-4.264-.538-6.166-1.61l-8.286-4.67a5.272 5.272 0 0 0-5.152 0l-8.289 4.67a12.614 12.614 0 0 1-12.328 0l-7.462-4.203v20.68c0 .178.163.327.36.327h94.646c.197 0 .36-.149.36-.328zM108.989 26.75v56.935c0 .027-.003.055-.007.083-.044 1.561-.936 2.98-2.406 3.808l-11.74 6.617a12.852 12.852 0 0 1-12.559 0l-8.058-4.54a5.51 5.51 0 0 0-5.383 0l-8.054 4.54A12.774 12.774 0 0 1 54.5 95.83c-2.17 0-4.342-.544-6.282-1.638l-8.054-4.54a5.51 5.51 0 0 0-5.383 0l-8.058 4.54a12.852 12.852 0 0 1-12.56 0l-11.74-6.617C.954 86.747.063 85.329.019 83.768c-.004-.028-.007-.056-.007-.083V6.509C.011 2.92 3.227 0 7.177 0h72.36c.95 0 1.811.356 2.427.927l26.028 23.637a2.97 2.97 0 0 1 .99 2.105c.004.028.007.052.007.08zm-6.806 56.029v-52.94H83.298c-3.95 0-7.163-2.917-7.163-6.505V6.181H7.177c-.197 0-.36.149-.36.328v76.27l10.936 6.163a5.51 5.51 0 0 0 5.383 0l8.055-4.54a12.859 12.859 0 0 1 12.563 0l8.054 4.54a5.51 5.51 0 0 0 5.384 0l8.054-4.54a12.859 12.859 0 0 1 12.563 0l8.054 4.54a5.51 5.51 0 0 0 5.384 0l10.936-6.163zm-18.885-59.12h14.07L82.942 10.555v12.78c0 .178.16.324.357.324z"/>
        </g>
        <g fill="#E0E5EE">
            <path d="M102.425 103.715v21.858c0 .19-.164.347-.362.347H6.929a.357.357 0 0 1-.363-.347v-21.858l7.501 4.442a12.138 12.138 0 0 0 12.392 0l8.332-4.936a5.074 5.074 0 0 1 5.179 0l8.328 4.936a12.149 12.149 0 0 0 6.198 1.703c2.14 0 4.286-.569 6.197-1.703l8.329-4.936a5.074 5.074 0 0 1 5.178 0l8.332 4.936a12.138 12.138 0 0 0 12.392 0l7.501-4.442zM102.43 83.236l-10.994 6.245a5.499 5.499 0 0 1-5.41 0l-8.097-4.6a12.834 12.834 0 0 0-12.628 0l-8.096 4.6a5.499 5.499 0 0 1-5.41 0l-8.097-4.6a12.834 12.834 0 0 0-12.628 0l-8.096 4.6a5.499 5.499 0 0 1-5.41 0L6.57 83.236V5.949c0-.181.164-.332.363-.332h69.314v17.382c0 3.636 3.228 6.592 7.2 6.592h18.982v53.645zM88.186 45.335c0-1.729-1.529-3.132-3.42-3.132H24.233c-1.891 0-3.42 1.403-3.42 3.132s1.529 3.132 3.42 3.132h60.534c1.891 0 3.42-1.403 3.42-3.132zm0 18.897c0-1.728-1.529-3.131-3.42-3.131H24.233c-1.891 0-3.42 1.403-3.42 3.131 0 1.732 1.529 3.132 3.42 3.132h60.534c1.891 0 3.42-1.4 3.42-3.132z"/>
            <path d="M98.494 23.872H83.125c-.215 0-.39-.155-.39-.347V9.83l15.759 14.042z"/>
        </g>
        <g fill="#66788C">
            <path d="M85.785 42.132c1.944 0 3.516 1.4 3.516 3.124 0 1.724-1.572 3.124-3.516 3.124H23.558c-1.945 0-3.516-1.4-3.516-3.124 0-1.724 1.571-3.124 3.516-3.124h62.227zM89.301 64.105c0 1.728-1.572 3.124-3.516 3.124H23.558c-1.945 0-3.516-1.396-3.516-3.124 0-1.724 1.571-3.124 3.516-3.124h62.227c1.944 0 3.516 1.4 3.516 3.124z"/>
        </g>
    </g>
</svg>
