<svg xmlns="http://www.w3.org/2000/svg" xmlns:xlink="http://www.w3.org/1999/xlink" width="176" height="177" viewBox="0 0 176 177">
    <defs>
        <ellipse id="a" cx="84" cy="83.95" rx="84" ry="83.95"/>
    </defs>
    <g fill="none" fill-rule="evenodd">
        <g transform="translate(4 4.333)">
            <use fill="#068BFF" xlink:href="#a"/>
            <ellipse cx="84" cy="83.95" stroke="#FFF" stroke-width="8" rx="80" ry="79.95"/>
            <ellipse cx="84" cy="83.95" stroke="#068BFF" stroke-width="4" rx="86" ry="85.95"/>
        </g>
        <g fill-rule="nonzero">
            <path fill="#E0E5EE" d="M90.624 102.799l28.046 27.083s3.419 3.306 9.507-2.575c6.088-5.88 2.666-9.183 2.666-9.183l-25.497-24.628c-4.417 1.155-7.888 2.434-9.133 3.64l-5.59 5.663zM84.206 79.02L66.433 61.858l-3.383-7.621L50.02 46 44 51.815 52.523 64.4l7.89 3.27L78.06 84.714l3.898-3.029c.809-.796 1.548-1.703 2.25-2.663z"/>
            <path fill="#FFF" d="M131.56 60.755l-16.87 7.062-3.275-7.653.358-3.838 14.093-5.934s-7.95-4.886-16.26-3.142c-8.311 1.747-10.117 2.09-11.923 7.332-1.805 5.232-4.335 21.637-13.007 30.014l-37.544 29.162s-6.512 7.083.007 13.38c6.518 6.296 13.848.002 13.848.002l32.365-32.775c5.42-5.235 29.265-8.028 29.265-8.028l-3.973-9.287c9.236-4.373 12.916-16.295 12.916-16.295zm-73.467 63.24c-2.125 2.056-5.58 2.056-7.708 0a5.138 5.138 0 0 1 .003-7.442c2.128-2.059 5.58-2.059 7.705 0 2.128 2.053 2.128 5.383 0 7.442z"/>
        </g>
    </g>
</svg>
