<svg xmlns="http://www.w3.org/2000/svg" width="79" height="71" viewBox="0 0 79 71">
    <g fill="none" fill-rule="nonzero">
        <path fill="#43596B" d="M33 54h14v14H33z"/>
        <path fill="#2D3C50" d="M53.933 68.434C53.4 66.414 51.506 65 49.336 65H31.665c-2.17 0-4.064 1.414-4.598 3.434-.344 1.302.68 2.566 2.08 2.566h22.707c1.399 0 2.423-1.264 2.08-2.566zM33 54h14v7H33z"/>
        <path fill="#43596B" d="M74.416 0H4.584A4.591 4.591 0 0 0 0 4.598v47.804A4.591 4.591 0 0 0 4.584 57h69.832A4.591 4.591 0 0 0 79 52.402V4.598A4.591 4.591 0 0 0 74.416 0z"/>
        <path fill="#005CAD" d="M8 8h63v41H8z"/>
        <path fill="#F96773" d="M53 28.5C53 35.956 46.956 42 39.5 42S26 35.956 26 28.5 32.044 15 39.5 15 53 21.044 53 28.5z"/>
        <path fill="#E5E8EC" d="M44.498 28.064l-5.582-3.844c-.8-.55-1.916-.005-1.916.937v7.686c0 .942 1.116 1.488 1.916.937l5.582-3.843a1.125 1.125 0 0 0 0-1.873z"/>
    </g>
</svg>
