<svg width="194" height="194" viewBox="0 0 194 194" fill="none" xmlns="http://www.w3.org/2000/svg">
<circle cx="97" cy="97" r="87" stroke="#04844B" stroke-width="20"/>
<path d="M106.524 145.159C106.524 147.955 105.624 150.321 103.825 152.257C102.026 154.086 99.7513 155 97 155C94.2487 155 91.9735 154.086 90.1746 152.257C88.3757 150.321 87.4762 147.955 87.4762 145.159V78.5271C87.4762 75.7306 88.3757 73.4182 90.1746 71.5897C91.9735 69.6537 94.2487 68.6857 97 68.6857C99.7513 68.6857 102.026 69.6537 103.825 71.5897C105.624 73.4182 106.524 75.7306 106.524 78.5271V145.159ZM96.8413 58.1989C93.2434 58.1989 90.7037 57.6073 89.2222 56.4242C87.7407 55.2411 87 53.1437 87 50.1321V47.0668C87 44.0552 87.7937 41.9578 89.381 40.7747C90.9683 39.5916 93.5079 39 97 39C100.704 39 103.296 39.5916 104.778 40.7747C106.259 41.9578 107 44.0552 107 47.0668V50.1321C107 53.2513 106.206 55.4024 104.619 56.5855C103.138 57.6611 100.545 58.1989 96.8413 58.1989Z" fill="#04844B"/>
</svg>
