<svg xmlns="http://www.w3.org/2000/svg" width="61" height="60" viewBox="0 0 61 60">
    <g fill="none" fill-rule="nonzero">
        <path fill="#E0E5EE" d="M59.739 7.208h-6.867a.95.95 0 0 0-.952.95v3.044a1.873 1.873 0 0 1-3.746 0V8.158a.95.95 0 0 0-.952-.95H13.534a.95.95 0 0 0-.952.95v3.044a1.873 1.873 0 0 1-3.746 0V8.158a.95.95 0 0 0-.952-.95H.952a.95.95 0 0 0-.952.95v45.898c0 .525.426.95.952.95h31.881a.952.952 0 0 0 .86-1.356 15.073 15.073 0 0 1-1.456-6.908c.1-3.945 1.72-7.656 4.56-10.449 2.842-2.792 6.586-4.354 10.542-4.396l.167-.001c4.416 0 8.606 1.897 11.515 5.223a.953.953 0 0 0 1.67-.625V8.158a.95.95 0 0 0-.952-.95z"/>
        <path fill="#C9CED6" d="M59.739 7.208h-6.867a.95.95 0 0 0-.952.95v3.044a1.873 1.873 0 0 1-3.746 0V8.158a.95.95 0 0 0-.952-.95H13.534a.95.95 0 0 0-.952.95v3.044a1.873 1.873 0 0 1-3.746 0V8.158a.95.95 0 0 0-.952-.95H.952a.95.95 0 0 0-.952.95v14.059h60.69V8.157a.95.95 0 0 0-.951-.949z"/>
        <path fill="#16325C" d="M59.771 7.208H.985a.95.95 0 0 0-.952.95v10.279c0 .524.426.95.952.95H59.77a.95.95 0 0 0 .952-.95V8.157a.95.95 0 0 0-.952-.949z"/>
        <g fill="#D3D8E0">
            <path d="M10.709.008a3.777 3.777 0 0 0-3.777 3.768v7.426a3.777 3.777 0 0 0 7.554 0V3.776A3.777 3.777 0 0 0 10.709.008zM50.047.008a3.777 3.777 0 0 0-3.777 3.768v7.426a3.777 3.777 0 0 0 7.554 0V3.776A3.777 3.777 0 0 0 50.047.008z"/>
        </g>
        <g>
            <path fill="#4A90E2" d="M47.854 34.714c6.975 0 12.63 5.64 12.63 12.6 0 6.958-5.655 12.6-12.63 12.6-6.975 0-12.628-5.642-12.628-12.6 0-6.96 5.653-12.6 12.628-12.6z"/>
            <path fill="#FFF" d="M53.014 47.506h-4.353v-5.18c0-.463-.711-.836-1.173-.836-.463 0-1.174.373-1.174.835v6.685c0 .462.375.836.837.836h5.863c.464 0 .838-.709.838-1.171 0-.46-.374-1.17-.838-1.17z"/>
            <path fill="#005CAD" d="M47.854 34.714c-6.975 0-12.628 5.64-12.628 12.6 0 6.958 5.653 12.6 12.628 12.6 6.975 0 12.63-5.642 12.63-12.6 0-6.96-5.655-12.6-12.63-12.6zm.128 22.292c-5.287 0-9.588-4.29-9.588-9.566 0-5.274 4.301-9.565 9.588-9.565 5.286 0 9.587 4.291 9.587 9.565 0 5.275-4.301 9.566-9.587 9.566z"/>
        </g>
    </g>
</svg>
