<svg xmlns="http://www.w3.org/2000/svg" width="90" height="90" viewBox="0 0 90 90">
  <g fill="none" fill-rule="evenodd">
    <rect width="10.313" height="18" x="67.312" y="13.938" fill="#DE5E47" fill-rule="nonzero"/>
    <rect width="18.188" height="9.75" x="63.375" y="4.75" fill="#DE5E47" fill-rule="nonzero"/>
    <path fill="#DE5E47" fill-rule="nonzero" d="M7.875,48.5625586 L7.875,85 C7.875,87.7614237 10.1135763,90 12.875,90 L76.3749414,90 C79.1363652,90 81.3749414,87.7614237 81.3749414,85 L81.3749414,48.5625586 C66.9375,34.1251172 58.8749414,26.0625586 44.6248828,11.8125 C30.375,26.2499414 22.3124414,34.3125 7.875,48.5625586 Z"/>
    <path fill="#F0F1F1" d="M37,59 L53,59 C55.209139,59 57,60.790861 57,63 L57,90 L33,90 L33,63 C33,60.790861 34.790861,59 37,59 Z"/>
    <path fill="#BF513D" fill-rule="nonzero" d="M81.5625,48.5625586 C67.1250586,34.1251172 59.0625,26.0625586 44.8124414,11.8125 C37.4999414,18.9374414 31.8749414,24.5624414 26.2499414,30.1874414 C20.6249414,35.8124414 14.9999414,41.4374414 7.875,48.5623828 L7.875,56.9998828 C22.3124414,42.5624414 30.375,34.4998828 44.6250586,20.2498242 C59.0625,34.6872656 67.1250586,42.7498242 81.3751172,56.9998828 L81.3751172,58.1248828 L81.3751172,48.5623828 L81.5625,48.5623828 L81.5625,48.5625586 Z"/>
    <path fill="#F0F1F1" fill-rule="nonzero" d="M88.3125,40.8749414 L49.1250586,1.6875 C46.8750586,-0.5625 42.9375586,-0.5625 40.6875586,1.6875 L1.6875,40.8749414 C-0.5625,43.1249414 -0.5625,47.0624414 1.6875,49.3124414 C3.9375,51.5624414 7.875,51.5624414 10.125,49.3124414 L45,14.4374414 L79.875,49.3124414 C82.125,51.5624414 86.0625,51.5624414 88.3125,49.3124414 C90.5625,46.8750586 90.5625,43.1249414 88.3125,40.8749414 Z"/>
  </g>
</svg>
