<svg xmlns="http://www.w3.org/2000/svg" width="150" height="150" viewBox="0 0 150 150">
    <g fill="none" fill-rule="nonzero">
        <path fill="#FF6465" d="M75 150c41.421 0 75-33.579 75-75S116.422 0 75 0C33.58 0 0 33.579 0 75c0 41.422 33.579 75 75 75z"/>
        <path fill="#FFF" d="M92.962 76.21l19.675-19.675a3.662 3.662 0 0 0 0-5.178l-11.575-11.575a3.662 3.662 0 0 0-5.178 0L76.21 59.457 56.535 39.782a3.662 3.662 0 0 0-5.178 0L39.782 51.357a3.662 3.662 0 0 0 0 5.178L59.457 76.21 39.782 95.884a3.662 3.662 0 0 0 0 5.179l11.575 11.574a3.662 3.662 0 0 0 5.178 0L76.21 92.963l19.674 19.674a3.662 3.662 0 0 0 5.179 0l11.574-11.574a3.662 3.662 0 0 0 0-5.18L92.962 76.21z"/>
    </g>
</svg>
