<svg xmlns="http://www.w3.org/2000/svg" width="56" height="56" viewBox="0 0 56 56">
    <g fill="none" fill-rule="nonzero">
        <path fill="#FF6465" d="M28 56c15.464 0 28-12.536 28-28S43.464 0 28 0 0 12.536 0 28s12.536 28 28 28z"/>
        <path fill="#FFF" d="M34.706 28.452l7.345-7.346c.534-.533.534-1.4 0-1.933l-4.321-4.321a1.367 1.367 0 0 0-1.933 0l-7.345 7.345-7.346-7.345a1.367 1.367 0 0 0-1.933 0l-4.321 4.321a1.367 1.367 0 0 0 0 1.933l7.345 7.346-7.345 7.345a1.367 1.367 0 0 0 0 1.933l4.321 4.321c.534.534 1.4.534 1.933 0l7.346-7.345 7.345 7.345c.534.534 1.4.534 1.933 0l4.321-4.32c.534-.535.534-1.4 0-1.934l-7.345-7.345z"/>
    </g>
</svg>
