<svg xmlns="http://www.w3.org/2000/svg" width="100" height="58" viewBox="0 0 100 58">
    <g fill="none" fill-rule="nonzero">
        <path fill="#0E9347" d="M94.837 57.454H4.97c-2.472 0-4.494-1.982-4.494-4.403V4.618C.476 2.196 2.498.215 4.97.215h89.867c2.472 0 4.494 1.981 4.494 4.403V53.05c0 2.421-2.022 4.403-4.494 4.403z"/>
        <path fill="#3BB54A" d="M85.85 53.05H13.957c0-4.842-4.044-8.805-8.986-8.805V13.424c4.942 0 8.986-3.963 8.986-8.806h71.895c0 4.843 4.044 8.806 8.986 8.806v30.82c-4.942 0-8.986 3.964-8.986 8.807z"/>
        <g fill="#0E9347" transform="translate(18.432 8.866)">
            <ellipse cx="31.471" cy="19.968" rx="17.974" ry="19.813"/>
            <ellipse cx="4.511" cy="19.968" rx="4.493" ry="4.403"/>
            <ellipse cx="58.432" cy="19.968" rx="4.493" ry="4.403"/>
        </g>
        <path fill="#89C763" d="M52.15 26.633h-4.493c-1.348 0-2.247-.88-2.247-2.202 0-1.32.899-2.201 2.247-2.201h6.74c1.348 0 2.246-.88 2.246-2.201 0-1.321-.898-2.202-2.246-2.202H52.15c0-1.32-.899-2.201-2.247-2.201-1.348 0-2.246.88-2.246 2.201-3.82 0-6.74 2.862-6.74 6.605 0 3.742 2.92 6.604 6.74 6.604h4.493c1.348 0 2.247.88 2.247 2.202 0 1.32-.899 2.201-2.247 2.201h-6.74c-1.348 0-2.246.88-2.246 2.201 0 1.321.898 2.202 2.246 2.202h2.247c0 1.32.899 2.201 2.246 2.201 1.349 0 2.247-.88 2.247-2.201 3.82 0 6.74-2.862 6.74-6.605 0-3.742-2.92-6.604-6.74-6.604z"/>
    </g>
</svg>
