<svg xmlns="http://www.w3.org/2000/svg" xmlns:xlink="http://www.w3.org/1999/xlink" width="25" height="26" viewBox="0 0 25 26">
    <defs>
        <path id="a" d="M17.99 19.676c-.088-5.53-.816-7.107-6.38-8.105 0 0-.784.992-2.61.992-1.826 0-2.61-.992-2.61-.992-5.503.987-6.275 2.54-6.376 7.926-.009.44-.013.463-.014.412v.58s1.326 2.654 9 2.654c7.675 0 9-2.653 9-2.653v-.43c-.001.031-.004-.03-.01-.384z"/>
        <path id="b" d="M9 11.571c2.711 0 4.91-2.59 4.91-5.785C13.91 2.59 13.186 0 9 0S4.09 2.59 4.09 5.786C4.09 8.98 6.29 11.57 9 11.57z"/>
        <path id="c" d="M11.994 13.077c-.06-3.752-.544-4.821-4.254-5.498 0 0-.522.673-1.74.673-1.217 0-1.74-.673-1.74-.673C.592 8.249.078 9.302.01 12.955c-.006.299-.009.314-.01.28v.394s.884 1.8 6 1.8c5.117 0 6-1.8 6-1.8 0-.135-.003-.312-.006-.552z"/>
        <path id="d" d="M6 7.579c1.729 0 3.13-1.697 3.13-3.79C9.13 1.697 8.67 0 6 0S2.87 1.697 2.87 3.79C2.87 5.881 4.27 7.578 6 7.578z"/>
    </defs>
    <g fill="none" fill-rule="nonzero">
        <g transform="translate(5.286 1)">
            <use fill="#FFC855" fill-rule="evenodd" xlink:href="#a"/>
            <path stroke="#E53D48" d="M17.5 20.49h.317l.088.068.49-.184.063-.107c.044-.176.044-.176.041-.184L18 20.06l-.5-.001v.046a.53.53 0 0 0 .046.173.715.715 0 0 1-.046.067v.145zm.052-.224a.207.207 0 0 1-.006.012l.001.003.27.209H18l-.448-.224zM.5 19.894v-.01l-.01-.064c0-.044 0-.044-.305-.357l-.405.016-.182.153c-.034.05-.034.05-.064.12-.035.156-.035.156-.03.115.003-.056.006-.18.01-.38.11-5.884 1.267-7.418 6.789-8.408l.294-.053.186.235c.062.078.22.222.48.375.455.265 1.029.427 1.737.427.709 0 1.282-.162 1.737-.427.26-.153.419-.297.48-.375l.186-.235.295.053c5.568.999 6.695 2.533 6.792 8.59l.006.329v.023c0-.01 0-.01-.007-.054-.013-.055-.013-.055-.395-.39l-.49.184-.063.106-.013.032c-.03.14-.03.14-.027.137l.999.025V20.608l-.053.105c-.213.426-.778 1.002-1.84 1.548-1.69.868-4.175 1.382-7.607 1.382-3.432 0-5.916-.514-7.606-1.382-1.063-.546-1.628-1.122-1.84-1.548l-.053-.105v-.118l-.001-.58 1-.016z"/>
        </g>
        <g transform="translate(5.286 1)">
            <use fill="#FEE187" fill-rule="evenodd" xlink:href="#b"/>
            <path stroke="#E53D48" d="M9 12.071c-3.007 0-5.41-2.83-5.41-6.285C3.59 1.588 4.996-.5 9-.5s5.41 2.088 5.41 6.286c0 3.455-2.403 6.285-5.41 6.285z"/>
        </g>
        <g>
            <g transform="translate(1 9.571)">
                <use fill="#FFC855" fill-rule="evenodd" xlink:href="#c"/>
                <path stroke="#E53D48" d="M11.494 13.085zm1-.016c.005.33.006.441.006.56v.116l-.051.104c-.157.32-.558.736-1.299 1.123-1.152.603-2.835.957-5.15.957-2.314 0-3.997-.354-5.15-.957-.74-.387-1.141-.803-1.298-1.123l-.052-.104v-.116-.393l1-.016-.001-.013c0-.013 0-.013-.01-.065-.017-.066-.017-.066-.515-.394l-.379.208-.051.09-.012.028c-.034.156-.034.156-.029.126.002-.037.004-.12.006-.254.075-4.063.897-5.172 4.662-5.859l.298-.054.187.24c.029.037.12.12.274.213.277.165.63.266 1.07.266.44 0 .793-.101 1.07-.266a1.09 1.09 0 0 0 .275-.214l.186-.24.298.055c3.798.693 4.599 1.803 4.664 5.982z"/>
            </g>
            <g transform="translate(1 9.571)">
                <use fill="#FEE187" fill-rule="evenodd" xlink:href="#d"/>
                <path stroke="#E53D48" d="M6 8.079c-2.028 0-3.63-1.94-3.63-4.29C2.37.957 3.323-.5 6-.5S9.63.957 9.63 3.79c0 2.35-1.602 4.289-3.63 4.289z"/>
            </g>
        </g>
    </g>
</svg>
