<svg xmlns="http://www.w3.org/2000/svg" width="215" height="215" viewBox="0 0 215 215">
    <g fill="none" fill-rule="nonzero">
        <g opacity=".8">
            <path fill="#0BAEBE" d="M161.291 172.236h-25.377c-.913 0-1.79-.362-2.436-1.008l-14.315-14.315h-9.804v-6.89h11.23c.915 0 1.79.363 2.437 1.009l14.315 14.315h23.95v6.89z"/>
            <circle cx="161.29" cy="168.791" r="9.082" fill="#A17CC6"/>
            <path fill="#08828E" d="M151.848 198.918h-15.934c-.913 0-1.79-.363-2.436-1.009l-14.315-14.315h-9.804v-6.89h11.23c.915 0 1.79.364 2.437 1.01l14.315 14.314h14.507v6.89z"/>
            <circle cx="151.847" cy="195.473" r="9.082" fill="#A17CC6"/>
            <path fill="#0BAEBE" d="M79.086 37.202h-35.06v-6.89H77.66l14.314-14.315a3.445 3.445 0 0 1 2.436-1.008h11.232v6.89h-9.805L81.52 36.192a3.443 3.443 0 0 1-2.435 1.009z"/>
            <circle cx="44.026" cy="33.755" r="9.082" fill="#A17CC6"/>
            <path fill="#08828E" d="M79.086 63.883H63.152v-6.89H77.66L91.974 42.68a3.445 3.445 0 0 1 2.436-1.009h11.231v6.89h-9.805L81.522 62.874a3.445 3.445 0 0 1-2.436 1.01z"/>
            <circle cx="63.152" cy="60.437" r="9.082" fill="#A17CC6"/>
            <path fill="#A17CC6" d="M77.499 142.382l-4.872-4.872 64.888-64.888 4.872 4.872z"/>
            <path fill="#0BAEBE" d="M115.873 215H4.088A4.088 4.088 0 0 1 0 210.912v-5.86a4.088 4.088 0 0 1 4.088-4.088h111.785a4.088 4.088 0 0 1 4.088 4.088v5.86a4.088 4.088 0 0 1-4.088 4.088z"/>
            <path fill="#08828E" d="M67.872 208.146H52.09a7.182 7.182 0 0 1-7.183-7.182h30.149a7.182 7.182 0 0 1-7.183 7.182z"/>
            <path fill="#05565E" d="M102.664 136.21H17.297a6.695 6.695 0 0 0-6.695 6.696v58.058h98.757v-58.057a6.695 6.695 0 0 0-6.695-6.696z"/>
            <path fill="#FFF" d="M21.552 147.162H98.41v42.855H21.552z"/>
            <path fill="#000" d="M10.601 196.777h98.758v4.185H10.601z" opacity=".15"/>
            <circle cx="59.982" cy="168.943" r="5.697" fill="#068BFF"/>
            <circle cx="37.044" cy="168.943" r="5.697" fill="#0BAEBE"/>
            <circle cx="82.917" cy="163.265" r="5.697" fill="#5D3981"/>
            <path fill="#0BAEBE" d="M210.912 78.79H99.127a4.088 4.088 0 0 1-4.088-4.09v-5.858a4.088 4.088 0 0 1 4.088-4.089h111.785A4.088 4.088 0 0 1 215 68.842V74.7a4.088 4.088 0 0 1-4.088 4.088z"/>
            <path fill="#08828E" d="M162.911 71.936h-15.783a7.182 7.182 0 0 1-7.183-7.183h30.149a7.182 7.182 0 0 1-7.183 7.183z"/>
            <path fill="#05565E" d="M197.703 0h-85.367a6.695 6.695 0 0 0-6.695 6.695v58.058h98.758V6.696A6.696 6.696 0 0 0 197.703 0z"/>
            <path fill="#FFF" d="M116.589 10.951h76.858v42.855h-76.858z"/>
            <path fill="#000" d="M105.639 60.57h98.758v4.185h-98.758z" opacity=".15"/>
            <circle cx="155.02" cy="32.736" r="5.697" fill="#068BFF"/>
            <circle cx="132.082" cy="32.736" r="5.697" fill="#0BAEBE"/>
            <circle cx="6.671" cy="6.057" r="5.697" fill="#5D3981" transform="translate(171.283 20.996)"/>
        </g>
        <circle cx="107.499" cy="107.499" r="20.119" fill="#C23934"/>
        <path fill="#FFF" d="M112.374 107.498l2.388-2.388a3.445 3.445 0 1 0-4.872-4.872l-2.388 2.388-2.389-2.388a3.445 3.445 0 0 0-4.871 4.872l2.388 2.388-2.388 2.389a3.445 3.445 0 1 0 4.872 4.872l2.388-2.389 2.389 2.389a3.437 3.437 0 0 0 2.436 1.008 3.445 3.445 0 0 0 2.436-5.88l-2.39-2.389z"/>
    </g>
</svg>
