<?xml version="1.0" encoding="UTF-8"?>
<svg width="25px" height="18px" viewBox="0 0 25 18" version="1.1" xmlns="http://www.w3.org/2000/svg" xmlns:xlink="http://www.w3.org/1999/xlink">
    <!-- Generator: Sketch 54.1 (76490) - https://sketchapp.com -->
    <title>credit-card</title>
    <desc>Created with Sketch.</desc>
    <g id="Benefits/Letters" stroke="none" stroke-width="1" fill="none" fill-rule="evenodd">
        <g id="[VD]-Benefits---View-Benefits---FAP---Benefit-Details-(mobile)" transform="translate(-16.000000, -594.000000)" fill-rule="nonzero">
            <g id="credit-card" transform="translate(16.000000, 594.000000)">
                <path d="M23.6133621,18 L1.38663793,18 C0.620689655,18 0,17.3828571 0,16.6212857 L0,1.37871429 C0,0.617142857 0.620689655,0 1.38663793,0 L23.6133621,0 C24.3793103,0 25,0.617142857 25,1.37871429 L25,16.6212857 C25,17.3828571 24.3793103,18 23.6133621,18" id="XMLID_120_" fill="#3A79BD"></path>
                <path d="M5.82386364,3.75 L1.98863636,3.75 C1.75298295,3.75 1.5625,3.582 1.5625,3.375 C1.5625,3.168 1.75298295,3 1.98863636,3 L5.82386364,3 C6.05951705,3 6.25,3.168 6.25,3.375 C6.25,3.582 6.05951705,3.75 5.82386364,3.75" id="XMLID_119_" fill="#FFFFFF"></path>
                <path d="M11.2926136,3.75 L7.45738636,3.75 C7.22173295,3.75 7.03125,3.582 7.03125,3.375 C7.03125,3.168 7.22173295,3 7.45738636,3 L11.2926136,3 C11.528267,3 11.71875,3.168 11.71875,3.375 C11.71875,3.582 11.528267,3.75 11.2926136,3.75" id="XMLID_118_" fill="#FFFFFF"></path>
                <path d="M2.60416667,6 L2.08333333,6 C1.7953125,6 1.5625,5.832 1.5625,5.625 C1.5625,5.418 1.7953125,5.25 2.08333333,5.25 L2.60416667,5.25 C2.8921875,5.25 3.125,5.418 3.125,5.625 C3.125,5.832 2.8921875,6 2.60416667,6" id="XMLID_117_" fill="#FFFFFF"></path>
                <path d="M5.078125,6 L4.296875,6 C4.08085937,6 3.90625,5.832 3.90625,5.625 C3.90625,5.418 4.08085937,5.25 4.296875,5.25 L5.078125,5.25 C5.29414063,5.25 5.46875,5.418 5.46875,5.625 C5.46875,5.832 5.29414063,6 5.078125,6" id="XMLID_116_" fill="#FFFFFF"></path>
                <path d="M7.29166667,6 L6.77083333,6 C6.4828125,6 6.25,5.832 6.25,5.625 C6.25,5.418 6.4828125,5.25 6.77083333,5.25 L7.29166667,5.25 C7.5796875,5.25 7.8125,5.418 7.8125,5.625 C7.8125,5.832 7.5796875,6 7.29166667,6" id="XMLID_115_" fill="#FFFFFF"></path>
                <path d="M9.765625,6 L8.984375,6 C8.76835937,6 8.59375,5.832 8.59375,5.625 C8.59375,5.418 8.76835937,5.25 8.984375,5.25 L9.765625,5.25 C9.98164063,5.25 10.15625,5.418 10.15625,5.625 C10.15625,5.832 9.98164063,6 9.765625,6" id="XMLID_114_" fill="#FFFFFF"></path>
                <path d="M11.328125,6 C11.2265625,6 11.1242188,5.95849057 11.0507812,5.89056604 C10.9800781,5.81886792 10.9375,5.72075472 10.9375,5.62264151 C10.9375,5.5245283 10.9800781,5.42641509 11.0507812,5.35471698 C11.1953125,5.21509434 11.4570312,5.21509434 11.6054688,5.35471698 C11.6757812,5.42641509 11.71875,5.5245283 11.71875,5.62264151 C11.71875,5.72075472 11.6757812,5.81886792 11.6054688,5.89056604 C11.5308594,5.95849057 11.4332031,6 11.328125,6" id="XMLID_113_" fill="#FFFFFF"></path>
                <rect id="XMLID_112_" fill="#2C91D0" x="15.625" y="3" width="7.03125" height="4.5"></rect>
                <path d="M23.4375,7.5 L15.625,7.5 L15.625,2.25 L23.4375,2.25 L23.4375,7.5 Z M16.4930556,6.625 L22.5694444,6.625 L22.5694444,3.125 L16.4930556,3.125 L16.4930556,6.625 Z" id="XMLID_109_" fill="#FFFFFF"></path>
                <rect id="XMLID_108_" fill="#1D6AAA" x="2.34375" y="12.75" width="3.90625" height="2.25"></rect>
                <rect id="XMLID_107_" fill="#1D6AAA" x="7.8125" y="12.75" width="3.90625" height="2.25"></rect>
                <rect id="XMLID_106_" fill="#1D6AAA" x="13.28125" y="12.75" width="3.90625" height="2.25"></rect>
                <rect id="XMLID_105_" fill="#1D6AAA" x="18.75" y="12.75" width="3.90625" height="2.25"></rect>
            </g>
        </g>
    </g>
</svg>