<?xml version="1.0" encoding="UTF-8"?>
<svg width="60px" height="60px" viewBox="0 0 60 60" version="1.1" xmlns="http://www.w3.org/2000/svg" xmlns:xlink="http://www.w3.org/1999/xlink">
    <!-- Generator: sketchtool 42 (36781) - http://www.bohemiancoding.com/sketch -->
    <title>0771007A-980E-48D6-AE4C-B2534125D80D</title>
    <desc>Created with sketchtool.</desc>
    <defs></defs>
    <g id="Benefits" stroke="none" stroke-width="1" fill="none" fill-rule="evenodd">
        <g id="View-Benefits" transform="translate(-339.000000, -1036.000000)" fill-rule="nonzero">
            <g id="dollar-symbol" transform="translate(339.000000, 1036.000000)">
                <circle id="Oval" fill="#FFB541" cx="30" cy="30" r="29.8203896"></circle>
                <ellipse id="Oval" fill="#FFD153" cx="30" cy="30" rx="23.6119481" ry="23.6119481"></ellipse>
                <path d="M40.1775974,22.5703247 L40.1775974,20.3820779 C40.1775974,16.0620779 36.7305195,12.5343506 32.4426623,12.3991558 L32.4426623,9.44123377 L27.5573377,9.44123377 L27.5573377,12.3991558 C23.2694805,12.5343506 19.8224026,16.0620779 19.8224026,20.3820779 L19.8224026,24.7583766 C19.8224026,29.0783766 23.2696753,32.6061039 27.5573377,32.7412987 L27.5573377,42.0981818 C26.3014286,41.9703896 25.3182468,40.9065584 25.3182468,39.6175325 L25.3182468,37.4294805 L19.8224026,37.4294805 L19.8224026,39.6177273 C19.8224026,43.9377273 23.2694805,47.4654545 27.5573377,47.6006494 L27.5573377,50.5585714 L32.4426623,50.5585714 L32.4426623,47.6006494 C36.7305195,47.4654545 40.1775974,43.9377273 40.1775974,39.6177273 L40.1775974,35.2414286 C40.1775974,30.9214286 36.7303247,27.3937013 32.4426623,27.2585065 L32.4426623,17.9016234 C33.6985714,18.0294156 34.6817532,19.0932468 34.6817532,20.3820779 L34.6817532,22.5703247 L40.1775974,22.5703247 L40.1775974,22.5703247 Z M25.3182468,24.7585714 L25.3182468,20.3822727 C25.3182468,19.0932468 26.3014286,18.0296104 27.5573377,17.9018182 L27.5573377,27.2394156 C26.3016234,27.1114286 25.3182468,26.0475974 25.3182468,24.7585714 Z M34.6817532,35.2414286 L34.6817532,39.6177273 C34.6817532,40.9067532 33.6985714,41.9703896 32.4426623,42.0981818 L32.4426623,32.7605844 C33.6983766,32.8885714 34.6817532,33.9524026 34.6817532,35.2414286 Z" id="Shape" fill="#FFA200"></path>
            </g>
        </g>
    </g>
</svg>