<svg xmlns="http://www.w3.org/2000/svg" width="25" height="11" viewBox="0 0 25 11">
    <g fill="none" fill-rule="nonzero" transform="matrix(-1 0 0 1 25 0)">
        <path fill="#5C87AE" d="M25 3.063v4.64c0 .182-.206.364-.412.364L.412 8.02C.206 8.021 0 7.84 0 7.657l.154-1.91c.103-1.183 1.132-2.093 2.418-2.275L6.019 3.2l3.034-1.728A11.637 11.637 0 0 1 14.146.015c1.903-.09 3.755.228 5.401 1 1.544.683 3.241 1.457 3.447 1.547.566.364 1.286.5 2.006.5z"/>
        <path fill="#7BE3FF" d="M15.91 2.933l5.302-.183c-.153-.092-1.53-.733-2.753-1.283-.816-.367-1.683-.642-2.55-.734v2.2z"/>
        <path fill="#7BE3FF" d="M15.91.77c-.44-.05-.685-.05-1.125 0l-.44.05c-1.368.15-2.688.6-3.861 1.399l-2.15 1.448 7.575-.35V.771z"/>
        <path fill="#363D44" d="M14.881 5.133h-.974c-.162 0-.27-.146-.27-.366s.108-.367.27-.367h.974c.162 0 .27.147.27.367s-.162.366-.27.366z"/>
        <path fill="#F1455B" d="M25 3.896a5.46 5.46 0 0 1-1.515-.23v.046l.379 2.2L25 6.6V3.896z"/>
        <path fill="#FFC843" d="M24.242 3.667v.04l.19 1.426H25L24.985 3.7l-.107-.032h-.636z"/>
        <path fill="#526173" d="M22.799 6.9c-.515-.584-1.338-.988-2.265-.988-.926 0-1.75.404-2.264.987H6.587c-.514-.628-1.338-1.032-2.264-1.032-.926 0-1.75.404-2.264 1.032H.05L0 7.663c0 .18.206.359.412.359h6.742l17.497.045A.354.354 0 0 0 25 7.71v-.857h-2.201V6.9z"/>
        <path fill="#363D44" d="M6.818 8.8c0 1.222-1.01 2.2-2.273 2.2-1.262 0-2.272-.978-2.272-2.2 0-1.222 1.01-2.2 2.272-2.2 1.263 0 2.273.978 2.273 2.2z"/>
        <path fill="#A9B8C9" d="M6.06 8.8c0 .831-.656 1.467-1.515 1.467-.858 0-1.515-.636-1.515-1.467 0-.831.657-1.467 1.515-1.467.809 0 1.516.685 1.516 1.467z"/>
        <path fill="#BFCFE0" d="M4.924 10.267c-1.065 0-1.894-.688-1.894-1.467 0-.78.888-1.467 1.894-1.467 1.006 0 1.894.688 1.894 1.467 0 .78-.828 1.467-1.894 1.467zm0-2.75c-.888 0-1.657.55-1.657 1.283 0 .733.71 1.283 1.657 1.283.947 0 1.657-.55 1.657-1.283 0-.733-.769-1.283-1.657-1.283z"/>
        <ellipse cx="4.545" cy="8.8" fill="#FFF" rx="1" ry="1"/>
        <path fill="#363D44" d="M22.727 8.8c0 1.222-1.01 2.2-2.272 2.2-1.263 0-2.273-.978-2.273-2.2 0-1.222 1.01-2.2 2.273-2.2 1.262 0 2.272.978 2.272 2.2z"/>
        <path fill="#A9B8C9" d="M21.97 8.8c0 .831-.657 1.467-1.515 1.467-.859 0-1.516-.636-1.516-1.467 0-.831.657-1.467 1.516-1.467.858 0 1.515.685 1.515 1.467z"/>
        <path fill="#BFCFE0" d="M20.076 10.267c-1.066 0-1.894-.688-1.894-1.467 0-.78.888-1.467 1.894-1.467 1.006 0 1.894.688 1.894 1.467 0 .78-.829 1.467-1.894 1.467zm0-2.75c-.888 0-1.657.55-1.657 1.283 0 .733.71 1.283 1.657 1.283.947 0 1.657-.55 1.657-1.283 0-.733-.77-1.283-1.657-1.283z"/>
        <ellipse cx="20.455" cy="8.8" fill="#FFF" rx="1" ry="1"/>
        <path fill="#FFFCEE" d="M.897 5.133A2.49 2.49 0 0 0 0 6.6s1.794-.196 2.093-1.173l.18-.294H.897z"/>
        <path fill="#FFC843" d="M.866 4.45c-.52.378-.808.897-.866 1.417 0 0 1.773-.136 2.062-1.08.057-.095.153-.293.21-.387l-1.406.05z"/>
        <path fill="#FF974A" d="M2.581 4.461l-.168.367c-.112.489-.505.855-.898 1.039.898-.061 1.235-.611 1.29-.917.057-.306.225-.55.225-.55h-.449v.061z"/>
    </g>
</svg>
