<svg xmlns="http://www.w3.org/2000/svg" width="138" height="120" viewBox="0 0 138 120">
    <g fill="none" fill-rule="nonzero">
        <path fill="#575F64" d="M16.065 0h7.9v11.968h-7.9z"/>
        <path fill="#32393F" d="M87.435 0h7.9v11.968h-7.9zM71.634 0h7.9v11.968h-7.9z"/>
        <path fill="#575F64" d="M31.866 0h7.901v11.968h-7.9z"/>
        <path fill="#EAECF2" d="M111.137 32.18v80.054H0V32.181l7.9-7.979h95.337z"/>
        <g fill="#DCE1EB">
            <path d="M16.065 48.404h15.801v7.979H16.065zM16.065 64.362h15.801v7.978H16.065zM16.065 80.32h15.801v7.978H16.065zM47.668 48.404h15.801v7.979H47.668zM47.668 64.362h15.801v7.978H47.668zM47.668 80.32h15.801v7.978H47.668z"/>
        </g>
        <path fill="#DCE1EB" d="M79.534 48.404h15.802v7.979H79.534zM79.534 64.362h15.802v7.978H79.534zM79.534 80.32h15.802v7.978H79.534z"/>
        <path fill="#526173" d="M0 7.979h111.137V32.18H0z"/>
        <g>
            <path fill="#6EB1E1" d="M138 88.085C138 105.711 123.851 120 106.397 120s-31.603-14.289-31.603-31.915c0-17.626 14.149-31.915 31.603-31.915S138 70.46 138 88.085z"/>
            <path fill="#DDF5FF" d="M131.577 88.085c0 14.044-11.274 25.428-25.18 25.428s-25.18-11.384-25.18-25.428c0-14.043 11.274-25.428 25.18-25.428s25.18 11.385 25.18 25.428z"/>
            <path fill="#636363" d="M108.452 88.085h-4.11V71.48c0-1.146.92-2.076 2.055-2.076 1.135 0 2.055.93 2.055 2.076v16.606z"/>
            <path fill="#636363" d="M104.944 89.553l2.906-2.936 8.903 8.99a2.09 2.09 0 0 1 0 2.936 2.04 2.04 0 0 1-2.907 0l-8.902-8.99z"/>
            <path fill="#FF6969" d="M93.293 102.29a.955.955 0 0 1-.68-.284.98.98 0 0 1 0-1.376l10.555-10.66a.957.957 0 0 1 1.362 0 .98.98 0 0 1 0 1.376l-10.556 10.66a.955.955 0 0 1-.68.285z"/>
            <g fill="#636363">
                <path d="M107.36 62.675v2.576a.969.969 0 0 1-.963.973.969.969 0 0 1-.964-.973v-2.576a26.367 26.367 0 0 1 1.927 0zM95.573 69.153a.963.963 0 0 1-1.317-.355l-1.276-2.233a24.794 24.794 0 0 1 1.669-.976l1.278 2.235a.977.977 0 0 1-.354 1.329zM87.65 77.155a.958.958 0 0 1-1.316.357l-2.213-1.291a25.04 25.04 0 0 1 .966-1.686l2.211 1.29c.461.27.619.864.352 1.33zM84.75 88.085a.969.969 0 0 1-.964.973h-2.55a27.154 27.154 0 0 1 0-1.946h2.55c.532 0 .964.436.964.973zM87.297 100.345l-2.21 1.29a25.028 25.028 0 0 1-.966-1.686l2.213-1.29a.957.957 0 0 1 1.316.356.977.977 0 0 1-.353 1.33zM95.927 108.346l-1.278 2.235c-.57-.305-1.127-.629-1.669-.976l1.277-2.232a.959.959 0 0 1 1.316-.356c.462.269.62.863.354 1.329zM107.36 110.918v2.577a26.367 26.367 0 0 1-1.927 0v-2.577c0-.536.432-.973.964-.973a.97.97 0 0 1 .963.973zM119.814 109.605c-.542.347-1.098.671-1.669.976l-1.278-2.235a.977.977 0 0 1 .353-1.328.96.96 0 0 1 1.317.355l1.277 2.232zM128.673 99.95a25.028 25.028 0 0 1-.966 1.684l-2.21-1.29a.977.977 0 0 1-.353-1.329.957.957 0 0 1 1.316-.357l2.213 1.291zM131.577 88.085c0 .326-.007.65-.019.973h-2.551a.969.969 0 0 1-.963-.973c0-.537.432-.973.963-.973h2.551c.012.323.019.647.019.973zM128.673 76.22l-2.213 1.292a.96.96 0 0 1-1.316-.357.977.977 0 0 1 .352-1.33l2.21-1.29c.344.548.665 1.11.967 1.686zM119.814 66.565l-1.277 2.232a.96.96 0 0 1-1.317.356.977.977 0 0 1-.353-1.329l1.278-2.235c.57.305 1.127.63 1.669.976z"/>
            </g>
            <path fill="#6EB1E1" d="M110.25 88.085c0 2.15-1.725 3.892-3.853 3.892-2.129 0-3.854-1.742-3.854-3.892s1.725-3.892 3.854-3.892c2.128 0 3.854 1.743 3.854 3.892z"/>
        </g>
    </g>
</svg>
