<svg xmlns="http://www.w3.org/2000/svg" width="53" height="60" viewBox="0 0 53 60">
    <g fill="none" fill-rule="nonzero">
        <path fill="#FFE1A0" d="M39.833 60H2.915A2.91 2.91 0 0 1 0 57.097V7.742A2.91 2.91 0 0 1 2.915 4.84h36.918a2.91 2.91 0 0 1 2.915 2.903v49.355A2.91 2.91 0 0 1 39.833 60z"/>
        <path fill="#FFF" d="M37.89 54.194H4.858a.97.97 0 0 1-.972-.968V9.678a.97.97 0 0 1 .972-.968H37.89a.97.97 0 0 1 .971.968v43.548a.97.97 0 0 1-.971.968z"/>
        <path fill="#EDEBED" d="M31.09 3.87h-4.96c-.472 0-.857-.342-.954-.802A3.885 3.885 0 0 0 21.374 0a3.884 3.884 0 0 0-3.803 3.068c-.097.46-.48.803-.953.803h-4.96a.97.97 0 0 0-.971.968v3.87a.97.97 0 0 0 .972.968h19.43a.97.97 0 0 0 .972-.968V4.84a.97.97 0 0 0-.972-.968zm-9.716.969a.97.97 0 0 1-.972-.968.97.97 0 0 1 .972-.968.97.97 0 0 1 .971.968.97.97 0 0 1-.971.968z"/>
        <path fill="#FF8087" d="M20.402 20.322h-2.914V17.42a.97.97 0 0 0-.972-.967h-1.943a.97.97 0 0 0-.971.967v2.903h-2.915a.97.97 0 0 0-.971.968v1.936a.97.97 0 0 0 .971.967h2.915v2.904a.97.97 0 0 0 .971.968h1.943a.97.97 0 0 0 .972-.968v-2.904h2.914a.97.97 0 0 0 .972-.967V21.29a.97.97 0 0 0-.972-.968zM30.118 19.355h-3.886a.969.969 0 0 1-.972-.968.97.97 0 0 1 .972-.968h3.886a.97.97 0 0 1 .971.968.97.97 0 0 1-.971.968z"/>
        <path fill="#E6646E" d="M33.032 23.226h-6.8a.97.97 0 0 1-.972-.968c0-.534.434-.967.972-.967h6.8c.537 0 .972.433.972.967a.97.97 0 0 1-.972.968z"/>
        <path fill="#EDEBED" d="M33.032 27.097h-6.8a.97.97 0 0 1-.972-.968c0-.535.434-.968.972-.968h6.8c.537 0 .972.433.972.968a.97.97 0 0 1-.972.968z"/>
        <path fill="#867E88" d="M30.118 34.839H9.715a.97.97 0 0 1-.971-.968.97.97 0 0 1 .971-.968h20.403a.97.97 0 0 1 .971.968.97.97 0 0 1-.971.968z"/>
        <path fill="#9C969E" d="M33.032 38.71H9.715a.97.97 0 0 1-.971-.968.97.97 0 0 1 .971-.968h23.317c.537 0 .972.433.972.968a.97.97 0 0 1-.972.968zM19.43 46.452H9.716a.97.97 0 0 1-.971-.968.97.97 0 0 1 .971-.968h9.716a.97.97 0 0 1 .971.968.97.97 0 0 1-.971.968z"/>
        <path fill="#867E88" d="M33.032 42.58H16.516a.97.97 0 0 1-.971-.967.97.97 0 0 1 .971-.968h16.516c.537 0 .972.433.972.968a.97.97 0 0 1-.972.968zM12.63 42.58H9.715a.97.97 0 0 1-.971-.967.97.97 0 0 1 .971-.968h2.915a.97.97 0 0 1 .972.968.97.97 0 0 1-.972.968z"/>
        <path fill="#DBD9DC" d="M31.09 9.678H11.658a.97.97 0 0 1-.972-.968v-.968h21.374v.968a.97.97 0 0 1-.972.968z"/>
        <path fill="#E6646E" d="M9.715 22.258v.968a.97.97 0 0 0 .972.967h2.915v2.904a.97.97 0 0 0 .971.968h.972v-3.872a1.94 1.94 0 0 0-1.943-1.935H9.715z"/>
        <path fill="#F7D291" d="M6.8 58.065c-2.682 0-4.857-2.167-4.857-4.839V5.004A2.911 2.911 0 0 0 0 7.742v49.355A2.91 2.91 0 0 0 2.915 60h36.918c1.267 0 2.348-.81 2.749-1.935H6.8z"/>
        <g>
            <path fill="#FFCEBF" d="M42.605 44.683l-5.085 5.516c-.363.423-1.025.553-1.632.308-.607-.245-.993-.8-.96-1.355l.173-7.5 4.681-.785.28-.057 2.543 3.873z"/>
            <path fill="#FFA78F" d="M40.062 40.81l2.543 3.873-5.085 5.516c-.363.423-1.025.553-1.632.308l3.894-9.64.28-.057z"/>
            <path fill="#4A696F" d="M52.415 21.514l-.495 1.224-5.116.75-.065.002-3.094-4.096.494-1.223c.82-2.031 3.33-2.924 5.62-1.998 2.29.925 3.476 3.31 2.656 5.341z"/>
            <path fill="#384949" d="M52.415 21.514l-.495 1.224-5.116.75 2.956-7.315c2.29.925 3.475 3.31 2.655 5.341z"/>
            <path fill="#979FEF" d="M43.645 19.394l-8.436 20.878c-.049.122-.08.28-.075.425l-.033.954 7.504 3.032.64-.71c.104-.1.19-.235.24-.357l8.435-20.878-8.275-3.344z"/>
            <path fill="#7984EB" d="M51.92 22.738l-8.435 20.878c-.05.122-.136.258-.241.358l-.64.709-3.751-1.516 8.93-22.101 4.137 1.672z"/>
        </g>
    </g>
</svg>
