<svg xmlns="http://www.w3.org/2000/svg" width="90" height="79" viewBox="0 0 90 79">
  <g fill="none">
    <path fill="#DE5E47" d="M33.4479335,17.2184323 C33.7194299,16.4616627 34.4806888,15.9956295 35.2785036,16.1001663 C36.075677,16.2040618 36.6930641,16.8492399 36.7616865,17.6502613 L39.4946081,49.5810214 L44.612209,31.1340143 C44.8214964,30.3800238 45.5126366,29.8614014 46.2980523,29.8814964 C47.0802613,29.8988124 47.7510926,30.4445843 47.9268171,31.2071259 L50.7766746,43.5704751 L55.6424466,23.1265796 C55.8329216,22.3266271 56.5666033,21.7787173 57.3866508,21.8142043 C58.207981,21.8528979 58.8854394,22.4707126 58.99981,23.2849881 L62.6312352,49.1737767 L64.2593587,43.912304 C64.4810451,43.196152 65.1435392,42.7076722 65.8932542,42.7076722 L84.1897625,42.7076722 C86.8752257,38.6642993 88.7861758,34.6386698 89.4219477,30.7665321 C90.8174822,22.1964371 89.456152,15.1285511 85.3666033,9.76254157 C81.2370784,4.34543943 74.964228,1.25465558 66.1718052,0.312969121 C65.3269596,0.228099762 64.5550119,0.188123515 63.789905,0.188123515 C57.5672922,0.188123515 51.2933729,2.50225653 46.4718527,6.41650831 C41.6571734,2.50225653 35.377696,0.188123515 29.1670546,0.188123515 C28.3942518,0.188123515 27.6291449,0.228099762 26.7785273,0.312969121 C17.9863183,1.25465558 11.7068409,4.34543943 7.58266033,9.76254157 C3.49418052,15.1287648 2.1315677,22.1964371 3.52752969,30.7665321 C4.17334917,34.69981 6.13325416,38.7902138 8.88370546,42.8960095 L24.2347981,42.8960095 L33.4479335,17.2184323 Z"/>
    <path fill="#DE5E47" d="M63.6351306,57.4999525 C63.398266,58.2652732 62.660095,58.764228 61.8639905,58.6990261 C61.0657482,58.6346793 60.4188599,58.0249881 60.307696,57.2318765 L56.8716627,32.7354157 L52.4139905,51.4648219 C52.2307838,52.2354869 51.5419952,52.7789074 50.75038,52.7791211 C50.7482423,52.7791211 50.7463183,52.7791211 50.7443943,52.7791211 C49.95,52.776342 49.2622803,52.2269359 49.0837767,51.4530641 L46.1073634,38.5407363 L40.2494537,59.655677 C40.042304,60.4015439 39.3635629,60.9086223 38.6027316,60.9088361 C38.549715,60.9088361 38.4966983,60.9062708 38.4432542,60.9013539 C37.6191449,60.8248219 36.9681948,60.1689549 36.8976485,59.3442043 L34.021924,25.7472684 L27.0480998,45.183848 C26.8043943,45.8632304 26.160285,46.3164371 25.438361,46.3164371 L11.3468409,46.3164371 C17.0335154,53.7259382 24.8267458,61.0586936 31.6558432,67.4831116 C31.6558432,67.4831116 37.4757007,73.3256295 39.2222565,74.8229216 C40.5404038,75.9516627 43.3874822,78.2202613 46.4778385,78.2202613 C49.5637055,78.2202613 52.4174109,75.9516627 53.7276485,74.8229216 C55.4744181,73.3254157 61.2940618,67.4831116 61.2940618,67.4831116 C68.1804513,61.0050356 76.0476485,53.6013064 81.7465083,46.1280998 L67.1545368,46.1280998 L63.6351306,57.4999525 Z"/>
    <path fill="#FFF" d="M87.9107601,42.7076722 L84.1899762,42.7076722 L65.8934679,42.7076722 C65.143753,42.7076722 64.4814727,43.196152 64.2595724,43.912304 L62.6314489,49.1737767 L59.0000238,23.2849881 C58.8856532,22.4707126 58.2081948,21.8528979 57.3868646,21.8142043 C56.5668171,21.7787173 55.8329216,22.3266271 55.6426603,23.1265796 L50.7768884,43.5704751 L47.9270309,31.2071259 C47.7513064,30.4445843 47.0804751,29.8985986 46.298266,29.8814964 C45.5128504,29.8614014 44.8217102,30.3800238 44.6124228,31.1340143 L39.4948219,49.5810214 L36.7619002,17.6502613 C36.6934917,16.8492399 36.0761045,16.2040618 35.2787173,16.1001663 C34.4809026,15.9956295 33.7196437,16.4616627 33.4481473,17.2184323 L24.2350119,42.8960095 L8.88391924,42.8960095 L1.71021378,42.8960095 C0.765748219,42.8960095 0,43.6617577 0,44.6062233 C0,45.5506888 0.765748219,46.3164371 1.71021378,46.3164371 L11.3468409,46.3164371 L25.438361,46.3164371 C26.1600713,46.3164371 26.8043943,45.8632304 27.0480998,45.183848 L34.021924,25.7472684 L36.8976485,59.3442043 C36.9681948,60.1689549 37.6191449,60.8246081 38.4432542,60.9013539 C38.4966983,60.9062708 38.549715,60.9088361 38.6027316,60.9088361 C39.3637767,60.9088361 40.042304,60.4015439 40.2494537,59.655677 L46.1073634,38.5407363 L49.0837767,51.4530641 C49.2622803,52.2271496 49.95,52.776342 50.7443943,52.7791211 C50.7465321,52.7791211 50.7484561,52.7791211 50.75038,52.7791211 C51.5419952,52.7791211 52.2307838,52.2354869 52.4139905,51.4648219 L56.8716627,32.7354157 L60.307696,57.2318765 C60.4190736,58.0249881 61.0657482,58.6346793 61.8639905,58.6990261 C62.6603088,58.764228 63.398266,58.2652732 63.6351306,57.4999525 L67.154323,46.1280998 L81.7462945,46.1280998 L87.9107601,46.1280998 C88.8552257,46.1280998 89.6209739,45.3623515 89.6209739,44.417886 C89.6209739,43.4734204 88.8552257,42.7076722 87.9107601,42.7076722 Z"/>
  </g>
</svg>
