<svg xmlns="http://www.w3.org/2000/svg" width="52" height="59" viewBox="0 0 52 59">
    <g fill="none" fill-rule="nonzero">
        <path fill="#FEA832" d="M42.326 22.395a1.546 1.546 0 0 0-1.358-.85H10.57c-.575.008-1.099.336-1.36.852L.575 39.755l.936 3.035h48.637l.817-3.035-8.638-17.36z"/>
        <path fill="#BF6015" d="M3.95 39.755L11.5 24.58h28.538l7.55 15.174z"/>
        <path fill="#DBE9FD" d="M37.203 5.665H14.435c-2.356.004-4.264 1.924-4.266 4.291v29.555c0 2.365 1.914 4.29 4.268 4.29h22.768c2.357-.002 4.266-1.922 4.268-4.29V9.956c-.002-2.368-1.911-4.288-4.268-4.29h-.002z"/>
        <path fill="#6BBAE2" d="M28.716 20.94h-5.693c-.378 0-.74-.15-1.008-.418a1.434 1.434 0 0 1-.418-1.012v-5.244H17.33a1.423 1.423 0 0 1-1.272-.79 1.436 1.436 0 0 1 .134-1.497L24.73.542c.537-.72 1.739-.72 2.278 0L35.55 11.98c.323.433.375 1.013.133 1.498-.241.484-.734.79-1.273.79H30.14v5.245c0 .379-.151.742-.418 1.01a1.42 1.42 0 0 1-1.007.418v-.002z"/>
        <path fill="#A1AAB3" d="M34.316 26.605h-2.3a1.417 1.417 0 0 1 0-2.833h2.3a1.417 1.417 0 1 1 0 2.833zM26.404 26.636h-9.07a1.421 1.421 0 0 1-1.295-.692 1.436 1.436 0 0 1 0-1.473c.271-.453.769-.72 1.294-.692h9.073a1.421 1.421 0 0 1 1.294.692c.271.453.271 1.02 0 1.473-.27.454-.768.72-1.294.692h-.002zm8.003 5.716H17.333a1.421 1.421 0 0 1-1.294-.692 1.436 1.436 0 0 1 0-1.473c.271-.454.769-.72 1.294-.692H34.41a1.421 1.421 0 0 1 1.294.692c.27.453.27 1.02 0 1.473-.271.453-.769.72-1.294.692h-.002zm0 5.713H17.333a1.421 1.421 0 0 1-1.294-.692 1.436 1.436 0 0 1 0-1.473c.271-.453.769-.72 1.294-.692H34.41a1.421 1.421 0 0 1 1.294.692c.27.454.27 1.02 0 1.473-.271.454-.769.72-1.294.692h-.002z"/>
        <path fill="#FEA832" d="M50.964 39.755H.574c-.272.517-.574 1-.574 1.548v12.21a4.558 4.558 0 0 0 1.325 3.22 4.513 4.513 0 0 0 3.205 1.332h42.478a4.513 4.513 0 0 0 3.205-1.332 4.558 4.558 0 0 0 1.325-3.22v-12.21c0-.548-.303-1.031-.574-1.548z"/>
        <path fill="#BF6015" d="M18.12 39.755v4.552a4.558 4.558 0 0 0 1.324 3.22 4.513 4.513 0 0 0 3.205 1.332h6.24a4.513 4.513 0 0 0 3.205-1.331 4.558 4.558 0 0 0 1.325-3.22v-4.553h-15.3z"/>
    </g>
</svg>
