<svg xmlns="http://www.w3.org/2000/svg" width="60" height="60" viewBox="0 0 60 60">
    <g fill="none" fill-rule="evenodd">
        <circle cx="30" cy="30" r="30" fill="#5D3981"/>
        <g fill="#FFF" fill-rule="nonzero">
            <path stroke="#FFF" stroke-width="2" d="M34.409 17.804c.827 1.012 1.237 2.206 1.237 3.581 0 .984-.283 1.93-.847 2.845a6.955 6.955 0 0 1-1.226 1.496l-1.695 1.665c-1.626 1.588-2.676 2.995-3.156 4.226-.226.579-.413 1.558-.559 2.938a1.734 1.734 0 0 0 1.725 1.917h.14c.97 0 1.784-.73 1.888-1.694.122-1.126.276-1.9.462-2.319.402-.906 1.281-2.01 2.638-3.319 1.865-1.798 3.103-3.161 3.716-4.088.614-.926.923-2.134.923-3.624 0-2.456-.836-4.476-2.51-6.058C35.47 13.788 33.243 13 30.46 13c-3.008 0-5.373.923-7.097 2.77-.645.69-1.314 1.788-1.802 3.127-.204.559-.382 1.316-.536 2.272a1.659 1.659 0 0 0 1.638 1.922h.22c.937 0 1.733-.683 1.876-1.61.194-1.255.413-2.116.657-2.584.903-1.74 2.534-2.612 4.894-2.612 1.906 0 3.274.506 4.099 1.519z"/>
            <path d="M27 41h6.217v6.459H27z"/>
        </g>
    </g>
</svg>
