<svg xmlns="http://www.w3.org/2000/svg" width="60" height="60" viewBox="0 0 60 60">
    <g fill="none" fill-rule="nonzero">
        <path fill="#FFC100" d="M0 29.95C0 13.407 13.409 0 29.949 0s29.95 13.408 29.95 29.95c0 16.54-13.41 29.948-29.95 29.948S0 46.489 0 29.949z"/>
        <g fill="#FFF">
            <path d="M51.7 20.783c-1.25.002-2.499.006-3.748.009-2.81-6.3-8.324-10.85-15.29-11.941-7.76-1.216-15.189 2.389-19.618 8.73-1.967 2.816 2.656 5.452 4.607 2.66 6.074-8.697 19.045-7.91 24.375.566l-3.462.008a.814.814 0 0 0-.694.347c-.232.249-.32.612-.077.988l6.593 10.231a.898.898 0 0 0 1.533-.005l6.542-10.264c.36-.565-.115-1.331-.762-1.33zM42.296 39.504c-6.027 8.63-18.846 7.923-24.252-.368l3.318-.008a.814.814 0 0 0 .693-.346c.233-.249.321-.613.078-.99l-6.592-10.23a.897.897 0 0 0-1.533.005L7.465 37.83c-.36.566.115 1.332.762 1.33l3.864-.01c2.837 6.196 8.303 10.664 15.195 11.744 7.76 1.216 15.189-2.389 19.617-8.73 1.967-2.817-2.657-5.453-4.607-2.66z"/>
        </g>
    </g>
</svg>
