<?xml version="1.0" encoding="UTF-8"?>
<svg width="60px" height="48px" viewBox="0 0 60 48" version="1.1" xmlns="http://www.w3.org/2000/svg" xmlns:xlink="http://www.w3.org/1999/xlink">
    <!-- Generator: sketchtool 42 (36781) - http://www.bohemiancoding.com/sketch -->
    <title>43B36D73-83EA-42C8-9037-0F9BFFFE503E</title>
    <desc>Created with sketchtool.</desc>
    <defs></defs>
    <g id="Benefits" stroke="none" stroke-width="1" fill="none" fill-rule="evenodd">
        <g id="View-Benefits" transform="translate(-339.000000, -316.000000)" fill-rule="nonzero">
            <g id="restaurant" transform="translate(339.000000, 316.000000)">
                <circle id="Oval" fill="#FFFFFF" cx="29.5309403" cy="28.7310284" r="18.4500991"></circle>
                <g id="Group" transform="translate(14.666373, 0.000000)">
                    <circle id="Oval" fill="#F0F1F1" cx="14.8645673" cy="28.7310284" r="14.7601189"></circle>
                    <path d="M35.1596565,15.0593922 C35.1596565,8.73838362 38.7307201,2.95983264 44.3846069,0.133186523 L44.3846069,28.7308302 L35.1596565,28.7308302 L35.1596565,15.0593922 Z" id="Shape" fill="#E2E4E5"></path>
                </g>
                <path d="M51.6710196,15.9819863 C51.6710196,10.380621 54.4790355,5.2109227 59.05098,2.13712839 L59.05098,0.133384717 C53.396895,2.96003083 49.8260295,8.73858181 49.8260295,15.0595904 L49.8260295,28.7310284 L51.6710196,28.7310284 L51.6710196,15.9819863 Z" id="Shape" fill="#FFFFFF"></path>
                <path d="M10.1584453,3.8233649 C9.6492843,3.8233649 9.23585113,4.23659987 9.23585113,4.74595904 L9.23585113,8.89713719 C9.23585113,9.66097776 8.61589958,10.2809293 7.85205902,10.2809293 C7.08821845,10.2809293 6.4682669,9.66097776 6.4682669,8.89713719 L6.4682669,4.74595904 C6.4682669,4.23679806 6.05503193,3.8233649 5.54567276,3.8233649 C5.03631359,3.8233649 4.62307862,4.23659987 4.62307862,4.74595904 L4.62307862,8.89713719 C4.62307862,9.66097776 4.00312706,10.2809293 3.2392865,10.2809293 C2.47544594,10.2809293 1.85549438,9.66097776 1.85549438,8.89713719 L1.85549438,4.74595904 C1.85549438,4.23679806 1.44225941,3.8233649 0.932900242,3.8233649 C0.423739264,3.8233649 0.0103061,4.23659987 0.0103061,4.74595904 L0.0103061,13.9709095 C0.0103061,16.3444836 1.50746532,18.3638846 3.60713499,19.1499229 L2.0850033,43.4984805 C1.96053733,45.4946928 3.54807311,47.1811275 5.54527637,47.1811275 C7.54525435,47.1811275 9.13021361,45.4921163 9.00475666,43.4984805 L7.48262497,19.1499229 C9.58308743,18.3638846 11.0804448,16.3446818 11.0804448,13.9709095 L11.0804448,4.74595904 C11.0808412,4.23659987 10.6676063,3.8233649 10.1584453,3.8233649 Z" id="Shape" fill="#F0F1F1"></path>
                <path d="M52.5936137,28.7310284 L52.5936137,43.9523453 C52.5936137,45.7354988 54.0392425,47.1811275 55.8223959,47.1811275 C57.6055494,47.1811275 59.0511782,45.7354988 59.0511782,43.9523453 L59.0511782,28.7310284 L52.5936137,28.7310284 Z M55.8223959,45.3359392 C55.313235,45.3359392 54.8998018,44.9227043 54.8998018,44.4133451 C54.8998018,43.9041841 55.3130368,43.4907509 55.8223959,43.4907509 C56.3315569,43.4907509 56.7449901,43.9039859 56.7449901,44.4133451 C56.7447919,44.9227043 56.3315569,45.3359392 55.8223959,45.3359392 Z" id="Shape" fill="#84462D"></path>
                <path d="M52.5936137,43.9523453 C52.5936137,45.7354988 54.0392425,47.1811275 55.8223959,47.1811275 C55.8325039,47.1811275 55.841819,47.1783528 55.8509359,47.1783528 L55.8509359,45.330588 C55.840828,45.330588 55.8325039,45.3361374 55.8223959,45.3361374 C55.313235,45.3361374 54.8998018,44.9229024 54.8998018,44.4135433 C54.8998018,43.9043823 55.3130368,43.4909491 55.8223959,43.4909491 C55.8325039,43.4909491 55.840828,43.4964986 55.8509359,43.4964986 L55.8509359,28.7308302 L52.5936137,28.7308302 L52.5936137,43.9523453 Z" id="Shape" fill="#9C6144"></path>
                <path d="M29.5309403,10.2809293 C19.3409822,10.2809293 11.0808412,18.5410702 11.0808412,28.7310284 C11.0808412,33.7790355 13.1121339,38.348998 16.3962123,41.6802466 L42.4799604,15.5964986 C39.1489099,12.312222 34.5789474,10.2809293 29.5309403,10.2809293 Z" id="Shape" fill="#FFFFFF"></path>
                <path d="M29.5309403,13.9709095 C21.379608,13.9709095 14.7708214,20.5796961 14.7708214,28.7310284 C14.7708214,32.7595243 16.3888791,36.4070909 19.0060339,39.070425 L39.8713279,18.205131 C37.2079938,15.5889672 33.5594362,13.9709095 29.5309403,13.9709095 Z" id="Shape" fill="#F0F1F1"></path>
                <path d="M5.53298833,3.82613962 C5.03016957,3.8334728 4.62347501,4.24135653 4.62347501,4.74595904 L4.62347501,8.89713719 C4.62347501,9.66196873 4.00451442,10.2809293 3.23968289,10.2809293 C2.47584233,10.2809293 1.85589077,9.66196873 1.85589077,8.89713719 L1.85589077,4.74595904 C1.85589077,4.23679806 1.44344858,3.8233649 0.933296631,3.8233649 C0.424135653,3.8233649 0.0107024884,4.23659987 0.0107024884,4.74595904 L0.0107024884,13.9709095 C0.0107024884,16.3454746 1.50885268,18.3638846 3.60753138,19.1499229 L2.08639066,43.4984805 C1.96192469,45.4828011 3.53201938,47.1728033 5.53279013,47.1801365 L5.53279013,3.82613962 L5.53298833,3.82613962 Z" id="Shape" fill="#FFFFFF"></path>
            </g>
        </g>
    </g>
</svg>