<?xml version="1.0" encoding="UTF-8"?>
<svg width="15px" height="15px" viewBox="0 0 15 15" version="1.1" xmlns="http://www.w3.org/2000/svg" xmlns:xlink="http://www.w3.org/1999/xlink">
    <!-- Generator: Sketch 48.1 (47250) - http://www.bohemiancoding.com/sketch -->
    <title>chains</title>
    <desc>Created with Sketch.</desc>
    <defs></defs>
    <g id="[VD]-Announcements-3/6-(Desktop)" stroke="none" stroke-width="1" fill="none" fill-rule="evenodd" transform="translate(-1150.000000, -432.000000)">
        <g id="chains" transform="translate(1150.000000, 432.000000)" fill-rule="nonzero">
            <g id="Group" fill="#6FC5D6">
                <path d="M2.43082031,7.90839844 L0.961289062,9.37792969 C-0.320419922,10.6596387 -0.320419922,12.7569727 0.961289062,14.0387109 C2.24299805,15.3204492 4.34033203,15.3204199 5.62207031,14.0387109 L7.09160156,12.5691797 C8.37331055,11.2874707 8.37331055,9.19013672 7.09160156,7.90839844 C5.80989258,6.62666016 3.71255859,6.62668945 2.43082031,7.90839844 Z M6.15946289,11.637041 L4.68993164,13.1065723 C3.91895508,13.8775488 2.66443359,13.8775488 1.89345703,13.1065723 C1.12248047,12.3355957 1.12248047,11.0810742 1.89345703,10.3100977 L3.36298828,8.84056641 C4.13396484,8.06958984 5.38848633,8.06958984 6.15946289,8.84056641 C6.93043945,9.61154297 6.93043945,10.8660352 6.15946289,11.637041 Z" id="Shape"></path>
                <path d="M9.37795898,0.961289062 L7.90842773,2.43082031 C6.62671875,3.7125293 6.62671875,5.80986328 7.90842773,7.09160156 C9.19013672,8.37333984 11.2874707,8.37331055 12.569209,7.09160156 L14.0387402,5.62207031 C15.3204492,4.34036133 15.3204492,2.24302734 14.0387402,0.961289062 C12.7570313,-0.320449219 10.659668,-0.320419922 9.37795898,0.961289062 Z M13.1065723,4.68993164 L11.637041,6.15946289 C10.8660645,6.93043945 9.61154297,6.93043945 8.84056641,6.15946289 C8.06958984,5.38848633 8.06958984,4.13396484 8.84056641,3.36298828 L10.3100977,1.89345703 C11.0810742,1.12248047 12.3355957,1.12248047 13.1065723,1.89345703 C13.8775781,2.66443359 13.8775781,3.91892578 13.1065723,4.68993164 Z" id="Shape"></path>
            </g>
            <path d="M9.8170242,5.06648232 C10.0609919,4.82248724 10.0609919,4.42693586 9.8170242,4.18299631 C9.57302869,3.93900123 9.17747663,3.93900123 8.93353666,4.18299631 C8.9172092,4.19932374 4.19485347,8.92167127 4.18299663,8.93352809 C3.93900112,9.17752318 3.93900112,9.57307455 4.18299663,9.8170141 C4.42696437,10.0609814 4.8225442,10.0610092 5.06648417,9.8170141 C5.07781343,9.80571263 9.79991924,5.08361501 9.8170242,5.06648232 Z" id="Shape" fill="#609399"></path>
        </g>
    </g>
</svg>