<svg xmlns="http://www.w3.org/2000/svg" width="142" height="141" viewBox="0 0 142 141">
    <g fill="none" fill-rule="nonzero">
        <path fill="#E0E5EE" d="M139.064 16.82H123.08a2.216 2.216 0 0 0-2.216 2.215v7.103a4.365 4.365 0 0 1-4.36 4.36 4.366 4.366 0 0 1-4.361-4.36v-7.103a2.216 2.216 0 0 0-2.216-2.216H31.505a2.216 2.216 0 0 0-2.216 2.216v7.103a4.366 4.366 0 0 1-4.36 4.36 4.366 4.366 0 0 1-4.36-4.36v-7.103a2.216 2.216 0 0 0-2.217-2.216H2.216A2.216 2.216 0 0 0 0 19.035V126.13c0 1.225.992 2.216 2.216 2.216H76.43a2.215 2.215 0 0 0 2.003-3.163c-2.393-5.055-3.534-10.478-3.392-16.118.233-9.207 4.004-17.866 10.618-24.382 6.614-6.516 15.33-10.159 24.54-10.259l.387-.002a35.54 35.54 0 0 1 26.807 12.188 2.215 2.215 0 0 0 3.885-1.457v-66.12a2.215 2.215 0 0 0-2.215-2.215z"/>
        <path fill="#C9CED6" d="M139.064 16.82H123.08a2.216 2.216 0 0 0-2.216 2.215v7.103a4.365 4.365 0 0 1-4.36 4.36 4.366 4.366 0 0 1-4.361-4.36v-7.103a2.216 2.216 0 0 0-2.216-2.216H31.505a2.216 2.216 0 0 0-2.216 2.216v7.103a4.366 4.366 0 0 1-4.36 4.36 4.366 4.366 0 0 1-4.36-4.36v-7.103a2.216 2.216 0 0 0-2.217-2.216H2.216A2.216 2.216 0 0 0 0 19.035v32.804h141.28V19.035a2.216 2.216 0 0 0-2.216-2.216z"/>
        <path fill="#16325C" d="M139.14 16.82H2.292a2.216 2.216 0 0 0-2.216 2.215v23.984c0 1.224.992 2.216 2.216 2.216H139.14a2.216 2.216 0 0 0 2.216-2.216V19.035a2.216 2.216 0 0 0-2.216-2.216z"/>
        <g fill="#D3D8E0">
            <path d="M24.929.02c-4.849 0-8.793 3.944-8.793 8.791v17.327c0 4.848 3.944 8.792 8.793 8.792 4.848 0 8.792-3.944 8.792-8.792V8.81c0-4.848-3.944-8.792-8.792-8.792zM116.503.02c-4.848 0-8.792 3.944-8.792 8.791v17.327c0 4.848 3.944 8.792 8.792 8.792s8.792-3.944 8.792-8.792V8.81c0-4.848-3.944-8.792-8.792-8.792z"/>
        </g>
        <g>
            <path fill="#FF6465" d="M111.581 140.736c16.569 0 30-13.432 30-30 0-16.569-13.431-30-30-30-16.568 0-30 13.431-30 30 0 16.569 13.432 30 30 30z"/>
            <path fill="#FFF" d="M118.448 110.71l8.095-8.095a1.507 1.507 0 0 0 0-2.13l-4.762-4.762a1.507 1.507 0 0 0-2.131 0l-8.095 8.094-8.094-8.094a1.507 1.507 0 0 0-2.13 0l-4.763 4.762a1.507 1.507 0 0 0 0 2.13l8.095 8.095-8.095 8.094a1.507 1.507 0 0 0 0 2.131l4.762 4.762a1.507 1.507 0 0 0 2.13 0l8.095-8.094 8.095 8.094a1.507 1.507 0 0 0 2.13 0l4.763-4.762a1.507 1.507 0 0 0 0-2.13l-8.095-8.095z"/>
        </g>
    </g>
</svg>
