<svg xmlns="http://www.w3.org/2000/svg" width="142" height="140" viewBox="0 0 142 140">
    <g fill="none" fill-rule="nonzero">
        <path fill="#E0E5EE" d="M139.064 16.82H123.08a2.216 2.216 0 0 0-2.216 2.215v7.103a4.365 4.365 0 0 1-4.36 4.36 4.366 4.366 0 0 1-4.361-4.36v-7.103a2.216 2.216 0 0 0-2.216-2.216H31.505a2.216 2.216 0 0 0-2.216 2.216v7.103a4.366 4.366 0 0 1-4.36 4.36 4.366 4.366 0 0 1-4.36-4.36v-7.103a2.216 2.216 0 0 0-2.217-2.216H2.216A2.216 2.216 0 0 0 0 19.035V126.13c0 1.225.992 2.216 2.216 2.216H76.43a2.215 2.215 0 0 0 2.003-3.163c-2.393-5.055-3.534-10.478-3.392-16.118.233-9.207 4.004-17.866 10.618-24.382 6.614-6.516 15.33-10.159 24.54-10.259l.387-.002a35.54 35.54 0 0 1 26.807 12.188 2.215 2.215 0 0 0 3.885-1.457v-66.12a2.215 2.215 0 0 0-2.215-2.215z"/>
        <path fill="#C9CED6" d="M139.064 16.82H123.08a2.216 2.216 0 0 0-2.216 2.215v7.103a4.365 4.365 0 0 1-4.36 4.36 4.366 4.366 0 0 1-4.361-4.36v-7.103a2.216 2.216 0 0 0-2.216-2.216H31.505a2.216 2.216 0 0 0-2.216 2.216v7.103a4.366 4.366 0 0 1-4.36 4.36 4.366 4.366 0 0 1-4.36-4.36v-7.103a2.216 2.216 0 0 0-2.217-2.216H2.216A2.216 2.216 0 0 0 0 19.035v32.804h141.28V19.035a2.216 2.216 0 0 0-2.216-2.216z"/>
        <path fill="#16325C" d="M139.14 16.82H2.292a2.216 2.216 0 0 0-2.216 2.215v23.984c0 1.224.992 2.216 2.216 2.216H139.14a2.216 2.216 0 0 0 2.216-2.216V19.035a2.216 2.216 0 0 0-2.216-2.216z"/>
        <g fill="#D3D8E0">
            <path d="M24.929.02c-4.849 0-8.793 3.944-8.793 8.791v17.327c0 4.848 3.944 8.792 8.793 8.792 4.848 0 8.792-3.944 8.792-8.792V8.81c0-4.848-3.944-8.792-8.792-8.792zM116.503.02c-4.848 0-8.792 3.944-8.792 8.791v17.327c0 4.848 3.944 8.792 8.792 8.792s8.792-3.944 8.792-8.792V8.81c0-4.848-3.944-8.792-8.792-8.792z"/>
        </g>
        <g>
            <path fill="#4A90E2" d="M111.399 81c16.237 0 29.398 13.161 29.398 29.398 0 16.237-13.161 29.4-29.398 29.4-16.237 0-29.398-13.163-29.398-29.4S95.162 81 111.399 81z"/>
            <path fill="#FFF" d="M123.41 110.846h-10.133V98.76c0-1.078-1.656-1.95-2.732-1.95-1.076 0-2.732.872-2.732 1.95v15.598a1.95 1.95 0 0 0 1.95 1.95h13.647c1.079 0 1.95-1.654 1.95-2.732 0-1.073-.871-2.729-1.95-2.729z"/>
            <path fill="#005CAD" d="M111.399 81C95.162 81 82 94.161 82 110.398c0 16.237 13.16 29.4 29.398 29.4 16.237 0 29.398-13.163 29.398-29.4S127.636 81 111.399 81zm.296 52.015c-12.307 0-22.32-10.013-22.32-22.321 0-12.306 10.013-22.319 22.32-22.319 12.306 0 22.319 10.013 22.319 22.319 0 12.308-10.013 22.32-22.32 22.32z"/>
        </g>
    </g>
</svg>
