<svg xmlns="http://www.w3.org/2000/svg" width="142" height="139" viewBox="0 0 142 139">
    <g fill="none" fill-rule="nonzero">
        <path fill="#E0E5EE" d="M139.064 16.82H123.08a2.216 2.216 0 0 0-2.216 2.215v7.103a4.365 4.365 0 0 1-4.36 4.36 4.366 4.366 0 0 1-4.361-4.36v-7.103a2.216 2.216 0 0 0-2.216-2.216H31.505a2.216 2.216 0 0 0-2.216 2.216v7.103a4.366 4.366 0 0 1-4.36 4.36 4.366 4.366 0 0 1-4.36-4.36v-7.103a2.216 2.216 0 0 0-2.217-2.216H2.216A2.216 2.216 0 0 0 0 19.035V126.13c0 1.225.992 2.216 2.216 2.216H76.43a2.215 2.215 0 0 0 2.003-3.163c-2.393-5.055-3.534-10.478-3.392-16.118.233-9.207 4.004-17.866 10.618-24.382 6.614-6.516 15.33-10.159 24.54-10.259l.387-.002a35.54 35.54 0 0 1 26.807 12.188 2.215 2.215 0 0 0 3.885-1.457v-66.12a2.215 2.215 0 0 0-2.215-2.215z"/>
        <path fill="#C9CED6" d="M139.064 16.82H123.08a2.216 2.216 0 0 0-2.216 2.215v7.103a4.365 4.365 0 0 1-4.36 4.36 4.366 4.366 0 0 1-4.361-4.36v-7.103a2.216 2.216 0 0 0-2.216-2.216H31.505a2.216 2.216 0 0 0-2.216 2.216v7.103a4.366 4.366 0 0 1-4.36 4.36 4.366 4.366 0 0 1-4.36-4.36v-7.103a2.216 2.216 0 0 0-2.217-2.216H2.216A2.216 2.216 0 0 0 0 19.035v32.804h141.28V19.035a2.216 2.216 0 0 0-2.216-2.216z"/>
        <path fill="#C23934" d="M139.14 16.82H2.292a2.216 2.216 0 0 0-2.216 2.215v23.984c0 1.224.992 2.216 2.216 2.216H139.14a2.216 2.216 0 0 0 2.216-2.216V19.035a2.216 2.216 0 0 0-2.216-2.216z"/>
        <g fill="#D3D8E0">
            <path d="M24.929.02c-4.849 0-8.793 3.944-8.793 8.791v17.327c0 4.848 3.944 8.792 8.793 8.792 4.848 0 8.792-3.944 8.792-8.792V8.81c0-4.848-3.944-8.792-8.792-8.792zM116.503.02c-4.848 0-8.792 3.944-8.792 8.791v17.327c0 4.848 3.944 8.792 8.792 8.792s8.792-3.944 8.792-8.792V8.81c0-4.848-3.944-8.792-8.792-8.792z"/>
        </g>
        <g>
            <path fill="#04844B" d="M110.347 80.356c-15.943 0-28.914 12.97-28.914 28.914 0 15.943 12.971 28.914 28.914 28.914 15.944 0 28.915-12.97 28.915-28.914s-12.97-28.914-28.915-28.914z"/>
            <path fill="#FFF" d="M127.326 99.797l-3.235-3.227a2.204 2.204 0 0 0-1.617-.665c-.635 0-1.174.222-1.618.665l-15.605 15.593-6.993-7.002a2.204 2.204 0 0 0-1.618-.664c-.634 0-1.173.221-1.617.664l-3.236 3.228a2.195 2.195 0 0 0-.666 1.614c0 .633.222 1.171.666 1.614l8.611 8.591 3.236 3.228c.444.443.983.665 1.617.665s1.174-.222 1.618-.665l3.235-3.228 17.222-17.183c.444-.443.666-.98.666-1.614 0-.633-.222-1.17-.666-1.614z"/>
        </g>
    </g>
</svg>
