<svg xmlns="http://www.w3.org/2000/svg" width="14" height="16" viewBox="0 0 14 16">
    <g fill="none" fill-rule="nonzero">
        <path fill="#4A90E2" d="M.998 0h8.476l4.493 4.475v10.49a.998.998 0 0 1-.998.997H.998A.998.998 0 0 1 0 14.964V.998C0 .446.447 0 .998 0z"/>
        <path fill="#FFF" d="M10.061 7.907c.168 0 .25-.145.25-.286 0-.147-.086-.288-.25-.288H9.11c-.186 0-.29.154-.29.325v2.339c0 .208.119.324.28.324.159 0 .278-.116.278-.324v-.642h.576c.178 0 .268-.147.268-.292 0-.142-.09-.283-.268-.283h-.576v-.873h.683zm-3.216-.574h-.697c-.189 0-.323.13-.323.323v2.343c0 .238.193.313.331.313h.73c.866 0 1.437-.569 1.437-1.447 0-.93-.538-1.532-1.478-1.532zm.033 2.402h-.425V7.91h.383c.58 0 .831.389.831.925 0 .502-.247.899-.789.899zM4.327 7.333h-.69c-.195 0-.304.129-.304.325v2.339c0 .208.125.324.293.324.167 0 .292-.116.292-.324v-.683h.432c.534 0 .975-.378.975-.987 0-.595-.425-.994-.998-.994zm-.011 1.432h-.398v-.882h.398c.245 0 .401.191.401.441s-.156.441-.401.441z"/>
        <path fill="#295E9B" d="M13.97 4.49h-3.478a.998.998 0 0 1-.997-.998V.01l4.474 4.48z"/>
    </g>
</svg>
