<svg xmlns="http://www.w3.org/2000/svg" width="76" height="78" viewBox="0 0 76 78">
    <g fill="none" fill-rule="nonzero">
        <path fill="#EBC84A" d="M38 78c20.987 0 38-17.46 38-39S58.987 0 38 0 0 17.46 0 39s17.013 39 38 39z"/>
        <path fill="#FFF" d="M47.488 39.5l9.968-10.231a1.939 1.939 0 0 0 0-2.693l-5.864-6.018a1.822 1.822 0 0 0-2.623 0L39 30.788l-9.97-10.23a1.822 1.822 0 0 0-2.624 0l-5.864 6.018a1.94 1.94 0 0 0 0 2.693L30.512 39.5l-9.969 10.23a1.94 1.94 0 0 0 0 2.693l5.864 6.018c.725.744 1.9.744 2.624 0L39 48.212l9.968 10.23c.725.744 1.9.744 2.623 0l5.864-6.017a1.94 1.94 0 0 0 0-2.694l-9.968-10.23z"/>
    </g>
</svg>
