<svg xmlns="http://www.w3.org/2000/svg" viewBox="0 0 85 87.71"><defs><style>.cls-1{fill:#b4c0d6;}</style></defs><title>double-grey-right-arrow</title><g id="Layer_2" data-name="Layer 2"><g id="Layer_1-2" data-name="Layer 1"><path class="cls-1" d="M50,43.86a6.12,6.12,0,0,1-1.8,4.34L10.49,85.91A6.14,6.14,0,1,1,1.8,77.23h0L35.17,43.86,1.8,10.49A6.14,6.14,0,0,1,10.49,1.8L48.2,39.51A6.12,6.12,0,0,1,50,43.86Z"/><path class="cls-1" d="M85,43.86a6.12,6.12,0,0,1-1.8,4.34L45.49,85.91a6.14,6.14,0,1,1-8.69-8.69h0L70.17,43.86,36.8,10.49A6.14,6.14,0,1,1,45.49,1.8L83.2,39.51A6.12,6.12,0,0,1,85,43.86Z"/></g></g></svg>