<svg xmlns="http://www.w3.org/2000/svg" viewBox="0 0 85 87.71"><defs><style>.cls-1{fill:#b4c0d6;}</style></defs><title>double-grey-left-arrow</title><g id="Layer_2" data-name="Layer 2"><g id="Layer_1-2" data-name="Layer 1"><path class="cls-1" d="M0,43.86a6.12,6.12,0,0,1,1.8-4.34L39.51,1.8a6.14,6.14,0,1,1,8.69,8.69h0L14.83,43.86,48.2,77.23a6.14,6.14,0,0,1-8.69,8.69h0L1.8,48.2A6.12,6.12,0,0,1,0,43.86Z"/><path class="cls-1" d="M35,43.86a6.12,6.12,0,0,1,1.8-4.34L74.51,1.8a6.14,6.14,0,1,1,8.69,8.69h0L49.83,43.86,83.2,77.23a6.14,6.14,0,0,1-8.69,8.69h0L36.8,48.2A6.12,6.12,0,0,1,35,43.86Z"/></g></g></svg>