<svg xmlns="http://www.w3.org/2000/svg" width="21" height="21" viewBox="0 0 21 21">
    <g fill="#0070D2" fill-rule="nonzero" stroke="#0070D2">
        <path d="M10.565.543C5.291.543 1 4.834 1 10.11c0 5.274 4.29 9.565 9.565 9.565 5.275 0 9.565-4.29 9.565-9.565 0-5.275-4.29-9.566-9.565-9.566zm0 18.395c-4.868 0-8.83-3.961-8.83-8.83 0-4.868 3.962-8.829 8.83-8.829 4.869 0 8.83 3.961 8.83 8.83 0 4.868-3.961 8.83-8.83 8.83z"/>
        <path d="M10.565 15.279a.368.368 0 0 0-.368.368v.735a.368.368 0 1 0 .736 0v-.735a.368.368 0 0 0-.368-.368zM10.607 4.181h-.043c-.778 0-1.51.3-2.065.847a2.922 2.922 0 0 0-.877 2.096.368.368 0 1 0 .736 0c0-.596.233-1.154.657-1.572.424-.418.99-.65 1.582-.635 1.163.016 2.159 1.012 2.175 2.175A2.197 2.197 0 0 1 11.76 8.98c-.978.631-1.563 1.747-1.563 2.984v1.046a.368.368 0 1 0 .736 0v-1.046c0-.971.47-1.878 1.226-2.366a2.929 2.929 0 0 0 1.349-2.516 2.963 2.963 0 0 0-2.901-2.901z"/>
    </g>
</svg>
