<svg xmlns="http://www.w3.org/2000/svg" width="65" height="65" viewBox="0 0 65 65">
    <path fill="#C23934" fill-rule="nonzero" d="M61.54 13.5L42.624 32.387l18.914 18.887c2.813 2.81 5.59 4.588 0 10.172-5.59 5.584-8.779 1.405-10.184 0L32.437 42.557 13.52 61.446c-1.405 1.403-4.83 5.345-10.184 0-5.353-5.345-2.813-7.361 0-10.173L22.25 32.387 3.335 13.5c-2.813-2.81-5.831-4.353 0-10.172 5.832-5.82 7.37-2.807 10.184 0l18.918 18.888L51.353 3.328c2.815-2.807 4.4-5.774 10.185 0s2.814 7.362.001 10.172z"/>
</svg>
