<svg xmlns="http://www.w3.org/2000/svg" width="24" height="24" viewBox="0 0 24 24">
    <g fill="none" fill-rule="nonzero">
        <path fill="#344A5E" d="M15.087 17.497l-1.75-1.75 2.296-2.297 1.75 1.75z"/>
        <ellipse cx="8.664" cy="8.744" fill="#8AD7F8" stroke="#FFF" stroke-width="3.714" rx="5.817" ry="5.888"/>
        <path fill="#415A6B" d="M14.803 14.94c-3.367 3.397-8.912 3.397-12.278 0-3.367-3.398-3.367-8.994 0-12.392 3.366-3.397 8.911-3.397 12.278 0 3.366 3.398 3.416 8.994 0 12.392zM3.96 3.997a6.769 6.769 0 0 0 0 9.544 6.62 6.62 0 0 0 9.455 0 6.769 6.769 0 0 0 0-9.544c-2.623-2.648-6.881-2.648-9.455 0z"/>
        <path fill="#F3705A" d="M17.674 14.79c2.624 1.849 4.604 3.297 5.198 3.947a3.096 3.096 0 0 1 0 4.347 3.028 3.028 0 0 1-4.307 0c-.594-.6-2.079-2.598-3.91-5.246l3.02-3.048z"/>
        <path fill="#F05540" d="M15.644 19.237c-.297-.45-.643-.9-.94-1.35l3.02-3.047c.495.35.94.65 1.336.95l-3.416 3.447z"/>
        <path fill="#F3705A" d="M15.199 18.387l3.02-3.048a.79.79 0 0 0 0-1.099.772.772 0 0 0-1.09 0l-3.02 3.048a.79.79 0 0 0 0 1.1c.298.35.793.35 1.09 0z"/>
    </g>
</svg>
