<svg xmlns="http://www.w3.org/2000/svg" width="140" height="140" viewBox="0 0 140 140">
    <g fill="none" fill-rule="nonzero">
        <circle cx="69.99" cy="69.99" r="69.99" fill="#FFDC64"/>
        <path fill="#FFF" d="M63.325 74.545l-1.979-29.583c-.371-5.764-.552-9.902-.552-12.413 0-3.417.896-6.085 2.683-7.996 1.791-1.92 4.151-2.876 7.07-2.876 3.544 0 5.915 1.225 7.106 3.675 1.192 2.453 1.791 5.984 1.791 10.591 0 2.719-.146 5.482-.43 8.277l-2.657 30.448c-.288 3.626-.904 6.403-1.855 8.34-.947 1.933-2.513 2.9-4.693 2.9-2.225 0-3.767-.933-4.631-2.81-.865-1.87-1.485-4.724-1.853-8.553zm6.855 40.637c-2.511 0-4.707-.809-6.577-2.437-1.874-1.623-2.81-3.898-2.81-6.823 0-2.554.897-4.727 2.684-6.518 1.791-1.792 3.985-2.686 6.58-2.686 2.594 0 4.804.894 6.638 2.686 1.832 1.79 2.75 3.965 2.75 6.518 0 2.88-.927 5.143-2.782 6.792-1.851 1.646-4.012 2.468-6.483 2.468z"/>
    </g>
</svg>
