<svg xmlns="http://www.w3.org/2000/svg" width="225" height="239" viewBox="0 0 225 239">
    <g fill="none" fill-rule="evenodd">
        <g opacity=".8">
            <ellipse cx="22.461" cy="43.508" fill="#9AB6D9" rx="2.347" ry="2.325"/>
            <ellipse cx="212.203" cy="84.027" fill="#9AB6D9" rx="2.347" ry="2.325"/>
            <ellipse cx="5.029" cy="81.37" fill="#9AB6D9" rx="5.029" ry="4.982"/>
            <rect width="2.011" height="9.964" x="54.978" y="22.584" fill="#526173" rx="1.006"/>
            <path fill="#526173" d="M59.983 26.563c.549 0 .994.445.994 1.003 0 .555-.455 1.004-.994 1.004h-7.998a.996.996 0 0 1-.994-1.004c0-.554.455-1.003.994-1.003h7.998z"/>
            <rect width="2.682" height="13.285" x="176.333" y="11.956" fill="#526173" rx="1.341"/>
            <path fill="#526173" d="M182.993 17.26c.739 0 1.337.595 1.337 1.339 0 .739-.606 1.338-1.337 1.338h-10.639a1.334 1.334 0 0 1-1.337-1.338c0-.739.607-1.338 1.337-1.338h10.639zM221.924 50.282a.47.47 0 1 1 .939 0v3.724a.47.47 0 1 1-.939 0v-3.724z"/>
            <path fill="#526173" d="M224.09 51.808c.276 0 .5.217.5.49v-.044c0 .271-.225.49-.5.49h-3.661a.493.493 0 0 1-.5-.49v.044c0-.27.226-.49.5-.49h3.662z"/>
            <path fill="#9AB6D9" d="M40.898 93.938c0-.521.417-.943.94-.943.518 0 .938.424.938.943v7.413c0 .521-.417.943-.939.943a.942.942 0 0 1-.939-.943v-7.413z"/>
            <path fill="#9AB6D9" d="M45.301 96.31a.93.93 0 0 1 .928.936.938.938 0 0 1-.928.937h-7.464a.93.93 0 0 1-.928-.937c0-.517.425-.937.928-.937H45.3zM139.457 38.805c0-.52.417-.943.939-.943.518 0 .938.424.938.943v7.414c0 .52-.416.943-.938.943a.942.942 0 0 1-.939-.943v-7.414z"/>
            <path fill="#9AB6D9" d="M143.86 41.177a.93.93 0 0 1 .927.936.938.938 0 0 1-.927.937h-7.465a.93.93 0 0 1-.927-.937c0-.517.424-.936.927-.936h7.465zM105.263 10.242c0-.52.417-.943.939-.943.518 0 .939.424.939.943v7.414c0 .52-.417.943-.94.943a.942.942 0 0 1-.938-.943v-7.414z"/>
            <path fill="#9AB6D9" d="M109.666 12.614a.93.93 0 0 1 .928.937.938.938 0 0 1-.928.936h-7.464a.93.93 0 0 1-.928-.936c0-.518.425-.937.928-.937h7.464z"/>
            <ellipse cx="191.418" cy="36.866" fill="#9AB6D9" rx="4.358" ry="4.318"/>
            <ellipse cx="95.542" cy="37.53" fill="#9AB6D9" rx="4.358" ry="4.318"/>
            <ellipse cx="135.77" cy="4.318" fill="#9AB6D9" rx="4.358" ry="4.318"/>
            <ellipse cx="35.87" cy="67.421" fill="#9AB6D9" rx="1.676" ry="1.661"/>
        </g>
        <g fill-rule="nonzero">
            <path fill="#EBF3F8" d="M50.555 121.685h120.487l36.146 35.07H14.408z"/>
            <path fill="#B4C0D6" d="M56.626 133.183H164.97l30.096 29.322s-2.408 29.322-6.621 29.322h-156.5c-3.61 0-5.416-29.322-5.416-29.322l30.096-29.322z"/>
            <path fill="#EBF3F8" d="M146.944 156.756V168.5c0 6.46-5.421 11.745-12.048 11.745H86.7c-6.627 0-12.049-5.285-12.049-11.745v-11.745H14.41v70.47c0 6.46 5.422 11.745 12.048 11.745H195.14c6.627 0 12.049-5.285 12.049-11.745v-70.47h-60.244z"/>
            <path fill="#7A8890" d="M145.069 104.16h-16.823V68.917c0-3.525-2.404-5.875-6.009-5.875H98.205c-3.605 0-6.009 2.35-6.009 5.875v35.245H75.374c-6.61 0-9.012 4.112-6.009 9.398l34.848 33.482c3.004 5.287 8.411 5.287 12.016 0l34.848-33.482c3.004-5.286.6-9.398-6.008-9.398z"/>
        </g>
    </g>
</svg>
