<svg xmlns="http://www.w3.org/2000/svg" width="137" height="120" viewBox="0 0 137 120">
    <g fill="none" fill-rule="nonzero">
        <path fill="#6EB1E1" d="M90.44 99.854c0-9.691 5.313-18.088 13.108-22.623-4.878-1.569-10.13-2.812-15.651-3.678 11.862-6.619 19.9-19.331 19.9-33.949 0-21.435-17.271-38.81-38.58-38.81-21.31 0-38.583 17.375-38.583 38.81 0 14.613 8.039 27.33 19.902 33.949C21.39 78.123 0 93.097 0 110.89h92.947c-1.565-3.373-2.508-7.078-2.508-11.036z"/>
        <path fill="#FF6465" d="M116.777 119.848c11.085 0 20.07-8.996 20.07-20.092 0-11.097-8.985-20.092-20.07-20.092s-20.071 8.995-20.071 20.092c0 11.096 8.986 20.092 20.071 20.092z"/>
        <path fill="#FFF" d="M121.37 99.738l5.416-5.42a1.01 1.01 0 0 0 0-1.428l-3.185-3.189a1.007 1.007 0 0 0-1.426 0l-5.416 5.421-5.415-5.421a1.007 1.007 0 0 0-1.426 0l-3.185 3.19a1.01 1.01 0 0 0 0 1.426l5.415 5.421-5.415 5.422a1.01 1.01 0 0 0 0 1.427l3.185 3.189a1.007 1.007 0 0 0 1.426 0l5.415-5.421 5.416 5.42a1.007 1.007 0 0 0 1.426 0l3.186-3.188a1.01 1.01 0 0 0 0-1.427l-5.416-5.422z"/>
    </g>
</svg>
